<svg width="39" height="39" viewBox="0 0 39 39" fill="none" xmlns="http://www.w3.org/2000/svg">
<rect x="0.5" y="0.5" width="38" height="38" rx="19" fill="white" stroke="#D2D6DA"/>
<g clip-path="url(#clip0_152_3035)">
<path d="M30.2662 19.7476C30.2662 19.0234 30.2021 18.3359 30.0921 17.6667H19.7337V21.8009H25.6646C25.3987 23.1576 24.6196 24.3034 23.4646 25.0826V27.8326H27.0029C29.0746 25.9167 30.2662 23.0934 30.2662 19.7476Z" fill="#4285F4"/>
<path d="M19.7337 30.5C22.7037 30.5 25.1879 29.51 27.0029 27.8325L23.4646 25.0825C22.4746 25.7425 21.2187 26.1458 19.7337 26.1458C16.8646 26.1458 14.4354 24.2116 13.5646 21.5991H9.91624V24.4316C11.7221 28.025 15.4346 30.5 19.7337 30.5Z" fill="#34A853"/>
<path d="M13.5646 21.5992C13.3354 20.9392 13.2162 20.2334 13.2162 19.5C13.2162 18.7667 13.3446 18.0609 13.5646 17.4009V14.5684H9.91625C9.16458 16.0534 8.73375 17.7217 8.73375 19.5C8.73375 21.2784 9.16458 22.9467 9.91625 24.4317L13.5646 21.5992Z" fill="#FBBC05"/>
<path d="M19.7337 12.8542C21.3562 12.8542 22.8046 13.4133 23.9504 14.5042L27.0854 11.3692C25.1879 9.59083 22.7037 8.5 19.7337 8.5C15.4346 8.5 11.7221 10.975 9.91624 14.5683L13.5646 17.4008C14.4354 14.7883 16.8646 12.8542 19.7337 12.8542Z" fill="#EA4335"/>
</g>
<defs>
<clipPath id="clip0_152_3035">
<rect width="22" height="22" fill="white" transform="translate(8.5 8.5)"/>
</clipPath>
</defs>
</svg>
