<svg width="39" height="39" viewBox="0 0 39 39" fill="none" xmlns="http://www.w3.org/2000/svg">
<rect x="0.5" y="0.5" width="38" height="38" rx="19" fill="white" stroke="#D2D6DA"/>
<g clip-path="url(#clip0_152_2984)">
<path d="M30 19.5C30.0012 19.3319 29.9123 19.1754 29.7657 19.0875H29.7631L29.7539 19.0825L22.1306 14.6725C22.0977 14.6508 22.0635 14.6309 22.0283 14.613C21.734 14.4646 21.3843 14.4646 21.09 14.613C21.0547 14.6309 21.0206 14.6508 20.9876 14.6725L13.3644 19.0825L13.3552 19.0875C13.1222 19.2291 13.0508 19.5285 13.1957 19.7562C13.2384 19.8233 13.2972 19.8792 13.367 19.919L20.9902 24.329C21.0233 24.3505 21.0574 24.3704 21.0926 24.3885C21.3869 24.5369 21.7365 24.5369 22.0309 24.3885C22.066 24.3704 22.1002 24.3506 22.1332 24.329L29.7565 19.919C29.9088 19.8322 30.0017 19.6723 30 19.5Z" fill="#0A2767"/>
<path d="M14.2533 16.5555H19.256V21.037H14.2533V16.5555ZM28.9769 12V9.95C28.9889 9.43745 28.5738 9.01228 28.0494 9H15.0673C14.5429 9.01228 14.1277 9.43745 14.1397 9.95V12L21.8141 14L28.9769 12Z" fill="#0364B8"/>
<path d="M14.1397 11.9998H19.256V16.4998H14.1397V11.9998Z" fill="#0078D4"/>
<path d="M24.3723 11.9998H19.256V16.4998L24.3723 20.9997H28.9769V16.4998L24.3723 11.9998Z" fill="#28A8EA"/>
<path d="M19.256 16.4998H24.3723V20.9998H19.256V16.4998Z" fill="#0078D4"/>
<path d="M19.256 21H24.3723V25.5H19.256V21Z" fill="#0364B8"/>
<path d="M14.2531 21.0369H19.2558V25.1109H14.2531V21.0369Z" fill="#14447D"/>
<path d="M24.3723 21H28.9769V25.5H24.3723V21Z" fill="#0078D4"/>
<path d="M29.7658 19.8915L29.7561 19.8965L22.1328 24.0865C22.0995 24.1065 22.0658 24.1255 22.0305 24.1425C21.901 24.2028 21.7604 24.2368 21.6171 24.2425L21.2006 24.0045C21.1654 23.9872 21.1313 23.968 21.0983 23.947L13.3727 19.638H13.3691L13.1164 19.5V27.982C13.1203 28.5479 13.5928 29.0036 14.1719 29H28.961C28.9697 29 28.9774 28.996 28.9866 28.996C29.1089 28.9884 29.2295 28.9638 29.3447 28.923C29.3945 28.9024 29.4426 28.878 29.4885 28.85C29.5227 28.831 29.5816 28.7895 29.5816 28.7895C29.8437 28.6 29.9988 28.3006 30.0001 27.982V19.5C29.9999 19.6622 29.9104 19.8118 29.7658 19.8915Z" fill="url(#paint0_linear_152_2984)"/>
<path opacity="0.5" d="M29.5909 19.4663V19.9863L21.6197 25.3498L13.3672 19.6413C13.3672 19.6385 13.3649 19.6363 13.3621 19.6363L12.6049 19.1913V18.8163L12.917 18.8113L13.5769 19.1813L13.5923 19.1863L13.6486 19.2213C13.6486 19.2213 21.4048 23.5463 21.4253 23.5563L21.722 23.7263C21.7476 23.7163 21.7732 23.7063 21.8039 23.6963C21.8193 23.6863 29.5039 19.4613 29.5039 19.4613L29.5909 19.4663Z" fill="#0A2767"/>
<path d="M29.7658 19.8915L29.756 19.897L22.1328 24.087C22.0995 24.107 22.0658 24.126 22.0305 24.143C21.7344 24.2843 21.3882 24.2843 21.0921 24.143C21.0571 24.126 21.0229 24.1073 20.9898 24.087L13.3666 19.897L13.3574 19.8915C13.2102 19.8135 13.1179 19.6636 13.1164 19.5V27.982C13.1201 28.5478 13.5924 29.0036 14.1713 29C14.1713 29 14.1713 29 14.1714 29H28.9451C29.5241 29.0036 29.9964 28.5478 30.0001 27.982C30.0001 27.982 30.0001 27.982 30.0001 27.982V19.5C29.9999 19.6622 29.9104 19.8118 29.7658 19.8915Z" fill="#1490DF"/>
<path opacity="0.1" d="M22.2438 24.0247L22.1297 24.0872C22.0967 24.1077 22.0625 24.1266 22.0274 24.1437C21.9017 24.204 21.765 24.2393 21.6253 24.2477L24.5257 27.5997L29.5852 28.7912C29.7238 28.6888 29.8341 28.5542 29.906 28.3997L22.2438 24.0247Z" fill="black"/>
<path opacity="0.05" d="M22.7606 23.741L22.1297 24.0875C22.0967 24.108 22.0625 24.1269 22.0274 24.144C21.9017 24.2043 21.765 24.2396 21.6253 24.248L22.9842 27.9095L29.5867 28.79C29.8468 28.5991 29.9999 28.2998 30.0001 27.982V27.8724L22.7606 23.741Z" fill="black"/>
<path d="M14.1857 29H28.9436C29.1707 29.0011 29.3922 28.931 29.5754 28.8L21.2001 24.0055C21.1649 23.9882 21.1307 23.969 21.0978 23.948L13.3722 19.639H13.3686L13.1164 19.5V27.953C13.1158 28.5307 13.5946 28.9994 14.1857 29C14.1857 29 14.1857 29 14.1857 29Z" fill="#28A8EA"/>
<path opacity="0.1" d="M20.2792 13.9165V24.5815C20.2783 24.9554 20.0456 25.2915 19.6908 25.4315C19.5809 25.4777 19.4625 25.5015 19.3429 25.5015H13.1164V13.5H14.1397V13H19.3429C19.8598 13.0019 20.2781 13.4114 20.2792 13.9165Z" fill="black"/>
<path opacity="0.2" d="M19.7676 14.4163V25.0813C19.7688 25.2021 19.7426 25.3216 19.6908 25.4313C19.5487 25.7735 19.2092 25.9981 18.8313 25.9998H13.1164V13.4998H18.8313C18.9797 13.4983 19.126 13.5345 19.2559 13.6048C19.5696 13.7592 19.7674 14.0731 19.7676 14.4163Z" fill="black"/>
<path opacity="0.2" d="M19.7676 14.4163V24.0813C19.7651 24.5862 19.3479 24.9954 18.8313 24.9998H13.1164V13.4998H18.8313C18.9797 13.4983 19.126 13.5345 19.2559 13.6048C19.5696 13.7592 19.7674 14.0731 19.7676 14.4163Z" fill="black"/>
<path opacity="0.2" d="M19.2559 14.4163V24.0812C19.2554 24.5869 18.8371 24.9973 18.3197 24.9997H13.1164V13.4998H18.3196C18.837 13.5 19.2562 13.9101 19.2559 14.4158C19.2559 14.4159 19.2559 14.4161 19.2559 14.4163Z" fill="black"/>
<path d="M8.93792 13.4998H18.3181C18.836 13.4998 19.2559 13.9101 19.2559 14.4163V23.5832C19.2559 24.0894 18.836 24.4997 18.3181 24.4997H8.93792C8.41997 24.4997 8.00011 24.0894 8.00011 23.5832V14.4163C8.00011 13.9101 8.41999 13.4998 8.93792 13.4998Z" fill="url(#paint1_linear_152_2984)"/>
<path d="M10.9312 17.3439C11.1624 16.8626 11.5354 16.4598 12.0026 16.1874C12.5199 15.8979 13.1089 15.7536 13.7048 15.7703C14.257 15.7586 14.802 15.8955 15.2801 16.1658C15.7296 16.4278 16.0916 16.8117 16.3222 17.2708C16.5734 17.7768 16.6986 18.3336 16.6876 18.8958C16.6997 19.4834 16.5709 20.0656 16.3115 20.5958C16.0754 21.0714 15.7019 21.4689 15.2371 21.7393C14.7406 22.018 14.1754 22.1584 13.603 22.1453C13.0389 22.1586 12.4819 22.0203 11.9929 21.7453C11.5394 21.483 11.1729 21.0987 10.9369 20.6383C10.6842 20.1397 10.5576 19.5892 10.5675 19.0328C10.5569 18.4502 10.6813 17.8729 10.9312 17.3439ZM12.0732 20.0588C12.1964 20.3631 12.4054 20.627 12.6759 20.8198C12.9514 21.008 13.2813 21.1051 13.6173 21.0968C13.9751 21.1107 14.3278 21.0103 14.6221 20.8108C14.8892 20.6186 15.0926 20.354 15.2074 20.0498C15.3357 19.7102 15.399 19.3504 15.3941 18.9883C15.3981 18.6229 15.3386 18.2594 15.2181 17.9133C15.1118 17.6009 14.9148 17.3255 14.6513 17.1203C14.3643 16.9115 14.0126 16.8055 13.6551 16.8203C13.3118 16.8117 12.9746 16.9095 12.6917 17.0998C12.4167 17.2935 12.2037 17.5597 12.0778 17.8673C11.7984 18.5724 11.7969 19.3538 12.0737 20.0598L12.0732 20.0588Z" fill="white"/>
<path d="M24.3723 11.9998H28.9769V16.4998H24.3723V11.9998Z" fill="#50D9FF"/>
</g>
<defs>
<linearGradient id="paint0_linear_152_2984" x1="21.5583" y1="19.5" x2="21.5583" y2="29" gradientUnits="userSpaceOnUse">
<stop stop-color="#35B8F1"/>
<stop offset="1" stop-color="#28A8EA"/>
</linearGradient>
<linearGradient id="paint1_linear_152_2984" x1="9.95547" y1="12.7836" x2="17.0502" y2="25.3571" gradientUnits="userSpaceOnUse">
<stop stop-color="#1784D9"/>
<stop offset="0.5" stop-color="#107AD5"/>
<stop offset="1" stop-color="#0A63C9"/>
</linearGradient>
<clipPath id="clip0_152_2984">
<rect width="22" height="20" fill="white" transform="translate(8 9)"/>
</clipPath>
</defs>
</svg>
