<svg width="39" height="39" viewBox="0 0 39 39" fill="none" xmlns="http://www.w3.org/2000/svg">
<rect width="39" height="39" rx="19.5" fill="#3B79D8"/>
<g clip-path="url(#clip0_152_3045)">
<path d="M20.5176 14.7324L24.2682 18.483L16.124 26.6272L12.78 26.9964C12.3323 27.0459 11.9541 26.6674 12.0039 26.2197L12.376 22.8734L20.5176 14.7324ZM26.5879 14.174L24.8269 12.413C24.2776 11.8636 23.3866 11.8636 22.8373 12.413L20.5176 14.7324L24.2682 18.483L26.5879 16.1635C27.1372 15.6139 27.1372 14.7233 26.5879 14.174Z" fill="white"/>
<path d="M20.5176 14.7324L24.2682 18.483M20.5176 14.7324L12.376 22.8734L12.0039 26.2197C11.9541 26.6674 12.3323 27.0459 12.78 26.9964L16.124 26.6272L24.2682 18.483M20.5176 14.7324L22.8373 12.413C23.3866 11.8636 24.2776 11.8636 24.8269 12.413L26.5879 14.174C27.1372 14.7233 27.1372 15.6139 26.5879 16.1635L24.2682 18.483" stroke="black"/>
</g>
<defs>
<clipPath id="clip0_152_3045">
<rect width="17" height="17" fill="white" transform="translate(11 11)"/>
</clipPath>
</defs>
</svg>
