<svg width="39" height="39" viewBox="0 0 39 39" fill="none" xmlns="http://www.w3.org/2000/svg">
<rect y="0.000244141" width="39" height="39" rx="19.5" fill="#03C100"/>
<path d="M27.9902 23.8349C27.8423 24.9853 27.2806 26.0424 26.4102 26.8089C25.5397 27.5754 24.42 27.9988 23.2601 28C16.4998 28 11 22.5002 11 15.7399C11.0012 14.5801 11.4246 13.4603 12.191 12.5899C12.9575 11.7194 14.0147 11.1578 15.165 11.0099C15.4578 10.9745 15.7541 11.0348 16.0097 11.1819C16.2653 11.329 16.4664 11.5549 16.5828 11.8258L18.2934 15.817C18.3822 16.0234 18.4183 16.2486 18.3987 16.4725C18.3791 16.6963 18.3043 16.9118 18.181 17.0997L16.7647 19.2638L16.7646 19.264C17.4041 20.5642 18.4588 21.6143 19.7619 22.2481L21.8941 20.8268C22.0825 20.7007 22.2994 20.6238 22.5251 20.6031C22.7509 20.5824 22.9782 20.6185 23.1864 20.7081L27.1742 22.4171C27.4451 22.5336 27.6709 22.7347 27.818 22.9903C27.9651 23.2458 28.0255 23.5421 27.9902 23.8349Z" fill="white" stroke="black"/>
</svg>
