<svg width="39" height="39" viewBox="0 0 39 39" fill="none" xmlns="http://www.w3.org/2000/svg">
<rect x="0.5" y="0.5" width="38" height="38" rx="19" fill="white" stroke="#D2D6DA"/>
<g clip-path="url(#clip0_152_3017)">
<path d="M8.99992 14.6254H13.005L15.3372 20.6974L17.6997 14.6254H21.5988L15.7274 29H11.8028L13.4102 25.191L9.00005 14.6254H8.99992ZM26.1396 19.4772H21.7722L25.6485 10L29.9999 10.0002L26.1396 19.4772ZM22.9162 20.3842C24.2563 20.3842 25.3425 21.4897 25.3425 22.8533C25.3425 24.2169 24.2563 25.3224 22.9162 25.3224C21.5763 25.3224 20.4903 24.2169 20.4903 22.8533C20.4903 21.4897 21.5765 20.3842 22.9162 20.3842Z" fill="#5F01D1"/>
</g>
<defs>
<clipPath id="clip0_152_3017">
<rect width="21" height="19" fill="white" transform="translate(9 10)"/>
</clipPath>
</defs>
</svg>
