<svg width="351" height="230" viewBox="0 0 351 230" fill="none" xmlns="http://www.w3.org/2000/svg">
<mask id="mask0_152_1434" style="mask-type:alpha" maskUnits="userSpaceOnUse" x="0" y="0" width="351" height="230">
<rect x="0.5" y="0.5" width="350" height="229" rx="13.5" fill="#F1FAEE" stroke="#DBE4E4"/>
</mask>
<g mask="url(#mask0_152_1434)">
<rect width="351" height="230" rx="14" fill="#DCF8F3"/>
<path d="M18.962 28V18.9H20.054V27.129H24.292V28H18.962ZM27.8721 28.156C27.3347 28.156 26.8884 28.065 26.5331 27.883C26.1777 27.701 25.9134 27.4583 25.7401 27.155C25.5667 26.8517 25.4801 26.5223 25.4801 26.167C25.4801 25.5083 25.7314 25.0013 26.2341 24.646C26.7367 24.2907 27.4214 24.113 28.2881 24.113H30.0301V24.035C30.0301 23.4717 29.8827 23.047 29.5881 22.761C29.2934 22.4663 28.8991 22.319 28.4051 22.319C27.9804 22.319 27.6121 22.4273 27.3001 22.644C26.9967 22.852 26.8061 23.1597 26.7281 23.567H25.6101C25.6534 23.099 25.8094 22.7047 26.0781 22.384C26.3554 22.0633 26.6977 21.8207 27.1051 21.656C27.5124 21.4827 27.9457 21.396 28.4051 21.396C29.3064 21.396 29.9824 21.6387 30.4331 22.124C30.8924 22.6007 31.1221 23.2377 31.1221 24.035V28H30.1471L30.0821 26.843C29.9001 27.207 29.6314 27.519 29.2761 27.779C28.9294 28.0303 28.4614 28.156 27.8721 28.156ZM28.0411 27.233C28.4571 27.233 28.8124 27.1247 29.1071 26.908C29.4104 26.6913 29.6401 26.4097 29.7961 26.063C29.9521 25.7163 30.0301 25.3523 30.0301 24.971V24.958H28.3791C27.7377 24.958 27.2827 25.0707 27.0141 25.296C26.7541 25.5127 26.6241 25.7857 26.6241 26.115C26.6241 26.453 26.7454 26.726 26.9881 26.934C27.2394 27.1333 27.5904 27.233 28.0411 27.233ZM35.1305 28C34.5412 28 34.0775 27.857 33.7395 27.571C33.4015 27.285 33.2325 26.7693 33.2325 26.024V22.475H32.1145V21.552H33.2325L33.3755 20.005H34.3245V21.552H36.2225V22.475H34.3245V26.024C34.3245 26.4313 34.4069 26.7087 34.5715 26.856C34.7362 26.9947 35.0265 27.064 35.4425 27.064H36.1185V28H35.1305ZM40.3312 28.156C39.7158 28.156 39.1698 28.0173 38.6932 27.74C38.2165 27.454 37.8395 27.0597 37.5622 26.557C37.2935 26.0543 37.1592 25.4607 37.1592 24.776C37.1592 24.1 37.2935 23.5107 37.5622 23.008C37.8308 22.4967 38.2035 22.1023 38.6802 21.825C39.1655 21.539 39.7245 21.396 40.3572 21.396C40.9812 21.396 41.5185 21.539 41.9692 21.825C42.4285 22.1023 42.7795 22.4707 43.0222 22.93C43.2648 23.3893 43.3862 23.8833 43.3862 24.412C43.3862 24.5073 43.3818 24.6027 43.3732 24.698C43.3732 24.7933 43.3732 24.9017 43.3732 25.023H38.2382C38.2642 25.517 38.3768 25.9287 38.5762 26.258C38.7842 26.5787 39.0398 26.8213 39.3432 26.986C39.6552 27.1507 39.9845 27.233 40.3312 27.233C40.7818 27.233 41.1588 27.129 41.4622 26.921C41.7655 26.713 41.9865 26.4313 42.1252 26.076H43.2042C43.0308 26.674 42.6972 27.1723 42.2032 27.571C41.7178 27.961 41.0938 28.156 40.3312 28.156ZM40.3312 22.319C39.8112 22.319 39.3475 22.4793 38.9402 22.8C38.5415 23.112 38.3118 23.5713 38.2512 24.178H42.3072C42.2812 23.5973 42.0818 23.1423 41.7092 22.813C41.3365 22.4837 40.8772 22.319 40.3312 22.319ZM47.3035 28.156C46.5322 28.156 45.8909 27.961 45.3795 27.571C44.8682 27.181 44.5692 26.6523 44.4825 25.985H45.6005C45.6699 26.323 45.8475 26.6177 46.1335 26.869C46.4282 27.1117 46.8225 27.233 47.3165 27.233C47.7759 27.233 48.1139 27.1377 48.3305 26.947C48.5472 26.7477 48.6555 26.5137 48.6555 26.245C48.6555 25.855 48.5125 25.595 48.2265 25.465C47.9492 25.335 47.5549 25.218 47.0435 25.114C46.6969 25.0447 46.3502 24.945 46.0035 24.815C45.6569 24.685 45.3665 24.503 45.1325 24.269C44.8985 24.0263 44.7815 23.71 44.7815 23.32C44.7815 22.7567 44.9895 22.2973 45.4055 21.942C45.8302 21.578 46.4022 21.396 47.1215 21.396C47.8062 21.396 48.3652 21.5693 48.7985 21.916C49.2405 22.254 49.4962 22.7393 49.5655 23.372H48.4865C48.4432 23.0427 48.3002 22.787 48.0575 22.605C47.8235 22.4143 47.5072 22.319 47.1085 22.319C46.7185 22.319 46.4152 22.4013 46.1985 22.566C45.9905 22.7307 45.8865 22.9473 45.8865 23.216C45.8865 23.476 46.0209 23.6797 46.2895 23.827C46.5669 23.9743 46.9395 24.1 47.4075 24.204C47.8062 24.2907 48.1832 24.399 48.5385 24.529C48.9025 24.6503 49.1972 24.8367 49.4225 25.088C49.6565 25.3307 49.7735 25.686 49.7735 26.154C49.7822 26.7347 49.5612 27.2157 49.1105 27.597C48.6685 27.9697 48.0662 28.156 47.3035 28.156ZM53.5895 28C53.0002 28 52.5365 27.857 52.1985 27.571C51.8605 27.285 51.6915 26.7693 51.6915 26.024V22.475H50.5735V21.552H51.6915L51.8345 20.005H52.7835V21.552H54.6815V22.475H52.7835V26.024C52.7835 26.4313 52.8659 26.7087 53.0305 26.856C53.1952 26.9947 53.4855 27.064 53.9015 27.064H54.5775V28H53.5895ZM62.4733 28.156C61.858 28.156 61.3033 28.0173 60.8093 27.74C60.324 27.454 59.9383 27.0597 59.6523 26.557C59.375 26.0457 59.2363 25.452 59.2363 24.776C59.2363 24.1 59.375 23.5107 59.6523 23.008C59.9383 22.4967 60.324 22.1023 60.8093 21.825C61.3033 21.539 61.858 21.396 62.4733 21.396C63.236 21.396 63.8773 21.5953 64.3973 21.994C64.926 22.3927 65.2596 22.9257 65.3983 23.593H64.2803C64.1936 23.1943 63.9813 22.8867 63.6433 22.67C63.3053 22.4447 62.911 22.332 62.4603 22.332C62.0963 22.332 61.754 22.423 61.4333 22.605C61.1126 22.787 60.8526 23.06 60.6533 23.424C60.454 23.788 60.3543 24.2387 60.3543 24.776C60.3543 25.3133 60.454 25.764 60.6533 26.128C60.8526 26.492 61.1126 26.7693 61.4333 26.96C61.754 27.142 62.0963 27.233 62.4603 27.233C62.911 27.233 63.3053 27.1247 63.6433 26.908C63.9813 26.6827 64.1936 26.3663 64.2803 25.959H65.3983C65.2683 26.609 64.939 27.1377 64.4103 27.545C63.8816 27.9523 63.236 28.156 62.4733 28.156ZM69.0684 28.156C68.531 28.156 68.0847 28.065 67.7294 27.883C67.374 27.701 67.1097 27.4583 66.9364 27.155C66.763 26.8517 66.6764 26.5223 66.6764 26.167C66.6764 25.5083 66.9277 25.0013 67.4304 24.646C67.933 24.2907 68.6177 24.113 69.4844 24.113H71.2264V24.035C71.2264 23.4717 71.079 23.047 70.7844 22.761C70.4897 22.4663 70.0954 22.319 69.6014 22.319C69.1767 22.319 68.8084 22.4273 68.4964 22.644C68.193 22.852 68.0024 23.1597 67.9244 23.567H66.8064C66.8497 23.099 67.0057 22.7047 67.2744 22.384C67.5517 22.0633 67.894 21.8207 68.3014 21.656C68.7087 21.4827 69.142 21.396 69.6014 21.396C70.5027 21.396 71.1787 21.6387 71.6294 22.124C72.0887 22.6007 72.3184 23.2377 72.3184 24.035V28H71.3434L71.2784 26.843C71.0964 27.207 70.8277 27.519 70.4724 27.779C70.1257 28.0303 69.6577 28.156 69.0684 28.156ZM69.2374 27.233C69.6534 27.233 70.0087 27.1247 70.3034 26.908C70.6067 26.6913 70.8364 26.4097 70.9924 26.063C71.1484 25.7163 71.2264 25.3523 71.2264 24.971V24.958H69.5754C68.934 24.958 68.479 25.0707 68.2104 25.296C67.9504 25.5127 67.8204 25.7857 67.8204 26.115C67.8204 26.453 67.9417 26.726 68.1844 26.934C68.4357 27.1333 68.7867 27.233 69.2374 27.233ZM73.9566 28V21.552H74.9446L75.0226 22.488C75.2306 22.1413 75.5079 21.8727 75.8546 21.682C76.2012 21.4913 76.5912 21.396 77.0246 21.396C77.5359 21.396 77.9736 21.5 78.3376 21.708C78.7102 21.916 78.9962 22.2323 79.1956 22.657C79.4209 22.267 79.7286 21.9593 80.1186 21.734C80.5172 21.5087 80.9462 21.396 81.4056 21.396C82.1769 21.396 82.7922 21.63 83.2516 22.098C83.7109 22.5573 83.9406 23.268 83.9406 24.23V28H82.8616V24.347C82.8616 23.6797 82.7272 23.177 82.4586 22.839C82.1899 22.501 81.8042 22.332 81.3016 22.332C80.7816 22.332 80.3482 22.5357 80.0016 22.943C79.6636 23.3417 79.4946 23.9137 79.4946 24.659V28H78.4026V24.347C78.4026 23.6797 78.2682 23.177 77.9996 22.839C77.7309 22.501 77.3452 22.332 76.8426 22.332C76.3312 22.332 75.9022 22.5357 75.5556 22.943C75.2176 23.3417 75.0486 23.9137 75.0486 24.659V28H73.9566ZM85.5855 30.86V21.552H86.5735L86.6775 22.618C86.8855 22.306 87.1801 22.0243 87.5615 21.773C87.9515 21.5217 88.4455 21.396 89.0435 21.396C89.6848 21.396 90.2438 21.5433 90.7205 21.838C91.1971 22.1327 91.5655 22.5357 91.8255 23.047C92.0941 23.5583 92.2285 24.139 92.2285 24.789C92.2285 25.439 92.0941 26.0197 91.8255 26.531C91.5655 27.0337 91.1928 27.4323 90.7075 27.727C90.2308 28.013 89.6718 28.156 89.0305 28.156C88.5018 28.156 88.0295 28.0477 87.6135 27.831C87.2061 27.6143 86.8941 27.311 86.6775 26.921V30.86H85.5855ZM88.9135 27.207C89.3468 27.207 89.7281 27.1073 90.0575 26.908C90.3868 26.7 90.6468 26.414 90.8375 26.05C91.0281 25.686 91.1235 25.2613 91.1235 24.776C91.1235 24.2907 91.0281 23.866 90.8375 23.502C90.6468 23.138 90.3868 22.8563 90.0575 22.657C89.7281 22.449 89.3468 22.345 88.9135 22.345C88.4801 22.345 88.0988 22.449 87.7695 22.657C87.4401 22.8563 87.1801 23.138 86.9895 23.502C86.7988 23.866 86.7035 24.2907 86.7035 24.776C86.7035 25.2613 86.7988 25.686 86.9895 26.05C87.1801 26.414 87.4401 26.7 87.7695 26.908C88.0988 27.1073 88.4801 27.207 88.9135 27.207ZM95.8936 28.156C95.3562 28.156 94.9099 28.065 94.5546 27.883C94.1992 27.701 93.9349 27.4583 93.7616 27.155C93.5882 26.8517 93.5016 26.5223 93.5016 26.167C93.5016 25.5083 93.7529 25.0013 94.2556 24.646C94.7582 24.2907 95.4429 24.113 96.3096 24.113H98.0516V24.035C98.0516 23.4717 97.9042 23.047 97.6096 22.761C97.3149 22.4663 96.9206 22.319 96.4266 22.319C96.0019 22.319 95.6336 22.4273 95.3216 22.644C95.0182 22.852 94.8276 23.1597 94.7496 23.567H93.6316C93.6749 23.099 93.8309 22.7047 94.0996 22.384C94.3769 22.0633 94.7192 21.8207 95.1266 21.656C95.5339 21.4827 95.9672 21.396 96.4266 21.396C97.3279 21.396 98.0039 21.6387 98.4546 22.124C98.9139 22.6007 99.1436 23.2377 99.1436 24.035V28H98.1686L98.1036 26.843C97.9216 27.207 97.6529 27.519 97.2976 27.779C96.9509 28.0303 96.4829 28.156 95.8936 28.156ZM96.0626 27.233C96.4786 27.233 96.8339 27.1247 97.1286 26.908C97.4319 26.6913 97.6616 26.4097 97.8176 26.063C97.9736 25.7163 98.0516 25.3523 98.0516 24.971V24.958H96.4006C95.7592 24.958 95.3042 25.0707 95.0356 25.296C94.7756 25.5127 94.6456 25.7857 94.6456 26.115C94.6456 26.453 94.7669 26.726 95.0096 26.934C95.2609 27.1333 95.6119 27.233 96.0626 27.233ZM101.445 20.122C101.228 20.122 101.046 20.0527 100.899 19.914C100.76 19.7667 100.691 19.5847 100.691 19.368C100.691 19.16 100.76 18.9867 100.899 18.848C101.046 18.7093 101.228 18.64 101.445 18.64C101.653 18.64 101.83 18.7093 101.978 18.848C102.125 18.9867 102.199 19.16 102.199 19.368C102.199 19.5847 102.125 19.7667 101.978 19.914C101.83 20.0527 101.653 20.122 101.445 20.122ZM100.899 28V21.552H101.991V28H100.899ZM106.44 25.972C106.076 25.972 105.742 25.9243 105.439 25.829L104.789 26.44C104.884 26.5093 105.001 26.57 105.14 26.622C105.287 26.6653 105.495 26.7087 105.764 26.752C106.033 26.7867 106.41 26.8257 106.895 26.869C107.762 26.9297 108.381 27.129 108.754 27.467C109.127 27.805 109.313 28.247 109.313 28.793C109.313 29.1657 109.209 29.521 109.001 29.859C108.802 30.197 108.49 30.4743 108.065 30.691C107.649 30.9077 107.112 31.016 106.453 31.016C105.872 31.016 105.357 30.938 104.906 30.782C104.455 30.6347 104.104 30.405 103.853 30.093C103.602 29.7897 103.476 29.404 103.476 28.936C103.476 28.6933 103.541 28.429 103.671 28.143C103.801 27.8657 104.044 27.6013 104.399 27.35C104.208 27.272 104.044 27.1897 103.905 27.103C103.775 27.0077 103.654 26.9037 103.541 26.791V26.492L104.646 25.4C104.135 24.9667 103.879 24.3947 103.879 23.684C103.879 23.2593 103.979 22.8737 104.178 22.527C104.377 22.1803 104.668 21.9073 105.049 21.708C105.43 21.5 105.894 21.396 106.44 21.396C106.813 21.396 107.151 21.448 107.454 21.552H109.833V22.371L108.624 22.423C108.875 22.787 109.001 23.2073 109.001 23.684C109.001 24.1087 108.897 24.4943 108.689 24.841C108.49 25.1877 108.199 25.465 107.818 25.673C107.445 25.8723 106.986 25.972 106.44 25.972ZM106.44 25.075C106.899 25.075 107.263 24.958 107.532 24.724C107.809 24.4813 107.948 24.1347 107.948 23.684C107.948 23.242 107.809 22.904 107.532 22.67C107.263 22.4273 106.899 22.306 106.44 22.306C105.972 22.306 105.599 22.4273 105.322 22.67C105.053 22.904 104.919 23.242 104.919 23.684C104.919 24.1347 105.053 24.4813 105.322 24.724C105.599 24.958 105.972 25.075 106.44 25.075ZM104.542 28.832C104.542 29.2653 104.724 29.586 105.088 29.794C105.452 30.0107 105.907 30.119 106.453 30.119C106.99 30.119 107.419 30.002 107.74 29.768C108.069 29.534 108.234 29.222 108.234 28.832C108.234 28.5547 108.121 28.312 107.896 28.104C107.671 27.9047 107.255 27.7877 106.648 27.753C106.171 27.7183 105.76 27.675 105.413 27.623C105.058 27.8137 104.824 28.0173 104.711 28.234C104.598 28.4593 104.542 28.6587 104.542 28.832ZM111.065 28V21.552H112.053L112.118 22.709C112.326 22.3017 112.625 21.981 113.015 21.747C113.405 21.513 113.847 21.396 114.341 21.396C115.104 21.396 115.71 21.63 116.161 22.098C116.62 22.5573 116.85 23.268 116.85 24.23V28H115.758V24.347C115.758 23.0037 115.203 22.332 114.094 22.332C113.539 22.332 113.076 22.5357 112.703 22.943C112.339 23.3417 112.157 23.9137 112.157 24.659V28H111.065Z" fill="#727578"/>
<circle cx="176" cy="288" r="124" fill="#1F3758"/>
<path d="M147.284 408.718C80.599 393.127 39.1791 326.429 54.7701 259.744C70.361 193.059 137.059 151.639 203.744 167.23" stroke="#3B79D8" stroke-width="30"/>
<path d="M147.284 408.718C213.969 424.309 280.667 382.889 296.258 316.204C311.849 249.519 270.429 182.821 203.744 167.23" stroke="#FF874E" stroke-width="30"/>
<path d="M135.279 92V83.6H136.455L139.479 89.456L142.479 83.6H143.667V92H142.659V85.4L139.851 90.8H139.095L136.287 85.412V92H135.279ZM148.055 92.144C147.487 92.144 146.983 92.016 146.543 91.76C146.103 91.496 145.755 91.132 145.499 90.668C145.251 90.204 145.127 89.656 145.127 89.024C145.127 88.4 145.251 87.856 145.499 87.392C145.747 86.92 146.091 86.556 146.531 86.3C146.979 86.036 147.495 85.904 148.079 85.904C148.655 85.904 149.151 86.036 149.567 86.3C149.991 86.556 150.315 86.896 150.539 87.32C150.763 87.744 150.875 88.2 150.875 88.688C150.875 88.776 150.871 88.864 150.863 88.952C150.863 89.04 150.863 89.14 150.863 89.252H146.123C146.147 89.708 146.251 90.088 146.435 90.392C146.627 90.688 146.863 90.912 147.143 91.064C147.431 91.216 147.735 91.292 148.055 91.292C148.471 91.292 148.819 91.196 149.099 91.004C149.379 90.812 149.583 90.552 149.711 90.224H150.707C150.547 90.776 150.239 91.236 149.783 91.604C149.335 91.964 148.759 92.144 148.055 92.144ZM148.055 86.756C147.575 86.756 147.147 86.904 146.771 87.2C146.403 87.488 146.191 87.912 146.135 88.472H149.879C149.855 87.936 149.671 87.516 149.327 87.212C148.983 86.908 148.559 86.756 148.055 86.756ZM154.491 92.144C153.779 92.144 153.187 91.964 152.715 91.604C152.243 91.244 151.967 90.756 151.887 90.14H152.919C152.983 90.452 153.147 90.724 153.411 90.956C153.683 91.18 154.047 91.292 154.503 91.292C154.927 91.292 155.239 91.204 155.439 91.028C155.639 90.844 155.739 90.628 155.739 90.38C155.739 90.02 155.607 89.78 155.343 89.66C155.087 89.54 154.723 89.432 154.251 89.336C153.931 89.272 153.611 89.18 153.291 89.06C152.971 88.94 152.703 88.772 152.487 88.556C152.271 88.332 152.163 88.04 152.163 87.68C152.163 87.16 152.355 86.736 152.739 86.408C153.131 86.072 153.659 85.904 154.323 85.904C154.955 85.904 155.471 86.064 155.871 86.384C156.279 86.696 156.515 87.144 156.579 87.728H155.583C155.543 87.424 155.411 87.188 155.187 87.02C154.971 86.844 154.679 86.756 154.311 86.756C153.951 86.756 153.671 86.832 153.471 86.984C153.279 87.136 153.183 87.336 153.183 87.584C153.183 87.824 153.307 88.012 153.555 88.148C153.811 88.284 154.155 88.4 154.587 88.496C154.955 88.576 155.303 88.676 155.631 88.796C155.967 88.908 156.239 89.08 156.447 89.312C156.663 89.536 156.771 89.864 156.771 90.296C156.779 90.832 156.575 91.276 156.159 91.628C155.751 91.972 155.195 92.144 154.491 92.144ZM160.491 92.144C159.779 92.144 159.187 91.964 158.715 91.604C158.243 91.244 157.967 90.756 157.887 90.14H158.919C158.983 90.452 159.147 90.724 159.411 90.956C159.683 91.18 160.047 91.292 160.503 91.292C160.927 91.292 161.239 91.204 161.439 91.028C161.639 90.844 161.739 90.628 161.739 90.38C161.739 90.02 161.607 89.78 161.343 89.66C161.087 89.54 160.723 89.432 160.251 89.336C159.931 89.272 159.611 89.18 159.291 89.06C158.971 88.94 158.703 88.772 158.487 88.556C158.271 88.332 158.163 88.04 158.163 87.68C158.163 87.16 158.355 86.736 158.739 86.408C159.131 86.072 159.659 85.904 160.323 85.904C160.955 85.904 161.471 86.064 161.871 86.384C162.279 86.696 162.515 87.144 162.579 87.728H161.583C161.543 87.424 161.411 87.188 161.187 87.02C160.971 86.844 160.679 86.756 160.311 86.756C159.951 86.756 159.671 86.832 159.471 86.984C159.279 87.136 159.183 87.336 159.183 87.584C159.183 87.824 159.307 88.012 159.555 88.148C159.811 88.284 160.155 88.4 160.587 88.496C160.955 88.576 161.303 88.676 161.631 88.796C161.967 88.908 162.239 89.08 162.447 89.312C162.663 89.536 162.771 89.864 162.771 90.296C162.779 90.832 162.575 91.276 162.159 91.628C161.751 91.972 161.195 92.144 160.491 92.144ZM166.191 92.144C165.695 92.144 165.283 92.06 164.955 91.892C164.627 91.724 164.383 91.5 164.223 91.22C164.063 90.94 163.983 90.636 163.983 90.308C163.983 89.7 164.215 89.232 164.679 88.904C165.143 88.576 165.775 88.412 166.575 88.412H168.183V88.34C168.183 87.82 168.047 87.428 167.775 87.164C167.503 86.892 167.139 86.756 166.683 86.756C166.291 86.756 165.951 86.856 165.663 87.056C165.383 87.248 165.207 87.532 165.135 87.908H164.103C164.143 87.476 164.287 87.112 164.535 86.816C164.791 86.52 165.107 86.296 165.483 86.144C165.859 85.984 166.259 85.904 166.683 85.904C167.515 85.904 168.139 86.128 168.555 86.576C168.979 87.016 169.191 87.604 169.191 88.34V92H168.291L168.231 90.932C168.063 91.268 167.815 91.556 167.487 91.796C167.167 92.028 166.735 92.144 166.191 92.144ZM166.347 91.292C166.731 91.292 167.059 91.192 167.331 90.992C167.611 90.792 167.823 90.532 167.967 90.212C168.111 89.892 168.183 89.556 168.183 89.204V89.192H166.659C166.067 89.192 165.647 89.296 165.399 89.504C165.159 89.704 165.039 89.956 165.039 90.26C165.039 90.572 165.151 90.824 165.375 91.016C165.607 91.2 165.931 91.292 166.347 91.292ZM173.055 90.128C172.719 90.128 172.411 90.084 172.131 89.996L171.531 90.56C171.619 90.624 171.727 90.68 171.855 90.728C171.991 90.768 172.183 90.808 172.431 90.848C172.679 90.88 173.027 90.916 173.475 90.956C174.275 91.012 174.847 91.196 175.191 91.508C175.535 91.82 175.707 92.228 175.707 92.732C175.707 93.076 175.611 93.404 175.419 93.716C175.235 94.028 174.947 94.284 174.555 94.484C174.171 94.684 173.675 94.784 173.067 94.784C172.531 94.784 172.055 94.712 171.639 94.568C171.223 94.432 170.899 94.22 170.667 93.932C170.435 93.652 170.319 93.296 170.319 92.864C170.319 92.64 170.379 92.396 170.499 92.132C170.619 91.876 170.843 91.632 171.171 91.4C170.995 91.328 170.843 91.252 170.715 91.172C170.595 91.084 170.483 90.988 170.379 90.884V90.608L171.399 89.6C170.927 89.2 170.691 88.672 170.691 88.016C170.691 87.624 170.783 87.268 170.967 86.948C171.151 86.628 171.419 86.376 171.771 86.192C172.123 86 172.551 85.904 173.055 85.904C173.399 85.904 173.711 85.952 173.991 86.048H176.187V86.804L175.071 86.852C175.303 87.188 175.419 87.576 175.419 88.016C175.419 88.408 175.323 88.764 175.131 89.084C174.947 89.404 174.679 89.66 174.327 89.852C173.983 90.036 173.559 90.128 173.055 90.128ZM173.055 89.3C173.479 89.3 173.815 89.192 174.063 88.976C174.319 88.752 174.447 88.432 174.447 88.016C174.447 87.608 174.319 87.296 174.063 87.08C173.815 86.856 173.479 86.744 173.055 86.744C172.623 86.744 172.279 86.856 172.023 87.08C171.775 87.296 171.651 87.608 171.651 88.016C171.651 88.432 171.775 88.752 172.023 88.976C172.279 89.192 172.623 89.3 173.055 89.3ZM171.303 92.768C171.303 93.168 171.471 93.464 171.807 93.656C172.143 93.856 172.563 93.956 173.067 93.956C173.563 93.956 173.959 93.848 174.255 93.632C174.559 93.416 174.711 93.128 174.711 92.768C174.711 92.512 174.607 92.288 174.399 92.096C174.191 91.912 173.807 91.804 173.247 91.772C172.807 91.74 172.427 91.7 172.107 91.652C171.779 91.828 171.563 92.016 171.459 92.216C171.355 92.424 171.303 92.608 171.303 92.768ZM179.766 92.144C179.198 92.144 178.694 92.016 178.254 91.76C177.814 91.496 177.466 91.132 177.21 90.668C176.962 90.204 176.838 89.656 176.838 89.024C176.838 88.4 176.962 87.856 177.21 87.392C177.458 86.92 177.802 86.556 178.242 86.3C178.69 86.036 179.206 85.904 179.79 85.904C180.366 85.904 180.862 86.036 181.278 86.3C181.702 86.556 182.026 86.896 182.25 87.32C182.474 87.744 182.586 88.2 182.586 88.688C182.586 88.776 182.582 88.864 182.574 88.952C182.574 89.04 182.574 89.14 182.574 89.252H177.834C177.858 89.708 177.962 90.088 178.146 90.392C178.338 90.688 178.574 90.912 178.854 91.064C179.142 91.216 179.446 91.292 179.766 91.292C180.182 91.292 180.53 91.196 180.81 91.004C181.09 90.812 181.294 90.552 181.422 90.224H182.418C182.258 90.776 181.95 91.236 181.494 91.604C181.046 91.964 180.47 92.144 179.766 92.144ZM179.766 86.756C179.286 86.756 178.858 86.904 178.482 87.2C178.114 87.488 177.902 87.912 177.846 88.472H181.59C181.566 87.936 181.382 87.516 181.038 87.212C180.694 86.908 180.27 86.756 179.766 86.756ZM186.202 92.144C185.49 92.144 184.898 91.964 184.426 91.604C183.954 91.244 183.678 90.756 183.598 90.14H184.63C184.694 90.452 184.858 90.724 185.122 90.956C185.394 91.18 185.758 91.292 186.214 91.292C186.638 91.292 186.95 91.204 187.15 91.028C187.35 90.844 187.45 90.628 187.45 90.38C187.45 90.02 187.318 89.78 187.054 89.66C186.798 89.54 186.434 89.432 185.962 89.336C185.642 89.272 185.322 89.18 185.002 89.06C184.682 88.94 184.414 88.772 184.198 88.556C183.982 88.332 183.874 88.04 183.874 87.68C183.874 87.16 184.066 86.736 184.45 86.408C184.842 86.072 185.37 85.904 186.034 85.904C186.666 85.904 187.182 86.064 187.582 86.384C187.99 86.696 188.226 87.144 188.29 87.728H187.294C187.254 87.424 187.122 87.188 186.898 87.02C186.682 86.844 186.39 86.756 186.022 86.756C185.662 86.756 185.382 86.832 185.182 86.984C184.99 87.136 184.894 87.336 184.894 87.584C184.894 87.824 185.018 88.012 185.266 88.148C185.522 88.284 185.866 88.4 186.298 88.496C186.666 88.576 187.014 88.676 187.342 88.796C187.678 88.908 187.95 89.08 188.158 89.312C188.374 89.536 188.482 89.864 188.482 90.296C188.49 90.832 188.286 91.276 187.87 91.628C187.462 91.972 186.906 92.144 186.202 92.144ZM195.378 92.144C194.666 92.144 194.074 91.964 193.602 91.604C193.13 91.244 192.854 90.756 192.774 90.14H193.806C193.87 90.452 194.034 90.724 194.298 90.956C194.57 91.18 194.934 91.292 195.39 91.292C195.814 91.292 196.126 91.204 196.326 91.028C196.526 90.844 196.626 90.628 196.626 90.38C196.626 90.02 196.494 89.78 196.23 89.66C195.974 89.54 195.61 89.432 195.138 89.336C194.818 89.272 194.498 89.18 194.178 89.06C193.858 88.94 193.59 88.772 193.374 88.556C193.158 88.332 193.05 88.04 193.05 87.68C193.05 87.16 193.242 86.736 193.626 86.408C194.018 86.072 194.546 85.904 195.21 85.904C195.842 85.904 196.358 86.064 196.758 86.384C197.166 86.696 197.402 87.144 197.466 87.728H196.47C196.43 87.424 196.298 87.188 196.074 87.02C195.858 86.844 195.566 86.756 195.198 86.756C194.838 86.756 194.558 86.832 194.358 86.984C194.166 87.136 194.07 87.336 194.07 87.584C194.07 87.824 194.194 88.012 194.442 88.148C194.698 88.284 195.042 88.4 195.474 88.496C195.842 88.576 196.19 88.676 196.518 88.796C196.854 88.908 197.126 89.08 197.334 89.312C197.55 89.536 197.658 89.864 197.658 90.296C197.666 90.832 197.462 91.276 197.046 91.628C196.638 91.972 196.082 92.144 195.378 92.144ZM201.774 92.144C201.206 92.144 200.702 92.016 200.262 91.76C199.822 91.496 199.474 91.132 199.218 90.668C198.97 90.204 198.846 89.656 198.846 89.024C198.846 88.4 198.97 87.856 199.218 87.392C199.466 86.92 199.81 86.556 200.25 86.3C200.698 86.036 201.214 85.904 201.798 85.904C202.374 85.904 202.87 86.036 203.286 86.3C203.71 86.556 204.034 86.896 204.258 87.32C204.482 87.744 204.594 88.2 204.594 88.688C204.594 88.776 204.59 88.864 204.582 88.952C204.582 89.04 204.582 89.14 204.582 89.252H199.842C199.866 89.708 199.97 90.088 200.154 90.392C200.346 90.688 200.582 90.912 200.862 91.064C201.15 91.216 201.454 91.292 201.774 91.292C202.19 91.292 202.538 91.196 202.818 91.004C203.098 90.812 203.302 90.552 203.43 90.224H204.426C204.266 90.776 203.958 91.236 203.502 91.604C203.054 91.964 202.478 92.144 201.774 92.144ZM201.774 86.756C201.294 86.756 200.866 86.904 200.49 87.2C200.122 87.488 199.91 87.912 199.854 88.472H203.598C203.574 87.936 203.39 87.516 203.046 87.212C202.702 86.908 202.278 86.756 201.774 86.756ZM205.93 92V86.048H206.842L206.902 87.116C207.094 86.74 207.37 86.444 207.73 86.228C208.09 86.012 208.498 85.904 208.954 85.904C209.658 85.904 210.218 86.12 210.634 86.552C211.058 86.976 211.27 87.632 211.27 88.52V92H210.262V88.628C210.262 87.388 209.75 86.768 208.726 86.768C208.214 86.768 207.786 86.956 207.442 87.332C207.106 87.7 206.938 88.228 206.938 88.916V92H205.93ZM215.149 92C214.605 92 214.177 91.868 213.865 91.604C213.553 91.34 213.397 90.864 213.397 90.176V86.9H212.365V86.048H213.397L213.529 84.62H214.405V86.048H216.157V86.9H214.405V90.176C214.405 90.552 214.481 90.808 214.633 90.944C214.785 91.072 215.053 91.136 215.437 91.136H216.061V92H215.149Z" fill="#727578"/>
<path d="M144.138 127V108.164L140.228 109.082V105.75L145.974 103.2H148.66V127H144.138ZM151.439 130.944L153.377 122.478H157.593L154.295 130.944H151.439ZM160.566 127V123.838C162.017 122.637 163.422 121.447 164.782 120.268C166.165 119.089 167.389 117.922 168.454 116.766C169.542 115.61 170.403 114.488 171.038 113.4C171.695 112.289 172.024 111.213 172.024 110.17C172.024 109.195 171.752 108.334 171.208 107.586C170.687 106.838 169.814 106.464 168.59 106.464C167.343 106.464 166.403 106.872 165.768 107.688C165.133 108.504 164.816 109.49 164.816 110.646H160.6C160.645 108.901 161.031 107.45 161.756 106.294C162.481 105.115 163.445 104.243 164.646 103.676C165.847 103.087 167.196 102.792 168.692 102.792C171.117 102.792 172.999 103.461 174.336 104.798C175.696 106.113 176.376 107.824 176.376 109.932C176.376 111.247 176.07 112.527 175.458 113.774C174.869 115.021 174.087 116.222 173.112 117.378C172.137 118.534 171.083 119.622 169.95 120.642C168.817 121.639 167.717 122.569 166.652 123.43H176.954V127H160.566ZM183.152 127V108.164L179.242 109.082V105.75L184.988 103.2H187.674V127H183.152ZM203.169 127V122.58H191.439V119.112L202.591 103.2H207.521V118.806H210.649V122.58H207.521V127H203.169ZM196.097 118.806H203.441V107.994L196.097 118.806Z" fill="black"/>
<path d="M25.48 55.24C24.16 55.24 23.0067 54.94 22.02 54.34C21.0333 53.74 20.2667 52.9067 19.72 51.84C19.1733 50.76 18.9 49.5067 18.9 48.08C18.9 46.64 19.18 45.3733 19.74 44.28C20.3133 43.1733 21.12 42.3133 22.16 41.7C23.2133 41.0733 24.46 40.76 25.9 40.76C27.54 40.76 28.9 41.1533 29.98 41.94C31.06 42.7267 31.76 43.8133 32.08 45.2H29.22C29.0067 44.5467 28.62 44.04 28.06 43.68C27.5 43.3067 26.78 43.12 25.9 43.12C24.5 43.12 23.42 43.5667 22.66 44.46C21.9 45.34 21.52 46.5533 21.52 48.1C21.52 49.6467 21.8933 50.8467 22.64 51.7C23.4 52.54 24.4267 52.96 25.72 52.96C26.9867 52.96 27.94 52.62 28.58 51.94C29.2333 51.2467 29.6267 50.34 29.76 49.22H26.22V47.3H32.34V55H29.98L29.78 53.16C29.3267 53.8267 28.76 54.34 28.08 54.7C27.4 55.06 26.5333 55.24 25.48 55.24ZM34.3688 55V45.08H36.6488L36.8888 46.94C37.2488 46.3 37.7354 45.7933 38.3488 45.42C38.9754 45.0333 39.7088 44.84 40.5488 44.84V47.54H39.8288C39.2688 47.54 38.7688 47.6267 38.3288 47.8C37.8888 47.9733 37.5421 48.2733 37.2888 48.7C37.0488 49.1267 36.9288 49.72 36.9288 50.48V55H34.3688ZM46.5427 55.24C45.5427 55.24 44.656 55.0267 43.8827 54.6C43.1093 54.1733 42.5027 53.5733 42.0627 52.8C41.6227 52.0267 41.4027 51.1333 41.4027 50.12C41.4027 49.0933 41.616 48.18 42.0427 47.38C42.4827 46.58 43.0827 45.96 43.8427 45.52C44.616 45.0667 45.5227 44.84 46.5627 44.84C47.536 44.84 48.396 45.0533 49.1427 45.48C49.8893 45.9067 50.4693 46.4933 50.8827 47.24C51.3093 47.9733 51.5227 48.7933 51.5227 49.7C51.5227 49.8467 51.516 50 51.5027 50.16C51.5027 50.32 51.496 50.4867 51.4827 50.66H43.9427C43.996 51.4333 44.2627 52.04 44.7427 52.48C45.236 52.92 45.8293 53.14 46.5227 53.14C47.0427 53.14 47.476 53.0267 47.8227 52.8C48.1827 52.56 48.4493 52.2533 48.6227 51.88H51.2227C51.036 52.5067 50.7227 53.08 50.2827 53.6C49.856 54.1067 49.3227 54.5067 48.6827 54.8C48.056 55.0933 47.3427 55.24 46.5427 55.24ZM46.5627 46.92C45.936 46.92 45.3827 47.1 44.9027 47.46C44.4227 47.8067 44.116 48.34 43.9827 49.06H48.9227C48.8827 48.4067 48.6427 47.8867 48.2027 47.5C47.7627 47.1133 47.216 46.92 46.5627 46.92ZM58.0958 55.24C57.0958 55.24 56.2091 55.0267 55.4358 54.6C54.6624 54.1733 54.0558 53.5733 53.6158 52.8C53.1758 52.0267 52.9558 51.1333 52.9558 50.12C52.9558 49.0933 53.1691 48.18 53.5958 47.38C54.0358 46.58 54.6358 45.96 55.3958 45.52C56.1691 45.0667 57.0758 44.84 58.1158 44.84C59.0891 44.84 59.9491 45.0533 60.6958 45.48C61.4424 45.9067 62.0224 46.4933 62.4358 47.24C62.8624 47.9733 63.0758 48.7933 63.0758 49.7C63.0758 49.8467 63.0691 50 63.0558 50.16C63.0558 50.32 63.0491 50.4867 63.0358 50.66H55.4958C55.5491 51.4333 55.8158 52.04 56.2958 52.48C56.7891 52.92 57.3824 53.14 58.0758 53.14C58.5958 53.14 59.0291 53.0267 59.3758 52.8C59.7358 52.56 60.0024 52.2533 60.1758 51.88H62.7758C62.5891 52.5067 62.2758 53.08 61.8358 53.6C61.4091 54.1067 60.8758 54.5067 60.2358 54.8C59.6091 55.0933 58.8958 55.24 58.0958 55.24ZM58.1158 46.92C57.4891 46.92 56.9358 47.1 56.4558 47.46C55.9758 47.8067 55.6691 48.34 55.5358 49.06H60.4758C60.4358 48.4067 60.1958 47.8867 59.7558 47.5C59.3158 47.1133 58.7691 46.92 58.1158 46.92ZM69.0731 55C68.0331 55 67.1998 54.7467 66.5731 54.24C65.9465 53.7333 65.6331 52.8333 65.6331 51.54V47.22H63.9331V45.08H65.6331L65.9331 42.42H68.1931V45.08H70.8731V47.22H68.1931V51.56C68.1931 52.04 68.2931 52.3733 68.4931 52.56C68.7065 52.7333 69.0665 52.82 69.5731 52.82H70.8131V55H69.0731ZM74.0511 43.54C73.5844 43.54 73.1978 43.4 72.8911 43.12C72.5978 42.84 72.4511 42.4867 72.4511 42.06C72.4511 41.6333 72.5978 41.2867 72.8911 41.02C73.1978 40.74 73.5844 40.6 74.0511 40.6C74.5178 40.6 74.8978 40.74 75.1911 41.02C75.4978 41.2867 75.6511 41.6333 75.6511 42.06C75.6511 42.4867 75.4978 42.84 75.1911 43.12C74.8978 43.4 74.5178 43.54 74.0511 43.54ZM72.7711 55V45.08H75.3311V55H72.7711ZM77.6031 55V45.08H79.8631L80.0631 46.76C80.3698 46.1733 80.8098 45.7067 81.3831 45.36C81.9698 45.0133 82.6565 44.84 83.4431 44.84C84.6698 44.84 85.6231 45.2267 86.3031 46C86.9831 46.7733 87.3231 47.9067 87.3231 49.4V55H84.7631V49.64C84.7631 48.7867 84.5898 48.1333 84.2431 47.68C83.8965 47.2267 83.3565 47 82.6231 47C81.9031 47 81.3098 47.2533 80.8431 47.76C80.3898 48.2667 80.1631 48.9733 80.1631 49.88V55H77.6031ZM93.5711 52.04C93.0911 52.04 92.6444 51.9867 92.2311 51.88L91.4911 52.62C91.7178 52.74 92.0244 52.84 92.4111 52.92C92.7978 53 93.4244 53.08 94.2911 53.16C95.6111 53.28 96.5711 53.5933 97.1711 54.1C97.7711 54.6067 98.0711 55.3067 98.0711 56.2C98.0711 56.7867 97.9111 57.34 97.5911 57.86C97.2711 58.3933 96.7778 58.82 96.1111 59.14C95.4444 59.4733 94.5911 59.64 93.5511 59.64C92.1378 59.64 90.9978 59.3733 90.1311 58.84C89.2644 58.32 88.8311 57.5333 88.8311 56.48C88.8311 55.5867 89.2644 54.8133 90.1311 54.16C89.8644 54.04 89.6311 53.9133 89.4311 53.78C89.2444 53.6467 89.0778 53.5067 88.9311 53.36V52.9L90.6711 51.06C89.8978 50.38 89.5111 49.5067 89.5111 48.44C89.5111 47.7733 89.6711 47.1667 89.9911 46.62C90.3244 46.0733 90.7911 45.64 91.3911 45.32C91.9911 45 92.7178 44.84 93.5711 44.84C94.1311 44.84 94.6511 44.92 95.1311 45.08H98.8911V46.64L97.1911 46.76C97.4578 47.2667 97.5911 47.8267 97.5911 48.44C97.5911 49.1067 97.4311 49.7133 97.1111 50.26C96.7911 50.8067 96.3244 51.24 95.7111 51.56C95.1111 51.88 94.3978 52.04 93.5711 52.04ZM93.5711 50.08C94.0911 50.08 94.5178 49.94 94.8511 49.66C95.1978 49.38 95.3711 48.98 95.3711 48.46C95.3711 47.94 95.1978 47.54 94.8511 47.26C94.5178 46.98 94.0911 46.84 93.5711 46.84C93.0244 46.84 92.5844 46.98 92.2511 47.26C91.9178 47.54 91.7511 47.94 91.7511 48.46C91.7511 48.98 91.9178 49.38 92.2511 49.66C92.5844 49.94 93.0244 50.08 93.5711 50.08ZM91.1711 56.22C91.1711 56.7133 91.3978 57.08 91.8511 57.32C92.3178 57.5733 92.8844 57.7 93.5511 57.7C94.1911 57.7 94.7111 57.5667 95.1111 57.3C95.5111 57.0467 95.7111 56.7 95.7111 56.26C95.7111 55.9 95.5778 55.6 95.3111 55.36C95.0578 55.12 94.5444 54.9733 93.7711 54.92C93.2244 54.88 92.7178 54.82 92.2511 54.74C91.8644 54.9533 91.5844 55.1867 91.4111 55.44C91.2511 55.6933 91.1711 55.9533 91.1711 56.22ZM111.123 55.24C109.71 55.24 108.497 54.94 107.483 54.34C106.47 53.7267 105.69 52.88 105.143 51.8C104.597 50.7067 104.323 49.4467 104.323 48.02C104.323 46.5933 104.597 45.3333 105.143 44.24C105.69 43.1467 106.47 42.2933 107.483 41.68C108.497 41.0667 109.71 40.76 111.123 40.76C112.803 40.76 114.177 41.18 115.243 42.02C116.323 42.8467 116.997 44.0133 117.263 45.52H114.443C114.27 44.76 113.897 44.1667 113.323 43.74C112.763 43.3 112.017 43.08 111.083 43.08C109.79 43.08 108.777 43.52 108.043 44.4C107.31 45.28 106.943 46.4867 106.943 48.02C106.943 49.5533 107.31 50.76 108.043 51.64C108.777 52.5067 109.79 52.94 111.083 52.94C112.017 52.94 112.763 52.74 113.323 52.34C113.897 51.9267 114.27 51.36 114.443 50.64H117.263C116.997 52.08 116.323 53.2067 115.243 54.02C114.177 54.8333 112.803 55.24 111.123 55.24ZM122.49 55.24C121.636 55.24 120.936 55.1067 120.39 54.84C119.843 54.56 119.436 54.1933 119.17 53.74C118.903 53.2867 118.77 52.7867 118.77 52.24C118.77 51.32 119.13 50.5733 119.85 50C120.57 49.4267 121.65 49.14 123.09 49.14H125.61V48.9C125.61 48.22 125.416 47.72 125.03 47.4C124.643 47.08 124.163 46.92 123.59 46.92C123.07 46.92 122.616 47.0467 122.23 47.3C121.843 47.54 121.603 47.9 121.51 48.38H119.01C119.076 47.66 119.316 47.0333 119.73 46.5C120.156 45.9667 120.703 45.56 121.37 45.28C122.036 44.9867 122.783 44.84 123.61 44.84C125.023 44.84 126.136 45.1933 126.95 45.9C127.763 46.6067 128.17 47.6067 128.17 48.9V55H125.99L125.75 53.4C125.456 53.9333 125.043 54.3733 124.51 54.72C123.99 55.0667 123.316 55.24 122.49 55.24ZM123.07 53.24C123.803 53.24 124.37 53 124.77 52.52C125.183 52.04 125.443 51.4467 125.55 50.74H123.37C122.69 50.74 122.203 50.8667 121.91 51.12C121.616 51.36 121.47 51.66 121.47 52.02C121.47 52.4067 121.616 52.7067 121.91 52.92C122.203 53.1333 122.59 53.24 123.07 53.24ZM130.212 55V45.08H132.472L132.692 46.42C133.012 45.94 133.432 45.56 133.952 45.28C134.486 44.9867 135.099 44.84 135.792 44.84C137.326 44.84 138.412 45.4333 139.052 46.62C139.412 46.0733 139.892 45.64 140.492 45.32C141.106 45 141.772 44.84 142.492 44.84C143.786 44.84 144.779 45.2267 145.472 46C146.166 46.7733 146.512 47.9067 146.512 49.4V55H143.952V49.64C143.952 48.7867 143.786 48.1333 143.452 47.68C143.132 47.2267 142.632 47 141.952 47C141.259 47 140.699 47.2533 140.272 47.76C139.859 48.2667 139.652 48.9733 139.652 49.88V55H137.092V49.64C137.092 48.7867 136.926 48.1333 136.592 47.68C136.259 47.2267 135.746 47 135.052 47C134.372 47 133.819 47.2533 133.392 47.76C132.979 48.2667 132.772 48.9733 132.772 49.88V55H130.212ZM148.543 59.4V45.08H150.823L151.103 46.5C151.423 46.06 151.843 45.6733 152.363 45.34C152.896 45.0067 153.583 44.84 154.423 44.84C155.356 44.84 156.19 45.0667 156.923 45.52C157.656 45.9733 158.236 46.5933 158.663 47.38C159.09 48.1667 159.303 49.06 159.303 50.06C159.303 51.06 159.09 51.9533 158.663 52.74C158.236 53.5133 157.656 54.1267 156.923 54.58C156.19 55.02 155.356 55.24 154.423 55.24C153.676 55.24 153.023 55.1 152.463 54.82C151.903 54.54 151.45 54.1467 151.103 53.64V59.4H148.543ZM153.883 53C154.696 53 155.37 52.7267 155.903 52.18C156.436 51.6333 156.703 50.9267 156.703 50.06C156.703 49.1933 156.436 48.48 155.903 47.92C155.37 47.36 154.696 47.08 153.883 47.08C153.056 47.08 152.376 47.36 151.843 47.92C151.323 48.4667 151.063 49.1733 151.063 50.04C151.063 50.9067 151.323 51.62 151.843 52.18C152.376 52.7267 153.056 53 153.883 53ZM164.61 55.24C163.757 55.24 163.057 55.1067 162.51 54.84C161.963 54.56 161.557 54.1933 161.29 53.74C161.023 53.2867 160.89 52.7867 160.89 52.24C160.89 51.32 161.25 50.5733 161.97 50C162.69 49.4267 163.77 49.14 165.21 49.14H167.73V48.9C167.73 48.22 167.537 47.72 167.15 47.4C166.763 47.08 166.283 46.92 165.71 46.92C165.19 46.92 164.737 47.0467 164.35 47.3C163.963 47.54 163.723 47.9 163.63 48.38H161.13C161.197 47.66 161.437 47.0333 161.85 46.5C162.277 45.9667 162.823 45.56 163.49 45.28C164.157 44.9867 164.903 44.84 165.73 44.84C167.143 44.84 168.257 45.1933 169.07 45.9C169.883 46.6067 170.29 47.6067 170.29 48.9V55H168.11L167.87 53.4C167.577 53.9333 167.163 54.3733 166.63 54.72C166.11 55.0667 165.437 55.24 164.61 55.24ZM165.19 53.24C165.923 53.24 166.49 53 166.89 52.52C167.303 52.04 167.563 51.4467 167.67 50.74H165.49C164.81 50.74 164.323 50.8667 164.03 51.12C163.737 51.36 163.59 51.66 163.59 52.02C163.59 52.4067 163.737 52.7067 164.03 52.92C164.323 53.1333 164.71 53.24 165.19 53.24ZM173.713 43.54C173.246 43.54 172.859 43.4 172.553 43.12C172.259 42.84 172.113 42.4867 172.113 42.06C172.113 41.6333 172.259 41.2867 172.553 41.02C172.859 40.74 173.246 40.6 173.713 40.6C174.179 40.6 174.559 40.74 174.853 41.02C175.159 41.2867 175.313 41.6333 175.313 42.06C175.313 42.4867 175.159 42.84 174.853 43.12C174.559 43.4 174.179 43.54 173.713 43.54ZM172.433 55V45.08H174.993V55H172.433ZM181.465 52.04C180.985 52.04 180.538 51.9867 180.125 51.88L179.385 52.62C179.612 52.74 179.918 52.84 180.305 52.92C180.692 53 181.318 53.08 182.185 53.16C183.505 53.28 184.465 53.5933 185.065 54.1C185.665 54.6067 185.965 55.3067 185.965 56.2C185.965 56.7867 185.805 57.34 185.485 57.86C185.165 58.3933 184.672 58.82 184.005 59.14C183.338 59.4733 182.485 59.64 181.445 59.64C180.032 59.64 178.892 59.3733 178.025 58.84C177.158 58.32 176.725 57.5333 176.725 56.48C176.725 55.5867 177.158 54.8133 178.025 54.16C177.758 54.04 177.525 53.9133 177.325 53.78C177.138 53.6467 176.972 53.5067 176.825 53.36V52.9L178.565 51.06C177.792 50.38 177.405 49.5067 177.405 48.44C177.405 47.7733 177.565 47.1667 177.885 46.62C178.218 46.0733 178.685 45.64 179.285 45.32C179.885 45 180.612 44.84 181.465 44.84C182.025 44.84 182.545 44.92 183.025 45.08H186.785V46.64L185.085 46.76C185.352 47.2667 185.485 47.8267 185.485 48.44C185.485 49.1067 185.325 49.7133 185.005 50.26C184.685 50.8067 184.218 51.24 183.605 51.56C183.005 51.88 182.292 52.04 181.465 52.04ZM181.465 50.08C181.985 50.08 182.412 49.94 182.745 49.66C183.092 49.38 183.265 48.98 183.265 48.46C183.265 47.94 183.092 47.54 182.745 47.26C182.412 46.98 181.985 46.84 181.465 46.84C180.918 46.84 180.478 46.98 180.145 47.26C179.812 47.54 179.645 47.94 179.645 48.46C179.645 48.98 179.812 49.38 180.145 49.66C180.478 49.94 180.918 50.08 181.465 50.08ZM179.065 56.22C179.065 56.7133 179.292 57.08 179.745 57.32C180.212 57.5733 180.778 57.7 181.445 57.7C182.085 57.7 182.605 57.5667 183.005 57.3C183.405 57.0467 183.605 56.7 183.605 56.26C183.605 55.9 183.472 55.6 183.205 55.36C182.952 55.12 182.438 54.9733 181.665 54.92C181.118 54.88 180.612 54.82 180.145 54.74C179.758 54.9533 179.478 55.1867 179.305 55.44C179.145 55.6933 179.065 55.9533 179.065 56.22ZM188.252 55V45.08H190.512L190.712 46.76C191.018 46.1733 191.458 45.7067 192.032 45.36C192.618 45.0133 193.305 44.84 194.092 44.84C195.318 44.84 196.272 45.2267 196.952 46C197.632 46.7733 197.972 47.9067 197.972 49.4V55H195.412V49.64C195.412 48.7867 195.238 48.1333 194.892 47.68C194.545 47.2267 194.005 47 193.272 47C192.552 47 191.958 47.2533 191.492 47.76C191.038 48.2667 190.812 48.9733 190.812 49.88V55H188.252Z" fill="black"/>
</g>
<path d="M308 55.5L314 49.5L308 43.5" stroke="#1F3758" stroke-width="2" stroke-linecap="round" stroke-linejoin="round"/>
<rect x="133" y="195" width="86" height="25" rx="12.5" fill="white"/>
<path d="M146.744 211.144C146.168 211.144 145.668 211.04 145.244 210.832C144.82 210.624 144.48 210.34 144.224 209.98C143.976 209.612 143.824 209.196 143.768 208.732H144.752C144.848 209.196 145.072 209.572 145.424 209.86C145.776 210.14 146.22 210.28 146.756 210.28C147.156 210.28 147.5 210.188 147.788 210.004C148.076 209.812 148.296 209.556 148.448 209.236C148.608 208.916 148.688 208.56 148.688 208.168C148.688 207.544 148.512 207.04 148.16 206.656C147.808 206.272 147.352 206.08 146.792 206.08C146.328 206.08 145.932 206.184 145.604 206.392C145.276 206.6 145.036 206.872 144.884 207.208H143.924L144.644 202.6H149.048V203.476H145.424L144.932 206.032C145.124 205.8 145.388 205.608 145.724 205.456C146.068 205.304 146.46 205.228 146.9 205.228C147.452 205.228 147.932 205.356 148.34 205.612C148.756 205.868 149.08 206.216 149.312 206.656C149.544 207.096 149.66 207.596 149.66 208.156C149.66 208.692 149.544 209.188 149.312 209.644C149.088 210.1 148.756 210.464 148.316 210.736C147.884 211.008 147.36 211.144 146.744 211.144ZM154.008 211.144C153.456 211.144 152.96 211.044 152.52 210.844C152.08 210.636 151.732 210.352 151.476 209.992C151.228 209.624 151.104 209.2 151.104 208.72C151.104 208.208 151.252 207.748 151.548 207.34C151.852 206.932 152.252 206.66 152.748 206.524C152.292 206.372 151.94 206.128 151.692 205.792C151.444 205.456 151.32 205.088 151.32 204.688C151.32 204.28 151.428 203.908 151.644 203.572C151.86 203.228 152.168 202.956 152.568 202.756C152.968 202.556 153.448 202.456 154.008 202.456C154.568 202.456 155.048 202.556 155.448 202.756C155.848 202.956 156.156 203.228 156.372 203.572C156.588 203.908 156.696 204.28 156.696 204.688C156.696 205.08 156.572 205.448 156.324 205.792C156.076 206.128 155.724 206.372 155.268 206.524C155.764 206.66 156.16 206.932 156.456 207.34C156.76 207.748 156.912 208.208 156.912 208.72C156.912 209.2 156.784 209.624 156.528 209.992C156.28 210.352 155.936 210.636 155.496 210.844C155.056 211.044 154.56 211.144 154.008 211.144ZM154.008 206.164C154.52 206.164 154.924 206.036 155.22 205.78C155.524 205.516 155.676 205.172 155.676 204.748C155.676 204.276 155.528 203.92 155.232 203.68C154.936 203.44 154.528 203.32 154.008 203.32C153.488 203.32 153.08 203.44 152.784 203.68C152.496 203.92 152.352 204.276 152.352 204.748C152.352 205.172 152.5 205.516 152.796 205.78C153.092 206.036 153.496 206.164 154.008 206.164ZM154.008 210.256C154.64 210.256 155.112 210.112 155.424 209.824C155.744 209.528 155.904 209.14 155.904 208.66C155.904 208.116 155.732 207.704 155.388 207.424C155.044 207.144 154.584 207.004 154.008 207.004C153.432 207.004 152.972 207.144 152.628 207.424C152.284 207.704 152.112 208.116 152.112 208.66C152.112 209.14 152.268 209.528 152.58 209.824C152.9 210.112 153.376 210.256 154.008 210.256ZM160.072 206.5C159.712 206.5 159.384 206.42 159.088 206.26C158.8 206.092 158.572 205.86 158.404 205.564C158.236 205.26 158.152 204.9 158.152 204.484C158.152 204.068 158.236 203.712 158.404 203.416C158.58 203.112 158.812 202.88 159.1 202.72C159.396 202.552 159.724 202.468 160.084 202.468C160.444 202.468 160.768 202.552 161.056 202.72C161.344 202.88 161.572 203.112 161.74 203.416C161.908 203.712 161.992 204.068 161.992 204.484C161.992 204.9 161.904 205.26 161.728 205.564C161.56 205.86 161.332 206.092 161.044 206.26C160.756 206.42 160.432 206.5 160.072 206.5ZM159.328 211L164.212 202.6H165.22L160.336 211H159.328ZM160.072 205.72C160.352 205.72 160.596 205.616 160.804 205.408C161.02 205.2 161.128 204.892 161.128 204.484C161.128 204.068 161.024 203.756 160.816 203.548C160.608 203.332 160.364 203.224 160.084 203.224C159.804 203.224 159.552 203.332 159.328 203.548C159.112 203.756 159.004 204.068 159.004 204.484C159.004 204.892 159.112 205.2 159.328 205.408C159.544 205.616 159.792 205.72 160.072 205.72ZM164.56 211.144C164.2 211.144 163.872 211.064 163.576 210.904C163.288 210.736 163.06 210.504 162.892 210.208C162.724 209.904 162.64 209.544 162.64 209.128C162.64 208.712 162.724 208.356 162.892 208.06C163.068 207.756 163.3 207.524 163.588 207.364C163.876 207.196 164.2 207.112 164.56 207.112C164.92 207.112 165.244 207.196 165.532 207.364C165.82 207.524 166.048 207.756 166.216 208.06C166.384 208.356 166.468 208.712 166.468 209.128C166.468 209.544 166.384 209.904 166.216 210.208C166.048 210.504 165.82 210.736 165.532 210.904C165.244 211.064 164.92 211.144 164.56 211.144ZM164.548 210.364C164.836 210.364 165.084 210.26 165.292 210.052C165.508 209.844 165.616 209.536 165.616 209.128C165.616 208.712 165.512 208.4 165.304 208.192C165.096 207.984 164.848 207.88 164.56 207.88C164.28 207.88 164.032 207.984 163.816 208.192C163.6 208.4 163.492 208.712 163.492 209.128C163.492 209.536 163.596 209.844 163.804 210.052C164.02 210.26 164.268 210.364 164.548 210.364ZM170.957 211V205.048H171.869L171.953 206.188C172.137 205.796 172.417 205.484 172.793 205.252C173.169 205.02 173.633 204.904 174.185 204.904V205.96H173.909C173.557 205.96 173.233 206.024 172.937 206.152C172.641 206.272 172.405 206.48 172.229 206.776C172.053 207.072 171.965 207.48 171.965 208V211H170.957ZM177.77 211.144C177.202 211.144 176.698 211.016 176.258 210.76C175.818 210.496 175.47 210.132 175.214 209.668C174.966 209.204 174.842 208.656 174.842 208.024C174.842 207.4 174.966 206.856 175.214 206.392C175.462 205.92 175.806 205.556 176.246 205.3C176.694 205.036 177.21 204.904 177.794 204.904C178.37 204.904 178.866 205.036 179.282 205.3C179.706 205.556 180.03 205.896 180.254 206.32C180.478 206.744 180.59 207.2 180.59 207.688C180.59 207.776 180.586 207.864 180.578 207.952C180.578 208.04 180.578 208.14 180.578 208.252H175.838C175.862 208.708 175.966 209.088 176.15 209.392C176.342 209.688 176.578 209.912 176.858 210.064C177.146 210.216 177.45 210.292 177.77 210.292C178.186 210.292 178.534 210.196 178.814 210.004C179.094 209.812 179.298 209.552 179.426 209.224H180.422C180.262 209.776 179.954 210.236 179.498 210.604C179.05 210.964 178.474 211.144 177.77 211.144ZM177.77 205.756C177.29 205.756 176.862 205.904 176.486 206.2C176.118 206.488 175.906 206.912 175.85 207.472H179.594C179.57 206.936 179.386 206.516 179.042 206.212C178.698 205.908 178.274 205.756 177.77 205.756ZM181.926 213.64V205.048H182.838L182.934 206.032C183.126 205.744 183.398 205.484 183.75 205.252C184.11 205.02 184.566 204.904 185.118 204.904C185.71 204.904 186.226 205.04 186.666 205.312C187.106 205.584 187.446 205.956 187.686 206.428C187.934 206.9 188.058 207.436 188.058 208.036C188.058 208.636 187.934 209.172 187.686 209.644C187.446 210.108 187.102 210.476 186.654 210.748C186.214 211.012 185.698 211.144 185.106 211.144C184.618 211.144 184.182 211.044 183.798 210.844C183.422 210.644 183.134 210.364 182.934 210.004V213.64H181.926ZM184.998 210.268C185.398 210.268 185.75 210.176 186.054 209.992C186.358 209.8 186.598 209.536 186.774 209.2C186.95 208.864 187.038 208.472 187.038 208.024C187.038 207.576 186.95 207.184 186.774 206.848C186.598 206.512 186.358 206.252 186.054 206.068C185.75 205.876 185.398 205.78 184.998 205.78C184.598 205.78 184.246 205.876 183.942 206.068C183.638 206.252 183.398 206.512 183.222 206.848C183.046 207.184 182.958 207.576 182.958 208.024C182.958 208.472 183.046 208.864 183.222 209.2C183.398 209.536 183.638 209.8 183.942 209.992C184.246 210.176 184.598 210.268 184.998 210.268ZM189.461 211V202.36H190.469V211H189.461ZM192.733 203.728C192.533 203.728 192.365 203.664 192.229 203.536C192.101 203.4 192.037 203.232 192.037 203.032C192.037 202.84 192.101 202.68 192.229 202.552C192.365 202.424 192.533 202.36 192.733 202.36C192.925 202.36 193.089 202.424 193.225 202.552C193.361 202.68 193.429 202.84 193.429 203.032C193.429 203.232 193.361 203.4 193.225 203.536C193.089 203.664 192.925 203.728 192.733 203.728ZM192.229 211V205.048H193.237V211H192.229ZM197.668 211.144C197.1 211.144 196.596 211.016 196.156 210.76C195.716 210.496 195.368 210.132 195.112 209.668C194.864 209.204 194.74 208.656 194.74 208.024C194.74 207.4 194.864 206.856 195.112 206.392C195.36 205.92 195.704 205.556 196.144 205.3C196.592 205.036 197.108 204.904 197.692 204.904C198.268 204.904 198.764 205.036 199.18 205.3C199.604 205.556 199.928 205.896 200.152 206.32C200.376 206.744 200.488 207.2 200.488 207.688C200.488 207.776 200.484 207.864 200.476 207.952C200.476 208.04 200.476 208.14 200.476 208.252H195.736C195.76 208.708 195.864 209.088 196.048 209.392C196.24 209.688 196.476 209.912 196.756 210.064C197.044 210.216 197.348 210.292 197.668 210.292C198.084 210.292 198.432 210.196 198.712 210.004C198.992 209.812 199.196 209.552 199.324 209.224H200.32C200.16 209.776 199.852 210.236 199.396 210.604C198.948 210.964 198.372 211.144 197.668 211.144ZM197.668 205.756C197.188 205.756 196.76 205.904 196.384 206.2C196.016 206.488 195.804 206.912 195.748 207.472H199.492C199.468 206.936 199.284 206.516 198.94 206.212C198.596 205.908 198.172 205.756 197.668 205.756ZM204.524 211.144C203.932 211.144 203.412 211.008 202.964 210.736C202.524 210.464 202.18 210.092 201.932 209.62C201.692 209.148 201.572 208.612 201.572 208.012C201.572 207.412 201.696 206.88 201.944 206.416C202.192 205.944 202.536 205.576 202.976 205.312C203.416 205.04 203.936 204.904 204.536 204.904C205.024 204.904 205.456 205.004 205.832 205.204C206.208 205.404 206.5 205.684 206.708 206.044V202.36H207.716V211H206.804L206.708 210.016C206.516 210.304 206.24 210.564 205.88 210.796C205.52 211.028 205.068 211.144 204.524 211.144ZM204.632 210.268C205.032 210.268 205.384 210.176 205.688 209.992C206 209.8 206.24 209.536 206.408 209.2C206.584 208.864 206.672 208.472 206.672 208.024C206.672 207.576 206.584 207.184 206.408 206.848C206.24 206.512 206 206.252 205.688 206.068C205.384 205.876 205.032 205.78 204.632 205.78C204.24 205.78 203.888 205.876 203.576 206.068C203.272 206.252 203.032 206.512 202.856 206.848C202.688 207.184 202.604 207.576 202.604 208.024C202.604 208.472 202.688 208.864 202.856 209.2C203.032 209.536 203.272 209.8 203.576 209.992C203.888 210.176 204.24 210.268 204.632 210.268Z" fill="black"/>
</svg>
