<svg width="221" height="161" viewBox="0 0 221 161" fill="none" xmlns="http://www.w3.org/2000/svg">
<g filter="url(#filter0_d_152_1452)">
<rect x="12" y="14" width="195" height="133" rx="14" fill="white"/>
</g>
<path d="M149.676 24.9359C144.94 27.8428 142.063 30.4747 143.033 37.2635C144.013 44.1261 145.001 42.8212 148.311 48.9088C151.62 54.9964 146.48 54.8027 149.636 65.7741C152.688 76.3848 162.58 79.2171 178.351 75.1234C194.121 71.0298 195.324 57.9386 188.654 46.6679C183.651 38.2149 184.205 38 174.042 30.4073C161.652 21.151 156.451 20.7775 149.676 24.9359Z" fill="#FFF0DE"/>
<path d="M179.7 59.6955C179.569 62.8936 180.003 63.8563 179.008 63.7992C177.953 63.738 177.237 62.7345 176.709 61.8208C174.581 58.1454 172.84 54.2579 171.293 50.3031C170.841 49.1487 170.397 47.927 170.562 46.6971C170.726 45.4672 171.819 44.7819 172.958 44.2822C174.253 43.7132 174.808 44.3618 175.278 46.3565C175.669 48.0106 175.628 48.3982 174.356 48.8285C172.469 49.4649 171.653 47.464 170.9 46.0322C168.395 41.2718 167.994 35.4569 169.824 30.4007C170.081 29.6868 170.489 28.8955 171.235 28.7486C172.224 28.5508 172.979 29.5889 173.425 30.4884C177.967 39.6319 180.142 49.9319 179.684 60.1238C179.655 60.75 179.577 61.4557 179.078 61.8371C178.607 62.1961 177.942 62.1226 177.365 61.9839C174.317 61.2578 170.476 58.0577 167.505 57.0644C165.353 56.3444 158.906 54.8474 155.288 54.8474C154.603 54.8474 152.962 47.8209 153.954 47.3416C155.683 46.5095 166.873 39.791 170.337 32.734C170.384 39.2444 171.61 48.441 175.78 58.1107C175.89 58.3657 175.982 58.6492 175.911 58.9184C175.798 59.3508 175.264 59.5568 174.824 59.4752C174.384 59.3936 174.012 59.1081 173.65 58.847C168.88 55.4103 162.675 54.8637 156.807 54.4354C156.733 56.3363 157.754 59.4406 158.814 61.0212C157.938 61.8942 156.013 61.6046 155.133 60.7357C154.834 60.44 154.716 60.0157 154.609 59.6098L151.605 48.2758C149.875 48.6919 146.971 49.1956 145.676 50.4133C144.383 51.6309 146.758 55.6938 147.452 55.7468C148.995 55.8631 149.492 54.6985 149.322 54.1029C149.152 53.5074 148.849 52.9281 148.886 52.3101C148.923 51.6921 149.529 51.0537 150.104 51.2862C150.816 51.5738 150.591 52.6099 150.39 53.3483C149.713 55.8407 150.846 58.4269 151.951 60.7622C152.152 61.1844 152.381 61.6392 152.8 61.8473C153.22 62.0553 154.02 61.8228 153.885 61.3721C153.488 60.0402 151.102 61.5515 149.711 61.6392C143.914 62.0125 138.038 70.8369 132.299 69.9354" stroke="#1F3758" stroke-miterlimit="10" stroke-linecap="round" stroke-linejoin="round"/>
<path d="M13 28C13 20.8203 18.8203 15 26 15H173V146H26C18.8203 146 13 140.18 13 133V28Z" fill="url(#paint0_linear_152_1452)"/>
<path opacity="0.8" d="M13 28C13 20.8203 18.8203 15 26 15H173V146H26C18.8203 146 13 140.18 13 133V28Z" fill="url(#paint1_linear_152_1452)"/>
<path d="M28.912 45.192C28.0907 45.192 27.3653 45.0533 26.736 44.776C26.1067 44.488 25.6107 44.0827 25.248 43.56C24.8853 43.0267 24.6987 42.3813 24.688 41.624H26.848C26.8693 42.1467 27.056 42.5893 27.408 42.952C27.7707 43.304 28.2667 43.48 28.896 43.48C29.44 43.48 29.872 43.352 30.192 43.096C30.512 42.8293 30.672 42.4773 30.672 42.04C30.672 41.5813 30.528 41.224 30.24 40.968C29.9627 40.712 29.5893 40.504 29.12 40.344C28.6507 40.184 28.1493 40.0133 27.616 39.832C26.752 39.5333 26.0907 39.1493 25.632 38.68C25.184 38.2107 24.96 37.5867 24.96 36.808C24.9493 36.1467 25.104 35.5813 25.424 35.112C25.7547 34.632 26.2027 34.264 26.768 34.008C27.3333 33.7413 27.984 33.608 28.72 33.608C29.4667 33.608 30.1227 33.7413 30.688 34.008C31.264 34.2747 31.712 34.648 32.032 35.128C32.3627 35.608 32.5387 36.1787 32.56 36.84H30.368C30.3573 36.4453 30.2027 36.0987 29.904 35.8C29.616 35.4907 29.2107 35.336 28.688 35.336C28.24 35.3253 27.8613 35.4373 27.552 35.672C27.2533 35.896 27.104 36.2267 27.104 36.664C27.104 37.0373 27.2213 37.336 27.456 37.56C27.6907 37.7733 28.0107 37.9547 28.416 38.104C28.8213 38.2533 29.2853 38.4133 29.808 38.584C30.3627 38.776 30.8693 39 31.328 39.256C31.7867 39.512 32.1547 39.8533 32.432 40.28C32.7093 40.696 32.848 41.2347 32.848 41.896C32.848 42.4827 32.6987 43.0267 32.4 43.528C32.1013 44.0293 31.6587 44.4347 31.072 44.744C30.4853 45.0427 29.7653 45.192 28.912 45.192ZM37.8029 45C36.9709 45 36.3042 44.7973 35.8029 44.392C35.3015 43.9867 35.0509 43.2667 35.0509 42.232V38.776H33.6909V37.064H35.0509L35.2909 34.936H37.0989V37.064H39.2429V38.776H37.0989V42.248C37.0989 42.632 37.1789 42.8987 37.3389 43.048C37.5095 43.1867 37.7975 43.256 38.2029 43.256H39.1949V45H37.8029ZM43.4172 45.192C42.7346 45.192 42.1746 45.0853 41.7372 44.872C41.2999 44.648 40.9746 44.3547 40.7612 43.992C40.5479 43.6293 40.4412 43.2293 40.4412 42.792C40.4412 42.056 40.7292 41.4587 41.3052 41C41.8812 40.5413 42.7452 40.312 43.8972 40.312H45.9132V40.12C45.9132 39.576 45.7586 39.176 45.4492 38.92C45.1399 38.664 44.7559 38.536 44.2972 38.536C43.8812 38.536 43.5186 38.6373 43.2092 38.84C42.8999 39.032 42.7079 39.32 42.6332 39.704H40.6332C40.6866 39.128 40.8786 38.6267 41.2092 38.2C41.5506 37.7733 41.9879 37.448 42.5212 37.224C43.0546 36.9893 43.6519 36.872 44.3133 36.872C45.4439 36.872 46.3346 37.1547 46.9852 37.72C47.6359 38.2853 47.9613 39.0853 47.9613 40.12V45H46.2172L46.0252 43.72C45.7906 44.1467 45.4599 44.4987 45.0332 44.776C44.6172 45.0533 44.0786 45.192 43.4172 45.192ZM43.8812 43.592C44.4679 43.592 44.9213 43.4 45.2413 43.016C45.5719 42.632 45.7799 42.1573 45.8653 41.592H44.1212C43.5772 41.592 43.1879 41.6933 42.9532 41.896C42.7186 42.088 42.6012 42.328 42.6012 42.616C42.6012 42.9253 42.7186 43.1653 42.9532 43.336C43.1879 43.5067 43.4972 43.592 43.8812 43.592ZM49.5956 45V37.064H51.4196L51.6116 38.552C51.8996 38.04 52.289 37.6347 52.7796 37.336C53.281 37.0267 53.8676 36.872 54.5396 36.872V39.032H53.9636C53.5156 39.032 53.1156 39.1013 52.7636 39.24C52.4116 39.3787 52.1343 39.6187 51.9316 39.96C51.7396 40.3013 51.6436 40.776 51.6436 41.384V45H49.5956ZM59.1554 45C58.3234 45 57.6567 44.7973 57.1554 44.392C56.654 43.9867 56.4034 43.2667 56.4034 42.232V38.776H55.0434V37.064H56.4034L56.6434 34.936H58.4514V37.064H60.5954V38.776H58.4514V42.248C58.4514 42.632 58.5314 42.8987 58.6914 43.048C58.862 43.1867 59.15 43.256 59.5554 43.256H60.5474V45H59.1554ZM68.2623 45.192C67.5796 45.192 67.0196 45.0853 66.5823 44.872C66.1449 44.648 65.8196 44.3547 65.6063 43.992C65.3929 43.6293 65.2863 43.2293 65.2863 42.792C65.2863 42.056 65.5743 41.4587 66.1503 41C66.7263 40.5413 67.5903 40.312 68.7423 40.312H70.7583V40.12C70.7583 39.576 70.6036 39.176 70.2943 38.92C69.9849 38.664 69.6009 38.536 69.1423 38.536C68.7263 38.536 68.3636 38.6373 68.0543 38.84C67.7449 39.032 67.5529 39.32 67.4783 39.704H65.4783C65.5316 39.128 65.7236 38.6267 66.0543 38.2C66.3956 37.7733 66.8329 37.448 67.3663 37.224C67.8996 36.9893 68.4969 36.872 69.1583 36.872C70.2889 36.872 71.1796 37.1547 71.8303 37.72C72.4809 38.2853 72.8063 39.0853 72.8063 40.12V45H71.0623L70.8703 43.72C70.6356 44.1467 70.3049 44.4987 69.8783 44.776C69.4623 45.0533 68.9236 45.192 68.2623 45.192ZM68.7263 43.592C69.3129 43.592 69.7663 43.4 70.0863 43.016C70.4169 42.632 70.6249 42.1573 70.7103 41.592H68.9663C68.4223 41.592 68.0329 41.6933 67.7983 41.896C67.5636 42.088 67.4463 42.328 67.4463 42.616C67.4463 42.9253 67.5636 43.1653 67.7983 43.336C68.0329 43.5067 68.3423 43.592 68.7263 43.592ZM28.928 66.192C28.1173 66.192 27.4027 66.016 26.784 65.664C26.1653 65.312 25.6747 64.8213 25.312 64.192C24.96 63.5627 24.784 62.8427 24.784 62.032C24.784 61.2213 24.96 60.5013 25.312 59.872C25.6747 59.2427 26.1653 58.752 26.784 58.4C27.4027 58.048 28.1173 57.872 28.928 57.872C29.9413 57.872 30.7947 58.1387 31.488 58.672C32.1813 59.1947 32.624 59.92 32.816 60.848H30.656C30.5493 60.464 30.336 60.1653 30.016 59.952C29.7067 59.728 29.3387 59.616 28.912 59.616C28.3467 59.616 27.8667 59.8293 27.472 60.256C27.0773 60.6827 26.88 61.2747 26.88 62.032C26.88 62.7893 27.0773 63.3813 27.472 63.808C27.8667 64.2347 28.3467 64.448 28.912 64.448C29.3387 64.448 29.7067 64.3413 30.016 64.128C30.336 63.9147 30.5493 63.6107 30.656 63.216H32.816C32.624 64.112 32.1813 64.832 31.488 65.376C30.7947 65.92 29.9413 66.192 28.928 66.192ZM37.0498 66.192C36.3671 66.192 35.8071 66.0853 35.3698 65.872C34.9324 65.648 34.6071 65.3547 34.3938 64.992C34.1804 64.6293 34.0738 64.2293 34.0738 63.792C34.0738 63.056 34.3618 62.4587 34.9378 62C35.5138 61.5413 36.3778 61.312 37.5298 61.312H39.5458V61.12C39.5458 60.576 39.3911 60.176 39.0818 59.92C38.7724 59.664 38.3884 59.536 37.9298 59.536C37.5138 59.536 37.1511 59.6373 36.8418 59.84C36.5324 60.032 36.3404 60.32 36.2658 60.704H34.2658C34.3191 60.128 34.5111 59.6267 34.8418 59.2C35.1831 58.7733 35.6204 58.448 36.1538 58.224C36.6871 57.9893 37.2844 57.872 37.9458 57.872C39.0764 57.872 39.9671 58.1547 40.6178 58.72C41.2684 59.2853 41.5938 60.0853 41.5938 61.12V66H39.8498L39.6578 64.72C39.4231 65.1467 39.0924 65.4987 38.6658 65.776C38.2498 66.0533 37.7111 66.192 37.0498 66.192ZM37.5138 64.592C38.1004 64.592 38.5538 64.4 38.8738 64.016C39.2044 63.632 39.4124 63.1573 39.4978 62.592H37.7538C37.2098 62.592 36.8204 62.6933 36.5858 62.896C36.3511 63.088 36.2338 63.328 36.2338 63.616C36.2338 63.9253 36.3511 64.1653 36.5858 64.336C36.8204 64.5067 37.1298 64.592 37.5138 64.592ZM43.2281 66V58.064H45.0361L45.2121 59.136C45.4681 58.752 45.8041 58.448 46.2201 58.224C46.6468 57.9893 47.1375 57.872 47.6921 57.872C48.9188 57.872 49.7881 58.3467 50.3001 59.296C50.5881 58.8587 50.9721 58.512 51.4521 58.256C51.9428 58 52.4761 57.872 53.0521 57.872C54.0868 57.872 54.8815 58.1813 55.4361 58.8C55.9908 59.4187 56.2681 60.3253 56.2681 61.52V66H54.2201V61.712C54.2201 61.0293 54.0868 60.5067 53.8201 60.144C53.5641 59.7813 53.1641 59.6 52.6201 59.6C52.0655 59.6 51.6175 59.8027 51.2761 60.208C50.9455 60.6133 50.7801 61.1787 50.7801 61.904V66H48.7321V61.712C48.7321 61.0293 48.5988 60.5067 48.3321 60.144C48.0655 59.7813 47.6548 59.6 47.1001 59.6C46.5561 59.6 46.1135 59.8027 45.7721 60.208C45.4415 60.6133 45.2761 61.1787 45.2761 61.904V66H43.2281ZM57.8925 69.52V58.064H59.7165L59.9405 59.2C60.1965 58.848 60.5325 58.5387 60.9485 58.272C61.3752 58.0053 61.9245 57.872 62.5965 57.872C63.3432 57.872 64.0098 58.0533 64.5965 58.416C65.1832 58.7787 65.6472 59.2747 65.9885 59.904C66.3298 60.5333 66.5005 61.248 66.5005 62.048C66.5005 62.848 66.3298 63.5627 65.9885 64.192C65.6472 64.8107 65.1832 65.3013 64.5965 65.664C64.0098 66.016 63.3432 66.192 62.5965 66.192C61.9992 66.192 61.4765 66.08 61.0285 65.856C60.5805 65.632 60.2178 65.3173 59.9405 64.912V69.52H57.8925ZM62.1645 64.4C62.8152 64.4 63.3538 64.1813 63.7805 63.744C64.2072 63.3067 64.4205 62.7413 64.4205 62.048C64.4205 61.3547 64.2072 60.784 63.7805 60.336C63.3538 59.888 62.8152 59.664 62.1645 59.664C61.5032 59.664 60.9592 59.888 60.5325 60.336C60.1165 60.7733 59.9085 61.3387 59.9085 62.032C59.9085 62.7253 60.1165 63.296 60.5325 63.744C60.9592 64.1813 61.5032 64.4 62.1645 64.4ZM70.746 66.192C70.0633 66.192 69.5033 66.0853 69.066 65.872C68.6287 65.648 68.3033 65.3547 68.09 64.992C67.8767 64.6293 67.77 64.2293 67.77 63.792C67.77 63.056 68.058 62.4587 68.634 62C69.21 61.5413 70.074 61.312 71.226 61.312H73.242V61.12C73.242 60.576 73.0873 60.176 72.778 59.92C72.4687 59.664 72.0847 59.536 71.626 59.536C71.21 59.536 70.8473 59.6373 70.538 59.84C70.2287 60.032 70.0367 60.32 69.962 60.704H67.962C68.0153 60.128 68.2073 59.6267 68.538 59.2C68.8793 58.7733 69.3167 58.448 69.85 58.224C70.3833 57.9893 70.9807 57.872 71.642 57.872C72.7727 57.872 73.6633 58.1547 74.314 58.72C74.9647 59.2853 75.29 60.0853 75.29 61.12V66H73.546L73.354 64.72C73.1193 65.1467 72.7887 65.4987 72.362 65.776C71.946 66.0533 71.4073 66.192 70.746 66.192ZM71.21 64.592C71.7967 64.592 72.25 64.4 72.57 64.016C72.9007 63.632 73.1087 63.1573 73.194 62.592H71.45C70.906 62.592 70.5167 62.6933 70.282 62.896C70.0473 63.088 69.93 63.328 69.93 63.616C69.93 63.9253 70.0473 64.1653 70.282 64.336C70.5167 64.5067 70.826 64.592 71.21 64.592ZM78.0284 56.832C77.655 56.832 77.3457 56.72 77.1004 56.496C76.8657 56.272 76.7484 55.9893 76.7484 55.648C76.7484 55.3067 76.8657 55.0293 77.1004 54.816C77.3457 54.592 77.655 54.48 78.0284 54.48C78.4017 54.48 78.7057 54.592 78.9404 54.816C79.1857 55.0293 79.3084 55.3067 79.3084 55.648C79.3084 55.9893 79.1857 56.272 78.9404 56.496C78.7057 56.72 78.4017 56.832 78.0284 56.832ZM77.0044 66V58.064H79.0524V66H77.0044ZM84.23 63.632C83.846 63.632 83.4887 63.5893 83.158 63.504L82.566 64.096C82.7473 64.192 82.9927 64.272 83.302 64.336C83.6113 64.4 84.1127 64.464 84.806 64.528C85.862 64.624 86.63 64.8747 87.11 65.28C87.59 65.6853 87.83 66.2453 87.83 66.96C87.83 67.4293 87.702 67.872 87.446 68.288C87.19 68.7147 86.7953 69.056 86.262 69.312C85.7287 69.5787 85.046 69.712 84.214 69.712C83.0833 69.712 82.1713 69.4987 81.478 69.072C80.7847 68.656 80.438 68.0267 80.438 67.184C80.438 66.4693 80.7847 65.8507 81.478 65.328C81.2647 65.232 81.078 65.1307 80.918 65.024C80.7687 64.9173 80.6353 64.8053 80.518 64.688V64.32L81.91 62.848C81.2913 62.304 80.982 61.6053 80.982 60.752C80.982 60.2187 81.11 59.7333 81.366 59.296C81.6327 58.8587 82.006 58.512 82.486 58.256C82.966 58 83.5473 57.872 84.23 57.872C84.678 57.872 85.094 57.936 85.478 58.064H88.486V59.312L87.126 59.408C87.3393 59.8133 87.446 60.2613 87.446 60.752C87.446 61.2853 87.318 61.7707 87.062 62.208C86.806 62.6453 86.4327 62.992 85.942 63.248C85.462 63.504 84.8913 63.632 84.23 63.632ZM84.23 62.064C84.646 62.064 84.9873 61.952 85.254 61.728C85.5313 61.504 85.67 61.184 85.67 60.768C85.67 60.352 85.5313 60.032 85.254 59.808C84.9873 59.584 84.646 59.472 84.23 59.472C83.7927 59.472 83.4407 59.584 83.174 59.808C82.9073 60.032 82.774 60.352 82.774 60.768C82.774 61.184 82.9073 61.504 83.174 61.728C83.4407 61.952 83.7927 62.064 84.23 62.064ZM82.31 66.976C82.31 67.3707 82.4913 67.664 82.854 67.856C83.2273 68.0587 83.6807 68.16 84.214 68.16C84.726 68.16 85.142 68.0533 85.462 67.84C85.782 67.6373 85.942 67.36 85.942 67.008C85.942 66.72 85.8353 66.48 85.622 66.288C85.4193 66.096 85.0087 65.9787 84.39 65.936C83.9527 65.904 83.5473 65.856 83.174 65.792C82.8647 65.9627 82.6407 66.1493 82.502 66.352C82.374 66.5547 82.31 66.7627 82.31 66.976ZM89.6594 66V58.064H91.4674L91.6274 59.408C91.8727 58.9387 92.2247 58.5653 92.6834 58.288C93.1527 58.0107 93.702 57.872 94.3314 57.872C95.3127 57.872 96.0754 58.1813 96.6194 58.8C97.1634 59.4187 97.4354 60.3253 97.4354 61.52V66H95.3874V61.712C95.3874 61.0293 95.2487 60.5067 94.9714 60.144C94.694 59.7813 94.262 59.6 93.6754 59.6C93.0994 59.6 92.6247 59.8027 92.2514 60.208C91.8887 60.6133 91.7074 61.1787 91.7074 61.904V66H89.6594Z" fill="black"/>
<path d="M27.564 94.144C26.948 94.144 26.412 94.032 25.956 93.808C25.5 93.584 25.148 93.272 24.9 92.872C24.652 92.472 24.528 92.008 24.528 91.48H25.584C25.584 91.808 25.66 92.112 25.812 92.392C25.964 92.664 26.184 92.884 26.472 93.052C26.768 93.212 27.132 93.292 27.564 93.292C28.132 93.292 28.572 93.156 28.884 92.884C29.196 92.612 29.352 92.272 29.352 91.864C29.352 91.528 29.28 91.26 29.136 91.06C28.992 90.852 28.796 90.684 28.548 90.556C28.308 90.428 28.028 90.316 27.708 90.22C27.396 90.124 27.068 90.016 26.724 89.896C26.076 89.672 25.596 89.396 25.284 89.068C24.972 88.732 24.816 88.296 24.816 87.76C24.808 87.312 24.912 86.916 25.128 86.572C25.344 86.22 25.648 85.948 26.04 85.756C26.44 85.556 26.912 85.456 27.456 85.456C27.992 85.456 28.456 85.556 28.848 85.756C29.248 85.956 29.556 86.232 29.772 86.584C29.996 86.936 30.112 87.336 30.12 87.784H29.064C29.064 87.552 29.004 87.324 28.884 87.1C28.764 86.868 28.58 86.68 28.332 86.536C28.092 86.392 27.788 86.32 27.42 86.32C26.964 86.312 26.588 86.428 26.292 86.668C26.004 86.908 25.86 87.24 25.86 87.664C25.86 88.024 25.96 88.3 26.16 88.492C26.368 88.684 26.656 88.844 27.024 88.972C27.392 89.092 27.816 89.232 28.296 89.392C28.696 89.536 29.056 89.704 29.376 89.896C29.696 90.088 29.944 90.336 30.12 90.64C30.304 90.944 30.396 91.332 30.396 91.804C30.396 92.204 30.292 92.584 30.084 92.944C29.876 93.296 29.56 93.584 29.136 93.808C28.72 94.032 28.196 94.144 27.564 94.144ZM34.4415 94.144C33.8735 94.144 33.3695 94.016 32.9295 93.76C32.4895 93.496 32.1415 93.132 31.8855 92.668C31.6375 92.204 31.5135 91.656 31.5135 91.024C31.5135 90.4 31.6375 89.856 31.8855 89.392C32.1335 88.92 32.4775 88.556 32.9175 88.3C33.3655 88.036 33.8815 87.904 34.4655 87.904C35.0415 87.904 35.5375 88.036 35.9535 88.3C36.3775 88.556 36.7015 88.896 36.9255 89.32C37.1495 89.744 37.2615 90.2 37.2615 90.688C37.2615 90.776 37.2575 90.864 37.2495 90.952C37.2495 91.04 37.2495 91.14 37.2495 91.252H32.5095C32.5335 91.708 32.6375 92.088 32.8215 92.392C33.0135 92.688 33.2495 92.912 33.5295 93.064C33.8175 93.216 34.1215 93.292 34.4415 93.292C34.8575 93.292 35.2055 93.196 35.4855 93.004C35.7655 92.812 35.9695 92.552 36.0975 92.224H37.0935C36.9335 92.776 36.6255 93.236 36.1695 93.604C35.7215 93.964 35.1455 94.144 34.4415 94.144ZM34.4415 88.756C33.9615 88.756 33.5335 88.904 33.1575 89.2C32.7895 89.488 32.5775 89.912 32.5215 90.472H36.2655C36.2415 89.936 36.0575 89.516 35.7135 89.212C35.3695 88.908 34.9455 88.756 34.4415 88.756ZM38.5975 94V88.048H39.5095L39.5695 89.116C39.7615 88.74 40.0375 88.444 40.3975 88.228C40.7575 88.012 41.1655 87.904 41.6215 87.904C42.3255 87.904 42.8855 88.12 43.3015 88.552C43.7255 88.976 43.9375 89.632 43.9375 90.52V94H42.9295V90.628C42.9295 89.388 42.4175 88.768 41.3935 88.768C40.8815 88.768 40.4535 88.956 40.1095 89.332C39.7735 89.7 39.6055 90.228 39.6055 90.916V94H38.5975ZM48.1647 94.144C47.5727 94.144 47.0527 94.008 46.6047 93.736C46.1647 93.464 45.8207 93.092 45.5727 92.62C45.3327 92.148 45.2127 91.612 45.2127 91.012C45.2127 90.412 45.3367 89.88 45.5847 89.416C45.8327 88.944 46.1767 88.576 46.6167 88.312C47.0567 88.04 47.5767 87.904 48.1767 87.904C48.6647 87.904 49.0967 88.004 49.4727 88.204C49.8487 88.404 50.1407 88.684 50.3487 89.044V85.36H51.3567V94H50.4447L50.3487 93.016C50.1567 93.304 49.8807 93.564 49.5207 93.796C49.1607 94.028 48.7087 94.144 48.1647 94.144ZM48.2727 93.268C48.6727 93.268 49.0247 93.176 49.3287 92.992C49.6407 92.8 49.8807 92.536 50.0487 92.2C50.2247 91.864 50.3127 91.472 50.3127 91.024C50.3127 90.576 50.2247 90.184 50.0487 89.848C49.8807 89.512 49.6407 89.252 49.3287 89.068C49.0247 88.876 48.6727 88.78 48.2727 88.78C47.8807 88.78 47.5287 88.876 47.2167 89.068C46.9127 89.252 46.6727 89.512 46.4967 89.848C46.3287 90.184 46.2447 90.576 46.2447 91.024C46.2447 91.472 46.3287 91.864 46.4967 92.2C46.6727 92.536 46.9127 92.8 47.2167 92.992C47.5287 93.176 47.8807 93.268 48.2727 93.268ZM58.8877 94.144C58.3277 94.144 57.8237 94.016 57.3757 93.76C56.9277 93.504 56.5717 93.144 56.3077 92.68C56.0517 92.208 55.9237 91.656 55.9237 91.024C55.9237 90.392 56.0557 89.844 56.3197 89.38C56.5837 88.908 56.9397 88.544 57.3877 88.288C57.8437 88.032 58.3517 87.904 58.9117 87.904C59.4717 87.904 59.9757 88.032 60.4237 88.288C60.8717 88.544 61.2237 88.908 61.4797 89.38C61.7437 89.844 61.8757 90.392 61.8757 91.024C61.8757 91.656 61.7437 92.208 61.4797 92.68C61.2157 93.144 60.8557 93.504 60.3997 93.76C59.9517 94.016 59.4477 94.144 58.8877 94.144ZM58.8877 93.28C59.2317 93.28 59.5517 93.196 59.8477 93.028C60.1437 92.86 60.3837 92.608 60.5677 92.272C60.7517 91.936 60.8437 91.52 60.8437 91.024C60.8437 90.528 60.7517 90.112 60.5677 89.776C60.3917 89.44 60.1557 89.188 59.8597 89.02C59.5637 88.852 59.2477 88.768 58.9117 88.768C58.5677 88.768 58.2477 88.852 57.9517 89.02C57.6557 89.188 57.4157 89.44 57.2317 89.776C57.0477 90.112 56.9557 90.528 56.9557 91.024C56.9557 91.52 57.0477 91.936 57.2317 92.272C57.4157 92.608 57.6517 92.86 57.9397 93.028C58.2357 93.196 58.5517 93.28 58.8877 93.28ZM65.4492 94.144C64.7452 94.144 64.1852 93.932 63.7692 93.508C63.3532 93.076 63.1452 92.416 63.1452 91.528V88.048H64.1532V91.42C64.1532 92.66 64.6612 93.28 65.6772 93.28C66.1972 93.28 66.6252 93.096 66.9612 92.728C67.3052 92.352 67.4772 91.82 67.4772 91.132V88.048H68.4852V94H67.5732L67.5012 92.932C67.3172 93.308 67.0412 93.604 66.6732 93.82C66.3132 94.036 65.9052 94.144 65.4492 94.144ZM72.4964 94C71.9524 94 71.5244 93.868 71.2124 93.604C70.9004 93.34 70.7444 92.864 70.7444 92.176V88.9H69.7124V88.048H70.7444L70.8764 86.62H71.7524V88.048H73.5044V88.9H71.7524V92.176C71.7524 92.552 71.8284 92.808 71.9804 92.944C72.1324 93.072 72.4004 93.136 72.7844 93.136H73.4084V94H72.4964ZM77.9608 94V88.048H78.8728L78.9448 88.912C79.1368 88.592 79.3928 88.344 79.7128 88.168C80.0328 87.992 80.3928 87.904 80.7928 87.904C81.2648 87.904 81.6688 88 82.0048 88.192C82.3488 88.384 82.6128 88.676 82.7968 89.068C83.0048 88.708 83.2888 88.424 83.6488 88.216C84.0168 88.008 84.4128 87.904 84.8368 87.904C85.5488 87.904 86.1168 88.12 86.5408 88.552C86.9648 88.976 87.1768 89.632 87.1768 90.52V94H86.1808V90.628C86.1808 90.012 86.0568 89.548 85.8088 89.236C85.5608 88.924 85.2048 88.768 84.7408 88.768C84.2608 88.768 83.8608 88.956 83.5408 89.332C83.2288 89.7 83.0728 90.228 83.0728 90.916V94H82.0648V90.628C82.0648 90.012 81.9408 89.548 81.6928 89.236C81.4448 88.924 81.0888 88.768 80.6248 88.768C80.1528 88.768 79.7568 88.956 79.4368 89.332C79.1248 89.7 78.9688 90.228 78.9688 90.916V94H77.9608ZM91.3712 94.144C90.8032 94.144 90.2992 94.016 89.8592 93.76C89.4192 93.496 89.0712 93.132 88.8152 92.668C88.5672 92.204 88.4432 91.656 88.4432 91.024C88.4432 90.4 88.5672 89.856 88.8152 89.392C89.0632 88.92 89.4072 88.556 89.8472 88.3C90.2952 88.036 90.8112 87.904 91.3952 87.904C91.9712 87.904 92.4672 88.036 92.8832 88.3C93.3072 88.556 93.6312 88.896 93.8552 89.32C94.0792 89.744 94.1912 90.2 94.1912 90.688C94.1912 90.776 94.1872 90.864 94.1792 90.952C94.1792 91.04 94.1792 91.14 94.1792 91.252H89.4392C89.4632 91.708 89.5672 92.088 89.7512 92.392C89.9432 92.688 90.1792 92.912 90.4592 93.064C90.7472 93.216 91.0512 93.292 91.3712 93.292C91.7872 93.292 92.1352 93.196 92.4152 93.004C92.6952 92.812 92.8992 92.552 93.0272 92.224H94.0232C93.8632 92.776 93.5552 93.236 93.0992 93.604C92.6512 93.964 92.0752 94.144 91.3712 94.144ZM91.3712 88.756C90.8912 88.756 90.4632 88.904 90.0872 89.2C89.7192 89.488 89.5072 89.912 89.4512 90.472H93.1952C93.1712 89.936 92.9872 89.516 92.6432 89.212C92.2992 88.908 91.8752 88.756 91.3712 88.756ZM97.8072 94.144C97.0952 94.144 96.5032 93.964 96.0312 93.604C95.5592 93.244 95.2832 92.756 95.2032 92.14H96.2352C96.2992 92.452 96.4632 92.724 96.7272 92.956C96.9992 93.18 97.3632 93.292 97.8192 93.292C98.2432 93.292 98.5552 93.204 98.7552 93.028C98.9552 92.844 99.0552 92.628 99.0552 92.38C99.0552 92.02 98.9232 91.78 98.6592 91.66C98.4032 91.54 98.0392 91.432 97.5672 91.336C97.2472 91.272 96.9272 91.18 96.6072 91.06C96.2872 90.94 96.0192 90.772 95.8032 90.556C95.5872 90.332 95.4792 90.04 95.4792 89.68C95.4792 89.16 95.6712 88.736 96.0552 88.408C96.4472 88.072 96.9752 87.904 97.6392 87.904C98.2712 87.904 98.7872 88.064 99.1872 88.384C99.5952 88.696 99.8312 89.144 99.8952 89.728H98.8992C98.8592 89.424 98.7272 89.188 98.5032 89.02C98.2872 88.844 97.9952 88.756 97.6272 88.756C97.2672 88.756 96.9872 88.832 96.7872 88.984C96.5952 89.136 96.4992 89.336 96.4992 89.584C96.4992 89.824 96.6232 90.012 96.8712 90.148C97.1272 90.284 97.4712 90.4 97.9032 90.496C98.2712 90.576 98.6192 90.676 98.9472 90.796C99.2832 90.908 99.5552 91.08 99.7632 91.312C99.9792 91.536 100.087 91.864 100.087 92.296C100.095 92.832 99.8912 93.276 99.4752 93.628C99.0672 93.972 98.5112 94.144 97.8072 94.144ZM103.807 94.144C103.095 94.144 102.503 93.964 102.031 93.604C101.559 93.244 101.283 92.756 101.203 92.14H102.235C102.299 92.452 102.463 92.724 102.727 92.956C102.999 93.18 103.363 93.292 103.819 93.292C104.243 93.292 104.555 93.204 104.755 93.028C104.955 92.844 105.055 92.628 105.055 92.38C105.055 92.02 104.923 91.78 104.659 91.66C104.403 91.54 104.039 91.432 103.567 91.336C103.247 91.272 102.927 91.18 102.607 91.06C102.287 90.94 102.019 90.772 101.803 90.556C101.587 90.332 101.479 90.04 101.479 89.68C101.479 89.16 101.671 88.736 102.055 88.408C102.447 88.072 102.975 87.904 103.639 87.904C104.271 87.904 104.787 88.064 105.187 88.384C105.595 88.696 105.831 89.144 105.895 89.728H104.899C104.859 89.424 104.727 89.188 104.503 89.02C104.287 88.844 103.995 88.756 103.627 88.756C103.267 88.756 102.987 88.832 102.787 88.984C102.595 89.136 102.499 89.336 102.499 89.584C102.499 89.824 102.623 90.012 102.871 90.148C103.127 90.284 103.471 90.4 103.903 90.496C104.271 90.576 104.619 90.676 104.947 90.796C105.283 90.908 105.555 91.08 105.763 91.312C105.979 91.536 106.087 91.864 106.087 92.296C106.095 92.832 105.891 93.276 105.475 93.628C105.067 93.972 104.511 94.144 103.807 94.144ZM109.507 94.144C109.011 94.144 108.599 94.06 108.271 93.892C107.943 93.724 107.699 93.5 107.539 93.22C107.379 92.94 107.299 92.636 107.299 92.308C107.299 91.7 107.531 91.232 107.995 90.904C108.459 90.576 109.091 90.412 109.891 90.412H111.499V90.34C111.499 89.82 111.363 89.428 111.091 89.164C110.819 88.892 110.455 88.756 109.999 88.756C109.607 88.756 109.267 88.856 108.979 89.056C108.699 89.248 108.523 89.532 108.451 89.908H107.419C107.459 89.476 107.603 89.112 107.851 88.816C108.107 88.52 108.423 88.296 108.799 88.144C109.175 87.984 109.575 87.904 109.999 87.904C110.831 87.904 111.455 88.128 111.871 88.576C112.295 89.016 112.507 89.604 112.507 90.34V94H111.607L111.547 92.932C111.379 93.268 111.131 93.556 110.803 93.796C110.483 94.028 110.051 94.144 109.507 94.144ZM109.663 93.292C110.047 93.292 110.375 93.192 110.647 92.992C110.927 92.792 111.139 92.532 111.283 92.212C111.427 91.892 111.499 91.556 111.499 91.204V91.192H109.975C109.383 91.192 108.963 91.296 108.715 91.504C108.475 91.704 108.355 91.956 108.355 92.26C108.355 92.572 108.467 92.824 108.691 93.016C108.923 93.2 109.247 93.292 109.663 93.292ZM116.371 92.128C116.035 92.128 115.727 92.084 115.447 91.996L114.847 92.56C114.935 92.624 115.043 92.68 115.171 92.728C115.307 92.768 115.499 92.808 115.747 92.848C115.995 92.88 116.343 92.916 116.791 92.956C117.591 93.012 118.163 93.196 118.507 93.508C118.851 93.82 119.023 94.228 119.023 94.732C119.023 95.076 118.927 95.404 118.735 95.716C118.551 96.028 118.263 96.284 117.871 96.484C117.487 96.684 116.991 96.784 116.383 96.784C115.847 96.784 115.371 96.712 114.955 96.568C114.539 96.432 114.215 96.22 113.983 95.932C113.751 95.652 113.635 95.296 113.635 94.864C113.635 94.64 113.695 94.396 113.815 94.132C113.935 93.876 114.159 93.632 114.487 93.4C114.311 93.328 114.159 93.252 114.031 93.172C113.911 93.084 113.799 92.988 113.695 92.884V92.608L114.715 91.6C114.243 91.2 114.007 90.672 114.007 90.016C114.007 89.624 114.099 89.268 114.283 88.948C114.467 88.628 114.735 88.376 115.087 88.192C115.439 88 115.867 87.904 116.371 87.904C116.715 87.904 117.027 87.952 117.307 88.048H119.503V88.804L118.387 88.852C118.619 89.188 118.735 89.576 118.735 90.016C118.735 90.408 118.639 90.764 118.447 91.084C118.263 91.404 117.995 91.66 117.643 91.852C117.299 92.036 116.875 92.128 116.371 92.128ZM116.371 91.3C116.795 91.3 117.131 91.192 117.379 90.976C117.635 90.752 117.763 90.432 117.763 90.016C117.763 89.608 117.635 89.296 117.379 89.08C117.131 88.856 116.795 88.744 116.371 88.744C115.939 88.744 115.595 88.856 115.339 89.08C115.091 89.296 114.967 89.608 114.967 90.016C114.967 90.432 115.091 90.752 115.339 90.976C115.595 91.192 115.939 91.3 116.371 91.3ZM114.619 94.768C114.619 95.168 114.787 95.464 115.123 95.656C115.459 95.856 115.879 95.956 116.383 95.956C116.879 95.956 117.275 95.848 117.571 95.632C117.875 95.416 118.027 95.128 118.027 94.768C118.027 94.512 117.923 94.288 117.715 94.096C117.507 93.912 117.123 93.804 116.563 93.772C116.123 93.74 115.743 93.7 115.423 93.652C115.095 93.828 114.879 94.016 114.775 94.216C114.671 94.424 114.619 94.608 114.619 94.768ZM123.082 94.144C122.514 94.144 122.01 94.016 121.57 93.76C121.13 93.496 120.782 93.132 120.526 92.668C120.278 92.204 120.154 91.656 120.154 91.024C120.154 90.4 120.278 89.856 120.526 89.392C120.774 88.92 121.118 88.556 121.558 88.3C122.006 88.036 122.522 87.904 123.106 87.904C123.682 87.904 124.178 88.036 124.594 88.3C125.018 88.556 125.342 88.896 125.566 89.32C125.79 89.744 125.902 90.2 125.902 90.688C125.902 90.776 125.898 90.864 125.89 90.952C125.89 91.04 125.89 91.14 125.89 91.252H121.15C121.174 91.708 121.278 92.088 121.462 92.392C121.654 92.688 121.89 92.912 122.17 93.064C122.458 93.216 122.762 93.292 123.082 93.292C123.498 93.292 123.846 93.196 124.126 93.004C124.406 92.812 124.61 92.552 124.738 92.224H125.734C125.574 92.776 125.266 93.236 124.81 93.604C124.362 93.964 123.786 94.144 123.082 94.144ZM123.082 88.756C122.602 88.756 122.174 88.904 121.798 89.2C121.43 89.488 121.218 89.912 121.162 90.472H124.906C124.882 89.936 124.698 89.516 124.354 89.212C124.01 88.908 123.586 88.756 123.082 88.756ZM129.518 94.144C128.806 94.144 128.214 93.964 127.742 93.604C127.27 93.244 126.994 92.756 126.914 92.14H127.946C128.01 92.452 128.174 92.724 128.438 92.956C128.71 93.18 129.074 93.292 129.53 93.292C129.954 93.292 130.266 93.204 130.466 93.028C130.666 92.844 130.766 92.628 130.766 92.38C130.766 92.02 130.634 91.78 130.37 91.66C130.114 91.54 129.75 91.432 129.278 91.336C128.958 91.272 128.638 91.18 128.318 91.06C127.998 90.94 127.73 90.772 127.514 90.556C127.298 90.332 127.19 90.04 127.19 89.68C127.19 89.16 127.382 88.736 127.766 88.408C128.158 88.072 128.686 87.904 129.35 87.904C129.982 87.904 130.498 88.064 130.898 88.384C131.306 88.696 131.542 89.144 131.606 89.728H130.61C130.57 89.424 130.438 89.188 130.214 89.02C129.998 88.844 129.706 88.756 129.338 88.756C128.978 88.756 128.698 88.832 128.498 88.984C128.306 89.136 128.21 89.336 128.21 89.584C128.21 89.824 128.334 90.012 128.582 90.148C128.838 90.284 129.182 90.4 129.614 90.496C129.982 90.576 130.33 90.676 130.658 90.796C130.994 90.908 131.266 91.08 131.474 91.312C131.69 91.536 131.798 91.864 131.798 92.296C131.806 92.832 131.602 93.276 131.186 93.628C130.778 93.972 130.222 94.144 129.518 94.144ZM138.766 94C138.222 94 137.794 93.868 137.482 93.604C137.17 93.34 137.014 92.864 137.014 92.176V88.9H135.982V88.048H137.014L137.146 86.62H138.022V88.048H139.774V88.9H138.022V92.176C138.022 92.552 138.098 92.808 138.25 92.944C138.402 93.072 138.67 93.136 139.054 93.136H139.678V94H138.766ZM143.603 94.144C143.043 94.144 142.539 94.016 142.091 93.76C141.643 93.504 141.287 93.144 141.023 92.68C140.767 92.208 140.639 91.656 140.639 91.024C140.639 90.392 140.771 89.844 141.035 89.38C141.299 88.908 141.655 88.544 142.103 88.288C142.559 88.032 143.067 87.904 143.627 87.904C144.187 87.904 144.691 88.032 145.139 88.288C145.587 88.544 145.939 88.908 146.195 89.38C146.459 89.844 146.591 90.392 146.591 91.024C146.591 91.656 146.459 92.208 146.195 92.68C145.931 93.144 145.571 93.504 145.115 93.76C144.667 94.016 144.163 94.144 143.603 94.144ZM143.603 93.28C143.947 93.28 144.267 93.196 144.563 93.028C144.859 92.86 145.099 92.608 145.283 92.272C145.467 91.936 145.559 91.52 145.559 91.024C145.559 90.528 145.467 90.112 145.283 89.776C145.107 89.44 144.871 89.188 144.575 89.02C144.279 88.852 143.963 88.768 143.627 88.768C143.283 88.768 142.963 88.852 142.667 89.02C142.371 89.188 142.131 89.44 141.947 89.776C141.763 90.112 141.671 90.528 141.671 91.024C141.671 91.52 141.763 91.936 141.947 92.272C142.131 92.608 142.367 92.86 142.655 93.028C142.951 93.196 143.267 93.28 143.603 93.28ZM151.168 94V85.36H152.176V94H151.168ZM156.504 94.144C155.936 94.144 155.432 94.016 154.992 93.76C154.552 93.496 154.204 93.132 153.948 92.668C153.7 92.204 153.576 91.656 153.576 91.024C153.576 90.4 153.7 89.856 153.948 89.392C154.196 88.92 154.54 88.556 154.98 88.3C155.428 88.036 155.944 87.904 156.528 87.904C157.104 87.904 157.6 88.036 158.016 88.3C158.44 88.556 158.764 88.896 158.988 89.32C159.212 89.744 159.324 90.2 159.324 90.688C159.324 90.776 159.32 90.864 159.312 90.952C159.312 91.04 159.312 91.14 159.312 91.252H154.572C154.596 91.708 154.7 92.088 154.884 92.392C155.076 92.688 155.312 92.912 155.592 93.064C155.88 93.216 156.184 93.292 156.504 93.292C156.92 93.292 157.268 93.196 157.548 93.004C157.828 92.812 158.032 92.552 158.16 92.224H159.156C158.996 92.776 158.688 93.236 158.232 93.604C157.784 93.964 157.208 94.144 156.504 94.144ZM156.504 88.756C156.024 88.756 155.596 88.904 155.22 89.2C154.852 89.488 154.64 89.912 154.584 90.472H158.328C158.304 89.936 158.12 89.516 157.776 89.212C157.432 88.908 157.008 88.756 156.504 88.756ZM162.813 94C162.269 94 161.841 93.868 161.529 93.604C161.217 93.34 161.061 92.864 161.061 92.176V88.9H160.029V88.048H161.061L161.193 86.62H162.069V88.048H163.821V88.9H162.069V92.176C162.069 92.552 162.145 92.808 162.297 92.944C162.449 93.072 162.717 93.136 163.101 93.136H163.725V94H162.813ZM27.564 112.144C26.996 112.144 26.484 112.016 26.028 111.76C25.58 111.496 25.224 111.132 24.96 110.668C24.704 110.196 24.576 109.648 24.576 109.024C24.576 108.4 24.704 107.856 24.96 107.392C25.224 106.92 25.58 106.556 26.028 106.3C26.484 106.036 26.996 105.904 27.564 105.904C28.268 105.904 28.86 106.088 29.34 106.456C29.828 106.824 30.136 107.316 30.264 107.932H29.232C29.152 107.564 28.956 107.28 28.644 107.08C28.332 106.872 27.968 106.768 27.552 106.768C27.216 106.768 26.9 106.852 26.604 107.02C26.308 107.188 26.068 107.44 25.884 107.776C25.7 108.112 25.608 108.528 25.608 109.024C25.608 109.52 25.7 109.936 25.884 110.272C26.068 110.608 26.308 110.864 26.604 111.04C26.9 111.208 27.216 111.292 27.552 111.292C27.968 111.292 28.332 111.192 28.644 110.992C28.956 110.784 29.152 110.492 29.232 110.116H30.264C30.144 110.716 29.84 111.204 29.352 111.58C28.864 111.956 28.268 112.144 27.564 112.144ZM34.3838 112.144C33.8238 112.144 33.3198 112.016 32.8718 111.76C32.4238 111.504 32.0678 111.144 31.8038 110.68C31.5478 110.208 31.4198 109.656 31.4198 109.024C31.4198 108.392 31.5518 107.844 31.8158 107.38C32.0798 106.908 32.4358 106.544 32.8838 106.288C33.3398 106.032 33.8478 105.904 34.4078 105.904C34.9678 105.904 35.4718 106.032 35.9198 106.288C36.3678 106.544 36.7198 106.908 36.9758 107.38C37.2398 107.844 37.3718 108.392 37.3718 109.024C37.3718 109.656 37.2398 110.208 36.9758 110.68C36.7118 111.144 36.3518 111.504 35.8958 111.76C35.4478 112.016 34.9438 112.144 34.3838 112.144ZM34.3838 111.28C34.7278 111.28 35.0478 111.196 35.3438 111.028C35.6398 110.86 35.8798 110.608 36.0638 110.272C36.2478 109.936 36.3398 109.52 36.3398 109.024C36.3398 108.528 36.2478 108.112 36.0638 107.776C35.8878 107.44 35.6518 107.188 35.3558 107.02C35.0598 106.852 34.7438 106.768 34.4078 106.768C34.0638 106.768 33.7438 106.852 33.4478 107.02C33.1518 107.188 32.9118 107.44 32.7278 107.776C32.5438 108.112 32.4518 108.528 32.4518 109.024C32.4518 109.52 32.5438 109.936 32.7278 110.272C32.9118 110.608 33.1478 110.86 33.4358 111.028C33.7318 111.196 34.0478 111.28 34.3838 111.28ZM38.7733 112V106.048H39.6853L39.7453 107.116C39.9373 106.74 40.2133 106.444 40.5733 106.228C40.9333 106.012 41.3413 105.904 41.7973 105.904C42.5013 105.904 43.0613 106.12 43.4773 106.552C43.9013 106.976 44.1133 107.632 44.1133 108.52V112H43.1053V108.628C43.1053 107.388 42.5933 106.768 41.5693 106.768C41.0573 106.768 40.6293 106.956 40.2853 107.332C39.9493 107.7 39.7813 108.228 39.7813 108.916V112H38.7733ZM47.9925 112C47.4485 112 47.0205 111.868 46.7085 111.604C46.3965 111.34 46.2405 110.864 46.2405 110.176V106.9H45.2085V106.048H46.2405L46.3725 104.62H47.2485V106.048H49.0005V106.9H47.2485V110.176C47.2485 110.552 47.3245 110.808 47.4765 110.944C47.6285 111.072 47.8965 111.136 48.2805 111.136H48.9045V112H47.9925ZM52.2611 112.144C51.7651 112.144 51.3531 112.06 51.0251 111.892C50.6971 111.724 50.4531 111.5 50.2931 111.22C50.1331 110.94 50.0531 110.636 50.0531 110.308C50.0531 109.7 50.2851 109.232 50.7491 108.904C51.2131 108.576 51.8451 108.412 52.6451 108.412H54.2531V108.34C54.2531 107.82 54.1171 107.428 53.8451 107.164C53.5731 106.892 53.2091 106.756 52.7531 106.756C52.3611 106.756 52.0211 106.856 51.7331 107.056C51.4531 107.248 51.2771 107.532 51.2051 107.908H50.1731C50.2131 107.476 50.3571 107.112 50.6051 106.816C50.8611 106.52 51.1771 106.296 51.5531 106.144C51.9291 105.984 52.3291 105.904 52.7531 105.904C53.5851 105.904 54.2091 106.128 54.6251 106.576C55.0491 107.016 55.2611 107.604 55.2611 108.34V112H54.3611L54.3011 110.932C54.1331 111.268 53.8851 111.556 53.5571 111.796C53.2371 112.028 52.8051 112.144 52.2611 112.144ZM52.4171 111.292C52.8011 111.292 53.1291 111.192 53.4011 110.992C53.6811 110.792 53.8931 110.532 54.0371 110.212C54.1811 109.892 54.2531 109.556 54.2531 109.204V109.192H52.7291C52.1371 109.192 51.7171 109.296 51.4691 109.504C51.2291 109.704 51.1091 109.956 51.1091 110.26C51.1091 110.572 51.2211 110.824 51.4451 111.016C51.6771 111.2 52.0011 111.292 52.4171 111.292ZM59.5093 112.144C58.9413 112.144 58.4293 112.016 57.9733 111.76C57.5253 111.496 57.1693 111.132 56.9053 110.668C56.6493 110.196 56.5213 109.648 56.5213 109.024C56.5213 108.4 56.6493 107.856 56.9053 107.392C57.1693 106.92 57.5253 106.556 57.9733 106.3C58.4293 106.036 58.9413 105.904 59.5093 105.904C60.2133 105.904 60.8053 106.088 61.2853 106.456C61.7733 106.824 62.0813 107.316 62.2093 107.932H61.1773C61.0973 107.564 60.9013 107.28 60.5893 107.08C60.2773 106.872 59.9133 106.768 59.4973 106.768C59.1613 106.768 58.8453 106.852 58.5493 107.02C58.2533 107.188 58.0133 107.44 57.8293 107.776C57.6453 108.112 57.5533 108.528 57.5533 109.024C57.5533 109.52 57.6453 109.936 57.8293 110.272C58.0133 110.608 58.2533 110.864 58.5493 111.04C58.8453 111.208 59.1613 111.292 59.4973 111.292C59.9133 111.292 60.2773 111.192 60.5893 110.992C60.9013 110.784 61.0973 110.492 61.1773 110.116H62.2093C62.0893 110.716 61.7853 111.204 61.2973 111.58C60.8093 111.956 60.2133 112.144 59.5093 112.144ZM65.805 112C65.261 112 64.833 111.868 64.521 111.604C64.209 111.34 64.053 110.864 64.053 110.176V106.9H63.021V106.048H64.053L64.185 104.62H65.061V106.048H66.813V106.9H65.061V110.176C65.061 110.552 65.137 110.808 65.289 110.944C65.441 111.072 65.709 111.136 66.093 111.136H66.717V112H65.805ZM70.3736 112.144C69.6616 112.144 69.0696 111.964 68.5976 111.604C68.1256 111.244 67.8496 110.756 67.7696 110.14H68.8016C68.8656 110.452 69.0296 110.724 69.2936 110.956C69.5656 111.18 69.9296 111.292 70.3856 111.292C70.8096 111.292 71.1216 111.204 71.3216 111.028C71.5216 110.844 71.6216 110.628 71.6216 110.38C71.6216 110.02 71.4896 109.78 71.2256 109.66C70.9696 109.54 70.6056 109.432 70.1336 109.336C69.8136 109.272 69.4936 109.18 69.1736 109.06C68.8536 108.94 68.5856 108.772 68.3696 108.556C68.1536 108.332 68.0456 108.04 68.0456 107.68C68.0456 107.16 68.2376 106.736 68.6216 106.408C69.0136 106.072 69.5416 105.904 70.2056 105.904C70.8376 105.904 71.3536 106.064 71.7536 106.384C72.1616 106.696 72.3976 107.144 72.4616 107.728H71.4656C71.4256 107.424 71.2936 107.188 71.0696 107.02C70.8536 106.844 70.5616 106.756 70.1936 106.756C69.8336 106.756 69.5536 106.832 69.3536 106.984C69.1616 107.136 69.0656 107.336 69.0656 107.584C69.0656 107.824 69.1896 108.012 69.4376 108.148C69.6936 108.284 70.0376 108.4 70.4696 108.496C70.8376 108.576 71.1856 108.676 71.5136 108.796C71.8496 108.908 72.1216 109.08 72.3296 109.312C72.5456 109.536 72.6536 109.864 72.6536 110.296C72.6616 110.832 72.4576 111.276 72.0416 111.628C71.6336 111.972 71.0776 112.144 70.3736 112.144ZM77.2694 112V103.36H78.2774V108.556L80.7134 106.048H81.9494L79.3094 108.736L82.2854 112H81.0014L78.2774 108.916V112H77.2694ZM83.3163 112V106.048H84.2283L84.2883 107.116C84.4803 106.74 84.7563 106.444 85.1163 106.228C85.4763 106.012 85.8843 105.904 86.3403 105.904C87.0443 105.904 87.6043 106.12 88.0203 106.552C88.4443 106.976 88.6563 107.632 88.6563 108.52V112H87.6483V108.628C87.6483 107.388 87.1363 106.768 86.1123 106.768C85.6003 106.768 85.1723 106.956 84.8283 107.332C84.4923 107.7 84.3243 108.228 84.3243 108.916V112H83.3163ZM92.8955 112.144C92.3355 112.144 91.8315 112.016 91.3835 111.76C90.9355 111.504 90.5795 111.144 90.3155 110.68C90.0595 110.208 89.9315 109.656 89.9315 109.024C89.9315 108.392 90.0635 107.844 90.3275 107.38C90.5915 106.908 90.9475 106.544 91.3955 106.288C91.8515 106.032 92.3595 105.904 92.9195 105.904C93.4795 105.904 93.9835 106.032 94.4315 106.288C94.8795 106.544 95.2315 106.908 95.4875 107.38C95.7515 107.844 95.8835 108.392 95.8835 109.024C95.8835 109.656 95.7515 110.208 95.4875 110.68C95.2235 111.144 94.8635 111.504 94.4075 111.76C93.9595 112.016 93.4555 112.144 92.8955 112.144ZM92.8955 111.28C93.2395 111.28 93.5595 111.196 93.8555 111.028C94.1515 110.86 94.3915 110.608 94.5755 110.272C94.7595 109.936 94.8515 109.52 94.8515 109.024C94.8515 108.528 94.7595 108.112 94.5755 107.776C94.3995 107.44 94.1635 107.188 93.8675 107.02C93.5715 106.852 93.2555 106.768 92.9195 106.768C92.5755 106.768 92.2555 106.852 91.9595 107.02C91.6635 107.188 91.4235 107.44 91.2395 107.776C91.0555 108.112 90.9635 108.528 90.9635 109.024C90.9635 109.52 91.0555 109.936 91.2395 110.272C91.4235 110.608 91.6595 110.86 91.9475 111.028C92.2435 111.196 92.5595 111.28 92.8955 111.28ZM98.2624 112L96.5224 106.048H97.5304L98.7904 110.716L100.182 106.048H101.322L102.726 110.716L103.974 106.048H104.994L103.254 112H102.222L100.758 107.092L99.2944 112H98.2624ZM111.265 112.144C110.769 112.144 110.357 112.06 110.029 111.892C109.701 111.724 109.457 111.5 109.297 111.22C109.137 110.94 109.057 110.636 109.057 110.308C109.057 109.7 109.289 109.232 109.753 108.904C110.217 108.576 110.849 108.412 111.649 108.412H113.257V108.34C113.257 107.82 113.121 107.428 112.849 107.164C112.577 106.892 112.213 106.756 111.757 106.756C111.365 106.756 111.025 106.856 110.737 107.056C110.457 107.248 110.281 107.532 110.209 107.908H109.177C109.217 107.476 109.361 107.112 109.609 106.816C109.865 106.52 110.181 106.296 110.557 106.144C110.933 105.984 111.333 105.904 111.757 105.904C112.589 105.904 113.213 106.128 113.629 106.576C114.053 107.016 114.265 107.604 114.265 108.34V112H113.365L113.305 110.932C113.137 111.268 112.889 111.556 112.561 111.796C112.241 112.028 111.809 112.144 111.265 112.144ZM111.421 111.292C111.805 111.292 112.133 111.192 112.405 110.992C112.685 110.792 112.897 110.532 113.041 110.212C113.185 109.892 113.257 109.556 113.257 109.204V109.192H111.733C111.141 109.192 110.721 109.296 110.473 109.504C110.233 109.704 110.113 109.956 110.113 110.26C110.113 110.572 110.225 110.824 110.449 111.016C110.681 111.2 111.005 111.292 111.421 111.292ZM118.957 112.144C118.469 112.144 118.033 112.044 117.649 111.844C117.273 111.644 116.985 111.364 116.785 111.004L116.689 112H115.777V103.36H116.785V107.032C116.977 106.744 117.249 106.484 117.601 106.252C117.961 106.02 118.417 105.904 118.969 105.904C119.561 105.904 120.077 106.04 120.517 106.312C120.957 106.584 121.297 106.956 121.537 107.428C121.785 107.9 121.909 108.436 121.909 109.036C121.909 109.636 121.785 110.172 121.537 110.644C121.297 111.108 120.953 111.476 120.505 111.748C120.065 112.012 119.549 112.144 118.957 112.144ZM118.849 111.268C119.249 111.268 119.601 111.176 119.905 110.992C120.209 110.8 120.449 110.536 120.625 110.2C120.801 109.864 120.889 109.472 120.889 109.024C120.889 108.576 120.801 108.184 120.625 107.848C120.449 107.512 120.209 107.252 119.905 107.068C119.601 106.876 119.249 106.78 118.849 106.78C118.449 106.78 118.097 106.876 117.793 107.068C117.489 107.252 117.249 107.512 117.073 107.848C116.897 108.184 116.809 108.576 116.809 109.024C116.809 109.472 116.897 109.864 117.073 110.2C117.249 110.536 117.489 110.8 117.793 110.992C118.097 111.176 118.449 111.268 118.849 111.268ZM126.024 112.144C125.464 112.144 124.96 112.016 124.512 111.76C124.064 111.504 123.708 111.144 123.444 110.68C123.188 110.208 123.06 109.656 123.06 109.024C123.06 108.392 123.192 107.844 123.456 107.38C123.72 106.908 124.076 106.544 124.524 106.288C124.98 106.032 125.488 105.904 126.048 105.904C126.608 105.904 127.112 106.032 127.56 106.288C128.008 106.544 128.36 106.908 128.616 107.38C128.88 107.844 129.012 108.392 129.012 109.024C129.012 109.656 128.88 110.208 128.616 110.68C128.352 111.144 127.992 111.504 127.536 111.76C127.088 112.016 126.584 112.144 126.024 112.144ZM126.024 111.28C126.368 111.28 126.688 111.196 126.984 111.028C127.28 110.86 127.52 110.608 127.704 110.272C127.888 109.936 127.98 109.52 127.98 109.024C127.98 108.528 127.888 108.112 127.704 107.776C127.528 107.44 127.292 107.188 126.996 107.02C126.7 106.852 126.384 106.768 126.048 106.768C125.704 106.768 125.384 106.852 125.088 107.02C124.792 107.188 124.552 107.44 124.368 107.776C124.184 108.112 124.092 108.528 124.092 109.024C124.092 109.52 124.184 109.936 124.368 110.272C124.552 110.608 124.788 110.86 125.076 111.028C125.372 111.196 125.688 111.28 126.024 111.28ZM132.586 112.144C131.882 112.144 131.322 111.932 130.906 111.508C130.49 111.076 130.282 110.416 130.282 109.528V106.048H131.29V109.42C131.29 110.66 131.798 111.28 132.814 111.28C133.334 111.28 133.762 111.096 134.098 110.728C134.442 110.352 134.614 109.82 134.614 109.132V106.048H135.622V112H134.71L134.638 110.932C134.454 111.308 134.178 111.604 133.81 111.82C133.45 112.036 133.042 112.144 132.586 112.144ZM139.633 112C139.089 112 138.661 111.868 138.349 111.604C138.037 111.34 137.881 110.864 137.881 110.176V106.9H136.849V106.048H137.881L138.013 104.62H138.889V106.048H140.641V106.9H138.889V110.176C138.889 110.552 138.965 110.808 139.117 110.944C139.269 111.072 139.537 111.136 139.921 111.136H140.545V112H139.633ZM145.746 114.64L147.222 111.424H146.874L144.51 106.048H145.602L147.57 110.68L149.658 106.048H150.702L146.802 114.64H145.746ZM153.915 112.144C153.355 112.144 152.851 112.016 152.403 111.76C151.955 111.504 151.599 111.144 151.335 110.68C151.079 110.208 150.951 109.656 150.951 109.024C150.951 108.392 151.083 107.844 151.347 107.38C151.611 106.908 151.967 106.544 152.415 106.288C152.871 106.032 153.379 105.904 153.939 105.904C154.499 105.904 155.003 106.032 155.451 106.288C155.899 106.544 156.251 106.908 156.507 107.38C156.771 107.844 156.903 108.392 156.903 109.024C156.903 109.656 156.771 110.208 156.507 110.68C156.243 111.144 155.883 111.504 155.427 111.76C154.979 112.016 154.475 112.144 153.915 112.144ZM153.915 111.28C154.259 111.28 154.579 111.196 154.875 111.028C155.171 110.86 155.411 110.608 155.595 110.272C155.779 109.936 155.871 109.52 155.871 109.024C155.871 108.528 155.779 108.112 155.595 107.776C155.419 107.44 155.183 107.188 154.887 107.02C154.591 106.852 154.275 106.768 153.939 106.768C153.595 106.768 153.275 106.852 152.979 107.02C152.683 107.188 152.443 107.44 152.259 107.776C152.075 108.112 151.983 108.528 151.983 109.024C151.983 109.52 152.075 109.936 152.259 110.272C152.443 110.608 152.679 110.86 152.967 111.028C153.263 111.196 153.579 111.28 153.915 111.28ZM160.477 112.144C159.773 112.144 159.213 111.932 158.797 111.508C158.381 111.076 158.173 110.416 158.173 109.528V106.048H159.181V109.42C159.181 110.66 159.689 111.28 160.705 111.28C161.225 111.28 161.653 111.096 161.989 110.728C162.333 110.352 162.505 109.82 162.505 109.132V106.048H163.513V112H162.601L162.529 110.932C162.345 111.308 162.069 111.604 161.701 111.82C161.341 112.036 160.933 112.144 160.477 112.144ZM165.172 112V106.048H166.084L166.168 107.188C166.352 106.796 166.632 106.484 167.008 106.252C167.384 106.02 167.848 105.904 168.4 105.904V106.96H168.124C167.772 106.96 167.448 107.024 167.152 107.152C166.856 107.272 166.62 107.48 166.444 107.776C166.268 108.072 166.18 108.48 166.18 109V112H165.172ZM172.707 112V106.048H173.619L173.679 107.116C173.871 106.74 174.147 106.444 174.507 106.228C174.867 106.012 175.275 105.904 175.731 105.904C176.435 105.904 176.995 106.12 177.411 106.552C177.835 106.976 178.047 107.632 178.047 108.52V112H177.039V108.628C177.039 107.388 176.527 106.768 175.503 106.768C174.991 106.768 174.563 106.956 174.219 107.332C173.883 107.7 173.715 108.228 173.715 108.916V112H172.707ZM182.25 112.144C181.682 112.144 181.178 112.016 180.738 111.76C180.298 111.496 179.95 111.132 179.694 110.668C179.446 110.204 179.322 109.656 179.322 109.024C179.322 108.4 179.446 107.856 179.694 107.392C179.942 106.92 180.286 106.556 180.726 106.3C181.174 106.036 181.69 105.904 182.274 105.904C182.85 105.904 183.346 106.036 183.762 106.3C184.186 106.556 184.51 106.896 184.734 107.32C184.958 107.744 185.07 108.2 185.07 108.688C185.07 108.776 185.066 108.864 185.058 108.952C185.058 109.04 185.058 109.14 185.058 109.252H180.318C180.342 109.708 180.446 110.088 180.63 110.392C180.822 110.688 181.058 110.912 181.338 111.064C181.626 111.216 181.93 111.292 182.25 111.292C182.666 111.292 183.014 111.196 183.294 111.004C183.574 110.812 183.778 110.552 183.906 110.224H184.902C184.742 110.776 184.434 111.236 183.978 111.604C183.53 111.964 182.954 112.144 182.25 112.144ZM182.25 106.756C181.77 106.756 181.342 106.904 180.966 107.2C180.598 107.488 180.386 107.912 180.33 108.472H184.074C184.05 107.936 183.866 107.516 183.522 107.212C183.178 106.908 182.754 106.756 182.25 106.756ZM187.372 112L185.632 106.048H186.64L187.9 110.716L189.292 106.048H190.432L191.836 110.716L193.084 106.048H194.104L192.364 112H191.332L189.868 107.092L188.404 112H187.372ZM27.54 130.144C26.98 130.144 26.476 130.016 26.028 129.76C25.58 129.504 25.224 129.144 24.96 128.68C24.704 128.208 24.576 127.656 24.576 127.024C24.576 126.392 24.708 125.844 24.972 125.38C25.236 124.908 25.592 124.544 26.04 124.288C26.496 124.032 27.004 123.904 27.564 123.904C28.124 123.904 28.628 124.032 29.076 124.288C29.524 124.544 29.876 124.908 30.132 125.38C30.396 125.844 30.528 126.392 30.528 127.024C30.528 127.656 30.396 128.208 30.132 128.68C29.868 129.144 29.508 129.504 29.052 129.76C28.604 130.016 28.1 130.144 27.54 130.144ZM27.54 129.28C27.884 129.28 28.204 129.196 28.5 129.028C28.796 128.86 29.036 128.608 29.22 128.272C29.404 127.936 29.496 127.52 29.496 127.024C29.496 126.528 29.404 126.112 29.22 125.776C29.044 125.44 28.808 125.188 28.512 125.02C28.216 124.852 27.9 124.768 27.564 124.768C27.22 124.768 26.9 124.852 26.604 125.02C26.308 125.188 26.068 125.44 25.884 125.776C25.7 126.112 25.608 126.528 25.608 127.024C25.608 127.52 25.7 127.936 25.884 128.272C26.068 128.608 26.304 128.86 26.592 129.028C26.888 129.196 27.204 129.28 27.54 129.28ZM31.9296 132.64V124.048H32.8416L32.9376 125.032C33.1296 124.744 33.4016 124.484 33.7536 124.252C34.1136 124.02 34.5696 123.904 35.1216 123.904C35.7136 123.904 36.2296 124.04 36.6696 124.312C37.1096 124.584 37.4496 124.956 37.6896 125.428C37.9376 125.9 38.0616 126.436 38.0616 127.036C38.0616 127.636 37.9376 128.172 37.6896 128.644C37.4496 129.108 37.1056 129.476 36.6576 129.748C36.2176 130.012 35.7016 130.144 35.1096 130.144C34.6216 130.144 34.1856 130.044 33.8016 129.844C33.4256 129.644 33.1376 129.364 32.9376 129.004V132.64H31.9296ZM35.0016 129.268C35.4016 129.268 35.7536 129.176 36.0576 128.992C36.3616 128.8 36.6016 128.536 36.7776 128.2C36.9536 127.864 37.0416 127.472 37.0416 127.024C37.0416 126.576 36.9536 126.184 36.7776 125.848C36.6016 125.512 36.3616 125.252 36.0576 125.068C35.7536 124.876 35.4016 124.78 35.0016 124.78C34.6016 124.78 34.2496 124.876 33.9456 125.068C33.6416 125.252 33.4016 125.512 33.2256 125.848C33.0496 126.184 32.9616 126.576 32.9616 127.024C32.9616 127.472 33.0496 127.864 33.2256 128.2C33.4016 128.536 33.6416 128.8 33.9456 128.992C34.2496 129.176 34.6016 129.268 35.0016 129.268ZM39.4647 132.64V124.048H40.3767L40.4727 125.032C40.6647 124.744 40.9367 124.484 41.2887 124.252C41.6487 124.02 42.1047 123.904 42.6567 123.904C43.2487 123.904 43.7647 124.04 44.2047 124.312C44.6447 124.584 44.9847 124.956 45.2247 125.428C45.4727 125.9 45.5967 126.436 45.5967 127.036C45.5967 127.636 45.4727 128.172 45.2247 128.644C44.9847 129.108 44.6407 129.476 44.1927 129.748C43.7527 130.012 43.2367 130.144 42.6447 130.144C42.1567 130.144 41.7207 130.044 41.3367 129.844C40.9607 129.644 40.6727 129.364 40.4727 129.004V132.64H39.4647ZM42.5367 129.268C42.9367 129.268 43.2887 129.176 43.5927 128.992C43.8967 128.8 44.1367 128.536 44.3127 128.2C44.4887 127.864 44.5767 127.472 44.5767 127.024C44.5767 126.576 44.4887 126.184 44.3127 125.848C44.1367 125.512 43.8967 125.252 43.5927 125.068C43.2887 124.876 42.9367 124.78 42.5367 124.78C42.1367 124.78 41.7847 124.876 41.4807 125.068C41.1767 125.252 40.9367 125.512 40.7607 125.848C40.5847 126.184 40.4967 126.576 40.4967 127.024C40.4967 127.472 40.5847 127.864 40.7607 128.2C40.9367 128.536 41.1767 128.8 41.4807 128.992C41.7847 129.176 42.1367 129.268 42.5367 129.268ZM49.7119 130.144C49.1519 130.144 48.6479 130.016 48.1999 129.76C47.7519 129.504 47.3959 129.144 47.1319 128.68C46.8759 128.208 46.7479 127.656 46.7479 127.024C46.7479 126.392 46.8799 125.844 47.1439 125.38C47.4079 124.908 47.7639 124.544 48.2119 124.288C48.6679 124.032 49.1759 123.904 49.7359 123.904C50.2959 123.904 50.7999 124.032 51.2479 124.288C51.6959 124.544 52.0479 124.908 52.3039 125.38C52.5679 125.844 52.6999 126.392 52.6999 127.024C52.6999 127.656 52.5679 128.208 52.3039 128.68C52.0399 129.144 51.6799 129.504 51.2239 129.76C50.7759 130.016 50.2719 130.144 49.7119 130.144ZM49.7119 129.28C50.0559 129.28 50.3759 129.196 50.6719 129.028C50.9679 128.86 51.2079 128.608 51.3919 128.272C51.5759 127.936 51.6679 127.52 51.6679 127.024C51.6679 126.528 51.5759 126.112 51.3919 125.776C51.2159 125.44 50.9799 125.188 50.6839 125.02C50.3879 124.852 50.0719 124.768 49.7359 124.768C49.3919 124.768 49.0719 124.852 48.7759 125.02C48.4799 125.188 48.2399 125.44 48.0559 125.776C47.8719 126.112 47.7799 126.528 47.7799 127.024C47.7799 127.52 47.8719 127.936 48.0559 128.272C48.2399 128.608 48.4759 128.86 48.7639 129.028C49.0599 129.196 49.3759 129.28 49.7119 129.28ZM54.1014 130V124.048H55.0134L55.0974 125.188C55.2814 124.796 55.5614 124.484 55.9374 124.252C56.3134 124.02 56.7774 123.904 57.3294 123.904V124.96H57.0534C56.7014 124.96 56.3774 125.024 56.0814 125.152C55.7854 125.272 55.5494 125.48 55.3734 125.776C55.1974 126.072 55.1094 126.48 55.1094 127V130H54.1014ZM60.8128 130C60.2688 130 59.8408 129.868 59.5288 129.604C59.2168 129.34 59.0608 128.864 59.0608 128.176V124.9H58.0288V124.048H59.0608L59.1928 122.62H60.0688V124.048H61.8208V124.9H60.0688V128.176C60.0688 128.552 60.1448 128.808 60.2968 128.944C60.4488 129.072 60.7168 129.136 61.1008 129.136H61.7248V130H60.8128ZM65.2734 130.144C64.5694 130.144 64.0094 129.932 63.5934 129.508C63.1774 129.076 62.9694 128.416 62.9694 127.528V124.048H63.9774V127.42C63.9774 128.66 64.4854 129.28 65.5014 129.28C66.0214 129.28 66.4494 129.096 66.7854 128.728C67.1294 128.352 67.3014 127.82 67.3014 127.132V124.048H68.3094V130H67.3974L67.3254 128.932C67.1414 129.308 66.8654 129.604 66.4974 129.82C66.1374 130.036 65.7294 130.144 65.2734 130.144ZM69.9686 130V124.048H70.8806L70.9406 125.116C71.1326 124.74 71.4086 124.444 71.7686 124.228C72.1286 124.012 72.5366 123.904 72.9926 123.904C73.6966 123.904 74.2566 124.12 74.6726 124.552C75.0966 124.976 75.3086 125.632 75.3086 126.52V130H74.3006V126.628C74.3006 125.388 73.7886 124.768 72.7646 124.768C72.2526 124.768 71.8246 124.956 71.4806 125.332C71.1446 125.7 70.9766 126.228 70.9766 126.916V130H69.9686ZM77.4478 122.728C77.2478 122.728 77.0798 122.664 76.9438 122.536C76.8158 122.4 76.7518 122.232 76.7518 122.032C76.7518 121.84 76.8158 121.68 76.9438 121.552C77.0798 121.424 77.2478 121.36 77.4478 121.36C77.6398 121.36 77.8038 121.424 77.9398 121.552C78.0758 121.68 78.1438 121.84 78.1438 122.032C78.1438 122.232 78.0758 122.4 77.9398 122.536C77.8038 122.664 77.6398 122.728 77.4478 122.728ZM76.9438 130V124.048H77.9518V130H76.9438ZM82.0589 130C81.5149 130 81.0869 129.868 80.7749 129.604C80.4629 129.34 80.3069 128.864 80.3069 128.176V124.9H79.2749V124.048H80.3069L80.4389 122.62H81.3149V124.048H83.0669V124.9H81.3149V128.176C81.3149 128.552 81.3909 128.808 81.5429 128.944C81.6949 129.072 81.9629 129.136 82.3469 129.136H82.9709V130H82.0589ZM84.9595 122.728C84.7595 122.728 84.5915 122.664 84.4555 122.536C84.3275 122.4 84.2635 122.232 84.2635 122.032C84.2635 121.84 84.3275 121.68 84.4555 121.552C84.5915 121.424 84.7595 121.36 84.9595 121.36C85.1515 121.36 85.3155 121.424 85.4515 121.552C85.5875 121.68 85.6555 121.84 85.6555 122.032C85.6555 122.232 85.5875 122.4 85.4515 122.536C85.3155 122.664 85.1515 122.728 84.9595 122.728ZM84.4555 130V124.048H85.4635V130H84.4555ZM89.8946 130.144C89.3266 130.144 88.8226 130.016 88.3826 129.76C87.9426 129.496 87.5946 129.132 87.3386 128.668C87.0906 128.204 86.9666 127.656 86.9666 127.024C86.9666 126.4 87.0906 125.856 87.3386 125.392C87.5866 124.92 87.9306 124.556 88.3706 124.3C88.8186 124.036 89.3346 123.904 89.9186 123.904C90.4946 123.904 90.9906 124.036 91.4066 124.3C91.8306 124.556 92.1546 124.896 92.3786 125.32C92.6026 125.744 92.7146 126.2 92.7146 126.688C92.7146 126.776 92.7106 126.864 92.7026 126.952C92.7026 127.04 92.7026 127.14 92.7026 127.252H87.9626C87.9866 127.708 88.0906 128.088 88.2746 128.392C88.4666 128.688 88.7026 128.912 88.9826 129.064C89.2706 129.216 89.5746 129.292 89.8946 129.292C90.3106 129.292 90.6586 129.196 90.9386 129.004C91.2186 128.812 91.4226 128.552 91.5506 128.224H92.5466C92.3866 128.776 92.0786 129.236 91.6226 129.604C91.1746 129.964 90.5986 130.144 89.8946 130.144ZM89.8946 124.756C89.4146 124.756 88.9866 124.904 88.6106 125.2C88.2426 125.488 88.0306 125.912 87.9746 126.472H91.7186C91.6946 125.936 91.5106 125.516 91.1666 125.212C90.8226 124.908 90.3986 124.756 89.8946 124.756ZM96.3307 130.144C95.6187 130.144 95.0267 129.964 94.5547 129.604C94.0827 129.244 93.8067 128.756 93.7267 128.14H94.7587C94.8227 128.452 94.9867 128.724 95.2507 128.956C95.5227 129.18 95.8867 129.292 96.3427 129.292C96.7667 129.292 97.0787 129.204 97.2787 129.028C97.4787 128.844 97.5787 128.628 97.5787 128.38C97.5787 128.02 97.4467 127.78 97.1827 127.66C96.9267 127.54 96.5627 127.432 96.0907 127.336C95.7707 127.272 95.4507 127.18 95.1307 127.06C94.8107 126.94 94.5427 126.772 94.3267 126.556C94.1107 126.332 94.0027 126.04 94.0027 125.68C94.0027 125.16 94.1947 124.736 94.5787 124.408C94.9707 124.072 95.4987 123.904 96.1627 123.904C96.7947 123.904 97.3107 124.064 97.7107 124.384C98.1187 124.696 98.3547 125.144 98.4187 125.728H97.4227C97.3827 125.424 97.2507 125.188 97.0267 125.02C96.8107 124.844 96.5187 124.756 96.1507 124.756C95.7907 124.756 95.5107 124.832 95.3107 124.984C95.1187 125.136 95.0227 125.336 95.0227 125.584C95.0227 125.824 95.1467 126.012 95.3947 126.148C95.6507 126.284 95.9947 126.4 96.4267 126.496C96.7947 126.576 97.1427 126.676 97.4707 126.796C97.8067 126.908 98.0787 127.08 98.2867 127.312C98.5027 127.536 98.6107 127.864 98.6107 128.296C98.6187 128.832 98.4147 129.276 97.9987 129.628C97.5907 129.972 97.0347 130.144 96.3307 130.144Z" fill="#727578"/>
<defs>
<filter id="filter0_d_152_1452" x="-2" y="0" width="223" height="161" filterUnits="userSpaceOnUse" color-interpolation-filters="sRGB">
<feFlood flood-opacity="0" result="BackgroundImageFix"/>
<feColorMatrix in="SourceAlpha" type="matrix" values="0 0 0 0 0 0 0 0 0 0 0 0 0 0 0 0 0 0 127 0" result="hardAlpha"/>
<feOffset/>
<feGaussianBlur stdDeviation="7"/>
<feComposite in2="hardAlpha" operator="out"/>
<feColorMatrix type="matrix" values="0 0 0 0 0.27106 0 0 0 0 0.291722 0 0 0 0 0.320993 0 0 0 0.12 0"/>
<feBlend mode="normal" in2="BackgroundImageFix" result="effect1_dropShadow_152_1452"/>
<feBlend mode="normal" in="SourceGraphic" in2="effect1_dropShadow_152_1452" result="shape"/>
</filter>
<linearGradient id="paint0_linear_152_1452" x1="13" y1="146" x2="135.285" y2="38.4473" gradientUnits="userSpaceOnUse">
<stop offset="0.917129" stop-color="white"/>
<stop offset="1" stop-color="white" stop-opacity="0"/>
</linearGradient>
<linearGradient id="paint1_linear_152_1452" x1="13" y1="146" x2="135.285" y2="38.4473" gradientUnits="userSpaceOnUse">
<stop stop-color="#FFF0DE"/>
<stop offset="1" stop-color="white" stop-opacity="0"/>
</linearGradient>
</defs>
</svg>
