<svg width="223" height="161" viewBox="0 0 223 161" fill="none" xmlns="http://www.w3.org/2000/svg">
<g filter="url(#filter0_d_152_1470)">
<rect x="14" y="14" width="195" height="133" rx="14" fill="white"/>
</g>
<path d="M152.676 24.9359C147.94 27.8428 145.063 30.4747 146.033 37.2635C147.013 44.1261 148.001 42.8212 151.311 48.9088C154.62 54.9964 149.48 54.8027 152.636 65.7741C155.688 76.3848 165.58 79.2171 181.351 75.1234C197.121 71.0298 198.324 57.9386 191.654 46.6679C186.651 38.2149 187.205 38 177.042 30.4073C164.652 21.151 159.451 20.7775 152.676 24.9359Z" fill="#FFDEDE"/>
<path d="M143.5 69C149.494 67.1531 151.893 57.6662 158.049 57.6662C158.558 55.9742 159.344 54.2732 159.548 52.6727C159.731 51.2469 158.657 50.0468 159.931 48.5942C159.186 49.901 160.629 51.5248 160.282 52.9894C160.139 53.5883 159.715 54.0742 159.416 54.6136C158.039 57.1083 159.728 60.4012 162.227 61.7678C164.726 63.1368 170.111 64.1951 170.575 63.0335C171.203 61.4586 165.606 59.4362 162.623 58.8734C165.9 61.1126 173.88 64.6268 174.561 63.2675C175.76 60.8737 165.451 55.604 161.972 51.8703C161.024 52.5985 162.297 53.4319 163.165 54.2527C168.095 58.9098 174.722 63.3234 181.499 63.6368M181.499 63.6368C182.797 58.4558 175.799 62.4656 181.499 63.6368ZM181.499 63.6368C181.854 62.6925 182.769 61.5204 181.977 60.8986M181.977 60.8986C182.463 60.772 183.259 59.843 183.679 59.9378C184.379 60.0988 185.847 62.1348 185.862 62.3566C185.939 63.5352 184.75 63.9912 183.772 63.541C182.794 63.0908 182.278 62.1857 181.977 60.8986ZM181.977 60.8986C181.824 61.684 183.677 63.7472 184.476 63.7168C185.275 63.6863 186.383 63.8674 187.094 64.2354C187.936 64.6696 188.136 65.7569 188.268 66.6956C188.401 67.632 188.831 67.6451 189.76 67.8341C191.036 68.0935 190.697 66.578 189.61 66.8591C188.141 67.2396 187.363 67.4163 184.525 64.8805C183.08 63.591 182.906 62.6298 181.783 61.1081C180.133 58.8699 177.168 58.055 174.726 56.7279C170.821 54.6101 167.147 51.6576 165.377 47.5853L178.754 58.9056C179.589 59.6128 180.473 60.3439 181.544 60.5664C182.615 60.789 183.394 59.7867 183.391 58.6929C183.383 56.2026 181.144 56.6891 180.282 57.372C179.175 58.2494 180.418 58.9884 181.26 59.697C182.912 61.089 183.959 58.6317 183.114 57.1712C182.269 55.7108 179.083 52.3947 177.888 51.2026C174.631 47.956 172.402 43.846 170.083 39.8761C165.424 31.8969 163.469 30.2651 157.773 22.9892C156.857 21.8213 155.764 22.3921 156.251 23.7937C157.188 26.4847 164.103 36.1382 171.761 45.7812C168.592 43.3874 164.001 43.0513 160.518 44.957C161.353 42.3054 164.974 41.5186 167.536 42.5958C170.099 43.673 171.903 45.9659 173.822 47.9797C176.558 50.8531 184.677 55.8796 184.996 51.9229C185.06 51.1265 182.285 49.6548 179.392 47.18C177.395 45.4712 174.288 44.7391 173.111 44.9905C173.096 49.3626 178.329 52.6251 182.648 53.3129" stroke="#1F3758" stroke-miterlimit="10" stroke-linecap="round"/>
<path d="M15 28C15 20.8203 20.8203 15 28 15H175V146H28C20.8203 146 15 140.18 15 133V28Z" fill="url(#paint0_linear_152_1470)"/>
<path opacity="0.8" d="M15 28C15 20.8203 20.8203 15 28 15H175V146H28C20.8203 146 15 140.18 15 133V28Z" fill="url(#paint1_linear_152_1470)"/>
<path d="M32.16 45.192C31.0293 45.192 30.0587 44.952 29.248 44.472C28.4373 43.9813 27.8133 43.304 27.376 42.44C26.9387 41.5653 26.72 40.5573 26.72 39.416C26.72 38.2747 26.9387 37.2667 27.376 36.392C27.8133 35.5173 28.4373 34.8347 29.248 34.344C30.0587 33.8533 31.0293 33.608 32.16 33.608C33.504 33.608 34.6027 33.944 35.456 34.616C36.32 35.2773 36.8587 36.2107 37.072 37.416H34.816C34.6773 36.808 34.3787 36.3333 33.92 35.992C33.472 35.64 32.8747 35.464 32.128 35.464C31.0933 35.464 30.2827 35.816 29.696 36.52C29.1093 37.224 28.816 38.1893 28.816 39.416C28.816 40.6427 29.1093 41.608 29.696 42.312C30.2827 43.0053 31.0933 43.352 32.128 43.352C32.8747 43.352 33.472 43.192 33.92 42.872C34.3787 42.5413 34.6773 42.088 34.816 41.512H37.072C36.8587 42.664 36.32 43.5653 35.456 44.216C34.6027 44.8667 33.504 45.192 32.16 45.192ZM38.5169 45V37.064H40.3409L40.5329 38.552C40.8209 38.04 41.2102 37.6347 41.7009 37.336C42.2022 37.0267 42.7889 36.872 43.4609 36.872V39.032H42.8849C42.4369 39.032 42.0369 39.1013 41.6849 39.24C41.3329 39.3787 41.0555 39.6187 40.8529 39.96C40.6609 40.3013 40.5649 40.776 40.5649 41.384V45H38.5169ZM48.256 45.192C47.456 45.192 46.7467 45.0213 46.128 44.68C45.5093 44.3387 45.024 43.8587 44.672 43.24C44.32 42.6213 44.144 41.9067 44.144 41.096C44.144 40.2747 44.3147 39.544 44.656 38.904C45.008 38.264 45.488 37.768 46.096 37.416C46.7147 37.0533 47.44 36.872 48.272 36.872C49.0507 36.872 49.7387 37.0427 50.336 37.384C50.9333 37.7253 51.3973 38.1947 51.728 38.792C52.0693 39.3787 52.24 40.0347 52.24 40.76C52.24 40.8773 52.2347 41 52.224 41.128C52.224 41.256 52.2187 41.3893 52.208 41.528H46.176C46.2187 42.1467 46.432 42.632 46.816 42.984C47.2107 43.336 47.6853 43.512 48.24 43.512C48.656 43.512 49.0027 43.4213 49.28 43.24C49.568 43.048 49.7813 42.8027 49.92 42.504H52C51.8507 43.0053 51.6 43.464 51.248 43.88C50.9067 44.2853 50.48 44.6053 49.968 44.84C49.4667 45.0747 48.896 45.192 48.256 45.192ZM48.272 38.536C47.7707 38.536 47.328 38.68 46.944 38.968C46.56 39.2453 46.3147 39.672 46.208 40.248H50.16C50.128 39.7253 49.936 39.3093 49.584 39C49.232 38.6907 48.7947 38.536 48.272 38.536ZM56.3785 45.192C55.6958 45.192 55.1358 45.0853 54.6985 44.872C54.2612 44.648 53.9358 44.3547 53.7225 43.992C53.5092 43.6293 53.4025 43.2293 53.4025 42.792C53.4025 42.056 53.6905 41.4587 54.2665 41C54.8425 40.5413 55.7065 40.312 56.8585 40.312H58.8745V40.12C58.8745 39.576 58.7198 39.176 58.4105 38.92C58.1012 38.664 57.7172 38.536 57.2585 38.536C56.8425 38.536 56.4798 38.6373 56.1705 38.84C55.8612 39.032 55.6692 39.32 55.5945 39.704H53.5945C53.6478 39.128 53.8398 38.6267 54.1705 38.2C54.5118 37.7733 54.9492 37.448 55.4825 37.224C56.0158 36.9893 56.6132 36.872 57.2745 36.872C58.4052 36.872 59.2958 37.1547 59.9465 37.72C60.5972 38.2853 60.9225 39.0853 60.9225 40.12V45H59.1785L58.9865 43.72C58.7518 44.1467 58.4212 44.4987 57.9945 44.776C57.5785 45.0533 57.0398 45.192 56.3785 45.192ZM56.8425 43.592C57.4292 43.592 57.8825 43.4 58.2025 43.016C58.5332 42.632 58.7412 42.1573 58.8265 41.592H57.0825C56.5385 41.592 56.1492 41.6933 55.9145 41.896C55.6798 42.088 55.5625 42.328 55.5625 42.616C55.5625 42.9253 55.6798 43.1653 55.9145 43.336C56.1492 43.5067 56.4585 43.592 56.8425 43.592ZM65.9835 45C65.1515 45 64.4848 44.7973 63.9835 44.392C63.4822 43.9867 63.2315 43.2667 63.2315 42.232V38.776H61.8715V37.064H63.2315L63.4715 34.936H65.2795V37.064H67.4235V38.776H65.2795V42.248C65.2795 42.632 65.3595 42.8987 65.5195 43.048C65.6902 43.1867 65.9782 43.256 66.3835 43.256H67.3755V45H65.9835ZM72.5148 45.192C71.7148 45.192 71.0054 45.0213 70.3868 44.68C69.7681 44.3387 69.2828 43.8587 68.9308 43.24C68.5788 42.6213 68.4028 41.9067 68.4028 41.096C68.4028 40.2747 68.5734 39.544 68.9148 38.904C69.2668 38.264 69.7468 37.768 70.3548 37.416C70.9734 37.0533 71.6988 36.872 72.5308 36.872C73.3094 36.872 73.9974 37.0427 74.5948 37.384C75.1921 37.7253 75.6561 38.1947 75.9868 38.792C76.3281 39.3787 76.4988 40.0347 76.4988 40.76C76.4988 40.8773 76.4934 41 76.4828 41.128C76.4828 41.256 76.4774 41.3893 76.4668 41.528H70.4348C70.4774 42.1467 70.6908 42.632 71.0748 42.984C71.4694 43.336 71.9441 43.512 72.4988 43.512C72.9148 43.512 73.2614 43.4213 73.5388 43.24C73.8268 43.048 74.0401 42.8027 74.1788 42.504H76.2588C76.1094 43.0053 75.8588 43.464 75.5068 43.88C75.1654 44.2853 74.7388 44.6053 74.2268 44.84C73.7254 45.0747 73.1548 45.192 72.5148 45.192ZM72.5308 38.536C72.0294 38.536 71.5868 38.68 71.2028 38.968C70.8188 39.2453 70.5734 39.672 70.4668 40.248H74.4188C74.3868 39.7253 74.1948 39.3093 73.8428 39C73.4908 38.6907 73.0534 38.536 72.5308 38.536ZM84.1297 45.192C83.4471 45.192 82.8871 45.0853 82.4497 44.872C82.0124 44.648 81.6871 44.3547 81.4737 43.992C81.2604 43.6293 81.1537 43.2293 81.1537 42.792C81.1537 42.056 81.4417 41.4587 82.0177 41C82.5937 40.5413 83.4577 40.312 84.6097 40.312H86.6257V40.12C86.6257 39.576 86.4711 39.176 86.1617 38.92C85.8524 38.664 85.4684 38.536 85.0097 38.536C84.5937 38.536 84.2311 38.6373 83.9217 38.84C83.6124 39.032 83.4204 39.32 83.3457 39.704H81.3457C81.3991 39.128 81.5911 38.6267 81.9217 38.2C82.2631 37.7733 82.7004 37.448 83.2337 37.224C83.7671 36.9893 84.3644 36.872 85.0257 36.872C86.1564 36.872 87.0471 37.1547 87.6977 37.72C88.3484 38.2853 88.6737 39.0853 88.6737 40.12V45H86.9297L86.7377 43.72C86.5031 44.1467 86.1724 44.4987 85.7457 44.776C85.3297 45.0533 84.7911 45.192 84.1297 45.192ZM84.5937 43.592C85.1804 43.592 85.6337 43.4 85.9537 43.016C86.2844 42.632 86.4924 42.1573 86.5777 41.592H84.8337C84.2897 41.592 83.9004 41.6933 83.6657 41.896C83.4311 42.088 83.3137 42.328 83.3137 42.616C83.3137 42.9253 83.4311 43.1653 83.6657 43.336C83.9004 43.5067 84.2097 43.592 84.5937 43.592ZM30.576 66C29.744 66 29.0773 65.7973 28.576 65.392C28.0747 64.9867 27.824 64.2667 27.824 63.232V59.776H26.464V58.064H27.824L28.064 55.936H29.872V58.064H32.016V59.776H29.872V63.248C29.872 63.632 29.952 63.8987 30.112 64.048C30.2827 64.1867 30.5707 64.256 30.976 64.256H31.968V66H30.576ZM37.1073 66.192C36.3073 66.192 35.5979 66.0213 34.9792 65.68C34.3606 65.3387 33.8752 64.8587 33.5232 64.24C33.1712 63.6213 32.9952 62.9067 32.9952 62.096C32.9952 61.2747 33.1659 60.544 33.5072 59.904C33.8592 59.264 34.3392 58.768 34.9472 58.416C35.5659 58.0533 36.2913 57.872 37.1233 57.872C37.9019 57.872 38.5899 58.0427 39.1873 58.384C39.7846 58.7253 40.2486 59.1947 40.5792 59.792C40.9206 60.3787 41.0912 61.0347 41.0912 61.76C41.0912 61.8773 41.0859 62 41.0753 62.128C41.0753 62.256 41.0699 62.3893 41.0593 62.528H35.0273C35.0699 63.1467 35.2832 63.632 35.6672 63.984C36.0619 64.336 36.5366 64.512 37.0912 64.512C37.5072 64.512 37.8539 64.4213 38.1312 64.24C38.4193 64.048 38.6326 63.8027 38.7713 63.504H40.8513C40.7019 64.0053 40.4513 64.464 40.0993 64.88C39.7579 65.2853 39.3313 65.6053 38.8193 65.84C38.3179 66.0747 37.7473 66.192 37.1073 66.192ZM37.1233 59.536C36.6219 59.536 36.1793 59.68 35.7952 59.968C35.4112 60.2453 35.1659 60.672 35.0592 61.248H39.0113C38.9793 60.7253 38.7873 60.3093 38.4353 60C38.0833 59.6907 37.6459 59.536 37.1233 59.536ZM42.4937 66V58.064H44.3017L44.4777 59.136C44.7337 58.752 45.0697 58.448 45.4857 58.224C45.9124 57.9893 46.4031 57.872 46.9577 57.872C48.1844 57.872 49.0538 58.3467 49.5658 59.296C49.8538 58.8587 50.2378 58.512 50.7178 58.256C51.2084 58 51.7417 57.872 52.3177 57.872C53.3524 57.872 54.1471 58.1813 54.7018 58.8C55.2564 59.4187 55.5338 60.3253 55.5338 61.52V66H53.4858V61.712C53.4858 61.0293 53.3524 60.5067 53.0858 60.144C52.8298 59.7813 52.4297 59.6 51.8857 59.6C51.3311 59.6 50.8831 59.8027 50.5417 60.208C50.2111 60.6133 50.0457 61.1787 50.0457 61.904V66H47.9977V61.712C47.9977 61.0293 47.8644 60.5067 47.5977 60.144C47.3311 59.7813 46.9204 59.6 46.3657 59.6C45.8217 59.6 45.3791 59.8027 45.0377 60.208C44.7071 60.6133 44.5417 61.1787 44.5417 61.904V66H42.4937ZM57.1581 69.52V58.064H58.9821L59.2061 59.2C59.4621 58.848 59.7981 58.5387 60.2141 58.272C60.6408 58.0053 61.1901 57.872 61.8621 57.872C62.6088 57.872 63.2755 58.0533 63.8621 58.416C64.4488 58.7787 64.9128 59.2747 65.2541 59.904C65.5955 60.5333 65.7661 61.248 65.7661 62.048C65.7661 62.848 65.5955 63.5627 65.2541 64.192C64.9128 64.8107 64.4488 65.3013 63.8621 65.664C63.2755 66.016 62.6088 66.192 61.8621 66.192C61.2648 66.192 60.7421 66.08 60.2941 65.856C59.8461 65.632 59.4835 65.3173 59.2061 64.912V69.52H57.1581ZM61.4301 64.4C62.0808 64.4 62.6195 64.1813 63.0461 63.744C63.4728 63.3067 63.6861 62.7413 63.6861 62.048C63.6861 61.3547 63.4728 60.784 63.0461 60.336C62.6195 59.888 62.0808 59.664 61.4301 59.664C60.7688 59.664 60.2248 59.888 59.7981 60.336C59.3821 60.7733 59.1741 61.3387 59.1741 62.032C59.1741 62.7253 59.3821 63.296 59.7981 63.744C60.2248 64.1813 60.7688 64.4 61.4301 64.4ZM67.2756 66V54.48H69.3236V66H67.2756ZM73.8323 66.192C73.1496 66.192 72.5896 66.0853 72.1523 65.872C71.7149 65.648 71.3896 65.3547 71.1763 64.992C70.9629 64.6293 70.8563 64.2293 70.8563 63.792C70.8563 63.056 71.1443 62.4587 71.7203 62C72.2963 61.5413 73.1603 61.312 74.3123 61.312H76.3283V61.12C76.3283 60.576 76.1736 60.176 75.8643 59.92C75.5549 59.664 75.1709 59.536 74.7123 59.536C74.2963 59.536 73.9336 59.6373 73.6243 59.84C73.3149 60.032 73.1229 60.32 73.0483 60.704H71.0483C71.1016 60.128 71.2936 59.6267 71.6243 59.2C71.9656 58.7733 72.4029 58.448 72.9363 58.224C73.4696 57.9893 74.0669 57.872 74.7283 57.872C75.8589 57.872 76.7496 58.1547 77.4003 58.72C78.0509 59.2853 78.3763 60.0853 78.3763 61.12V66H76.6323L76.4403 64.72C76.2056 65.1467 75.8749 65.4987 75.4483 65.776C75.0323 66.0533 74.4936 66.192 73.8323 66.192ZM74.2963 64.592C74.8829 64.592 75.3363 64.4 75.6563 64.016C75.9869 63.632 76.1949 63.1573 76.2803 62.592H74.5363C73.9923 62.592 73.6029 62.6933 73.3683 62.896C73.1336 63.088 73.0163 63.328 73.0163 63.616C73.0163 63.9253 73.1336 64.1653 73.3683 64.336C73.6029 64.5067 73.9123 64.592 74.2963 64.592ZM83.4373 66C82.6053 66 81.9386 65.7973 81.4373 65.392C80.9359 64.9867 80.6853 64.2667 80.6853 63.232V59.776H79.3253V58.064H80.6853L80.9253 55.936H82.7333V58.064H84.8773V59.776H82.7333V63.248C82.7333 63.632 82.8133 63.8987 82.9733 64.048C83.1439 64.1867 83.4319 64.256 83.8373 64.256H84.8293V66H83.4373ZM89.9685 66.192C89.1685 66.192 88.4592 66.0213 87.8405 65.68C87.2218 65.3387 86.7365 64.8587 86.3845 64.24C86.0325 63.6213 85.8565 62.9067 85.8565 62.096C85.8565 61.2747 86.0272 60.544 86.3685 59.904C86.7205 59.264 87.2005 58.768 87.8085 58.416C88.4272 58.0533 89.1525 57.872 89.9845 57.872C90.7632 57.872 91.4512 58.0427 92.0485 58.384C92.6458 58.7253 93.1098 59.1947 93.4405 59.792C93.7818 60.3787 93.9525 61.0347 93.9525 61.76C93.9525 61.8773 93.9472 62 93.9365 62.128C93.9365 62.256 93.9312 62.3893 93.9205 62.528H87.8885C87.9312 63.1467 88.1445 63.632 88.5285 63.984C88.9232 64.336 89.3978 64.512 89.9525 64.512C90.3685 64.512 90.7152 64.4213 90.9925 64.24C91.2805 64.048 91.4938 63.8027 91.6325 63.504H93.7125C93.5632 64.0053 93.3125 64.464 92.9605 64.88C92.6192 65.2853 92.1925 65.6053 91.6805 65.84C91.1792 66.0747 90.6085 66.192 89.9685 66.192ZM89.9845 59.536C89.4832 59.536 89.0405 59.68 88.6565 59.968C88.2725 60.2453 88.0272 60.672 87.9205 61.248H91.8725C91.8405 60.7253 91.6485 60.3093 91.2965 60C90.9445 59.6907 90.5072 59.536 89.9845 59.536Z" fill="black"/>
<path d="M30.572 104.144C29.748 104.144 29.036 103.964 28.436 103.604C27.844 103.236 27.384 102.728 27.056 102.08C26.728 101.424 26.564 100.664 26.564 99.8C26.564 98.944 26.728 98.192 27.056 97.544C27.384 96.888 27.844 96.376 28.436 96.008C29.036 95.64 29.748 95.456 30.572 95.456C31.532 95.456 32.312 95.688 32.912 96.152C33.52 96.608 33.908 97.248 34.076 98.072H32.96C32.832 97.552 32.568 97.136 32.168 96.824C31.776 96.504 31.244 96.344 30.572 96.344C29.972 96.344 29.448 96.484 29 96.764C28.552 97.036 28.204 97.432 27.956 97.952C27.716 98.464 27.596 99.08 27.596 99.8C27.596 100.52 27.716 101.14 27.956 101.66C28.204 102.172 28.552 102.568 29 102.848C29.448 103.12 29.972 103.256 30.572 103.256C31.244 103.256 31.776 103.104 32.168 102.8C32.568 102.488 32.832 102.076 32.96 101.564H34.076C33.908 102.372 33.52 103.004 32.912 103.46C32.312 103.916 31.532 104.144 30.572 104.144ZM35.4647 104V98.048H36.3767L36.4607 99.188C36.6447 98.796 36.9247 98.484 37.3007 98.252C37.6767 98.02 38.1407 97.904 38.6927 97.904V98.96H38.4167C38.0647 98.96 37.7407 99.024 37.4447 99.152C37.1487 99.272 36.9127 99.48 36.7367 99.776C36.5607 100.072 36.4727 100.48 36.4727 101V104H35.4647ZM42.2774 104.144C41.7094 104.144 41.2054 104.016 40.7654 103.76C40.3254 103.496 39.9774 103.132 39.7214 102.668C39.4734 102.204 39.3494 101.656 39.3494 101.024C39.3494 100.4 39.4734 99.856 39.7214 99.392C39.9694 98.92 40.3134 98.556 40.7534 98.3C41.2014 98.036 41.7174 97.904 42.3014 97.904C42.8774 97.904 43.3734 98.036 43.7894 98.3C44.2134 98.556 44.5374 98.896 44.7614 99.32C44.9854 99.744 45.0974 100.2 45.0974 100.688C45.0974 100.776 45.0934 100.864 45.0854 100.952C45.0854 101.04 45.0854 101.14 45.0854 101.252H40.3454C40.3694 101.708 40.4734 102.088 40.6574 102.392C40.8494 102.688 41.0854 102.912 41.3654 103.064C41.6534 103.216 41.9574 103.292 42.2774 103.292C42.6934 103.292 43.0414 103.196 43.3214 103.004C43.6014 102.812 43.8054 102.552 43.9334 102.224H44.9294C44.7694 102.776 44.4614 103.236 44.0054 103.604C43.5574 103.964 42.9814 104.144 42.2774 104.144ZM42.2774 98.756C41.7974 98.756 41.3694 98.904 40.9934 99.2C40.6254 99.488 40.4134 99.912 40.3574 100.472H44.1014C44.0774 99.936 43.8934 99.516 43.5494 99.212C43.2054 98.908 42.7814 98.756 42.2774 98.756ZM48.4135 104.144C47.9175 104.144 47.5055 104.06 47.1775 103.892C46.8495 103.724 46.6055 103.5 46.4455 103.22C46.2855 102.94 46.2055 102.636 46.2055 102.308C46.2055 101.7 46.4375 101.232 46.9015 100.904C47.3655 100.576 47.9975 100.412 48.7975 100.412H50.4055V100.34C50.4055 99.82 50.2695 99.428 49.9975 99.164C49.7255 98.892 49.3615 98.756 48.9055 98.756C48.5135 98.756 48.1735 98.856 47.8855 99.056C47.6055 99.248 47.4295 99.532 47.3575 99.908H46.3255C46.3655 99.476 46.5095 99.112 46.7575 98.816C47.0135 98.52 47.3295 98.296 47.7055 98.144C48.0815 97.984 48.4815 97.904 48.9055 97.904C49.7375 97.904 50.3615 98.128 50.7775 98.576C51.2015 99.016 51.4135 99.604 51.4135 100.34V104H50.5135L50.4535 102.932C50.2855 103.268 50.0375 103.556 49.7095 103.796C49.3895 104.028 48.9575 104.144 48.4135 104.144ZM48.5695 103.292C48.9535 103.292 49.2815 103.192 49.5535 102.992C49.8335 102.792 50.0455 102.532 50.1895 102.212C50.3335 101.892 50.4055 101.556 50.4055 101.204V101.192H48.8815C48.2895 101.192 47.8695 101.296 47.6215 101.504C47.3815 101.704 47.2615 101.956 47.2615 102.26C47.2615 102.572 47.3735 102.824 47.5975 103.016C47.8295 103.2 48.1535 103.292 48.5695 103.292ZM55.1136 104C54.5696 104 54.1416 103.868 53.8296 103.604C53.5176 103.34 53.3616 102.864 53.3616 102.176V98.9H52.3296V98.048H53.3616L53.4936 96.62H54.3696V98.048H56.1216V98.9H54.3696V102.176C54.3696 102.552 54.4456 102.808 54.5976 102.944C54.7496 103.072 55.0176 103.136 55.4016 103.136H56.0256V104H55.1136ZM59.9142 104.144C59.3462 104.144 58.8422 104.016 58.4022 103.76C57.9622 103.496 57.6142 103.132 57.3582 102.668C57.1102 102.204 56.9862 101.656 56.9862 101.024C56.9862 100.4 57.1102 99.856 57.3582 99.392C57.6062 98.92 57.9502 98.556 58.3902 98.3C58.8382 98.036 59.3542 97.904 59.9382 97.904C60.5142 97.904 61.0102 98.036 61.4262 98.3C61.8502 98.556 62.1742 98.896 62.3982 99.32C62.6222 99.744 62.7342 100.2 62.7342 100.688C62.7342 100.776 62.7302 100.864 62.7222 100.952C62.7222 101.04 62.7222 101.14 62.7222 101.252H57.9822C58.0062 101.708 58.1102 102.088 58.2942 102.392C58.4862 102.688 58.7222 102.912 59.0022 103.064C59.2902 103.216 59.5942 103.292 59.9142 103.292C60.3302 103.292 60.6782 103.196 60.9582 103.004C61.2382 102.812 61.4422 102.552 61.5702 102.224H62.5662C62.4062 102.776 62.0982 103.236 61.6422 103.604C61.1942 103.964 60.6182 104.144 59.9142 104.144ZM59.9142 98.756C59.4342 98.756 59.0062 98.904 58.6302 99.2C58.2622 99.488 58.0502 99.912 57.9942 100.472H61.7382C61.7142 99.936 61.5302 99.516 61.1862 99.212C60.8422 98.908 60.4182 98.756 59.9142 98.756ZM69.226 104.144C68.73 104.144 68.318 104.06 67.99 103.892C67.662 103.724 67.418 103.5 67.258 103.22C67.098 102.94 67.018 102.636 67.018 102.308C67.018 101.7 67.25 101.232 67.714 100.904C68.178 100.576 68.81 100.412 69.61 100.412H71.218V100.34C71.218 99.82 71.082 99.428 70.81 99.164C70.538 98.892 70.174 98.756 69.718 98.756C69.326 98.756 68.986 98.856 68.698 99.056C68.418 99.248 68.242 99.532 68.17 99.908H67.138C67.178 99.476 67.322 99.112 67.57 98.816C67.826 98.52 68.142 98.296 68.518 98.144C68.894 97.984 69.294 97.904 69.718 97.904C70.55 97.904 71.174 98.128 71.59 98.576C72.014 99.016 72.226 99.604 72.226 100.34V104H71.326L71.266 102.932C71.098 103.268 70.85 103.556 70.522 103.796C70.202 104.028 69.77 104.144 69.226 104.144ZM69.382 103.292C69.766 103.292 70.094 103.192 70.366 102.992C70.646 102.792 70.858 102.532 71.002 102.212C71.146 101.892 71.218 101.556 71.218 101.204V101.192H69.694C69.102 101.192 68.682 101.296 68.434 101.504C68.194 101.704 68.074 101.956 68.074 102.26C68.074 102.572 68.186 102.824 68.41 103.016C68.642 103.2 68.966 103.292 69.382 103.292ZM79.6499 104.144C79.0819 104.144 78.5699 104.016 78.1139 103.76C77.6659 103.496 77.3099 103.132 77.0459 102.668C76.7899 102.196 76.6619 101.648 76.6619 101.024C76.6619 100.4 76.7899 99.856 77.0459 99.392C77.3099 98.92 77.6659 98.556 78.1139 98.3C78.5699 98.036 79.0819 97.904 79.6499 97.904C80.3539 97.904 80.9459 98.088 81.4259 98.456C81.9139 98.824 82.2219 99.316 82.3499 99.932H81.3179C81.2379 99.564 81.0419 99.28 80.7299 99.08C80.4179 98.872 80.0539 98.768 79.6379 98.768C79.3019 98.768 78.9859 98.852 78.6899 99.02C78.3939 99.188 78.1539 99.44 77.9699 99.776C77.7859 100.112 77.6939 100.528 77.6939 101.024C77.6939 101.52 77.7859 101.936 77.9699 102.272C78.1539 102.608 78.3939 102.864 78.6899 103.04C78.9859 103.208 79.3019 103.292 79.6379 103.292C80.0539 103.292 80.4179 103.192 80.7299 102.992C81.0419 102.784 81.2379 102.492 81.3179 102.116H82.3499C82.2299 102.716 81.9259 103.204 81.4379 103.58C80.9499 103.956 80.3539 104.144 79.6499 104.144ZM85.9297 104.144C85.2257 104.144 84.6657 103.932 84.2497 103.508C83.8337 103.076 83.6257 102.416 83.6257 101.528V98.048H84.6337V101.42C84.6337 102.66 85.1417 103.28 86.1577 103.28C86.6777 103.28 87.1057 103.096 87.4417 102.728C87.7857 102.352 87.9577 101.82 87.9577 101.132V98.048H88.9657V104H88.0537L87.9817 102.932C87.7977 103.308 87.5217 103.604 87.1537 103.82C86.7937 104.036 86.3857 104.144 85.9297 104.144ZM92.9049 104.144C92.1929 104.144 91.6009 103.964 91.1289 103.604C90.6569 103.244 90.3809 102.756 90.3009 102.14H91.3329C91.3969 102.452 91.5609 102.724 91.8249 102.956C92.0969 103.18 92.4609 103.292 92.9169 103.292C93.3409 103.292 93.6529 103.204 93.8529 103.028C94.0529 102.844 94.1529 102.628 94.1529 102.38C94.1529 102.02 94.0209 101.78 93.7569 101.66C93.5009 101.54 93.1369 101.432 92.6649 101.336C92.3449 101.272 92.0249 101.18 91.7049 101.06C91.3849 100.94 91.1169 100.772 90.9009 100.556C90.6849 100.332 90.5769 100.04 90.5769 99.68C90.5769 99.16 90.7689 98.736 91.1529 98.408C91.5449 98.072 92.0729 97.904 92.7369 97.904C93.3689 97.904 93.8849 98.064 94.2849 98.384C94.6929 98.696 94.9289 99.144 94.9929 99.728H93.9969C93.9569 99.424 93.8249 99.188 93.6009 99.02C93.3849 98.844 93.0929 98.756 92.7249 98.756C92.3649 98.756 92.0849 98.832 91.8849 98.984C91.6929 99.136 91.5969 99.336 91.5969 99.584C91.5969 99.824 91.7209 100.012 91.9689 100.148C92.2249 100.284 92.5689 100.4 93.0009 100.496C93.3689 100.576 93.7169 100.676 94.0449 100.796C94.3809 100.908 94.6529 101.08 94.8609 101.312C95.0769 101.536 95.1849 101.864 95.1849 102.296C95.1929 102.832 94.9889 103.276 94.5729 103.628C94.1649 103.972 93.6089 104.144 92.9049 104.144ZM98.7073 104C98.1633 104 97.7353 103.868 97.4233 103.604C97.1113 103.34 96.9553 102.864 96.9553 102.176V98.9H95.9233V98.048H96.9553L97.0873 96.62H97.9633V98.048H99.7153V98.9H97.9633V102.176C97.9633 102.552 98.0393 102.808 98.1913 102.944C98.3433 103.072 98.6113 103.136 98.9953 103.136H99.6193V104H98.7073ZM103.544 104.144C102.984 104.144 102.48 104.016 102.032 103.76C101.584 103.504 101.228 103.144 100.964 102.68C100.708 102.208 100.58 101.656 100.58 101.024C100.58 100.392 100.712 99.844 100.976 99.38C101.24 98.908 101.596 98.544 102.044 98.288C102.5 98.032 103.008 97.904 103.568 97.904C104.128 97.904 104.632 98.032 105.08 98.288C105.528 98.544 105.88 98.908 106.136 99.38C106.4 99.844 106.532 100.392 106.532 101.024C106.532 101.656 106.4 102.208 106.136 102.68C105.872 103.144 105.512 103.504 105.056 103.76C104.608 104.016 104.104 104.144 103.544 104.144ZM103.544 103.28C103.888 103.28 104.208 103.196 104.504 103.028C104.8 102.86 105.04 102.608 105.224 102.272C105.408 101.936 105.5 101.52 105.5 101.024C105.5 100.528 105.408 100.112 105.224 99.776C105.048 99.44 104.812 99.188 104.516 99.02C104.22 98.852 103.904 98.768 103.568 98.768C103.224 98.768 102.904 98.852 102.608 99.02C102.312 99.188 102.072 99.44 101.888 99.776C101.704 100.112 101.612 100.528 101.612 101.024C101.612 101.52 101.704 101.936 101.888 102.272C102.072 102.608 102.308 102.86 102.596 103.028C102.892 103.196 103.208 103.28 103.544 103.28ZM107.933 104V98.048H108.845L108.917 98.912C109.109 98.592 109.365 98.344 109.685 98.168C110.005 97.992 110.365 97.904 110.765 97.904C111.237 97.904 111.641 98 111.977 98.192C112.321 98.384 112.585 98.676 112.769 99.068C112.977 98.708 113.261 98.424 113.621 98.216C113.989 98.008 114.385 97.904 114.809 97.904C115.521 97.904 116.089 98.12 116.513 98.552C116.937 98.976 117.149 99.632 117.149 100.52V104H116.153V100.628C116.153 100.012 116.029 99.548 115.781 99.236C115.533 98.924 115.177 98.768 114.713 98.768C114.233 98.768 113.833 98.956 113.513 99.332C113.201 99.7 113.045 100.228 113.045 100.916V104H112.037V100.628C112.037 100.012 111.913 99.548 111.665 99.236C111.417 98.924 111.061 98.768 110.597 98.768C110.125 98.768 109.729 98.956 109.409 99.332C109.097 99.7 108.941 100.228 108.941 100.916V104H107.933ZM124.196 104C123.652 104 123.224 103.868 122.912 103.604C122.6 103.34 122.444 102.864 122.444 102.176V98.9H121.412V98.048H122.444L122.576 96.62H123.452V98.048H125.204V98.9H123.452V102.176C123.452 102.552 123.528 102.808 123.68 102.944C123.832 103.072 124.1 103.136 124.484 103.136H125.108V104H124.196ZM128.996 104.144C128.428 104.144 127.924 104.016 127.484 103.76C127.044 103.496 126.696 103.132 126.44 102.668C126.192 102.204 126.068 101.656 126.068 101.024C126.068 100.4 126.192 99.856 126.44 99.392C126.688 98.92 127.032 98.556 127.472 98.3C127.92 98.036 128.436 97.904 129.02 97.904C129.596 97.904 130.092 98.036 130.508 98.3C130.932 98.556 131.256 98.896 131.48 99.32C131.704 99.744 131.816 100.2 131.816 100.688C131.816 100.776 131.812 100.864 131.804 100.952C131.804 101.04 131.804 101.14 131.804 101.252H127.064C127.088 101.708 127.192 102.088 127.376 102.392C127.568 102.688 127.804 102.912 128.084 103.064C128.372 103.216 128.676 103.292 128.996 103.292C129.412 103.292 129.76 103.196 130.04 103.004C130.32 102.812 130.524 102.552 130.652 102.224H131.648C131.488 102.776 131.18 103.236 130.724 103.604C130.276 103.964 129.7 104.144 128.996 104.144ZM128.996 98.756C128.516 98.756 128.088 98.904 127.712 99.2C127.344 99.488 127.132 99.912 127.076 100.472H130.82C130.796 99.936 130.612 99.516 130.268 99.212C129.924 98.908 129.5 98.756 128.996 98.756ZM133.152 104V98.048H134.064L134.136 98.912C134.328 98.592 134.584 98.344 134.904 98.168C135.224 97.992 135.584 97.904 135.984 97.904C136.456 97.904 136.86 98 137.196 98.192C137.54 98.384 137.804 98.676 137.988 99.068C138.196 98.708 138.48 98.424 138.84 98.216C139.208 98.008 139.604 97.904 140.028 97.904C140.74 97.904 141.308 98.12 141.732 98.552C142.156 98.976 142.368 99.632 142.368 100.52V104H141.372V100.628C141.372 100.012 141.248 99.548 141 99.236C140.752 98.924 140.396 98.768 139.932 98.768C139.452 98.768 139.052 98.956 138.732 99.332C138.42 99.7 138.264 100.228 138.264 100.916V104H137.256V100.628C137.256 100.012 137.132 99.548 136.884 99.236C136.636 98.924 136.28 98.768 135.816 98.768C135.344 98.768 134.948 98.956 134.628 99.332C134.316 99.7 134.16 100.228 134.16 100.916V104H133.152ZM143.887 106.64V98.048H144.799L144.895 99.032C145.087 98.744 145.359 98.484 145.711 98.252C146.071 98.02 146.527 97.904 147.079 97.904C147.671 97.904 148.187 98.04 148.627 98.312C149.067 98.584 149.407 98.956 149.647 99.428C149.895 99.9 150.019 100.436 150.019 101.036C150.019 101.636 149.895 102.172 149.647 102.644C149.407 103.108 149.063 103.476 148.615 103.748C148.175 104.012 147.659 104.144 147.067 104.144C146.579 104.144 146.143 104.044 145.759 103.844C145.383 103.644 145.095 103.364 144.895 103.004V106.64H143.887ZM146.959 103.268C147.359 103.268 147.711 103.176 148.015 102.992C148.319 102.8 148.559 102.536 148.735 102.2C148.911 101.864 148.999 101.472 148.999 101.024C148.999 100.576 148.911 100.184 148.735 99.848C148.559 99.512 148.319 99.252 148.015 99.068C147.711 98.876 147.359 98.78 146.959 98.78C146.559 98.78 146.207 98.876 145.903 99.068C145.599 99.252 145.359 99.512 145.183 99.848C145.007 100.184 144.919 100.576 144.919 101.024C144.919 101.472 145.007 101.864 145.183 102.2C145.359 102.536 145.599 102.8 145.903 102.992C146.207 103.176 146.559 103.268 146.959 103.268ZM151.422 104V95.36H152.43V104H151.422ZM156.062 104.144C155.566 104.144 155.154 104.06 154.826 103.892C154.498 103.724 154.254 103.5 154.094 103.22C153.934 102.94 153.854 102.636 153.854 102.308C153.854 101.7 154.086 101.232 154.55 100.904C155.014 100.576 155.646 100.412 156.446 100.412H158.054V100.34C158.054 99.82 157.918 99.428 157.646 99.164C157.374 98.892 157.01 98.756 156.554 98.756C156.162 98.756 155.822 98.856 155.534 99.056C155.254 99.248 155.078 99.532 155.006 99.908H153.974C154.014 99.476 154.158 99.112 154.406 98.816C154.662 98.52 154.978 98.296 155.354 98.144C155.73 97.984 156.13 97.904 156.554 97.904C157.386 97.904 158.01 98.128 158.426 98.576C158.85 99.016 159.062 99.604 159.062 100.34V104H158.162L158.102 102.932C157.934 103.268 157.686 103.556 157.358 103.796C157.038 104.028 156.606 104.144 156.062 104.144ZM156.218 103.292C156.602 103.292 156.93 103.192 157.202 102.992C157.482 102.792 157.694 102.532 157.838 102.212C157.982 101.892 158.054 101.556 158.054 101.204V101.192H156.53C155.938 101.192 155.518 101.296 155.27 101.504C155.03 101.704 154.91 101.956 154.91 102.26C154.91 102.572 155.022 102.824 155.246 103.016C155.478 103.2 155.802 103.292 156.218 103.292ZM162.762 104C162.218 104 161.79 103.868 161.478 103.604C161.166 103.34 161.01 102.864 161.01 102.176V98.9H159.978V98.048H161.01L161.142 96.62H162.018V98.048H163.77V98.9H162.018V102.176C162.018 102.552 162.094 102.808 162.246 102.944C162.398 103.072 162.666 103.136 163.05 103.136H163.674V104H162.762ZM167.563 104.144C166.995 104.144 166.491 104.016 166.051 103.76C165.611 103.496 165.263 103.132 165.007 102.668C164.759 102.204 164.635 101.656 164.635 101.024C164.635 100.4 164.759 99.856 165.007 99.392C165.255 98.92 165.599 98.556 166.039 98.3C166.487 98.036 167.003 97.904 167.587 97.904C168.163 97.904 168.659 98.036 169.075 98.3C169.499 98.556 169.823 98.896 170.047 99.32C170.271 99.744 170.383 100.2 170.383 100.688C170.383 100.776 170.379 100.864 170.371 100.952C170.371 101.04 170.371 101.14 170.371 101.252H165.631C165.655 101.708 165.759 102.088 165.943 102.392C166.135 102.688 166.371 102.912 166.651 103.064C166.939 103.216 167.243 103.292 167.563 103.292C167.979 103.292 168.327 103.196 168.607 103.004C168.887 102.812 169.091 102.552 169.219 102.224H170.215C170.055 102.776 169.747 103.236 169.291 103.604C168.843 103.964 168.267 104.144 167.563 104.144ZM167.563 98.756C167.083 98.756 166.655 98.904 166.279 99.2C165.911 99.488 165.699 99.912 165.643 100.472H169.387C169.363 99.936 169.179 99.516 168.835 99.212C168.491 98.908 168.067 98.756 167.563 98.756ZM175.218 104V98.9H174.318V98.048H175.218V97.016C175.218 96.44 175.362 96.02 175.65 95.756C175.938 95.492 176.358 95.36 176.91 95.36H177.51V96.224H177.066C176.762 96.224 176.546 96.288 176.418 96.416C176.29 96.536 176.226 96.744 176.226 97.04V98.048H177.69V98.9H176.226V104H175.218ZM181.368 104.144C180.808 104.144 180.304 104.016 179.856 103.76C179.408 103.504 179.052 103.144 178.788 102.68C178.532 102.208 178.404 101.656 178.404 101.024C178.404 100.392 178.536 99.844 178.8 99.38C179.064 98.908 179.42 98.544 179.868 98.288C180.324 98.032 180.832 97.904 181.392 97.904C181.952 97.904 182.456 98.032 182.904 98.288C183.352 98.544 183.704 98.908 183.96 99.38C184.224 99.844 184.356 100.392 184.356 101.024C184.356 101.656 184.224 102.208 183.96 102.68C183.696 103.144 183.336 103.504 182.88 103.76C182.432 104.016 181.928 104.144 181.368 104.144ZM181.368 103.28C181.712 103.28 182.032 103.196 182.328 103.028C182.624 102.86 182.864 102.608 183.048 102.272C183.232 101.936 183.324 101.52 183.324 101.024C183.324 100.528 183.232 100.112 183.048 99.776C182.872 99.44 182.636 99.188 182.34 99.02C182.044 98.852 181.728 98.768 181.392 98.768C181.048 98.768 180.728 98.852 180.432 99.02C180.136 99.188 179.896 99.44 179.712 99.776C179.528 100.112 179.436 100.528 179.436 101.024C179.436 101.52 179.528 101.936 179.712 102.272C179.896 102.608 180.132 102.86 180.42 103.028C180.716 103.196 181.032 103.28 181.368 103.28ZM185.758 104V98.048H186.67L186.754 99.188C186.938 98.796 187.218 98.484 187.594 98.252C187.97 98.02 188.434 97.904 188.986 97.904V98.96H188.71C188.358 98.96 188.034 99.024 187.738 99.152C187.442 99.272 187.206 99.48 187.03 99.776C186.854 100.072 186.766 100.48 186.766 101V104H185.758ZM28.808 122.144C28.312 122.144 27.9 122.06 27.572 121.892C27.244 121.724 27 121.5 26.84 121.22C26.68 120.94 26.6 120.636 26.6 120.308C26.6 119.7 26.832 119.232 27.296 118.904C27.76 118.576 28.392 118.412 29.192 118.412H30.8V118.34C30.8 117.82 30.664 117.428 30.392 117.164C30.12 116.892 29.756 116.756 29.3 116.756C28.908 116.756 28.568 116.856 28.28 117.056C28 117.248 27.824 117.532 27.752 117.908H26.72C26.76 117.476 26.904 117.112 27.152 116.816C27.408 116.52 27.724 116.296 28.1 116.144C28.476 115.984 28.876 115.904 29.3 115.904C30.132 115.904 30.756 116.128 31.172 116.576C31.596 117.016 31.808 117.604 31.808 118.34V122H30.908L30.848 120.932C30.68 121.268 30.432 121.556 30.104 121.796C29.784 122.028 29.352 122.144 28.808 122.144ZM28.964 121.292C29.348 121.292 29.676 121.192 29.948 120.992C30.228 120.792 30.44 120.532 30.584 120.212C30.728 119.892 30.8 119.556 30.8 119.204V119.192H29.276C28.684 119.192 28.264 119.296 28.016 119.504C27.776 119.704 27.656 119.956 27.656 120.26C27.656 120.572 27.768 120.824 27.992 121.016C28.224 121.2 28.548 121.292 28.964 121.292ZM36.82 122V116.9H35.92V116.048H36.82V115.016C36.82 114.44 36.964 114.02 37.252 113.756C37.54 113.492 37.96 113.36 38.512 113.36H39.112V114.224H38.668C38.364 114.224 38.148 114.288 38.02 114.416C37.892 114.536 37.828 114.744 37.828 115.04V116.048H39.292V116.9H37.828V122H36.82ZM42.6641 122.144C41.9601 122.144 41.4001 121.932 40.9841 121.508C40.5681 121.076 40.3601 120.416 40.3601 119.528V116.048H41.3681V119.42C41.3681 120.66 41.8761 121.28 42.8921 121.28C43.4121 121.28 43.8401 121.096 44.1761 120.728C44.5201 120.352 44.6921 119.82 44.6921 119.132V116.048H45.7001V122H44.7881L44.7161 120.932C44.5321 121.308 44.2561 121.604 43.8881 121.82C43.5281 122.036 43.1201 122.144 42.6641 122.144ZM47.3593 122V113.36H48.3673V122H47.3593ZM50.0194 122V113.36H51.0274V122H50.0194ZM53.3276 124.64L54.8036 121.424H54.4556L52.0916 116.048H53.1836L55.1516 120.68L57.2396 116.048H58.2836L54.3836 124.64H53.3276ZM62.5233 124.64V116.048H63.4353L63.5313 117.032C63.7233 116.744 63.9953 116.484 64.3473 116.252C64.7073 116.02 65.1633 115.904 65.7153 115.904C66.3073 115.904 66.8233 116.04 67.2633 116.312C67.7033 116.584 68.0433 116.956 68.2833 117.428C68.5313 117.9 68.6553 118.436 68.6553 119.036C68.6553 119.636 68.5313 120.172 68.2833 120.644C68.0433 121.108 67.6993 121.476 67.2513 121.748C66.8113 122.012 66.2953 122.144 65.7033 122.144C65.2153 122.144 64.7793 122.044 64.3953 121.844C64.0193 121.644 63.7313 121.364 63.5313 121.004V124.64H62.5233ZM65.5953 121.268C65.9953 121.268 66.3473 121.176 66.6513 120.992C66.9553 120.8 67.1953 120.536 67.3713 120.2C67.5473 119.864 67.6353 119.472 67.6353 119.024C67.6353 118.576 67.5473 118.184 67.3713 117.848C67.1953 117.512 66.9553 117.252 66.6513 117.068C66.3473 116.876 65.9953 116.78 65.5953 116.78C65.1953 116.78 64.8433 116.876 64.5393 117.068C64.2353 117.252 63.9953 117.512 63.8193 117.848C63.6433 118.184 63.5553 118.576 63.5553 119.024C63.5553 119.472 63.6433 119.864 63.8193 120.2C63.9953 120.536 64.2353 120.8 64.5393 120.992C64.8433 121.176 65.1953 121.268 65.5953 121.268ZM72.7345 122.144C72.1665 122.144 71.6625 122.016 71.2225 121.76C70.7825 121.496 70.4345 121.132 70.1785 120.668C69.9305 120.204 69.8065 119.656 69.8065 119.024C69.8065 118.4 69.9305 117.856 70.1785 117.392C70.4265 116.92 70.7705 116.556 71.2105 116.3C71.6585 116.036 72.1745 115.904 72.7585 115.904C73.3345 115.904 73.8305 116.036 74.2465 116.3C74.6705 116.556 74.9945 116.896 75.2185 117.32C75.4425 117.744 75.5545 118.2 75.5545 118.688C75.5545 118.776 75.5505 118.864 75.5425 118.952C75.5425 119.04 75.5425 119.14 75.5425 119.252H70.8025C70.8265 119.708 70.9305 120.088 71.1145 120.392C71.3065 120.688 71.5425 120.912 71.8225 121.064C72.1105 121.216 72.4145 121.292 72.7345 121.292C73.1505 121.292 73.4985 121.196 73.7785 121.004C74.0585 120.812 74.2625 120.552 74.3905 120.224H75.3865C75.2265 120.776 74.9185 121.236 74.4625 121.604C74.0145 121.964 73.4385 122.144 72.7345 122.144ZM72.7345 116.756C72.2545 116.756 71.8265 116.904 71.4505 117.2C71.0825 117.488 70.8705 117.912 70.8145 118.472H74.5585C74.5345 117.936 74.3505 117.516 74.0065 117.212C73.6625 116.908 73.2385 116.756 72.7345 116.756ZM76.8905 122V116.048H77.8025L77.8865 117.188C78.0705 116.796 78.3505 116.484 78.7265 116.252C79.1025 116.02 79.5665 115.904 80.1185 115.904V116.96H79.8425C79.4905 116.96 79.1665 117.024 78.8705 117.152C78.5745 117.272 78.3385 117.48 78.1625 117.776C77.9865 118.072 77.8985 118.48 77.8985 119V122H76.8905ZM83.5299 122.144C82.8179 122.144 82.2259 121.964 81.7539 121.604C81.2819 121.244 81.0059 120.756 80.9259 120.14H81.9579C82.0219 120.452 82.1859 120.724 82.4499 120.956C82.7219 121.18 83.0859 121.292 83.5419 121.292C83.9659 121.292 84.2779 121.204 84.4779 121.028C84.6779 120.844 84.7779 120.628 84.7779 120.38C84.7779 120.02 84.6459 119.78 84.3819 119.66C84.1259 119.54 83.7619 119.432 83.2899 119.336C82.9699 119.272 82.6499 119.18 82.3299 119.06C82.0099 118.94 81.7419 118.772 81.5259 118.556C81.3099 118.332 81.2019 118.04 81.2019 117.68C81.2019 117.16 81.3939 116.736 81.7779 116.408C82.1699 116.072 82.6979 115.904 83.3619 115.904C83.9939 115.904 84.5099 116.064 84.9099 116.384C85.3179 116.696 85.5539 117.144 85.6179 117.728H84.6219C84.5819 117.424 84.4499 117.188 84.2259 117.02C84.0099 116.844 83.7179 116.756 83.3499 116.756C82.9899 116.756 82.7099 116.832 82.5099 116.984C82.3179 117.136 82.2219 117.336 82.2219 117.584C82.2219 117.824 82.3459 118.012 82.5939 118.148C82.8499 118.284 83.1939 118.4 83.6259 118.496C83.9939 118.576 84.3419 118.676 84.6699 118.796C85.0059 118.908 85.2779 119.08 85.4859 119.312C85.7019 119.536 85.8099 119.864 85.8099 120.296C85.8179 120.832 85.6139 121.276 85.1979 121.628C84.7899 121.972 84.2339 122.144 83.5299 122.144ZM89.9619 122.144C89.4019 122.144 88.8979 122.016 88.4499 121.76C88.0019 121.504 87.6459 121.144 87.3819 120.68C87.1259 120.208 86.9979 119.656 86.9979 119.024C86.9979 118.392 87.1299 117.844 87.3939 117.38C87.6579 116.908 88.0139 116.544 88.4619 116.288C88.9179 116.032 89.4259 115.904 89.9859 115.904C90.5459 115.904 91.0499 116.032 91.4979 116.288C91.9459 116.544 92.2979 116.908 92.5539 117.38C92.8179 117.844 92.9499 118.392 92.9499 119.024C92.9499 119.656 92.8179 120.208 92.5539 120.68C92.2899 121.144 91.9299 121.504 91.4739 121.76C91.0259 122.016 90.5219 122.144 89.9619 122.144ZM89.9619 121.28C90.3059 121.28 90.6259 121.196 90.9219 121.028C91.2179 120.86 91.4579 120.608 91.6419 120.272C91.8259 119.936 91.9179 119.52 91.9179 119.024C91.9179 118.528 91.8259 118.112 91.6419 117.776C91.4659 117.44 91.2299 117.188 90.9339 117.02C90.6379 116.852 90.3219 116.768 89.9859 116.768C89.6419 116.768 89.3219 116.852 89.0259 117.02C88.7299 117.188 88.4899 117.44 88.3059 117.776C88.1219 118.112 88.0299 118.528 88.0299 119.024C88.0299 119.52 88.1219 119.936 88.3059 120.272C88.4899 120.608 88.7259 120.86 89.0139 121.028C89.3099 121.196 89.6259 121.28 89.9619 121.28ZM94.3514 122V116.048H95.2634L95.3234 117.116C95.5154 116.74 95.7914 116.444 96.1514 116.228C96.5114 116.012 96.9194 115.904 97.3754 115.904C98.0794 115.904 98.6394 116.12 99.0554 116.552C99.4794 116.976 99.6914 117.632 99.6914 118.52V122H98.6834V118.628C98.6834 117.388 98.1714 116.768 97.1474 116.768C96.6354 116.768 96.2074 116.956 95.8634 117.332C95.5274 117.7 95.3594 118.228 95.3594 118.916V122H94.3514ZM103.199 122.144C102.703 122.144 102.291 122.06 101.963 121.892C101.635 121.724 101.391 121.5 101.231 121.22C101.071 120.94 100.991 120.636 100.991 120.308C100.991 119.7 101.223 119.232 101.687 118.904C102.151 118.576 102.783 118.412 103.583 118.412H105.191V118.34C105.191 117.82 105.055 117.428 104.783 117.164C104.511 116.892 104.147 116.756 103.691 116.756C103.299 116.756 102.959 116.856 102.671 117.056C102.391 117.248 102.215 117.532 102.143 117.908H101.111C101.151 117.476 101.295 117.112 101.543 116.816C101.799 116.52 102.115 116.296 102.491 116.144C102.867 115.984 103.267 115.904 103.691 115.904C104.523 115.904 105.147 116.128 105.563 116.576C105.987 117.016 106.199 117.604 106.199 118.34V122H105.299L105.239 120.932C105.071 121.268 104.823 121.556 104.495 121.796C104.175 122.028 103.743 122.144 103.199 122.144ZM103.355 121.292C103.739 121.292 104.067 121.192 104.339 120.992C104.619 120.792 104.831 120.532 104.975 120.212C105.119 119.892 105.191 119.556 105.191 119.204V119.192H103.667C103.075 119.192 102.655 119.296 102.407 119.504C102.167 119.704 102.047 119.956 102.047 120.26C102.047 120.572 102.159 120.824 102.383 121.016C102.615 121.2 102.939 121.292 103.355 121.292ZM107.711 122V113.36H108.719V122H107.711ZM110.983 114.728C110.783 114.728 110.615 114.664 110.479 114.536C110.351 114.4 110.287 114.232 110.287 114.032C110.287 113.84 110.351 113.68 110.479 113.552C110.615 113.424 110.783 113.36 110.983 113.36C111.175 113.36 111.339 113.424 111.475 113.552C111.611 113.68 111.679 113.84 111.679 114.032C111.679 114.232 111.611 114.4 111.475 114.536C111.339 114.664 111.175 114.728 110.983 114.728ZM110.479 122V116.048H111.487V122H110.479ZM115.522 122.144C114.81 122.144 114.218 121.964 113.746 121.604C113.274 121.244 112.998 120.756 112.918 120.14H113.95C114.014 120.452 114.178 120.724 114.442 120.956C114.714 121.18 115.078 121.292 115.534 121.292C115.958 121.292 116.27 121.204 116.47 121.028C116.67 120.844 116.77 120.628 116.77 120.38C116.77 120.02 116.638 119.78 116.374 119.66C116.118 119.54 115.754 119.432 115.282 119.336C114.962 119.272 114.642 119.18 114.322 119.06C114.002 118.94 113.734 118.772 113.518 118.556C113.302 118.332 113.194 118.04 113.194 117.68C113.194 117.16 113.386 116.736 113.77 116.408C114.162 116.072 114.69 115.904 115.354 115.904C115.986 115.904 116.502 116.064 116.902 116.384C117.31 116.696 117.546 117.144 117.61 117.728H116.614C116.574 117.424 116.442 117.188 116.218 117.02C116.002 116.844 115.71 116.756 115.342 116.756C114.982 116.756 114.702 116.832 114.502 116.984C114.31 117.136 114.214 117.336 114.214 117.584C114.214 117.824 114.338 118.012 114.586 118.148C114.842 118.284 115.186 118.4 115.618 118.496C115.986 118.576 116.334 118.676 116.662 118.796C116.998 118.908 117.27 119.08 117.478 119.312C117.694 119.536 117.802 119.864 117.802 120.296C117.81 120.832 117.606 121.276 117.19 121.628C116.782 121.972 116.226 122.144 115.522 122.144ZM121.918 122.144C121.35 122.144 120.846 122.016 120.406 121.76C119.966 121.496 119.618 121.132 119.362 120.668C119.114 120.204 118.99 119.656 118.99 119.024C118.99 118.4 119.114 117.856 119.362 117.392C119.61 116.92 119.954 116.556 120.394 116.3C120.842 116.036 121.358 115.904 121.942 115.904C122.518 115.904 123.014 116.036 123.43 116.3C123.854 116.556 124.178 116.896 124.402 117.32C124.626 117.744 124.738 118.2 124.738 118.688C124.738 118.776 124.734 118.864 124.726 118.952C124.726 119.04 124.726 119.14 124.726 119.252H119.986C120.01 119.708 120.114 120.088 120.298 120.392C120.49 120.688 120.726 120.912 121.006 121.064C121.294 121.216 121.598 121.292 121.918 121.292C122.334 121.292 122.682 121.196 122.962 121.004C123.242 120.812 123.446 120.552 123.574 120.224H124.57C124.41 120.776 124.102 121.236 123.646 121.604C123.198 121.964 122.622 122.144 121.918 122.144ZM121.918 116.756C121.438 116.756 121.01 116.904 120.634 117.2C120.266 117.488 120.054 117.912 119.998 118.472H123.742C123.718 117.936 123.534 117.516 123.19 117.212C122.846 116.908 122.422 116.756 121.918 116.756ZM128.774 122.144C128.182 122.144 127.662 122.008 127.214 121.736C126.774 121.464 126.43 121.092 126.182 120.62C125.942 120.148 125.822 119.612 125.822 119.012C125.822 118.412 125.946 117.88 126.194 117.416C126.442 116.944 126.786 116.576 127.226 116.312C127.666 116.04 128.186 115.904 128.786 115.904C129.274 115.904 129.706 116.004 130.082 116.204C130.458 116.404 130.75 116.684 130.958 117.044V113.36H131.966V122H131.054L130.958 121.016C130.766 121.304 130.49 121.564 130.13 121.796C129.77 122.028 129.318 122.144 128.774 122.144ZM128.882 121.268C129.282 121.268 129.634 121.176 129.938 120.992C130.25 120.8 130.49 120.536 130.658 120.2C130.834 119.864 130.922 119.472 130.922 119.024C130.922 118.576 130.834 118.184 130.658 117.848C130.49 117.512 130.25 117.252 129.938 117.068C129.634 116.876 129.282 116.78 128.882 116.78C128.49 116.78 128.138 116.876 127.826 117.068C127.522 117.252 127.282 117.512 127.106 117.848C126.938 118.184 126.854 118.576 126.854 119.024C126.854 119.472 126.938 119.864 127.106 120.2C127.282 120.536 127.522 120.8 127.826 120.992C128.138 121.176 128.49 121.268 128.882 121.268ZM139.521 122.144C138.953 122.144 138.441 122.016 137.985 121.76C137.537 121.496 137.181 121.132 136.917 120.668C136.661 120.196 136.533 119.648 136.533 119.024C136.533 118.4 136.661 117.856 136.917 117.392C137.181 116.92 137.537 116.556 137.985 116.3C138.441 116.036 138.953 115.904 139.521 115.904C140.225 115.904 140.817 116.088 141.297 116.456C141.785 116.824 142.093 117.316 142.221 117.932H141.189C141.109 117.564 140.913 117.28 140.601 117.08C140.289 116.872 139.925 116.768 139.509 116.768C139.173 116.768 138.857 116.852 138.561 117.02C138.265 117.188 138.025 117.44 137.841 117.776C137.657 118.112 137.565 118.528 137.565 119.024C137.565 119.52 137.657 119.936 137.841 120.272C138.025 120.608 138.265 120.864 138.561 121.04C138.857 121.208 139.173 121.292 139.509 121.292C139.925 121.292 140.289 121.192 140.601 120.992C140.913 120.784 141.109 120.492 141.189 120.116H142.221C142.101 120.716 141.797 121.204 141.309 121.58C140.821 121.956 140.225 122.144 139.521 122.144ZM145.609 122.144C145.113 122.144 144.701 122.06 144.373 121.892C144.045 121.724 143.801 121.5 143.641 121.22C143.481 120.94 143.401 120.636 143.401 120.308C143.401 119.7 143.633 119.232 144.097 118.904C144.561 118.576 145.193 118.412 145.993 118.412H147.601V118.34C147.601 117.82 147.465 117.428 147.193 117.164C146.921 116.892 146.557 116.756 146.101 116.756C145.709 116.756 145.369 116.856 145.081 117.056C144.801 117.248 144.625 117.532 144.553 117.908H143.521C143.561 117.476 143.705 117.112 143.953 116.816C144.209 116.52 144.525 116.296 144.901 116.144C145.277 115.984 145.677 115.904 146.101 115.904C146.933 115.904 147.557 116.128 147.973 116.576C148.397 117.016 148.609 117.604 148.609 118.34V122H147.709L147.649 120.932C147.481 121.268 147.233 121.556 146.905 121.796C146.585 122.028 146.153 122.144 145.609 122.144ZM145.765 121.292C146.149 121.292 146.477 121.192 146.749 120.992C147.029 120.792 147.241 120.532 147.385 120.212C147.529 119.892 147.601 119.556 147.601 119.204V119.192H146.077C145.485 119.192 145.065 119.296 144.817 119.504C144.577 119.704 144.457 119.956 144.457 120.26C144.457 120.572 144.569 120.824 144.793 121.016C145.025 121.2 145.349 121.292 145.765 121.292ZM150.121 122V116.048H151.033L151.105 116.912C151.297 116.592 151.553 116.344 151.873 116.168C152.193 115.992 152.553 115.904 152.953 115.904C153.425 115.904 153.829 116 154.165 116.192C154.509 116.384 154.773 116.676 154.957 117.068C155.165 116.708 155.449 116.424 155.809 116.216C156.177 116.008 156.573 115.904 156.997 115.904C157.709 115.904 158.277 116.12 158.701 116.552C159.125 116.976 159.337 117.632 159.337 118.52V122H158.341V118.628C158.341 118.012 158.217 117.548 157.969 117.236C157.721 116.924 157.365 116.768 156.901 116.768C156.421 116.768 156.021 116.956 155.701 117.332C155.389 117.7 155.233 118.228 155.233 118.916V122H154.225V118.628C154.225 118.012 154.101 117.548 153.853 117.236C153.605 116.924 153.249 116.768 152.785 116.768C152.313 116.768 151.917 116.956 151.597 117.332C151.285 117.7 151.129 118.228 151.129 118.916V122H150.121ZM160.855 124.64V116.048H161.767L161.863 117.032C162.055 116.744 162.327 116.484 162.679 116.252C163.039 116.02 163.495 115.904 164.047 115.904C164.639 115.904 165.155 116.04 165.595 116.312C166.035 116.584 166.375 116.956 166.615 117.428C166.863 117.9 166.987 118.436 166.987 119.036C166.987 119.636 166.863 120.172 166.615 120.644C166.375 121.108 166.031 121.476 165.583 121.748C165.143 122.012 164.627 122.144 164.035 122.144C163.547 122.144 163.111 122.044 162.727 121.844C162.351 121.644 162.063 121.364 161.863 121.004V124.64H160.855ZM163.927 121.268C164.327 121.268 164.679 121.176 164.983 120.992C165.287 120.8 165.527 120.536 165.703 120.2C165.879 119.864 165.967 119.472 165.967 119.024C165.967 118.576 165.879 118.184 165.703 117.848C165.527 117.512 165.287 117.252 164.983 117.068C164.679 116.876 164.327 116.78 163.927 116.78C163.527 116.78 163.175 116.876 162.871 117.068C162.567 117.252 162.327 117.512 162.151 117.848C161.975 118.184 161.887 118.576 161.887 119.024C161.887 119.472 161.975 119.864 162.151 120.2C162.327 120.536 162.567 120.8 162.871 120.992C163.175 121.176 163.527 121.268 163.927 121.268ZM170.371 122.144C169.875 122.144 169.463 122.06 169.135 121.892C168.807 121.724 168.563 121.5 168.403 121.22C168.243 120.94 168.163 120.636 168.163 120.308C168.163 119.7 168.395 119.232 168.859 118.904C169.323 118.576 169.955 118.412 170.755 118.412H172.363V118.34C172.363 117.82 172.227 117.428 171.955 117.164C171.683 116.892 171.319 116.756 170.863 116.756C170.471 116.756 170.131 116.856 169.843 117.056C169.563 117.248 169.387 117.532 169.315 117.908H168.283C168.323 117.476 168.467 117.112 168.715 116.816C168.971 116.52 169.287 116.296 169.663 116.144C170.039 115.984 170.439 115.904 170.863 115.904C171.695 115.904 172.319 116.128 172.735 116.576C173.159 117.016 173.371 117.604 173.371 118.34V122H172.471L172.411 120.932C172.243 121.268 171.995 121.556 171.667 121.796C171.347 122.028 170.915 122.144 170.371 122.144ZM170.527 121.292C170.911 121.292 171.239 121.192 171.511 120.992C171.791 120.792 172.003 120.532 172.147 120.212C172.291 119.892 172.363 119.556 172.363 119.204V119.192H170.839C170.247 119.192 169.827 119.296 169.579 119.504C169.339 119.704 169.219 119.956 169.219 120.26C169.219 120.572 169.331 120.824 169.555 121.016C169.787 121.2 170.111 121.292 170.527 121.292ZM175.495 114.728C175.295 114.728 175.127 114.664 174.991 114.536C174.863 114.4 174.799 114.232 174.799 114.032C174.799 113.84 174.863 113.68 174.991 113.552C175.127 113.424 175.295 113.36 175.495 113.36C175.687 113.36 175.851 113.424 175.987 113.552C176.123 113.68 176.191 113.84 176.191 114.032C176.191 114.232 176.123 114.4 175.987 114.536C175.851 114.664 175.687 114.728 175.495 114.728ZM174.991 122V116.048H175.999V122H174.991ZM180.106 120.128C179.77 120.128 179.462 120.084 179.182 119.996L178.582 120.56C178.67 120.624 178.778 120.68 178.906 120.728C179.042 120.768 179.234 120.808 179.482 120.848C179.73 120.88 180.078 120.916 180.526 120.956C181.326 121.012 181.898 121.196 182.242 121.508C182.586 121.82 182.758 122.228 182.758 122.732C182.758 123.076 182.662 123.404 182.47 123.716C182.286 124.028 181.998 124.284 181.606 124.484C181.222 124.684 180.726 124.784 180.118 124.784C179.582 124.784 179.106 124.712 178.69 124.568C178.274 124.432 177.95 124.22 177.718 123.932C177.486 123.652 177.37 123.296 177.37 122.864C177.37 122.64 177.43 122.396 177.55 122.132C177.67 121.876 177.894 121.632 178.222 121.4C178.046 121.328 177.894 121.252 177.766 121.172C177.646 121.084 177.534 120.988 177.43 120.884V120.608L178.45 119.6C177.978 119.2 177.742 118.672 177.742 118.016C177.742 117.624 177.834 117.268 178.018 116.948C178.202 116.628 178.47 116.376 178.822 116.192C179.174 116 179.602 115.904 180.106 115.904C180.45 115.904 180.762 115.952 181.042 116.048H183.238V116.804L182.122 116.852C182.354 117.188 182.47 117.576 182.47 118.016C182.47 118.408 182.374 118.764 182.182 119.084C181.998 119.404 181.73 119.66 181.378 119.852C181.034 120.036 180.61 120.128 180.106 120.128ZM180.106 119.3C180.53 119.3 180.866 119.192 181.114 118.976C181.37 118.752 181.498 118.432 181.498 118.016C181.498 117.608 181.37 117.296 181.114 117.08C180.866 116.856 180.53 116.744 180.106 116.744C179.674 116.744 179.33 116.856 179.074 117.08C178.826 117.296 178.702 117.608 178.702 118.016C178.702 118.432 178.826 118.752 179.074 118.976C179.33 119.192 179.674 119.3 180.106 119.3ZM178.354 122.768C178.354 123.168 178.522 123.464 178.858 123.656C179.194 123.856 179.614 123.956 180.118 123.956C180.614 123.956 181.01 123.848 181.306 123.632C181.61 123.416 181.762 123.128 181.762 122.768C181.762 122.512 181.658 122.288 181.45 122.096C181.242 121.912 180.858 121.804 180.298 121.772C179.858 121.74 179.478 121.7 179.158 121.652C178.83 121.828 178.614 122.016 178.51 122.216C178.406 122.424 178.354 122.608 178.354 122.768ZM184.375 122V116.048H185.287L185.347 117.116C185.539 116.74 185.815 116.444 186.175 116.228C186.535 116.012 186.943 115.904 187.399 115.904C188.103 115.904 188.663 116.12 189.079 116.552C189.503 116.976 189.715 117.632 189.715 118.52V122H188.707V118.628C188.707 117.388 188.195 116.768 187.171 116.768C186.659 116.768 186.231 116.956 185.887 117.332C185.551 117.7 185.383 118.228 185.383 118.916V122H184.375Z" fill="#828486"/>
<defs>
<filter id="filter0_d_152_1470" x="0" y="0" width="223" height="161" filterUnits="userSpaceOnUse" color-interpolation-filters="sRGB">
<feFlood flood-opacity="0" result="BackgroundImageFix"/>
<feColorMatrix in="SourceAlpha" type="matrix" values="0 0 0 0 0 0 0 0 0 0 0 0 0 0 0 0 0 0 127 0" result="hardAlpha"/>
<feOffset/>
<feGaussianBlur stdDeviation="7"/>
<feComposite in2="hardAlpha" operator="out"/>
<feColorMatrix type="matrix" values="0 0 0 0 0.27106 0 0 0 0 0.291722 0 0 0 0 0.320993 0 0 0 0.12 0"/>
<feBlend mode="normal" in2="BackgroundImageFix" result="effect1_dropShadow_152_1470"/>
<feBlend mode="normal" in="SourceGraphic" in2="effect1_dropShadow_152_1470" result="shape"/>
</filter>
<linearGradient id="paint0_linear_152_1470" x1="15" y1="146" x2="137.285" y2="38.4473" gradientUnits="userSpaceOnUse">
<stop offset="0.917129" stop-color="white"/>
<stop offset="1" stop-color="white" stop-opacity="0"/>
</linearGradient>
<linearGradient id="paint1_linear_152_1470" x1="15" y1="146" x2="137.285" y2="38.4473" gradientUnits="userSpaceOnUse">
<stop stop-color="#FFDEDE"/>
<stop offset="1" stop-color="white" stop-opacity="0"/>
</linearGradient>
</defs>
</svg>
