<svg width="223" height="161" viewBox="0 0 223 161" fill="none" xmlns="http://www.w3.org/2000/svg">
<g filter="url(#filter0_d_152_1461)">
<rect x="14" y="14" width="195" height="133" rx="14" fill="white"/>
</g>
<path d="M152.676 24.9359C147.94 27.8428 145.063 30.4747 146.033 37.2635C147.013 44.1261 148.001 42.8212 151.311 48.9088C154.62 54.9964 149.48 54.8027 152.636 65.7741C155.688 76.3848 165.58 79.2171 181.351 75.1234C197.121 71.0298 198.324 57.9386 191.654 46.6679C186.651 38.2149 187.205 38 177.042 30.4073C164.652 21.151 159.451 20.7775 152.676 24.9359Z" fill="#EAE0FF"/>
<path d="M141 79.332C148.219 78.3406 152.167 70.7422 163.082 72.3934C162.163 70.4505 162.229 67.5056 163.326 65.6569C164.214 64.1604 166.292 65.1058 166.336 63.3663C166.376 61.8039 165.012 61.608 165.323 60.0767C165.453 59.4335 166.036 58.3127 166.036 57.4124C166.036 56.0431 164.627 54.8131 164.512 53.4484C164.476 53.0284 164.936 52.0047 164.936 51.5837C164.936 50.4272 162.697 49.2679 162.221 47.4521C161.843 46.0121 161.465 43.8639 162.9 42.3759C163.788 41.4548 165.691 41.0753 166.801 40.4396C167.642 39.9584 168.96 39.6881 169.332 38.7934C170.208 36.6904 167.177 34.5525 166.783 32.3083C166.496 30.6705 166.378 29.4886 167.847 27.5975C168.92 26.2168 170.983 26.0944 172.727 26.23C174.027 26.3317 175.948 27.2066 176.104 27.5805C176.339 28.1456 176.121 28.7267 174.242 28.8001C173.63 28.8246 171.376 28.5091 170.709 30.0452C170.444 30.6583 171.236 31.4917 171.158 32.0606C171.016 33.0899 170.712 33.3828 170.561 34.4584C169.81 34.1758 169.081 32.3149 168.358 32.6652C166.945 33.3508 169.475 36.3589 169.266 37.9156C169.131 38.9318 168.155 39.6325 167.177 39.9433C166.199 40.2541 161.495 41.7195 160.501 43.1444C159.243 44.947 158.608 47.1602 158.114 49.3018C157.398 52.4106 157.169 56.3454 158.217 59.3591C158.961 61.5007 159.176 61.8728 160.013 63.9795C160.417 64.9976 161.634 66.4235 162.693 66.7041C162.922 66.7644 163.965 64.3393 166.285 65.5325C166.896 65.8471 167.546 66.2492 167.843 66.8689C168.098 67.4029 168.36 68.3117 167.769 68.3212C167.503 68.3249 166.478 67.1703 166.231 67.0714C164.917 66.5412 165.747 69.2724 163.931 69.2724C162.693 69.2724 162.162 68.2684 162.51 67.7015C162.858 67.1345 165.142 64.8469 165.006 64.5794C162.645 59.9214 161.203 58.9569 161.559 53.8496C161.597 53.2902 161.83 52.2335 162.173 51.418C162.39 50.9009 162.899 50.3792 162.899 50.3792C162.899 50.3792 163.585 52.8834 163.613 53.3307C163.801 56.3303 164.179 57.3615 164.108 60.3658C164.038 63.3701 163.877 64.7942 166.045 66.8755C166.172 66.9979 166.312 67.1307 166.334 67.3059C166.381 67.6854 165.89 67.871 165.511 67.9218C164.544 68.0518 163.575 68.1827 162.608 68.3127C162.751 68.8683 163.371 69.1433 163.93 69.2733C167.391 70.0804 176.291 69.4616 177.962 68.7261C179.792 67.9209 182.561 66.0401 182.842 64.0615C183.843 57.0405 184.992 51.3803 182.515 44.7351C181.128 41.0141 179.434 40.6656 178.434 40.4236C177.568 40.2145 176.421 39.5685 175.604 39.9226C174.763 40.2861 175.012 40.7099 174.32 41.3089C173.035 42.4202 171.01 42.5709 169.575 41.6611C169.086 41.3503 168.651 40.9086 168.488 40.352C168.091 38.9949 169.405 37.603 169.101 36.2223C168.886 35.2504 167.95 34.6326 167.399 33.8029C166.612 32.6143 166.676 31.0011 167.296 29.7174C167.916 28.4338 168.757 27.3281 170.092 26.829C170.881 26.5342 173.015 26.4202 174.507 27.0738C176.538 27.9638 177.112 30.3484 177.112 31.6763C177.112 31.9947 176.361 32.7999 176.543 33.0607C176.679 33.2566 177.477 34.5196 177.482 34.7239C177.492 35.1553 176.906 35.0498 176.801 35.5075C176.579 36.4738 177.029 37.6802 176.495 38.4534C176.261 38.7905 175.391 38.7821 174.998 38.7199C173.692 38.5146 173.527 38.3441 172.708 38.0447C172.508 39.0034 172.905 39.2643 173.746 39.7653C174.308 40.1006 175.387 41.7534 176.366 41.7534C180.808 41.7534 182.248 44.6936 182.296 47.4041C182.313 48.3864 181.767 50.2577 182.097 51.1825C182.359 51.9133 182.992 52.9474 182.992 54.523C182.992 56.6505 181.494 56.8294 181.494 58.8665C181.494 61.5176 183.173 58.2253 181.907 64.4476C181.809 64.9279 180.673 66.6617 180.599 67.1467C179.969 66.6052 179.07 65.0475 178.971 63.8891C178.892 62.9586 179.903 63.7685 179.708 60.7152C179.519 57.7618 178.507 52.3899 179.225 49.7924C180.089 46.6676 179.911 49.7171 179.911 49.9959C179.911 51.6214 178.632 53.3345 178.459 54.3347C178.13 56.2295 178.13 58.3156 178.6 60.461C178.825 61.4894 178.563 62.6563 178.37 63.6923C178.029 65.5241 176.612 66.0006 175.683 67.6158C175.549 67.8493 175.74 68.1771 176.184 68.0075C176.767 67.7834 177.083 66.6919 177.771 66.6919C178.124 66.6919 178.64 68.4813 179.272 68.0471C182.007 66.173 179.495 69.5266 179.378 69.9156C179.142 70.701 179.019 71.2953 179.378 72.1787" stroke="#1F3758" stroke-miterlimit="10" stroke-linecap="round"/>
<path d="M15 28C15 20.8203 20.8203 15 28 15H175V146H28C20.8203 146 15 140.18 15 133V28Z" fill="url(#paint0_linear_152_1461)"/>
<path opacity="0.8" d="M15 28C15 20.8203 20.8203 15 28 15H175V146H28C20.8203 146 15 140.18 15 133V28Z" fill="url(#paint1_linear_152_1461)"/>
<path d="M27.088 45V33.8H29.52L33.088 40.904L36.608 33.8H39.04V45H36.992V37.272L33.872 43.4H32.256L29.136 37.272V45H27.088ZM43.581 45.192C42.8983 45.192 42.3383 45.0853 41.901 44.872C41.4637 44.648 41.1383 44.3547 40.925 43.992C40.7117 43.6293 40.605 43.2293 40.605 42.792C40.605 42.056 40.893 41.4587 41.469 41C42.045 40.5413 42.909 40.312 44.061 40.312H46.077V40.12C46.077 39.576 45.9223 39.176 45.613 38.92C45.3037 38.664 44.9197 38.536 44.461 38.536C44.045 38.536 43.6823 38.6373 43.373 38.84C43.0637 39.032 42.8717 39.32 42.797 39.704H40.797C40.8503 39.128 41.0423 38.6267 41.373 38.2C41.7143 37.7733 42.1517 37.448 42.685 37.224C43.2183 36.9893 43.8157 36.872 44.477 36.872C45.6077 36.872 46.4983 37.1547 47.149 37.72C47.7997 38.2853 48.125 39.0853 48.125 40.12V45H46.381L46.189 43.72C45.9543 44.1467 45.6237 44.4987 45.197 44.776C44.781 45.0533 44.2423 45.192 43.581 45.192ZM44.045 43.592C44.6317 43.592 45.085 43.4 45.405 43.016C45.7357 42.632 45.9437 42.1573 46.029 41.592H44.285C43.741 41.592 43.3517 41.6933 43.117 41.896C42.8823 42.088 42.765 42.328 42.765 42.616C42.765 42.9253 42.8823 43.1653 43.117 43.336C43.3517 43.5067 43.661 43.592 44.045 43.592ZM49.7594 45V37.064H51.5674L51.7274 38.408C51.9727 37.9387 52.3247 37.5653 52.7834 37.288C53.2527 37.0107 53.802 36.872 54.4314 36.872C55.4127 36.872 56.1754 37.1813 56.7194 37.8C57.2634 38.4187 57.5354 39.3253 57.5354 40.52V45H55.4874V40.712C55.4874 40.0293 55.3487 39.5067 55.0714 39.144C54.794 38.7813 54.362 38.6 53.7754 38.6C53.1994 38.6 52.7247 38.8027 52.3514 39.208C51.9887 39.6133 51.8074 40.1787 51.8074 40.904V45H49.7594ZM61.9098 45.192C61.2271 45.192 60.6671 45.0853 60.2298 44.872C59.7924 44.648 59.4671 44.3547 59.2538 43.992C59.0404 43.6293 58.9338 43.2293 58.9338 42.792C58.9338 42.056 59.2218 41.4587 59.7978 41C60.3738 40.5413 61.2378 40.312 62.3898 40.312H64.4058V40.12C64.4058 39.576 64.2511 39.176 63.9418 38.92C63.6324 38.664 63.2484 38.536 62.7898 38.536C62.3738 38.536 62.0111 38.6373 61.7018 38.84C61.3924 39.032 61.2004 39.32 61.1258 39.704H59.1258C59.1791 39.128 59.3711 38.6267 59.7018 38.2C60.0431 37.7733 60.4804 37.448 61.0138 37.224C61.5471 36.9893 62.1444 36.872 62.8058 36.872C63.9364 36.872 64.8271 37.1547 65.4778 37.72C66.1284 38.2853 66.4538 39.0853 66.4538 40.12V45H64.7098L64.5178 43.72C64.2831 44.1467 63.9524 44.4987 63.5258 44.776C63.1098 45.0533 62.5711 45.192 61.9098 45.192ZM62.3738 43.592C62.9604 43.592 63.4138 43.4 63.7338 43.016C64.0644 42.632 64.2724 42.1573 64.3578 41.592H62.6138C62.0698 41.592 61.6804 41.6933 61.4458 41.896C61.2111 42.088 61.0938 42.328 61.0938 42.616C61.0938 42.9253 61.2111 43.1653 61.4458 43.336C61.6804 43.5067 61.9898 43.592 62.3738 43.592ZM71.4481 42.632C71.0641 42.632 70.7068 42.5893 70.3761 42.504L69.7841 43.096C69.9655 43.192 70.2108 43.272 70.5201 43.336C70.8295 43.4 71.3308 43.464 72.0241 43.528C73.0801 43.624 73.8481 43.8747 74.3281 44.28C74.8081 44.6853 75.0481 45.2453 75.0481 45.96C75.0481 46.4293 74.9201 46.872 74.6641 47.288C74.4081 47.7147 74.0135 48.056 73.4801 48.312C72.9468 48.5787 72.2641 48.712 71.4321 48.712C70.3015 48.712 69.3895 48.4987 68.6961 48.072C68.0028 47.656 67.6561 47.0267 67.6561 46.184C67.6561 45.4693 68.0028 44.8507 68.6961 44.328C68.4828 44.232 68.2961 44.1307 68.1361 44.024C67.9868 43.9173 67.8535 43.8053 67.7361 43.688V43.32L69.1281 41.848C68.5095 41.304 68.2001 40.6053 68.2001 39.752C68.2001 39.2187 68.3281 38.7333 68.5841 38.296C68.8508 37.8587 69.2241 37.512 69.7041 37.256C70.1841 37 70.7655 36.872 71.4481 36.872C71.8961 36.872 72.3121 36.936 72.6961 37.064H75.7041V38.312L74.3441 38.408C74.5575 38.8133 74.6641 39.2613 74.6641 39.752C74.6641 40.2853 74.5361 40.7707 74.2801 41.208C74.0241 41.6453 73.6508 41.992 73.1601 42.248C72.6801 42.504 72.1095 42.632 71.4481 42.632ZM71.4481 41.064C71.8641 41.064 72.2055 40.952 72.4721 40.728C72.7495 40.504 72.8881 40.184 72.8881 39.768C72.8881 39.352 72.7495 39.032 72.4721 38.808C72.2055 38.584 71.8641 38.472 71.4481 38.472C71.0108 38.472 70.6588 38.584 70.3921 38.808C70.1255 39.032 69.9921 39.352 69.9921 39.768C69.9921 40.184 70.1255 40.504 70.3921 40.728C70.6588 40.952 71.0108 41.064 71.4481 41.064ZM69.5281 45.976C69.5281 46.3707 69.7095 46.664 70.0721 46.856C70.4455 47.0587 70.8988 47.16 71.4321 47.16C71.9441 47.16 72.3601 47.0533 72.6801 46.84C73.0001 46.6373 73.1601 46.36 73.1601 46.008C73.1601 45.72 73.0535 45.48 72.8401 45.288C72.6375 45.096 72.2268 44.9787 71.6081 44.936C71.1708 44.904 70.7655 44.856 70.3921 44.792C70.0828 44.9627 69.8588 45.1493 69.7201 45.352C69.5921 45.5547 69.5281 45.7627 69.5281 45.976ZM80.421 45.192C79.621 45.192 78.9117 45.0213 78.293 44.68C77.6743 44.3387 77.189 43.8587 76.837 43.24C76.485 42.6213 76.309 41.9067 76.309 41.096C76.309 40.2747 76.4797 39.544 76.821 38.904C77.173 38.264 77.653 37.768 78.261 37.416C78.8797 37.0533 79.605 36.872 80.437 36.872C81.2157 36.872 81.9037 37.0427 82.501 37.384C83.0983 37.7253 83.5623 38.1947 83.893 38.792C84.2343 39.3787 84.405 40.0347 84.405 40.76C84.405 40.8773 84.3997 41 84.389 41.128C84.389 41.256 84.3837 41.3893 84.373 41.528H78.341C78.3837 42.1467 78.597 42.632 78.981 42.984C79.3757 43.336 79.8503 43.512 80.405 43.512C80.821 43.512 81.1677 43.4213 81.445 43.24C81.733 43.048 81.9463 42.8027 82.085 42.504H84.165C84.0157 43.0053 83.765 43.464 83.413 43.88C83.0717 44.2853 82.645 44.6053 82.133 44.84C81.6317 45.0747 81.061 45.192 80.421 45.192ZM80.437 38.536C79.9357 38.536 79.493 38.68 79.109 38.968C78.725 39.2453 78.4797 39.672 78.373 40.248H82.325C82.293 39.7253 82.101 39.3093 81.749 39C81.397 38.6907 80.9597 38.536 80.437 38.536ZM30.928 66.192C30.1173 66.192 29.4027 66.016 28.784 65.664C28.1653 65.312 27.6747 64.8213 27.312 64.192C26.96 63.5627 26.784 62.8427 26.784 62.032C26.784 61.2213 26.96 60.5013 27.312 59.872C27.6747 59.2427 28.1653 58.752 28.784 58.4C29.4027 58.048 30.1173 57.872 30.928 57.872C31.9413 57.872 32.7947 58.1387 33.488 58.672C34.1813 59.1947 34.624 59.92 34.816 60.848H32.656C32.5493 60.464 32.336 60.1653 32.016 59.952C31.7067 59.728 31.3387 59.616 30.912 59.616C30.3467 59.616 29.8667 59.8293 29.472 60.256C29.0773 60.6827 28.88 61.2747 28.88 62.032C28.88 62.7893 29.0773 63.3813 29.472 63.808C29.8667 64.2347 30.3467 64.448 30.912 64.448C31.3387 64.448 31.7067 64.3413 32.016 64.128C32.336 63.9147 32.5493 63.6107 32.656 63.216H34.816C34.624 64.112 34.1813 64.832 33.488 65.376C32.7947 65.92 31.9413 66.192 30.928 66.192ZM39.2898 66.192C38.2978 66.192 37.5298 65.8827 36.9858 65.264C36.4524 64.6453 36.1858 63.7387 36.1858 62.544V58.064H38.2178V62.352C38.2178 63.0347 38.3564 63.5573 38.6338 63.92C38.9111 64.2827 39.3484 64.464 39.9458 64.464C40.5111 64.464 40.9751 64.2613 41.3378 63.856C41.7111 63.4507 41.8978 62.8853 41.8978 62.16V58.064H43.9458V66H42.1378L41.9778 64.656C41.7324 65.1253 41.3751 65.4987 40.9058 65.776C40.4471 66.0533 39.9084 66.192 39.2898 66.192ZM49.0081 66.192C48.3041 66.192 47.6855 66.08 47.1521 65.856C46.6188 65.6213 46.1921 65.3013 45.8721 64.896C45.5521 64.4907 45.3601 64.0213 45.2961 63.488H47.3601C47.4241 63.7973 47.5948 64.064 47.8721 64.288C48.1601 64.5013 48.5281 64.608 48.9761 64.608C49.4241 64.608 49.7495 64.5173 49.9521 64.336C50.1655 64.1547 50.2721 63.9467 50.2721 63.712C50.2721 63.3707 50.1228 63.1413 49.8241 63.024C49.5255 62.896 49.1095 62.7733 48.5761 62.656C48.2348 62.5813 47.8881 62.4907 47.5361 62.384C47.1841 62.2773 46.8588 62.144 46.5601 61.984C46.2721 61.8133 46.0375 61.6 45.8561 61.344C45.6748 61.0773 45.5841 60.752 45.5841 60.368C45.5841 59.664 45.8615 59.072 46.4161 58.592C46.9815 58.112 47.7708 57.872 48.7841 57.872C49.7228 57.872 50.4695 58.0907 51.0241 58.528C51.5895 58.9653 51.9255 59.568 52.0321 60.336H50.0961C49.9788 59.7493 49.5361 59.456 48.7681 59.456C48.3841 59.456 48.0855 59.5307 47.8721 59.68C47.6695 59.8293 47.5681 60.016 47.5681 60.24C47.5681 60.4747 47.7228 60.6613 48.0321 60.8C48.3415 60.9387 48.7521 61.0667 49.2641 61.184C49.8188 61.312 50.3255 61.456 50.7841 61.616C51.2535 61.7653 51.6268 61.9947 51.9041 62.304C52.1815 62.6027 52.3201 63.0347 52.3201 63.6C52.3308 64.0907 52.2028 64.5333 51.9361 64.928C51.6695 65.3227 51.2855 65.632 50.7841 65.856C50.2828 66.08 49.6908 66.192 49.0081 66.192ZM57.1004 66C56.2684 66 55.6017 65.7973 55.1004 65.392C54.599 64.9867 54.3484 64.2667 54.3484 63.232V59.776H52.9884V58.064H54.3484L54.5884 55.936H56.3964V58.064H58.5404V59.776H56.3964V63.248C56.3964 63.632 56.4764 63.8987 56.6364 64.048C56.807 64.1867 57.095 64.256 57.5004 64.256H58.4924V66H57.1004ZM63.5836 66.192C62.8156 66.192 62.1223 66.016 61.5036 65.664C60.8956 65.312 60.4103 64.8267 60.0476 64.208C59.6956 63.5787 59.5196 62.8533 59.5196 62.032C59.5196 61.2107 59.701 60.4907 60.0636 59.872C60.4263 59.2427 60.9116 58.752 61.5196 58.4C62.1383 58.048 62.8316 57.872 63.5996 57.872C64.357 57.872 65.0396 58.048 65.6476 58.4C66.2663 58.752 66.7516 59.2427 67.1036 59.872C67.4663 60.4907 67.6476 61.2107 67.6476 62.032C67.6476 62.8533 67.4663 63.5787 67.1036 64.208C66.7516 64.8267 66.2663 65.312 65.6476 65.664C65.029 66.016 64.341 66.192 63.5836 66.192ZM63.5836 64.416C64.117 64.416 64.581 64.2187 64.9756 63.824C65.3703 63.4187 65.5676 62.8213 65.5676 62.032C65.5676 61.2427 65.3703 60.6507 64.9756 60.256C64.581 59.8507 64.1223 59.648 63.5996 59.648C63.0556 59.648 62.5863 59.8507 62.1916 60.256C61.8076 60.6507 61.6156 61.2427 61.6156 62.032C61.6156 62.8213 61.8076 63.4187 62.1916 63.824C62.5863 64.2187 63.0503 64.416 63.5836 64.416ZM69.1588 66V58.064H70.9668L71.1428 59.136C71.3988 58.752 71.7348 58.448 72.1508 58.224C72.5774 57.9893 73.0681 57.872 73.6228 57.872C74.8494 57.872 75.7188 58.3467 76.2308 59.296C76.5188 58.8587 76.9028 58.512 77.3828 58.256C77.8734 58 78.4068 57.872 78.9828 57.872C80.0174 57.872 80.8121 58.1813 81.3668 58.8C81.9214 59.4187 82.1988 60.3253 82.1988 61.52V66H80.1508V61.712C80.1508 61.0293 80.0174 60.5067 79.7508 60.144C79.4948 59.7813 79.0948 59.6 78.5508 59.6C77.9961 59.6 77.5481 59.8027 77.2068 60.208C76.8761 60.6133 76.7108 61.1787 76.7108 61.904V66H74.6628V61.712C74.6628 61.0293 74.5294 60.5067 74.2628 60.144C73.9961 59.7813 73.5854 59.6 73.0308 59.6C72.4868 59.6 72.0441 59.8027 71.7028 60.208C71.3721 60.6133 71.2068 61.1787 71.2068 61.904V66H69.1588ZM87.6791 66.192C86.8791 66.192 86.1698 66.0213 85.5511 65.68C84.9325 65.3387 84.4471 64.8587 84.0951 64.24C83.7431 63.6213 83.5671 62.9067 83.5671 62.096C83.5671 61.2747 83.7378 60.544 84.0791 59.904C84.4311 59.264 84.9111 58.768 85.5191 58.416C86.1378 58.0533 86.8631 57.872 87.6951 57.872C88.4738 57.872 89.1618 58.0427 89.7591 58.384C90.3565 58.7253 90.8205 59.1947 91.1511 59.792C91.4925 60.3787 91.6631 61.0347 91.6631 61.76C91.6631 61.8773 91.6578 62 91.6471 62.128C91.6471 62.256 91.6418 62.3893 91.6311 62.528H85.5991C85.6418 63.1467 85.8551 63.632 86.2391 63.984C86.6338 64.336 87.1085 64.512 87.6631 64.512C88.0791 64.512 88.4258 64.4213 88.7031 64.24C88.9911 64.048 89.2045 63.8027 89.3431 63.504H91.4231C91.2738 64.0053 91.0231 64.464 90.6711 64.88C90.3298 65.2853 89.9031 65.6053 89.3911 65.84C88.8898 66.0747 88.3191 66.192 87.6791 66.192ZM87.6951 59.536C87.1938 59.536 86.7511 59.68 86.3671 59.968C85.9831 60.2453 85.7378 60.672 85.6311 61.248H89.5831C89.5511 60.7253 89.3591 60.3093 89.0071 60C88.6551 59.6907 88.2178 59.536 87.6951 59.536ZM93.0656 66V58.064H94.8896L95.0816 59.552C95.3696 59.04 95.759 58.6347 96.2496 58.336C96.751 58.0267 97.3376 57.872 98.0096 57.872V60.032H97.4336C96.9856 60.032 96.5856 60.1013 96.2336 60.24C95.8816 60.3787 95.6043 60.6187 95.4016 60.96C95.2096 61.3013 95.1136 61.776 95.1136 62.384V66H93.0656ZM102.369 66.192C101.665 66.192 101.047 66.08 100.513 65.856C99.98 65.6213 99.5534 65.3013 99.2334 64.896C98.9134 64.4907 98.7214 64.0213 98.6574 63.488H100.721C100.785 63.7973 100.956 64.064 101.233 64.288C101.521 64.5013 101.889 64.608 102.337 64.608C102.785 64.608 103.111 64.5173 103.313 64.336C103.527 64.1547 103.633 63.9467 103.633 63.712C103.633 63.3707 103.484 63.1413 103.185 63.024C102.887 62.896 102.471 62.7733 101.937 62.656C101.596 62.5813 101.249 62.4907 100.897 62.384C100.545 62.2773 100.22 62.144 99.9214 61.984C99.6334 61.8133 99.3987 61.6 99.2174 61.344C99.036 61.0773 98.9454 60.752 98.9454 60.368C98.9454 59.664 99.2227 59.072 99.7774 58.592C100.343 58.112 101.132 57.872 102.145 57.872C103.084 57.872 103.831 58.0907 104.385 58.528C104.951 58.9653 105.287 59.568 105.393 60.336H103.457C103.34 59.7493 102.897 59.456 102.129 59.456C101.745 59.456 101.447 59.5307 101.233 59.68C101.031 59.8293 100.929 60.016 100.929 60.24C100.929 60.4747 101.084 60.6613 101.393 60.8C101.703 60.9387 102.113 61.0667 102.625 61.184C103.18 61.312 103.687 61.456 104.145 61.616C104.615 61.7653 104.988 61.9947 105.265 62.304C105.543 62.6027 105.681 63.0347 105.681 63.6C105.692 64.0907 105.564 64.5333 105.297 64.928C105.031 65.3227 104.647 65.632 104.145 65.856C103.644 66.08 103.052 66.192 102.369 66.192Z" fill="black"/>
<path d="M30.704 94.144C29.88 94.144 29.156 93.964 28.532 93.604C27.916 93.236 27.432 92.724 27.08 92.068C26.736 91.412 26.564 90.656 26.564 89.8C26.564 88.944 26.736 88.192 27.08 87.544C27.432 86.888 27.916 86.376 28.532 86.008C29.156 85.64 29.88 85.456 30.704 85.456C31.536 85.456 32.26 85.64 32.876 86.008C33.5 86.376 33.984 86.888 34.328 87.544C34.672 88.192 34.844 88.944 34.844 89.8C34.844 90.656 34.672 91.412 34.328 92.068C33.984 92.724 33.5 93.236 32.876 93.604C32.26 93.964 31.536 94.144 30.704 94.144ZM30.704 93.256C31.32 93.256 31.86 93.12 32.324 92.848C32.796 92.568 33.16 92.172 33.416 91.66C33.68 91.14 33.812 90.52 33.812 89.8C33.812 89.08 33.68 88.464 33.416 87.952C33.16 87.44 32.796 87.048 32.324 86.776C31.86 86.496 31.32 86.356 30.704 86.356C30.088 86.356 29.544 86.496 29.072 86.776C28.608 87.048 28.244 87.44 27.98 87.952C27.724 88.464 27.596 89.08 27.596 89.8C27.596 90.52 27.724 91.14 27.98 91.66C28.244 92.172 28.608 92.568 29.072 92.848C29.544 93.12 30.088 93.256 30.704 93.256ZM36.2382 94V88.048H37.1502L37.2342 89.188C37.4182 88.796 37.6982 88.484 38.0742 88.252C38.4502 88.02 38.9142 87.904 39.4662 87.904V88.96H39.1902C38.8382 88.96 38.5142 89.024 38.2182 89.152C37.9222 89.272 37.6862 89.48 37.5102 89.776C37.3342 90.072 37.2462 90.48 37.2462 91V94H36.2382ZM42.8089 92.128C42.4729 92.128 42.1649 92.084 41.8849 91.996L41.2849 92.56C41.3729 92.624 41.4809 92.68 41.6089 92.728C41.7449 92.768 41.9369 92.808 42.1849 92.848C42.4329 92.88 42.7809 92.916 43.2289 92.956C44.0289 93.012 44.6009 93.196 44.9449 93.508C45.2889 93.82 45.4609 94.228 45.4609 94.732C45.4609 95.076 45.3649 95.404 45.1729 95.716C44.9889 96.028 44.7009 96.284 44.3089 96.484C43.9249 96.684 43.4289 96.784 42.8209 96.784C42.2849 96.784 41.8089 96.712 41.3929 96.568C40.9769 96.432 40.6529 96.22 40.4209 95.932C40.1889 95.652 40.0729 95.296 40.0729 94.864C40.0729 94.64 40.1329 94.396 40.2529 94.132C40.3729 93.876 40.5969 93.632 40.9249 93.4C40.7489 93.328 40.5969 93.252 40.4689 93.172C40.3489 93.084 40.2369 92.988 40.1329 92.884V92.608L41.1529 91.6C40.6809 91.2 40.4449 90.672 40.4449 90.016C40.4449 89.624 40.5369 89.268 40.7209 88.948C40.9049 88.628 41.1729 88.376 41.5249 88.192C41.8769 88 42.3049 87.904 42.8089 87.904C43.1529 87.904 43.4649 87.952 43.7449 88.048H45.9409V88.804L44.8249 88.852C45.0569 89.188 45.1729 89.576 45.1729 90.016C45.1729 90.408 45.0769 90.764 44.8849 91.084C44.7009 91.404 44.4329 91.66 44.0809 91.852C43.7369 92.036 43.3129 92.128 42.8089 92.128ZM42.8089 91.3C43.2329 91.3 43.5689 91.192 43.8169 90.976C44.0729 90.752 44.2009 90.432 44.2009 90.016C44.2009 89.608 44.0729 89.296 43.8169 89.08C43.5689 88.856 43.2329 88.744 42.8089 88.744C42.3769 88.744 42.0329 88.856 41.7769 89.08C41.5289 89.296 41.4049 89.608 41.4049 90.016C41.4049 90.432 41.5289 90.752 41.7769 90.976C42.0329 91.192 42.3769 91.3 42.8089 91.3ZM41.0569 94.768C41.0569 95.168 41.2249 95.464 41.5609 95.656C41.8969 95.856 42.3169 95.956 42.8209 95.956C43.3169 95.956 43.7129 95.848 44.0089 95.632C44.3129 95.416 44.4649 95.128 44.4649 94.768C44.4649 94.512 44.3609 94.288 44.1529 94.096C43.9449 93.912 43.5609 93.804 43.0009 93.772C42.5609 93.74 42.1809 93.7 41.8609 93.652C41.5329 93.828 41.3169 94.016 41.2129 94.216C41.1089 94.424 41.0569 94.608 41.0569 94.768ZM49.058 94.144C48.562 94.144 48.15 94.06 47.822 93.892C47.494 93.724 47.25 93.5 47.09 93.22C46.93 92.94 46.85 92.636 46.85 92.308C46.85 91.7 47.082 91.232 47.546 90.904C48.01 90.576 48.642 90.412 49.442 90.412H51.05V90.34C51.05 89.82 50.914 89.428 50.642 89.164C50.37 88.892 50.006 88.756 49.55 88.756C49.158 88.756 48.818 88.856 48.53 89.056C48.25 89.248 48.074 89.532 48.002 89.908H46.97C47.01 89.476 47.154 89.112 47.402 88.816C47.658 88.52 47.974 88.296 48.35 88.144C48.726 87.984 49.126 87.904 49.55 87.904C50.382 87.904 51.006 88.128 51.422 88.576C51.846 89.016 52.058 89.604 52.058 90.34V94H51.158L51.098 92.932C50.93 93.268 50.682 93.556 50.354 93.796C50.034 94.028 49.602 94.144 49.058 94.144ZM49.214 93.292C49.598 93.292 49.926 93.192 50.198 92.992C50.478 92.792 50.69 92.532 50.834 92.212C50.978 91.892 51.05 91.556 51.05 91.204V91.192H49.526C48.934 91.192 48.514 91.296 48.266 91.504C48.026 91.704 47.906 91.956 47.906 92.26C47.906 92.572 48.018 92.824 48.242 93.016C48.474 93.2 48.798 93.292 49.214 93.292ZM53.5702 94V88.048H54.4822L54.5422 89.116C54.7342 88.74 55.0102 88.444 55.3702 88.228C55.7302 88.012 56.1382 87.904 56.5942 87.904C57.2982 87.904 57.8582 88.12 58.2742 88.552C58.6982 88.976 58.9102 89.632 58.9102 90.52V94H57.9022V90.628C57.9022 89.388 57.3902 88.768 56.3662 88.768C55.8542 88.768 55.4262 88.956 55.0822 89.332C54.7462 89.7 54.5782 90.228 54.5782 90.916V94H53.5702ZM61.0494 86.728C60.8494 86.728 60.6814 86.664 60.5454 86.536C60.4174 86.4 60.3534 86.232 60.3534 86.032C60.3534 85.84 60.4174 85.68 60.5454 85.552C60.6814 85.424 60.8494 85.36 61.0494 85.36C61.2414 85.36 61.4054 85.424 61.5414 85.552C61.6774 85.68 61.7454 85.84 61.7454 86.032C61.7454 86.232 61.6774 86.4 61.5414 86.536C61.4054 86.664 61.2414 86.728 61.0494 86.728ZM60.5454 94V88.048H61.5534V94H60.5454ZM65.5885 94.144C64.8765 94.144 64.2845 93.964 63.8125 93.604C63.3405 93.244 63.0645 92.756 62.9845 92.14H64.0165C64.0805 92.452 64.2445 92.724 64.5085 92.956C64.7805 93.18 65.1445 93.292 65.6005 93.292C66.0245 93.292 66.3365 93.204 66.5365 93.028C66.7365 92.844 66.8365 92.628 66.8365 92.38C66.8365 92.02 66.7045 91.78 66.4405 91.66C66.1845 91.54 65.8205 91.432 65.3485 91.336C65.0285 91.272 64.7085 91.18 64.3885 91.06C64.0685 90.94 63.8005 90.772 63.5845 90.556C63.3685 90.332 63.2605 90.04 63.2605 89.68C63.2605 89.16 63.4525 88.736 63.8365 88.408C64.2285 88.072 64.7565 87.904 65.4205 87.904C66.0525 87.904 66.5685 88.064 66.9685 88.384C67.3765 88.696 67.6125 89.144 67.6765 89.728H66.6805C66.6405 89.424 66.5085 89.188 66.2845 89.02C66.0685 88.844 65.7765 88.756 65.4085 88.756C65.0485 88.756 64.7685 88.832 64.5685 88.984C64.3765 89.136 64.2805 89.336 64.2805 89.584C64.2805 89.824 64.4045 90.012 64.6525 90.148C64.9085 90.284 65.2525 90.4 65.6845 90.496C66.0525 90.576 66.4005 90.676 66.7285 90.796C67.0645 90.908 67.3365 91.08 67.5445 91.312C67.7605 91.536 67.8685 91.864 67.8685 92.296C67.8765 92.832 67.6725 93.276 67.2565 93.628C66.8485 93.972 66.2925 94.144 65.5885 94.144ZM71.9845 94.144C71.4165 94.144 70.9125 94.016 70.4725 93.76C70.0325 93.496 69.6845 93.132 69.4285 92.668C69.1805 92.204 69.0565 91.656 69.0565 91.024C69.0565 90.4 69.1805 89.856 69.4285 89.392C69.6765 88.92 70.0205 88.556 70.4605 88.3C70.9085 88.036 71.4245 87.904 72.0085 87.904C72.5845 87.904 73.0805 88.036 73.4965 88.3C73.9205 88.556 74.2445 88.896 74.4685 89.32C74.6925 89.744 74.8045 90.2 74.8045 90.688C74.8045 90.776 74.8005 90.864 74.7925 90.952C74.7925 91.04 74.7925 91.14 74.7925 91.252H70.0525C70.0765 91.708 70.1805 92.088 70.3645 92.392C70.5565 92.688 70.7925 92.912 71.0725 93.064C71.3605 93.216 71.6645 93.292 71.9845 93.292C72.4005 93.292 72.7485 93.196 73.0285 93.004C73.3085 92.812 73.5125 92.552 73.6405 92.224H74.6365C74.4765 92.776 74.1685 93.236 73.7125 93.604C73.2645 93.964 72.6885 94.144 71.9845 94.144ZM71.9845 88.756C71.5045 88.756 71.0765 88.904 70.7005 89.2C70.3325 89.488 70.1205 89.912 70.0645 90.472H73.8085C73.7845 89.936 73.6005 89.516 73.2565 89.212C72.9125 88.908 72.4885 88.756 71.9845 88.756ZM78.8405 94.144C78.2485 94.144 77.7285 94.008 77.2805 93.736C76.8405 93.464 76.4965 93.092 76.2485 92.62C76.0085 92.148 75.8885 91.612 75.8885 91.012C75.8885 90.412 76.0125 89.88 76.2605 89.416C76.5085 88.944 76.8525 88.576 77.2925 88.312C77.7325 88.04 78.2525 87.904 78.8525 87.904C79.3405 87.904 79.7725 88.004 80.1485 88.204C80.5245 88.404 80.8165 88.684 81.0245 89.044V85.36H82.0325V94H81.1205L81.0245 93.016C80.8325 93.304 80.5565 93.564 80.1965 93.796C79.8365 94.028 79.3845 94.144 78.8405 94.144ZM78.9485 93.268C79.3485 93.268 79.7005 93.176 80.0045 92.992C80.3165 92.8 80.5565 92.536 80.7245 92.2C80.9005 91.864 80.9885 91.472 80.9885 91.024C80.9885 90.576 80.9005 90.184 80.7245 89.848C80.5565 89.512 80.3165 89.252 80.0045 89.068C79.7005 88.876 79.3485 88.78 78.9485 88.78C78.5565 88.78 78.2045 88.876 77.8925 89.068C77.5885 89.252 77.3485 89.512 77.1725 89.848C77.0045 90.184 76.9205 90.576 76.9205 91.024C76.9205 91.472 77.0045 91.864 77.1725 92.2C77.3485 92.536 77.5885 92.8 77.8925 92.992C78.2045 93.176 78.5565 93.268 78.9485 93.268ZM86.8514 94V88.048H87.7634L87.8474 89.188C88.0314 88.796 88.3114 88.484 88.6874 88.252C89.0634 88.02 89.5274 87.904 90.0794 87.904V88.96H89.8034C89.4514 88.96 89.1274 89.024 88.8314 89.152C88.5354 89.272 88.2994 89.48 88.1234 89.776C87.9474 90.072 87.8594 90.48 87.8594 91V94H86.8514ZM93.6642 94.144C93.0962 94.144 92.5922 94.016 92.1522 93.76C91.7122 93.496 91.3642 93.132 91.1082 92.668C90.8602 92.204 90.7362 91.656 90.7362 91.024C90.7362 90.4 90.8602 89.856 91.1082 89.392C91.3562 88.92 91.7002 88.556 92.1402 88.3C92.5882 88.036 93.1042 87.904 93.6882 87.904C94.2642 87.904 94.7602 88.036 95.1762 88.3C95.6002 88.556 95.9242 88.896 96.1482 89.32C96.3722 89.744 96.4842 90.2 96.4842 90.688C96.4842 90.776 96.4802 90.864 96.4722 90.952C96.4722 91.04 96.4722 91.14 96.4722 91.252H91.7322C91.7562 91.708 91.8602 92.088 92.0442 92.392C92.2362 92.688 92.4722 92.912 92.7522 93.064C93.0402 93.216 93.3442 93.292 93.6642 93.292C94.0802 93.292 94.4282 93.196 94.7082 93.004C94.9882 92.812 95.1922 92.552 95.3202 92.224H96.3162C96.1562 92.776 95.8482 93.236 95.3922 93.604C94.9442 93.964 94.3682 94.144 93.6642 94.144ZM93.6642 88.756C93.1842 88.756 92.7562 88.904 92.3802 89.2C92.0122 89.488 91.8002 89.912 91.7442 90.472H95.4882C95.4642 89.936 95.2802 89.516 94.9362 89.212C94.5922 88.908 94.1682 88.756 93.6642 88.756ZM97.8202 94V85.36H98.8282V94H97.8202ZM102.46 94.144C101.964 94.144 101.552 94.06 101.224 93.892C100.896 93.724 100.652 93.5 100.492 93.22C100.332 92.94 100.252 92.636 100.252 92.308C100.252 91.7 100.484 91.232 100.948 90.904C101.412 90.576 102.044 90.412 102.844 90.412H104.452V90.34C104.452 89.82 104.316 89.428 104.044 89.164C103.772 88.892 103.408 88.756 102.952 88.756C102.56 88.756 102.22 88.856 101.932 89.056C101.652 89.248 101.476 89.532 101.404 89.908H100.372C100.412 89.476 100.556 89.112 100.804 88.816C101.06 88.52 101.376 88.296 101.752 88.144C102.128 87.984 102.528 87.904 102.952 87.904C103.784 87.904 104.408 88.128 104.824 88.576C105.248 89.016 105.46 89.604 105.46 90.34V94H104.56L104.5 92.932C104.332 93.268 104.084 93.556 103.756 93.796C103.436 94.028 103.004 94.144 102.46 94.144ZM102.616 93.292C103 93.292 103.328 93.192 103.6 92.992C103.88 92.792 104.092 92.532 104.236 92.212C104.38 91.892 104.452 91.556 104.452 91.204V91.192H102.928C102.336 91.192 101.916 91.296 101.668 91.504C101.428 91.704 101.308 91.956 101.308 92.26C101.308 92.572 101.42 92.824 101.644 93.016C101.876 93.2 102.2 93.292 102.616 93.292ZM109.16 94C108.616 94 108.188 93.868 107.876 93.604C107.564 93.34 107.408 92.864 107.408 92.176V88.9H106.376V88.048H107.408L107.54 86.62H108.416V88.048H110.168V88.9H108.416V92.176C108.416 92.552 108.492 92.808 108.644 92.944C108.796 93.072 109.064 93.136 109.448 93.136H110.072V94H109.16ZM112.061 86.728C111.861 86.728 111.693 86.664 111.557 86.536C111.429 86.4 111.365 86.232 111.365 86.032C111.365 85.84 111.429 85.68 111.557 85.552C111.693 85.424 111.861 85.36 112.061 85.36C112.253 85.36 112.417 85.424 112.553 85.552C112.689 85.68 112.757 85.84 112.757 86.032C112.757 86.232 112.689 86.4 112.553 86.536C112.417 86.664 112.253 86.728 112.061 86.728ZM111.557 94V88.048H112.565V94H111.557ZM117.032 94.144C116.472 94.144 115.968 94.016 115.52 93.76C115.072 93.504 114.716 93.144 114.452 92.68C114.196 92.208 114.068 91.656 114.068 91.024C114.068 90.392 114.2 89.844 114.464 89.38C114.728 88.908 115.084 88.544 115.532 88.288C115.988 88.032 116.496 87.904 117.056 87.904C117.616 87.904 118.12 88.032 118.568 88.288C119.016 88.544 119.368 88.908 119.624 89.38C119.888 89.844 120.02 90.392 120.02 91.024C120.02 91.656 119.888 92.208 119.624 92.68C119.36 93.144 119 93.504 118.544 93.76C118.096 94.016 117.592 94.144 117.032 94.144ZM117.032 93.28C117.376 93.28 117.696 93.196 117.992 93.028C118.288 92.86 118.528 92.608 118.712 92.272C118.896 91.936 118.988 91.52 118.988 91.024C118.988 90.528 118.896 90.112 118.712 89.776C118.536 89.44 118.3 89.188 118.004 89.02C117.708 88.852 117.392 88.768 117.056 88.768C116.712 88.768 116.392 88.852 116.096 89.02C115.8 89.188 115.56 89.44 115.376 89.776C115.192 90.112 115.1 90.528 115.1 91.024C115.1 91.52 115.192 91.936 115.376 92.272C115.56 92.608 115.796 92.86 116.084 93.028C116.38 93.196 116.696 93.28 117.032 93.28ZM121.422 94V88.048H122.334L122.394 89.116C122.586 88.74 122.862 88.444 123.222 88.228C123.582 88.012 123.99 87.904 124.446 87.904C125.15 87.904 125.71 88.12 126.126 88.552C126.55 88.976 126.762 89.632 126.762 90.52V94H125.754V90.628C125.754 89.388 125.242 88.768 124.218 88.768C123.706 88.768 123.278 88.956 122.934 89.332C122.598 89.7 122.43 90.228 122.43 90.916V94H121.422ZM130.569 94.144C129.857 94.144 129.265 93.964 128.793 93.604C128.321 93.244 128.045 92.756 127.965 92.14H128.997C129.061 92.452 129.225 92.724 129.489 92.956C129.761 93.18 130.125 93.292 130.581 93.292C131.005 93.292 131.317 93.204 131.517 93.028C131.717 92.844 131.817 92.628 131.817 92.38C131.817 92.02 131.685 91.78 131.421 91.66C131.165 91.54 130.801 91.432 130.329 91.336C130.009 91.272 129.689 91.18 129.369 91.06C129.049 90.94 128.781 90.772 128.565 90.556C128.349 90.332 128.241 90.04 128.241 89.68C128.241 89.16 128.433 88.736 128.817 88.408C129.209 88.072 129.737 87.904 130.401 87.904C131.033 87.904 131.549 88.064 131.949 88.384C132.357 88.696 132.593 89.144 132.657 89.728H131.661C131.621 89.424 131.489 89.188 131.265 89.02C131.049 88.844 130.757 88.756 130.389 88.756C130.029 88.756 129.749 88.832 129.549 88.984C129.357 89.136 129.261 89.336 129.261 89.584C129.261 89.824 129.385 90.012 129.633 90.148C129.889 90.284 130.233 90.4 130.665 90.496C131.033 90.576 131.381 90.676 131.709 90.796C132.045 90.908 132.317 91.08 132.525 91.312C132.741 91.536 132.849 91.864 132.849 92.296C132.857 92.832 132.653 93.276 132.237 93.628C131.829 93.972 131.273 94.144 130.569 94.144ZM134.289 94V85.36H135.297V89.068C135.497 88.7 135.781 88.416 136.149 88.216C136.517 88.008 136.917 87.904 137.349 87.904C138.037 87.904 138.589 88.12 139.005 88.552C139.421 88.976 139.629 89.632 139.629 90.52V94H138.633V90.628C138.633 89.388 138.133 88.768 137.133 88.768C136.613 88.768 136.177 88.956 135.825 89.332C135.473 89.7 135.297 90.228 135.297 90.916V94H134.289ZM141.768 86.728C141.568 86.728 141.4 86.664 141.264 86.536C141.136 86.4 141.072 86.232 141.072 86.032C141.072 85.84 141.136 85.68 141.264 85.552C141.4 85.424 141.568 85.36 141.768 85.36C141.96 85.36 142.124 85.424 142.26 85.552C142.396 85.68 142.464 85.84 142.464 86.032C142.464 86.232 142.396 86.4 142.26 86.536C142.124 86.664 141.96 86.728 141.768 86.728ZM141.264 94V88.048H142.272V94H141.264ZM144.027 96.64V88.048H144.939L145.035 89.032C145.227 88.744 145.499 88.484 145.851 88.252C146.211 88.02 146.667 87.904 147.219 87.904C147.811 87.904 148.327 88.04 148.767 88.312C149.207 88.584 149.547 88.956 149.787 89.428C150.035 89.9 150.159 90.436 150.159 91.036C150.159 91.636 150.035 92.172 149.787 92.644C149.547 93.108 149.203 93.476 148.755 93.748C148.315 94.012 147.799 94.144 147.207 94.144C146.719 94.144 146.283 94.044 145.899 93.844C145.523 93.644 145.235 93.364 145.035 93.004V96.64H144.027ZM147.099 93.268C147.499 93.268 147.851 93.176 148.155 92.992C148.459 92.8 148.699 92.536 148.875 92.2C149.051 91.864 149.139 91.472 149.139 91.024C149.139 90.576 149.051 90.184 148.875 89.848C148.699 89.512 148.459 89.252 148.155 89.068C147.851 88.876 147.499 88.78 147.099 88.78C146.699 88.78 146.347 88.876 146.043 89.068C145.739 89.252 145.499 89.512 145.323 89.848C145.147 90.184 145.059 90.576 145.059 91.024C145.059 91.472 145.147 91.864 145.323 92.2C145.499 92.536 145.739 92.8 146.043 92.992C146.347 93.176 146.699 93.268 147.099 93.268ZM153.842 94.144C153.13 94.144 152.538 93.964 152.066 93.604C151.594 93.244 151.318 92.756 151.238 92.14H152.27C152.334 92.452 152.498 92.724 152.762 92.956C153.034 93.18 153.398 93.292 153.854 93.292C154.278 93.292 154.59 93.204 154.79 93.028C154.99 92.844 155.09 92.628 155.09 92.38C155.09 92.02 154.958 91.78 154.694 91.66C154.438 91.54 154.074 91.432 153.602 91.336C153.282 91.272 152.962 91.18 152.642 91.06C152.322 90.94 152.054 90.772 151.838 90.556C151.622 90.332 151.514 90.04 151.514 89.68C151.514 89.16 151.706 88.736 152.09 88.408C152.482 88.072 153.01 87.904 153.674 87.904C154.306 87.904 154.822 88.064 155.222 88.384C155.63 88.696 155.866 89.144 155.93 89.728H154.934C154.894 89.424 154.762 89.188 154.538 89.02C154.322 88.844 154.03 88.756 153.662 88.756C153.302 88.756 153.022 88.832 152.822 88.984C152.63 89.136 152.534 89.336 152.534 89.584C152.534 89.824 152.658 90.012 152.906 90.148C153.162 90.284 153.506 90.4 153.938 90.496C154.306 90.576 154.654 90.676 154.982 90.796C155.318 90.908 155.59 91.08 155.798 91.312C156.014 91.536 156.122 91.864 156.122 92.296C156.13 92.832 155.926 93.276 155.51 93.628C155.102 93.972 154.546 94.144 153.842 94.144ZM162.718 94.144C162.222 94.144 161.81 94.06 161.482 93.892C161.154 93.724 160.91 93.5 160.75 93.22C160.59 92.94 160.51 92.636 160.51 92.308C160.51 91.7 160.742 91.232 161.206 90.904C161.67 90.576 162.302 90.412 163.102 90.412H164.71V90.34C164.71 89.82 164.574 89.428 164.302 89.164C164.03 88.892 163.666 88.756 163.21 88.756C162.818 88.756 162.478 88.856 162.19 89.056C161.91 89.248 161.734 89.532 161.662 89.908H160.63C160.67 89.476 160.814 89.112 161.062 88.816C161.318 88.52 161.634 88.296 162.01 88.144C162.386 87.984 162.786 87.904 163.21 87.904C164.042 87.904 164.666 88.128 165.082 88.576C165.506 89.016 165.718 89.604 165.718 90.34V94H164.818L164.758 92.932C164.59 93.268 164.342 93.556 164.014 93.796C163.694 94.028 163.262 94.144 162.718 94.144ZM162.874 93.292C163.258 93.292 163.586 93.192 163.858 92.992C164.138 92.792 164.35 92.532 164.494 92.212C164.638 91.892 164.71 91.556 164.71 91.204V91.192H163.186C162.594 91.192 162.174 91.296 161.926 91.504C161.686 91.704 161.566 91.956 161.566 92.26C161.566 92.572 161.678 92.824 161.902 93.016C162.134 93.2 162.458 93.292 162.874 93.292ZM167.23 94V88.048H168.142L168.226 89.188C168.41 88.796 168.69 88.484 169.066 88.252C169.442 88.02 169.906 87.904 170.458 87.904V88.96H170.182C169.83 88.96 169.506 89.024 169.21 89.152C168.914 89.272 168.678 89.48 168.502 89.776C168.326 90.072 168.238 90.48 168.238 91V94H167.23ZM174.043 94.144C173.475 94.144 172.971 94.016 172.531 93.76C172.091 93.496 171.743 93.132 171.487 92.668C171.239 92.204 171.115 91.656 171.115 91.024C171.115 90.4 171.239 89.856 171.487 89.392C171.735 88.92 172.079 88.556 172.519 88.3C172.967 88.036 173.483 87.904 174.067 87.904C174.643 87.904 175.139 88.036 175.555 88.3C175.979 88.556 176.303 88.896 176.527 89.32C176.751 89.744 176.863 90.2 176.863 90.688C176.863 90.776 176.859 90.864 176.851 90.952C176.851 91.04 176.851 91.14 176.851 91.252H172.111C172.135 91.708 172.239 92.088 172.423 92.392C172.615 92.688 172.851 92.912 173.131 93.064C173.419 93.216 173.723 93.292 174.043 93.292C174.459 93.292 174.807 93.196 175.087 93.004C175.367 92.812 175.571 92.552 175.699 92.224H176.695C176.535 92.776 176.227 93.236 175.771 93.604C175.323 93.964 174.747 94.144 174.043 94.144ZM174.043 88.756C173.563 88.756 173.135 88.904 172.759 89.2C172.391 89.488 172.179 89.912 172.123 90.472H175.867C175.843 89.936 175.659 89.516 175.315 89.212C174.971 88.908 174.547 88.756 174.043 88.756ZM29.18 112C28.636 112 28.208 111.868 27.896 111.604C27.584 111.34 27.428 110.864 27.428 110.176V106.9H26.396V106.048H27.428L27.56 104.62H28.436V106.048H30.188V106.9H28.436V110.176C28.436 110.552 28.512 110.808 28.664 110.944C28.816 111.072 29.084 111.136 29.468 111.136H30.092V112H29.18ZM31.4686 112V103.36H32.4766V107.068C32.6766 106.7 32.9606 106.416 33.3286 106.216C33.6966 106.008 34.0966 105.904 34.5286 105.904C35.2166 105.904 35.7686 106.12 36.1846 106.552C36.6006 106.976 36.8086 107.632 36.8086 108.52V112H35.8126V108.628C35.8126 107.388 35.3126 106.768 34.3126 106.768C33.7926 106.768 33.3566 106.956 33.0046 107.332C32.6526 107.7 32.4766 108.228 32.4766 108.916V112H31.4686ZM41.0118 112.144C40.4438 112.144 39.9398 112.016 39.4998 111.76C39.0598 111.496 38.7118 111.132 38.4558 110.668C38.2078 110.204 38.0838 109.656 38.0838 109.024C38.0838 108.4 38.2078 107.856 38.4558 107.392C38.7038 106.92 39.0478 106.556 39.4878 106.3C39.9358 106.036 40.4518 105.904 41.0358 105.904C41.6118 105.904 42.1078 106.036 42.5238 106.3C42.9478 106.556 43.2718 106.896 43.4958 107.32C43.7198 107.744 43.8318 108.2 43.8318 108.688C43.8318 108.776 43.8278 108.864 43.8198 108.952C43.8198 109.04 43.8198 109.14 43.8198 109.252H39.0798C39.1038 109.708 39.2078 110.088 39.3918 110.392C39.5838 110.688 39.8198 110.912 40.0998 111.064C40.3878 111.216 40.6918 111.292 41.0118 111.292C41.4278 111.292 41.7758 111.196 42.0558 111.004C42.3358 110.812 42.5398 110.552 42.6678 110.224H43.6638C43.5038 110.776 43.1958 111.236 42.7398 111.604C42.2918 111.964 41.7158 112.144 41.0118 112.144ZM41.0118 106.756C40.5318 106.756 40.1038 106.904 39.7278 107.2C39.3598 107.488 39.1478 107.912 39.0918 108.472H42.8358C42.8118 107.936 42.6278 107.516 42.2838 107.212C41.9398 106.908 41.5158 106.756 41.0118 106.756ZM48.3436 112V103.36H49.3516V108.556L51.7876 106.048H53.0236L50.3836 108.736L53.3596 112H52.0756L49.3516 108.916V112H48.3436ZM56.6329 112.144C56.0649 112.144 55.5609 112.016 55.1209 111.76C54.6809 111.496 54.3329 111.132 54.0769 110.668C53.8289 110.204 53.7049 109.656 53.7049 109.024C53.7049 108.4 53.8289 107.856 54.0769 107.392C54.3249 106.92 54.6689 106.556 55.1089 106.3C55.5569 106.036 56.0729 105.904 56.6569 105.904C57.2329 105.904 57.7289 106.036 58.1449 106.3C58.5689 106.556 58.8929 106.896 59.1169 107.32C59.3409 107.744 59.4529 108.2 59.4529 108.688C59.4529 108.776 59.4489 108.864 59.4409 108.952C59.4409 109.04 59.4409 109.14 59.4409 109.252H54.7009C54.7249 109.708 54.8289 110.088 55.0129 110.392C55.2049 110.688 55.4409 110.912 55.7209 111.064C56.0089 111.216 56.3129 111.292 56.6329 111.292C57.0489 111.292 57.3969 111.196 57.6769 111.004C57.9569 110.812 58.1609 110.552 58.2889 110.224H59.2849C59.1249 110.776 58.8169 111.236 58.3609 111.604C57.9129 111.964 57.3369 112.144 56.6329 112.144ZM56.6329 106.756C56.1529 106.756 55.7249 106.904 55.3489 107.2C54.9809 107.488 54.7689 107.912 54.7129 108.472H58.4569C58.4329 107.936 58.2489 107.516 57.9049 107.212C57.5609 106.908 57.1369 106.756 56.6329 106.756ZM61.2026 114.64L62.6786 111.424H62.3306L59.9666 106.048H61.0586L63.0266 110.68L65.1146 106.048H66.1586L62.2586 114.64H61.2026ZM72.7503 112C72.2063 112 71.7783 111.868 71.4663 111.604C71.1543 111.34 70.9983 110.864 70.9983 110.176V106.9H69.9663V106.048H70.9983L71.1303 104.62H72.0063V106.048H73.7583V106.9H72.0063V110.176C72.0063 110.552 72.0823 110.808 72.2343 110.944C72.3863 111.072 72.6543 111.136 73.0383 111.136H73.6623V112H72.7503ZM77.5869 112.144C77.0269 112.144 76.5229 112.016 76.0749 111.76C75.6269 111.504 75.2709 111.144 75.0069 110.68C74.7509 110.208 74.6229 109.656 74.6229 109.024C74.6229 108.392 74.7549 107.844 75.0189 107.38C75.2829 106.908 75.6389 106.544 76.0869 106.288C76.5429 106.032 77.0509 105.904 77.6109 105.904C78.1709 105.904 78.6749 106.032 79.1229 106.288C79.5709 106.544 79.9229 106.908 80.1789 107.38C80.4429 107.844 80.5749 108.392 80.5749 109.024C80.5749 109.656 80.4429 110.208 80.1789 110.68C79.9149 111.144 79.5549 111.504 79.0989 111.76C78.6509 112.016 78.1469 112.144 77.5869 112.144ZM77.5869 111.28C77.9309 111.28 78.2509 111.196 78.5469 111.028C78.8429 110.86 79.0829 110.608 79.2669 110.272C79.4509 109.936 79.5429 109.52 79.5429 109.024C79.5429 108.528 79.4509 108.112 79.2669 107.776C79.0909 107.44 78.8549 107.188 78.5589 107.02C78.2629 106.852 77.9469 106.768 77.6109 106.768C77.2669 106.768 76.9469 106.852 76.6509 107.02C76.3549 107.188 76.1149 107.44 75.9309 107.776C75.7469 108.112 75.6549 108.528 75.6549 109.024C75.6549 109.52 75.7469 109.936 75.9309 110.272C76.1149 110.608 76.3509 110.86 76.6389 111.028C76.9349 111.196 77.2509 111.28 77.5869 111.28ZM86.3522 112L84.6122 106.048H85.6202L86.8802 110.716L88.2722 106.048H89.4122L90.8162 110.716L92.0642 106.048H93.0842L91.3442 112H90.3122L88.8482 107.092L87.3842 112H86.3522ZM96.6884 112.144C96.1284 112.144 95.6244 112.016 95.1764 111.76C94.7284 111.504 94.3724 111.144 94.1084 110.68C93.8524 110.208 93.7244 109.656 93.7244 109.024C93.7244 108.392 93.8564 107.844 94.1204 107.38C94.3844 106.908 94.7404 106.544 95.1884 106.288C95.6444 106.032 96.1524 105.904 96.7124 105.904C97.2724 105.904 97.7764 106.032 98.2244 106.288C98.6724 106.544 99.0244 106.908 99.2804 107.38C99.5444 107.844 99.6764 108.392 99.6764 109.024C99.6764 109.656 99.5444 110.208 99.2804 110.68C99.0164 111.144 98.6564 111.504 98.2004 111.76C97.7524 112.016 97.2484 112.144 96.6884 112.144ZM96.6884 111.28C97.0324 111.28 97.3524 111.196 97.6484 111.028C97.9444 110.86 98.1844 110.608 98.3684 110.272C98.5524 109.936 98.6444 109.52 98.6444 109.024C98.6444 108.528 98.5524 108.112 98.3684 107.776C98.1924 107.44 97.9564 107.188 97.6604 107.02C97.3644 106.852 97.0484 106.768 96.7124 106.768C96.3684 106.768 96.0484 106.852 95.7524 107.02C95.4564 107.188 95.2164 107.44 95.0324 107.776C94.8484 108.112 94.7564 108.528 94.7564 109.024C94.7564 109.52 94.8484 109.936 95.0324 110.272C95.2164 110.608 95.4524 110.86 95.7404 111.028C96.0364 111.196 96.3524 111.28 96.6884 111.28ZM101.078 112V106.048H101.99L102.074 107.188C102.258 106.796 102.538 106.484 102.914 106.252C103.29 106.02 103.754 105.904 104.306 105.904V106.96H104.03C103.678 106.96 103.354 107.024 103.058 107.152C102.762 107.272 102.526 107.48 102.35 107.776C102.174 108.072 102.086 108.48 102.086 109V112H101.078ZM105.437 112V103.36H106.445V108.556L108.881 106.048H110.117L107.477 108.736L110.453 112H109.169L106.445 108.916V112H105.437ZM112.096 104.728C111.896 104.728 111.728 104.664 111.592 104.536C111.464 104.4 111.4 104.232 111.4 104.032C111.4 103.84 111.464 103.68 111.592 103.552C111.728 103.424 111.896 103.36 112.096 103.36C112.288 103.36 112.452 103.424 112.588 103.552C112.724 103.68 112.792 103.84 112.792 104.032C112.792 104.232 112.724 104.4 112.588 104.536C112.452 104.664 112.288 104.728 112.096 104.728ZM111.592 112V106.048H112.6V112H111.592ZM114.355 112V106.048H115.267L115.327 107.116C115.519 106.74 115.795 106.444 116.155 106.228C116.515 106.012 116.923 105.904 117.379 105.904C118.083 105.904 118.643 106.12 119.059 106.552C119.483 106.976 119.695 107.632 119.695 108.52V112H118.687V108.628C118.687 107.388 118.175 106.768 117.151 106.768C116.639 106.768 116.211 106.956 115.867 107.332C115.531 107.7 115.363 108.228 115.363 108.916V112H114.355ZM123.575 110.128C123.239 110.128 122.931 110.084 122.651 109.996L122.051 110.56C122.139 110.624 122.247 110.68 122.375 110.728C122.511 110.768 122.703 110.808 122.951 110.848C123.199 110.88 123.547 110.916 123.995 110.956C124.795 111.012 125.367 111.196 125.711 111.508C126.055 111.82 126.227 112.228 126.227 112.732C126.227 113.076 126.131 113.404 125.939 113.716C125.755 114.028 125.467 114.284 125.075 114.484C124.691 114.684 124.195 114.784 123.587 114.784C123.051 114.784 122.575 114.712 122.159 114.568C121.743 114.432 121.419 114.22 121.187 113.932C120.955 113.652 120.839 113.296 120.839 112.864C120.839 112.64 120.899 112.396 121.019 112.132C121.139 111.876 121.363 111.632 121.691 111.4C121.515 111.328 121.363 111.252 121.235 111.172C121.115 111.084 121.003 110.988 120.899 110.884V110.608L121.919 109.6C121.447 109.2 121.211 108.672 121.211 108.016C121.211 107.624 121.303 107.268 121.487 106.948C121.671 106.628 121.939 106.376 122.291 106.192C122.643 106 123.071 105.904 123.575 105.904C123.919 105.904 124.231 105.952 124.511 106.048H126.707V106.804L125.591 106.852C125.823 107.188 125.939 107.576 125.939 108.016C125.939 108.408 125.843 108.764 125.651 109.084C125.467 109.404 125.199 109.66 124.847 109.852C124.503 110.036 124.079 110.128 123.575 110.128ZM123.575 109.3C123.999 109.3 124.335 109.192 124.583 108.976C124.839 108.752 124.967 108.432 124.967 108.016C124.967 107.608 124.839 107.296 124.583 107.08C124.335 106.856 123.999 106.744 123.575 106.744C123.143 106.744 122.799 106.856 122.543 107.08C122.295 107.296 122.171 107.608 122.171 108.016C122.171 108.432 122.295 108.752 122.543 108.976C122.799 109.192 123.143 109.3 123.575 109.3ZM121.823 112.768C121.823 113.168 121.991 113.464 122.327 113.656C122.663 113.856 123.083 113.956 123.587 113.956C124.083 113.956 124.479 113.848 124.775 113.632C125.079 113.416 125.231 113.128 125.231 112.768C125.231 112.512 125.127 112.288 124.919 112.096C124.711 111.912 124.327 111.804 123.767 111.772C123.327 111.74 122.947 111.7 122.627 111.652C122.299 111.828 122.083 112.016 121.979 112.216C121.875 112.424 121.823 112.608 121.823 112.768ZM131.343 112V106.9H130.443V106.048H131.343V105.016C131.343 104.44 131.487 104.02 131.775 103.756C132.063 103.492 132.483 103.36 133.035 103.36H133.635V104.224H133.191C132.887 104.224 132.671 104.288 132.543 104.416C132.415 104.536 132.351 104.744 132.351 105.04V106.048H133.815V106.9H132.351V112H131.343ZM137.493 112.144C136.933 112.144 136.429 112.016 135.981 111.76C135.533 111.504 135.177 111.144 134.913 110.68C134.657 110.208 134.529 109.656 134.529 109.024C134.529 108.392 134.661 107.844 134.925 107.38C135.189 106.908 135.545 106.544 135.993 106.288C136.449 106.032 136.957 105.904 137.517 105.904C138.077 105.904 138.581 106.032 139.029 106.288C139.477 106.544 139.829 106.908 140.085 107.38C140.349 107.844 140.481 108.392 140.481 109.024C140.481 109.656 140.349 110.208 140.085 110.68C139.821 111.144 139.461 111.504 139.005 111.76C138.557 112.016 138.053 112.144 137.493 112.144ZM137.493 111.28C137.837 111.28 138.157 111.196 138.453 111.028C138.749 110.86 138.989 110.608 139.173 110.272C139.357 109.936 139.449 109.52 139.449 109.024C139.449 108.528 139.357 108.112 139.173 107.776C138.997 107.44 138.761 107.188 138.465 107.02C138.169 106.852 137.853 106.768 137.517 106.768C137.173 106.768 136.853 106.852 136.557 107.02C136.261 107.188 136.021 107.44 135.837 107.776C135.653 108.112 135.561 108.528 135.561 109.024C135.561 109.52 135.653 109.936 135.837 110.272C136.021 110.608 136.257 110.86 136.545 111.028C136.841 111.196 137.157 111.28 137.493 111.28ZM141.883 112V106.048H142.795L142.879 107.188C143.063 106.796 143.343 106.484 143.719 106.252C144.095 106.02 144.559 105.904 145.111 105.904V106.96H144.835C144.483 106.96 144.159 107.024 143.863 107.152C143.567 107.272 143.331 107.48 143.155 107.776C142.979 108.072 142.891 108.48 142.891 109V112H141.883ZM150.066 114.64L151.542 111.424H151.194L148.83 106.048H149.922L151.89 110.68L153.978 106.048H155.022L151.122 114.64H150.066ZM158.235 112.144C157.675 112.144 157.171 112.016 156.723 111.76C156.275 111.504 155.919 111.144 155.655 110.68C155.399 110.208 155.271 109.656 155.271 109.024C155.271 108.392 155.403 107.844 155.667 107.38C155.931 106.908 156.287 106.544 156.735 106.288C157.191 106.032 157.699 105.904 158.259 105.904C158.819 105.904 159.323 106.032 159.771 106.288C160.219 106.544 160.571 106.908 160.827 107.38C161.091 107.844 161.223 108.392 161.223 109.024C161.223 109.656 161.091 110.208 160.827 110.68C160.563 111.144 160.203 111.504 159.747 111.76C159.299 112.016 158.795 112.144 158.235 112.144ZM158.235 111.28C158.579 111.28 158.899 111.196 159.195 111.028C159.491 110.86 159.731 110.608 159.915 110.272C160.099 109.936 160.191 109.52 160.191 109.024C160.191 108.528 160.099 108.112 159.915 107.776C159.739 107.44 159.503 107.188 159.207 107.02C158.911 106.852 158.595 106.768 158.259 106.768C157.915 106.768 157.595 106.852 157.299 107.02C157.003 107.188 156.763 107.44 156.579 107.776C156.395 108.112 156.303 108.528 156.303 109.024C156.303 109.52 156.395 109.936 156.579 110.272C156.763 110.608 156.999 110.86 157.287 111.028C157.583 111.196 157.899 111.28 158.235 111.28ZM164.797 112.144C164.093 112.144 163.533 111.932 163.117 111.508C162.701 111.076 162.493 110.416 162.493 109.528V106.048H163.501V109.42C163.501 110.66 164.009 111.28 165.025 111.28C165.545 111.28 165.973 111.096 166.309 110.728C166.653 110.352 166.825 109.82 166.825 109.132V106.048H167.833V112H166.921L166.849 110.932C166.665 111.308 166.389 111.604 166.021 111.82C165.661 112.036 165.253 112.144 164.797 112.144ZM169.492 112V106.048H170.404L170.488 107.188C170.672 106.796 170.952 106.484 171.328 106.252C171.704 106.02 172.168 105.904 172.72 105.904V106.96H172.444C172.092 106.96 171.768 107.024 171.472 107.152C171.176 107.272 170.94 107.48 170.764 107.776C170.588 108.072 170.5 108.48 170.5 109V112H169.492ZM176.131 112.144C175.419 112.144 174.827 111.964 174.355 111.604C173.883 111.244 173.607 110.756 173.527 110.14H174.559C174.623 110.452 174.787 110.724 175.051 110.956C175.323 111.18 175.687 111.292 176.143 111.292C176.567 111.292 176.879 111.204 177.079 111.028C177.279 110.844 177.379 110.628 177.379 110.38C177.379 110.02 177.247 109.78 176.983 109.66C176.727 109.54 176.363 109.432 175.891 109.336C175.571 109.272 175.251 109.18 174.931 109.06C174.611 108.94 174.343 108.772 174.127 108.556C173.911 108.332 173.803 108.04 173.803 107.68C173.803 107.16 173.995 106.736 174.379 106.408C174.771 106.072 175.299 105.904 175.963 105.904C176.595 105.904 177.111 106.064 177.511 106.384C177.919 106.696 178.155 107.144 178.219 107.728H177.223C177.183 107.424 177.051 107.188 176.827 107.02C176.611 106.844 176.319 106.756 175.951 106.756C175.591 106.756 175.311 106.832 175.111 106.984C174.919 107.136 174.823 107.336 174.823 107.584C174.823 107.824 174.947 108.012 175.195 108.148C175.451 108.284 175.795 108.4 176.227 108.496C176.595 108.576 176.943 108.676 177.271 108.796C177.607 108.908 177.879 109.08 178.087 109.312C178.303 109.536 178.411 109.864 178.411 110.296C178.419 110.832 178.215 111.276 177.799 111.628C177.391 111.972 176.835 112.144 176.131 112.144ZM182.527 112.144C181.959 112.144 181.455 112.016 181.015 111.76C180.575 111.496 180.227 111.132 179.971 110.668C179.723 110.204 179.599 109.656 179.599 109.024C179.599 108.4 179.723 107.856 179.971 107.392C180.219 106.92 180.563 106.556 181.003 106.3C181.451 106.036 181.967 105.904 182.551 105.904C183.127 105.904 183.623 106.036 184.039 106.3C184.463 106.556 184.787 106.896 185.011 107.32C185.235 107.744 185.347 108.2 185.347 108.688C185.347 108.776 185.343 108.864 185.335 108.952C185.335 109.04 185.335 109.14 185.335 109.252H180.595C180.619 109.708 180.723 110.088 180.907 110.392C181.099 110.688 181.335 110.912 181.615 111.064C181.903 111.216 182.207 111.292 182.527 111.292C182.943 111.292 183.291 111.196 183.571 111.004C183.851 110.812 184.055 110.552 184.183 110.224H185.179C185.019 110.776 184.711 111.236 184.255 111.604C183.807 111.964 183.231 112.144 182.527 112.144ZM182.527 106.756C182.047 106.756 181.619 106.904 181.243 107.2C180.875 107.488 180.663 107.912 180.607 108.472H184.351C184.327 107.936 184.143 107.516 183.799 107.212C183.455 106.908 183.031 106.756 182.527 106.756ZM186.683 112V103.36H187.691V112H186.683ZM189.668 112V106.9H188.768V106.048H189.668V105.016C189.668 104.44 189.812 104.02 190.1 103.756C190.388 103.492 190.808 103.36 191.36 103.36H191.96V104.224H191.516C191.212 104.224 190.996 104.288 190.868 104.416C190.74 104.536 190.676 104.744 190.676 105.04V106.048H192.14V106.9H190.676V112H189.668ZM28.808 130.144C28.312 130.144 27.9 130.06 27.572 129.892C27.244 129.724 27 129.5 26.84 129.22C26.68 128.94 26.6 128.636 26.6 128.308C26.6 127.7 26.832 127.232 27.296 126.904C27.76 126.576 28.392 126.412 29.192 126.412H30.8V126.34C30.8 125.82 30.664 125.428 30.392 125.164C30.12 124.892 29.756 124.756 29.3 124.756C28.908 124.756 28.568 124.856 28.28 125.056C28 125.248 27.824 125.532 27.752 125.908H26.72C26.76 125.476 26.904 125.112 27.152 124.816C27.408 124.52 27.724 124.296 28.1 124.144C28.476 123.984 28.876 123.904 29.3 123.904C30.132 123.904 30.756 124.128 31.172 124.576C31.596 125.016 31.808 125.604 31.808 126.34V130H30.908L30.848 128.932C30.68 129.268 30.432 129.556 30.104 129.796C29.784 130.028 29.352 130.144 28.808 130.144ZM28.964 129.292C29.348 129.292 29.676 129.192 29.948 128.992C30.228 128.792 30.44 128.532 30.584 128.212C30.728 127.892 30.8 127.556 30.8 127.204V127.192H29.276C28.684 127.192 28.264 127.296 28.016 127.504C27.776 127.704 27.656 127.956 27.656 128.26C27.656 128.572 27.768 128.824 27.992 129.016C28.224 129.2 28.548 129.292 28.964 129.292ZM33.3202 130V124.048H34.2322L34.2922 125.116C34.4842 124.74 34.7602 124.444 35.1202 124.228C35.4802 124.012 35.8882 123.904 36.3442 123.904C37.0482 123.904 37.6082 124.12 38.0242 124.552C38.4482 124.976 38.6602 125.632 38.6602 126.52V130H37.6522V126.628C37.6522 125.388 37.1402 124.768 36.1162 124.768C35.6042 124.768 35.1762 124.956 34.8322 125.332C34.4962 125.7 34.3282 126.228 34.3282 126.916V130H33.3202ZM42.8874 130.144C42.2954 130.144 41.7754 130.008 41.3274 129.736C40.8874 129.464 40.5434 129.092 40.2954 128.62C40.0554 128.148 39.9354 127.612 39.9354 127.012C39.9354 126.412 40.0594 125.88 40.3074 125.416C40.5554 124.944 40.8994 124.576 41.3394 124.312C41.7794 124.04 42.2994 123.904 42.8994 123.904C43.3874 123.904 43.8194 124.004 44.1954 124.204C44.5714 124.404 44.8634 124.684 45.0714 125.044V121.36H46.0794V130H45.1674L45.0714 129.016C44.8794 129.304 44.6034 129.564 44.2434 129.796C43.8834 130.028 43.4314 130.144 42.8874 130.144ZM42.9954 129.268C43.3954 129.268 43.7474 129.176 44.0514 128.992C44.3634 128.8 44.6034 128.536 44.7714 128.2C44.9474 127.864 45.0354 127.472 45.0354 127.024C45.0354 126.576 44.9474 126.184 44.7714 125.848C44.6034 125.512 44.3634 125.252 44.0514 125.068C43.7474 124.876 43.3954 124.78 42.9954 124.78C42.6034 124.78 42.2514 124.876 41.9394 125.068C41.6354 125.252 41.3954 125.512 41.2194 125.848C41.0514 126.184 40.9674 126.576 40.9674 127.024C40.9674 127.472 41.0514 127.864 41.2194 128.2C41.3954 128.536 41.6354 128.8 41.9394 128.992C42.2514 129.176 42.6034 129.268 42.9954 129.268ZM54.0783 130.144C53.5903 130.144 53.1543 130.044 52.7703 129.844C52.3943 129.644 52.1063 129.364 51.9063 129.004L51.8103 130H50.8983V121.36H51.9063V125.032C52.0983 124.744 52.3703 124.484 52.7223 124.252C53.0823 124.02 53.5383 123.904 54.0903 123.904C54.6823 123.904 55.1983 124.04 55.6383 124.312C56.0783 124.584 56.4183 124.956 56.6583 125.428C56.9063 125.9 57.0303 126.436 57.0303 127.036C57.0303 127.636 56.9063 128.172 56.6583 128.644C56.4183 129.108 56.0743 129.476 55.6263 129.748C55.1863 130.012 54.6703 130.144 54.0783 130.144ZM53.9703 129.268C54.3703 129.268 54.7223 129.176 55.0263 128.992C55.3303 128.8 55.5703 128.536 55.7463 128.2C55.9223 127.864 56.0103 127.472 56.0103 127.024C56.0103 126.576 55.9223 126.184 55.7463 125.848C55.5703 125.512 55.3303 125.252 55.0263 125.068C54.7223 124.876 54.3703 124.78 53.9703 124.78C53.5703 124.78 53.2183 124.876 52.9143 125.068C52.6103 125.252 52.3703 125.512 52.1943 125.848C52.0183 126.184 51.9303 126.576 51.9303 127.024C51.9303 127.472 52.0183 127.864 52.1943 128.2C52.3703 128.536 52.6103 128.8 52.9143 128.992C53.2183 129.176 53.5703 129.268 53.9703 129.268ZM61.1095 130.144C60.5415 130.144 60.0375 130.016 59.5975 129.76C59.1575 129.496 58.8095 129.132 58.5535 128.668C58.3055 128.204 58.1815 127.656 58.1815 127.024C58.1815 126.4 58.3055 125.856 58.5535 125.392C58.8015 124.92 59.1455 124.556 59.5855 124.3C60.0335 124.036 60.5495 123.904 61.1335 123.904C61.7095 123.904 62.2055 124.036 62.6215 124.3C63.0455 124.556 63.3695 124.896 63.5935 125.32C63.8175 125.744 63.9295 126.2 63.9295 126.688C63.9295 126.776 63.9255 126.864 63.9175 126.952C63.9175 127.04 63.9175 127.14 63.9175 127.252H59.1775C59.2015 127.708 59.3055 128.088 59.4895 128.392C59.6815 128.688 59.9175 128.912 60.1975 129.064C60.4855 129.216 60.7895 129.292 61.1095 129.292C61.5255 129.292 61.8735 129.196 62.1535 129.004C62.4335 128.812 62.6375 128.552 62.7655 128.224H63.7615C63.6015 128.776 63.2935 129.236 62.8375 129.604C62.3895 129.964 61.8135 130.144 61.1095 130.144ZM61.1095 124.756C60.6295 124.756 60.2015 124.904 59.8255 125.2C59.4575 125.488 59.2455 125.912 59.1895 126.472H62.9335C62.9095 125.936 62.7255 125.516 62.3815 125.212C62.0375 124.908 61.6135 124.756 61.1095 124.756ZM65.8775 122.728C65.6775 122.728 65.5095 122.664 65.3735 122.536C65.2455 122.4 65.1815 122.232 65.1815 122.032C65.1815 121.84 65.2455 121.68 65.3735 121.552C65.5095 121.424 65.6775 121.36 65.8775 121.36C66.0695 121.36 66.2335 121.424 66.3695 121.552C66.5055 121.68 66.5735 121.84 66.5735 122.032C66.5735 122.232 66.5055 122.4 66.3695 122.536C66.2335 122.664 66.0695 122.728 65.8775 122.728ZM65.3735 130V124.048H66.3815V130H65.3735ZM68.1366 130V124.048H69.0486L69.1086 125.116C69.3006 124.74 69.5766 124.444 69.9366 124.228C70.2966 124.012 70.7046 123.904 71.1606 123.904C71.8646 123.904 72.4246 124.12 72.8406 124.552C73.2646 124.976 73.4766 125.632 73.4766 126.52V130H72.4686V126.628C72.4686 125.388 71.9566 124.768 70.9326 124.768C70.4206 124.768 69.9926 124.956 69.6486 125.332C69.3126 125.7 69.1446 126.228 69.1446 126.916V130H68.1366ZM77.3558 128.128C77.0198 128.128 76.7118 128.084 76.4318 127.996L75.8318 128.56C75.9198 128.624 76.0278 128.68 76.1558 128.728C76.2918 128.768 76.4838 128.808 76.7318 128.848C76.9798 128.88 77.3278 128.916 77.7758 128.956C78.5758 129.012 79.1478 129.196 79.4918 129.508C79.8358 129.82 80.0078 130.228 80.0078 130.732C80.0078 131.076 79.9118 131.404 79.7198 131.716C79.5358 132.028 79.2478 132.284 78.8558 132.484C78.4718 132.684 77.9758 132.784 77.3678 132.784C76.8318 132.784 76.3558 132.712 75.9398 132.568C75.5238 132.432 75.1998 132.22 74.9678 131.932C74.7358 131.652 74.6198 131.296 74.6198 130.864C74.6198 130.64 74.6798 130.396 74.7998 130.132C74.9198 129.876 75.1438 129.632 75.4718 129.4C75.2958 129.328 75.1438 129.252 75.0158 129.172C74.8958 129.084 74.7838 128.988 74.6798 128.884V128.608L75.6998 127.6C75.2278 127.2 74.9918 126.672 74.9918 126.016C74.9918 125.624 75.0838 125.268 75.2678 124.948C75.4518 124.628 75.7198 124.376 76.0718 124.192C76.4238 124 76.8518 123.904 77.3558 123.904C77.6998 123.904 78.0118 123.952 78.2918 124.048H80.4878V124.804L79.3718 124.852C79.6038 125.188 79.7198 125.576 79.7198 126.016C79.7198 126.408 79.6238 126.764 79.4318 127.084C79.2478 127.404 78.9798 127.66 78.6278 127.852C78.2838 128.036 77.8598 128.128 77.3558 128.128ZM77.3558 127.3C77.7798 127.3 78.1158 127.192 78.3638 126.976C78.6198 126.752 78.7478 126.432 78.7478 126.016C78.7478 125.608 78.6198 125.296 78.3638 125.08C78.1158 124.856 77.7798 124.744 77.3558 124.744C76.9238 124.744 76.5798 124.856 76.3238 125.08C76.0758 125.296 75.9518 125.608 75.9518 126.016C75.9518 126.432 76.0758 126.752 76.3238 126.976C76.5798 127.192 76.9238 127.3 77.3558 127.3ZM75.6038 130.768C75.6038 131.168 75.7718 131.464 76.1078 131.656C76.4438 131.856 76.8638 131.956 77.3678 131.956C77.8638 131.956 78.2598 131.848 78.5558 131.632C78.8598 131.416 79.0118 131.128 79.0118 130.768C79.0118 130.512 78.9078 130.288 78.6998 130.096C78.4918 129.912 78.1078 129.804 77.5478 129.772C77.1078 129.74 76.7278 129.7 76.4078 129.652C76.0798 129.828 75.8638 130.016 75.7598 130.216C75.6558 130.424 75.6038 130.608 75.6038 130.768ZM85.1247 130V124.9H84.2247V124.048H85.1247V123.016C85.1247 122.44 85.2687 122.02 85.5567 121.756C85.8447 121.492 86.2647 121.36 86.8167 121.36H87.4167V122.224H86.9727C86.6687 122.224 86.4527 122.288 86.3247 122.416C86.1967 122.536 86.1327 122.744 86.1327 123.04V124.048H87.5967V124.9H86.1327V130H85.1247ZM88.7968 130V124.048H89.7088L89.7928 125.188C89.9768 124.796 90.2568 124.484 90.6328 124.252C91.0088 124.02 91.4728 123.904 92.0248 123.904V124.96H91.7488C91.3968 124.96 91.0728 125.024 90.7768 125.152C90.4808 125.272 90.2448 125.48 90.0688 125.776C89.8928 126.072 89.8048 126.48 89.8048 127V130H88.7968ZM95.6095 130.144C95.0415 130.144 94.5375 130.016 94.0975 129.76C93.6575 129.496 93.3095 129.132 93.0535 128.668C92.8055 128.204 92.6815 127.656 92.6815 127.024C92.6815 126.4 92.8055 125.856 93.0535 125.392C93.3015 124.92 93.6455 124.556 94.0855 124.3C94.5335 124.036 95.0495 123.904 95.6335 123.904C96.2095 123.904 96.7055 124.036 97.1215 124.3C97.5455 124.556 97.8695 124.896 98.0935 125.32C98.3175 125.744 98.4295 126.2 98.4295 126.688C98.4295 126.776 98.4255 126.864 98.4175 126.952C98.4175 127.04 98.4175 127.14 98.4175 127.252H93.6775C93.7015 127.708 93.8055 128.088 93.9895 128.392C94.1815 128.688 94.4175 128.912 94.6975 129.064C94.9855 129.216 95.2895 129.292 95.6095 129.292C96.0255 129.292 96.3735 129.196 96.6535 129.004C96.9335 128.812 97.1375 128.552 97.2655 128.224H98.2615C98.1015 128.776 97.7935 129.236 97.3375 129.604C96.8895 129.964 96.3135 130.144 95.6095 130.144ZM95.6095 124.756C95.1295 124.756 94.7015 124.904 94.3255 125.2C93.9575 125.488 93.7455 125.912 93.6895 126.472H97.4335C97.4095 125.936 97.2255 125.516 96.8815 125.212C96.5375 124.908 96.1135 124.756 95.6095 124.756ZM102.442 130.144C101.874 130.144 101.37 130.016 100.93 129.76C100.49 129.496 100.142 129.132 99.8855 128.668C99.6375 128.204 99.5135 127.656 99.5135 127.024C99.5135 126.4 99.6375 125.856 99.8855 125.392C100.134 124.92 100.478 124.556 100.918 124.3C101.366 124.036 101.882 123.904 102.465 123.904C103.042 123.904 103.538 124.036 103.954 124.3C104.378 124.556 104.702 124.896 104.926 125.32C105.15 125.744 105.262 126.2 105.262 126.688C105.262 126.776 105.258 126.864 105.25 126.952C105.25 127.04 105.25 127.14 105.25 127.252H100.51C100.534 127.708 100.638 128.088 100.822 128.392C101.014 128.688 101.25 128.912 101.53 129.064C101.818 129.216 102.122 129.292 102.442 129.292C102.858 129.292 103.206 129.196 103.486 129.004C103.766 128.812 103.97 128.552 104.098 128.224H105.094C104.934 128.776 104.626 129.236 104.17 129.604C103.722 129.964 103.146 130.144 102.442 130.144ZM102.442 124.756C101.962 124.756 101.534 124.904 101.158 125.2C100.79 125.488 100.578 125.912 100.521 126.472H104.266C104.242 125.936 104.058 125.516 103.714 125.212C103.37 124.908 102.946 124.756 102.442 124.756ZM109.274 130.144C108.706 130.144 108.202 130.016 107.762 129.76C107.322 129.496 106.974 129.132 106.718 128.668C106.47 128.204 106.346 127.656 106.346 127.024C106.346 126.4 106.47 125.856 106.718 125.392C106.966 124.92 107.31 124.556 107.75 124.3C108.198 124.036 108.714 123.904 109.298 123.904C109.874 123.904 110.37 124.036 110.786 124.3C111.21 124.556 111.534 124.896 111.758 125.32C111.982 125.744 112.094 126.2 112.094 126.688C112.094 126.776 112.09 126.864 112.082 126.952C112.082 127.04 112.082 127.14 112.082 127.252H107.342C107.366 127.708 107.47 128.088 107.654 128.392C107.846 128.688 108.082 128.912 108.362 129.064C108.65 129.216 108.954 129.292 109.274 129.292C109.69 129.292 110.038 129.196 110.318 129.004C110.598 128.812 110.802 128.552 110.93 128.224H111.926C111.766 128.776 111.458 129.236 111.002 129.604C110.554 129.964 109.978 130.144 109.274 130.144ZM109.274 124.756C108.794 124.756 108.366 124.904 107.99 125.2C107.622 125.488 107.41 125.912 107.354 126.472H111.098C111.074 125.936 110.89 125.516 110.546 125.212C110.202 124.908 109.778 124.756 109.274 124.756ZM113.43 130V124.048H114.342L114.426 125.188C114.61 124.796 114.89 124.484 115.266 124.252C115.642 124.02 116.106 123.904 116.658 123.904V124.96H116.382C116.03 124.96 115.706 125.024 115.41 125.152C115.114 125.272 114.878 125.48 114.702 125.776C114.526 126.072 114.438 126.48 114.438 127V130H113.43Z" fill="#727578"/>
<defs>
<filter id="filter0_d_152_1461" x="0" y="0" width="223" height="161" filterUnits="userSpaceOnUse" color-interpolation-filters="sRGB">
<feFlood flood-opacity="0" result="BackgroundImageFix"/>
<feColorMatrix in="SourceAlpha" type="matrix" values="0 0 0 0 0 0 0 0 0 0 0 0 0 0 0 0 0 0 127 0" result="hardAlpha"/>
<feOffset/>
<feGaussianBlur stdDeviation="7"/>
<feComposite in2="hardAlpha" operator="out"/>
<feColorMatrix type="matrix" values="0 0 0 0 0.27106 0 0 0 0 0.291722 0 0 0 0 0.320993 0 0 0 0.12 0"/>
<feBlend mode="normal" in2="BackgroundImageFix" result="effect1_dropShadow_152_1461"/>
<feBlend mode="normal" in="SourceGraphic" in2="effect1_dropShadow_152_1461" result="shape"/>
</filter>
<linearGradient id="paint0_linear_152_1461" x1="15" y1="146" x2="137.285" y2="38.4473" gradientUnits="userSpaceOnUse">
<stop offset="0.917129" stop-color="white"/>
<stop offset="1" stop-color="white" stop-opacity="0"/>
</linearGradient>
<linearGradient id="paint1_linear_152_1461" x1="15" y1="146" x2="137.285" y2="38.4473" gradientUnits="userSpaceOnUse">
<stop stop-color="#EAE0FF"/>
<stop offset="1" stop-color="white" stop-opacity="0"/>
</linearGradient>
</defs>
</svg>
