<svg width="28" height="28" viewBox="0 0 28 28" fill="none" xmlns="http://www.w3.org/2000/svg">
<path d="M25.6663 14H18.6663L16.333 17.5H11.6663L9.33301 14H2.33301" stroke="#3B79D8" stroke-width="2" stroke-linecap="round" stroke-linejoin="round"/>
<path d="M6.35801 5.96199L2.33301 14.0003V21.0003C2.33301 21.6192 2.57884 22.2127 3.01643 22.6502C3.45401 23.0878 4.0475 23.3337 4.66634 23.3337H23.333C23.9518 23.3337 24.5453 23.0878 24.9829 22.6502C25.4205 22.2127 25.6663 21.6192 25.6663 21.0003V14.0003L21.6413 5.96199C21.4482 5.57324 21.1504 5.24609 20.7815 5.01732C20.4125 4.78855 19.9871 4.66722 19.553 4.66699H8.44634C8.01224 4.66722 7.58682 4.78855 7.21789 5.01732C6.84897 5.24609 6.55118 5.57324 6.35801 5.96199V5.96199Z" stroke="#3B79D8" stroke-width="2" stroke-linecap="round" stroke-linejoin="round"/>
</svg>
