<svg width="28" height="28" viewBox="0 0 28 28" fill="none" xmlns="http://www.w3.org/2000/svg">
<path d="M25.6663 14H18.6663L16.333 17.5H11.6663L9.33301 14H2.33301" stroke="#828486" stroke-width="1.75" stroke-linecap="round" stroke-linejoin="round"/>
<path d="M6.35801 5.96175L2.33301 14.0001V21.0001C2.33301 21.6189 2.57884 22.2124 3.01643 22.65C3.45401 23.0876 4.0475 23.3334 4.66634 23.3334H23.333C23.9518 23.3334 24.5453 23.0876 24.9829 22.65C25.4205 22.2124 25.6663 21.6189 25.6663 21.0001V14.0001L21.6413 5.96175C21.4482 5.573 21.1504 5.24585 20.7815 5.01707C20.4125 4.7883 19.9871 4.66698 19.553 4.66675H8.44634C8.01224 4.66698 7.58682 4.7883 7.21789 5.01707C6.84897 5.24585 6.55118 5.573 6.35801 5.96175V5.96175Z" stroke="#828486" stroke-width="1.75" stroke-linecap="round" stroke-linejoin="round"/>
</svg>
