<svg width="363" height="117" viewBox="0 0 363 117" fill="none" xmlns="http://www.w3.org/2000/svg">
<mask id="mask0_152_1415" style="mask-type:alpha" maskUnits="userSpaceOnUse" x="0" y="0" width="351" height="117">
<rect width="351" height="117" rx="14" fill="white"/>
</mask>
<g mask="url(#mask0_152_1415)">
<rect width="351" height="117" rx="14" fill="#1F3758"/>
<path d="M21.224 38V25.4H29.36V27.254H23.528V30.782H28.244V32.6H23.528V38H21.224ZM34.5335 38.216C33.6695 38.216 32.8895 38.018 32.1935 37.622C31.5095 37.226 30.9635 36.68 30.5555 35.984C30.1595 35.276 29.9615 34.46 29.9615 33.536C29.9615 32.612 30.1655 31.802 30.5735 31.106C30.9815 30.398 31.5275 29.846 32.2115 29.45C32.9075 29.054 33.6875 28.856 34.5515 28.856C35.4035 28.856 36.1715 29.054 36.8555 29.45C37.5515 29.846 38.0975 30.398 38.4935 31.106C38.9015 31.802 39.1055 32.612 39.1055 33.536C39.1055 34.46 38.9015 35.276 38.4935 35.984C38.0975 36.68 37.5515 37.226 36.8555 37.622C36.1595 38.018 35.3855 38.216 34.5335 38.216ZM34.5335 36.218C35.1335 36.218 35.6555 35.996 36.0995 35.552C36.5435 35.096 36.7655 34.424 36.7655 33.536C36.7655 32.648 36.5435 31.982 36.0995 31.538C35.6555 31.082 35.1395 30.854 34.5515 30.854C33.9395 30.854 33.4115 31.082 32.9675 31.538C32.5355 31.982 32.3195 32.648 32.3195 33.536C32.3195 34.424 32.5355 35.096 32.9675 35.552C33.4115 35.996 33.9335 36.218 34.5335 36.218ZM40.8055 38V25.04H43.1095V38H40.8055ZM45.1037 38V25.04H47.4077V38H45.1037ZM53.6859 38.216C52.8219 38.216 52.0419 38.018 51.3459 37.622C50.6619 37.226 50.1159 36.68 49.7079 35.984C49.3119 35.276 49.1139 34.46 49.1139 33.536C49.1139 32.612 49.3179 31.802 49.7259 31.106C50.1339 30.398 50.6799 29.846 51.3639 29.45C52.0599 29.054 52.8399 28.856 53.7039 28.856C54.5559 28.856 55.3239 29.054 56.0079 29.45C56.7039 29.846 57.2499 30.398 57.6459 31.106C58.0539 31.802 58.2579 32.612 58.2579 33.536C58.2579 34.46 58.0539 35.276 57.6459 35.984C57.2499 36.68 56.7039 37.226 56.0079 37.622C55.3119 38.018 54.5379 38.216 53.6859 38.216ZM53.6859 36.218C54.2859 36.218 54.8079 35.996 55.2519 35.552C55.6959 35.096 55.9179 34.424 55.9179 33.536C55.9179 32.648 55.6959 31.982 55.2519 31.538C54.8079 31.082 54.2919 30.854 53.7039 30.854C53.0919 30.854 52.5639 31.082 52.1199 31.538C51.6879 31.982 51.4719 32.648 51.4719 33.536C51.4719 34.424 51.6879 35.096 52.1199 35.552C52.5639 35.996 53.0859 36.218 53.6859 36.218ZM61.3875 38L58.7775 29.072H61.0635L62.6115 35.498L64.4115 29.072H66.9675L68.7675 35.498L70.3335 29.072H72.6195L69.9915 38H67.5975L65.6895 31.322L63.7815 38H61.3875ZM73.5151 33.752V31.826H81.0571V33.752H73.5151ZM86.1933 38.216C85.0773 38.216 84.2133 37.868 83.6013 37.172C83.0013 36.476 82.7013 35.456 82.7013 34.112V29.072H84.9873V33.896C84.9873 34.664 85.1433 35.252 85.4553 35.66C85.7673 36.068 86.2593 36.272 86.9313 36.272C87.5673 36.272 88.0893 36.044 88.4973 35.588C88.9173 35.132 89.1273 34.496 89.1273 33.68V29.072H91.4313V38H89.3973L89.2173 36.488C88.9413 37.016 88.5393 37.436 88.0113 37.748C87.4953 38.06 86.8893 38.216 86.1933 38.216ZM93.4365 41.96V29.072H95.4885L95.7405 30.35C96.0285 29.954 96.4065 29.606 96.8745 29.306C97.3545 29.006 97.9725 28.856 98.7285 28.856C99.5685 28.856 100.318 29.06 100.978 29.468C101.638 29.876 102.16 30.434 102.544 31.142C102.928 31.85 103.12 32.654 103.12 33.554C103.12 34.454 102.928 35.258 102.544 35.966C102.16 36.662 101.638 37.214 100.978 37.622C100.318 38.018 99.5685 38.216 98.7285 38.216C98.0565 38.216 97.4685 38.09 96.9645 37.838C96.4605 37.586 96.0525 37.232 95.7405 36.776V41.96H93.4365ZM98.2425 36.2C98.9745 36.2 99.5805 35.954 100.06 35.462C100.54 34.97 100.78 34.334 100.78 33.554C100.78 32.774 100.54 32.132 100.06 31.628C99.5805 31.124 98.9745 30.872 98.2425 30.872C97.4985 30.872 96.8865 31.124 96.4065 31.628C95.9385 32.12 95.7045 32.756 95.7045 33.536C95.7045 34.316 95.9385 34.958 96.4065 35.462C96.8865 35.954 97.4985 36.2 98.2425 36.2ZM113.122 38.216C112.21 38.216 111.406 38.018 110.71 37.622C110.014 37.226 109.462 36.674 109.054 35.966C108.658 35.258 108.46 34.448 108.46 33.536C108.46 32.624 108.658 31.814 109.054 31.106C109.462 30.398 110.014 29.846 110.71 29.45C111.406 29.054 112.21 28.856 113.122 28.856C114.262 28.856 115.222 29.156 116.002 29.756C116.782 30.344 117.28 31.16 117.496 32.204H115.066C114.946 31.772 114.706 31.436 114.346 31.196C113.998 30.944 113.584 30.818 113.104 30.818C112.468 30.818 111.928 31.058 111.484 31.538C111.04 32.018 110.818 32.684 110.818 33.536C110.818 34.388 111.04 35.054 111.484 35.534C111.928 36.014 112.468 36.254 113.104 36.254C113.584 36.254 113.998 36.134 114.346 35.894C114.706 35.654 114.946 35.312 115.066 34.868H117.496C117.28 35.876 116.782 36.686 116.002 37.298C115.222 37.91 114.262 38.216 113.122 38.216ZM122.259 38.216C121.491 38.216 120.861 38.096 120.369 37.856C119.877 37.604 119.511 37.274 119.271 36.866C119.031 36.458 118.911 36.008 118.911 35.516C118.911 34.688 119.235 34.016 119.883 33.5C120.531 32.984 121.503 32.726 122.799 32.726H125.067V32.51C125.067 31.898 124.893 31.448 124.545 31.16C124.197 30.872 123.765 30.728 123.249 30.728C122.781 30.728 122.373 30.842 122.025 31.07C121.677 31.286 121.461 31.61 121.377 32.042H119.127C119.187 31.394 119.403 30.83 119.775 30.35C120.159 29.87 120.651 29.504 121.251 29.252C121.851 28.988 122.523 28.856 123.267 28.856C124.539 28.856 125.541 29.174 126.273 29.81C127.005 30.446 127.371 31.346 127.371 32.51V38H125.409L125.193 36.56C124.929 37.04 124.557 37.436 124.077 37.748C123.609 38.06 123.003 38.216 122.259 38.216ZM122.781 36.416C123.441 36.416 123.951 36.2 124.311 35.768C124.683 35.336 124.917 34.802 125.013 34.166H123.051C122.439 34.166 122.001 34.28 121.737 34.508C121.473 34.724 121.341 34.994 121.341 35.318C121.341 35.666 121.473 35.936 121.737 36.128C122.001 36.32 122.349 36.416 122.781 36.416ZM129.209 38V29.072H131.243L131.441 30.278C131.729 29.846 132.107 29.504 132.575 29.252C133.055 28.988 133.607 28.856 134.231 28.856C135.611 28.856 136.589 29.39 137.165 30.458C137.489 29.966 137.921 29.576 138.461 29.288C139.013 29 139.613 28.856 140.261 28.856C141.425 28.856 142.319 29.204 142.943 29.9C143.567 30.596 143.879 31.616 143.879 32.96V38H141.575V33.176C141.575 32.408 141.425 31.82 141.125 31.412C140.837 31.004 140.387 30.8 139.775 30.8C139.151 30.8 138.647 31.028 138.263 31.484C137.891 31.94 137.705 32.576 137.705 33.392V38H135.401V33.176C135.401 32.408 135.251 31.82 134.951 31.412C134.651 31.004 134.189 30.8 133.565 30.8C132.953 30.8 132.455 31.028 132.071 31.484C131.699 31.94 131.513 32.576 131.513 33.392V38H129.209ZM145.707 41.96V29.072H147.759L148.011 30.35C148.299 29.954 148.677 29.606 149.145 29.306C149.625 29.006 150.243 28.856 150.999 28.856C151.839 28.856 152.589 29.06 153.249 29.468C153.909 29.876 154.431 30.434 154.815 31.142C155.199 31.85 155.391 32.654 155.391 33.554C155.391 34.454 155.199 35.258 154.815 35.966C154.431 36.662 153.909 37.214 153.249 37.622C152.589 38.018 151.839 38.216 150.999 38.216C150.327 38.216 149.739 38.09 149.235 37.838C148.731 37.586 148.323 37.232 148.011 36.776V41.96H145.707ZM150.513 36.2C151.245 36.2 151.851 35.954 152.331 35.462C152.811 34.97 153.051 34.334 153.051 33.554C153.051 32.774 152.811 32.132 152.331 31.628C151.851 31.124 151.245 30.872 150.513 30.872C149.769 30.872 149.157 31.124 148.677 31.628C148.209 32.12 147.975 32.756 147.975 33.536C147.975 34.316 148.209 34.958 148.677 35.462C149.157 35.954 149.769 36.2 150.513 36.2ZM160.167 38.216C159.399 38.216 158.769 38.096 158.277 37.856C157.785 37.604 157.419 37.274 157.179 36.866C156.939 36.458 156.819 36.008 156.819 35.516C156.819 34.688 157.143 34.016 157.791 33.5C158.439 32.984 159.411 32.726 160.707 32.726H162.975V32.51C162.975 31.898 162.801 31.448 162.453 31.16C162.105 30.872 161.673 30.728 161.157 30.728C160.689 30.728 160.281 30.842 159.933 31.07C159.585 31.286 159.369 31.61 159.285 32.042H157.035C157.095 31.394 157.311 30.83 157.683 30.35C158.067 29.87 158.559 29.504 159.159 29.252C159.759 28.988 160.431 28.856 161.175 28.856C162.447 28.856 163.449 29.174 164.181 29.81C164.913 30.446 165.279 31.346 165.279 32.51V38H163.317L163.101 36.56C162.837 37.04 162.465 37.436 161.985 37.748C161.517 38.06 160.911 38.216 160.167 38.216ZM160.689 36.416C161.349 36.416 161.859 36.2 162.219 35.768C162.591 35.336 162.825 34.802 162.921 34.166H160.959C160.347 34.166 159.909 34.28 159.645 34.508C159.381 34.724 159.249 34.994 159.249 35.318C159.249 35.666 159.381 35.936 159.645 36.128C159.909 36.32 160.257 36.416 160.689 36.416ZM168.36 27.686C167.94 27.686 167.592 27.56 167.316 27.308C167.052 27.056 166.92 26.738 166.92 26.354C166.92 25.97 167.052 25.658 167.316 25.418C167.592 25.166 167.94 25.04 168.36 25.04C168.78 25.04 169.122 25.166 169.386 25.418C169.662 25.658 169.8 25.97 169.8 26.354C169.8 26.738 169.662 27.056 169.386 27.308C169.122 27.56 168.78 27.686 168.36 27.686ZM167.208 38V29.072H169.512V38H167.208ZM175.336 35.336C174.904 35.336 174.502 35.288 174.13 35.192L173.464 35.858C173.668 35.966 173.944 36.056 174.292 36.128C174.64 36.2 175.204 36.272 175.984 36.344C177.172 36.452 178.036 36.734 178.576 37.19C179.116 37.646 179.386 38.276 179.386 39.08C179.386 39.608 179.242 40.106 178.954 40.574C178.666 41.054 178.222 41.438 177.622 41.726C177.022 42.026 176.254 42.176 175.318 42.176C174.046 42.176 173.02 41.936 172.24 41.456C171.46 40.988 171.07 40.28 171.07 39.332C171.07 38.528 171.46 37.832 172.24 37.244C172 37.136 171.79 37.022 171.61 36.902C171.442 36.782 171.292 36.656 171.16 36.524V36.11L172.726 34.454C172.03 33.842 171.682 33.056 171.682 32.096C171.682 31.496 171.826 30.95 172.114 30.458C172.414 29.966 172.834 29.576 173.374 29.288C173.914 29 174.568 28.856 175.336 28.856C175.84 28.856 176.308 28.928 176.74 29.072H180.124V30.476L178.594 30.584C178.834 31.04 178.954 31.544 178.954 32.096C178.954 32.696 178.81 33.242 178.522 33.734C178.234 34.226 177.814 34.616 177.262 34.904C176.722 35.192 176.08 35.336 175.336 35.336ZM175.336 33.572C175.804 33.572 176.188 33.446 176.488 33.194C176.8 32.942 176.956 32.582 176.956 32.114C176.956 31.646 176.8 31.286 176.488 31.034C176.188 30.782 175.804 30.656 175.336 30.656C174.844 30.656 174.448 30.782 174.148 31.034C173.848 31.286 173.698 31.646 173.698 32.114C173.698 32.582 173.848 32.942 174.148 33.194C174.448 33.446 174.844 33.572 175.336 33.572ZM173.176 39.098C173.176 39.542 173.38 39.872 173.788 40.088C174.208 40.316 174.718 40.43 175.318 40.43C175.894 40.43 176.362 40.31 176.722 40.07C177.082 39.842 177.262 39.53 177.262 39.134C177.262 38.81 177.142 38.54 176.902 38.324C176.674 38.108 176.212 37.976 175.516 37.928C175.024 37.892 174.568 37.838 174.148 37.766C173.8 37.958 173.548 38.168 173.392 38.396C173.248 38.624 173.176 38.858 173.176 39.098ZM181.445 38V29.072H183.479L183.659 30.584C183.935 30.056 184.331 29.636 184.847 29.324C185.375 29.012 185.993 28.856 186.701 28.856C187.805 28.856 188.663 29.204 189.275 29.9C189.887 30.596 190.193 31.616 190.193 32.96V38H187.889V33.176C187.889 32.408 187.733 31.82 187.421 31.412C187.109 31.004 186.623 30.8 185.963 30.8C185.315 30.8 184.781 31.028 184.361 31.484C183.953 31.94 183.749 32.576 183.749 33.392V38H181.445Z" fill="#FF874E"/>
<path d="M21.036 68V58.2H22.212V67.062H26.776V68H21.036ZM31.1427 68.168C30.48 68.168 29.892 68.0187 29.3787 67.72C28.8654 67.412 28.4594 66.9873 28.1607 66.446C27.8714 65.9047 27.7267 65.2653 27.7267 64.528C27.7267 63.8 27.8714 63.1653 28.1607 62.624C28.45 62.0733 28.8514 61.6487 29.3647 61.35C29.8874 61.042 30.4894 60.888 31.1707 60.888C31.8427 60.888 32.4214 61.042 32.9067 61.35C33.4014 61.6487 33.7794 62.0453 34.0407 62.54C34.302 63.0347 34.4327 63.5667 34.4327 64.136C34.4327 64.2387 34.428 64.3413 34.4187 64.444C34.4187 64.5467 34.4187 64.6633 34.4187 64.794H28.8887C28.9167 65.326 29.038 65.7693 29.2527 66.124C29.4767 66.4693 29.752 66.7307 30.0787 66.908C30.4147 67.0853 30.7694 67.174 31.1427 67.174C31.628 67.174 32.034 67.062 32.3607 66.838C32.6874 66.614 32.9254 66.3107 33.0747 65.928H34.2367C34.05 66.572 33.6907 67.1087 33.1587 67.538C32.636 67.958 31.964 68.168 31.1427 68.168ZM31.1427 61.882C30.5827 61.882 30.0834 62.0547 29.6447 62.4C29.2154 62.736 28.968 63.2307 28.9027 63.884H33.2707C33.2427 63.2587 33.028 62.7687 32.6267 62.414C32.2254 62.0593 31.7307 61.882 31.1427 61.882ZM38.503 68C37.8683 68 37.369 67.846 37.005 67.538C36.641 67.23 36.459 66.6747 36.459 65.872V62.05H35.255V61.056H36.459L36.613 59.39H37.635V61.056H39.679V62.05H37.635V65.872C37.635 66.3107 37.7236 66.6093 37.901 66.768C38.0783 66.9173 38.391 66.992 38.839 66.992H39.567V68H38.503ZM40.669 61.322L41.481 58.2H42.797L41.509 61.322H40.669ZM46.2119 68.168C45.3813 68.168 44.6906 67.958 44.1399 67.538C43.5893 67.118 43.2673 66.5487 43.1739 65.83H44.3779C44.4526 66.194 44.6439 66.5113 44.9519 66.782C45.2693 67.0433 45.6939 67.174 46.2259 67.174C46.7206 67.174 47.0846 67.0713 47.3179 66.866C47.5513 66.6513 47.6679 66.3993 47.6679 66.11C47.6679 65.69 47.5139 65.41 47.2059 65.27C46.9073 65.13 46.4826 65.004 45.9319 64.892C45.5586 64.8173 45.1853 64.71 44.8119 64.57C44.4386 64.43 44.1259 64.234 43.8739 63.982C43.6219 63.7207 43.4959 63.38 43.4959 62.96C43.4959 62.3533 43.7199 61.8587 44.1679 61.476C44.6253 61.084 45.2413 60.888 46.0159 60.888C46.7533 60.888 47.3553 61.0747 47.8219 61.448C48.2979 61.812 48.5733 62.3347 48.6479 63.016H47.4859C47.4393 62.6613 47.2853 62.386 47.0239 62.19C46.7719 61.9847 46.4313 61.882 46.0019 61.882C45.5819 61.882 45.2553 61.9707 45.0219 62.148C44.7979 62.3253 44.6859 62.5587 44.6859 62.848C44.6859 63.128 44.8306 63.3473 45.1199 63.506C45.4186 63.6647 45.8199 63.8 46.3239 63.912C46.7533 64.0053 47.1593 64.122 47.5419 64.262C47.9339 64.3927 48.2513 64.5933 48.4939 64.864C48.7459 65.1253 48.8719 65.508 48.8719 66.012C48.8813 66.6373 48.6433 67.1553 48.1579 67.566C47.6819 67.9673 47.0333 68.168 46.2119 68.168ZM57.449 68.168C56.7863 68.168 56.189 68.0187 55.657 67.72C55.1343 67.412 54.719 66.9873 54.411 66.446C54.1123 65.8953 53.963 65.256 53.963 64.528C53.963 63.8 54.1123 63.1653 54.411 62.624C54.719 62.0733 55.1343 61.6487 55.657 61.35C56.189 61.042 56.7863 60.888 57.449 60.888C58.2703 60.888 58.961 61.1027 59.521 61.532C60.0903 61.9613 60.4497 62.5353 60.599 63.254H59.395C59.3017 62.8247 59.073 62.4933 58.709 62.26C58.345 62.0173 57.9203 61.896 57.435 61.896C57.043 61.896 56.6743 61.994 56.329 62.19C55.9837 62.386 55.7037 62.68 55.489 63.072C55.2743 63.464 55.167 63.9493 55.167 64.528C55.167 65.1067 55.2743 65.592 55.489 65.984C55.7037 66.376 55.9837 66.6747 56.329 66.88C56.6743 67.076 57.043 67.174 57.435 67.174C57.9203 67.174 58.345 67.0573 58.709 66.824C59.073 66.5813 59.3017 66.2407 59.395 65.802H60.599C60.459 66.502 60.1043 67.0713 59.535 67.51C58.9657 67.9487 58.2703 68.168 57.449 68.168ZM65.4054 68.168C64.7521 68.168 64.1641 68.0187 63.6414 67.72C63.1187 67.4213 62.7034 67.0013 62.3954 66.46C62.0967 65.9093 61.9474 65.2653 61.9474 64.528C61.9474 63.7907 62.1014 63.1513 62.4094 62.61C62.7174 62.0593 63.1327 61.6347 63.6554 61.336C64.1874 61.0373 64.7801 60.888 65.4334 60.888C66.0867 60.888 66.6747 61.0373 67.1974 61.336C67.7201 61.6347 68.1307 62.0593 68.4294 62.61C68.7374 63.1513 68.8914 63.7907 68.8914 64.528C68.8914 65.2653 68.7374 65.9093 68.4294 66.46C68.1214 67.0013 67.7014 67.4213 67.1694 67.72C66.6467 68.0187 66.0587 68.168 65.4054 68.168ZM65.4054 67.16C65.8067 67.16 66.1801 67.062 66.5254 66.866C66.8707 66.67 67.1507 66.376 67.3654 65.984C67.5801 65.592 67.6874 65.1067 67.6874 64.528C67.6874 63.9493 67.5801 63.464 67.3654 63.072C67.1601 62.68 66.8847 62.386 66.5394 62.19C66.1941 61.994 65.8254 61.896 65.4334 61.896C65.0321 61.896 64.6587 61.994 64.3134 62.19C63.9681 62.386 63.6881 62.68 63.4734 63.072C63.2587 63.464 63.1514 63.9493 63.1514 64.528C63.1514 65.1067 63.2587 65.592 63.4734 65.984C63.6881 66.376 63.9634 66.67 64.2994 66.866C64.6447 67.062 65.0134 67.16 65.4054 67.16ZM70.5265 68V61.056H71.5905L71.6605 62.302C71.8845 61.8633 72.2065 61.518 72.6265 61.266C73.0465 61.014 73.5225 60.888 74.0545 60.888C74.8759 60.888 75.5292 61.14 76.0145 61.644C76.5092 62.1387 76.7565 62.904 76.7565 63.94V68H75.5805V64.066C75.5805 62.6193 74.9832 61.896 73.7885 61.896C73.1912 61.896 72.6919 62.1153 72.2905 62.554C71.8985 62.9833 71.7025 63.5993 71.7025 64.402V68H70.5265ZM81.2823 68C80.6476 68 80.1483 67.846 79.7843 67.538C79.4203 67.23 79.2383 66.6747 79.2383 65.872V62.05H78.0343V61.056H79.2383L79.3923 59.39H80.4143V61.056H82.4583V62.05H80.4143V65.872C80.4143 66.3107 80.5029 66.6093 80.6803 66.768C80.8576 66.9173 81.1703 66.992 81.6183 66.992H82.3463V68H81.2823ZM84.6663 59.516C84.433 59.516 84.237 59.4413 84.0783 59.292C83.929 59.1333 83.8543 58.9373 83.8543 58.704C83.8543 58.48 83.929 58.2933 84.0783 58.144C84.237 57.9947 84.433 57.92 84.6663 57.92C84.8903 57.92 85.0817 57.9947 85.2403 58.144C85.399 58.2933 85.4783 58.48 85.4783 58.704C85.4783 58.9373 85.399 59.1333 85.2403 59.292C85.0817 59.4413 84.8903 59.516 84.6663 59.516ZM84.0783 68V61.056H85.2543V68H84.0783ZM87.3019 68V61.056H88.3659L88.4359 62.302C88.6599 61.8633 88.9819 61.518 89.4019 61.266C89.8219 61.014 90.2979 60.888 90.8299 60.888C91.6513 60.888 92.3046 61.14 92.7899 61.644C93.2846 62.1387 93.5319 62.904 93.5319 63.94V68H92.3559V64.066C92.3559 62.6193 91.7586 61.896 90.5639 61.896C89.9666 61.896 89.4673 62.1153 89.0659 62.554C88.6739 62.9833 88.4779 63.5993 88.4779 64.402V68H87.3019ZM97.8477 68.168C97.0263 68.168 96.373 67.9207 95.8877 67.426C95.4023 66.922 95.1597 66.152 95.1597 65.116V61.056H96.3357V64.99C96.3357 66.4367 96.9283 67.16 98.1137 67.16C98.7203 67.16 99.2197 66.9453 99.6117 66.516C100.013 66.0773 100.214 65.4567 100.214 64.654V61.056H101.39V68H100.326L100.242 66.754C100.027 67.1927 99.705 67.538 99.2757 67.79C98.8557 68.042 98.3797 68.168 97.8477 68.168ZM106.447 68.168C105.785 68.168 105.197 68.0187 104.683 67.72C104.17 67.412 103.764 66.9873 103.465 66.446C103.176 65.9047 103.031 65.2653 103.031 64.528C103.031 63.8 103.176 63.1653 103.465 62.624C103.755 62.0733 104.156 61.6487 104.669 61.35C105.192 61.042 105.794 60.888 106.475 60.888C107.147 60.888 107.726 61.042 108.211 61.35C108.706 61.6487 109.084 62.0453 109.345 62.54C109.607 63.0347 109.737 63.5667 109.737 64.136C109.737 64.2387 109.733 64.3413 109.723 64.444C109.723 64.5467 109.723 64.6633 109.723 64.794H104.193C104.221 65.326 104.343 65.7693 104.557 66.124C104.781 66.4693 105.057 66.7307 105.383 66.908C105.719 67.0853 106.074 67.174 106.447 67.174C106.933 67.174 107.339 67.062 107.665 66.838C107.992 66.614 108.23 66.3107 108.379 65.928H109.541C109.355 66.572 108.995 67.1087 108.463 67.538C107.941 67.958 107.269 68.168 106.447 68.168ZM106.447 61.882C105.887 61.882 105.388 62.0547 104.949 62.4C104.52 62.736 104.273 63.2307 104.207 63.884H108.575C108.547 63.2587 108.333 62.7687 107.931 62.414C107.53 62.0593 107.035 61.882 106.447 61.882ZM115.757 71.08L117.479 67.328H117.073L114.315 61.056H115.589L117.885 66.46L120.321 61.056H121.539L116.989 71.08H115.757ZM125.288 68.168C124.635 68.168 124.047 68.0187 123.524 67.72C123.002 67.4213 122.586 67.0013 122.278 66.46C121.98 65.9093 121.83 65.2653 121.83 64.528C121.83 63.7907 121.984 63.1513 122.292 62.61C122.6 62.0593 123.016 61.6347 123.538 61.336C124.07 61.0373 124.663 60.888 125.316 60.888C125.97 60.888 126.558 61.0373 127.08 61.336C127.603 61.6347 128.014 62.0593 128.312 62.61C128.62 63.1513 128.774 63.7907 128.774 64.528C128.774 65.2653 128.62 65.9093 128.312 66.46C128.004 67.0013 127.584 67.4213 127.052 67.72C126.53 68.0187 125.942 68.168 125.288 68.168ZM125.288 67.16C125.69 67.16 126.063 67.062 126.408 66.866C126.754 66.67 127.034 66.376 127.248 65.984C127.463 65.592 127.57 65.1067 127.57 64.528C127.57 63.9493 127.463 63.464 127.248 63.072C127.043 62.68 126.768 62.386 126.422 62.19C126.077 61.994 125.708 61.896 125.316 61.896C124.915 61.896 124.542 61.994 124.196 62.19C123.851 62.386 123.571 62.68 123.356 63.072C123.142 63.464 123.034 63.9493 123.034 64.528C123.034 65.1067 123.142 65.592 123.356 65.984C123.571 66.376 123.846 66.67 124.182 66.866C124.528 67.062 124.896 67.16 125.288 67.16ZM132.943 68.168C132.122 68.168 131.469 67.9207 130.983 67.426C130.498 66.922 130.255 66.152 130.255 65.116V61.056H131.431V64.99C131.431 66.4367 132.024 67.16 133.209 67.16C133.816 67.16 134.315 66.9453 134.707 66.516C135.109 66.0773 135.309 65.4567 135.309 64.654V61.056H136.485V68H135.421L135.337 66.754C135.123 67.1927 134.801 67.538 134.371 67.79C133.951 68.042 133.475 68.168 132.943 68.168ZM138.421 68V61.056H139.485L139.583 62.386C139.798 61.9287 140.124 61.5647 140.563 61.294C141.002 61.0233 141.543 60.888 142.187 60.888V62.12H141.865C141.454 62.12 141.076 62.1947 140.731 62.344C140.386 62.484 140.11 62.7267 139.905 63.072C139.7 63.4173 139.597 63.8933 139.597 64.5V68H138.421ZM150.404 68.168C149.741 68.168 149.144 68.0187 148.612 67.72C148.089 67.412 147.674 66.9873 147.366 66.446C147.067 65.8953 146.918 65.256 146.918 64.528C146.918 63.8 147.067 63.1653 147.366 62.624C147.674 62.0733 148.089 61.6487 148.612 61.35C149.144 61.042 149.741 60.888 150.404 60.888C151.225 60.888 151.916 61.1027 152.476 61.532C153.045 61.9613 153.405 62.5353 153.554 63.254H152.35C152.257 62.8247 152.028 62.4933 151.664 62.26C151.3 62.0173 150.875 61.896 150.39 61.896C149.998 61.896 149.629 61.994 149.284 62.19C148.939 62.386 148.659 62.68 148.444 63.072C148.229 63.464 148.122 63.9493 148.122 64.528C148.122 65.1067 148.229 65.592 148.444 65.984C148.659 66.376 148.939 66.6747 149.284 66.88C149.629 67.076 149.998 67.174 150.39 67.174C150.875 67.174 151.3 67.0573 151.664 66.824C152.028 66.5813 152.257 66.2407 152.35 65.802H153.554C153.414 66.502 153.059 67.0713 152.49 67.51C151.921 67.9487 151.225 68.168 150.404 68.168ZM157.506 68.168C156.928 68.168 156.447 68.07 156.064 67.874C155.682 67.678 155.397 67.4167 155.21 67.09C155.024 66.7633 154.93 66.4087 154.93 66.026C154.93 65.3167 155.201 64.7707 155.742 64.388C156.284 64.0053 157.021 63.814 157.954 63.814H159.83V63.73C159.83 63.1233 159.672 62.666 159.354 62.358C159.037 62.0407 158.612 61.882 158.08 61.882C157.623 61.882 157.226 61.9987 156.89 62.232C156.564 62.456 156.358 62.7873 156.274 63.226H155.07C155.117 62.722 155.285 62.2973 155.574 61.952C155.873 61.6067 156.242 61.3453 156.68 61.168C157.119 60.9813 157.586 60.888 158.08 60.888C159.051 60.888 159.779 61.1493 160.264 61.672C160.759 62.1853 161.006 62.8713 161.006 63.73V68H159.956L159.886 66.754C159.69 67.146 159.401 67.482 159.018 67.762C158.645 68.0327 158.141 68.168 157.506 68.168ZM157.688 67.174C158.136 67.174 158.519 67.0573 158.836 66.824C159.163 66.5907 159.41 66.2873 159.578 65.914C159.746 65.5407 159.83 65.1487 159.83 64.738V64.724H158.052C157.362 64.724 156.872 64.8453 156.582 65.088C156.302 65.3213 156.162 65.6153 156.162 65.97C156.162 66.334 156.293 66.628 156.554 66.852C156.825 67.0667 157.203 67.174 157.688 67.174ZM162.771 68V61.056H163.835L163.919 62.064C164.143 61.6907 164.441 61.4013 164.815 61.196C165.188 60.9907 165.608 60.888 166.075 60.888C166.625 60.888 167.097 61 167.489 61.224C167.89 61.448 168.198 61.7887 168.413 62.246C168.655 61.826 168.987 61.4947 169.407 61.252C169.836 61.0093 170.298 60.888 170.793 60.888C171.623 60.888 172.286 61.14 172.781 61.644C173.275 62.1387 173.523 62.904 173.523 63.94V68H172.361V64.066C172.361 63.3473 172.216 62.806 171.927 62.442C171.637 62.078 171.222 61.896 170.681 61.896C170.121 61.896 169.654 62.1153 169.281 62.554C168.917 62.9833 168.735 63.5993 168.735 64.402V68H167.559V64.066C167.559 63.3473 167.414 62.806 167.125 62.442C166.835 62.078 166.42 61.896 165.879 61.896C165.328 61.896 164.866 62.1153 164.493 62.554C164.129 62.9833 163.947 63.5993 163.947 64.402V68H162.771ZM175.294 71.08V61.056H176.358L176.47 62.204C176.694 61.868 177.011 61.5647 177.422 61.294C177.842 61.0233 178.374 60.888 179.018 60.888C179.709 60.888 180.311 61.0467 180.824 61.364C181.337 61.6813 181.734 62.1153 182.014 62.666C182.303 63.2167 182.448 63.842 182.448 64.542C182.448 65.242 182.303 65.8673 182.014 66.418C181.734 66.9593 181.333 67.3887 180.81 67.706C180.297 68.014 179.695 68.168 179.004 68.168C178.435 68.168 177.926 68.0513 177.478 67.818C177.039 67.5847 176.703 67.258 176.47 66.838V71.08H175.294ZM178.878 67.146C179.345 67.146 179.755 67.0387 180.11 66.824C180.465 66.6 180.745 66.292 180.95 65.9C181.155 65.508 181.258 65.0507 181.258 64.528C181.258 64.0053 181.155 63.548 180.95 63.156C180.745 62.764 180.465 62.4607 180.11 62.246C179.755 62.022 179.345 61.91 178.878 61.91C178.411 61.91 178.001 62.022 177.646 62.246C177.291 62.4607 177.011 62.764 176.806 63.156C176.601 63.548 176.498 64.0053 176.498 64.528C176.498 65.0507 176.601 65.508 176.806 65.9C177.011 66.292 177.291 66.6 177.646 66.824C178.001 67.0387 178.411 67.146 178.878 67.146ZM186.395 68.168C185.816 68.168 185.336 68.07 184.953 67.874C184.57 67.678 184.286 67.4167 184.099 67.09C183.912 66.7633 183.819 66.4087 183.819 66.026C183.819 65.3167 184.09 64.7707 184.631 64.388C185.172 64.0053 185.91 63.814 186.843 63.814H188.719V63.73C188.719 63.1233 188.56 62.666 188.243 62.358C187.926 62.0407 187.501 61.882 186.969 61.882C186.512 61.882 186.115 61.9987 185.779 62.232C185.452 62.456 185.247 62.7873 185.163 63.226H183.959C184.006 62.722 184.174 62.2973 184.463 61.952C184.762 61.6067 185.13 61.3453 185.569 61.168C186.008 60.9813 186.474 60.888 186.969 60.888C187.94 60.888 188.668 61.1493 189.153 61.672C189.648 62.1853 189.895 62.8713 189.895 63.73V68H188.845L188.775 66.754C188.579 67.146 188.29 67.482 187.907 67.762C187.534 68.0327 187.03 68.168 186.395 68.168ZM186.577 67.174C187.025 67.174 187.408 67.0573 187.725 66.824C188.052 66.5907 188.299 66.2873 188.467 65.914C188.635 65.5407 188.719 65.1487 188.719 64.738V64.724H186.941C186.25 64.724 185.76 64.8453 185.471 65.088C185.191 65.3213 185.051 65.6153 185.051 65.97C185.051 66.334 185.182 66.628 185.443 66.852C185.714 67.0667 186.092 67.174 186.577 67.174ZM192.373 59.516C192.14 59.516 191.944 59.4413 191.785 59.292C191.636 59.1333 191.561 58.9373 191.561 58.704C191.561 58.48 191.636 58.2933 191.785 58.144C191.944 57.9947 192.14 57.92 192.373 57.92C192.597 57.92 192.789 57.9947 192.947 58.144C193.106 58.2933 193.185 58.48 193.185 58.704C193.185 58.9373 193.106 59.1333 192.947 59.292C192.789 59.4413 192.597 59.516 192.373 59.516ZM191.785 68V61.056H192.961V68H191.785ZM197.753 65.816C197.361 65.816 197.002 65.7647 196.675 65.662L195.975 66.32C196.078 66.3947 196.204 66.46 196.353 66.516C196.512 66.5627 196.736 66.6093 197.025 66.656C197.314 66.6933 197.72 66.7353 198.243 66.782C199.176 66.8473 199.844 67.062 200.245 67.426C200.646 67.79 200.847 68.266 200.847 68.854C200.847 69.2553 200.735 69.638 200.511 70.002C200.296 70.366 199.96 70.6647 199.503 70.898C199.055 71.1313 198.476 71.248 197.767 71.248C197.142 71.248 196.586 71.164 196.101 70.996C195.616 70.8373 195.238 70.59 194.967 70.254C194.696 69.9273 194.561 69.512 194.561 69.008C194.561 68.7467 194.631 68.462 194.771 68.154C194.911 67.8553 195.172 67.5707 195.555 67.3C195.35 67.216 195.172 67.1273 195.023 67.034C194.883 66.9313 194.752 66.8193 194.631 66.698V66.376L195.821 65.2C195.27 64.7333 194.995 64.1173 194.995 63.352C194.995 62.8947 195.102 62.4793 195.317 62.106C195.532 61.7327 195.844 61.4387 196.255 61.224C196.666 61 197.165 60.888 197.753 60.888C198.154 60.888 198.518 60.944 198.845 61.056H201.407V61.938L200.105 61.994C200.376 62.386 200.511 62.8387 200.511 63.352C200.511 63.8093 200.399 64.2247 200.175 64.598C199.96 64.9713 199.648 65.27 199.237 65.494C198.836 65.7087 198.341 65.816 197.753 65.816ZM197.753 64.85C198.248 64.85 198.64 64.724 198.929 64.472C199.228 64.2107 199.377 63.8373 199.377 63.352C199.377 62.876 199.228 62.512 198.929 62.26C198.64 61.9987 198.248 61.868 197.753 61.868C197.249 61.868 196.848 61.9987 196.549 62.26C196.26 62.512 196.115 62.876 196.115 63.352C196.115 63.8373 196.26 64.2107 196.549 64.472C196.848 64.724 197.249 64.85 197.753 64.85ZM195.709 68.896C195.709 69.3627 195.905 69.708 196.297 69.932C196.689 70.1653 197.179 70.282 197.767 70.282C198.346 70.282 198.808 70.156 199.153 69.904C199.508 69.652 199.685 69.316 199.685 68.896C199.685 68.5973 199.564 68.336 199.321 68.112C199.078 67.8973 198.63 67.7713 197.977 67.734C197.464 67.6967 197.02 67.65 196.647 67.594C196.264 67.7993 196.012 68.0187 195.891 68.252C195.77 68.4947 195.709 68.7093 195.709 68.896ZM202.734 68V61.056H203.798L203.868 62.302C204.092 61.8633 204.414 61.518 204.834 61.266C205.254 61.014 205.73 60.888 206.262 60.888C207.083 60.888 207.736 61.14 208.222 61.644C208.716 62.1387 208.964 62.904 208.964 63.94V68H207.788V64.066C207.788 62.6193 207.19 61.896 205.996 61.896C205.398 61.896 204.899 62.1153 204.498 62.554C204.106 62.9833 203.91 63.5993 203.91 64.402V68H202.734ZM210.241 61.322L211.053 58.2H212.369L211.081 61.322H210.241ZM215.784 68.168C214.954 68.168 214.263 67.958 213.712 67.538C213.162 67.118 212.84 66.5487 212.746 65.83H213.95C214.025 66.194 214.216 66.5113 214.524 66.782C214.842 67.0433 215.266 67.174 215.798 67.174C216.293 67.174 216.657 67.0713 216.89 66.866C217.124 66.6513 217.24 66.3993 217.24 66.11C217.24 65.69 217.086 65.41 216.778 65.27C216.48 65.13 216.055 65.004 215.504 64.892C215.131 64.8173 214.758 64.71 214.384 64.57C214.011 64.43 213.698 64.234 213.446 63.982C213.194 63.7207 213.068 63.38 213.068 62.96C213.068 62.3533 213.292 61.8587 213.74 61.476C214.198 61.084 214.814 60.888 215.588 60.888C216.326 60.888 216.928 61.0747 217.394 61.448C217.87 61.812 218.146 62.3347 218.22 63.016H217.058C217.012 62.6613 216.858 62.386 216.596 62.19C216.344 61.9847 216.004 61.882 215.574 61.882C215.154 61.882 214.828 61.9707 214.594 62.148C214.37 62.3253 214.258 62.5587 214.258 62.848C214.258 63.128 214.403 63.3473 214.692 63.506C214.991 63.6647 215.392 63.8 215.896 63.912C216.326 64.0053 216.732 64.122 217.114 64.262C217.506 64.3927 217.824 64.5933 218.066 64.864C218.318 65.1253 218.444 65.508 218.444 66.012C218.454 66.6373 218.216 67.1553 217.73 67.566C217.254 67.9673 216.606 68.168 215.784 68.168ZM20.966 88V81.056H22.03L22.114 82.064C22.338 81.6907 22.6367 81.4013 23.01 81.196C23.3833 80.9907 23.8033 80.888 24.27 80.888C24.8207 80.888 25.292 81 25.684 81.224C26.0853 81.448 26.3933 81.7887 26.608 82.246C26.8507 81.826 27.182 81.4947 27.602 81.252C28.0313 81.0093 28.4933 80.888 28.988 80.888C29.8187 80.888 30.4813 81.14 30.976 81.644C31.4707 82.1387 31.718 82.904 31.718 83.94V88H30.556V84.066C30.556 83.3473 30.4113 82.806 30.122 82.442C29.8327 82.078 29.4173 81.896 28.876 81.896C28.316 81.896 27.8493 82.1153 27.476 82.554C27.112 82.9833 26.93 83.5993 26.93 84.402V88H25.754V84.066C25.754 83.3473 25.6093 82.806 25.32 82.442C25.0307 82.078 24.6153 81.896 24.074 81.896C23.5233 81.896 23.0613 82.1153 22.688 82.554C22.324 82.9833 22.142 83.5993 22.142 84.402V88H20.966ZM36.6534 88.168C36.0001 88.168 35.4121 88.0187 34.8894 87.72C34.3668 87.4213 33.9514 87.0013 33.6434 86.46C33.3448 85.9093 33.1954 85.2653 33.1954 84.528C33.1954 83.7907 33.3494 83.1513 33.6574 82.61C33.9654 82.0593 34.3808 81.6347 34.9034 81.336C35.4354 81.0373 36.0281 80.888 36.6814 80.888C37.3348 80.888 37.9228 81.0373 38.4454 81.336C38.9681 81.6347 39.3788 82.0593 39.6774 82.61C39.9854 83.1513 40.1394 83.7907 40.1394 84.528C40.1394 85.2653 39.9854 85.9093 39.6774 86.46C39.3694 87.0013 38.9494 87.4213 38.4174 87.72C37.8948 88.0187 37.3068 88.168 36.6534 88.168ZM36.6534 87.16C37.0548 87.16 37.4281 87.062 37.7734 86.866C38.1188 86.67 38.3988 86.376 38.6134 85.984C38.8281 85.592 38.9354 85.1067 38.9354 84.528C38.9354 83.9493 38.8281 83.464 38.6134 83.072C38.4081 82.68 38.1328 82.386 37.7874 82.19C37.4421 81.994 37.0734 81.896 36.6814 81.896C36.2801 81.896 35.9068 81.994 35.5614 82.19C35.2161 82.386 34.9361 82.68 34.7214 83.072C34.5068 83.464 34.3994 83.9493 34.3994 84.528C34.3994 85.1067 34.5068 85.592 34.7214 85.984C34.9361 86.376 35.2114 86.67 35.5474 86.866C35.8928 87.062 36.2614 87.16 36.6534 87.16ZM41.7746 88V81.056H42.8386L42.9226 82.064C43.1466 81.6907 43.4453 81.4013 43.8186 81.196C44.1919 80.9907 44.6119 80.888 45.0786 80.888C45.6293 80.888 46.1006 81 46.4926 81.224C46.8939 81.448 47.2019 81.7887 47.4166 82.246C47.6593 81.826 47.9906 81.4947 48.4106 81.252C48.8399 81.0093 49.3019 80.888 49.7966 80.888C50.6273 80.888 51.2899 81.14 51.7846 81.644C52.2793 82.1387 52.5266 82.904 52.5266 83.94V88H51.3646V84.066C51.3646 83.3473 51.2199 82.806 50.9306 82.442C50.6413 82.078 50.2259 81.896 49.6846 81.896C49.1246 81.896 48.6579 82.1153 48.2846 82.554C47.9206 82.9833 47.7386 83.5993 47.7386 84.402V88H46.5626V84.066C46.5626 83.3473 46.4179 82.806 46.1286 82.442C45.8393 82.078 45.4239 81.896 44.8826 81.896C44.3319 81.896 43.8699 82.1153 43.4966 82.554C43.1326 82.9833 42.9506 83.5993 42.9506 84.402V88H41.7746ZM57.42 88.168C56.7574 88.168 56.1694 88.0187 55.656 87.72C55.1427 87.412 54.7367 86.9873 54.438 86.446C54.1487 85.9047 54.004 85.2653 54.004 84.528C54.004 83.8 54.1487 83.1653 54.438 82.624C54.7274 82.0733 55.1287 81.6487 55.642 81.35C56.1647 81.042 56.7667 80.888 57.448 80.888C58.12 80.888 58.6987 81.042 59.184 81.35C59.6787 81.6487 60.0567 82.0453 60.318 82.54C60.5794 83.0347 60.71 83.5667 60.71 84.136C60.71 84.2387 60.7054 84.3413 60.696 84.444C60.696 84.5467 60.696 84.6633 60.696 84.794H55.166C55.194 85.326 55.3154 85.7693 55.53 86.124C55.754 86.4693 56.0294 86.7307 56.356 86.908C56.692 87.0853 57.0467 87.174 57.42 87.174C57.9054 87.174 58.3114 87.062 58.638 86.838C58.9647 86.614 59.2027 86.3107 59.352 85.928H60.514C60.3274 86.572 59.968 87.1087 59.436 87.538C58.9134 87.958 58.2414 88.168 57.42 88.168ZM57.42 81.882C56.86 81.882 56.3607 82.0547 55.922 82.4C55.4927 82.736 55.2454 83.2307 55.18 83.884H59.548C59.52 83.2587 59.3054 82.7687 58.904 82.414C58.5027 82.0593 58.008 81.882 57.42 81.882ZM62.2687 88V81.056H63.3327L63.4027 82.302C63.6267 81.8633 63.9487 81.518 64.3687 81.266C64.7887 81.014 65.2647 80.888 65.7967 80.888C66.6181 80.888 67.2714 81.14 67.7567 81.644C68.2514 82.1387 68.4987 82.904 68.4987 83.94V88H67.3227V84.066C67.3227 82.6193 66.7254 81.896 65.5307 81.896C64.9334 81.896 64.4341 82.1153 64.0327 82.554C63.6407 82.9833 63.4447 83.5993 63.4447 84.402V88H62.2687ZM73.0245 88C72.3898 88 71.8905 87.846 71.5265 87.538C71.1625 87.23 70.9805 86.6747 70.9805 85.872V82.05H69.7765V81.056H70.9805L71.1345 79.39H72.1565V81.056H74.2005V82.05H72.1565V85.872C72.1565 86.3107 72.2451 86.6093 72.4225 86.768C72.5998 86.9173 72.9125 86.992 73.3605 86.992H74.0885V88H73.0245ZM78.2285 88.168C77.4072 88.168 76.7538 87.9207 76.2685 87.426C75.7832 86.922 75.5405 86.152 75.5405 85.116V81.056H76.7165V84.99C76.7165 86.4367 77.3092 87.16 78.4945 87.16C79.1012 87.16 79.6005 86.9453 79.9925 86.516C80.3938 86.0773 80.5945 85.4567 80.5945 84.654V81.056H81.7705V88H80.7065L80.6225 86.754C80.4078 87.1927 80.0858 87.538 79.6565 87.79C79.2365 88.042 78.7605 88.168 78.2285 88.168ZM83.7062 88V81.056H84.7702L84.8542 82.064C85.0782 81.6907 85.3769 81.4013 85.7502 81.196C86.1236 80.9907 86.5436 80.888 87.0102 80.888C87.5609 80.888 88.0322 81 88.4242 81.224C88.8256 81.448 89.1336 81.7887 89.3482 82.246C89.5909 81.826 89.9222 81.4947 90.3422 81.252C90.7716 81.0093 91.2336 80.888 91.7282 80.888C92.5589 80.888 93.2216 81.14 93.7162 81.644C94.2109 82.1387 94.4582 82.904 94.4582 83.94V88H93.2962V84.066C93.2962 83.3473 93.1516 82.806 92.8622 82.442C92.5729 82.078 92.1576 81.896 91.6162 81.896C91.0562 81.896 90.5896 82.1153 90.2162 82.554C89.8522 82.9833 89.6702 83.5993 89.6702 84.402V88H88.4942V84.066C88.4942 83.3473 88.3496 82.806 88.0602 82.442C87.7709 82.078 87.3556 81.896 86.8142 81.896C86.2636 81.896 85.8016 82.1153 85.4282 82.554C85.0642 82.9833 84.8822 83.5993 84.8822 84.402V88H83.7062ZM101.335 88L99.3048 81.056H100.481L101.951 86.502L103.575 81.056H104.905L106.543 86.502L107.999 81.056H109.189L107.159 88H105.955L104.247 82.274L102.539 88H101.335ZM111.203 79.516C110.97 79.516 110.774 79.4413 110.615 79.292C110.466 79.1333 110.391 78.9373 110.391 78.704C110.391 78.48 110.466 78.2933 110.615 78.144C110.774 77.9947 110.97 77.92 111.203 77.92C111.427 77.92 111.619 77.9947 111.777 78.144C111.936 78.2933 112.015 78.48 112.015 78.704C112.015 78.9373 111.936 79.1333 111.777 79.292C111.619 79.4413 111.427 79.516 111.203 79.516ZM110.615 88V81.056H111.791V88H110.615ZM116.583 88C115.948 88 115.449 87.846 115.085 87.538C114.721 87.23 114.539 86.6747 114.539 85.872V82.05H113.335V81.056H114.539L114.693 79.39H115.715V81.056H117.759V82.05H115.715V85.872C115.715 86.3107 115.804 86.6093 115.981 86.768C116.158 86.9173 116.471 86.992 116.919 86.992H117.647V88H116.583ZM119.253 88V77.92H120.429V82.246C120.662 81.8167 120.994 81.4853 121.423 81.252C121.852 81.0093 122.319 80.888 122.823 80.888C123.626 80.888 124.27 81.14 124.755 81.644C125.24 82.1387 125.483 82.904 125.483 83.94V88H124.321V84.066C124.321 82.6193 123.738 81.896 122.571 81.896C121.964 81.896 121.456 82.1153 121.045 82.554C120.634 82.9833 120.429 83.5993 120.429 84.402V88H119.253ZM133.28 88.168C132.701 88.168 132.221 88.07 131.838 87.874C131.455 87.678 131.171 87.4167 130.984 87.09C130.797 86.7633 130.704 86.4087 130.704 86.026C130.704 85.3167 130.975 84.7707 131.516 84.388C132.057 84.0053 132.795 83.814 133.728 83.814H135.604V83.73C135.604 83.1233 135.445 82.666 135.128 82.358C134.811 82.0407 134.386 81.882 133.854 81.882C133.397 81.882 133 81.9987 132.664 82.232C132.337 82.456 132.132 82.7873 132.048 83.226H130.844C130.891 82.722 131.059 82.2973 131.348 81.952C131.647 81.6067 132.015 81.3453 132.454 81.168C132.893 80.9813 133.359 80.888 133.854 80.888C134.825 80.888 135.553 81.1493 136.038 81.672C136.533 82.1853 136.78 82.8713 136.78 83.73V88H135.73L135.66 86.754C135.464 87.146 135.175 87.482 134.792 87.762C134.419 88.0327 133.915 88.168 133.28 88.168ZM133.462 87.174C133.91 87.174 134.293 87.0573 134.61 86.824C134.937 86.5907 135.184 86.2873 135.352 85.914C135.52 85.5407 135.604 85.1487 135.604 84.738V84.724H133.826C133.135 84.724 132.645 84.8453 132.356 85.088C132.076 85.3213 131.936 85.6153 131.936 85.97C131.936 86.334 132.067 86.628 132.328 86.852C132.599 87.0667 132.977 87.174 133.462 87.174ZM147.947 91.08V86.852C147.723 87.188 147.401 87.4913 146.981 87.762C146.561 88.0327 146.034 88.168 145.399 88.168C144.709 88.168 144.102 88.0093 143.579 87.692C143.066 87.3747 142.665 86.9407 142.375 86.39C142.095 85.8393 141.955 85.214 141.955 84.514C141.955 83.814 142.1 83.1933 142.389 82.652C142.679 82.1013 143.08 81.672 143.593 81.364C144.107 81.0467 144.713 80.888 145.413 80.888C145.983 80.888 146.487 81.0047 146.925 81.238C147.364 81.4713 147.705 81.798 147.947 82.218L148.059 81.056H149.123V91.08H147.947ZM145.525 87.146C145.992 87.146 146.403 87.0387 146.757 86.824C147.121 86.6 147.401 86.292 147.597 85.9C147.803 85.508 147.905 85.0507 147.905 84.528C147.905 84.0053 147.803 83.548 147.597 83.156C147.401 82.764 147.121 82.4607 146.757 82.246C146.403 82.022 145.992 81.91 145.525 81.91C145.068 81.91 144.657 82.022 144.293 82.246C143.939 82.4607 143.659 82.764 143.453 83.156C143.257 83.548 143.159 84.0053 143.159 84.528C143.159 85.0507 143.257 85.508 143.453 85.9C143.659 86.292 143.939 86.6 144.293 86.824C144.657 87.0387 145.068 87.146 145.525 87.146ZM153.574 88.168C152.753 88.168 152.1 87.9207 151.614 87.426C151.129 86.922 150.886 86.152 150.886 85.116V81.056H152.062V84.99C152.062 86.4367 152.655 87.16 153.84 87.16C154.447 87.16 154.946 86.9453 155.338 86.516C155.74 86.0773 155.94 85.4567 155.94 84.654V81.056H157.116V88H156.052L155.968 86.754C155.754 87.1927 155.432 87.538 155.002 87.79C154.582 88.042 154.106 88.168 153.574 88.168ZM159.766 79.516C159.533 79.516 159.337 79.4413 159.178 79.292C159.029 79.1333 158.954 78.9373 158.954 78.704C158.954 78.48 159.029 78.2933 159.178 78.144C159.337 77.9947 159.533 77.92 159.766 77.92C159.99 77.92 160.181 77.9947 160.34 78.144C160.499 78.2933 160.578 78.48 160.578 78.704C160.578 78.9373 160.499 79.1333 160.34 79.292C160.181 79.4413 159.99 79.516 159.766 79.516ZM159.178 88V81.056H160.354V88H159.178ZM165.594 88.168C164.931 88.168 164.334 88.0187 163.802 87.72C163.279 87.412 162.864 86.9873 162.556 86.446C162.257 85.8953 162.108 85.256 162.108 84.528C162.108 83.8 162.257 83.1653 162.556 82.624C162.864 82.0733 163.279 81.6487 163.802 81.35C164.334 81.042 164.931 80.888 165.594 80.888C166.415 80.888 167.106 81.1027 167.666 81.532C168.235 81.9613 168.594 82.5353 168.744 83.254H167.54C167.446 82.8247 167.218 82.4933 166.854 82.26C166.49 82.0173 166.065 81.896 165.58 81.896C165.188 81.896 164.819 81.994 164.474 82.19C164.128 82.386 163.848 82.68 163.634 83.072C163.419 83.464 163.312 83.9493 163.312 84.528C163.312 85.1067 163.419 85.592 163.634 85.984C163.848 86.376 164.128 86.6747 164.474 86.88C164.819 87.076 165.188 87.174 165.58 87.174C166.065 87.174 166.49 87.0573 166.854 86.824C167.218 86.5813 167.446 86.2407 167.54 85.802H168.744C168.604 86.502 168.249 87.0713 167.68 87.51C167.11 87.9487 166.415 88.168 165.594 88.168ZM170.386 88V77.92H171.562V83.982L174.404 81.056H175.846L172.766 84.192L176.238 88H174.74L171.562 84.402V88H170.386ZM181.524 88V82.05H180.474V81.056H181.524V79.852C181.524 79.18 181.692 78.69 182.028 78.382C182.364 78.074 182.854 77.92 183.498 77.92H184.198V78.928H183.68C183.325 78.928 183.073 79.0027 182.924 79.152C182.774 79.292 182.7 79.5347 182.7 79.88V81.056H184.408V82.05H182.7V88H181.524ZM188.698 88.168C188.045 88.168 187.457 88.0187 186.934 87.72C186.412 87.4213 185.996 87.0013 185.688 86.46C185.39 85.9093 185.24 85.2653 185.24 84.528C185.24 83.7907 185.394 83.1513 185.702 82.61C186.01 82.0593 186.426 81.6347 186.948 81.336C187.48 81.0373 188.073 80.888 188.726 80.888C189.38 80.888 189.968 81.0373 190.49 81.336C191.013 81.6347 191.424 82.0593 191.722 82.61C192.03 83.1513 192.184 83.7907 192.184 84.528C192.184 85.2653 192.03 85.9093 191.722 86.46C191.414 87.0013 190.994 87.4213 190.462 87.72C189.94 88.0187 189.352 88.168 188.698 88.168ZM188.698 87.16C189.1 87.16 189.473 87.062 189.818 86.866C190.164 86.67 190.444 86.376 190.658 85.984C190.873 85.592 190.98 85.1067 190.98 84.528C190.98 83.9493 190.873 83.464 190.658 83.072C190.453 82.68 190.178 82.386 189.832 82.19C189.487 81.994 189.118 81.896 188.726 81.896C188.325 81.896 187.952 81.994 187.606 82.19C187.261 82.386 186.981 82.68 186.766 83.072C186.552 83.464 186.444 83.9493 186.444 84.528C186.444 85.1067 186.552 85.592 186.766 85.984C186.981 86.376 187.256 86.67 187.592 86.866C187.938 87.062 188.306 87.16 188.698 87.16ZM193.82 88V77.92H194.996V88H193.82ZM196.923 88V77.92H198.099V88H196.923ZM203.191 88.168C202.537 88.168 201.949 88.0187 201.427 87.72C200.904 87.4213 200.489 87.0013 200.181 86.46C199.882 85.9093 199.733 85.2653 199.733 84.528C199.733 83.7907 199.887 83.1513 200.195 82.61C200.503 82.0593 200.918 81.6347 201.441 81.336C201.973 81.0373 202.565 80.888 203.219 80.888C203.872 80.888 204.46 81.0373 204.983 81.336C205.505 81.6347 205.916 82.0593 206.215 82.61C206.523 83.1513 206.677 83.7907 206.677 84.528C206.677 85.2653 206.523 85.9093 206.215 86.46C205.907 87.0013 205.487 87.4213 204.955 87.72C204.432 88.0187 203.844 88.168 203.191 88.168ZM203.191 87.16C203.592 87.16 203.965 87.062 204.311 86.866C204.656 86.67 204.936 86.376 205.151 85.984C205.365 85.592 205.473 85.1067 205.473 84.528C205.473 83.9493 205.365 83.464 205.151 83.072C204.945 82.68 204.67 82.386 204.325 82.19C203.979 81.994 203.611 81.896 203.219 81.896C202.817 81.896 202.444 81.994 202.099 82.19C201.753 82.386 201.473 82.68 201.259 83.072C201.044 83.464 200.937 83.9493 200.937 84.528C200.937 85.1067 201.044 85.592 201.259 85.984C201.473 86.376 201.749 86.67 202.085 86.866C202.43 87.062 202.799 87.16 203.191 87.16ZM209.452 88L207.422 81.056H208.598L210.068 86.502L211.692 81.056H213.022L214.66 86.502L216.116 81.056H217.306L215.276 88H214.072L212.364 82.274L210.656 88H209.452ZM218.467 84.43V83.436H224.011V84.43H218.467ZM228.318 88.168C227.497 88.168 226.844 87.9207 226.358 87.426C225.873 86.922 225.63 86.152 225.63 85.116V81.056H226.806V84.99C226.806 86.4367 227.399 87.16 228.584 87.16C229.191 87.16 229.69 86.9453 230.082 86.516C230.484 86.0773 230.684 85.4567 230.684 84.654V81.056H231.86V88H230.796L230.712 86.754C230.498 87.1927 230.176 87.538 229.746 87.79C229.326 88.042 228.85 88.168 228.318 88.168ZM233.796 91.08V81.056H234.86L234.972 82.204C235.196 81.868 235.513 81.5647 235.924 81.294C236.344 81.0233 236.876 80.888 237.52 80.888C238.211 80.888 238.813 81.0467 239.326 81.364C239.839 81.6813 240.236 82.1153 240.516 82.666C240.805 83.2167 240.95 83.842 240.95 84.542C240.95 85.242 240.805 85.8673 240.516 86.418C240.236 86.9593 239.835 87.3887 239.312 87.706C238.799 88.014 238.197 88.168 237.506 88.168C236.937 88.168 236.428 88.0513 235.98 87.818C235.541 87.5847 235.205 87.258 234.972 86.838V91.08H233.796ZM237.38 87.146C237.847 87.146 238.257 87.0387 238.612 86.824C238.967 86.6 239.247 86.292 239.452 85.9C239.657 85.508 239.76 85.0507 239.76 84.528C239.76 84.0053 239.657 83.548 239.452 83.156C239.247 82.764 238.967 82.4607 238.612 82.246C238.257 82.022 237.847 81.91 237.38 81.91C236.913 81.91 236.503 82.022 236.148 82.246C235.793 82.4607 235.513 82.764 235.308 83.156C235.103 83.548 235 84.0053 235 84.528C235 85.0507 235.103 85.508 235.308 85.9C235.513 86.292 235.793 86.6 236.148 86.824C236.503 87.0387 236.913 87.146 237.38 87.146Z" fill="white"/>
<path d="M283.936 20.8171C286.079 22.3933 287.962 24.2962 289.519 26.4515C289.91 26.9911 290.275 27.5677 290.938 27.7943C291.641 28.0341 292.364 27.7725 293.036 27.562C294.466 27.1105 295.897 26.6694 297.333 26.239C303.037 24.5277 308.79 22.9829 314.583 21.6015C317.864 20.8205 321.159 20.0922 324.464 19.419L323.801 18.4231C322.22 20.3745 320.083 21.7776 317.971 23.0891C315.588 24.5661 313.172 25.989 310.724 27.358C308.276 28.7269 305.827 30.0258 303.336 31.2752C302.08 31.9044 300.818 32.5203 299.552 33.1228C298.928 33.4196 298.3 33.7108 297.671 34.002C297.042 34.2933 296.349 34.505 295.812 34.9034C295.517 35.1216 295.337 35.4384 295.333 35.8059C295.33 36.2305 295.598 36.5544 295.901 36.8186C296.5 37.3413 297.113 37.8469 297.718 38.3622L301.508 41.5766C301.716 41.754 302.105 41.7106 302.296 41.5294L312.213 32.187L322.082 22.888L327.675 17.6178C328.148 17.1709 327.763 16.3934 327.122 16.4972C321.399 17.4198 315.668 18.3418 309.889 18.8357C307.059 19.0777 304.217 19.21 301.374 19.1868C298.531 19.1637 295.957 19.0086 293.25 18.974C290.214 18.9351 287.15 19.0342 284.168 19.6517C283.356 19.8191 283.609 21.0875 284.426 20.9179C289.723 19.8212 295.174 20.3773 300.535 20.4662C306.287 20.5636 312.025 20.0203 317.718 19.2407C320.945 18.7979 324.161 18.2793 327.377 17.7632L326.824 16.6427L316.908 25.9851L307.038 35.284L301.446 40.5543L302.234 40.5071L298.977 37.7462L297.374 36.3856C297.146 36.1913 296.925 35.9716 296.681 35.7969C296.666 35.7855 296.626 35.7206 296.605 35.7218C296.59 35.7233 296.696 36.0621 296.55 35.9589C296.54 35.9531 296.849 35.7928 296.852 35.793C299.314 34.6686 301.761 33.5171 304.178 32.2989C309.009 29.8623 313.738 27.2167 318.342 24.3708C320.722 22.8988 323.086 21.3506 324.865 19.1537C325.23 18.702 324.723 18.0509 324.203 18.1578C318.45 19.3322 312.73 20.6668 307.053 22.165C304.194 22.9204 301.347 23.7155 298.511 24.5502C297.112 24.9624 295.718 25.3853 294.326 25.8161C293.62 26.0347 292.917 26.2717 292.206 26.4795C291.96 26.5508 291.661 26.6521 291.403 26.5931C291.146 26.5341 290.979 26.2844 290.834 26.088C289.964 24.9095 289.081 23.7639 288.057 22.7123C287.033 21.6606 285.869 20.646 284.658 19.7552C283.988 19.2612 283.262 20.3333 283.933 20.8246L283.936 20.8171Z" fill="#A8DADC"/>
<path d="M291.113 27.6196C290.798 31.0925 290.594 34.5755 290.498 38.0608C290.486 38.5107 290.989 38.9543 291.43 38.6839C293.119 37.6517 293.748 35.7934 294.903 34.2895C295.517 33.4922 296.35 32.9403 297.236 32.4853C298.296 31.9386 299.4 31.4701 300.486 30.9717C305.152 28.8347 309.818 26.6976 314.484 24.5606L322.391 20.9404C323.148 20.5931 322.574 19.4349 321.817 19.7822C317.133 21.9283 312.445 24.0743 307.76 26.2204L300.789 29.4123C299.653 29.9331 298.515 30.4434 297.385 30.975C296.408 31.4342 295.425 31.9499 294.626 32.6879C293.827 33.426 293.281 34.3627 292.726 35.2884C292.232 36.1173 291.699 37.0108 290.856 37.5257L291.787 38.1488C291.883 34.6636 292.087 31.1805 292.402 27.7077C292.477 26.8787 291.187 26.7907 291.113 27.6196Z" fill="#A8DADC"/>
<path d="M294.809 34.1382C294.624 33.9779 294.756 34.0931 294.796 34.1425C294.813 34.1618 294.824 34.1833 294.841 34.2C294.909 34.2797 294.755 34.062 294.809 34.1486C294.869 34.2485 294.924 34.3507 294.972 34.4576C295.026 34.5752 295.074 34.6977 295.118 34.8198C295.129 34.8517 295.142 34.8836 295.153 34.9155C295.19 35.019 295.163 34.9524 295.144 34.889C295.165 34.9604 295.191 35.0321 295.215 35.1036C295.377 35.6095 295.498 36.1565 295.754 36.6247C295.915 36.9206 296.307 37.0899 296.619 36.9169C296.932 36.744 297.082 36.3683 296.912 36.051C296.861 35.9569 296.819 35.8581 296.779 35.757C296.759 35.7038 296.74 35.6481 296.72 35.595C296.681 35.4861 296.77 35.7434 296.735 35.6374C296.724 35.6082 296.716 35.5766 296.705 35.5473C296.615 35.2692 296.531 34.9914 296.441 34.7133C296.241 34.1091 296.032 33.4964 295.538 33.0689C295.42 32.9677 295.192 32.9417 295.045 32.9705C294.898 32.9993 294.722 33.1065 294.64 33.2408C294.55 33.3849 294.499 33.5627 294.542 33.734C294.584 33.9053 294.677 34.023 294.812 34.1384L294.809 34.1382Z" fill="#A8DADC"/>
<path d="M291.432 38.6817C292.995 37.804 294.7 37.2134 296.263 36.3357C296.567 36.1648 296.714 35.7941 296.555 35.4698C296.405 35.1694 295.993 35.0066 295.689 35.1775C294.127 36.0552 292.421 36.6458 290.859 37.5235C290.554 37.6944 290.407 38.0651 290.566 38.3894C290.717 38.6898 291.128 38.8526 291.432 38.6817Z" fill="#A8DADC"/>
<path d="M312.488 66.1495C309.902 67.8575 307.642 69.8767 305.786 72.1287C305.32 72.6925 304.887 73.2918 304.081 73.5589C303.226 73.8417 302.337 73.6239 301.511 73.454C299.753 73.089 297.993 72.7346 296.228 72.3911C289.217 71.0251 282.151 69.8286 275.038 68.7981C271.01 68.2158 266.966 67.6873 262.911 67.2144L263.699 66.1773C265.675 68.0343 268.318 69.3088 270.93 70.4931C273.875 71.8265 276.859 73.1039 279.882 74.3253C282.905 75.5466 285.927 76.6979 289.001 77.7969C290.549 78.3504 292.106 78.89 293.667 79.4161C294.436 79.6752 295.211 79.9285 295.986 80.1818C296.761 80.435 297.613 80.6048 298.279 80.971C298.644 81.1714 298.87 81.4775 298.884 81.8451C298.897 82.2699 298.576 82.6105 298.211 82.8934C297.491 83.453 296.752 83.9962 296.024 84.5488L291.461 87.9966C291.211 88.1868 290.734 88.167 290.497 87.9972L278.168 79.2492L265.899 70.5418L258.946 65.6067C258.358 65.1882 258.811 64.3866 259.598 64.4515C266.614 65.027 273.64 65.6014 280.716 65.7444C284.181 65.8145 287.659 65.7741 291.134 65.5781C294.608 65.3821 297.752 65.0704 301.061 64.8711C304.772 64.6476 308.519 64.5605 312.178 64.9973C313.174 65.1154 312.893 66.4003 311.89 66.2803C305.391 65.5047 298.739 66.3927 292.187 66.8076C285.157 67.2549 278.13 67.06 271.154 66.6258C267.2 66.3788 263.256 66.0552 259.313 65.7342L259.964 64.5791L272.293 73.3271L284.562 82.0345L291.515 86.9696L290.55 86.9703L294.471 84.0088L296.402 82.5494C296.676 82.3411 296.941 82.1078 297.236 81.918C297.254 81.9058 297.301 81.8384 297.326 81.8383C297.345 81.8389 297.223 82.1845 297.399 82.0723C297.411 82.0659 297.03 81.9243 297.026 81.9246C293.991 80.9488 290.976 79.9451 287.994 78.8727C282.034 76.7276 276.194 74.3671 270.504 71.7985C267.562 70.4698 264.638 69.064 262.414 66.9733C261.958 66.5433 262.564 65.8608 263.202 65.9362C270.261 66.7618 277.283 67.7499 284.256 68.9043C287.768 69.4865 291.266 70.1093 294.752 70.7723C296.47 71.0999 298.184 71.4384 299.895 71.785C300.764 71.9608 301.628 72.1552 302.502 72.3201C302.804 72.3765 303.172 72.4597 303.486 72.3849C303.799 72.3102 303.998 72.0501 304.17 71.8447C305.208 70.6123 306.262 69.4119 307.491 68.2971C308.72 67.1822 310.12 66.0959 311.581 65.1306C312.39 64.5954 313.301 65.6243 312.492 66.1569L312.488 66.1495Z" fill="#A8DADC"/>
<path d="M303.863 73.3948C304.324 76.8518 304.65 80.3256 304.843 83.8082C304.869 84.2577 304.263 84.7324 303.718 84.4885C301.63 83.5581 300.82 81.7364 299.376 80.3013C298.608 79.5405 297.577 79.0388 296.484 78.6373C295.176 78.1546 293.815 77.7527 292.477 77.3199C286.726 75.4646 280.975 73.6093 275.223 71.754L265.478 68.6112C264.545 68.3097 265.221 67.1155 266.154 67.4171C271.928 69.2803 277.706 71.1433 283.48 73.0065L292.072 75.7776C293.473 76.2297 294.876 76.6712 296.268 77.1347C297.472 77.5349 298.686 77.9912 299.679 78.6814C300.672 79.3716 301.36 80.276 302.059 81.1688C302.681 81.9683 303.352 82.8303 304.394 83.2944L303.269 83.9747C303.076 80.4921 302.75 77.0182 302.289 73.5613C302.179 72.7361 303.753 72.5696 303.863 73.3948Z" fill="#A8DADC"/>
<path d="M299.487 80.144C299.71 79.9722 299.552 80.0956 299.503 80.1475C299.483 80.1678 299.469 80.19 299.449 80.2078C299.369 80.2916 299.552 80.0644 299.488 80.1543C299.416 80.258 299.351 80.3637 299.296 80.4735C299.232 80.5946 299.175 80.7201 299.125 80.845C299.112 80.8775 299.097 80.9103 299.084 80.9428C299.041 81.0487 299.072 80.9805 299.094 80.9158C299.07 80.9885 299.039 81.0619 299.012 81.135C298.825 81.6511 298.689 82.206 298.387 82.6901C298.197 82.9961 297.721 83.1894 297.335 83.0353C296.949 82.8812 296.758 82.5142 296.959 82.1863C297.018 82.0891 297.068 81.9877 297.114 81.884C297.137 81.8296 297.16 81.7726 297.183 81.7182C297.228 81.6069 297.126 81.8698 297.165 81.7617C297.178 81.7318 297.187 81.6996 297.2 81.6697C297.304 81.3858 297.401 81.1027 297.505 80.8188C297.736 80.2019 297.978 79.5759 298.573 79.118C298.714 79.0095 298.993 78.9696 299.174 78.9895C299.354 79.0094 299.571 79.106 299.674 79.2354C299.787 79.3742 299.854 79.5491 299.805 79.7231C299.757 79.8972 299.646 80.0207 299.484 80.1444L299.487 80.144Z" fill="#A8DADC"/>
<path d="M303.715 84.4863C301.786 83.7029 299.687 83.2154 297.758 82.4319C297.382 82.2793 297.194 81.9172 297.382 81.5829C297.559 81.2731 298.058 81.0852 298.434 81.2378C300.363 82.0212 302.462 82.5087 304.391 83.2922C304.767 83.4448 304.955 83.8069 304.767 84.1412C304.59 84.451 304.091 84.6389 303.715 84.4863Z" fill="#A8DADC"/>
<path d="M244 36.5005C265.5 41.0007 266.174 31.3903 282.534 34.5797" stroke="#A8DADC" stroke-width="1.29216"/>
<path d="M313.572 85.3954C317.621 88.8653 329.752 94.3909 345.89 88.734C366.062 81.6628 367.236 75.5616 383.901 75.8779" stroke="#A8DADC" stroke-width="1.29216"/>
</g>
</svg>
