<svg width="375" height="210" viewBox="0 0 375 210" fill="none" xmlns="http://www.w3.org/2000/svg">
<path d="M15.76 16V6.176H12.448V4.8H20.752V6.176H17.456V16H15.76ZM24.2296 16.192C23.4723 16.192 22.7896 16.0213 22.1816 15.68C21.5843 15.328 21.1096 14.8427 20.7576 14.224C20.4056 13.5947 20.2296 12.864 20.2296 12.032C20.2296 11.2 20.4056 10.4747 20.7576 9.856C21.1203 9.22667 21.6056 8.74133 22.2136 8.4C22.8216 8.048 23.499 7.872 24.2456 7.872C25.003 7.872 25.6803 8.048 26.2776 8.4C26.8856 8.74133 27.3656 9.22667 27.7176 9.856C28.0803 10.4747 28.2616 11.2 28.2616 12.032C28.2616 12.864 28.0803 13.5947 27.7176 14.224C27.3656 14.8427 26.8856 15.328 26.2776 15.68C25.6696 16.0213 24.987 16.192 24.2296 16.192ZM24.2296 14.736C24.635 14.736 25.0083 14.6347 25.3496 14.432C25.7016 14.2293 25.9843 13.9307 26.1976 13.536C26.411 13.1307 26.5176 12.6293 26.5176 12.032C26.5176 11.4347 26.411 10.9387 26.1976 10.544C25.995 10.1387 25.7176 9.83467 25.3656 9.632C25.0243 9.42933 24.651 9.328 24.2456 9.328C23.8403 9.328 23.4616 9.42933 23.1096 9.632C22.7683 9.83467 22.491 10.1387 22.2776 10.544C22.0643 10.9387 21.9576 11.4347 21.9576 12.032C21.9576 12.6293 22.0643 13.1307 22.2776 13.536C22.491 13.9307 22.7683 14.2293 23.1096 14.432C23.451 14.6347 23.8243 14.736 24.2296 14.736ZM33.3918 16.192C32.6238 16.192 31.9464 16.0107 31.3598 15.648C30.7731 15.2853 30.3144 14.7893 29.9838 14.16C29.6531 13.5307 29.4878 12.816 29.4878 12.016C29.4878 11.216 29.6531 10.5067 29.9838 9.888C30.3144 9.25867 30.7731 8.768 31.3598 8.416C31.9571 8.05333 32.6398 7.872 33.4078 7.872C34.0371 7.872 34.5864 7.99467 35.0558 8.24C35.5358 8.48533 35.9091 8.832 36.1758 9.28V4.48H37.8718V16H36.3518L36.1758 14.768C35.9198 15.1413 35.5678 15.472 35.1198 15.76C34.6718 16.048 34.0958 16.192 33.3918 16.192ZM33.6958 14.72C34.4211 14.72 35.0131 14.4693 35.4718 13.968C35.9411 13.4667 36.1758 12.8213 36.1758 12.032C36.1758 11.232 35.9411 10.5867 35.4718 10.096C35.0131 9.59467 34.4211 9.344 33.6958 9.344C32.9704 9.344 32.3731 9.59467 31.9038 10.096C31.4344 10.5867 31.1998 11.232 31.1998 12.032C31.1998 12.5547 31.3064 13.0187 31.5198 13.424C31.7331 13.8293 32.0264 14.1493 32.3998 14.384C32.7838 14.608 33.2158 14.72 33.6958 14.72ZM42.3781 16.192C41.7061 16.192 41.1515 16.08 40.7141 15.856C40.2768 15.632 39.9515 15.3387 39.7381 14.976C39.5248 14.6027 39.4181 14.1973 39.4181 13.76C39.4181 12.992 39.7168 12.384 40.3141 11.936C40.9115 11.488 41.7648 11.264 42.8741 11.264H44.9541V11.12C44.9541 10.5013 44.7835 10.0373 44.4421 9.728C44.1115 9.41867 43.6795 9.264 43.1461 9.264C42.6768 9.264 42.2661 9.38133 41.9141 9.616C41.5728 9.84 41.3648 10.176 41.2901 10.624H39.5941C39.6475 10.048 39.8395 9.55733 40.1701 9.152C40.5115 8.736 40.9381 8.42133 41.4501 8.208C41.9728 7.984 42.5435 7.872 43.1621 7.872C44.2715 7.872 45.1301 8.16533 45.7381 8.752C46.3461 9.328 46.6501 10.1173 46.6501 11.12V16H45.1781L45.0341 14.64C44.8101 15.0773 44.4848 15.4453 44.0581 15.744C43.6315 16.0427 43.0715 16.192 42.3781 16.192ZM42.7141 14.816C43.1728 14.816 43.5568 14.7093 43.8661 14.496C44.1861 14.272 44.4315 13.9787 44.6021 13.616C44.7835 13.2533 44.8955 12.8533 44.9381 12.416H43.0501C42.3781 12.416 41.8981 12.5333 41.6101 12.768C41.3328 13.0027 41.1941 13.296 41.1941 13.648C41.1941 14.0107 41.3275 14.2987 41.5941 14.512C41.8715 14.7147 42.2448 14.816 42.7141 14.816ZM48.9856 19.52L50.8896 15.344H50.4256L47.2896 8.064H49.1296L51.5616 13.936L54.1056 8.064H55.8976L50.7776 19.52H48.9856Z" fill="black"/>
<rect y="27" width="375" height="1" fill="#D3D7DB"/>
<path d="M89.46 99V97.04H84.546V95.864L89.222 89.2H90.93V95.752H92.302V97.04H90.93V99H89.46ZM86.156 95.752H89.544V90.838L86.156 95.752ZM96.8527 99.168C96.218 99.168 95.6393 99.056 95.1167 98.832C94.6033 98.5987 94.1927 98.2487 93.8847 97.782C93.5767 97.3153 93.4133 96.732 93.3947 96.032H94.8647C94.8833 96.5547 95.0607 96.998 95.3967 97.362C95.742 97.7167 96.2273 97.894 96.8527 97.894C97.45 97.894 97.9073 97.7307 98.2247 97.404C98.542 97.068 98.7007 96.6527 98.7007 96.158C98.7007 95.5607 98.486 95.1173 98.0567 94.828C97.6367 94.5387 97.1187 94.394 96.5027 94.394H95.7747V93.162H96.5167C97.0673 93.162 97.5107 93.0313 97.8467 92.77C98.192 92.5087 98.3647 92.14 98.3647 91.664C98.3647 91.2627 98.2293 90.936 97.9587 90.684C97.6973 90.432 97.324 90.306 96.8387 90.306C96.3347 90.306 95.938 90.4553 95.6487 90.754C95.3593 91.0433 95.2007 91.4073 95.1727 91.846H93.7027C93.7213 91.2767 93.8613 90.782 94.1227 90.362C94.3933 89.942 94.762 89.6153 95.2287 89.382C95.6953 89.1487 96.232 89.032 96.8387 89.032C97.492 89.032 98.038 89.1487 98.4767 89.382C98.9247 89.606 99.2607 89.914 99.4847 90.306C99.718 90.6887 99.8347 91.1087 99.8347 91.566C99.8347 92.0887 99.69 92.546 99.4007 92.938C99.1113 93.33 98.724 93.5913 98.2387 93.722C98.7987 93.8433 99.2607 94.1187 99.6247 94.548C99.9887 94.968 100.171 95.514 100.171 96.186C100.171 96.7273 100.045 97.2267 99.7927 97.684C99.5407 98.132 99.1673 98.4913 98.6727 98.762C98.178 99.0327 97.5713 99.168 96.8527 99.168ZM101.946 99V92.056H103.262L103.388 93.036C103.612 92.6813 103.906 92.4013 104.27 92.196C104.643 91.9907 105.072 91.888 105.558 91.888C106.659 91.888 107.424 92.322 107.854 93.19C108.106 92.7887 108.442 92.4713 108.862 92.238C109.291 92.0047 109.753 91.888 110.248 91.888C111.116 91.888 111.797 92.1493 112.292 92.672C112.786 93.1947 113.034 93.974 113.034 95.01V99H111.55V95.164C111.55 93.82 111.036 93.148 110.01 93.148C109.487 93.148 109.058 93.344 108.722 93.736C108.395 94.128 108.232 94.688 108.232 95.416V99H106.748V95.164C106.748 93.82 106.23 93.148 105.194 93.148C104.68 93.148 104.256 93.344 103.92 93.736C103.593 94.128 103.43 94.688 103.43 95.416V99H101.946ZM120.649 99.168C120.061 99.168 119.576 99.07 119.193 98.874C118.811 98.678 118.526 98.4213 118.339 98.104C118.153 97.7773 118.059 97.4227 118.059 97.04C118.059 96.368 118.321 95.836 118.843 95.444C119.366 95.052 120.113 94.856 121.083 94.856H122.903V94.73C122.903 94.1887 122.754 93.7827 122.455 93.512C122.166 93.2413 121.788 93.106 121.321 93.106C120.911 93.106 120.551 93.2087 120.243 93.414C119.945 93.61 119.763 93.904 119.697 94.296H118.213C118.26 93.792 118.428 93.3627 118.717 93.008C119.016 92.644 119.389 92.3687 119.837 92.182C120.295 91.986 120.794 91.888 121.335 91.888C122.306 91.888 123.057 92.1447 123.589 92.658C124.121 93.162 124.387 93.8527 124.387 94.73V99H123.099L122.973 97.81C122.777 98.1927 122.493 98.5147 122.119 98.776C121.746 99.0373 121.256 99.168 120.649 99.168ZM120.943 97.964C121.345 97.964 121.681 97.8707 121.951 97.684C122.231 97.488 122.446 97.2313 122.595 96.914C122.754 96.5967 122.852 96.2467 122.889 95.864H121.237C120.649 95.864 120.229 95.9667 119.977 96.172C119.735 96.3773 119.613 96.634 119.613 96.942C119.613 97.2593 119.73 97.5113 119.963 97.698C120.206 97.8753 120.533 97.964 120.943 97.964ZM128.96 96.872C128.596 96.872 128.26 96.83 127.952 96.746L127.35 97.334C127.452 97.3993 127.578 97.4553 127.728 97.502C127.877 97.5487 128.087 97.5907 128.358 97.628C128.628 97.6653 128.997 97.7027 129.464 97.74C130.388 97.824 131.055 98.048 131.466 98.412C131.876 98.7667 132.082 99.2427 132.082 99.84C132.082 100.251 131.97 100.638 131.746 101.002C131.531 101.375 131.19 101.674 130.724 101.898C130.266 102.131 129.678 102.248 128.96 102.248C127.989 102.248 127.2 102.061 126.594 101.688C125.996 101.324 125.698 100.769 125.698 100.022C125.698 99.7327 125.772 99.4433 125.922 99.154C126.08 98.874 126.328 98.608 126.664 98.356C126.468 98.272 126.295 98.1833 126.146 98.09C126.006 97.9873 125.88 97.8847 125.768 97.782V97.446L126.972 96.214C126.43 95.7473 126.16 95.136 126.16 94.38C126.16 93.9227 126.267 93.5073 126.482 93.134C126.706 92.7513 127.028 92.448 127.448 92.224C127.868 92 128.372 91.888 128.96 91.888C129.352 91.888 129.716 91.944 130.052 92.056H132.642V93.036L131.41 93.106C131.634 93.4887 131.746 93.9133 131.746 94.38C131.746 94.8467 131.634 95.2667 131.41 95.64C131.195 96.0133 130.878 96.312 130.458 96.536C130.047 96.76 129.548 96.872 128.96 96.872ZM128.96 95.71C129.389 95.71 129.734 95.598 129.996 95.374C130.266 95.1407 130.402 94.814 130.402 94.394C130.402 93.9647 130.266 93.638 129.996 93.414C129.734 93.19 129.389 93.078 128.96 93.078C128.521 93.078 128.166 93.19 127.896 93.414C127.634 93.638 127.504 93.9647 127.504 94.394C127.504 94.814 127.634 95.1407 127.896 95.374C128.166 95.598 128.521 95.71 128.96 95.71ZM127.098 99.882C127.098 100.283 127.275 100.582 127.63 100.778C127.984 100.983 128.428 101.086 128.96 101.086C129.473 101.086 129.888 100.974 130.206 100.75C130.523 100.535 130.682 100.246 130.682 99.882C130.682 99.6113 130.574 99.378 130.36 99.182C130.145 98.9953 129.739 98.8787 129.142 98.832C128.694 98.804 128.297 98.762 127.952 98.706C127.625 98.8833 127.401 99.0747 127.28 99.28C127.158 99.4853 127.098 99.686 127.098 99.882ZM136.94 99.168C136.277 99.168 135.68 99.0187 135.148 98.72C134.625 98.412 134.21 97.9873 133.902 97.446C133.594 96.8953 133.44 96.256 133.44 95.528C133.44 94.8 133.594 94.1653 133.902 93.624C134.219 93.0733 134.644 92.6487 135.176 92.35C135.708 92.042 136.301 91.888 136.954 91.888C137.617 91.888 138.209 92.042 138.732 92.35C139.264 92.6487 139.684 93.0733 139.992 93.624C140.309 94.1653 140.468 94.8 140.468 95.528C140.468 96.256 140.309 96.8953 139.992 97.446C139.684 97.9873 139.264 98.412 138.732 98.72C138.2 99.0187 137.603 99.168 136.94 99.168ZM136.94 97.894C137.295 97.894 137.621 97.8053 137.92 97.628C138.228 97.4507 138.475 97.1893 138.662 96.844C138.849 96.4893 138.942 96.0507 138.942 95.528C138.942 95.0053 138.849 94.5713 138.662 94.226C138.485 93.8713 138.242 93.6053 137.934 93.428C137.635 93.2507 137.309 93.162 136.954 93.162C136.599 93.162 136.268 93.2507 135.96 93.428C135.661 93.6053 135.419 93.8713 135.232 94.226C135.045 94.5713 134.952 95.0053 134.952 95.528C134.952 96.0507 135.045 96.4893 135.232 96.844C135.419 97.1893 135.661 97.4507 135.96 97.628C136.259 97.8053 136.585 97.894 136.94 97.894Z" fill="black"/>
<path d="M88.088 181.168C87.4627 181.168 86.898 181.056 86.394 180.832C85.89 180.599 85.484 180.253 85.176 179.796C84.8773 179.339 84.7187 178.769 84.7 178.088H85.89C85.8993 178.648 86.0953 179.133 86.478 179.544C86.8607 179.945 87.3973 180.146 88.088 180.146C88.7787 180.146 89.2967 179.955 89.642 179.572C89.9967 179.189 90.174 178.727 90.174 178.186C90.174 177.729 90.062 177.355 89.838 177.066C89.6233 176.777 89.3293 176.562 88.956 176.422C88.592 176.282 88.1907 176.212 87.752 176.212H87.024V175.218H87.752C88.3867 175.218 88.8813 175.073 89.236 174.784C89.6 174.495 89.782 174.089 89.782 173.566C89.782 173.127 89.6373 172.768 89.348 172.488C89.068 172.199 88.648 172.054 88.088 172.054C87.5467 172.054 87.1127 172.217 86.786 172.544C86.4593 172.861 86.2773 173.263 86.24 173.748H85.05C85.078 173.216 85.218 172.745 85.47 172.334C85.7313 171.923 86.086 171.606 86.534 171.382C86.982 171.149 87.5 171.032 88.088 171.032C88.7227 171.032 89.25 171.144 89.67 171.368C90.0993 171.592 90.4213 171.891 90.636 172.264C90.86 172.637 90.972 173.048 90.972 173.496C90.972 173.991 90.8367 174.443 90.566 174.854C90.2953 175.255 89.8893 175.526 89.348 175.666C89.9267 175.787 90.4073 176.063 90.79 176.492C91.1727 176.921 91.364 177.486 91.364 178.186C91.364 178.727 91.238 179.227 90.986 179.684C90.7433 180.132 90.3793 180.491 89.894 180.762C89.4087 181.033 88.8067 181.168 88.088 181.168ZM93.1965 181V170.92H94.3725V175.246C94.6058 174.817 94.9371 174.485 95.3665 174.252C95.7958 174.009 96.2625 173.888 96.7665 173.888C97.5691 173.888 98.2131 174.14 98.6985 174.644C99.1838 175.139 99.4265 175.904 99.4265 176.94V181H98.2645V177.066C98.2645 175.619 97.6811 174.896 96.5145 174.896C95.9078 174.896 95.3991 175.115 94.9885 175.554C94.5778 175.983 94.3725 176.599 94.3725 177.402V181H93.1965ZM101.208 181V174.056H102.272L102.37 175.386C102.585 174.929 102.912 174.565 103.35 174.294C103.789 174.023 104.33 173.888 104.974 173.888V175.12H104.652C104.242 175.12 103.864 175.195 103.518 175.344C103.173 175.484 102.898 175.727 102.692 176.072C102.487 176.417 102.384 176.893 102.384 177.5V181H101.208ZM108.954 181.168C108.123 181.168 107.433 180.958 106.882 180.538C106.331 180.118 106.009 179.549 105.916 178.83H107.12C107.195 179.194 107.386 179.511 107.694 179.782C108.011 180.043 108.436 180.174 108.968 180.174C109.463 180.174 109.827 180.071 110.06 179.866C110.293 179.651 110.41 179.399 110.41 179.11C110.41 178.69 110.256 178.41 109.948 178.27C109.649 178.13 109.225 178.004 108.674 177.892C108.301 177.817 107.927 177.71 107.554 177.57C107.181 177.43 106.868 177.234 106.616 176.982C106.364 176.721 106.238 176.38 106.238 175.96C106.238 175.353 106.462 174.859 106.91 174.476C107.367 174.084 107.983 173.888 108.758 173.888C109.495 173.888 110.097 174.075 110.564 174.448C111.04 174.812 111.315 175.335 111.39 176.016H110.228C110.181 175.661 110.027 175.386 109.766 175.19C109.514 174.985 109.173 174.882 108.744 174.882C108.324 174.882 107.997 174.971 107.764 175.148C107.54 175.325 107.428 175.559 107.428 175.848C107.428 176.128 107.573 176.347 107.862 176.506C108.161 176.665 108.562 176.8 109.066 176.912C109.495 177.005 109.901 177.122 110.284 177.262C110.676 177.393 110.993 177.593 111.236 177.864C111.488 178.125 111.614 178.508 111.614 179.012C111.623 179.637 111.385 180.155 110.9 180.566C110.424 180.967 109.775 181.168 108.954 181.168ZM119.309 181.168C118.731 181.168 118.25 181.07 117.867 180.874C117.485 180.678 117.2 180.417 117.013 180.09C116.827 179.763 116.733 179.409 116.733 179.026C116.733 178.317 117.004 177.771 117.545 177.388C118.087 177.005 118.824 176.814 119.757 176.814H121.633V176.73C121.633 176.123 121.475 175.666 121.157 175.358C120.84 175.041 120.415 174.882 119.883 174.882C119.426 174.882 119.029 174.999 118.693 175.232C118.367 175.456 118.161 175.787 118.077 176.226H116.873C116.92 175.722 117.088 175.297 117.377 174.952C117.676 174.607 118.045 174.345 118.483 174.168C118.922 173.981 119.389 173.888 119.883 173.888C120.854 173.888 121.582 174.149 122.067 174.672C122.562 175.185 122.809 175.871 122.809 176.73V181H121.759L121.689 179.754C121.493 180.146 121.204 180.482 120.821 180.762C120.448 181.033 119.944 181.168 119.309 181.168ZM119.491 180.174C119.939 180.174 120.322 180.057 120.639 179.824C120.966 179.591 121.213 179.287 121.381 178.914C121.549 178.541 121.633 178.149 121.633 177.738V177.724H119.855C119.165 177.724 118.675 177.845 118.385 178.088C118.105 178.321 117.965 178.615 117.965 178.97C117.965 179.334 118.096 179.628 118.357 179.852C118.628 180.067 119.006 180.174 119.491 180.174ZM127.317 178.816C126.925 178.816 126.566 178.765 126.239 178.662L125.539 179.32C125.642 179.395 125.768 179.46 125.917 179.516C126.076 179.563 126.3 179.609 126.589 179.656C126.879 179.693 127.285 179.735 127.807 179.782C128.741 179.847 129.408 180.062 129.809 180.426C130.211 180.79 130.411 181.266 130.411 181.854C130.411 182.255 130.299 182.638 130.075 183.002C129.861 183.366 129.525 183.665 129.067 183.898C128.619 184.131 128.041 184.248 127.331 184.248C126.706 184.248 126.151 184.164 125.665 183.996C125.18 183.837 124.802 183.59 124.531 183.254C124.261 182.927 124.125 182.512 124.125 182.008C124.125 181.747 124.195 181.462 124.335 181.154C124.475 180.855 124.737 180.571 125.119 180.3C124.914 180.216 124.737 180.127 124.587 180.034C124.447 179.931 124.317 179.819 124.195 179.698V179.376L125.385 178.2C124.835 177.733 124.559 177.117 124.559 176.352C124.559 175.895 124.667 175.479 124.881 175.106C125.096 174.733 125.409 174.439 125.819 174.224C126.23 174 126.729 173.888 127.317 173.888C127.719 173.888 128.083 173.944 128.409 174.056H130.971V174.938L129.669 174.994C129.94 175.386 130.075 175.839 130.075 176.352C130.075 176.809 129.963 177.225 129.739 177.598C129.525 177.971 129.212 178.27 128.801 178.494C128.4 178.709 127.905 178.816 127.317 178.816ZM127.317 177.85C127.812 177.85 128.204 177.724 128.493 177.472C128.792 177.211 128.941 176.837 128.941 176.352C128.941 175.876 128.792 175.512 128.493 175.26C128.204 174.999 127.812 174.868 127.317 174.868C126.813 174.868 126.412 174.999 126.113 175.26C125.824 175.512 125.679 175.876 125.679 176.352C125.679 176.837 125.824 177.211 126.113 177.472C126.412 177.724 126.813 177.85 127.317 177.85ZM125.273 181.896C125.273 182.363 125.469 182.708 125.861 182.932C126.253 183.165 126.743 183.282 127.331 183.282C127.91 183.282 128.372 183.156 128.717 182.904C129.072 182.652 129.249 182.316 129.249 181.896C129.249 181.597 129.128 181.336 128.885 181.112C128.643 180.897 128.195 180.771 127.541 180.734C127.028 180.697 126.585 180.65 126.211 180.594C125.829 180.799 125.577 181.019 125.455 181.252C125.334 181.495 125.273 181.709 125.273 181.896ZM135.189 181.168C134.535 181.168 133.947 181.019 133.425 180.72C132.902 180.421 132.487 180.001 132.179 179.46C131.88 178.909 131.731 178.265 131.731 177.528C131.731 176.791 131.885 176.151 132.193 175.61C132.501 175.059 132.916 174.635 133.439 174.336C133.971 174.037 134.563 173.888 135.217 173.888C135.87 173.888 136.458 174.037 136.981 174.336C137.503 174.635 137.914 175.059 138.213 175.61C138.521 176.151 138.675 176.791 138.675 177.528C138.675 178.265 138.521 178.909 138.213 179.46C137.905 180.001 137.485 180.421 136.953 180.72C136.43 181.019 135.842 181.168 135.189 181.168ZM135.189 180.16C135.59 180.16 135.963 180.062 136.309 179.866C136.654 179.67 136.934 179.376 137.149 178.984C137.363 178.592 137.471 178.107 137.471 177.528C137.471 176.949 137.363 176.464 137.149 176.072C136.943 175.68 136.668 175.386 136.323 175.19C135.977 174.994 135.609 174.896 135.217 174.896C134.815 174.896 134.442 174.994 134.097 175.19C133.751 175.386 133.471 175.68 133.257 176.072C133.042 176.464 132.935 176.949 132.935 177.528C132.935 178.107 133.042 178.592 133.257 178.984C133.471 179.376 133.747 179.67 134.083 179.866C134.428 180.062 134.797 180.16 135.189 180.16Z" fill="#727578"/>
<rect y="27" width="375" height="1" fill="#D3D7DB"/>
<rect y="118" width="375" height="1" fill="#D3D7DB"/>
<rect y="209" width="375" height="1" fill="#D3D7DB"/>
<path d="M88.284 57.168C87.64 57.168 87.0893 57.042 86.632 56.79C86.1747 56.538 85.8153 56.202 85.554 55.782C85.302 55.362 85.148 54.9047 85.092 54.41H86.478C86.562 54.8953 86.7627 55.2687 87.08 55.53C87.3973 55.7913 87.8033 55.922 88.298 55.922C88.9793 55.922 89.5393 55.6047 89.978 54.97C90.426 54.326 90.664 53.3413 90.692 52.016C90.468 52.4267 90.118 52.7767 89.642 53.066C89.1753 53.3553 88.634 53.5 88.018 53.5C87.4673 53.5 86.9493 53.3693 86.464 53.108C85.9787 52.8467 85.5867 52.4827 85.288 52.016C84.9893 51.54 84.84 50.98 84.84 50.336C84.84 49.7667 84.98 49.23 85.26 48.726C85.54 48.222 85.932 47.816 86.436 47.508C86.9493 47.1907 87.556 47.032 88.256 47.032C88.9747 47.032 89.5813 47.1673 90.076 47.438C90.5707 47.7087 90.9673 48.068 91.266 48.516C91.5647 48.964 91.7793 49.468 91.91 50.028C92.05 50.588 92.12 51.162 92.12 51.75C92.12 52.8327 91.966 53.78 91.658 54.592C91.3593 55.404 90.9253 56.0387 90.356 56.496C89.7867 56.944 89.096 57.168 88.284 57.168ZM88.354 52.226C88.746 52.226 89.096 52.1373 89.404 51.96C89.712 51.7827 89.9547 51.5493 90.132 51.26C90.3187 50.9613 90.412 50.6347 90.412 50.28C90.412 49.8973 90.3187 49.5613 90.132 49.272C89.9547 48.9733 89.7073 48.74 89.39 48.572C89.082 48.404 88.732 48.32 88.34 48.32C87.948 48.32 87.598 48.404 87.29 48.572C86.982 48.74 86.7347 48.9733 86.548 49.272C86.3707 49.5613 86.282 49.8927 86.282 50.266C86.282 50.8633 86.478 51.3393 86.87 51.694C87.262 52.0487 87.7567 52.226 88.354 52.226ZM100.041 57.168C99.3597 57.168 98.7484 57.014 98.207 56.706C97.675 56.398 97.255 55.9733 96.947 55.432C96.6484 54.8813 96.499 54.2467 96.499 53.528C96.499 52.8093 96.6484 52.1793 96.947 51.638C97.255 51.0873 97.675 50.658 98.207 50.35C98.7484 50.042 99.3597 49.888 100.041 49.888C100.9 49.888 101.618 50.112 102.197 50.56C102.785 51.008 103.163 51.6147 103.331 52.38H101.777C101.684 51.9973 101.478 51.6987 101.161 51.484C100.844 51.2693 100.47 51.162 100.041 51.162C99.677 51.162 99.341 51.2553 99.033 51.442C98.725 51.6193 98.4777 51.8853 98.291 52.24C98.1044 52.5853 98.011 53.0147 98.011 53.528C98.011 54.0413 98.1044 54.4753 98.291 54.83C98.4777 55.1753 98.725 55.4413 99.033 55.628C99.341 55.8147 99.677 55.908 100.041 55.908C100.47 55.908 100.844 55.8007 101.161 55.586C101.478 55.3713 101.684 55.068 101.777 54.676H103.331C103.172 55.4227 102.799 56.0247 102.211 56.482C101.623 56.9393 100.9 57.168 100.041 57.168ZM107.909 57.168C107.246 57.168 106.649 57.0187 106.116 56.72C105.594 56.412 105.178 55.9873 104.87 55.446C104.562 54.8953 104.408 54.256 104.408 53.528C104.408 52.8 104.562 52.1653 104.87 51.624C105.188 51.0733 105.612 50.6487 106.144 50.35C106.676 50.042 107.269 49.888 107.923 49.888C108.585 49.888 109.178 50.042 109.701 50.35C110.233 50.6487 110.653 51.0733 110.961 51.624C111.278 52.1653 111.436 52.8 111.436 53.528C111.436 54.256 111.278 54.8953 110.961 55.446C110.653 55.9873 110.233 56.412 109.701 56.72C109.168 57.0187 108.571 57.168 107.909 57.168ZM107.909 55.894C108.263 55.894 108.59 55.8053 108.889 55.628C109.197 55.4507 109.444 55.1893 109.631 54.844C109.817 54.4893 109.911 54.0507 109.911 53.528C109.911 53.0053 109.817 52.5713 109.631 52.226C109.453 51.8713 109.211 51.6053 108.902 51.428C108.604 51.2507 108.277 51.162 107.923 51.162C107.568 51.162 107.237 51.2507 106.929 51.428C106.63 51.6053 106.387 51.8713 106.2 52.226C106.014 52.5713 105.92 53.0053 105.92 53.528C105.92 54.0507 106.014 54.4893 106.2 54.844C106.387 55.1893 106.63 55.4507 106.929 55.628C107.227 55.8053 107.554 55.894 107.909 55.894ZM112.761 57V50.056H114.077L114.189 51.274C114.404 50.8447 114.717 50.5087 115.127 50.266C115.547 50.014 116.028 49.888 116.569 49.888C117.409 49.888 118.067 50.1493 118.543 50.672C119.029 51.1947 119.271 51.974 119.271 53.01V57H117.801V53.164C117.801 51.82 117.251 51.148 116.149 51.148C115.599 51.148 115.141 51.344 114.777 51.736C114.423 52.128 114.245 52.688 114.245 53.416V57H112.761ZM123.651 57C122.97 57 122.429 56.8367 122.027 56.51C121.626 56.174 121.425 55.5813 121.425 54.732V51.302H120.235V50.056H121.425L121.607 48.292H122.909V50.056H124.869V51.302H122.909V54.732C122.909 55.1147 122.989 55.3807 123.147 55.53C123.315 55.67 123.6 55.74 124.001 55.74H124.799V57H123.651ZM128.471 57.168C127.883 57.168 127.398 57.07 127.015 56.874C126.633 56.678 126.348 56.4213 126.161 56.104C125.975 55.7773 125.881 55.4227 125.881 55.04C125.881 54.368 126.143 53.836 126.665 53.444C127.188 53.052 127.935 52.856 128.905 52.856H130.725V52.73C130.725 52.1887 130.576 51.7827 130.277 51.512C129.988 51.2413 129.61 51.106 129.143 51.106C128.733 51.106 128.373 51.2087 128.065 51.414C127.767 51.61 127.585 51.904 127.519 52.296H126.035C126.082 51.792 126.25 51.3627 126.539 51.008C126.838 50.644 127.211 50.3687 127.659 50.182C128.117 49.986 128.616 49.888 129.157 49.888C130.128 49.888 130.879 50.1447 131.411 50.658C131.943 51.162 132.209 51.8527 132.209 52.73V57H130.921L130.795 55.81C130.599 56.1927 130.315 56.5147 129.941 56.776C129.568 57.0373 129.078 57.168 128.471 57.168ZM128.765 55.964C129.167 55.964 129.503 55.8707 129.773 55.684C130.053 55.488 130.268 55.2313 130.417 54.914C130.576 54.5967 130.674 54.2467 130.711 53.864H129.059C128.471 53.864 128.051 53.9667 127.799 54.172C127.557 54.3773 127.435 54.634 127.435 54.942C127.435 55.2593 127.552 55.5113 127.785 55.698C128.028 55.8753 128.355 55.964 128.765 55.964ZM136.95 57.168C136.268 57.168 135.657 57.014 135.116 56.706C134.584 56.398 134.164 55.9733 133.856 55.432C133.557 54.8813 133.408 54.2467 133.408 53.528C133.408 52.8093 133.557 52.1793 133.856 51.638C134.164 51.0873 134.584 50.658 135.116 50.35C135.657 50.042 136.268 49.888 136.95 49.888C137.808 49.888 138.527 50.112 139.106 50.56C139.694 51.008 140.072 51.6147 140.24 52.38H138.686C138.592 51.9973 138.387 51.6987 138.07 51.484C137.752 51.2693 137.379 51.162 136.95 51.162C136.586 51.162 136.25 51.2553 135.942 51.442C135.634 51.6193 135.386 51.8853 135.2 52.24C135.013 52.5853 134.92 53.0147 134.92 53.528C134.92 54.0413 135.013 54.4753 135.2 54.83C135.386 55.1753 135.634 55.4413 135.942 55.628C136.25 55.8147 136.586 55.908 136.95 55.908C137.379 55.908 137.752 55.8007 138.07 55.586C138.387 55.3713 138.592 55.068 138.686 54.676H140.24C140.081 55.4227 139.708 56.0247 139.12 56.482C138.532 56.9393 137.808 57.168 136.95 57.168ZM144.344 57C143.663 57 143.122 56.8367 142.72 56.51C142.319 56.174 142.118 55.5813 142.118 54.732V51.302H140.928V50.056H142.118L142.3 48.292H143.602V50.056H145.562V51.302H143.602V54.732C143.602 55.1147 143.682 55.3807 143.84 55.53C144.008 55.67 144.293 55.74 144.694 55.74H145.492V57H144.344ZM149.585 57.168C148.707 57.168 147.984 56.9533 147.415 56.524C146.845 56.0947 146.519 55.5253 146.435 54.816H147.933C148.007 55.1333 148.185 55.4087 148.465 55.642C148.745 55.866 149.113 55.978 149.571 55.978C150.019 55.978 150.345 55.8847 150.551 55.698C150.756 55.5113 150.859 55.2967 150.859 55.054C150.859 54.6993 150.714 54.4613 150.425 54.34C150.145 54.2093 149.753 54.0927 149.249 53.99C148.857 53.906 148.465 53.794 148.073 53.654C147.69 53.514 147.368 53.318 147.107 53.066C146.855 52.8047 146.729 52.4547 146.729 52.016C146.729 51.4093 146.962 50.9053 147.429 50.504C147.895 50.0933 148.549 49.888 149.389 49.888C150.163 49.888 150.789 50.0747 151.265 50.448C151.75 50.8213 152.035 51.3487 152.119 52.03H150.691C150.644 51.7313 150.504 51.498 150.271 51.33C150.047 51.162 149.743 51.078 149.361 51.078C148.987 51.078 148.698 51.1573 148.493 51.316C148.287 51.4653 148.185 51.6613 148.185 51.904C148.185 52.1467 148.325 52.338 148.605 52.478C148.894 52.618 149.272 52.744 149.739 52.856C150.205 52.9587 150.635 53.08 151.027 53.22C151.428 53.3507 151.75 53.5467 151.993 53.808C152.235 54.0693 152.357 54.452 152.357 54.956C152.366 55.5907 152.119 56.118 151.615 56.538C151.12 56.958 150.443 57.168 149.585 57.168ZM156.972 57V50.056H158.036L158.134 51.386C158.349 50.9287 158.675 50.5647 159.114 50.294C159.553 50.0233 160.094 49.888 160.738 49.888V51.12H160.416C160.005 51.12 159.627 51.1947 159.282 51.344C158.937 51.484 158.661 51.7267 158.456 52.072C158.251 52.4173 158.148 52.8933 158.148 53.5V57H156.972ZM164.64 57.168C163.977 57.168 163.389 57.0187 162.876 56.72C162.363 56.412 161.957 55.9873 161.658 55.446C161.369 54.9047 161.224 54.2653 161.224 53.528C161.224 52.8 161.369 52.1653 161.658 51.624C161.947 51.0733 162.349 50.6487 162.862 50.35C163.385 50.042 163.987 49.888 164.668 49.888C165.34 49.888 165.919 50.042 166.404 50.35C166.899 50.6487 167.277 51.0453 167.538 51.54C167.799 52.0347 167.93 52.5667 167.93 53.136C167.93 53.2387 167.925 53.3413 167.916 53.444C167.916 53.5467 167.916 53.6633 167.916 53.794H162.386C162.414 54.326 162.535 54.7693 162.75 55.124C162.974 55.4693 163.249 55.7307 163.576 55.908C163.912 56.0853 164.267 56.174 164.64 56.174C165.125 56.174 165.531 56.062 165.858 55.838C166.185 55.614 166.423 55.3107 166.572 54.928H167.734C167.547 55.572 167.188 56.1087 166.656 56.538C166.133 56.958 165.461 57.168 164.64 57.168ZM164.64 50.882C164.08 50.882 163.581 51.0547 163.142 51.4C162.713 51.736 162.465 52.2307 162.4 52.884H166.768C166.74 52.2587 166.525 51.7687 166.124 51.414C165.723 51.0593 165.228 50.882 164.64 50.882ZM169.209 60.08V50.056H170.273L170.385 51.204C170.609 50.868 170.926 50.5647 171.337 50.294C171.757 50.0233 172.289 49.888 172.933 49.888C173.623 49.888 174.225 50.0467 174.739 50.364C175.252 50.6813 175.649 51.1153 175.929 51.666C176.218 52.2167 176.363 52.842 176.363 53.542C176.363 54.242 176.218 54.8673 175.929 55.418C175.649 55.9593 175.247 56.3887 174.725 56.706C174.211 57.014 173.609 57.168 172.919 57.168C172.349 57.168 171.841 57.0513 171.393 56.818C170.954 56.5847 170.618 56.258 170.385 55.838V60.08H169.209ZM172.793 56.146C173.259 56.146 173.67 56.0387 174.025 55.824C174.379 55.6 174.659 55.292 174.865 54.9C175.07 54.508 175.173 54.0507 175.173 53.528C175.173 53.0053 175.07 52.548 174.865 52.156C174.659 51.764 174.379 51.4607 174.025 51.246C173.67 51.022 173.259 50.91 172.793 50.91C172.326 50.91 171.915 51.022 171.561 51.246C171.206 51.4607 170.926 51.764 170.721 52.156C170.515 52.548 170.413 53.0053 170.413 53.528C170.413 54.0507 170.515 54.508 170.721 54.9C170.926 55.292 171.206 55.6 171.561 55.824C171.915 56.0387 172.326 56.146 172.793 56.146ZM177.72 57V46.92H178.896V57H177.72ZM181.257 48.516C181.024 48.516 180.828 48.4413 180.669 48.292C180.52 48.1333 180.445 47.9373 180.445 47.704C180.445 47.48 180.52 47.2933 180.669 47.144C180.828 46.9947 181.024 46.92 181.257 46.92C181.481 46.92 181.673 46.9947 181.831 47.144C181.99 47.2933 182.069 47.48 182.069 47.704C182.069 47.9373 181.99 48.1333 181.831 48.292C181.673 48.4413 181.481 48.516 181.257 48.516ZM180.669 57V50.056H181.845V57H180.669ZM186.735 57.168C186.072 57.168 185.484 57.0187 184.971 56.72C184.458 56.412 184.052 55.9873 183.753 55.446C183.464 54.9047 183.319 54.2653 183.319 53.528C183.319 52.8 183.464 52.1653 183.753 51.624C184.042 51.0733 184.444 50.6487 184.957 50.35C185.48 50.042 186.082 49.888 186.763 49.888C187.435 49.888 188.014 50.042 188.499 50.35C188.994 50.6487 189.372 51.0453 189.633 51.54C189.894 52.0347 190.025 52.5667 190.025 53.136C190.025 53.2387 190.02 53.3413 190.011 53.444C190.011 53.5467 190.011 53.6633 190.011 53.794H184.481C184.509 54.326 184.63 54.7693 184.845 55.124C185.069 55.4693 185.344 55.7307 185.671 55.908C186.007 56.0853 186.362 56.174 186.735 56.174C187.22 56.174 187.626 56.062 187.953 55.838C188.28 55.614 188.518 55.3107 188.667 54.928H189.829C189.642 55.572 189.283 56.1087 188.751 56.538C188.228 56.958 187.556 57.168 186.735 57.168ZM186.735 50.882C186.175 50.882 185.676 51.0547 185.237 51.4C184.808 51.736 184.56 52.2307 184.495 52.884H188.863C188.835 52.2587 188.62 51.7687 188.219 51.414C187.818 51.0593 187.323 50.882 186.735 50.882ZM194.454 57.168C193.763 57.168 193.156 57.0093 192.634 56.692C192.12 56.3747 191.719 55.9407 191.43 55.39C191.15 54.8393 191.01 54.214 191.01 53.514C191.01 52.814 191.154 52.1933 191.444 51.652C191.733 51.1013 192.134 50.672 192.648 50.364C193.161 50.0467 193.768 49.888 194.468 49.888C195.037 49.888 195.541 50.0047 195.98 50.238C196.418 50.4713 196.759 50.798 197.002 51.218V46.92H198.178V57H197.114L197.002 55.852C196.778 56.188 196.456 56.4913 196.036 56.762C195.616 57.0327 195.088 57.168 194.454 57.168ZM194.58 56.146C195.046 56.146 195.457 56.0387 195.812 55.824C196.176 55.6 196.456 55.292 196.652 54.9C196.857 54.508 196.96 54.0507 196.96 53.528C196.96 53.0053 196.857 52.548 196.652 52.156C196.456 51.764 196.176 51.4607 195.812 51.246C195.457 51.022 195.046 50.91 194.58 50.91C194.122 50.91 193.712 51.022 193.348 51.246C192.993 51.4607 192.713 51.764 192.508 52.156C192.312 52.548 192.214 53.0053 192.214 53.528C192.214 54.0507 192.312 54.508 192.508 54.9C192.713 55.292 192.993 55.6 193.348 55.824C193.712 56.0387 194.122 56.146 194.58 56.146ZM205.984 57C205.349 57 204.85 56.846 204.486 56.538C204.122 56.23 203.94 55.6747 203.94 54.872V51.05H202.736V50.056H203.94L204.094 48.39H205.116V50.056H207.16V51.05H205.116V54.872C205.116 55.3107 205.204 55.6093 205.382 55.768C205.559 55.9173 205.872 55.992 206.32 55.992H207.048V57H205.984ZM211.346 57.168C210.693 57.168 210.105 57.0187 209.582 56.72C209.06 56.4213 208.644 56.0013 208.336 55.46C208.038 54.9093 207.888 54.2653 207.888 53.528C207.888 52.7907 208.042 52.1513 208.35 51.61C208.658 51.0593 209.074 50.6347 209.596 50.336C210.128 50.0373 210.721 49.888 211.374 49.888C212.028 49.888 212.616 50.0373 213.138 50.336C213.661 50.6347 214.072 51.0593 214.37 51.61C214.678 52.1513 214.832 52.7907 214.832 53.528C214.832 54.2653 214.678 54.9093 214.37 55.46C214.062 56.0013 213.642 56.4213 213.11 56.72C212.588 57.0187 212 57.168 211.346 57.168ZM211.346 56.16C211.748 56.16 212.121 56.062 212.466 55.866C212.812 55.67 213.092 55.376 213.306 54.984C213.521 54.592 213.628 54.1067 213.628 53.528C213.628 52.9493 213.521 52.464 213.306 52.072C213.101 51.68 212.826 51.386 212.48 51.19C212.135 50.994 211.766 50.896 211.374 50.896C210.973 50.896 210.6 50.994 210.254 51.19C209.909 51.386 209.629 51.68 209.414 52.072C209.2 52.464 209.092 52.9493 209.092 53.528C209.092 54.1067 209.2 54.592 209.414 54.984C209.629 55.376 209.904 55.67 210.24 55.866C210.586 56.062 210.954 56.16 211.346 56.16ZM220.191 60.08L221.913 56.328H221.507L218.749 50.056H220.023L222.319 55.46L224.755 50.056H225.973L221.423 60.08H220.191ZM229.442 57.168C228.789 57.168 228.201 57.0187 227.678 56.72C227.155 56.4213 226.74 56.0013 226.432 55.46C226.133 54.9093 225.984 54.2653 225.984 53.528C225.984 52.7907 226.138 52.1513 226.446 51.61C226.754 51.0593 227.169 50.6347 227.692 50.336C228.224 50.0373 228.817 49.888 229.47 49.888C230.123 49.888 230.711 50.0373 231.234 50.336C231.757 50.6347 232.167 51.0593 232.466 51.61C232.774 52.1513 232.928 52.7907 232.928 53.528C232.928 54.2653 232.774 54.9093 232.466 55.46C232.158 56.0013 231.738 56.4213 231.206 56.72C230.683 57.0187 230.095 57.168 229.442 57.168ZM229.442 56.16C229.843 56.16 230.217 56.062 230.562 55.866C230.907 55.67 231.187 55.376 231.402 54.984C231.617 54.592 231.724 54.1067 231.724 53.528C231.724 52.9493 231.617 52.464 231.402 52.072C231.197 51.68 230.921 51.386 230.576 51.19C230.231 50.994 229.862 50.896 229.47 50.896C229.069 50.896 228.695 50.994 228.35 51.19C228.005 51.386 227.725 51.68 227.51 52.072C227.295 52.464 227.188 52.9493 227.188 53.528C227.188 54.1067 227.295 54.592 227.51 54.984C227.725 55.376 228 55.67 228.336 55.866C228.681 56.062 229.05 56.16 229.442 56.16ZM236.817 57.168C235.996 57.168 235.342 56.9207 234.857 56.426C234.372 55.922 234.129 55.152 234.129 54.116V50.056H235.305V53.99C235.305 55.4367 235.898 56.16 237.083 56.16C237.69 56.16 238.189 55.9453 238.581 55.516C238.982 55.0773 239.183 54.4567 239.183 53.654V50.056H240.359V57H239.295L239.211 55.754C238.996 56.1927 238.674 56.538 238.245 56.79C237.825 57.042 237.349 57.168 236.817 57.168ZM242.015 57V50.056H243.079L243.177 51.386C243.391 50.9287 243.718 50.5647 244.157 50.294C244.595 50.0233 245.137 49.888 245.781 49.888V51.12H245.459C245.048 51.12 244.67 51.1947 244.325 51.344C243.979 51.484 243.704 51.7267 243.499 52.072C243.293 52.4173 243.191 52.8933 243.191 53.5V57H242.015ZM84.994 77V67.2H88.172C89.32 67.2 90.2627 67.4007 91 67.802C91.7467 68.2033 92.2973 68.7727 92.652 69.51C93.016 70.238 93.198 71.106 93.198 72.114C93.198 73.1127 93.016 73.9807 92.652 74.718C92.2973 75.446 91.7467 76.0107 91 76.412C90.2627 76.804 89.32 77 88.172 77H84.994ZM86.478 75.74H88.116C89.0027 75.74 89.7027 75.5953 90.216 75.306C90.7387 75.0167 91.112 74.6013 91.336 74.06C91.5693 73.5187 91.686 72.87 91.686 72.114C91.686 71.358 91.5693 70.7047 91.336 70.154C91.112 69.6033 90.7387 69.1833 90.216 68.894C89.7027 68.5953 89.0027 68.446 88.116 68.446H86.478V75.74ZM95.3418 68.74C95.0618 68.74 94.8284 68.656 94.6418 68.488C94.4644 68.3107 94.3758 68.0913 94.3758 67.83C94.3758 67.5687 94.4644 67.354 94.6418 67.186C94.8284 67.0087 95.0618 66.92 95.3418 66.92C95.6218 66.92 95.8504 67.0087 96.0278 67.186C96.2144 67.354 96.3078 67.5687 96.3078 67.83C96.3078 68.0913 96.2144 68.3107 96.0278 68.488C95.8504 68.656 95.6218 68.74 95.3418 68.74ZM94.5998 77V70.056H96.0838V77H94.5998ZM100.535 77.168C99.6574 77.168 98.9341 76.9533 98.3648 76.524C97.7954 76.0947 97.4688 75.5253 97.3848 74.816H98.8828C98.9574 75.1333 99.1348 75.4087 99.4148 75.642C99.6948 75.866 100.063 75.978 100.521 75.978C100.969 75.978 101.295 75.8847 101.501 75.698C101.706 75.5113 101.809 75.2967 101.809 75.054C101.809 74.6993 101.664 74.4613 101.375 74.34C101.095 74.2093 100.703 74.0927 100.199 73.99C99.8068 73.906 99.4148 73.794 99.0228 73.654C98.6401 73.514 98.3181 73.318 98.0568 73.066C97.8048 72.8047 97.6788 72.4547 97.6788 72.016C97.6788 71.4093 97.9121 70.9053 98.3788 70.504C98.8454 70.0933 99.4988 69.888 100.339 69.888C101.113 69.888 101.739 70.0747 102.215 70.448C102.7 70.8213 102.985 71.3487 103.069 72.03H101.641C101.594 71.7313 101.454 71.498 101.221 71.33C100.997 71.162 100.693 71.078 100.311 71.078C99.9374 71.078 99.6481 71.1573 99.4428 71.316C99.2374 71.4653 99.1348 71.6613 99.1348 71.904C99.1348 72.1467 99.2748 72.338 99.5548 72.478C99.8441 72.618 100.222 72.744 100.689 72.856C101.155 72.9587 101.585 73.08 101.977 73.22C102.378 73.3507 102.7 73.5467 102.943 73.808C103.185 74.0693 103.307 74.452 103.307 74.956C103.316 75.5907 103.069 76.118 102.565 76.538C102.07 76.958 101.393 77.168 100.535 77.168ZM107.937 77.168C107.255 77.168 106.644 77.014 106.103 76.706C105.571 76.398 105.151 75.9733 104.843 75.432C104.544 74.8813 104.395 74.2467 104.395 73.528C104.395 72.8093 104.544 72.1793 104.843 71.638C105.151 71.0873 105.571 70.658 106.103 70.35C106.644 70.042 107.255 69.888 107.937 69.888C108.795 69.888 109.514 70.112 110.093 70.56C110.681 71.008 111.059 71.6147 111.227 72.38H109.673C109.579 71.9973 109.374 71.6987 109.057 71.484C108.739 71.2693 108.366 71.162 107.937 71.162C107.573 71.162 107.237 71.2553 106.929 71.442C106.621 71.6193 106.373 71.8853 106.187 72.24C106 72.5853 105.907 73.0147 105.907 73.528C105.907 74.0413 106 74.4753 106.187 74.83C106.373 75.1753 106.621 75.4413 106.929 75.628C107.237 75.8147 107.573 75.908 107.937 75.908C108.366 75.908 108.739 75.8007 109.057 75.586C109.374 75.3713 109.579 75.068 109.673 74.676H111.227C111.068 75.4227 110.695 76.0247 110.107 76.482C109.519 76.9393 108.795 77.168 107.937 77.168ZM115.804 77.168C115.142 77.168 114.544 77.0187 114.012 76.72C113.49 76.412 113.074 75.9873 112.766 75.446C112.458 74.8953 112.304 74.256 112.304 73.528C112.304 72.8 112.458 72.1653 112.766 71.624C113.084 71.0733 113.508 70.6487 114.04 70.35C114.572 70.042 115.165 69.888 115.818 69.888C116.481 69.888 117.074 70.042 117.596 70.35C118.128 70.6487 118.548 71.0733 118.856 71.624C119.174 72.1653 119.332 72.8 119.332 73.528C119.332 74.256 119.174 74.8953 118.856 75.446C118.548 75.9873 118.128 76.412 117.596 76.72C117.064 77.0187 116.467 77.168 115.804 77.168ZM115.804 75.894C116.159 75.894 116.486 75.8053 116.784 75.628C117.092 75.4507 117.34 75.1893 117.526 74.844C117.713 74.4893 117.806 74.0507 117.806 73.528C117.806 73.0053 117.713 72.5713 117.526 72.226C117.349 71.8713 117.106 71.6053 116.798 71.428C116.5 71.2507 116.173 71.162 115.818 71.162C115.464 71.162 115.132 71.2507 114.824 71.428C114.526 71.6053 114.283 71.8713 114.096 72.226C113.91 72.5713 113.816 73.0053 113.816 73.528C113.816 74.0507 113.91 74.4893 114.096 74.844C114.283 75.1893 114.526 75.4507 114.824 75.628C115.123 75.8053 115.45 75.894 115.804 75.894ZM123.219 77.168C122.379 77.168 121.716 76.9067 121.231 76.384C120.755 75.8613 120.517 75.082 120.517 74.046V70.056H122.001V73.892C122.001 75.236 122.552 75.908 123.653 75.908C124.204 75.908 124.656 75.712 125.011 75.32C125.366 74.928 125.543 74.368 125.543 73.64V70.056H127.027V77H125.711L125.599 75.782C125.384 76.2113 125.067 76.552 124.647 76.804C124.236 77.0467 123.76 77.168 123.219 77.168ZM128.635 77V70.056H129.951L130.063 71.274C130.278 70.8447 130.59 70.5087 131.001 70.266C131.421 70.014 131.902 69.888 132.443 69.888C133.283 69.888 133.941 70.1493 134.417 70.672C134.902 71.1947 135.145 71.974 135.145 73.01V77H133.675V73.164C133.675 71.82 133.124 71.148 132.023 71.148C131.472 71.148 131.015 71.344 130.651 71.736C130.296 72.128 130.119 72.688 130.119 73.416V77H128.635ZM139.525 77C138.843 77 138.302 76.8367 137.901 76.51C137.499 76.174 137.299 75.5813 137.299 74.732V71.302H136.109V70.056H137.299L137.481 68.292H138.783V70.056H140.743V71.302H138.783V74.732C138.783 75.1147 138.862 75.3807 139.021 75.53C139.189 75.67 139.473 75.74 139.875 75.74H140.673V77H139.525ZM148.53 77.168C147.849 77.168 147.238 77.014 146.696 76.706C146.164 76.398 145.744 75.9733 145.436 75.432C145.138 74.8813 144.988 74.2467 144.988 73.528C144.988 72.8093 145.138 72.1793 145.436 71.638C145.744 71.0873 146.164 70.658 146.696 70.35C147.238 70.042 147.849 69.888 148.53 69.888C149.389 69.888 150.108 70.112 150.686 70.56C151.274 71.008 151.652 71.6147 151.82 72.38H150.266C150.173 71.9973 149.968 71.6987 149.65 71.484C149.333 71.2693 148.96 71.162 148.53 71.162C148.166 71.162 147.83 71.2553 147.522 71.442C147.214 71.6193 146.967 71.8853 146.78 72.24C146.594 72.5853 146.5 73.0147 146.5 73.528C146.5 74.0413 146.594 74.4753 146.78 74.83C146.967 75.1753 147.214 75.4413 147.522 75.628C147.83 75.8147 148.166 75.908 148.53 75.908C148.96 75.908 149.333 75.8007 149.65 75.586C149.968 75.3713 150.173 75.068 150.266 74.676H151.82C151.662 75.4227 151.288 76.0247 150.7 76.482C150.112 76.9393 149.389 77.168 148.53 77.168ZM155.502 77.168C154.914 77.168 154.428 77.07 154.046 76.874C153.663 76.678 153.378 76.4213 153.192 76.104C153.005 75.7773 152.912 75.4227 152.912 75.04C152.912 74.368 153.173 73.836 153.696 73.444C154.218 73.052 154.965 72.856 155.936 72.856H157.756V72.73C157.756 72.1887 157.606 71.7827 157.308 71.512C157.018 71.2413 156.64 71.106 156.174 71.106C155.763 71.106 155.404 71.2087 155.096 71.414C154.797 71.61 154.615 71.904 154.55 72.296H153.066C153.112 71.792 153.28 71.3627 153.57 71.008C153.868 70.644 154.242 70.3687 154.69 70.182C155.147 69.986 155.646 69.888 156.188 69.888C157.158 69.888 157.91 70.1447 158.442 70.658C158.974 71.162 159.24 71.8527 159.24 72.73V77H157.952L157.826 75.81C157.63 76.1927 157.345 76.5147 156.972 76.776C156.598 77.0373 156.108 77.168 155.502 77.168ZM155.796 75.964C156.197 75.964 156.533 75.8707 156.804 75.684C157.084 75.488 157.298 75.2313 157.448 74.914C157.606 74.5967 157.704 74.2467 157.742 73.864H156.09C155.502 73.864 155.082 73.9667 154.83 74.172C154.587 74.3773 154.466 74.634 154.466 74.942C154.466 75.2593 154.582 75.5113 154.816 75.698C155.058 75.8753 155.385 75.964 155.796 75.964ZM160.69 77V70.056H162.006L162.132 71.036C162.356 70.6813 162.65 70.4013 163.014 70.196C163.387 69.9907 163.817 69.888 164.302 69.888C165.403 69.888 166.169 70.322 166.598 71.19C166.85 70.7887 167.186 70.4713 167.606 70.238C168.035 70.0047 168.497 69.888 168.992 69.888C169.86 69.888 170.541 70.1493 171.036 70.672C171.531 71.1947 171.778 71.974 171.778 73.01V77H170.294V73.164C170.294 71.82 169.781 71.148 168.754 71.148C168.231 71.148 167.802 71.344 167.466 71.736C167.139 72.128 166.976 72.688 166.976 73.416V77H165.492V73.164C165.492 71.82 164.974 71.148 163.938 71.148C163.425 71.148 163 71.344 162.664 71.736C162.337 72.128 162.174 72.688 162.174 73.416V77H160.69ZM173.234 80.08V70.056H174.564L174.718 71.134C174.942 70.8073 175.25 70.518 175.642 70.266C176.034 70.014 176.538 69.888 177.154 69.888C177.826 69.888 178.419 70.0467 178.932 70.364C179.446 70.6813 179.847 71.1153 180.136 71.666C180.435 72.2167 180.584 72.842 180.584 73.542C180.584 74.242 180.435 74.8673 180.136 75.418C179.847 75.9593 179.446 76.3887 178.932 76.706C178.419 77.014 177.822 77.168 177.14 77.168C176.599 77.168 176.118 77.0607 175.698 76.846C175.288 76.6313 174.961 76.328 174.718 75.936V80.08H173.234ZM176.888 75.88C177.523 75.88 178.046 75.6653 178.456 75.236C178.867 74.7973 179.072 74.228 179.072 73.528C179.072 73.0707 178.979 72.6647 178.792 72.31C178.606 71.9553 178.349 71.68 178.022 71.484C177.696 71.2787 177.318 71.176 176.888 71.176C176.254 71.176 175.731 71.3953 175.32 71.834C174.919 72.2727 174.718 72.8373 174.718 73.528C174.718 74.228 174.919 74.7973 175.32 75.236C175.731 75.6653 176.254 75.88 176.888 75.88ZM184.261 77.168C183.673 77.168 183.188 77.07 182.805 76.874C182.423 76.678 182.138 76.4213 181.951 76.104C181.765 75.7773 181.671 75.4227 181.671 75.04C181.671 74.368 181.933 73.836 182.455 73.444C182.978 73.052 183.725 72.856 184.695 72.856H186.515V72.73C186.515 72.1887 186.366 71.7827 186.067 71.512C185.778 71.2413 185.4 71.106 184.933 71.106C184.523 71.106 184.163 71.2087 183.855 71.414C183.557 71.61 183.375 71.904 183.309 72.296H181.825C181.872 71.792 182.04 71.3627 182.329 71.008C182.628 70.644 183.001 70.3687 183.449 70.182C183.907 69.986 184.406 69.888 184.947 69.888C185.918 69.888 186.669 70.1447 187.201 70.658C187.733 71.162 187.999 71.8527 187.999 72.73V77H186.711L186.585 75.81C186.389 76.1927 186.105 76.5147 185.731 76.776C185.358 77.0373 184.868 77.168 184.261 77.168ZM184.555 75.964C184.957 75.964 185.293 75.8707 185.563 75.684C185.843 75.488 186.058 75.2313 186.207 74.914C186.366 74.5967 186.464 74.2467 186.501 73.864H184.849C184.261 73.864 183.841 73.9667 183.589 74.172C183.347 74.3773 183.225 74.634 183.225 74.942C183.225 75.2593 183.342 75.5113 183.575 75.698C183.818 75.8753 184.145 75.964 184.555 75.964ZM190.29 68.74C190.01 68.74 189.776 68.656 189.59 68.488C189.412 68.3107 189.324 68.0913 189.324 67.83C189.324 67.5687 189.412 67.354 189.59 67.186C189.776 67.0087 190.01 66.92 190.29 66.92C190.57 66.92 190.798 67.0087 190.976 67.186C191.162 67.354 191.256 67.5687 191.256 67.83C191.256 68.0913 191.162 68.3107 190.976 68.488C190.798 68.656 190.57 68.74 190.29 68.74ZM189.548 77V70.056H191.032V77H189.548ZM195.553 74.872C195.189 74.872 194.853 74.83 194.545 74.746L193.943 75.334C194.045 75.3993 194.171 75.4553 194.321 75.502C194.47 75.5487 194.68 75.5907 194.951 75.628C195.221 75.6653 195.59 75.7027 196.057 75.74C196.981 75.824 197.648 76.048 198.059 76.412C198.469 76.7667 198.675 77.2427 198.675 77.84C198.675 78.2507 198.563 78.638 198.339 79.002C198.124 79.3753 197.783 79.674 197.317 79.898C196.859 80.1313 196.271 80.248 195.553 80.248C194.582 80.248 193.793 80.0613 193.187 79.688C192.589 79.324 192.291 78.7687 192.291 78.022C192.291 77.7327 192.365 77.4433 192.515 77.154C192.673 76.874 192.921 76.608 193.257 76.356C193.061 76.272 192.888 76.1833 192.739 76.09C192.599 75.9873 192.473 75.8847 192.361 75.782V75.446L193.565 74.214C193.023 73.7473 192.753 73.136 192.753 72.38C192.753 71.9227 192.86 71.5073 193.075 71.134C193.299 70.7513 193.621 70.448 194.041 70.224C194.461 70 194.965 69.888 195.553 69.888C195.945 69.888 196.309 69.944 196.645 70.056H199.235V71.036L198.003 71.106C198.227 71.4887 198.339 71.9133 198.339 72.38C198.339 72.8467 198.227 73.2667 198.003 73.64C197.788 74.0133 197.471 74.312 197.051 74.536C196.64 74.76 196.141 74.872 195.553 74.872ZM195.553 73.71C195.982 73.71 196.327 73.598 196.589 73.374C196.859 73.1407 196.995 72.814 196.995 72.394C196.995 71.9647 196.859 71.638 196.589 71.414C196.327 71.19 195.982 71.078 195.553 71.078C195.114 71.078 194.759 71.19 194.489 71.414C194.227 71.638 194.097 71.9647 194.097 72.394C194.097 72.814 194.227 73.1407 194.489 73.374C194.759 73.598 195.114 73.71 195.553 73.71ZM193.691 77.882C193.691 78.2833 193.868 78.582 194.223 78.778C194.577 78.9833 195.021 79.086 195.553 79.086C196.066 79.086 196.481 78.974 196.799 78.75C197.116 78.5353 197.275 78.246 197.275 77.882C197.275 77.6113 197.167 77.378 196.953 77.182C196.738 76.9953 196.332 76.8787 195.735 76.832C195.287 76.804 194.89 76.762 194.545 76.706C194.218 76.8833 193.994 77.0747 193.873 77.28C193.751 77.4853 193.691 77.686 193.691 77.882ZM200.278 77V70.056H201.594L201.706 71.274C201.921 70.8447 202.234 70.5087 202.644 70.266C203.064 70.014 203.545 69.888 204.086 69.888C204.926 69.888 205.584 70.1493 206.06 70.672C206.546 71.1947 206.788 71.974 206.788 73.01V77H205.318V73.164C205.318 71.82 204.768 71.148 203.666 71.148C203.116 71.148 202.658 71.344 202.294 71.736C201.94 72.128 201.762 72.688 201.762 73.416V77H200.278Z" fill="black"/>
<path d="M87.472 157V153.276L84.28 147.2H85.61L88.06 152.156L90.51 147.2H91.826L88.648 153.276V157H87.472ZM94.7406 157.168C94.0873 157.168 93.4993 157.019 92.9766 156.72C92.454 156.421 92.0386 156.001 91.7306 155.46C91.432 154.909 91.2826 154.265 91.2826 153.528C91.2826 152.791 91.4366 152.151 91.7446 151.61C92.0526 151.059 92.468 150.635 92.9906 150.336C93.5226 150.037 94.1153 149.888 94.7686 149.888C95.422 149.888 96.01 150.037 96.5326 150.336C97.0553 150.635 97.466 151.059 97.7646 151.61C98.0726 152.151 98.2266 152.791 98.2266 153.528C98.2266 154.265 98.0726 154.909 97.7646 155.46C97.4566 156.001 97.0366 156.421 96.5046 156.72C95.982 157.019 95.394 157.168 94.7406 157.168ZM94.7406 156.16C95.142 156.16 95.5153 156.062 95.8606 155.866C96.206 155.67 96.486 155.376 96.7006 154.984C96.9153 154.592 97.0226 154.107 97.0226 153.528C97.0226 152.949 96.9153 152.464 96.7006 152.072C96.4953 151.68 96.22 151.386 95.8746 151.19C95.5293 150.994 95.1606 150.896 94.7686 150.896C94.3673 150.896 93.994 150.994 93.6486 151.19C93.3033 151.386 93.0233 151.68 92.8086 152.072C92.594 152.464 92.4866 152.949 92.4866 153.528C92.4866 154.107 92.594 154.592 92.8086 154.984C93.0233 155.376 93.2986 155.67 93.6346 155.866C93.98 156.062 94.3486 156.16 94.7406 156.16ZM102.116 157.168C101.294 157.168 100.641 156.921 100.156 156.426C99.6704 155.922 99.4278 155.152 99.4278 154.116V150.056H100.604V153.99C100.604 155.437 101.196 156.16 102.382 156.16C102.988 156.16 103.488 155.945 103.88 155.516C104.281 155.077 104.482 154.457 104.482 153.654V150.056H105.658V157H104.594L104.51 155.754C104.295 156.193 103.973 156.538 103.544 156.79C103.124 157.042 102.648 157.168 102.116 157.168ZM107.313 157V150.056H108.377L108.475 151.386C108.69 150.929 109.017 150.565 109.456 150.294C109.894 150.023 110.436 149.888 111.08 149.888V151.12H110.758C110.347 151.12 109.969 151.195 109.624 151.344C109.278 151.484 109.003 151.727 108.798 152.072C108.592 152.417 108.49 152.893 108.49 153.5V157H107.313ZM115.395 157V147.2H118.573C119.721 147.2 120.663 147.401 121.401 147.802C122.147 148.203 122.698 148.773 123.053 149.51C123.417 150.238 123.599 151.106 123.599 152.114C123.599 153.113 123.417 153.981 123.053 154.718C122.698 155.446 122.147 156.011 121.401 156.412C120.663 156.804 119.721 157 118.573 157H115.395ZM116.879 155.74H118.517C119.403 155.74 120.103 155.595 120.617 155.306C121.139 155.017 121.513 154.601 121.737 154.06C121.97 153.519 122.087 152.87 122.087 152.114C122.087 151.358 121.97 150.705 121.737 150.154C121.513 149.603 121.139 149.183 120.617 148.894C120.103 148.595 119.403 148.446 118.517 148.446H116.879V155.74ZM125.743 148.74C125.463 148.74 125.229 148.656 125.043 148.488C124.865 148.311 124.777 148.091 124.777 147.83C124.777 147.569 124.865 147.354 125.043 147.186C125.229 147.009 125.463 146.92 125.743 146.92C126.023 146.92 126.251 147.009 126.429 147.186C126.615 147.354 126.709 147.569 126.709 147.83C126.709 148.091 126.615 148.311 126.429 148.488C126.251 148.656 126.023 148.74 125.743 148.74ZM125.001 157V150.056H126.485V157H125.001ZM130.936 157.168C130.058 157.168 129.335 156.953 128.766 156.524C128.196 156.095 127.87 155.525 127.786 154.816H129.284C129.358 155.133 129.536 155.409 129.816 155.642C130.096 155.866 130.464 155.978 130.922 155.978C131.37 155.978 131.696 155.885 131.902 155.698C132.107 155.511 132.21 155.297 132.21 155.054C132.21 154.699 132.065 154.461 131.776 154.34C131.496 154.209 131.104 154.093 130.6 153.99C130.208 153.906 129.816 153.794 129.424 153.654C129.041 153.514 128.719 153.318 128.458 153.066C128.206 152.805 128.08 152.455 128.08 152.016C128.08 151.409 128.313 150.905 128.78 150.504C129.246 150.093 129.9 149.888 130.74 149.888C131.514 149.888 132.14 150.075 132.616 150.448C133.101 150.821 133.386 151.349 133.47 152.03H132.042C131.995 151.731 131.855 151.498 131.622 151.33C131.398 151.162 131.094 151.078 130.712 151.078C130.338 151.078 130.049 151.157 129.844 151.316C129.638 151.465 129.536 151.661 129.536 151.904C129.536 152.147 129.676 152.338 129.956 152.478C130.245 152.618 130.623 152.744 131.09 152.856C131.556 152.959 131.986 153.08 132.378 153.22C132.779 153.351 133.101 153.547 133.344 153.808C133.586 154.069 133.708 154.452 133.708 154.956C133.717 155.591 133.47 156.118 132.966 156.538C132.471 156.958 131.794 157.168 130.936 157.168ZM138.338 157.168C137.656 157.168 137.045 157.014 136.504 156.706C135.972 156.398 135.552 155.973 135.244 155.432C134.945 154.881 134.796 154.247 134.796 153.528C134.796 152.809 134.945 152.179 135.244 151.638C135.552 151.087 135.972 150.658 136.504 150.35C137.045 150.042 137.656 149.888 138.338 149.888C139.196 149.888 139.915 150.112 140.494 150.56C141.082 151.008 141.46 151.615 141.628 152.38H140.074C139.98 151.997 139.775 151.699 139.458 151.484C139.14 151.269 138.767 151.162 138.338 151.162C137.974 151.162 137.638 151.255 137.33 151.442C137.022 151.619 136.774 151.885 136.588 152.24C136.401 152.585 136.308 153.015 136.308 153.528C136.308 154.041 136.401 154.475 136.588 154.83C136.774 155.175 137.022 155.441 137.33 155.628C137.638 155.815 137.974 155.908 138.338 155.908C138.767 155.908 139.14 155.801 139.458 155.586C139.775 155.371 139.98 155.068 140.074 154.676H141.628C141.469 155.423 141.096 156.025 140.508 156.482C139.92 156.939 139.196 157.168 138.338 157.168ZM146.205 157.168C145.542 157.168 144.945 157.019 144.413 156.72C143.89 156.412 143.475 155.987 143.167 155.446C142.859 154.895 142.705 154.256 142.705 153.528C142.705 152.8 142.859 152.165 143.167 151.624C143.484 151.073 143.909 150.649 144.441 150.35C144.973 150.042 145.566 149.888 146.219 149.888C146.882 149.888 147.474 150.042 147.997 150.35C148.529 150.649 148.949 151.073 149.257 151.624C149.574 152.165 149.733 152.8 149.733 153.528C149.733 154.256 149.574 154.895 149.257 155.446C148.949 155.987 148.529 156.412 147.997 156.72C147.465 157.019 146.868 157.168 146.205 157.168ZM146.205 155.894C146.56 155.894 146.886 155.805 147.185 155.628C147.493 155.451 147.74 155.189 147.927 154.844C148.114 154.489 148.207 154.051 148.207 153.528C148.207 153.005 148.114 152.571 147.927 152.226C147.75 151.871 147.507 151.605 147.199 151.428C146.9 151.251 146.574 151.162 146.219 151.162C145.864 151.162 145.533 151.251 145.225 151.428C144.926 151.605 144.684 151.871 144.497 152.226C144.31 152.571 144.217 153.005 144.217 153.528C144.217 154.051 144.31 154.489 144.497 154.844C144.684 155.189 144.926 155.451 145.225 155.628C145.524 155.805 145.85 155.894 146.205 155.894ZM153.62 157.168C152.78 157.168 152.117 156.907 151.632 156.384C151.156 155.861 150.918 155.082 150.918 154.046V150.056H152.402V153.892C152.402 155.236 152.953 155.908 154.054 155.908C154.605 155.908 155.057 155.712 155.412 155.32C155.767 154.928 155.944 154.368 155.944 153.64V150.056H157.428V157H156.112L156 155.782C155.785 156.211 155.468 156.552 155.048 156.804C154.637 157.047 154.161 157.168 153.62 157.168ZM159.036 157V150.056H160.352L160.464 151.274C160.678 150.845 160.991 150.509 161.402 150.266C161.822 150.014 162.302 149.888 162.844 149.888C163.684 149.888 164.342 150.149 164.818 150.672C165.303 151.195 165.546 151.974 165.546 153.01V157H164.076V153.164C164.076 151.82 163.525 151.148 162.424 151.148C161.873 151.148 161.416 151.344 161.052 151.736C160.697 152.128 160.52 152.688 160.52 153.416V157H159.036ZM169.926 157C169.244 157 168.703 156.837 168.302 156.51C167.9 156.174 167.7 155.581 167.7 154.732V151.302H166.51V150.056H167.7L167.882 148.292H169.184V150.056H171.144V151.302H169.184V154.732C169.184 155.115 169.263 155.381 169.422 155.53C169.59 155.67 169.874 155.74 170.276 155.74H171.074V157H169.926ZM178.931 157.168C178.25 157.168 177.638 157.014 177.097 156.706C176.565 156.398 176.145 155.973 175.837 155.432C175.538 154.881 175.389 154.247 175.389 153.528C175.389 152.809 175.538 152.179 175.837 151.638C176.145 151.087 176.565 150.658 177.097 150.35C177.638 150.042 178.25 149.888 178.931 149.888C179.79 149.888 180.508 150.112 181.087 150.56C181.675 151.008 182.053 151.615 182.221 152.38H180.667C180.574 151.997 180.368 151.699 180.051 151.484C179.734 151.269 179.36 151.162 178.931 151.162C178.567 151.162 178.231 151.255 177.923 151.442C177.615 151.619 177.368 151.885 177.181 152.24C176.994 152.585 176.901 153.015 176.901 153.528C176.901 154.041 176.994 154.475 177.181 154.83C177.368 155.175 177.615 155.441 177.923 155.628C178.231 155.815 178.567 155.908 178.931 155.908C179.36 155.908 179.734 155.801 180.051 155.586C180.368 155.371 180.574 155.068 180.667 154.676H182.221C182.062 155.423 181.689 156.025 181.101 156.482C180.513 156.939 179.79 157.168 178.931 157.168ZM185.903 157.168C185.315 157.168 184.829 157.07 184.447 156.874C184.064 156.678 183.779 156.421 183.593 156.104C183.406 155.777 183.313 155.423 183.313 155.04C183.313 154.368 183.574 153.836 184.097 153.444C184.619 153.052 185.366 152.856 186.337 152.856H188.157V152.73C188.157 152.189 188.007 151.783 187.709 151.512C187.419 151.241 187.041 151.106 186.575 151.106C186.164 151.106 185.805 151.209 185.497 151.414C185.198 151.61 185.016 151.904 184.951 152.296H183.467C183.513 151.792 183.681 151.363 183.971 151.008C184.269 150.644 184.643 150.369 185.091 150.182C185.548 149.986 186.047 149.888 186.589 149.888C187.559 149.888 188.311 150.145 188.843 150.658C189.375 151.162 189.641 151.853 189.641 152.73V157H188.353L188.227 155.81C188.031 156.193 187.746 156.515 187.373 156.776C186.999 157.037 186.509 157.168 185.903 157.168ZM186.197 155.964C186.598 155.964 186.934 155.871 187.205 155.684C187.485 155.488 187.699 155.231 187.849 154.914C188.007 154.597 188.105 154.247 188.143 153.864H186.491C185.903 153.864 185.483 153.967 185.231 154.172C184.988 154.377 184.867 154.634 184.867 154.942C184.867 155.259 184.983 155.511 185.217 155.698C185.459 155.875 185.786 155.964 186.197 155.964ZM191.091 157V150.056H192.407L192.533 151.036C192.757 150.681 193.051 150.401 193.415 150.196C193.788 149.991 194.217 149.888 194.703 149.888C195.804 149.888 196.569 150.322 196.999 151.19C197.251 150.789 197.587 150.471 198.007 150.238C198.436 150.005 198.898 149.888 199.393 149.888C200.261 149.888 200.942 150.149 201.437 150.672C201.931 151.195 202.179 151.974 202.179 153.01V157H200.695V153.164C200.695 151.82 200.181 151.148 199.155 151.148C198.632 151.148 198.203 151.344 197.867 151.736C197.54 152.128 197.377 152.688 197.377 153.416V157H195.893V153.164C195.893 151.82 195.375 151.148 194.339 151.148C193.825 151.148 193.401 151.344 193.065 151.736C192.738 152.128 192.575 152.688 192.575 153.416V157H191.091ZM203.635 160.08V150.056H204.965L205.119 151.134C205.343 150.807 205.651 150.518 206.043 150.266C206.435 150.014 206.939 149.888 207.555 149.888C208.227 149.888 208.82 150.047 209.333 150.364C209.846 150.681 210.248 151.115 210.537 151.666C210.836 152.217 210.985 152.842 210.985 153.542C210.985 154.242 210.836 154.867 210.537 155.418C210.248 155.959 209.846 156.389 209.333 156.706C208.82 157.014 208.222 157.168 207.541 157.168C207 157.168 206.519 157.061 206.099 156.846C205.688 156.631 205.362 156.328 205.119 155.936V160.08H203.635ZM207.289 155.88C207.924 155.88 208.446 155.665 208.857 155.236C209.268 154.797 209.473 154.228 209.473 153.528C209.473 153.071 209.38 152.665 209.193 152.31C209.006 151.955 208.75 151.68 208.423 151.484C208.096 151.279 207.718 151.176 207.289 151.176C206.654 151.176 206.132 151.395 205.721 151.834C205.32 152.273 205.119 152.837 205.119 153.528C205.119 154.228 205.32 154.797 205.721 155.236C206.132 155.665 206.654 155.88 207.289 155.88ZM214.662 157.168C214.074 157.168 213.589 157.07 213.206 156.874C212.823 156.678 212.539 156.421 212.352 156.104C212.165 155.777 212.072 155.423 212.072 155.04C212.072 154.368 212.333 153.836 212.856 153.444C213.379 153.052 214.125 152.856 215.096 152.856H216.916V152.73C216.916 152.189 216.767 151.783 216.468 151.512C216.179 151.241 215.801 151.106 215.334 151.106C214.923 151.106 214.564 151.209 214.256 151.414C213.957 151.61 213.775 151.904 213.71 152.296H212.226C212.273 151.792 212.441 151.363 212.73 151.008C213.029 150.644 213.402 150.369 213.85 150.182C214.307 149.986 214.807 149.888 215.348 149.888C216.319 149.888 217.07 150.145 217.602 150.658C218.134 151.162 218.4 151.853 218.4 152.73V157H217.112L216.986 155.81C216.79 156.193 216.505 156.515 216.132 156.776C215.759 157.037 215.269 157.168 214.662 157.168ZM214.956 155.964C215.357 155.964 215.693 155.871 215.964 155.684C216.244 155.488 216.459 155.231 216.608 154.914C216.767 154.597 216.865 154.247 216.902 153.864H215.25C214.662 153.864 214.242 153.967 213.99 154.172C213.747 154.377 213.626 154.634 213.626 154.942C213.626 155.259 213.743 155.511 213.976 155.698C214.219 155.875 214.545 155.964 214.956 155.964ZM220.69 148.74C220.41 148.74 220.177 148.656 219.99 148.488C219.813 148.311 219.724 148.091 219.724 147.83C219.724 147.569 219.813 147.354 219.99 147.186C220.177 147.009 220.41 146.92 220.69 146.92C220.97 146.92 221.199 147.009 221.376 147.186C221.563 147.354 221.656 147.569 221.656 147.83C221.656 148.091 221.563 148.311 221.376 148.488C221.199 148.656 220.97 148.74 220.69 148.74ZM219.948 157V150.056H221.432V157H219.948ZM225.953 154.872C225.589 154.872 225.253 154.83 224.945 154.746L224.343 155.334C224.446 155.399 224.572 155.455 224.721 155.502C224.871 155.549 225.081 155.591 225.351 155.628C225.622 155.665 225.991 155.703 226.457 155.74C227.381 155.824 228.049 156.048 228.459 156.412C228.87 156.767 229.075 157.243 229.075 157.84C229.075 158.251 228.963 158.638 228.739 159.002C228.525 159.375 228.184 159.674 227.717 159.898C227.26 160.131 226.672 160.248 225.953 160.248C224.983 160.248 224.194 160.061 223.587 159.688C222.99 159.324 222.691 158.769 222.691 158.022C222.691 157.733 222.766 157.443 222.915 157.154C223.074 156.874 223.321 156.608 223.657 156.356C223.461 156.272 223.289 156.183 223.139 156.09C222.999 155.987 222.873 155.885 222.761 155.782V155.446L223.965 154.214C223.424 153.747 223.153 153.136 223.153 152.38C223.153 151.923 223.261 151.507 223.475 151.134C223.699 150.751 224.021 150.448 224.441 150.224C224.861 150 225.365 149.888 225.953 149.888C226.345 149.888 226.709 149.944 227.045 150.056H229.635V151.036L228.403 151.106C228.627 151.489 228.739 151.913 228.739 152.38C228.739 152.847 228.627 153.267 228.403 153.64C228.189 154.013 227.871 154.312 227.451 154.536C227.041 154.76 226.541 154.872 225.953 154.872ZM225.953 153.71C226.383 153.71 226.728 153.598 226.989 153.374C227.26 153.141 227.395 152.814 227.395 152.394C227.395 151.965 227.26 151.638 226.989 151.414C226.728 151.19 226.383 151.078 225.953 151.078C225.515 151.078 225.16 151.19 224.889 151.414C224.628 151.638 224.497 151.965 224.497 152.394C224.497 152.814 224.628 153.141 224.889 153.374C225.16 153.598 225.515 153.71 225.953 153.71ZM224.091 157.882C224.091 158.283 224.269 158.582 224.623 158.778C224.978 158.983 225.421 159.086 225.953 159.086C226.467 159.086 226.882 158.974 227.199 158.75C227.517 158.535 227.675 158.246 227.675 157.882C227.675 157.611 227.568 157.378 227.353 157.182C227.139 156.995 226.733 156.879 226.135 156.832C225.687 156.804 225.291 156.762 224.945 156.706C224.619 156.883 224.395 157.075 224.273 157.28C224.152 157.485 224.091 157.686 224.091 157.882ZM230.679 157V150.056H231.995L232.107 151.274C232.322 150.845 232.634 150.509 233.045 150.266C233.465 150.014 233.946 149.888 234.487 149.888C235.327 149.888 235.985 150.149 236.461 150.672C236.946 151.195 237.189 151.974 237.189 153.01V157H235.719V153.164C235.719 151.82 235.168 151.148 234.067 151.148C233.516 151.148 233.059 151.344 232.695 151.736C232.34 152.128 232.163 152.688 232.163 153.416V157H230.679ZM242.646 148.516C242.413 148.516 242.217 148.441 242.058 148.292C241.909 148.133 241.834 147.937 241.834 147.704C241.834 147.48 241.909 147.293 242.058 147.144C242.217 146.995 242.413 146.92 242.646 146.92C242.87 146.92 243.062 146.995 243.22 147.144C243.379 147.293 243.458 147.48 243.458 147.704C243.458 147.937 243.379 148.133 243.22 148.292C243.062 148.441 242.87 148.516 242.646 148.516ZM242.058 157V150.056H243.234V157H242.058ZM247.662 157.168C246.831 157.168 246.141 156.958 245.59 156.538C245.039 156.118 244.717 155.549 244.624 154.83H245.828C245.903 155.194 246.094 155.511 246.402 155.782C246.719 156.043 247.144 156.174 247.676 156.174C248.171 156.174 248.535 156.071 248.768 155.866C249.001 155.651 249.118 155.399 249.118 155.11C249.118 154.69 248.964 154.41 248.656 154.27C248.357 154.13 247.933 154.004 247.382 153.892C247.009 153.817 246.635 153.71 246.262 153.57C245.889 153.43 245.576 153.234 245.324 152.982C245.072 152.721 244.946 152.38 244.946 151.96C244.946 151.353 245.17 150.859 245.618 150.476C246.075 150.084 246.691 149.888 247.466 149.888C248.203 149.888 248.805 150.075 249.272 150.448C249.748 150.812 250.023 151.335 250.098 152.016H248.936C248.889 151.661 248.735 151.386 248.474 151.19C248.222 150.985 247.881 150.882 247.452 150.882C247.032 150.882 246.705 150.971 246.472 151.148C246.248 151.325 246.136 151.559 246.136 151.848C246.136 152.128 246.281 152.347 246.57 152.506C246.869 152.665 247.27 152.8 247.774 152.912C248.203 153.005 248.609 153.122 248.992 153.262C249.384 153.393 249.701 153.593 249.944 153.864C250.196 154.125 250.322 154.508 250.322 155.012C250.331 155.637 250.093 156.155 249.608 156.566C249.132 156.967 248.483 157.168 247.662 157.168ZM255.147 157V150.056H256.211L256.281 151.302C256.505 150.863 256.827 150.518 257.247 150.266C257.667 150.014 258.143 149.888 258.675 149.888C259.496 149.888 260.15 150.14 260.635 150.644C261.13 151.139 261.377 151.904 261.377 152.94V157H260.201V153.066C260.201 151.619 259.604 150.896 258.409 150.896C257.812 150.896 257.312 151.115 256.911 151.554C256.519 151.983 256.323 152.599 256.323 153.402V157H255.147ZM266.043 157.168C265.389 157.168 264.801 157.019 264.279 156.72C263.756 156.421 263.341 156.001 263.033 155.46C262.734 154.909 262.585 154.265 262.585 153.528C262.585 152.791 262.739 152.151 263.047 151.61C263.355 151.059 263.77 150.635 264.293 150.336C264.825 150.037 265.417 149.888 266.071 149.888C266.724 149.888 267.312 150.037 267.835 150.336C268.357 150.635 268.768 151.059 269.067 151.61C269.375 152.151 269.529 152.791 269.529 153.528C269.529 154.265 269.375 154.909 269.067 155.46C268.759 156.001 268.339 156.421 267.807 156.72C267.284 157.019 266.696 157.168 266.043 157.168ZM266.043 156.16C266.444 156.16 266.817 156.062 267.163 155.866C267.508 155.67 267.788 155.376 268.003 154.984C268.217 154.592 268.325 154.107 268.325 153.528C268.325 152.949 268.217 152.464 268.003 152.072C267.797 151.68 267.522 151.386 267.177 151.19C266.831 150.994 266.463 150.896 266.071 150.896C265.669 150.896 265.296 150.994 264.951 151.19C264.605 151.386 264.325 151.68 264.111 152.072C263.896 152.464 263.789 152.949 263.789 153.528C263.789 154.107 263.896 154.592 264.111 154.984C264.325 155.376 264.601 155.67 264.937 155.866C265.282 156.062 265.651 156.16 266.043 156.16ZM272.024 157L269.994 150.056H271.17L272.64 155.502L274.264 150.056H275.594L277.232 155.502L278.688 150.056H279.878L277.848 157H276.644L274.936 151.274L273.228 157H272.024ZM284.324 157V146.92H285.5V157H284.324ZM287.861 148.516C287.628 148.516 287.432 148.441 287.273 148.292C287.124 148.133 287.049 147.937 287.049 147.704C287.049 147.48 287.124 147.293 287.273 147.144C287.432 146.995 287.628 146.92 287.861 146.92C288.085 146.92 288.277 146.995 288.435 147.144C288.594 147.293 288.673 147.48 288.673 147.704C288.673 147.937 288.594 148.133 288.435 148.292C288.277 148.441 288.085 148.516 287.861 148.516ZM287.273 157V150.056H288.449V157H287.273ZM292.219 157L289.587 150.056H290.819L292.905 155.866L295.005 150.056H296.209L293.577 157H292.219ZM300.004 157.168C299.342 157.168 298.754 157.019 298.24 156.72C297.727 156.412 297.321 155.987 297.022 155.446C296.733 154.905 296.588 154.265 296.588 153.528C296.588 152.8 296.733 152.165 297.022 151.624C297.312 151.073 297.713 150.649 298.226 150.35C298.749 150.042 299.351 149.888 300.032 149.888C300.704 149.888 301.283 150.042 301.768 150.35C302.263 150.649 302.641 151.045 302.902 151.54C303.164 152.035 303.294 152.567 303.294 153.136C303.294 153.239 303.29 153.341 303.28 153.444C303.28 153.547 303.28 153.663 303.28 153.794H297.75C297.778 154.326 297.9 154.769 298.114 155.124C298.338 155.469 298.614 155.731 298.94 155.908C299.276 156.085 299.631 156.174 300.004 156.174C300.49 156.174 300.896 156.062 301.222 155.838C301.549 155.614 301.787 155.311 301.936 154.928H303.098C302.912 155.572 302.552 156.109 302.02 156.538C301.498 156.958 300.826 157.168 300.004 157.168ZM300.004 150.882C299.444 150.882 298.945 151.055 298.506 151.4C298.077 151.736 297.83 152.231 297.764 152.884H302.132C302.104 152.259 301.89 151.769 301.488 151.414C301.087 151.059 300.592 150.882 300.004 150.882ZM304.825 154.284L304.685 147.2H305.959L305.819 154.284H304.825ZM305.357 157.07C305.124 157.07 304.928 156.995 304.769 156.846C304.62 156.687 304.545 156.496 304.545 156.272C304.545 156.048 304.62 155.861 304.769 155.712C304.928 155.553 305.124 155.474 305.357 155.474C305.581 155.474 305.768 155.553 305.917 155.712C306.076 155.861 306.155 156.048 306.155 156.272C306.155 156.496 306.076 156.687 305.917 156.846C305.768 156.995 305.581 157.07 305.357 157.07Z" fill="black"/>
<circle cx="351" cy="73" r="4" fill="#FF874E"/>
<circle cx="351" cy="164" r="3.5" fill="white" stroke="#AAACAE"/>
<rect x="12.5" y="134.5" width="59" height="59" rx="13.5" fill="white" stroke="#D3D7DB"/>
<path d="M29.4433 143.951C25.8001 146.187 23.587 148.211 24.3331 153.433C25.0873 158.712 25.8474 157.708 28.393 162.391C30.9386 167.074 26.9846 166.925 29.4121 175.365C31.7598 183.527 39.3692 185.705 51.5005 182.556C63.6318 179.407 64.5567 169.337 59.4259 160.667C55.5778 154.165 56.0037 154 48.1859 148.159C38.6553 141.039 34.655 140.752 29.4433 143.951Z" fill="#DEFFDF"/>
<path d="M52.538 170.688C52.4373 173.148 52.7709 173.889 52.006 173.845C51.1939 173.798 50.643 173.026 50.2369 172.323C48.6001 169.496 47.2607 166.506 46.0708 163.464C45.723 162.575 45.3815 161.636 45.509 160.69C45.6349 159.744 46.4753 159.216 47.352 158.832C48.3483 158.394 48.7748 158.893 49.1368 160.428C49.4374 161.7 49.4059 161.998 48.427 162.329C46.9758 162.819 46.3479 161.28 45.7687 160.178C43.8422 156.516 43.5337 152.043 44.9408 148.154C45.1391 147.605 45.4523 146.996 46.0268 146.883C46.787 146.731 47.3677 147.53 47.7108 148.221C51.2049 155.255 52.8779 163.178 52.5254 171.018C52.5034 171.5 52.4435 172.042 52.0595 172.336C51.6975 172.612 51.186 172.555 50.7422 172.449C48.3971 171.89 45.4429 169.429 43.1576 168.664C41.5018 168.111 36.5425 166.959 33.7598 166.959C33.2326 166.959 31.9703 161.554 32.7337 161.185C34.0636 160.545 42.6712 155.377 45.3358 149.949C45.372 154.957 46.3148 162.031 49.5224 169.469C49.6074 169.665 49.6782 169.884 49.6231 170.091C49.5366 170.423 49.1258 170.582 48.7874 170.519C48.449 170.456 48.1626 170.237 47.884 170.036C44.2152 167.392 39.4416 166.972 34.9277 166.642C34.871 168.104 35.6564 170.492 36.4717 171.708C35.798 172.38 34.317 172.157 33.6402 171.489C33.4104 171.261 33.3192 170.935 33.2373 170.623L30.9268 161.904C29.5953 162.224 27.362 162.612 26.3657 163.548C25.371 164.485 27.1983 167.61 27.7318 167.651C28.9185 167.74 29.301 166.845 29.1704 166.386C29.0397 165.928 28.8068 165.483 28.8351 165.007C28.8635 164.532 29.3293 164.041 29.7716 164.22C30.3193 164.441 30.1462 165.238 29.9919 165.806C29.471 167.723 30.3429 169.713 31.1928 171.509C31.3471 171.834 31.5233 172.184 31.846 172.344C32.1686 172.504 32.784 172.325 32.6801 171.978C32.3748 170.954 30.5396 172.116 29.4694 172.184" stroke="#1F3758" stroke-miterlimit="10" stroke-linecap="round" stroke-linejoin="round"/>
<rect x="12.5" y="43.5" width="59" height="59" rx="13.5" fill="white" stroke="#D3D7DB"/>
<path d="M29.4433 52.9506C25.8001 55.1866 23.587 57.2112 24.3331 62.4333C25.0873 67.7122 25.8474 66.7085 28.393 71.3913C30.9386 76.0741 26.9846 75.925 29.4121 84.3646C31.7598 92.5266 39.3692 94.7054 51.5005 91.5564C63.6318 88.4074 64.5567 78.3373 59.4259 69.6675C55.5778 63.1652 56.0037 62.9999 48.1859 57.1593C38.6553 50.0391 34.655 49.7518 29.4433 52.9506Z" fill="#DEEBFF"/>
<path d="M22.3001 68.575C24.331 69.865 26.1469 71.466 27.6848 73.3146C28.0704 73.7774 28.435 74.2752 29.0473 74.4388C29.697 74.6117 30.3327 74.3313 30.9263 74.0999C32.1883 73.6044 33.4527 73.1183 34.7218 72.6415C39.7629 70.7461 44.8578 68.998 49.9994 67.3947C52.9114 66.4879 55.8398 65.6279 58.7799 64.8169L58.1209 63.9592C56.8144 65.8172 54.9728 67.2148 53.1475 68.5282C51.0885 70.0076 48.9968 71.4403 46.8724 72.8262C44.7479 74.2121 42.6188 75.5349 40.4477 76.8156C39.3539 77.4606 38.2531 78.094 37.1477 78.7157C36.6031 79.0218 36.0539 79.3233 35.5047 79.6248C34.9555 79.9263 34.3432 80.16 33.8828 80.5526C33.6303 80.7676 33.4878 81.0644 33.5065 81.3963C33.5298 81.7796 33.7916 82.0554 34.0814 82.2751C34.654 82.7098 35.2383 83.1281 35.8155 83.5558L39.4334 86.2224C39.632 86.3697 39.9803 86.3066 40.1415 86.1313L48.513 77.0914L56.8448 68.0935L61.5657 62.994C61.9654 62.5616 61.5704 61.8838 60.9978 62.017C55.8913 63.202 50.7777 64.3869 45.594 65.1885C43.0559 65.5811 40.4991 65.8756 37.9329 66.0299C35.3668 66.1841 33.0344 66.2028 30.5898 66.3384C27.8483 66.4903 25.0906 66.7684 22.438 67.5092C21.7158 67.7102 22.022 68.8391 22.7488 68.6357C27.4604 67.3199 32.4127 67.4859 37.2552 67.2358C42.4506 66.9694 47.5945 66.1257 52.6824 65.0716C55.5664 64.4733 58.4364 63.8073 61.3063 63.1435L60.7384 62.1666L52.3669 71.2065L44.0351 80.2044L39.3142 85.304L40.0223 85.2128L36.914 82.9224L35.3832 81.7936C35.1658 81.6324 34.9531 81.4477 34.7218 81.3052C34.7077 81.2958 34.668 81.2397 34.6493 81.2421C34.6353 81.2444 34.7521 81.5436 34.6143 81.4594C34.6049 81.4547 34.8737 81.2911 34.876 81.2911C37.0285 80.1249 39.1646 78.9353 41.2703 77.6873C45.4795 75.1913 49.5834 72.513 53.5612 69.6617C55.6178 68.187 57.6558 66.6445 59.1258 64.5528C59.4273 64.1228 58.9295 63.5665 58.4668 63.6951C53.3485 65.109 48.27 66.6656 43.2405 68.367C40.7071 69.2247 38.1877 70.1175 35.68 71.0453C34.4437 71.5034 33.212 71.9708 31.9827 72.4452C31.3587 72.6859 30.7393 72.943 30.1107 73.1744C29.8933 73.2538 29.6292 73.3637 29.3932 73.3263C29.1571 73.2889 28.9912 73.0739 28.8486 72.9056C27.9909 71.896 27.1238 70.9167 26.1353 70.031C25.1467 69.1452 24.0342 68.3015 22.8867 67.5723C22.251 67.168 21.662 68.18 22.2977 68.582L22.3001 68.575Z" fill="#1F3758"/>
<path d="M29.195 74.2706C29.1249 77.4233 29.1552 80.5784 29.2838 83.7289C29.3002 84.1355 29.7816 84.5048 30.1625 84.2337C31.6232 83.1983 32.0766 81.4829 33.0255 80.0549C33.5303 79.2977 34.2478 78.7485 35.0191 78.2834C35.9422 77.7248 36.9098 77.234 37.8586 76.7175C41.9369 74.502 46.0151 72.2864 50.0934 70.0708L57.0042 66.3174C57.6656 65.9575 57.0766 64.9479 56.4152 65.3078C52.3206 67.5327 48.2237 69.7576 44.1291 71.9826L38.0362 75.2919C37.043 75.8318 36.0474 76.3623 35.0611 76.9115C34.2081 77.386 33.3527 77.9118 32.6773 78.627C32.0018 79.3421 31.5672 80.2209 31.1231 81.0903C30.7281 81.8685 30.3028 82.7075 29.5736 83.224L30.4523 83.7289C30.3238 80.5784 30.2934 77.4233 30.3635 74.2706C30.3799 73.518 29.2114 73.518 29.195 74.2706Z" fill="#1F3758"/>
<path d="M32.9318 79.9232C32.7542 79.79 32.8804 79.8858 32.9201 79.9279C32.9365 79.9442 32.9482 79.9629 32.9645 79.9769C33.03 80.0447 32.8781 79.8577 32.9318 79.9325C32.9926 80.019 33.0487 80.1078 33.0977 80.2013C33.1538 80.3041 33.2053 80.4116 33.252 80.5191C33.2637 80.5472 33.2777 80.5752 33.2894 80.6033C33.3291 80.6944 33.3011 80.636 33.28 80.5799C33.3034 80.643 33.3315 80.7061 33.3572 80.7692C33.5348 81.2156 33.6773 81.7017 33.9368 82.1084C34.1004 82.3655 34.4649 82.494 34.7361 82.3187C35.0072 82.1434 35.1193 81.7952 34.9464 81.5194C34.895 81.4376 34.8506 81.3512 34.8085 81.2623C34.7875 81.2156 34.7664 81.1665 34.7454 81.1198C34.7033 81.024 34.7991 81.2507 34.7618 81.1572C34.7501 81.1315 34.7407 81.1034 34.729 81.0777C34.6309 80.8323 34.5374 80.5869 34.4392 80.3415C34.2219 79.8087 33.9952 79.2688 33.5231 78.9136C33.4109 78.8294 33.2029 78.8201 33.072 78.8551C32.9412 78.8902 32.7892 78.9977 32.7238 79.1239C32.6514 79.2594 32.6163 79.423 32.6654 79.575C32.7145 79.7269 32.8056 79.8274 32.9342 79.9232H32.9318Z" fill="#1F3758"/>
<path d="M30.1643 84.231C31.5199 83.3429 33.0226 82.7049 34.3781 81.8168C34.6422 81.6439 34.7521 81.3003 34.5885 81.0175C34.4342 80.7558 34.0533 80.6342 33.7892 80.8072C32.4337 81.6953 30.9309 82.3333 29.5754 83.2214C29.3113 83.3944 29.2015 83.7379 29.365 84.0207C29.5193 84.2825 29.9002 84.404 30.1643 84.231Z" fill="#1F3758"/>
</svg>
