<svg width="375" height="119" viewBox="0 0 375 119" fill="none" xmlns="http://www.w3.org/2000/svg">
<path d="M15.984 16V11.872L12.272 4.8H14.192L16.832 10.208L19.456 4.8H21.36L17.68 11.872V16H15.984ZM24.6828 16.192C23.9041 16.192 23.2108 16.0213 22.6028 15.68C22.0054 15.328 21.5361 14.8427 21.1947 14.224C20.8534 13.6053 20.6827 12.8853 20.6827 12.064C20.6827 11.232 20.8481 10.5013 21.1787 9.872C21.5201 9.24267 21.9894 8.752 22.5868 8.4C23.1947 8.048 23.8987 7.872 24.6988 7.872C25.4774 7.872 26.1548 8.048 26.7308 8.4C27.3068 8.74133 27.7548 9.2 28.0748 9.776C28.3948 10.352 28.5547 10.9867 28.5547 11.68C28.5547 11.7867 28.5494 11.904 28.5388 12.032C28.5388 12.1493 28.5334 12.2827 28.5228 12.432H22.3468C22.4001 13.2 22.6507 13.7867 23.0987 14.192C23.5574 14.5867 24.0854 14.784 24.6828 14.784C25.1628 14.784 25.5628 14.6773 25.8828 14.464C26.2134 14.24 26.4588 13.9413 26.6188 13.568H28.3148C28.1014 14.3147 27.6748 14.9387 27.0347 15.44C26.4054 15.9413 25.6214 16.192 24.6828 16.192ZM24.6828 9.264C24.1174 9.264 23.6161 9.43467 23.1788 9.776C22.7414 10.1067 22.4747 10.608 22.3787 11.28H26.8588C26.8268 10.6613 26.6081 10.1707 26.2028 9.808C25.7974 9.44533 25.2908 9.264 24.6828 9.264ZM33.1625 16.192C32.1598 16.192 31.3332 15.9467 30.6825 15.456C30.0318 14.9653 29.6585 14.3147 29.5625 13.504H31.2745C31.3598 13.8667 31.5625 14.1813 31.8825 14.448C32.2025 14.704 32.6238 14.832 33.1465 14.832C33.6585 14.832 34.0318 14.7253 34.2665 14.512C34.5012 14.2987 34.6185 14.0533 34.6185 13.776C34.6185 13.3707 34.4532 13.0987 34.1225 12.96C33.8025 12.8107 33.3545 12.6773 32.7785 12.56C32.3305 12.464 31.8825 12.336 31.4345 12.176C30.9972 12.016 30.6292 11.792 30.3305 11.504C30.0425 11.2053 29.8985 10.8053 29.8985 10.304C29.8985 9.61067 30.1652 9.03467 30.6985 8.576C31.2318 8.10667 31.9785 7.872 32.9385 7.872C33.8238 7.872 34.5385 8.08533 35.0825 8.512C35.6372 8.93867 35.9625 9.54133 36.0585 10.32H34.4265C34.3732 9.97867 34.2132 9.712 33.9465 9.52C33.6905 9.328 33.3438 9.232 32.9065 9.232C32.4798 9.232 32.1492 9.32267 31.9145 9.504C31.6798 9.67467 31.5625 9.89867 31.5625 10.176C31.5625 10.4533 31.7225 10.672 32.0425 10.832C32.3732 10.992 32.8052 11.136 33.3385 11.264C33.8718 11.3813 34.3625 11.52 34.8105 11.68C35.2692 11.8293 35.6372 12.0533 35.9145 12.352C36.1918 12.6507 36.3305 13.088 36.3305 13.664C36.3412 14.3893 36.0585 14.992 35.4825 15.472C34.9172 15.952 34.1438 16.192 33.1625 16.192ZM40.8931 16C40.1145 16 39.4958 15.8133 39.0371 15.44C38.5785 15.056 38.3491 14.3787 38.3491 13.408V9.488H36.9891V8.064H38.3491L38.5571 6.048H40.0451V8.064H42.2851V9.488H40.0451V13.408C40.0451 13.8453 40.1358 14.1493 40.3171 14.32C40.5091 14.48 40.8345 14.56 41.2931 14.56H42.2051V16H40.8931ZM47.2227 16.192C46.4441 16.192 45.7507 16.0213 45.1427 15.68C44.5454 15.328 44.0761 14.8427 43.7347 14.224C43.3934 13.6053 43.2227 12.8853 43.2227 12.064C43.2227 11.232 43.3881 10.5013 43.7187 9.872C44.0601 9.24267 44.5294 8.752 45.1267 8.4C45.7347 8.048 46.4387 7.872 47.2387 7.872C48.0174 7.872 48.6947 8.048 49.2707 8.4C49.8467 8.74133 50.2947 9.2 50.6147 9.776C50.9347 10.352 51.0947 10.9867 51.0947 11.68C51.0947 11.7867 51.0894 11.904 51.0787 12.032C51.0787 12.1493 51.0734 12.2827 51.0627 12.432H44.8867C44.9401 13.2 45.1907 13.7867 45.6387 14.192C46.0974 14.5867 46.6254 14.784 47.2227 14.784C47.7027 14.784 48.1027 14.6773 48.4227 14.464C48.7534 14.24 48.9987 13.9413 49.1587 13.568H50.8547C50.6414 14.3147 50.2147 14.9387 49.5747 15.44C48.9454 15.9413 48.1614 16.192 47.2227 16.192ZM47.2227 9.264C46.6574 9.264 46.1561 9.43467 45.7187 9.776C45.2814 10.1067 45.0147 10.608 44.9187 11.28H49.3987C49.3667 10.6613 49.1481 10.1707 48.7427 9.808C48.3374 9.44533 47.8307 9.264 47.2227 9.264ZM52.5345 16V8.064H54.0545L54.1985 9.568C54.4758 9.04533 54.8598 8.63467 55.3505 8.336C55.8518 8.02667 56.4545 7.872 57.1585 7.872V9.648H56.6945C56.2252 9.648 55.8038 9.728 55.4305 9.888C55.0678 10.0373 54.7745 10.2987 54.5505 10.672C54.3372 11.0347 54.2305 11.5413 54.2305 12.192V16H52.5345ZM61.6899 16.192C60.9219 16.192 60.2445 16.0107 59.6579 15.648C59.0712 15.2853 58.6125 14.7893 58.2819 14.16C57.9512 13.5307 57.7859 12.816 57.7859 12.016C57.7859 11.216 57.9512 10.5067 58.2819 9.888C58.6125 9.25867 59.0712 8.768 59.6579 8.416C60.2552 8.05333 60.9379 7.872 61.7059 7.872C62.3352 7.872 62.8845 7.99467 63.3539 8.24C63.8339 8.48533 64.2072 8.832 64.4739 9.28V4.48H66.1699V16H64.6499L64.4739 14.768C64.2179 15.1413 63.8659 15.472 63.4179 15.76C62.9699 16.048 62.3939 16.192 61.6899 16.192ZM61.9939 14.72C62.7192 14.72 63.3112 14.4693 63.7699 13.968C64.2392 13.4667 64.4739 12.8213 64.4739 12.032C64.4739 11.232 64.2392 10.5867 63.7699 10.096C63.3112 9.59467 62.7192 9.344 61.9939 9.344C61.2685 9.344 60.6712 9.59467 60.2019 10.096C59.7325 10.5867 59.4979 11.232 59.4979 12.032C59.4979 12.5547 59.6045 13.0187 59.8179 13.424C60.0312 13.8293 60.3245 14.1493 60.6979 14.384C61.0819 14.608 61.5139 14.72 61.9939 14.72ZM70.6762 16.192C70.0042 16.192 69.4496 16.08 69.0122 15.856C68.5749 15.632 68.2496 15.3387 68.0362 14.976C67.8229 14.6027 67.7162 14.1973 67.7162 13.76C67.7162 12.992 68.0149 12.384 68.6122 11.936C69.2096 11.488 70.0629 11.264 71.1722 11.264H73.2522V11.12C73.2522 10.5013 73.0816 10.0373 72.7402 9.728C72.4096 9.41867 71.9776 9.264 71.4442 9.264C70.9749 9.264 70.5642 9.38133 70.2122 9.616C69.8709 9.84 69.6629 10.176 69.5882 10.624H67.8922C67.9456 10.048 68.1376 9.55733 68.4682 9.152C68.8096 8.736 69.2362 8.42133 69.7482 8.208C70.2709 7.984 70.8416 7.872 71.4602 7.872C72.5696 7.872 73.4282 8.16533 74.0362 8.752C74.6442 9.328 74.9482 10.1173 74.9482 11.12V16H73.4762L73.3322 14.64C73.1082 15.0773 72.7829 15.4453 72.3562 15.744C71.9296 16.0427 71.3696 16.192 70.6762 16.192ZM71.0122 14.816C71.4709 14.816 71.8549 14.7093 72.1642 14.496C72.4842 14.272 72.7296 13.9787 72.9002 13.616C73.0816 13.2533 73.1936 12.8533 73.2362 12.416H71.3482C70.6762 12.416 70.1962 12.5333 69.9082 12.768C69.6309 13.0027 69.4922 13.296 69.4922 13.648C69.4922 14.0107 69.6256 14.2987 69.8922 14.512C70.1696 14.7147 70.5429 14.816 71.0122 14.816ZM77.2837 19.52L79.1877 15.344H78.7237L75.5877 8.064H77.4277L79.8597 13.936L82.4037 8.064H84.1957L79.0757 19.52H77.2837Z" fill="black"/>
<rect y="27" width="375" height="1" fill="#D3D7DB"/>
<path d="M86.002 99V90.88L84.42 91.244V90.152L86.59 89.2H87.542V99H86.002ZM92.6691 99.168C92.0344 99.168 91.4557 99.056 90.9331 98.832C90.4197 98.5987 90.0091 98.2487 89.7011 97.782C89.3931 97.3153 89.2297 96.732 89.2111 96.032H90.6811C90.6997 96.5547 90.8771 96.998 91.2131 97.362C91.5584 97.7167 92.0437 97.894 92.6691 97.894C93.2664 97.894 93.7237 97.7307 94.0411 97.404C94.3584 97.068 94.5171 96.6527 94.5171 96.158C94.5171 95.5607 94.3024 95.1173 93.8731 94.828C93.4531 94.5387 92.9351 94.394 92.3191 94.394H91.5911V93.162H92.3331C92.8837 93.162 93.3271 93.0313 93.6631 92.77C94.0084 92.5087 94.1811 92.14 94.1811 91.664C94.1811 91.2627 94.0457 90.936 93.7751 90.684C93.5137 90.432 93.1404 90.306 92.6551 90.306C92.1511 90.306 91.7544 90.4553 91.4651 90.754C91.1757 91.0433 91.0171 91.4073 90.9891 91.846H89.5191C89.5377 91.2767 89.6777 90.782 89.9391 90.362C90.2097 89.942 90.5784 89.6153 91.0451 89.382C91.5117 89.1487 92.0484 89.032 92.6551 89.032C93.3084 89.032 93.8544 89.1487 94.2931 89.382C94.7411 89.606 95.0771 89.914 95.3011 90.306C95.5344 90.6887 95.6511 91.1087 95.6511 91.566C95.6511 92.0887 95.5064 92.546 95.2171 92.938C94.9277 93.33 94.5404 93.5913 94.0551 93.722C94.6151 93.8433 95.0771 94.1187 95.4411 94.548C95.8051 94.968 95.9871 95.514 95.9871 96.186C95.9871 96.7273 95.8611 97.2267 95.6091 97.684C95.3571 98.132 94.9837 98.4913 94.4891 98.762C93.9944 99.0327 93.3877 99.168 92.6691 99.168ZM98.3502 99.084C98.0702 99.084 97.8369 98.9953 97.6502 98.818C97.4729 98.6313 97.3842 98.412 97.3842 98.16C97.3842 97.8987 97.4729 97.6793 97.6502 97.502C97.8369 97.3153 98.0702 97.222 98.3502 97.222C98.6302 97.222 98.8589 97.3153 99.0362 97.502C99.2136 97.6793 99.3022 97.8987 99.3022 98.16C99.3022 98.412 99.2136 98.6313 99.0362 98.818C98.8589 98.9953 98.6302 99.084 98.3502 99.084ZM98.3502 93.75C98.0702 93.75 97.8369 93.6613 97.6502 93.484C97.4729 93.2973 97.3842 93.078 97.3842 92.826C97.3842 92.5647 97.4729 92.3453 97.6502 92.168C97.8369 91.9813 98.0702 91.888 98.3502 91.888C98.6302 91.888 98.8589 91.9813 99.0362 92.168C99.2136 92.3453 99.3022 92.5647 99.3022 92.826C99.3022 93.078 99.2136 93.2973 99.0362 93.484C98.8589 93.6613 98.6302 93.75 98.3502 93.75ZM104.31 99.168C103.62 99.168 103.022 99.0467 102.518 98.804C102.014 98.552 101.613 98.2113 101.314 97.782C101.025 97.3433 100.848 96.8487 100.782 96.298H102.238C102.332 96.7647 102.565 97.152 102.938 97.46C103.312 97.7587 103.774 97.908 104.324 97.908C104.735 97.908 105.09 97.81 105.388 97.614C105.687 97.4087 105.92 97.138 106.088 96.802C106.256 96.466 106.34 96.088 106.34 95.668C106.34 95.0053 106.154 94.478 105.78 94.086C105.407 93.6847 104.936 93.484 104.366 93.484C103.881 93.484 103.466 93.6007 103.12 93.834C102.775 94.058 102.523 94.3427 102.364 94.688H100.95L101.79 89.2H107.082V90.502H102.91L102.406 93.12C102.621 92.8773 102.915 92.6767 103.288 92.518C103.671 92.35 104.1 92.266 104.576 92.266C105.239 92.266 105.808 92.42 106.284 92.728C106.76 93.0267 107.124 93.4327 107.376 93.946C107.638 94.4593 107.768 95.0287 107.768 95.654C107.768 96.3073 107.628 96.9 107.348 97.432C107.068 97.964 106.667 98.3887 106.144 98.706C105.631 99.014 105.02 99.168 104.31 99.168ZM109.148 99V97.936C109.782 97.432 110.389 96.9233 110.968 96.41C111.546 95.8967 112.06 95.3927 112.508 94.898C112.965 94.394 113.324 93.904 113.586 93.428C113.847 92.9427 113.978 92.476 113.978 92.028C113.978 91.7293 113.926 91.4493 113.824 91.188C113.721 90.9173 113.553 90.7027 113.32 90.544C113.086 90.376 112.774 90.292 112.382 90.292C111.794 90.292 111.35 90.4787 111.052 90.852C110.762 91.2253 110.622 91.6733 110.632 92.196H109.19C109.199 91.5053 109.344 90.9267 109.624 90.46C109.913 89.9933 110.296 89.6387 110.772 89.396C111.257 89.1533 111.803 89.032 112.41 89.032C113.334 89.032 114.071 89.2933 114.622 89.816C115.182 90.3293 115.462 91.048 115.462 91.972C115.462 92.5227 115.326 93.0687 115.056 93.61C114.794 94.1513 114.449 94.674 114.02 95.178C113.6 95.6727 113.147 96.1393 112.662 96.578C112.176 97.0167 111.714 97.4133 111.276 97.768H115.756V99H109.148Z" fill="black"/>
<rect y="27" width="375" height="1" fill="#D3D7DB"/>
<rect y="118" width="375" height="1" fill="#D3D7DB"/>
<path d="M85.036 57V47.2H86.212V57H85.036ZM87.9399 57V50.056H89.0039L89.0739 51.302C89.2979 50.8633 89.6199 50.518 90.0399 50.266C90.4599 50.014 90.9359 49.888 91.4679 49.888C92.2892 49.888 92.9426 50.14 93.4279 50.644C93.9226 51.1387 94.1699 51.904 94.1699 52.94V57H92.9939V53.066C92.9939 51.6193 92.3966 50.896 91.2019 50.896C90.6046 50.896 90.1052 51.1153 89.7039 51.554C89.3119 51.9833 89.1159 52.5993 89.1159 53.402V57H87.9399ZM98.8636 57.168C98.201 57.168 97.6036 57.0187 97.0716 56.72C96.549 56.412 96.1336 55.9873 95.8256 55.446C95.527 54.8953 95.3776 54.256 95.3776 53.528C95.3776 52.8 95.527 52.1653 95.8256 51.624C96.1336 51.0733 96.549 50.6487 97.0716 50.35C97.6036 50.042 98.201 49.888 98.8636 49.888C99.685 49.888 100.376 50.1027 100.936 50.532C101.505 50.9613 101.864 51.5353 102.014 52.254H100.81C100.716 51.8247 100.488 51.4933 100.124 51.26C99.7596 51.0173 99.335 50.896 98.8496 50.896C98.4576 50.896 98.089 50.994 97.7436 51.19C97.3983 51.386 97.1183 51.68 96.9036 52.072C96.689 52.464 96.5816 52.9493 96.5816 53.528C96.5816 54.1067 96.689 54.592 96.9036 54.984C97.1183 55.376 97.3983 55.6747 97.7436 55.88C98.089 56.076 98.4576 56.174 98.8496 56.174C99.335 56.174 99.7596 56.0573 100.124 55.824C100.488 55.5813 100.716 55.2407 100.81 54.802H102.014C101.874 55.502 101.519 56.0713 100.95 56.51C100.38 56.9487 99.685 57.168 98.8636 57.168ZM103.376 57V50.056H104.44L104.538 51.386C104.753 50.9287 105.079 50.5647 105.518 50.294C105.957 50.0233 106.498 49.888 107.142 49.888V51.12H106.82C106.409 51.12 106.031 51.1947 105.686 51.344C105.341 51.484 105.065 51.7267 104.86 52.072C104.655 52.4173 104.552 52.8933 104.552 53.5V57H103.376ZM111.044 57.168C110.382 57.168 109.794 57.0187 109.28 56.72C108.767 56.412 108.361 55.9873 108.062 55.446C107.773 54.9047 107.628 54.2653 107.628 53.528C107.628 52.8 107.773 52.1653 108.062 51.624C108.352 51.0733 108.753 50.6487 109.266 50.35C109.789 50.042 110.391 49.888 111.072 49.888C111.744 49.888 112.323 50.042 112.808 50.35C113.303 50.6487 113.681 51.0453 113.942 51.54C114.204 52.0347 114.334 52.5667 114.334 53.136C114.334 53.2387 114.33 53.3413 114.32 53.444C114.32 53.5467 114.32 53.6633 114.32 53.794H108.79C108.818 54.326 108.94 54.7693 109.154 55.124C109.378 55.4693 109.654 55.7307 109.98 55.908C110.316 56.0853 110.671 56.174 111.044 56.174C111.53 56.174 111.936 56.062 112.262 55.838C112.589 55.614 112.827 55.3107 112.976 54.928H114.138C113.952 55.572 113.592 56.1087 113.06 56.538C112.538 56.958 111.866 57.168 111.044 57.168ZM111.044 50.882C110.484 50.882 109.985 51.0547 109.546 51.4C109.117 51.736 108.87 52.2307 108.804 52.884H113.172C113.144 52.2587 112.93 51.7687 112.528 51.414C112.127 51.0593 111.632 50.882 111.044 50.882ZM117.923 57.168C117.344 57.168 116.864 57.07 116.481 56.874C116.098 56.678 115.814 56.4167 115.627 56.09C115.44 55.7633 115.347 55.4087 115.347 55.026C115.347 54.3167 115.618 53.7707 116.159 53.388C116.7 53.0053 117.438 52.814 118.371 52.814H120.247V52.73C120.247 52.1233 120.088 51.666 119.771 51.358C119.454 51.0407 119.029 50.882 118.497 50.882C118.04 50.882 117.643 50.9987 117.307 51.232C116.98 51.456 116.775 51.7873 116.691 52.226H115.487C115.534 51.722 115.702 51.2973 115.991 50.952C116.29 50.6067 116.658 50.3453 117.097 50.168C117.536 49.9813 118.002 49.888 118.497 49.888C119.468 49.888 120.196 50.1493 120.681 50.672C121.176 51.1853 121.423 51.8713 121.423 52.73V57H120.373L120.303 55.754C120.107 56.146 119.818 56.482 119.435 56.762C119.062 57.0327 118.558 57.168 117.923 57.168ZM118.105 56.174C118.553 56.174 118.936 56.0573 119.253 55.824C119.58 55.5907 119.827 55.2873 119.995 54.914C120.163 54.5407 120.247 54.1487 120.247 53.738V53.724H118.469C117.778 53.724 117.288 53.8453 116.999 54.088C116.719 54.3213 116.579 54.6153 116.579 54.97C116.579 55.334 116.71 55.628 116.971 55.852C117.242 56.0667 117.62 56.174 118.105 56.174ZM125.567 57.168C124.736 57.168 124.046 56.958 123.495 56.538C122.944 56.118 122.622 55.5487 122.529 54.83H123.733C123.808 55.194 123.999 55.5113 124.307 55.782C124.624 56.0433 125.049 56.174 125.581 56.174C126.076 56.174 126.44 56.0713 126.673 55.866C126.906 55.6513 127.023 55.3993 127.023 55.11C127.023 54.69 126.869 54.41 126.561 54.27C126.262 54.13 125.838 54.004 125.287 53.892C124.914 53.8173 124.54 53.71 124.167 53.57C123.794 53.43 123.481 53.234 123.229 52.982C122.977 52.7207 122.851 52.38 122.851 51.96C122.851 51.3533 123.075 50.8587 123.523 50.476C123.98 50.084 124.596 49.888 125.371 49.888C126.108 49.888 126.71 50.0747 127.177 50.448C127.653 50.812 127.928 51.3347 128.003 52.016H126.841C126.794 51.6613 126.64 51.386 126.379 51.19C126.127 50.9847 125.786 50.882 125.357 50.882C124.937 50.882 124.61 50.9707 124.377 51.148C124.153 51.3253 124.041 51.5587 124.041 51.848C124.041 52.128 124.186 52.3473 124.475 52.506C124.774 52.6647 125.175 52.8 125.679 52.912C126.108 53.0053 126.514 53.122 126.897 53.262C127.289 53.3927 127.606 53.5933 127.849 53.864C128.101 54.1253 128.227 54.508 128.227 55.012C128.236 55.6373 127.998 56.1553 127.513 56.566C127.037 56.9673 126.388 57.168 125.567 57.168ZM132.749 57.168C132.086 57.168 131.498 57.0187 130.985 56.72C130.472 56.412 130.066 55.9873 129.767 55.446C129.478 54.9047 129.333 54.2653 129.333 53.528C129.333 52.8 129.478 52.1653 129.767 51.624C130.056 51.0733 130.458 50.6487 130.971 50.35C131.494 50.042 132.096 49.888 132.777 49.888C133.449 49.888 134.028 50.042 134.513 50.35C135.008 50.6487 135.386 51.0453 135.647 51.54C135.908 52.0347 136.039 52.5667 136.039 53.136C136.039 53.2387 136.034 53.3413 136.025 53.444C136.025 53.5467 136.025 53.6633 136.025 53.794H130.495C130.523 54.326 130.644 54.7693 130.859 55.124C131.083 55.4693 131.358 55.7307 131.685 55.908C132.021 56.0853 132.376 56.174 132.749 56.174C133.234 56.174 133.64 56.062 133.967 55.838C134.294 55.614 134.532 55.3107 134.681 54.928H135.843C135.656 55.572 135.297 56.1087 134.765 56.538C134.242 56.958 133.57 57.168 132.749 57.168ZM132.749 50.882C132.189 50.882 131.69 51.0547 131.251 51.4C130.822 51.736 130.574 52.2307 130.509 52.884H134.877C134.849 52.2587 134.634 51.7687 134.233 51.414C133.832 51.0593 133.337 50.882 132.749 50.882ZM141.499 60.08L143.221 56.328H142.815L140.057 50.056H141.331L143.627 55.46L146.063 50.056H147.281L142.731 60.08H141.499ZM150.75 57.168C150.097 57.168 149.509 57.0187 148.986 56.72C148.463 56.4213 148.048 56.0013 147.74 55.46C147.441 54.9093 147.292 54.2653 147.292 53.528C147.292 52.7907 147.446 52.1513 147.754 51.61C148.062 51.0593 148.477 50.6347 149 50.336C149.532 50.0373 150.125 49.888 150.778 49.888C151.431 49.888 152.019 50.0373 152.542 50.336C153.065 50.6347 153.475 51.0593 153.774 51.61C154.082 52.1513 154.236 52.7907 154.236 53.528C154.236 54.2653 154.082 54.9093 153.774 55.46C153.466 56.0013 153.046 56.4213 152.514 56.72C151.991 57.0187 151.403 57.168 150.75 57.168ZM150.75 56.16C151.151 56.16 151.525 56.062 151.87 55.866C152.215 55.67 152.495 55.376 152.71 54.984C152.925 54.592 153.032 54.1067 153.032 53.528C153.032 52.9493 152.925 52.464 152.71 52.072C152.505 51.68 152.229 51.386 151.884 51.19C151.539 50.994 151.17 50.896 150.778 50.896C150.377 50.896 150.003 50.994 149.658 51.19C149.313 51.386 149.033 51.68 148.818 52.072C148.603 52.464 148.496 52.9493 148.496 53.528C148.496 54.1067 148.603 54.592 148.818 54.984C149.033 55.376 149.308 55.67 149.644 55.866C149.989 56.062 150.358 56.16 150.75 56.16ZM158.125 57.168C157.304 57.168 156.65 56.9207 156.165 56.426C155.68 55.922 155.437 55.152 155.437 54.116V50.056H156.613V53.99C156.613 55.4367 157.206 56.16 158.391 56.16C158.998 56.16 159.497 55.9453 159.889 55.516C160.29 55.0773 160.491 54.4567 160.491 53.654V50.056H161.667V57H160.603L160.519 55.754C160.304 56.1927 159.982 56.538 159.553 56.79C159.133 57.042 158.657 57.168 158.125 57.168ZM163.323 57V50.056H164.387L164.485 51.386C164.699 50.9287 165.026 50.5647 165.465 50.294C165.903 50.0233 166.445 49.888 167.089 49.888V51.12H166.767C166.356 51.12 165.978 51.1947 165.633 51.344C165.287 51.484 165.012 51.7267 164.807 52.072C164.601 52.4173 164.499 52.8933 164.499 53.5V57H163.323ZM171.554 57V50.056H172.618L172.716 51.386C172.93 50.9287 173.257 50.5647 173.696 50.294C174.134 50.0233 174.676 49.888 175.32 49.888V51.12H174.998C174.587 51.12 174.209 51.1947 173.864 51.344C173.518 51.484 173.243 51.7267 173.038 52.072C172.832 52.4173 172.73 52.8933 172.73 53.5V57H171.554ZM179.222 57.168C178.559 57.168 177.971 57.0187 177.458 56.72C176.945 56.412 176.539 55.9873 176.24 55.446C175.951 54.9047 175.806 54.2653 175.806 53.528C175.806 52.8 175.951 52.1653 176.24 51.624C176.529 51.0733 176.931 50.6487 177.444 50.35C177.967 50.042 178.569 49.888 179.25 49.888C179.922 49.888 180.501 50.042 180.986 50.35C181.481 50.6487 181.859 51.0453 182.12 51.54C182.381 52.0347 182.512 52.5667 182.512 53.136C182.512 53.2387 182.507 53.3413 182.498 53.444C182.498 53.5467 182.498 53.6633 182.498 53.794H176.968C176.996 54.326 177.117 54.7693 177.332 55.124C177.556 55.4693 177.831 55.7307 178.158 55.908C178.494 56.0853 178.849 56.174 179.222 56.174C179.707 56.174 180.113 56.062 180.44 55.838C180.767 55.614 181.005 55.3107 181.154 54.928H182.316C182.129 55.572 181.77 56.1087 181.238 56.538C180.715 56.958 180.043 57.168 179.222 57.168ZM179.222 50.882C178.662 50.882 178.163 51.0547 177.724 51.4C177.295 51.736 177.047 52.2307 176.982 52.884H181.35C181.322 52.2587 181.107 51.7687 180.706 51.414C180.305 51.0593 179.81 50.882 179.222 50.882ZM186.451 57.168C185.62 57.168 184.929 56.958 184.379 56.538C183.828 56.118 183.506 55.5487 183.413 54.83H184.617C184.691 55.194 184.883 55.5113 185.191 55.782C185.508 56.0433 185.933 56.174 186.465 56.174C186.959 56.174 187.323 56.0713 187.557 55.866C187.79 55.6513 187.907 55.3993 187.907 55.11C187.907 54.69 187.753 54.41 187.445 54.27C187.146 54.13 186.721 54.004 186.171 53.892C185.797 53.8173 185.424 53.71 185.051 53.57C184.677 53.43 184.365 53.234 184.113 52.982C183.861 52.7207 183.735 52.38 183.735 51.96C183.735 51.3533 183.959 50.8587 184.407 50.476C184.864 50.084 185.48 49.888 186.255 49.888C186.992 49.888 187.594 50.0747 188.061 50.448C188.537 50.812 188.812 51.3347 188.887 52.016H187.725C187.678 51.6613 187.524 51.386 187.263 51.19C187.011 50.9847 186.67 50.882 186.241 50.882C185.821 50.882 185.494 50.9707 185.261 51.148C185.037 51.3253 184.925 51.5587 184.925 51.848C184.925 52.128 185.069 52.3473 185.359 52.506C185.657 52.6647 186.059 52.8 186.563 52.912C186.992 53.0053 187.398 53.122 187.781 53.262C188.173 53.3927 188.49 53.5933 188.733 53.864C188.985 54.1253 189.111 54.508 189.111 55.012C189.12 55.6373 188.882 56.1553 188.397 56.566C187.921 56.9673 187.272 57.168 186.451 57.168ZM190.511 60.08V50.056H191.575L191.687 51.204C191.911 50.868 192.228 50.5647 192.639 50.294C193.059 50.0233 193.591 49.888 194.235 49.888C194.925 49.888 195.527 50.0467 196.041 50.364C196.554 50.6813 196.951 51.1153 197.231 51.666C197.52 52.2167 197.665 52.842 197.665 53.542C197.665 54.242 197.52 54.8673 197.231 55.418C196.951 55.9593 196.549 56.3887 196.027 56.706C195.513 57.014 194.911 57.168 194.221 57.168C193.651 57.168 193.143 57.0513 192.695 56.818C192.256 56.5847 191.92 56.258 191.687 55.838V60.08H190.511ZM194.095 56.146C194.561 56.146 194.972 56.0387 195.327 55.824C195.681 55.6 195.961 55.292 196.167 54.9C196.372 54.508 196.475 54.0507 196.475 53.528C196.475 53.0053 196.372 52.548 196.167 52.156C195.961 51.764 195.681 51.4607 195.327 51.246C194.972 51.022 194.561 50.91 194.095 50.91C193.628 50.91 193.217 51.022 192.863 51.246C192.508 51.4607 192.228 51.764 192.023 52.156C191.817 52.548 191.715 53.0053 191.715 53.528C191.715 54.0507 191.817 54.508 192.023 54.9C192.228 55.292 192.508 55.6 192.863 55.824C193.217 56.0387 193.628 56.146 194.095 56.146ZM202.186 57.168C201.532 57.168 200.944 57.0187 200.422 56.72C199.899 56.4213 199.484 56.0013 199.176 55.46C198.877 54.9093 198.728 54.2653 198.728 53.528C198.728 52.7907 198.882 52.1513 199.19 51.61C199.498 51.0593 199.913 50.6347 200.436 50.336C200.968 50.0373 201.56 49.888 202.214 49.888C202.867 49.888 203.455 50.0373 203.978 50.336C204.5 50.6347 204.911 51.0593 205.21 51.61C205.518 52.1513 205.672 52.7907 205.672 53.528C205.672 54.2653 205.518 54.9093 205.21 55.46C204.902 56.0013 204.482 56.4213 203.95 56.72C203.427 57.0187 202.839 57.168 202.186 57.168ZM202.186 56.16C202.587 56.16 202.96 56.062 203.306 55.866C203.651 55.67 203.931 55.376 204.146 54.984C204.36 54.592 204.468 54.1067 204.468 53.528C204.468 52.9493 204.36 52.464 204.146 52.072C203.94 51.68 203.665 51.386 203.32 51.19C202.974 50.994 202.606 50.896 202.214 50.896C201.812 50.896 201.439 50.994 201.094 51.19C200.748 51.386 200.468 51.68 200.254 52.072C200.039 52.464 199.932 52.9493 199.932 53.528C199.932 54.1067 200.039 54.592 200.254 54.984C200.468 55.376 200.744 55.67 201.08 55.866C201.425 56.062 201.794 56.16 202.186 56.16ZM207.027 57V50.056H208.091L208.161 51.302C208.385 50.8633 208.707 50.518 209.127 50.266C209.547 50.014 210.023 49.888 210.555 49.888C211.376 49.888 212.03 50.14 212.515 50.644C213.01 51.1387 213.257 51.904 213.257 52.94V57H212.081V53.066C212.081 51.6193 211.484 50.896 210.289 50.896C209.692 50.896 209.192 51.1153 208.791 51.554C208.399 51.9833 208.203 52.5993 208.203 53.402V57H207.027ZM217.419 57.168C216.588 57.168 215.897 56.958 215.347 56.538C214.796 56.118 214.474 55.5487 214.381 54.83H215.585C215.659 55.194 215.851 55.5113 216.159 55.782C216.476 56.0433 216.901 56.174 217.433 56.174C217.927 56.174 218.291 56.0713 218.525 55.866C218.758 55.6513 218.875 55.3993 218.875 55.11C218.875 54.69 218.721 54.41 218.413 54.27C218.114 54.13 217.689 54.004 217.139 53.892C216.765 53.8173 216.392 53.71 216.019 53.57C215.645 53.43 215.333 53.234 215.081 52.982C214.829 52.7207 214.703 52.38 214.703 51.96C214.703 51.3533 214.927 50.8587 215.375 50.476C215.832 50.084 216.448 49.888 217.223 49.888C217.96 49.888 218.562 50.0747 219.029 50.448C219.505 50.812 219.78 51.3347 219.855 52.016H218.693C218.646 51.6613 218.492 51.386 218.231 51.19C217.979 50.9847 217.638 50.882 217.209 50.882C216.789 50.882 216.462 50.9707 216.229 51.148C216.005 51.3253 215.893 51.5587 215.893 51.848C215.893 52.128 216.037 52.3473 216.327 52.506C216.625 52.6647 217.027 52.8 217.531 52.912C217.96 53.0053 218.366 53.122 218.749 53.262C219.141 53.3927 219.458 53.5933 219.701 53.864C219.953 54.1253 220.079 54.508 220.079 55.012C220.088 55.6373 219.85 56.1553 219.365 56.566C218.889 56.9673 218.24 57.168 217.419 57.168ZM224.601 57.168C223.938 57.168 223.35 57.0187 222.837 56.72C222.323 56.412 221.917 55.9873 221.619 55.446C221.329 54.9047 221.185 54.2653 221.185 53.528C221.185 52.8 221.329 52.1653 221.619 51.624C221.908 51.0733 222.309 50.6487 222.823 50.35C223.345 50.042 223.947 49.888 224.629 49.888C225.301 49.888 225.879 50.042 226.365 50.35C226.859 50.6487 227.237 51.0453 227.499 51.54C227.76 52.0347 227.891 52.5667 227.891 53.136C227.891 53.2387 227.886 53.3413 227.877 53.444C227.877 53.5467 227.877 53.6633 227.877 53.794H222.347C222.375 54.326 222.496 54.7693 222.711 55.124C222.935 55.4693 223.21 55.7307 223.537 55.908C223.873 56.0853 224.227 56.174 224.601 56.174C225.086 56.174 225.492 56.062 225.819 55.838C226.145 55.614 226.383 55.3107 226.533 54.928H227.695C227.508 55.572 227.149 56.1087 226.617 56.538C226.094 56.958 225.422 57.168 224.601 57.168ZM224.601 50.882C224.041 50.882 223.541 51.0547 223.103 51.4C222.673 51.736 222.426 52.2307 222.361 52.884H226.729C226.701 52.2587 226.486 51.7687 226.085 51.414C225.683 51.0593 225.189 50.882 224.601 50.882ZM232.594 57V50.056H233.658L233.756 51.386C233.971 50.9287 234.298 50.5647 234.736 50.294C235.175 50.0233 235.716 49.888 236.36 49.888V51.12H236.038C235.628 51.12 235.25 51.1947 234.904 51.344C234.559 51.484 234.284 51.7267 234.078 52.072C233.873 52.4173 233.77 52.8933 233.77 53.5V57H232.594ZM239.71 57.168C239.132 57.168 238.651 57.07 238.268 56.874C237.886 56.678 237.601 56.4167 237.414 56.09C237.228 55.7633 237.134 55.4087 237.134 55.026C237.134 54.3167 237.405 53.7707 237.946 53.388C238.488 53.0053 239.225 52.814 240.158 52.814H242.034V52.73C242.034 52.1233 241.876 51.666 241.558 51.358C241.241 51.0407 240.816 50.882 240.284 50.882C239.827 50.882 239.43 50.9987 239.094 51.232C238.768 51.456 238.562 51.7873 238.478 52.226H237.274C237.321 51.722 237.489 51.2973 237.778 50.952C238.077 50.6067 238.446 50.3453 238.884 50.168C239.323 49.9813 239.79 49.888 240.284 49.888C241.255 49.888 241.983 50.1493 242.468 50.672C242.963 51.1853 243.21 51.8713 243.21 52.73V57H242.16L242.09 55.754C241.894 56.146 241.605 56.482 241.222 56.762C240.849 57.0327 240.345 57.168 239.71 57.168ZM239.892 56.174C240.34 56.174 240.723 56.0573 241.04 55.824C241.367 55.5907 241.614 55.2873 241.782 54.914C241.95 54.5407 242.034 54.1487 242.034 53.738V53.724H240.256C239.566 53.724 239.076 53.8453 238.786 54.088C238.506 54.3213 238.366 54.6153 238.366 54.97C238.366 55.334 238.497 55.628 238.758 55.852C239.029 56.0667 239.407 56.174 239.892 56.174ZM247.247 57C246.612 57 246.113 56.846 245.749 56.538C245.385 56.23 245.203 55.6747 245.203 54.872V51.05H243.999V50.056H245.203L245.357 48.39H246.379V50.056H248.423V51.05H246.379V54.872C246.379 55.3107 246.468 55.6093 246.645 55.768C246.822 55.9173 247.135 55.992 247.583 55.992H248.311V57H247.247ZM252.568 57.168C251.905 57.168 251.317 57.0187 250.804 56.72C250.29 56.412 249.884 55.9873 249.586 55.446C249.296 54.9047 249.152 54.2653 249.152 53.528C249.152 52.8 249.296 52.1653 249.586 51.624C249.875 51.0733 250.276 50.6487 250.79 50.35C251.312 50.042 251.914 49.888 252.596 49.888C253.268 49.888 253.846 50.042 254.332 50.35C254.826 50.6487 255.204 51.0453 255.466 51.54C255.727 52.0347 255.858 52.5667 255.858 53.136C255.858 53.2387 255.853 53.3413 255.844 53.444C255.844 53.5467 255.844 53.6633 255.844 53.794H250.314C250.342 54.326 250.463 54.7693 250.678 55.124C250.902 55.4693 251.177 55.7307 251.504 55.908C251.84 56.0853 252.194 56.174 252.568 56.174C253.053 56.174 253.459 56.062 253.786 55.838C254.112 55.614 254.35 55.3107 254.5 54.928H255.662C255.475 55.572 255.116 56.1087 254.584 56.538C254.061 56.958 253.389 57.168 252.568 57.168ZM252.568 50.882C252.008 50.882 251.508 51.0547 251.07 51.4C250.64 51.736 250.393 52.2307 250.328 52.884H254.696C254.668 52.2587 254.453 51.7687 254.052 51.414C253.65 51.0593 253.156 50.882 252.568 50.882ZM259.796 57.168C258.966 57.168 258.275 56.958 257.724 56.538C257.174 56.118 256.852 55.5487 256.758 54.83H257.962C258.037 55.194 258.228 55.5113 258.536 55.782C258.854 56.0433 259.278 56.174 259.81 56.174C260.305 56.174 260.669 56.0713 260.902 55.866C261.136 55.6513 261.252 55.3993 261.252 55.11C261.252 54.69 261.098 54.41 260.79 54.27C260.492 54.13 260.067 54.004 259.516 53.892C259.143 53.8173 258.77 53.71 258.396 53.57C258.023 53.43 257.71 53.234 257.458 52.982C257.206 52.7207 257.08 52.38 257.08 51.96C257.08 51.3533 257.304 50.8587 257.752 50.476C258.21 50.084 258.826 49.888 259.6 49.888C260.338 49.888 260.94 50.0747 261.406 50.448C261.882 50.812 262.158 51.3347 262.232 52.016H261.07C261.024 51.6613 260.87 51.386 260.608 51.19C260.356 50.9847 260.016 50.882 259.586 50.882C259.166 50.882 258.84 50.9707 258.606 51.148C258.382 51.3253 258.27 51.5587 258.27 51.848C258.27 52.128 258.415 52.3473 258.704 52.506C259.003 52.6647 259.404 52.8 259.908 52.912C260.338 53.0053 260.744 53.122 261.126 53.262C261.518 53.3927 261.836 53.5933 262.078 53.864C262.33 54.1253 262.456 54.508 262.456 55.012C262.466 55.6373 262.228 56.1553 261.742 56.566C261.266 56.9673 260.618 57.168 259.796 57.168ZM270.992 57.168C270.422 57.168 269.914 57.0513 269.466 56.818C269.027 56.5847 268.691 56.258 268.458 55.838L268.346 57H267.282V46.92H268.458V51.204C268.682 50.868 268.999 50.5647 269.41 50.294C269.83 50.0233 270.362 49.888 271.006 49.888C271.696 49.888 272.298 50.0467 272.812 50.364C273.325 50.6813 273.722 51.1153 274.002 51.666C274.291 52.2167 274.436 52.842 274.436 53.542C274.436 54.242 274.291 54.8673 274.002 55.418C273.722 55.9593 273.32 56.3887 272.798 56.706C272.284 57.014 271.682 57.168 270.992 57.168ZM270.866 56.146C271.332 56.146 271.743 56.0387 272.098 55.824C272.452 55.6 272.732 55.292 272.938 54.9C273.143 54.508 273.246 54.0507 273.246 53.528C273.246 53.0053 273.143 52.548 272.938 52.156C272.732 51.764 272.452 51.4607 272.098 51.246C271.743 51.022 271.332 50.91 270.866 50.91C270.399 50.91 269.988 51.022 269.634 51.246C269.279 51.4607 268.999 51.764 268.794 52.156C268.588 52.548 268.486 53.0053 268.486 53.528C268.486 54.0507 268.588 54.508 268.794 54.9C268.999 55.292 269.279 55.6 269.634 55.824C269.988 56.0387 270.399 56.146 270.866 56.146ZM275.988 60.08L277.71 56.328H277.304L274.546 50.056H275.82L278.116 55.46L280.552 50.056H281.77L277.22 60.08H275.988ZM88.158 77.168C87.4953 77.168 86.898 77.0187 86.366 76.72C85.8433 76.412 85.428 75.9873 85.12 75.446C84.8213 74.8953 84.672 74.256 84.672 73.528C84.672 72.8 84.8213 72.1653 85.12 71.624C85.428 71.0733 85.8433 70.6487 86.366 70.35C86.898 70.042 87.4953 69.888 88.158 69.888C88.9793 69.888 89.67 70.1027 90.23 70.532C90.7993 70.9613 91.1587 71.5353 91.308 72.254H90.104C90.0107 71.8247 89.782 71.4933 89.418 71.26C89.054 71.0173 88.6293 70.896 88.144 70.896C87.752 70.896 87.3833 70.994 87.038 71.19C86.6927 71.386 86.4127 71.68 86.198 72.072C85.9833 72.464 85.876 72.9493 85.876 73.528C85.876 74.1067 85.9833 74.592 86.198 74.984C86.4127 75.376 86.6927 75.6747 87.038 75.88C87.3833 76.076 87.752 76.174 88.144 76.174C88.6293 76.174 89.054 76.0573 89.418 75.824C89.782 75.5813 90.0107 75.2407 90.104 74.802H91.308C91.168 75.502 90.8133 76.0713 90.244 76.51C89.6747 76.9487 88.9793 77.168 88.158 77.168ZM95.8344 77.168C95.181 77.168 94.593 77.0187 94.0704 76.72C93.5477 76.4213 93.1324 76.0013 92.8244 75.46C92.5257 74.9093 92.3764 74.2653 92.3764 73.528C92.3764 72.7907 92.5304 72.1513 92.8384 71.61C93.1464 71.0593 93.5617 70.6347 94.0844 70.336C94.6164 70.0373 95.209 69.888 95.8624 69.888C96.5157 69.888 97.1037 70.0373 97.6264 70.336C98.149 70.6347 98.5597 71.0593 98.8584 71.61C99.1664 72.1513 99.3204 72.7907 99.3204 73.528C99.3204 74.2653 99.1664 74.9093 98.8584 75.46C98.5504 76.0013 98.1304 76.4213 97.5984 76.72C97.0757 77.0187 96.4877 77.168 95.8344 77.168ZM95.8344 76.16C96.2357 76.16 96.609 76.062 96.9544 75.866C97.2997 75.67 97.5797 75.376 97.7944 74.984C98.009 74.592 98.1164 74.1067 98.1164 73.528C98.1164 72.9493 98.009 72.464 97.7944 72.072C97.589 71.68 97.3137 71.386 96.9684 71.19C96.623 70.994 96.2544 70.896 95.8624 70.896C95.461 70.896 95.0877 70.994 94.7424 71.19C94.397 71.386 94.117 71.68 93.9024 72.072C93.6877 72.464 93.5804 72.9493 93.5804 73.528C93.5804 74.1067 93.6877 74.592 93.9024 74.984C94.117 75.376 94.3924 75.67 94.7284 75.866C95.0737 76.062 95.4424 76.16 95.8344 76.16ZM100.676 77V70.056H101.74L101.81 71.302C102.034 70.8633 102.356 70.518 102.776 70.266C103.196 70.014 103.672 69.888 104.204 69.888C105.025 69.888 105.678 70.14 106.164 70.644C106.658 71.1387 106.906 71.904 106.906 72.94V77H105.73V73.066C105.73 71.6193 105.132 70.896 103.938 70.896C103.34 70.896 102.841 71.1153 102.44 71.554C102.048 71.9833 101.852 72.5993 101.852 73.402V77H100.676ZM108.407 77V70.056H109.471L109.541 71.302C109.765 70.8633 110.087 70.518 110.507 70.266C110.927 70.014 111.403 69.888 111.935 69.888C112.757 69.888 113.41 70.14 113.895 70.644C114.39 71.1387 114.637 71.904 114.637 72.94V77H113.461V73.066C113.461 71.6193 112.864 70.896 111.669 70.896C111.072 70.896 110.573 71.1153 110.171 71.554C109.779 71.9833 109.583 72.5993 109.583 73.402V77H108.407ZM119.261 77.168C118.598 77.168 118.01 77.0187 117.497 76.72C116.984 76.412 116.578 75.9873 116.279 75.446C115.99 74.9047 115.845 74.2653 115.845 73.528C115.845 72.8 115.99 72.1653 116.279 71.624C116.568 71.0733 116.97 70.6487 117.483 70.35C118.006 70.042 118.608 69.888 119.289 69.888C119.961 69.888 120.54 70.042 121.025 70.35C121.52 70.6487 121.898 71.0453 122.159 71.54C122.42 72.0347 122.551 72.5667 122.551 73.136C122.551 73.2387 122.546 73.3413 122.537 73.444C122.537 73.5467 122.537 73.6633 122.537 73.794H117.007C117.035 74.326 117.156 74.7693 117.371 75.124C117.595 75.4693 117.87 75.7307 118.197 75.908C118.533 76.0853 118.888 76.174 119.261 76.174C119.746 76.174 120.152 76.062 120.479 75.838C120.806 75.614 121.044 75.3107 121.193 74.928H122.355C122.168 75.572 121.809 76.1087 121.277 76.538C120.754 76.958 120.082 77.168 119.261 77.168ZM119.261 70.882C118.701 70.882 118.202 71.0547 117.763 71.4C117.334 71.736 117.086 72.2307 117.021 72.884H121.389C121.361 72.2587 121.146 71.7687 120.745 71.414C120.344 71.0593 119.849 70.882 119.261 70.882ZM127.022 77.168C126.359 77.168 125.762 77.0187 125.23 76.72C124.707 76.412 124.292 75.9873 123.984 75.446C123.685 74.8953 123.536 74.256 123.536 73.528C123.536 72.8 123.685 72.1653 123.984 71.624C124.292 71.0733 124.707 70.6487 125.23 70.35C125.762 70.042 126.359 69.888 127.022 69.888C127.843 69.888 128.534 70.1027 129.094 70.532C129.663 70.9613 130.022 71.5353 130.172 72.254H128.968C128.874 71.8247 128.646 71.4933 128.282 71.26C127.918 71.0173 127.493 70.896 127.008 70.896C126.616 70.896 126.247 70.994 125.902 71.19C125.556 71.386 125.276 71.68 125.062 72.072C124.847 72.464 124.74 72.9493 124.74 73.528C124.74 74.1067 124.847 74.592 125.062 74.984C125.276 75.376 125.556 75.6747 125.902 75.88C126.247 76.076 126.616 76.174 127.008 76.174C127.493 76.174 127.918 76.0573 128.282 75.824C128.646 75.5813 128.874 75.2407 128.968 74.802H130.172C130.032 75.502 129.677 76.0713 129.108 76.51C128.538 76.9487 127.843 77.168 127.022 77.168ZM134.087 77C133.452 77 132.953 76.846 132.589 76.538C132.225 76.23 132.043 75.6747 132.043 74.872V71.05H130.839V70.056H132.043L132.197 68.39H133.219V70.056H135.263V71.05H133.219V74.872C133.219 75.3107 133.307 75.6093 133.485 75.768C133.662 75.9173 133.975 75.992 134.423 75.992H135.151V77H134.087ZM137.191 68.516C136.957 68.516 136.761 68.4413 136.603 68.292C136.453 68.1333 136.379 67.9373 136.379 67.704C136.379 67.48 136.453 67.2933 136.603 67.144C136.761 66.9947 136.957 66.92 137.191 66.92C137.415 66.92 137.606 66.9947 137.765 67.144C137.923 67.2933 138.003 67.48 138.003 67.704C138.003 67.9373 137.923 68.1333 137.765 68.292C137.606 68.4413 137.415 68.516 137.191 68.516ZM136.603 77V70.056H137.779V77H136.603ZM139.546 77V70.056H140.61L140.68 71.302C140.904 70.8633 141.226 70.518 141.646 70.266C142.066 70.014 142.542 69.888 143.074 69.888C143.896 69.888 144.549 70.14 145.034 70.644C145.529 71.1387 145.776 71.904 145.776 72.94V77H144.6V73.066C144.6 71.6193 144.003 70.896 142.808 70.896C142.211 70.896 141.712 71.1153 141.31 71.554C140.918 71.9833 140.722 72.5993 140.722 73.402V77H139.546ZM150.022 74.816C149.63 74.816 149.271 74.7647 148.944 74.662L148.244 75.32C148.347 75.3947 148.473 75.46 148.622 75.516C148.781 75.5627 149.005 75.6093 149.294 75.656C149.583 75.6933 149.989 75.7353 150.512 75.782C151.445 75.8473 152.113 76.062 152.514 76.426C152.915 76.79 153.116 77.266 153.116 77.854C153.116 78.2553 153.004 78.638 152.78 79.002C152.565 79.366 152.229 79.6647 151.772 79.898C151.324 80.1313 150.745 80.248 150.036 80.248C149.411 80.248 148.855 80.164 148.37 79.996C147.885 79.8373 147.507 79.59 147.236 79.254C146.965 78.9273 146.83 78.512 146.83 78.008C146.83 77.7467 146.9 77.462 147.04 77.154C147.18 76.8553 147.441 76.5707 147.824 76.3C147.619 76.216 147.441 76.1273 147.292 76.034C147.152 75.9313 147.021 75.8193 146.9 75.698V75.376L148.09 74.2C147.539 73.7333 147.264 73.1173 147.264 72.352C147.264 71.8947 147.371 71.4793 147.586 71.106C147.801 70.7327 148.113 70.4387 148.524 70.224C148.935 70 149.434 69.888 150.022 69.888C150.423 69.888 150.787 69.944 151.114 70.056H153.676V70.938L152.374 70.994C152.645 71.386 152.78 71.8387 152.78 72.352C152.78 72.8093 152.668 73.2247 152.444 73.598C152.229 73.9713 151.917 74.27 151.506 74.494C151.105 74.7087 150.61 74.816 150.022 74.816ZM150.022 73.85C150.517 73.85 150.909 73.724 151.198 73.472C151.497 73.2107 151.646 72.8373 151.646 72.352C151.646 71.876 151.497 71.512 151.198 71.26C150.909 70.9987 150.517 70.868 150.022 70.868C149.518 70.868 149.117 70.9987 148.818 71.26C148.529 71.512 148.384 71.876 148.384 72.352C148.384 72.8373 148.529 73.2107 148.818 73.472C149.117 73.724 149.518 73.85 150.022 73.85ZM147.978 77.896C147.978 78.3627 148.174 78.708 148.566 78.932C148.958 79.1653 149.448 79.282 150.036 79.282C150.615 79.282 151.077 79.156 151.422 78.904C151.777 78.652 151.954 78.316 151.954 77.896C151.954 77.5973 151.833 77.336 151.59 77.112C151.347 76.8973 150.899 76.7713 150.246 76.734C149.733 76.6967 149.289 76.65 148.916 76.594C148.533 76.7993 148.281 77.0187 148.16 77.252C148.039 77.4947 147.978 77.7093 147.978 77.896ZM160.458 77.168C159.879 77.168 159.398 77.07 159.016 76.874C158.633 76.678 158.348 76.4167 158.162 76.09C157.975 75.7633 157.882 75.4087 157.882 75.026C157.882 74.3167 158.152 73.7707 158.694 73.388C159.235 73.0053 159.972 72.814 160.906 72.814H162.782V72.73C162.782 72.1233 162.623 71.666 162.306 71.358C161.988 71.0407 161.564 70.882 161.032 70.882C160.574 70.882 160.178 70.9987 159.842 71.232C159.515 71.456 159.31 71.7873 159.226 72.226H158.022C158.068 71.722 158.236 71.2973 158.526 70.952C158.824 70.6067 159.193 70.3453 159.632 70.168C160.07 69.9813 160.537 69.888 161.032 69.888C162.002 69.888 162.73 70.1493 163.216 70.672C163.71 71.1853 163.958 71.8713 163.958 72.73V77H162.908L162.838 75.754C162.642 76.146 162.352 76.482 161.97 76.762C161.596 77.0327 161.092 77.168 160.458 77.168ZM160.64 76.174C161.088 76.174 161.47 76.0573 161.788 75.824C162.114 75.5907 162.362 75.2873 162.53 74.914C162.698 74.5407 162.782 74.1487 162.782 73.738V73.724H161.004C160.313 73.724 159.823 73.8453 159.534 74.088C159.254 74.3213 159.114 74.6153 159.114 74.97C159.114 75.334 159.244 75.628 159.506 75.852C159.776 76.0667 160.154 76.174 160.64 76.174ZM168.895 77V67.2H170.645L173.963 73.724L177.267 67.2H179.017V77H177.533V69.762L174.537 75.6H173.389L170.379 69.776V77H168.895ZM183.92 77.168C183.239 77.168 182.632 77.0187 182.1 76.72C181.578 76.412 181.167 75.9873 180.868 75.446C180.57 74.9047 180.42 74.2747 180.42 73.556C180.42 72.828 180.565 72.1887 180.854 71.638C181.153 71.0873 181.564 70.658 182.086 70.35C182.618 70.042 183.234 69.888 183.934 69.888C184.616 69.888 185.208 70.042 185.712 70.35C186.216 70.6487 186.608 71.05 186.888 71.554C187.168 72.058 187.308 72.6133 187.308 73.22C187.308 73.3133 187.304 73.416 187.294 73.528C187.294 73.6307 187.29 73.7473 187.28 73.878H181.876C181.923 74.55 182.142 75.0633 182.534 75.418C182.936 75.7633 183.398 75.936 183.92 75.936C184.34 75.936 184.69 75.8427 184.97 75.656C185.26 75.46 185.474 75.1987 185.614 74.872H187.098C186.912 75.5253 186.538 76.0713 185.978 76.51C185.428 76.9487 184.742 77.168 183.92 77.168ZM183.92 71.106C183.426 71.106 182.987 71.2553 182.604 71.554C182.222 71.8433 181.988 72.282 181.904 72.87H185.824C185.796 72.3287 185.605 71.8993 185.25 71.582C184.896 71.2647 184.452 71.106 183.92 71.106ZM191.34 77.168C190.463 77.168 189.739 76.9533 189.17 76.524C188.601 76.0947 188.274 75.5253 188.19 74.816H189.688C189.763 75.1333 189.94 75.4087 190.22 75.642C190.5 75.866 190.869 75.978 191.326 75.978C191.774 75.978 192.101 75.8847 192.306 75.698C192.511 75.5113 192.614 75.2967 192.614 75.054C192.614 74.6993 192.469 74.4613 192.18 74.34C191.9 74.2093 191.508 74.0927 191.004 73.99C190.612 73.906 190.22 73.794 189.828 73.654C189.445 73.514 189.123 73.318 188.862 73.066C188.61 72.8047 188.484 72.4547 188.484 72.016C188.484 71.4093 188.717 70.9053 189.184 70.504C189.651 70.0933 190.304 69.888 191.144 69.888C191.919 69.888 192.544 70.0747 193.02 70.448C193.505 70.8213 193.79 71.3487 193.874 72.03H192.446C192.399 71.7313 192.259 71.498 192.026 71.33C191.802 71.162 191.499 71.078 191.116 71.078C190.743 71.078 190.453 71.1573 190.248 71.316C190.043 71.4653 189.94 71.6613 189.94 71.904C189.94 72.1467 190.08 72.338 190.36 72.478C190.649 72.618 191.027 72.744 191.494 72.856C191.961 72.9587 192.39 73.08 192.782 73.22C193.183 73.3507 193.505 73.5467 193.748 73.808C193.991 74.0693 194.112 74.452 194.112 74.956C194.121 75.5907 193.874 76.118 193.37 76.538C192.875 76.958 192.199 77.168 191.34 77.168ZM198.224 77.168C197.347 77.168 196.623 76.9533 196.054 76.524C195.485 76.0947 195.158 75.5253 195.074 74.816H196.572C196.647 75.1333 196.824 75.4087 197.104 75.642C197.384 75.866 197.753 75.978 198.21 75.978C198.658 75.978 198.985 75.8847 199.19 75.698C199.395 75.5113 199.498 75.2967 199.498 75.054C199.498 74.6993 199.353 74.4613 199.064 74.34C198.784 74.2093 198.392 74.0927 197.888 73.99C197.496 73.906 197.104 73.794 196.712 73.654C196.329 73.514 196.007 73.318 195.746 73.066C195.494 72.8047 195.368 72.4547 195.368 72.016C195.368 71.4093 195.601 70.9053 196.068 70.504C196.535 70.0933 197.188 69.888 198.028 69.888C198.803 69.888 199.428 70.0747 199.904 70.448C200.389 70.8213 200.674 71.3487 200.758 72.03H199.33C199.283 71.7313 199.143 71.498 198.91 71.33C198.686 71.162 198.383 71.078 198 71.078C197.627 71.078 197.337 71.1573 197.132 71.316C196.927 71.4653 196.824 71.6613 196.824 71.904C196.824 72.1467 196.964 72.338 197.244 72.478C197.533 72.618 197.911 72.744 198.378 72.856C198.845 72.9587 199.274 73.08 199.666 73.22C200.067 73.3507 200.389 73.5467 200.632 73.808C200.875 74.0693 200.996 74.452 200.996 74.956C201.005 75.5907 200.758 76.118 200.254 76.538C199.759 76.958 199.083 77.168 198.224 77.168ZM205.584 77.168C204.903 77.168 204.296 77.0187 203.764 76.72C203.242 76.412 202.831 75.9873 202.532 75.446C202.234 74.9047 202.084 74.2747 202.084 73.556C202.084 72.828 202.229 72.1887 202.518 71.638C202.817 71.0873 203.228 70.658 203.75 70.35C204.282 70.042 204.898 69.888 205.598 69.888C206.28 69.888 206.872 70.042 207.376 70.35C207.88 70.6487 208.272 71.05 208.552 71.554C208.832 72.058 208.972 72.6133 208.972 73.22C208.972 73.3133 208.968 73.416 208.958 73.528C208.958 73.6307 208.954 73.7473 208.944 73.878H203.54C203.587 74.55 203.806 75.0633 204.198 75.418C204.6 75.7633 205.062 75.936 205.584 75.936C206.004 75.936 206.354 75.8427 206.634 75.656C206.924 75.46 207.138 75.1987 207.278 74.872H208.762C208.576 75.5253 208.202 76.0713 207.642 76.51C207.092 76.9487 206.406 77.168 205.584 77.168ZM205.584 71.106C205.09 71.106 204.651 71.2553 204.268 71.554C203.886 71.8433 203.652 72.282 203.568 72.87H207.488C207.46 72.3287 207.269 71.8993 206.914 71.582C206.56 71.2647 206.116 71.106 205.584 71.106ZM210.232 77V70.056H211.548L211.66 71.274C211.875 70.8447 212.187 70.5087 212.598 70.266C213.018 70.014 213.499 69.888 214.04 69.888C214.88 69.888 215.538 70.1493 216.014 70.672C216.499 71.1947 216.742 71.974 216.742 73.01V77H215.272V73.164C215.272 71.82 214.721 71.148 213.62 71.148C213.069 71.148 212.612 71.344 212.248 71.736C211.893 72.128 211.716 72.688 211.716 73.416V77H210.232ZM221.052 74.872C220.688 74.872 220.352 74.83 220.044 74.746L219.442 75.334C219.544 75.3993 219.67 75.4553 219.82 75.502C219.969 75.5487 220.179 75.5907 220.45 75.628C220.72 75.6653 221.089 75.7027 221.556 75.74C222.48 75.824 223.147 76.048 223.558 76.412C223.968 76.7667 224.174 77.2427 224.174 77.84C224.174 78.2507 224.062 78.638 223.838 79.002C223.623 79.3753 223.282 79.674 222.816 79.898C222.358 80.1313 221.77 80.248 221.052 80.248C220.081 80.248 219.292 80.0613 218.686 79.688C218.088 79.324 217.79 78.7687 217.79 78.022C217.79 77.7327 217.864 77.4433 218.014 77.154C218.172 76.874 218.42 76.608 218.756 76.356C218.56 76.272 218.387 76.1833 218.238 76.09C218.098 75.9873 217.972 75.8847 217.86 75.782V75.446L219.064 74.214C218.522 73.7473 218.252 73.136 218.252 72.38C218.252 71.9227 218.359 71.5073 218.574 71.134C218.798 70.7513 219.12 70.448 219.54 70.224C219.96 70 220.464 69.888 221.052 69.888C221.444 69.888 221.808 69.944 222.144 70.056H224.734V71.036L223.502 71.106C223.726 71.4887 223.838 71.9133 223.838 72.38C223.838 72.8467 223.726 73.2667 223.502 73.64C223.287 74.0133 222.97 74.312 222.55 74.536C222.139 74.76 221.64 74.872 221.052 74.872ZM221.052 73.71C221.481 73.71 221.826 73.598 222.088 73.374C222.358 73.1407 222.494 72.814 222.494 72.394C222.494 71.9647 222.358 71.638 222.088 71.414C221.826 71.19 221.481 71.078 221.052 71.078C220.613 71.078 220.258 71.19 219.988 71.414C219.726 71.638 219.596 71.9647 219.596 72.394C219.596 72.814 219.726 73.1407 219.988 73.374C220.258 73.598 220.613 73.71 221.052 73.71ZM219.19 77.882C219.19 78.2833 219.367 78.582 219.722 78.778C220.076 78.9833 220.52 79.086 221.052 79.086C221.565 79.086 221.98 78.974 222.298 78.75C222.615 78.5353 222.774 78.246 222.774 77.882C222.774 77.6113 222.666 77.378 222.452 77.182C222.237 76.9953 221.831 76.8787 221.234 76.832C220.786 76.804 220.389 76.762 220.044 76.706C219.717 76.8833 219.493 77.0747 219.372 77.28C219.25 77.4853 219.19 77.686 219.19 77.882ZM228.752 77.168C228.071 77.168 227.464 77.0187 226.932 76.72C226.409 76.412 225.999 75.9873 225.7 75.446C225.401 74.9047 225.252 74.2747 225.252 73.556C225.252 72.828 225.397 72.1887 225.686 71.638C225.985 71.0873 226.395 70.658 226.918 70.35C227.45 70.042 228.066 69.888 228.766 69.888C229.447 69.888 230.04 70.042 230.544 70.35C231.048 70.6487 231.44 71.05 231.72 71.554C232 72.058 232.14 72.6133 232.14 73.22C232.14 73.3133 232.135 73.416 232.126 73.528C232.126 73.6307 232.121 73.7473 232.112 73.878H226.708C226.755 74.55 226.974 75.0633 227.366 75.418C227.767 75.7633 228.229 75.936 228.752 75.936C229.172 75.936 229.522 75.8427 229.802 75.656C230.091 75.46 230.306 75.1987 230.446 74.872H231.93C231.743 75.5253 231.37 76.0713 230.81 76.51C230.259 76.9487 229.573 77.168 228.752 77.168ZM228.752 71.106C228.257 71.106 227.819 71.2553 227.436 71.554C227.053 71.8433 226.82 72.282 226.736 72.87H230.656C230.628 72.3287 230.437 71.8993 230.082 71.582C229.727 71.2647 229.284 71.106 228.752 71.106ZM233.4 77V70.056H234.73L234.856 71.372C235.098 70.9147 235.434 70.5553 235.864 70.294C236.302 70.0233 236.83 69.888 237.446 69.888V71.442H237.04C236.629 71.442 236.26 71.512 235.934 71.652C235.616 71.7827 235.36 72.0113 235.164 72.338C234.977 72.6553 234.884 73.0987 234.884 73.668V77H233.4ZM244.201 77.168C243.623 77.168 243.142 77.07 242.759 76.874C242.377 76.678 242.092 76.4167 241.905 76.09C241.719 75.7633 241.625 75.4087 241.625 75.026C241.625 74.3167 241.896 73.7707 242.437 73.388C242.979 73.0053 243.716 72.814 244.649 72.814H246.525V72.73C246.525 72.1233 246.367 71.666 246.049 71.358C245.732 71.0407 245.307 70.882 244.775 70.882C244.318 70.882 243.921 70.9987 243.585 71.232C243.259 71.456 243.053 71.7873 242.969 72.226H241.765C241.812 71.722 241.98 71.2973 242.269 70.952C242.568 70.6067 242.937 70.3453 243.375 70.168C243.814 69.9813 244.281 69.888 244.775 69.888C245.746 69.888 246.474 70.1493 246.959 70.672C247.454 71.1853 247.701 71.8713 247.701 72.73V77H246.651L246.581 75.754C246.385 76.146 246.096 76.482 245.713 76.762C245.34 77.0327 244.836 77.168 244.201 77.168ZM244.383 76.174C244.831 76.174 245.214 76.0573 245.531 75.824C245.858 75.5907 246.105 75.2873 246.273 74.914C246.441 74.5407 246.525 74.1487 246.525 73.738V73.724H244.747C244.057 73.724 243.567 73.8453 243.277 74.088C242.997 74.3213 242.857 74.6153 242.857 74.97C242.857 75.334 242.988 75.628 243.249 75.852C243.52 76.0667 243.898 76.174 244.383 76.174ZM252.377 77.168C251.715 77.168 251.117 77.0187 250.585 76.72C250.063 76.412 249.647 75.9873 249.339 75.446C249.041 74.8953 248.891 74.256 248.891 73.528C248.891 72.8 249.041 72.1653 249.339 71.624C249.647 71.0733 250.063 70.6487 250.585 70.35C251.117 70.042 251.715 69.888 252.377 69.888C253.199 69.888 253.889 70.1027 254.449 70.532C255.019 70.9613 255.378 71.5353 255.527 72.254H254.323C254.23 71.8247 254.001 71.4933 253.637 71.26C253.273 71.0173 252.849 70.896 252.363 70.896C251.971 70.896 251.603 70.994 251.257 71.19C250.912 71.386 250.632 71.68 250.417 72.072C250.203 72.464 250.095 72.9493 250.095 73.528C250.095 74.1067 250.203 74.592 250.417 74.984C250.632 75.376 250.912 75.6747 251.257 75.88C251.603 76.076 251.971 76.174 252.363 76.174C252.849 76.174 253.273 76.0573 253.637 75.824C254.001 75.5813 254.23 75.2407 254.323 74.802H255.527C255.387 75.502 255.033 76.0713 254.463 76.51C253.894 76.9487 253.199 77.168 252.377 77.168ZM260.082 77.168C259.419 77.168 258.822 77.0187 258.29 76.72C257.767 76.412 257.352 75.9873 257.044 75.446C256.745 74.8953 256.596 74.256 256.596 73.528C256.596 72.8 256.745 72.1653 257.044 71.624C257.352 71.0733 257.767 70.6487 258.29 70.35C258.822 70.042 259.419 69.888 260.082 69.888C260.903 69.888 261.594 70.1027 262.154 70.532C262.723 70.9613 263.082 71.5353 263.232 72.254H262.028C261.934 71.8247 261.706 71.4933 261.342 71.26C260.978 71.0173 260.553 70.896 260.068 70.896C259.676 70.896 259.307 70.994 258.962 71.19C258.616 71.386 258.336 71.68 258.122 72.072C257.907 72.464 257.8 72.9493 257.8 73.528C257.8 74.1067 257.907 74.592 258.122 74.984C258.336 75.376 258.616 75.6747 258.962 75.88C259.307 76.076 259.676 76.174 260.068 76.174C260.553 76.174 260.978 76.0573 261.342 75.824C261.706 75.5813 261.934 75.2407 262.028 74.802H263.232C263.092 75.502 262.737 76.0713 262.168 76.51C261.598 76.9487 260.903 77.168 260.082 77.168ZM267.758 77.168C267.105 77.168 266.517 77.0187 265.994 76.72C265.472 76.4213 265.056 76.0013 264.748 75.46C264.45 74.9093 264.3 74.2653 264.3 73.528C264.3 72.7907 264.454 72.1513 264.762 71.61C265.07 71.0593 265.486 70.6347 266.008 70.336C266.54 70.0373 267.133 69.888 267.786 69.888C268.44 69.888 269.028 70.0373 269.55 70.336C270.073 70.6347 270.484 71.0593 270.782 71.61C271.09 72.1513 271.244 72.7907 271.244 73.528C271.244 74.2653 271.09 74.9093 270.782 75.46C270.474 76.0013 270.054 76.4213 269.522 76.72C269 77.0187 268.412 77.168 267.758 77.168ZM267.758 76.16C268.16 76.16 268.533 76.062 268.878 75.866C269.224 75.67 269.504 75.376 269.718 74.984C269.933 74.592 270.04 74.1067 270.04 73.528C270.04 72.9493 269.933 72.464 269.718 72.072C269.513 71.68 269.238 71.386 268.892 71.19C268.547 70.994 268.178 70.896 267.786 70.896C267.385 70.896 267.012 70.994 266.666 71.19C266.321 71.386 266.041 71.68 265.826 72.072C265.612 72.464 265.504 72.9493 265.504 73.528C265.504 74.1067 265.612 74.592 265.826 74.984C266.041 75.376 266.316 75.67 266.652 75.866C266.998 76.062 267.366 76.16 267.758 76.16ZM275.133 77.168C274.312 77.168 273.659 76.9207 273.173 76.426C272.688 75.922 272.445 75.152 272.445 74.116V70.056H273.621V73.99C273.621 75.4367 274.214 76.16 275.399 76.16C276.006 76.16 276.505 75.9453 276.897 75.516C277.299 75.0773 277.499 74.4567 277.499 73.654V70.056H278.675V77H277.611L277.527 75.754C277.313 76.1927 276.991 76.538 276.561 76.79C276.141 77.042 275.665 77.168 275.133 77.168ZM280.331 77V70.056H281.395L281.465 71.302C281.689 70.8633 282.011 70.518 282.431 70.266C282.851 70.014 283.327 69.888 283.859 69.888C284.68 69.888 285.334 70.14 285.819 70.644C286.314 71.1387 286.561 71.904 286.561 72.94V77H285.385V73.066C285.385 71.6193 284.788 70.896 283.593 70.896C282.996 70.896 282.496 71.1153 282.095 71.554C281.703 71.9833 281.507 72.5993 281.507 73.402V77H280.331ZM290.807 77C290.172 77 289.673 76.846 289.309 76.538C288.945 76.23 288.763 75.6747 288.763 74.872V71.05H287.559V70.056H288.763L288.917 68.39H289.939V70.056H291.983V71.05H289.939V74.872C289.939 75.3107 290.027 75.6093 290.205 75.768C290.382 75.9173 290.695 75.992 291.143 75.992H291.871V77H290.807Z" fill="black"/>
<circle cx="351" cy="73" r="4" fill="#FF874E"/>
<rect x="12.5" y="43.5" width="59" height="59" rx="13.5" fill="white" stroke="#D3D7DB"/>
<path d="M29.4433 52.9506C25.8001 55.1866 23.587 57.2112 24.3331 62.4333C25.0873 67.7122 25.8474 66.7085 28.393 71.3913C30.9386 76.0741 26.9846 75.925 29.4121 84.3646C31.7598 92.5266 39.3692 94.7054 51.5005 91.5564C63.6318 88.4074 64.5567 78.3373 59.4259 69.6675C55.5778 63.1652 56.0037 62.9999 48.1859 57.1593C38.6553 50.0391 34.655 49.7518 29.4433 52.9506Z" fill="#EAE0FF"/>
<path d="M55.2264 84.0608C55.8128 86.532 54.4952 86.6387 54.4952 86.6387L43.0659 91.6625C41.9768 92.2212 41.4182 92.5159 40.0473 92.0054C39.1334 91.665 38.7424 90.5653 38.2753 89.7094C36.8206 87.0451 30.5373 69.6549 28.4301 63.821C28.1636 63.0819 27.8995 62.2412 28.2448 61.5351C28.5647 60.8824 29.2984 60.5624 29.9762 60.2957L38.4149 56.9685C38.7069 56.9711 38.9125 57.5019 38.4657 57.7203C37.138 58.3705 34.3707 59.549 34.5256 60.1382C34.815 61.2431 38.2321 59.7877 39.2654 58.3705C39.8087 57.6289 39.9305 56.4199 40.7632 56.0314C41.7305 55.5793 42.6064 54.7335 43.4314 54.8605C44.4622 55.018 45.5056 57.3317 46.2164 59.3153C49.0674 67.2726 52.4718 75.0952 55.1172 83.1211C55.2187 83.4259 55.3177 83.7535 55.2289 84.0608C55.1223 84.4291 54.7745 84.6653 54.4444 84.8634C52.4566 86.0596 50.3012 86.9765 48.0595 87.5759C47.4452 87.741 46.0844 87.9493 46.0844 86.8622C46.0844 86.273 46.6556 85.5796 47.2192 85.4044C48.2144 85.092 49.0319 85.6863 49.0319 86.3162C49.0319 87.0375 49.0953 87.3829 48.4403 87.6851C46.2799 88.6807 44.8354 89.2192 42.6749 90.2148C42.2738 90.4002 41.4106 90.7812 40.9765 90.7177C39.9889 90.5729 39.895 89.9227 39.532 89.2065C36.7521 83.7535 30.8521 67.077 30.5347 64.3239L42.4642 58.4721C42.8729 58.2715 43.3299 58.0658 43.7691 58.1826C44.2692 58.3147 44.6069 58.7921 44.8125 59.2671C47.8666 66.3278 50.5475 73.6475 52.84 80.9241C52.9644 81.3178 53.0126 81.7597 52.8527 82.1382C52.6394 82.6461 52.0682 82.8849 51.5528 83.0779C46.2444 85.0412 42.4637 86.5826 37.1247 88.4621" stroke="#1F3758" stroke-miterlimit="10" stroke-linecap="round" stroke-linejoin="round"/>
</svg>
