<svg width="74" height="29" viewBox="0 0 74 29" fill="none" xmlns="http://www.w3.org/2000/svg">
<rect x="0.5" y="0.5" width="73" height="28" rx="14" fill="white" stroke="#D3D7DB"/>
<path d="M17.5 10.125V18.875" stroke="black" stroke-linecap="round" stroke-linejoin="round"/>
<path d="M13.125 14.5H21.875" stroke="black" stroke-linecap="round" stroke-linejoin="round"/>
<path d="M31.3639 19V9.2H32.5399L37.7619 17.054V9.2H38.9379V19H37.7619L32.5399 11.146V19H31.3639ZM43.7882 19.168C43.1255 19.168 42.5375 19.0187 42.0242 18.72C41.5109 18.412 41.1049 17.9873 40.8062 17.446C40.5169 16.9047 40.3722 16.2653 40.3722 15.528C40.3722 14.8 40.5169 14.1653 40.8062 13.624C41.0955 13.0733 41.4969 12.6487 42.0102 12.35C42.5329 12.042 43.1349 11.888 43.8162 11.888C44.4882 11.888 45.0669 12.042 45.5522 12.35C46.0469 12.6487 46.4249 13.0453 46.6862 13.54C46.9475 14.0347 47.0782 14.5667 47.0782 15.136C47.0782 15.2387 47.0735 15.3413 47.0642 15.444C47.0642 15.5467 47.0642 15.6633 47.0642 15.794H41.5342C41.5622 16.326 41.6835 16.7693 41.8982 17.124C42.1222 17.4693 42.3975 17.7307 42.7242 17.908C43.0602 18.0853 43.4149 18.174 43.7882 18.174C44.2735 18.174 44.6795 18.062 45.0062 17.838C45.3329 17.614 45.5709 17.3107 45.7202 16.928H46.8822C46.6955 17.572 46.3362 18.1087 45.8042 18.538C45.2815 18.958 44.6095 19.168 43.7882 19.168ZM43.7882 12.882C43.2282 12.882 42.7289 13.0547 42.2902 13.4C41.8609 13.736 41.6135 14.2307 41.5482 14.884H45.9162C45.8882 14.2587 45.6735 13.7687 45.2722 13.414C44.8709 13.0593 44.3762 12.882 43.7882 12.882ZM49.4835 19L47.4535 12.056H48.6295L50.0995 17.502L51.7235 12.056H53.0535L54.6915 17.502L56.1475 12.056H57.3375L55.3075 19H54.1035L52.3955 13.274L50.6875 19H49.4835Z" fill="black"/>
</svg>
