<svg width="120" height="29" viewBox="0 0 120 29" fill="none" xmlns="http://www.w3.org/2000/svg">
<rect x="0.5" y="0.5" width="119" height="28" rx="14" fill="white" stroke="#D3D7DB"/>
<path d="M28.42 19L32.032 9.2H33.278L36.876 19H35.63L34.734 16.48H30.562L29.652 19H28.42ZM30.912 15.528H34.384L32.648 10.684L30.912 15.528ZM37.9829 19V8.92H39.1589V19H37.9829ZM40.8064 19V8.92H41.9824V19H40.8064ZM47.055 22.08V12.056H48.119L48.231 13.204C48.455 12.868 48.7723 12.5647 49.183 12.294C49.603 12.0233 50.135 11.888 50.779 11.888C51.4697 11.888 52.0717 12.0467 52.585 12.364C53.0983 12.6813 53.495 13.1153 53.775 13.666C54.0643 14.2167 54.209 14.842 54.209 15.542C54.209 16.242 54.0643 16.8673 53.775 17.418C53.495 17.9593 53.0937 18.3887 52.571 18.706C52.0577 19.014 51.4557 19.168 50.765 19.168C50.1957 19.168 49.687 19.0513 49.239 18.818C48.8003 18.5847 48.4643 18.258 48.231 17.838V22.08H47.055ZM50.639 18.146C51.1057 18.146 51.5163 18.0387 51.871 17.824C52.2257 17.6 52.5057 17.292 52.711 16.9C52.9163 16.508 53.019 16.0507 53.019 15.528C53.019 15.0053 52.9163 14.548 52.711 14.156C52.5057 13.764 52.2257 13.4607 51.871 13.246C51.5163 13.022 51.1057 12.91 50.639 12.91C50.1723 12.91 49.7617 13.022 49.407 13.246C49.0523 13.4607 48.7723 13.764 48.567 14.156C48.3617 14.548 48.259 15.0053 48.259 15.528C48.259 16.0507 48.3617 16.508 48.567 16.9C48.7723 17.292 49.0523 17.6 49.407 17.824C49.7617 18.0387 50.1723 18.146 50.639 18.146ZM55.566 19V8.92H56.742V19H55.566ZM60.6995 19.168C60.1208 19.168 59.6402 19.07 59.2575 18.874C58.8748 18.678 58.5902 18.4167 58.4035 18.09C58.2168 17.7633 58.1235 17.4087 58.1235 17.026C58.1235 16.3167 58.3942 15.7707 58.9355 15.388C59.4768 15.0053 60.2142 14.814 61.1475 14.814H63.0235V14.73C63.0235 14.1233 62.8648 13.666 62.5475 13.358C62.2302 13.0407 61.8055 12.882 61.2735 12.882C60.8162 12.882 60.4195 12.9987 60.0835 13.232C59.7568 13.456 59.5515 13.7873 59.4675 14.226H58.2635C58.3102 13.722 58.4782 13.2973 58.7675 12.952C59.0662 12.6067 59.4348 12.3453 59.8735 12.168C60.3122 11.9813 60.7788 11.888 61.2735 11.888C62.2442 11.888 62.9722 12.1493 63.4575 12.672C63.9522 13.1853 64.1995 13.8713 64.1995 14.73V19H63.1495L63.0795 17.754C62.8835 18.146 62.5942 18.482 62.2115 18.762C61.8382 19.0327 61.3342 19.168 60.6995 19.168ZM60.8815 18.174C61.3295 18.174 61.7122 18.0573 62.0295 17.824C62.3562 17.5907 62.6035 17.2873 62.7715 16.914C62.9395 16.5407 63.0235 16.1487 63.0235 15.738V15.724H61.2455C60.5548 15.724 60.0648 15.8453 59.7755 16.088C59.4955 16.3213 59.3555 16.6153 59.3555 16.97C59.3555 17.334 59.4862 17.628 59.7475 17.852C60.0182 18.0667 60.3962 18.174 60.8815 18.174ZM68.2363 19C67.6017 19 67.1023 18.846 66.7383 18.538C66.3743 18.23 66.1923 17.6747 66.1923 16.872V13.05H64.9883V12.056H66.1923L66.3463 10.39H67.3683V12.056H69.4123V13.05H67.3683V16.872C67.3683 17.3107 67.457 17.6093 67.6343 17.768C67.8117 17.9173 68.1243 17.992 68.5723 17.992H69.3003V19H68.2363ZM71.0044 19V13.05H69.9544V12.056H71.0044V10.852C71.0044 10.18 71.1724 9.69 71.5084 9.382C71.8444 9.074 72.3344 8.92 72.9784 8.92H73.6784V9.928H73.1604C72.8057 9.928 72.5537 10.0027 72.4044 10.152C72.2551 10.292 72.1804 10.5347 72.1804 10.88V12.056H73.8884V13.05H72.1804V19H71.0044ZM77.8991 19.168C77.2457 19.168 76.6577 19.0187 76.1351 18.72C75.6124 18.4213 75.1971 18.0013 74.8891 17.46C74.5904 16.9093 74.4411 16.2653 74.4411 15.528C74.4411 14.7907 74.5951 14.1513 74.9031 13.61C75.2111 13.0593 75.6264 12.6347 76.1491 12.336C76.6811 12.0373 77.2737 11.888 77.9271 11.888C78.5804 11.888 79.1684 12.0373 79.6911 12.336C80.2137 12.6347 80.6244 13.0593 80.9231 13.61C81.2311 14.1513 81.3851 14.7907 81.3851 15.528C81.3851 16.2653 81.2311 16.9093 80.9231 17.46C80.6151 18.0013 80.1951 18.4213 79.6631 18.72C79.1404 19.0187 78.5524 19.168 77.8991 19.168ZM77.8991 18.16C78.3004 18.16 78.6737 18.062 79.0191 17.866C79.3644 17.67 79.6444 17.376 79.8591 16.984C80.0737 16.592 80.1811 16.1067 80.1811 15.528C80.1811 14.9493 80.0737 14.464 79.8591 14.072C79.6537 13.68 79.3784 13.386 79.0331 13.19C78.6877 12.994 78.3191 12.896 77.9271 12.896C77.5257 12.896 77.1524 12.994 76.8071 13.19C76.4617 13.386 76.1817 13.68 75.9671 14.072C75.7524 14.464 75.6451 14.9493 75.6451 15.528C75.6451 16.1067 75.7524 16.592 75.9671 16.984C76.1817 17.376 76.4571 17.67 76.7931 17.866C77.1384 18.062 77.5071 18.16 77.8991 18.16ZM82.7402 19V12.056H83.8042L83.9022 13.386C84.1169 12.9287 84.4436 12.5647 84.8822 12.294C85.3209 12.0233 85.8622 11.888 86.5062 11.888V13.12H86.1842C85.7736 13.12 85.3956 13.1947 85.0502 13.344C84.7049 13.484 84.4296 13.7267 84.2242 14.072C84.0189 14.4173 83.9162 14.8933 83.9162 15.5V19H82.7402ZM87.5462 19V12.056H88.6102L88.6942 13.064C88.9182 12.6907 89.2168 12.4013 89.5902 12.196C89.9635 11.9907 90.3835 11.888 90.8502 11.888C91.4008 11.888 91.8722 12 92.2642 12.224C92.6655 12.448 92.9735 12.7887 93.1882 13.246C93.4308 12.826 93.7622 12.4947 94.1822 12.252C94.6115 12.0093 95.0735 11.888 95.5682 11.888C96.3988 11.888 97.0615 12.14 97.5562 12.644C98.0508 13.1387 98.2982 13.904 98.2982 14.94V19H97.1362V15.066C97.1362 14.3473 96.9915 13.806 96.7022 13.442C96.4128 13.078 95.9975 12.896 95.4562 12.896C94.8962 12.896 94.4295 13.1153 94.0562 13.554C93.6922 13.9833 93.5102 14.5993 93.5102 15.402V19H92.3342V15.066C92.3342 14.3473 92.1895 13.806 91.9002 13.442C91.6108 13.078 91.1955 12.896 90.6542 12.896C90.1035 12.896 89.6415 13.1153 89.2682 13.554C88.9042 13.9833 88.7222 14.5993 88.7222 15.402V19H87.5462ZM102.45 19.168C101.619 19.168 100.928 18.958 100.378 18.538C99.8269 18.118 99.5049 17.5487 99.4116 16.83H100.616C100.69 17.194 100.882 17.5113 101.19 17.782C101.507 18.0433 101.932 18.174 102.464 18.174C102.958 18.174 103.322 18.0713 103.556 17.866C103.789 17.6513 103.906 17.3993 103.906 17.11C103.906 16.69 103.752 16.41 103.444 16.27C103.145 16.13 102.72 16.004 102.17 15.892C101.796 15.8173 101.423 15.71 101.05 15.57C100.676 15.43 100.364 15.234 100.112 14.982C99.8596 14.7207 99.7336 14.38 99.7336 13.96C99.7336 13.3533 99.9576 12.8587 100.406 12.476C100.863 12.084 101.479 11.888 102.254 11.888C102.991 11.888 103.593 12.0747 104.06 12.448C104.536 12.812 104.811 13.3347 104.886 14.016H103.724C103.677 13.6613 103.523 13.386 103.262 13.19C103.01 12.9847 102.669 12.882 102.24 12.882C101.82 12.882 101.493 12.9707 101.26 13.148C101.036 13.3253 100.924 13.5587 100.924 13.848C100.924 14.128 101.068 14.3473 101.358 14.506C101.656 14.6647 102.058 14.8 102.562 14.912C102.991 15.0053 103.397 15.122 103.78 15.262C104.172 15.3927 104.489 15.5933 104.732 15.864C104.984 16.1253 105.11 16.508 105.11 17.012C105.119 17.6373 104.881 18.1553 104.396 18.566C103.92 18.9673 103.271 19.168 102.45 19.168Z" fill="black"/>
<path d="M13.25 12.875L16.5 16.125L19.75 12.875" stroke="black" stroke-width="1.08333" stroke-linecap="round" stroke-linejoin="round"/>
</svg>
