<svg width="101" height="29" viewBox="0 0 101 29" fill="none" xmlns="http://www.w3.org/2000/svg">
<rect x="0.5" y="0.5" width="100" height="28" rx="14" fill="white" stroke="#D3D7DB"/>
<path d="M29.036 19V9.2H32.2C32.9653 9.2 33.5907 9.326 34.076 9.578C34.5613 9.83 34.9207 10.1753 35.154 10.614C35.3873 11.0527 35.504 11.538 35.504 12.07C35.504 12.686 35.336 13.2413 35 13.736C34.6733 14.2307 34.16 14.5807 33.46 14.786L35.602 19H34.216L32.228 14.954H32.144H30.212V19H29.036ZM30.212 14.03H32.116C32.872 14.03 33.4227 13.848 33.768 13.484C34.1133 13.12 34.286 12.6533 34.286 12.084C34.286 11.5053 34.1133 11.048 33.768 10.712C33.432 10.3667 32.8767 10.194 32.102 10.194H30.212V14.03ZM39.683 19.168C39.0203 19.168 38.4323 19.0187 37.919 18.72C37.4057 18.412 36.9997 17.9873 36.701 17.446C36.4117 16.9047 36.267 16.2653 36.267 15.528C36.267 14.8 36.4117 14.1653 36.701 13.624C36.9903 13.0733 37.3917 12.6487 37.905 12.35C38.4277 12.042 39.0297 11.888 39.711 11.888C40.383 11.888 40.9617 12.042 41.447 12.35C41.9417 12.6487 42.3197 13.0453 42.581 13.54C42.8423 14.0347 42.973 14.5667 42.973 15.136C42.973 15.2387 42.9683 15.3413 42.959 15.444C42.959 15.5467 42.959 15.6633 42.959 15.794H37.429C37.457 16.326 37.5783 16.7693 37.793 17.124C38.017 17.4693 38.2923 17.7307 38.619 17.908C38.955 18.0853 39.3097 18.174 39.683 18.174C40.1683 18.174 40.5743 18.062 40.901 17.838C41.2277 17.614 41.4657 17.3107 41.615 16.928H42.777C42.5903 17.572 42.231 18.1087 41.699 18.538C41.1763 18.958 40.5043 19.168 39.683 19.168ZM39.683 12.882C39.123 12.882 38.6237 13.0547 38.185 13.4C37.7557 13.736 37.5083 14.2307 37.443 14.884H41.811C41.783 14.2587 41.5683 13.7687 41.167 13.414C40.7657 13.0593 40.271 12.882 39.683 12.882ZM47.4437 19.168C46.781 19.168 46.1837 19.0187 45.6517 18.72C45.129 18.412 44.7137 17.9873 44.4057 17.446C44.107 16.8953 43.9577 16.256 43.9577 15.528C43.9577 14.8 44.107 14.1653 44.4057 13.624C44.7137 13.0733 45.129 12.6487 45.6517 12.35C46.1837 12.042 46.781 11.888 47.4437 11.888C48.265 11.888 48.9557 12.1027 49.5157 12.532C50.085 12.9613 50.4444 13.5353 50.5937 14.254H49.3897C49.2964 13.8247 49.0677 13.4933 48.7037 13.26C48.3397 13.0173 47.915 12.896 47.4297 12.896C47.0377 12.896 46.669 12.994 46.3237 13.19C45.9784 13.386 45.6984 13.68 45.4837 14.072C45.269 14.464 45.1617 14.9493 45.1617 15.528C45.1617 16.1067 45.269 16.592 45.4837 16.984C45.6984 17.376 45.9784 17.6747 46.3237 17.88C46.669 18.076 47.0377 18.174 47.4297 18.174C47.915 18.174 48.3397 18.0573 48.7037 17.824C49.0677 17.5813 49.2964 17.2407 49.3897 16.802H50.5937C50.4537 17.502 50.099 18.0713 49.5297 18.51C48.9604 18.9487 48.265 19.168 47.4437 19.168ZM55.0781 19.168C54.4154 19.168 53.8274 19.0187 53.3141 18.72C52.8007 18.412 52.3947 17.9873 52.0961 17.446C51.8067 16.9047 51.6621 16.2653 51.6621 15.528C51.6621 14.8 51.8067 14.1653 52.0961 13.624C52.3854 13.0733 52.7867 12.6487 53.3001 12.35C53.8227 12.042 54.4247 11.888 55.1061 11.888C55.7781 11.888 56.3567 12.042 56.8421 12.35C57.3367 12.6487 57.7147 13.0453 57.9761 13.54C58.2374 14.0347 58.3681 14.5667 58.3681 15.136C58.3681 15.2387 58.3634 15.3413 58.3541 15.444C58.3541 15.5467 58.3541 15.6633 58.3541 15.794H52.8241C52.8521 16.326 52.9734 16.7693 53.1881 17.124C53.4121 17.4693 53.6874 17.7307 54.0141 17.908C54.3501 18.0853 54.7047 18.174 55.0781 18.174C55.5634 18.174 55.9694 18.062 56.2961 17.838C56.6227 17.614 56.8607 17.3107 57.0101 16.928H58.1721C57.9854 17.572 57.6261 18.1087 57.0941 18.538C56.5714 18.958 55.8994 19.168 55.0781 19.168ZM55.0781 12.882C54.5181 12.882 54.0187 13.0547 53.5801 13.4C53.1507 13.736 52.9034 14.2307 52.8381 14.884H57.2061C57.1781 14.2587 56.9634 13.7687 56.5621 13.414C56.1607 13.0593 55.6661 12.882 55.0781 12.882ZM60.3608 10.516C60.1274 10.516 59.9314 10.4413 59.7728 10.292C59.6234 10.1333 59.5488 9.93733 59.5488 9.704C59.5488 9.48 59.6234 9.29333 59.7728 9.144C59.9314 8.99467 60.1274 8.92 60.3608 8.92C60.5848 8.92 60.7761 8.99467 60.9348 9.144C61.0934 9.29333 61.1728 9.48 61.1728 9.704C61.1728 9.93733 61.0934 10.1333 60.9348 10.292C60.7761 10.4413 60.5848 10.516 60.3608 10.516ZM59.7728 19V12.056H60.9488V19H59.7728ZM64.7184 19L62.0864 12.056H63.3184L65.4044 17.866L67.5044 12.056H68.7084L66.0764 19H64.7184ZM72.5037 19.168C71.841 19.168 71.253 19.0187 70.7397 18.72C70.2264 18.412 69.8204 17.9873 69.5217 17.446C69.2324 16.9047 69.0877 16.2653 69.0877 15.528C69.0877 14.8 69.2324 14.1653 69.5217 13.624C69.811 13.0733 70.2124 12.6487 70.7257 12.35C71.2484 12.042 71.8504 11.888 72.5317 11.888C73.2037 11.888 73.7824 12.042 74.2677 12.35C74.7624 12.6487 75.1404 13.0453 75.4017 13.54C75.663 14.0347 75.7937 14.5667 75.7937 15.136C75.7937 15.2387 75.789 15.3413 75.7797 15.444C75.7797 15.5467 75.7797 15.6633 75.7797 15.794H70.2497C70.2777 16.326 70.399 16.7693 70.6137 17.124C70.8377 17.4693 71.113 17.7307 71.4397 17.908C71.7757 18.0853 72.1304 18.174 72.5037 18.174C72.989 18.174 73.395 18.062 73.7217 17.838C74.0484 17.614 74.2864 17.3107 74.4357 16.928H75.5977C75.411 17.572 75.0517 18.1087 74.5197 18.538C73.997 18.958 73.325 19.168 72.5037 19.168ZM72.5037 12.882C71.9437 12.882 71.4444 13.0547 71.0057 13.4C70.5764 13.736 70.329 14.2307 70.2637 14.884H74.6317C74.6037 14.2587 74.389 13.7687 73.9877 13.414C73.5864 13.0593 73.0917 12.882 72.5037 12.882ZM80.2224 19.168C79.5317 19.168 78.9251 19.0093 78.4024 18.692C77.8891 18.3747 77.4877 17.9407 77.1984 17.39C76.9184 16.8393 76.7784 16.214 76.7784 15.514C76.7784 14.814 76.9231 14.1933 77.2124 13.652C77.5017 13.1013 77.9031 12.672 78.4164 12.364C78.9297 12.0467 79.5364 11.888 80.2364 11.888C80.8057 11.888 81.3097 12.0047 81.7484 12.238C82.1871 12.4713 82.5277 12.798 82.7704 13.218V8.92H83.9464V19H82.8824L82.7704 17.852C82.5464 18.188 82.2244 18.4913 81.8044 18.762C81.3844 19.0327 80.8571 19.168 80.2224 19.168ZM80.3484 18.146C80.8151 18.146 81.2257 18.0387 81.5804 17.824C81.9444 17.6 82.2244 17.292 82.4204 16.9C82.6257 16.508 82.7284 16.0507 82.7284 15.528C82.7284 15.0053 82.6257 14.548 82.4204 14.156C82.2244 13.764 81.9444 13.4607 81.5804 13.246C81.2257 13.022 80.8151 12.91 80.3484 12.91C79.8911 12.91 79.4804 13.022 79.1164 13.246C78.7617 13.4607 78.4817 13.764 78.2764 14.156C78.0804 14.548 77.9824 15.0053 77.9824 15.528C77.9824 16.0507 78.0804 16.508 78.2764 16.9C78.4817 17.292 78.7617 17.6 79.1164 17.824C79.4804 18.0387 79.8911 18.146 80.3484 18.146Z" fill="black"/>
<path d="M13.25 12.875L16.5 16.125L19.75 12.875" stroke="black" stroke-width="1.08333" stroke-linecap="round" stroke-linejoin="round"/>
</svg>
