<svg width="116" height="29" viewBox="0 0 116 29" fill="none" xmlns="http://www.w3.org/2000/svg">
<rect x="0.5" y="0.5" width="115" height="28" rx="14" fill="white" stroke="#D3D7DB"/>
<path d="M28.42 19L32.032 9.2H33.278L36.876 19H35.63L34.734 16.48H30.562L29.652 19H28.42ZM30.912 15.528H34.384L32.648 10.684L30.912 15.528ZM37.9829 19V8.92H39.1589V19H37.9829ZM40.8064 19V8.92H41.9824V19H40.8064ZM50.247 19.168C49.5843 19.168 48.987 19.0187 48.455 18.72C47.9323 18.412 47.517 17.9873 47.209 17.446C46.9103 16.8953 46.761 16.256 46.761 15.528C46.761 14.8 46.9103 14.1653 47.209 13.624C47.517 13.0733 47.9323 12.6487 48.455 12.35C48.987 12.042 49.5843 11.888 50.247 11.888C51.0683 11.888 51.759 12.1027 52.319 12.532C52.8883 12.9613 53.2477 13.5353 53.397 14.254H52.193C52.0997 13.8247 51.871 13.4933 51.507 13.26C51.143 13.0173 50.7183 12.896 50.233 12.896C49.841 12.896 49.4723 12.994 49.127 13.19C48.7817 13.386 48.5017 13.68 48.287 14.072C48.0723 14.464 47.965 14.9493 47.965 15.528C47.965 16.1067 48.0723 16.592 48.287 16.984C48.5017 17.376 48.7817 17.6747 49.127 17.88C49.4723 18.076 49.841 18.174 50.233 18.174C50.7183 18.174 51.143 18.0573 51.507 17.824C51.871 17.5813 52.0997 17.2407 52.193 16.802H53.397C53.257 17.502 52.9023 18.0713 52.333 18.51C51.7637 18.9487 51.0683 19.168 50.247 19.168ZM57.9234 19.168C57.27 19.168 56.682 19.0187 56.1594 18.72C55.6367 18.4213 55.2214 18.0013 54.9134 17.46C54.6147 16.9093 54.4654 16.2653 54.4654 15.528C54.4654 14.7907 54.6194 14.1513 54.9274 13.61C55.2354 13.0593 55.6507 12.6347 56.1734 12.336C56.7054 12.0373 57.298 11.888 57.9514 11.888C58.6047 11.888 59.1927 12.0373 59.7154 12.336C60.238 12.6347 60.6487 13.0593 60.9474 13.61C61.2554 14.1513 61.4094 14.7907 61.4094 15.528C61.4094 16.2653 61.2554 16.9093 60.9474 17.46C60.6394 18.0013 60.2194 18.4213 59.6874 18.72C59.1647 19.0187 58.5767 19.168 57.9234 19.168ZM57.9234 18.16C58.3247 18.16 58.698 18.062 59.0434 17.866C59.3887 17.67 59.6687 17.376 59.8834 16.984C60.098 16.592 60.2054 16.1067 60.2054 15.528C60.2054 14.9493 60.098 14.464 59.8834 14.072C59.678 13.68 59.4027 13.386 59.0574 13.19C58.712 12.994 58.3434 12.896 57.9514 12.896C57.55 12.896 57.1767 12.994 56.8314 13.19C56.486 13.386 56.206 13.68 55.9914 14.072C55.7767 14.464 55.6694 14.9493 55.6694 15.528C55.6694 16.1067 55.7767 16.592 55.9914 16.984C56.206 17.376 56.4814 17.67 56.8174 17.866C57.1627 18.062 57.5314 18.16 57.9234 18.16ZM62.7645 19V12.056H63.8285L63.8985 13.302C64.1225 12.8633 64.4445 12.518 64.8645 12.266C65.2845 12.014 65.7605 11.888 66.2925 11.888C67.1138 11.888 67.7672 12.14 68.2525 12.644C68.7472 13.1387 68.9945 13.904 68.9945 14.94V19H67.8185V15.066C67.8185 13.6193 67.2212 12.896 66.0265 12.896C65.4292 12.896 64.9298 13.1153 64.5285 13.554C64.1365 13.9833 63.9405 14.5993 63.9405 15.402V19H62.7645ZM73.2402 19C72.6056 19 72.1062 18.846 71.7422 18.538C71.3782 18.23 71.1962 17.6747 71.1962 16.872V13.05H69.9922V12.056H71.1962L71.3502 10.39H72.3722V12.056H74.4162V13.05H72.3722V16.872C72.3722 17.3107 72.4609 17.6093 72.6382 17.768C72.8156 17.9173 73.1282 17.992 73.5762 17.992H74.3042V19H73.2402ZM77.9403 19.168C77.3616 19.168 76.881 19.07 76.4983 18.874C76.1156 18.678 75.831 18.4167 75.6443 18.09C75.4576 17.7633 75.3643 17.4087 75.3643 17.026C75.3643 16.3167 75.635 15.7707 76.1763 15.388C76.7176 15.0053 77.455 14.814 78.3883 14.814H80.2643V14.73C80.2643 14.1233 80.1056 13.666 79.7883 13.358C79.471 13.0407 79.0463 12.882 78.5143 12.882C78.057 12.882 77.6603 12.9987 77.3243 13.232C76.9976 13.456 76.7923 13.7873 76.7083 14.226H75.5043C75.551 13.722 75.719 13.2973 76.0083 12.952C76.307 12.6067 76.6756 12.3453 77.1143 12.168C77.553 11.9813 78.0196 11.888 78.5143 11.888C79.485 11.888 80.213 12.1493 80.6983 12.672C81.193 13.1853 81.4403 13.8713 81.4403 14.73V19H80.3903L80.3203 17.754C80.1243 18.146 79.835 18.482 79.4523 18.762C79.079 19.0327 78.575 19.168 77.9403 19.168ZM78.1223 18.174C78.5703 18.174 78.953 18.0573 79.2703 17.824C79.597 17.5907 79.8443 17.2873 80.0123 16.914C80.1803 16.5407 80.2643 16.1487 80.2643 15.738V15.724H78.4863C77.7956 15.724 77.3056 15.8453 77.0163 16.088C76.7363 16.3213 76.5963 16.6153 76.5963 16.97C76.5963 17.334 76.727 17.628 76.9883 17.852C77.259 18.0667 77.637 18.174 78.1223 18.174ZM86.1165 19.168C85.4538 19.168 84.8565 19.0187 84.3245 18.72C83.8018 18.412 83.3865 17.9873 83.0785 17.446C82.7798 16.8953 82.6305 16.256 82.6305 15.528C82.6305 14.8 82.7798 14.1653 83.0785 13.624C83.3865 13.0733 83.8018 12.6487 84.3245 12.35C84.8565 12.042 85.4538 11.888 86.1165 11.888C86.9378 11.888 87.6285 12.1027 88.1885 12.532C88.7578 12.9613 89.1172 13.5353 89.2665 14.254H88.0625C87.9692 13.8247 87.7405 13.4933 87.3765 13.26C87.0125 13.0173 86.5878 12.896 86.1025 12.896C85.7105 12.896 85.3418 12.994 84.9965 13.19C84.6512 13.386 84.3712 13.68 84.1565 14.072C83.9418 14.464 83.8345 14.9493 83.8345 15.528C83.8345 16.1067 83.9418 16.592 84.1565 16.984C84.3712 17.376 84.6512 17.6747 84.9965 17.88C85.3418 18.076 85.7105 18.174 86.1025 18.174C86.5878 18.174 87.0125 18.0573 87.3765 17.824C87.7405 17.5813 87.9692 17.2407 88.0625 16.802H89.2665C89.1265 17.502 88.7718 18.0713 88.2025 18.51C87.6332 18.9487 86.9378 19.168 86.1165 19.168ZM93.1815 19C92.5468 19 92.0475 18.846 91.6835 18.538C91.3195 18.23 91.1375 17.6747 91.1375 16.872V13.05H89.9335V12.056H91.1375L91.2915 10.39H92.3135V12.056H94.3575V13.05H92.3135V16.872C92.3135 17.3107 92.4022 17.6093 92.5795 17.768C92.7568 17.9173 93.0695 17.992 93.5175 17.992H94.2455V19H93.1815ZM98.2315 19.168C97.4009 19.168 96.7102 18.958 96.1595 18.538C95.6089 18.118 95.2869 17.5487 95.1935 16.83H96.3975C96.4722 17.194 96.6635 17.5113 96.9715 17.782C97.2889 18.0433 97.7135 18.174 98.2455 18.174C98.7402 18.174 99.1042 18.0713 99.3375 17.866C99.5709 17.6513 99.6875 17.3993 99.6875 17.11C99.6875 16.69 99.5335 16.41 99.2255 16.27C98.9269 16.13 98.5022 16.004 97.9515 15.892C97.5782 15.8173 97.2049 15.71 96.8315 15.57C96.4582 15.43 96.1455 15.234 95.8935 14.982C95.6415 14.7207 95.5155 14.38 95.5155 13.96C95.5155 13.3533 95.7395 12.8587 96.1875 12.476C96.6449 12.084 97.2609 11.888 98.0355 11.888C98.7729 11.888 99.3749 12.0747 99.8415 12.448C100.318 12.812 100.593 13.3347 100.668 14.016H99.5055C99.4589 13.6613 99.3049 13.386 99.0435 13.19C98.7915 12.9847 98.4509 12.882 98.0215 12.882C97.6015 12.882 97.2749 12.9707 97.0415 13.148C96.8175 13.3253 96.7055 13.5587 96.7055 13.848C96.7055 14.128 96.8502 14.3473 97.1395 14.506C97.4382 14.6647 97.8395 14.8 98.3435 14.912C98.7729 15.0053 99.1789 15.122 99.5615 15.262C99.9535 15.3927 100.271 15.5933 100.514 15.864C100.766 16.1253 100.892 16.508 100.892 17.012C100.901 17.6373 100.663 18.1553 100.178 18.566C99.7015 18.9673 99.0529 19.168 98.2315 19.168Z" fill="black"/>
<path d="M13.25 12.875L16.5 16.125L19.75 12.875" stroke="black" stroke-width="1.08333" stroke-linecap="round" stroke-linejoin="round"/>
</svg>
