<svg width="125" height="42" viewBox="0 0 125 42" fill="none" xmlns="http://www.w3.org/2000/svg">
<path d="M53.136 26V14.8H55.136L58.928 22.256L62.704 14.8H64.704V26H63.008V17.728L59.584 24.4H58.272L54.832 17.744V26H53.136ZM70.3078 26.192C69.5291 26.192 68.8358 26.0213 68.2278 25.68C67.6304 25.328 67.1611 24.8427 66.8198 24.224C66.4784 23.6053 66.3078 22.8853 66.3078 22.064C66.3078 21.232 66.4731 20.5013 66.8038 19.872C67.1451 19.2427 67.6144 18.752 68.2118 18.4C68.8198 18.048 69.5238 17.872 70.3238 17.872C71.1024 17.872 71.7798 18.048 72.3558 18.4C72.9318 18.7413 73.3798 19.2 73.6998 19.776C74.0198 20.352 74.1798 20.9867 74.1798 21.68C74.1798 21.7867 74.1744 21.904 74.1638 22.032C74.1638 22.1493 74.1584 22.2827 74.1478 22.432H67.9718C68.0251 23.2 68.2758 23.7867 68.7238 24.192C69.1824 24.5867 69.7104 24.784 70.3078 24.784C70.7878 24.784 71.1878 24.6773 71.5078 24.464C71.8384 24.24 72.0838 23.9413 72.2438 23.568H73.9398C73.7264 24.3147 73.2998 24.9387 72.6598 25.44C72.0304 25.9413 71.2464 26.192 70.3078 26.192ZM70.3078 19.264C69.7424 19.264 69.2411 19.4347 68.8038 19.776C68.3664 20.1067 68.0998 20.608 68.0038 21.28H72.4838C72.4518 20.6613 72.2331 20.1707 71.8278 19.808C71.4224 19.4453 70.9158 19.264 70.3078 19.264ZM78.7875 26.192C77.7848 26.192 76.9582 25.9467 76.3075 25.456C75.6568 24.9653 75.2835 24.3147 75.1875 23.504H76.8995C76.9848 23.8667 77.1875 24.1813 77.5075 24.448C77.8275 24.704 78.2488 24.832 78.7715 24.832C79.2835 24.832 79.6568 24.7253 79.8915 24.512C80.1262 24.2987 80.2435 24.0533 80.2435 23.776C80.2435 23.3707 80.0782 23.0987 79.7475 22.96C79.4275 22.8107 78.9795 22.6773 78.4035 22.56C77.9555 22.464 77.5075 22.336 77.0595 22.176C76.6222 22.016 76.2542 21.792 75.9555 21.504C75.6675 21.2053 75.5235 20.8053 75.5235 20.304C75.5235 19.6107 75.7902 19.0347 76.3235 18.576C76.8568 18.1067 77.6035 17.872 78.5635 17.872C79.4488 17.872 80.1635 18.0853 80.7075 18.512C81.2622 18.9387 81.5875 19.5413 81.6835 20.32H80.0515C79.9982 19.9787 79.8382 19.712 79.5715 19.52C79.3155 19.328 78.9688 19.232 78.5315 19.232C78.1048 19.232 77.7742 19.3227 77.5395 19.504C77.3048 19.6747 77.1875 19.8987 77.1875 20.176C77.1875 20.4533 77.3475 20.672 77.6675 20.832C77.9982 20.992 78.4302 21.136 78.9635 21.264C79.4968 21.3813 79.9875 21.52 80.4355 21.68C80.8942 21.8293 81.2622 22.0533 81.5395 22.352C81.8168 22.6507 81.9555 23.088 81.9555 23.664C81.9662 24.3893 81.6835 24.992 81.1075 25.472C80.5422 25.952 79.7688 26.192 78.7875 26.192ZM86.655 26.192C85.6523 26.192 84.8257 25.9467 84.175 25.456C83.5243 24.9653 83.151 24.3147 83.055 23.504H84.767C84.8523 23.8667 85.055 24.1813 85.375 24.448C85.695 24.704 86.1163 24.832 86.639 24.832C87.151 24.832 87.5243 24.7253 87.759 24.512C87.9937 24.2987 88.111 24.0533 88.111 23.776C88.111 23.3707 87.9457 23.0987 87.615 22.96C87.295 22.8107 86.847 22.6773 86.271 22.56C85.823 22.464 85.375 22.336 84.927 22.176C84.4897 22.016 84.1217 21.792 83.823 21.504C83.535 21.2053 83.391 20.8053 83.391 20.304C83.391 19.6107 83.6577 19.0347 84.191 18.576C84.7243 18.1067 85.471 17.872 86.431 17.872C87.3163 17.872 88.031 18.0853 88.575 18.512C89.1297 18.9387 89.455 19.5413 89.551 20.32H87.919C87.8657 19.9787 87.7057 19.712 87.439 19.52C87.183 19.328 86.8363 19.232 86.399 19.232C85.9723 19.232 85.6417 19.3227 85.407 19.504C85.1723 19.6747 85.055 19.8987 85.055 20.176C85.055 20.4533 85.215 20.672 85.535 20.832C85.8657 20.992 86.2977 21.136 86.831 21.264C87.3643 21.3813 87.855 21.52 88.303 21.68C88.7617 21.8293 89.1297 22.0533 89.407 22.352C89.6843 22.6507 89.823 23.088 89.823 23.664C89.8337 24.3893 89.551 24.992 88.975 25.472C88.4097 25.952 87.6363 26.192 86.655 26.192ZM94.0425 26.192C93.3705 26.192 92.8158 26.08 92.3785 25.856C91.9412 25.632 91.6158 25.3387 91.4025 24.976C91.1892 24.6027 91.0825 24.1973 91.0825 23.76C91.0825 22.992 91.3812 22.384 91.9785 21.936C92.5758 21.488 93.4292 21.264 94.5385 21.264H96.6185V21.12C96.6185 20.5013 96.4478 20.0373 96.1065 19.728C95.7758 19.4187 95.3438 19.264 94.8105 19.264C94.3412 19.264 93.9305 19.3813 93.5785 19.616C93.2372 19.84 93.0292 20.176 92.9545 20.624H91.2585C91.3118 20.048 91.5038 19.5573 91.8345 19.152C92.1758 18.736 92.6025 18.4213 93.1145 18.208C93.6372 17.984 94.2078 17.872 94.8265 17.872C95.9358 17.872 96.7945 18.1653 97.4025 18.752C98.0105 19.328 98.3145 20.1173 98.3145 21.12V26H96.8425L96.6985 24.64C96.4745 25.0773 96.1492 25.4453 95.7225 25.744C95.2958 26.0427 94.7358 26.192 94.0425 26.192ZM94.3785 24.816C94.8372 24.816 95.2212 24.7093 95.5305 24.496C95.8505 24.272 96.0958 23.9787 96.2665 23.616C96.4478 23.2533 96.5598 22.8533 96.6025 22.416H94.7145C94.0425 22.416 93.5625 22.5333 93.2745 22.768C92.9972 23.0027 92.8585 23.296 92.8585 23.648C92.8585 24.0107 92.9918 24.2987 93.2585 24.512C93.5358 24.7147 93.9092 24.816 94.3785 24.816ZM103.22 23.568C102.804 23.568 102.42 23.52 102.068 23.424L101.38 24.096C101.497 24.1707 101.641 24.2347 101.812 24.288C101.983 24.3413 102.223 24.3893 102.532 24.432C102.841 24.4747 103.263 24.5173 103.796 24.56C104.852 24.656 105.615 24.912 106.084 25.328C106.553 25.7333 106.788 26.2773 106.788 26.96C106.788 27.4293 106.66 27.872 106.404 28.288C106.159 28.7147 105.769 29.056 105.236 29.312C104.713 29.5787 104.041 29.712 103.22 29.712C102.111 29.712 101.209 29.4987 100.516 29.072C99.8333 28.656 99.492 28.0213 99.492 27.168C99.492 26.8373 99.5773 26.5067 99.748 26.176C99.9293 25.856 100.212 25.552 100.596 25.264C100.372 25.168 100.175 25.0667 100.004 24.96C99.844 24.8427 99.7 24.7253 99.572 24.608V24.224L100.948 22.816C100.329 22.2827 100.02 21.584 100.02 20.72C100.02 20.1973 100.143 19.7227 100.388 19.296C100.644 18.8587 101.012 18.512 101.492 18.256C101.972 18 102.548 17.872 103.22 17.872C103.668 17.872 104.084 17.936 104.468 18.064H107.428V19.184L106.02 19.264C106.276 19.7013 106.404 20.1867 106.404 20.72C106.404 21.2533 106.276 21.7333 106.02 22.16C105.775 22.5867 105.412 22.928 104.932 23.184C104.463 23.44 103.892 23.568 103.22 23.568ZM103.22 22.24C103.711 22.24 104.105 22.112 104.404 21.856C104.713 21.5893 104.868 21.216 104.868 20.736C104.868 20.2453 104.713 19.872 104.404 19.616C104.105 19.36 103.711 19.232 103.22 19.232C102.719 19.232 102.313 19.36 102.004 19.616C101.705 19.872 101.556 20.2453 101.556 20.736C101.556 21.216 101.705 21.5893 102.004 21.856C102.313 22.112 102.719 22.24 103.22 22.24ZM101.092 27.008C101.092 27.4667 101.295 27.808 101.7 28.032C102.105 28.2667 102.612 28.384 103.22 28.384C103.807 28.384 104.281 28.256 104.644 28C105.007 27.7547 105.188 27.424 105.188 27.008C105.188 26.6987 105.065 26.432 104.82 26.208C104.575 25.9947 104.111 25.8613 103.428 25.808C102.916 25.776 102.463 25.728 102.068 25.664C101.695 25.8667 101.439 26.0853 101.3 26.32C101.161 26.5547 101.092 26.784 101.092 27.008ZM112.02 26.192C111.242 26.192 110.548 26.0213 109.94 25.68C109.343 25.328 108.874 24.8427 108.532 24.224C108.191 23.6053 108.02 22.8853 108.02 22.064C108.02 21.232 108.186 20.5013 108.516 19.872C108.858 19.2427 109.327 18.752 109.924 18.4C110.532 18.048 111.236 17.872 112.036 17.872C112.815 17.872 113.492 18.048 114.068 18.4C114.644 18.7413 115.092 19.2 115.412 19.776C115.732 20.352 115.892 20.9867 115.892 21.68C115.892 21.7867 115.887 21.904 115.876 22.032C115.876 22.1493 115.871 22.2827 115.86 22.432H109.684C109.738 23.2 109.988 23.7867 110.436 24.192C110.895 24.5867 111.423 24.784 112.02 24.784C112.5 24.784 112.9 24.6773 113.22 24.464C113.551 24.24 113.796 23.9413 113.956 23.568H115.652C115.439 24.3147 115.012 24.9387 114.372 25.44C113.743 25.9413 112.959 26.192 112.02 26.192ZM112.02 19.264C111.455 19.264 110.954 19.4347 110.516 19.776C110.079 20.1067 109.812 20.608 109.716 21.28H114.196C114.164 20.6613 113.946 20.1707 113.54 19.808C113.135 19.4453 112.628 19.264 112.02 19.264ZM120.5 26.192C119.497 26.192 118.671 25.9467 118.02 25.456C117.369 24.9653 116.996 24.3147 116.9 23.504H118.612C118.697 23.8667 118.9 24.1813 119.22 24.448C119.54 24.704 119.961 24.832 120.484 24.832C120.996 24.832 121.369 24.7253 121.604 24.512C121.839 24.2987 121.956 24.0533 121.956 23.776C121.956 23.3707 121.791 23.0987 121.46 22.96C121.14 22.8107 120.692 22.6773 120.116 22.56C119.668 22.464 119.22 22.336 118.772 22.176C118.335 22.016 117.967 21.792 117.668 21.504C117.38 21.2053 117.236 20.8053 117.236 20.304C117.236 19.6107 117.503 19.0347 118.036 18.576C118.569 18.1067 119.316 17.872 120.276 17.872C121.161 17.872 121.876 18.0853 122.42 18.512C122.975 18.9387 123.3 19.5413 123.396 20.32H121.764C121.711 19.9787 121.551 19.712 121.284 19.52C121.028 19.328 120.681 19.232 120.244 19.232C119.817 19.232 119.487 19.3227 119.252 19.504C119.017 19.6747 118.9 19.8987 118.9 20.176C118.9 20.4533 119.06 20.672 119.38 20.832C119.711 20.992 120.143 21.136 120.676 21.264C121.209 21.3813 121.7 21.52 122.148 21.68C122.607 21.8293 122.975 22.0533 123.252 22.352C123.529 22.6507 123.668 23.088 123.668 23.664C123.679 24.3893 123.396 24.992 122.82 25.472C122.255 25.952 121.481 26.192 120.5 26.192Z" fill="black"/>
<path d="M32.3752 3.30018C35.7965 5.40005 37.8748 7.30135 37.1742 12.2055C36.4659 17.163 35.7521 16.2203 33.3615 20.618C30.9709 25.0156 34.6841 24.8757 32.4044 32.8013C30.1997 40.4664 23.0537 42.5125 11.661 39.5552C0.268429 36.598 -0.600168 27.141 4.21823 18.9992C7.83199 12.8928 7.43198 12.7376 14.7737 7.25262C23.7241 0.565946 27.4808 0.296192 32.3752 3.30018Z" fill="#FFF0DE"/>
<path d="M0.30007 18.5752C2.33101 19.8653 4.14694 21.4662 5.68475 23.3149C6.07037 23.7776 6.43497 24.2754 7.04729 24.439C7.697 24.6119 8.33269 24.3315 8.92631 24.1001C10.1883 23.6047 11.4527 23.1185 12.7218 22.6418C17.7629 20.7464 22.8578 18.9982 27.9994 17.395C30.9114 16.4882 33.8398 15.6281 36.7799 14.8171L36.1209 13.9594C34.8144 15.8174 32.9728 17.215 31.1475 18.5285C29.0885 20.0079 26.9968 21.4405 24.8724 22.8264C22.7479 24.2123 20.6188 25.5351 18.4477 26.8158C17.3539 27.4609 16.2531 28.0942 15.1477 28.7159C14.6031 29.0221 14.0539 29.3236 13.5047 29.625C12.9555 29.9265 12.3432 30.1602 11.8828 30.5529C11.6303 30.7679 11.4878 31.0647 11.5065 31.3966C11.5298 31.7798 11.7916 32.0556 12.0814 32.2753C12.654 32.71 13.2383 33.1284 13.8155 33.556L17.4334 36.2227C17.632 36.3699 17.9803 36.3068 18.1415 36.1315L26.513 27.0916L34.8448 18.0938L39.5657 12.9942C39.9654 12.5618 39.5704 11.8841 38.9978 12.0173C33.8913 13.2022 28.7777 14.3871 23.594 15.1887C21.0559 15.5814 18.4991 15.8759 15.9329 16.0301C13.3668 16.1844 11.0344 16.203 8.58977 16.3386C5.84835 16.4905 3.09056 16.7686 0.437951 17.5095C-0.284214 17.7105 0.0219504 18.8393 0.74879 18.636C5.46039 17.3202 10.4127 17.4861 15.2552 17.236C20.4506 16.9696 25.5945 16.1259 30.6824 15.0719C33.5664 14.4736 36.4364 13.8075 39.3063 13.1438L38.7384 12.1669L30.3669 21.2068L22.0351 30.2046L17.3142 35.3042L18.0223 35.2131L14.914 32.9227L13.3832 31.7939C13.1658 31.6326 12.9531 31.448 12.7218 31.3054C12.7077 31.2961 12.668 31.24 12.6493 31.2423C12.6353 31.2446 12.7521 31.5438 12.6143 31.4597C12.6049 31.455 12.8737 31.2914 12.876 31.2914C15.0285 30.1252 17.1646 28.9356 19.2703 27.6876C23.4795 25.1916 27.5834 22.5132 31.5612 19.662C33.6178 18.1872 35.6558 16.6448 37.1258 14.5531C37.4273 14.123 36.9295 13.5668 36.4668 13.6953C31.3485 15.1093 26.27 16.6658 21.2405 18.3672C18.7071 19.2249 16.1877 20.1177 13.68 21.0455C12.4437 21.5036 11.212 21.971 9.98269 22.4455C9.35868 22.6862 8.73935 22.9433 8.11067 23.1746C7.89332 23.2541 7.62922 23.3639 7.39317 23.3265C7.15713 23.2891 6.99119 23.0741 6.84863 22.9059C5.99091 21.8962 5.12385 20.917 4.13525 20.0312C3.14666 19.1455 2.03419 18.3018 0.886671 17.5726C0.250979 17.1683 -0.337962 18.1802 0.29773 18.5822L0.30007 18.5752Z" fill="#1F3758"/>
<path d="M7.19499 24.2708C7.12488 27.4236 7.15525 30.5787 7.28379 33.7291C7.30015 34.1358 7.7816 34.505 8.16254 34.2339C9.62323 33.1986 10.0766 31.4831 11.0255 30.0552C11.5303 29.2979 12.2478 28.7487 13.0191 28.2836C13.9422 27.7251 14.9098 27.2343 15.8586 26.7178C19.9369 24.5022 24.0151 22.2866 28.0934 20.0711L35.0042 16.3177C35.6656 15.9578 35.0766 14.9481 34.4152 15.308C30.3206 17.533 26.2237 19.7579 22.1291 21.9828L16.0362 25.2922C15.043 25.832 14.0474 26.3625 13.0611 26.9118C12.2081 27.3862 11.3527 27.912 10.6773 28.6272C10.0018 29.3424 9.56715 30.2211 9.1231 31.0905C8.72813 31.8688 8.30278 32.7078 7.5736 33.2243L8.45234 33.7291C8.3238 30.5787 8.29343 27.4236 8.36355 24.2708C8.37991 23.5183 7.21135 23.5183 7.19499 24.2708Z" fill="#1F3758"/>
<path d="M10.9318 29.9234C10.7542 29.7902 10.8804 29.886 10.9201 29.9281C10.9365 29.9445 10.9482 29.9632 10.9645 29.9772C11.03 30.045 10.8781 29.858 10.9318 29.9328C10.9926 30.0192 11.0487 30.1081 11.0977 30.2015C11.1538 30.3044 11.2053 30.4119 11.252 30.5194C11.2637 30.5474 11.2777 30.5755 11.2894 30.6035C11.3291 30.6947 11.3011 30.6362 11.28 30.5802C11.3034 30.6433 11.3315 30.7064 11.3572 30.7695C11.5348 31.2158 11.6773 31.702 11.9368 32.1086C12.1004 32.3657 12.4649 32.4942 12.7361 32.319C13.0072 32.1437 13.1193 31.7954 12.9464 31.5197C12.895 31.4379 12.8506 31.3514 12.8085 31.2626C12.7875 31.2158 12.7664 31.1668 12.7454 31.12C12.7033 31.0242 12.7991 31.2509 12.7618 31.1574C12.7501 31.1317 12.7407 31.1037 12.729 31.078C12.6309 30.8326 12.5374 30.5872 12.4392 30.3418C12.2219 29.8089 11.9952 29.269 11.5231 28.9138C11.4109 28.8297 11.2029 28.8203 11.072 28.8554C10.9412 28.8904 10.7892 28.9979 10.7238 29.1241C10.6514 29.2597 10.6163 29.4233 10.6654 29.5752C10.7145 29.7271 10.8056 29.8276 10.9342 29.9234H10.9318Z" fill="#1F3758"/>
<path d="M8.16433 34.2313C9.51985 33.3432 11.0226 32.7052 12.3781 31.8171C12.6422 31.6441 12.7521 31.3006 12.5885 31.0178C12.4342 30.756 12.0533 30.6345 11.7892 30.8074C10.4337 31.6955 8.9309 32.3336 7.57538 33.2217C7.31129 33.3946 7.20145 33.7382 7.36505 34.0209C7.5193 34.2827 7.90024 34.4042 8.16433 34.2313Z" fill="#1F3758"/>
</svg>
