<svg width="343" height="45" viewBox="0 0 343 45" fill="none" xmlns="http://www.w3.org/2000/svg">
<path d="M3.052 41.014L0.364 31.2H1.624L3.738 39.614L6.146 31.2H7.448L9.786 39.614L11.928 31.2H13.188L10.444 41H9.1L6.762 32.908L4.368 41L3.052 41.014ZM16.9542 41.168C16.3009 41.168 15.7129 41.0187 15.1902 40.72C14.6676 40.4213 14.2522 40.0013 13.9442 39.46C13.6456 38.9093 13.4962 38.2653 13.4962 37.528C13.4962 36.7907 13.6502 36.1513 13.9582 35.61C14.2662 35.0593 14.6816 34.6347 15.2042 34.336C15.7362 34.0373 16.3289 33.888 16.9822 33.888C17.6356 33.888 18.2236 34.0373 18.7462 34.336C19.2689 34.6347 19.6796 35.0593 19.9782 35.61C20.2862 36.1513 20.4402 36.7907 20.4402 37.528C20.4402 38.2653 20.2862 38.9093 19.9782 39.46C19.6702 40.0013 19.2502 40.4213 18.7182 40.72C18.1956 41.0187 17.6076 41.168 16.9542 41.168ZM16.9542 40.16C17.3556 40.16 17.7289 40.062 18.0742 39.866C18.4196 39.67 18.6996 39.376 18.9142 38.984C19.1289 38.592 19.2362 38.1067 19.2362 37.528C19.2362 36.9493 19.1289 36.464 18.9142 36.072C18.7089 35.68 18.4336 35.386 18.0882 35.19C17.7429 34.994 17.3742 34.896 16.9822 34.896C16.5809 34.896 16.2076 34.994 15.8622 35.19C15.5169 35.386 15.2369 35.68 15.0222 36.072C14.8076 36.464 14.7002 36.9493 14.7002 37.528C14.7002 38.1067 14.8076 38.592 15.0222 38.984C15.2369 39.376 15.5122 39.67 15.8482 39.866C16.1936 40.062 16.5622 40.16 16.9542 40.16ZM24.6094 41.168C23.788 41.168 23.1347 40.9207 22.6494 40.426C22.164 39.922 21.9214 39.152 21.9214 38.116V34.056H23.0974V37.99C23.0974 39.4367 23.69 40.16 24.8754 40.16C25.482 40.16 25.9814 39.9453 26.3734 39.516C26.7747 39.0773 26.9754 38.4567 26.9754 37.654V34.056H28.1514V41H27.0874L27.0034 39.754C26.7887 40.1927 26.4667 40.538 26.0374 40.79C25.6174 41.042 25.1414 41.168 24.6094 41.168ZM30.0871 41V30.92H31.2631V41H30.0871ZM36.3406 41.168C35.6499 41.168 35.0433 41.0093 34.5206 40.692C34.0073 40.3747 33.6059 39.9407 33.3166 39.39C33.0366 38.8393 32.8966 38.214 32.8966 37.514C32.8966 36.814 33.0413 36.1933 33.3306 35.652C33.6199 35.1013 34.0213 34.672 34.5346 34.364C35.0479 34.0467 35.6546 33.888 36.3546 33.888C36.9239 33.888 37.4279 34.0047 37.8666 34.238C38.3053 34.4713 38.6459 34.798 38.8886 35.218V30.92H40.0646V41H39.0006L38.8886 39.852C38.6646 40.188 38.3426 40.4913 37.9226 40.762C37.5026 41.0327 36.9753 41.168 36.3406 41.168ZM36.4666 40.146C36.9333 40.146 37.3439 40.0387 37.6986 39.824C38.0626 39.6 38.3426 39.292 38.5386 38.9C38.7439 38.508 38.8466 38.0507 38.8466 37.528C38.8466 37.0053 38.7439 36.548 38.5386 36.156C38.3426 35.764 38.0626 35.4607 37.6986 35.246C37.3439 35.022 36.9333 34.91 36.4666 34.91C36.0093 34.91 35.5986 35.022 35.2346 35.246C34.8799 35.4607 34.5999 35.764 34.3946 36.156C34.1986 36.548 34.1006 37.0053 34.1006 37.528C34.1006 38.0507 34.1986 38.508 34.3946 38.9C34.5999 39.292 34.8799 39.6 35.2346 39.824C35.5986 40.0387 36.0093 40.146 36.4666 40.146ZM46.4427 44.08L48.1647 40.328H47.7587L45.0007 34.056H46.2747L48.5707 39.46L51.0067 34.056H52.2247L47.6747 44.08H46.4427ZM55.9738 41.168C55.3204 41.168 54.7324 41.0187 54.2098 40.72C53.6871 40.4213 53.2718 40.0013 52.9638 39.46C52.6651 38.9093 52.5158 38.2653 52.5158 37.528C52.5158 36.7907 52.6698 36.1513 52.9778 35.61C53.2858 35.0593 53.7011 34.6347 54.2238 34.336C54.7558 34.0373 55.3484 33.888 56.0018 33.888C56.6551 33.888 57.2431 34.0373 57.7658 34.336C58.2884 34.6347 58.6991 35.0593 58.9978 35.61C59.3058 36.1513 59.4598 36.7907 59.4598 37.528C59.4598 38.2653 59.3058 38.9093 58.9978 39.46C58.6898 40.0013 58.2698 40.4213 57.7378 40.72C57.2151 41.0187 56.6271 41.168 55.9738 41.168ZM55.9738 40.16C56.3751 40.16 56.7484 40.062 57.0938 39.866C57.4391 39.67 57.7191 39.376 57.9338 38.984C58.1484 38.592 58.2558 38.1067 58.2558 37.528C58.2558 36.9493 58.1484 36.464 57.9338 36.072C57.7284 35.68 57.4531 35.386 57.1078 35.19C56.7624 34.994 56.3938 34.896 56.0018 34.896C55.6004 34.896 55.2271 34.994 54.8818 35.19C54.5364 35.386 54.2564 35.68 54.0418 36.072C53.8271 36.464 53.7198 36.9493 53.7198 37.528C53.7198 38.1067 53.8271 38.592 54.0418 38.984C54.2564 39.376 54.5318 39.67 54.8678 39.866C55.2131 40.062 55.5818 40.16 55.9738 40.16ZM63.6289 41.168C62.8076 41.168 62.1542 40.9207 61.6689 40.426C61.1836 39.922 60.9409 39.152 60.9409 38.116V34.056H62.1169V37.99C62.1169 39.4367 62.7096 40.16 63.8949 40.16C64.5016 40.16 65.0009 39.9453 65.3929 39.516C65.7942 39.0773 65.9949 38.4567 65.9949 37.654V34.056H67.1709V41H66.1069L66.0229 39.754C65.8082 40.1927 65.4862 40.538 65.0569 40.79C64.6369 41.042 64.1609 41.168 63.6289 41.168ZM76.5217 41.168C75.9524 41.168 75.4437 41.0513 74.9957 40.818C74.557 40.5847 74.221 40.258 73.9877 39.838L73.8757 41H72.8117V30.92H73.9877V35.204C74.2117 34.868 74.529 34.5647 74.9397 34.294C75.3597 34.0233 75.8917 33.888 76.5357 33.888C77.2264 33.888 77.8284 34.0467 78.3417 34.364C78.855 34.6813 79.2517 35.1153 79.5317 35.666C79.821 36.2167 79.9657 36.842 79.9657 37.542C79.9657 38.242 79.821 38.8673 79.5317 39.418C79.2517 39.9593 78.8504 40.3887 78.3277 40.706C77.8144 41.014 77.2124 41.168 76.5217 41.168ZM76.3957 40.146C76.8624 40.146 77.273 40.0387 77.6277 39.824C77.9824 39.6 78.2624 39.292 78.4677 38.9C78.673 38.508 78.7757 38.0507 78.7757 37.528C78.7757 37.0053 78.673 36.548 78.4677 36.156C78.2624 35.764 77.9824 35.4607 77.6277 35.246C77.273 35.022 76.8624 34.91 76.3957 34.91C75.929 34.91 75.5184 35.022 75.1637 35.246C74.809 35.4607 74.529 35.764 74.3237 36.156C74.1184 36.548 74.0157 37.0053 74.0157 37.528C74.0157 38.0507 74.1184 38.508 74.3237 38.9C74.529 39.292 74.809 39.6 75.1637 39.824C75.5184 40.0387 75.929 40.146 76.3957 40.146ZM84.7247 41.168C84.0621 41.168 83.4741 41.0187 82.9607 40.72C82.4474 40.412 82.0414 39.9873 81.7427 39.446C81.4534 38.9047 81.3087 38.2653 81.3087 37.528C81.3087 36.8 81.4534 36.1653 81.7427 35.624C82.0321 35.0733 82.4334 34.6487 82.9467 34.35C83.4694 34.042 84.0714 33.888 84.7527 33.888C85.4247 33.888 86.0034 34.042 86.4887 34.35C86.9834 34.6487 87.3614 35.0453 87.6227 35.54C87.8841 36.0347 88.0147 36.5667 88.0147 37.136C88.0147 37.2387 88.0101 37.3413 88.0007 37.444C88.0007 37.5467 88.0007 37.6633 88.0007 37.794H82.4707C82.4987 38.326 82.6201 38.7693 82.8347 39.124C83.0587 39.4693 83.3341 39.7307 83.6607 39.908C83.9967 40.0853 84.3514 40.174 84.7247 40.174C85.2101 40.174 85.6161 40.062 85.9427 39.838C86.2694 39.614 86.5074 39.3107 86.6567 38.928H87.8187C87.6321 39.572 87.2727 40.1087 86.7407 40.538C86.2181 40.958 85.5461 41.168 84.7247 41.168ZM84.7247 34.882C84.1647 34.882 83.6654 35.0547 83.2267 35.4C82.7974 35.736 82.5501 36.2307 82.4847 36.884H86.8527C86.8247 36.2587 86.6101 35.7687 86.2087 35.414C85.8074 35.0593 85.3127 34.882 84.7247 34.882ZM95.5885 41.168C95.0098 41.168 94.5292 41.07 94.1465 40.874C93.7638 40.678 93.4792 40.4167 93.2925 40.09C93.1058 39.7633 93.0125 39.4087 93.0125 39.026C93.0125 38.3167 93.2832 37.7707 93.8245 37.388C94.3658 37.0053 95.1032 36.814 96.0365 36.814H97.9125V36.73C97.9125 36.1233 97.7538 35.666 97.4365 35.358C97.1192 35.0407 96.6945 34.882 96.1625 34.882C95.7052 34.882 95.3085 34.9987 94.9725 35.232C94.6458 35.456 94.4405 35.7873 94.3565 36.226H93.1525C93.1992 35.722 93.3672 35.2973 93.6565 34.952C93.9552 34.6067 94.3238 34.3453 94.7625 34.168C95.2012 33.9813 95.6678 33.888 96.1625 33.888C97.1332 33.888 97.8612 34.1493 98.3465 34.672C98.8412 35.1853 99.0885 35.8713 99.0885 36.73V41H98.0385L97.9685 39.754C97.7725 40.146 97.4832 40.482 97.1005 40.762C96.7272 41.0327 96.2232 41.168 95.5885 41.168ZM95.7705 40.174C96.2185 40.174 96.6012 40.0573 96.9185 39.824C97.2452 39.5907 97.4925 39.2873 97.6605 38.914C97.8285 38.5407 97.9125 38.1487 97.9125 37.738V37.724H96.1345C95.4438 37.724 94.9538 37.8453 94.6645 38.088C94.3845 38.3213 94.2445 38.6153 94.2445 38.97C94.2445 39.334 94.3752 39.628 94.6365 39.852C94.9072 40.0667 95.2852 40.174 95.7705 40.174ZM102.595 41L99.963 34.056H101.195L103.281 39.866L105.381 34.056H106.585L103.953 41H102.595ZM109.848 41.168C109.27 41.168 108.789 41.07 108.406 40.874C108.024 40.678 107.739 40.4167 107.552 40.09C107.366 39.7633 107.272 39.4087 107.272 39.026C107.272 38.3167 107.543 37.7707 108.084 37.388C108.626 37.0053 109.363 36.814 110.296 36.814H112.172V36.73C112.172 36.1233 112.014 35.666 111.696 35.358C111.379 35.0407 110.954 34.882 110.422 34.882C109.965 34.882 109.568 34.9987 109.232 35.232C108.906 35.456 108.7 35.7873 108.616 36.226H107.412C107.459 35.722 107.627 35.2973 107.916 34.952C108.215 34.6067 108.584 34.3453 109.022 34.168C109.461 33.9813 109.928 33.888 110.422 33.888C111.393 33.888 112.121 34.1493 112.606 34.672C113.101 35.1853 113.348 35.8713 113.348 36.73V41H112.298L112.228 39.754C112.032 40.146 111.743 40.482 111.36 40.762C110.987 41.0327 110.483 41.168 109.848 41.168ZM110.03 40.174C110.478 40.174 110.861 40.0573 111.178 39.824C111.505 39.5907 111.752 39.2873 111.92 38.914C112.088 38.5407 112.172 38.1487 112.172 37.738V37.724H110.394C109.704 37.724 109.214 37.8453 108.924 38.088C108.644 38.3213 108.504 38.6153 108.504 38.97C108.504 39.334 108.635 39.628 108.896 39.852C109.167 40.0667 109.545 40.174 110.03 40.174ZM115.826 32.516C115.593 32.516 115.397 32.4413 115.238 32.292C115.089 32.1333 115.014 31.9373 115.014 31.704C115.014 31.48 115.089 31.2933 115.238 31.144C115.397 30.9947 115.593 30.92 115.826 30.92C116.05 30.92 116.242 30.9947 116.4 31.144C116.559 31.2933 116.638 31.48 116.638 31.704C116.638 31.9373 116.559 32.1333 116.4 32.292C116.242 32.4413 116.05 32.516 115.826 32.516ZM115.238 41V34.056H116.414V41H115.238ZM118.462 41V30.92H119.638V41H118.462ZM123.876 41.168C123.297 41.168 122.816 41.07 122.434 40.874C122.051 40.678 121.766 40.4167 121.58 40.09C121.393 39.7633 121.3 39.4087 121.3 39.026C121.3 38.3167 121.57 37.7707 122.112 37.388C122.653 37.0053 123.39 36.814 124.324 36.814H126.2V36.73C126.2 36.1233 126.041 35.666 125.724 35.358C125.406 35.0407 124.982 34.882 124.45 34.882C123.992 34.882 123.596 34.9987 123.26 35.232C122.933 35.456 122.728 35.7873 122.644 36.226H121.44C121.486 35.722 121.654 35.2973 121.944 34.952C122.242 34.6067 122.611 34.3453 123.05 34.168C123.488 33.9813 123.955 33.888 124.45 33.888C125.42 33.888 126.148 34.1493 126.634 34.672C127.128 35.1853 127.376 35.8713 127.376 36.73V41H126.326L126.256 39.754C126.06 40.146 125.77 40.482 125.388 40.762C125.014 41.0327 124.51 41.168 123.876 41.168ZM124.058 40.174C124.506 40.174 124.888 40.0573 125.206 39.824C125.532 39.5907 125.78 39.2873 125.948 38.914C126.116 38.5407 126.2 38.1487 126.2 37.738V37.724H124.422C123.731 37.724 123.241 37.8453 122.952 38.088C122.672 38.3213 122.532 38.6153 122.532 38.97C122.532 39.334 122.662 39.628 122.924 39.852C123.194 40.0667 123.572 40.174 124.058 40.174ZM132.85 41.168C132.28 41.168 131.772 41.0513 131.324 40.818C130.885 40.5847 130.549 40.258 130.316 39.838L130.204 41H129.14V30.92H130.316V35.204C130.54 34.868 130.857 34.5647 131.268 34.294C131.688 34.0233 132.22 33.888 132.864 33.888C133.554 33.888 134.156 34.0467 134.67 34.364C135.183 34.6813 135.58 35.1153 135.86 35.666C136.149 36.2167 136.294 36.842 136.294 37.542C136.294 38.242 136.149 38.8673 135.86 39.418C135.58 39.9593 135.178 40.3887 134.656 40.706C134.142 41.014 133.54 41.168 132.85 41.168ZM132.724 40.146C133.19 40.146 133.601 40.0387 133.956 39.824C134.31 39.6 134.59 39.292 134.796 38.9C135.001 38.508 135.104 38.0507 135.104 37.528C135.104 37.0053 135.001 36.548 134.796 36.156C134.59 35.764 134.31 35.4607 133.956 35.246C133.601 35.022 133.19 34.91 132.724 34.91C132.257 34.91 131.846 35.022 131.492 35.246C131.137 35.4607 130.857 35.764 130.652 36.156C130.446 36.548 130.344 37.0053 130.344 37.528C130.344 38.0507 130.446 38.508 130.652 38.9C130.857 39.292 131.137 39.6 131.492 39.824C131.846 40.0387 132.257 40.146 132.724 40.146ZM137.931 41V30.92H139.107V41H137.931ZM144.156 41.168C143.494 41.168 142.906 41.0187 142.392 40.72C141.879 40.412 141.473 39.9873 141.174 39.446C140.885 38.9047 140.74 38.2653 140.74 37.528C140.74 36.8 140.885 36.1653 141.174 35.624C141.464 35.0733 141.865 34.6487 142.378 34.35C142.901 34.042 143.503 33.888 144.184 33.888C144.856 33.888 145.435 34.042 145.92 34.35C146.415 34.6487 146.793 35.0453 147.054 35.54C147.316 36.0347 147.446 36.5667 147.446 37.136C147.446 37.2387 147.442 37.3413 147.432 37.444C147.432 37.5467 147.432 37.6633 147.432 37.794H141.902C141.93 38.326 142.052 38.7693 142.266 39.124C142.49 39.4693 142.766 39.7307 143.092 39.908C143.428 40.0853 143.783 40.174 144.156 40.174C144.642 40.174 145.048 40.062 145.374 39.838C145.701 39.614 145.939 39.3107 146.088 38.928H147.25C147.064 39.572 146.704 40.1087 146.172 40.538C145.65 40.958 144.978 41.168 144.156 41.168ZM144.156 34.882C143.596 34.882 143.097 35.0547 142.658 35.4C142.229 35.736 141.982 36.2307 141.916 36.884H146.284C146.256 36.2587 146.042 35.7687 145.64 35.414C145.239 35.0593 144.744 34.882 144.156 34.882ZM153.088 41V35.05H152.038V34.056H153.088V32.852C153.088 32.18 153.256 31.69 153.592 31.382C153.928 31.074 154.418 30.92 155.062 30.92H155.762V31.928H155.244C154.889 31.928 154.637 32.0027 154.488 32.152C154.339 32.292 154.264 32.5347 154.264 32.88V34.056H155.972V35.05H154.264V41H153.088ZM160.263 41.168C159.609 41.168 159.021 41.0187 158.499 40.72C157.976 40.4213 157.561 40.0013 157.253 39.46C156.954 38.9093 156.805 38.2653 156.805 37.528C156.805 36.7907 156.959 36.1513 157.267 35.61C157.575 35.0593 157.99 34.6347 158.513 34.336C159.045 34.0373 159.637 33.888 160.291 33.888C160.944 33.888 161.532 34.0373 162.055 34.336C162.577 34.6347 162.988 35.0593 163.287 35.61C163.595 36.1513 163.749 36.7907 163.749 37.528C163.749 38.2653 163.595 38.9093 163.287 39.46C162.979 40.0013 162.559 40.4213 162.027 40.72C161.504 41.0187 160.916 41.168 160.263 41.168ZM160.263 40.16C160.664 40.16 161.037 40.062 161.383 39.866C161.728 39.67 162.008 39.376 162.223 38.984C162.437 38.592 162.545 38.1067 162.545 37.528C162.545 36.9493 162.437 36.464 162.223 36.072C162.017 35.68 161.742 35.386 161.397 35.19C161.051 34.994 160.683 34.896 160.291 34.896C159.889 34.896 159.516 34.994 159.171 35.19C158.825 35.386 158.545 35.68 158.331 36.072C158.116 36.464 158.009 36.9493 158.009 37.528C158.009 38.1067 158.116 38.592 158.331 38.984C158.545 39.376 158.821 39.67 159.157 39.866C159.502 40.062 159.871 40.16 160.263 40.16ZM165.384 41V34.056H166.448L166.546 35.386C166.761 34.9287 167.087 34.5647 167.526 34.294C167.965 34.0233 168.506 33.888 169.15 33.888V35.12H168.828C168.417 35.12 168.039 35.1947 167.694 35.344C167.349 35.484 167.073 35.7267 166.868 36.072C166.663 36.4173 166.56 36.8933 166.56 37.5V41H165.384ZM176.485 41.168C175.906 41.168 175.426 41.07 175.043 40.874C174.66 40.678 174.376 40.4167 174.189 40.09C174.002 39.7633 173.909 39.4087 173.909 39.026C173.909 38.3167 174.18 37.7707 174.721 37.388C175.262 37.0053 176 36.814 176.933 36.814H178.809V36.73C178.809 36.1233 178.65 35.666 178.333 35.358C178.016 35.0407 177.591 34.882 177.059 34.882C176.602 34.882 176.205 34.9987 175.869 35.232C175.542 35.456 175.337 35.7873 175.253 36.226H174.049C174.096 35.722 174.264 35.2973 174.553 34.952C174.852 34.6067 175.22 34.3453 175.659 34.168C176.098 33.9813 176.564 33.888 177.059 33.888C178.03 33.888 178.758 34.1493 179.243 34.672C179.738 35.1853 179.985 35.8713 179.985 36.73V41H178.935L178.865 39.754C178.669 40.146 178.38 40.482 177.997 40.762C177.624 41.0327 177.12 41.168 176.485 41.168ZM176.667 40.174C177.115 40.174 177.498 40.0573 177.815 39.824C178.142 39.5907 178.389 39.2873 178.557 38.914C178.725 38.5407 178.809 38.1487 178.809 37.738V37.724H177.031C176.34 37.724 175.85 37.8453 175.561 38.088C175.281 38.3213 175.141 38.6153 175.141 38.97C175.141 39.334 175.272 39.628 175.533 39.852C175.804 40.0667 176.182 40.174 176.667 40.174ZM188.114 41.168C187.284 41.168 186.593 40.958 186.042 40.538C185.492 40.118 185.17 39.5487 185.076 38.83H186.28C186.355 39.194 186.546 39.5113 186.854 39.782C187.172 40.0433 187.596 40.174 188.128 40.174C188.623 40.174 188.987 40.0713 189.22 39.866C189.454 39.6513 189.57 39.3993 189.57 39.11C189.57 38.69 189.416 38.41 189.108 38.27C188.81 38.13 188.385 38.004 187.834 37.892C187.461 37.8173 187.088 37.71 186.714 37.57C186.341 37.43 186.028 37.234 185.776 36.982C185.524 36.7207 185.398 36.38 185.398 35.96C185.398 35.3533 185.622 34.8587 186.07 34.476C186.528 34.084 187.144 33.888 187.918 33.888C188.656 33.888 189.258 34.0747 189.724 34.448C190.2 34.812 190.476 35.3347 190.55 36.016H189.388C189.342 35.6613 189.188 35.386 188.926 35.19C188.674 34.9847 188.334 34.882 187.904 34.882C187.484 34.882 187.158 34.9707 186.924 35.148C186.7 35.3253 186.588 35.5587 186.588 35.848C186.588 36.128 186.733 36.3473 187.022 36.506C187.321 36.6647 187.722 36.8 188.226 36.912C188.656 37.0053 189.062 37.122 189.444 37.262C189.836 37.3927 190.154 37.5933 190.396 37.864C190.648 38.1253 190.774 38.508 190.774 39.012C190.784 39.6373 190.546 40.1553 190.06 40.566C189.584 40.9673 188.936 41.168 188.114 41.168ZM195.576 41.168C194.914 41.168 194.326 41.0187 193.812 40.72C193.299 40.412 192.893 39.9873 192.594 39.446C192.305 38.9047 192.16 38.2653 192.16 37.528C192.16 36.8 192.305 36.1653 192.594 35.624C192.884 35.0733 193.285 34.6487 193.798 34.35C194.321 34.042 194.923 33.888 195.604 33.888C196.276 33.888 196.855 34.042 197.34 34.35C197.835 34.6487 198.213 35.0453 198.474 35.54C198.736 36.0347 198.866 36.5667 198.866 37.136C198.866 37.2387 198.862 37.3413 198.852 37.444C198.852 37.5467 198.852 37.6633 198.852 37.794H193.322C193.35 38.326 193.472 38.7693 193.686 39.124C193.91 39.4693 194.186 39.7307 194.512 39.908C194.848 40.0853 195.203 40.174 195.576 40.174C196.062 40.174 196.468 40.062 196.794 39.838C197.121 39.614 197.359 39.3107 197.508 38.928H198.67C198.484 39.572 198.124 40.1087 197.592 40.538C197.07 40.958 196.398 41.168 195.576 41.168ZM195.576 34.882C195.016 34.882 194.517 35.0547 194.078 35.4C193.649 35.736 193.402 36.2307 193.336 36.884H197.704C197.676 36.2587 197.462 35.7687 197.06 35.414C196.659 35.0593 196.164 34.882 195.576 34.882ZM203.085 41.168C202.254 41.168 201.564 40.958 201.013 40.538C200.462 40.118 200.14 39.5487 200.047 38.83H201.251C201.326 39.194 201.517 39.5113 201.825 39.782C202.142 40.0433 202.567 40.174 203.099 40.174C203.594 40.174 203.958 40.0713 204.191 39.866C204.424 39.6513 204.541 39.3993 204.541 39.11C204.541 38.69 204.387 38.41 204.079 38.27C203.78 38.13 203.356 38.004 202.805 37.892C202.432 37.8173 202.058 37.71 201.685 37.57C201.312 37.43 200.999 37.234 200.747 36.982C200.495 36.7207 200.369 36.38 200.369 35.96C200.369 35.3533 200.593 34.8587 201.041 34.476C201.498 34.084 202.114 33.888 202.889 33.888C203.626 33.888 204.228 34.0747 204.695 34.448C205.171 34.812 205.446 35.3347 205.521 36.016H204.359C204.312 35.6613 204.158 35.386 203.897 35.19C203.645 34.9847 203.304 34.882 202.875 34.882C202.455 34.882 202.128 34.9707 201.895 35.148C201.671 35.3253 201.559 35.5587 201.559 35.848C201.559 36.128 201.704 36.3473 201.993 36.506C202.292 36.6647 202.693 36.8 203.197 36.912C203.626 37.0053 204.032 37.122 204.415 37.262C204.807 37.3927 205.124 37.5933 205.367 37.864C205.619 38.1253 205.745 38.508 205.745 39.012C205.754 39.6373 205.516 40.1553 205.031 40.566C204.555 40.9673 203.906 41.168 203.085 41.168ZM210.085 41.168C209.254 41.168 208.564 40.958 208.013 40.538C207.462 40.118 207.14 39.5487 207.047 38.83H208.251C208.326 39.194 208.517 39.5113 208.825 39.782C209.142 40.0433 209.567 40.174 210.099 40.174C210.594 40.174 210.958 40.0713 211.191 39.866C211.424 39.6513 211.541 39.3993 211.541 39.11C211.541 38.69 211.387 38.41 211.079 38.27C210.78 38.13 210.356 38.004 209.805 37.892C209.432 37.8173 209.058 37.71 208.685 37.57C208.312 37.43 207.999 37.234 207.747 36.982C207.495 36.7207 207.369 36.38 207.369 35.96C207.369 35.3533 207.593 34.8587 208.041 34.476C208.498 34.084 209.114 33.888 209.889 33.888C210.626 33.888 211.228 34.0747 211.695 34.448C212.171 34.812 212.446 35.3347 212.521 36.016H211.359C211.312 35.6613 211.158 35.386 210.897 35.19C210.645 34.9847 210.304 34.882 209.875 34.882C209.455 34.882 209.128 34.9707 208.895 35.148C208.671 35.3253 208.559 35.5587 208.559 35.848C208.559 36.128 208.704 36.3473 208.993 36.506C209.292 36.6647 209.693 36.8 210.197 36.912C210.626 37.0053 211.032 37.122 211.415 37.262C211.807 37.3927 212.124 37.5933 212.367 37.864C212.619 38.1253 212.745 38.508 212.745 39.012C212.754 39.6373 212.516 40.1553 212.031 40.566C211.555 40.9673 210.906 41.168 210.085 41.168ZM215.139 32.516C214.906 32.516 214.71 32.4413 214.551 32.292C214.402 32.1333 214.327 31.9373 214.327 31.704C214.327 31.48 214.402 31.2933 214.551 31.144C214.71 30.9947 214.906 30.92 215.139 30.92C215.363 30.92 215.554 30.9947 215.713 31.144C215.872 31.2933 215.951 31.48 215.951 31.704C215.951 31.9373 215.872 32.1333 215.713 32.292C215.554 32.4413 215.363 32.516 215.139 32.516ZM214.551 41V34.056H215.727V41H214.551ZM220.939 41.168C220.285 41.168 219.697 41.0187 219.175 40.72C218.652 40.4213 218.237 40.0013 217.929 39.46C217.63 38.9093 217.481 38.2653 217.481 37.528C217.481 36.7907 217.635 36.1513 217.943 35.61C218.251 35.0593 218.666 34.6347 219.189 34.336C219.721 34.0373 220.313 33.888 220.967 33.888C221.62 33.888 222.208 34.0373 222.731 34.336C223.253 34.6347 223.664 35.0593 223.963 35.61C224.271 36.1513 224.425 36.7907 224.425 37.528C224.425 38.2653 224.271 38.9093 223.963 39.46C223.655 40.0013 223.235 40.4213 222.703 40.72C222.18 41.0187 221.592 41.168 220.939 41.168ZM220.939 40.16C221.34 40.16 221.713 40.062 222.059 39.866C222.404 39.67 222.684 39.376 222.899 38.984C223.113 38.592 223.221 38.1067 223.221 37.528C223.221 36.9493 223.113 36.464 222.899 36.072C222.693 35.68 222.418 35.386 222.073 35.19C221.727 34.994 221.359 34.896 220.967 34.896C220.565 34.896 220.192 34.994 219.847 35.19C219.501 35.386 219.221 35.68 219.007 36.072C218.792 36.464 218.685 36.9493 218.685 37.528C218.685 38.1067 218.792 38.592 219.007 38.984C219.221 39.376 219.497 39.67 219.833 39.866C220.178 40.062 220.547 40.16 220.939 40.16ZM226.06 41V34.056H227.124L227.194 35.302C227.418 34.8633 227.74 34.518 228.16 34.266C228.58 34.014 229.056 33.888 229.588 33.888C230.409 33.888 231.062 34.14 231.548 34.644C232.042 35.1387 232.29 35.904 232.29 36.94V41H231.114V37.066C231.114 35.6193 230.516 34.896 229.322 34.896C228.724 34.896 228.225 35.1153 227.824 35.554C227.432 35.9833 227.236 36.5993 227.236 37.402V41H226.06ZM234.477 41.07C234.244 41.07 234.048 40.9953 233.889 40.846C233.74 40.6873 233.665 40.496 233.665 40.272C233.665 40.048 233.74 39.8613 233.889 39.712C234.048 39.5533 234.244 39.474 234.477 39.474C234.701 39.474 234.888 39.5533 235.037 39.712C235.196 39.8613 235.275 40.048 235.275 40.272C235.275 40.496 235.196 40.6873 235.037 40.846C234.888 40.9953 234.701 41.07 234.477 41.07ZM237.212 41.07C236.979 41.07 236.783 40.9953 236.624 40.846C236.475 40.6873 236.4 40.496 236.4 40.272C236.4 40.048 236.475 39.8613 236.624 39.712C236.783 39.5533 236.979 39.474 237.212 39.474C237.436 39.474 237.623 39.5533 237.772 39.712C237.931 39.8613 238.01 40.048 238.01 40.272C238.01 40.496 237.931 40.6873 237.772 40.846C237.623 40.9953 237.436 41.07 237.212 41.07ZM239.946 41.07C239.713 41.07 239.517 40.9953 239.358 40.846C239.209 40.6873 239.134 40.496 239.134 40.272C239.134 40.048 239.209 39.8613 239.358 39.712C239.517 39.5533 239.713 39.474 239.946 39.474C240.17 39.474 240.357 39.5533 240.506 39.712C240.665 39.8613 240.744 40.048 240.744 40.272C240.744 40.496 240.665 40.6873 240.506 40.846C240.357 40.9953 240.17 41.07 239.946 41.07Z" fill="#727578"/>
<path d="M251.89 37.108C252.534 37.108 253.066 36.576 253.066 35.932C253.066 35.288 252.534 34.756 251.89 34.756C251.246 34.756 250.714 35.288 250.714 35.932C250.714 36.576 251.246 37.108 251.89 37.108ZM263.186 41V32.516L261.604 32.866V32.054L263.578 31.2H264.376V41H263.186ZM269.678 41.168C269.062 41.168 268.535 41.0467 268.096 40.804C267.658 40.5613 267.308 40.2393 267.046 39.838C266.794 39.4273 266.64 38.9747 266.584 38.48H267.676C267.77 39.012 267.994 39.4227 268.348 39.712C268.703 40.0013 269.151 40.146 269.692 40.146C270.439 40.146 271.06 39.8007 271.554 39.11C272.049 38.41 272.315 37.3227 272.352 35.848C272.128 36.2867 271.769 36.6693 271.274 36.996C270.789 37.3133 270.201 37.472 269.51 37.472C268.96 37.472 268.437 37.3413 267.942 37.08C267.448 36.8187 267.046 36.4547 266.738 35.988C266.43 35.512 266.276 34.9567 266.276 34.322C266.276 33.7713 266.412 33.244 266.682 32.74C266.962 32.236 267.354 31.8253 267.858 31.508C268.362 31.1907 268.964 31.032 269.664 31.032C270.374 31.032 270.971 31.1673 271.456 31.438C271.942 31.6993 272.329 32.054 272.618 32.502C272.917 32.95 273.132 33.454 273.262 34.014C273.402 34.5647 273.472 35.1293 273.472 35.708C273.472 36.7907 273.323 37.7427 273.024 38.564C272.726 39.376 272.292 40.0153 271.722 40.482C271.162 40.9393 270.481 41.168 269.678 41.168ZM269.748 36.45C270.187 36.45 270.579 36.352 270.924 36.156C271.27 35.9507 271.545 35.68 271.75 35.344C271.956 35.008 272.058 34.644 272.058 34.252C272.058 33.832 271.956 33.4587 271.75 33.132C271.545 32.796 271.27 32.5347 270.924 32.348C270.579 32.1613 270.187 32.068 269.748 32.068C269.31 32.068 268.918 32.1613 268.572 32.348C268.227 32.5347 267.956 32.796 267.76 33.132C267.564 33.4587 267.466 33.8367 267.466 34.266C267.466 34.9287 267.681 35.4607 268.11 35.862C268.549 36.254 269.095 36.45 269.748 36.45ZM282.09 41.168C281.371 41.168 280.746 41.0373 280.214 40.776C279.682 40.5147 279.271 40.1507 278.982 39.684C278.692 39.2173 278.548 38.676 278.548 38.06H279.78C279.78 38.4427 279.868 38.7973 280.046 39.124C280.223 39.4413 280.48 39.698 280.816 39.894C281.161 40.0807 281.586 40.174 282.09 40.174C282.752 40.174 283.266 40.0153 283.63 39.698C283.994 39.3807 284.176 38.984 284.176 38.508C284.176 38.116 284.092 37.8033 283.924 37.57C283.756 37.3273 283.527 37.1313 283.238 36.982C282.958 36.8327 282.631 36.702 282.258 36.59C281.894 36.478 281.511 36.352 281.11 36.212C280.354 35.9507 279.794 35.6287 279.43 35.246C279.066 34.854 278.884 34.3453 278.884 33.72C278.874 33.1973 278.996 32.7353 279.248 32.334C279.5 31.9233 279.854 31.606 280.312 31.382C280.778 31.1487 281.329 31.032 281.964 31.032C282.589 31.032 283.13 31.1487 283.588 31.382C284.054 31.6153 284.414 31.9373 284.666 32.348C284.927 32.7587 285.062 33.2253 285.072 33.748H283.84C283.84 33.4773 283.77 33.2113 283.63 32.95C283.49 32.6793 283.275 32.46 282.986 32.292C282.706 32.124 282.351 32.04 281.922 32.04C281.39 32.0307 280.951 32.166 280.606 32.446C280.27 32.726 280.102 33.1133 280.102 33.608C280.102 34.028 280.218 34.35 280.452 34.574C280.694 34.798 281.03 34.9847 281.46 35.134C281.889 35.274 282.384 35.4373 282.944 35.624C283.41 35.792 283.83 35.988 284.204 36.212C284.577 36.436 284.866 36.7253 285.072 37.08C285.286 37.4347 285.394 37.8873 285.394 38.438C285.394 38.9047 285.272 39.348 285.03 39.768C284.787 40.1787 284.418 40.5147 283.924 40.776C283.438 41.0373 282.827 41.168 282.09 41.168ZM290.113 41.168C289.451 41.168 288.863 41.0187 288.349 40.72C287.836 40.412 287.43 39.9873 287.131 39.446C286.842 38.9047 286.697 38.2653 286.697 37.528C286.697 36.8 286.842 36.1653 287.131 35.624C287.421 35.0733 287.822 34.6487 288.335 34.35C288.858 34.042 289.46 33.888 290.141 33.888C290.813 33.888 291.392 34.042 291.877 34.35C292.372 34.6487 292.75 35.0453 293.011 35.54C293.273 36.0347 293.403 36.5667 293.403 37.136C293.403 37.2387 293.399 37.3413 293.389 37.444C293.389 37.5467 293.389 37.6633 293.389 37.794H287.859C287.887 38.326 288.009 38.7693 288.223 39.124C288.447 39.4693 288.723 39.7307 289.049 39.908C289.385 40.0853 289.74 40.174 290.113 40.174C290.599 40.174 291.005 40.062 291.331 39.838C291.658 39.614 291.896 39.3107 292.045 38.928H293.207C293.021 39.572 292.661 40.1087 292.129 40.538C291.607 40.958 290.935 41.168 290.113 41.168ZM290.113 34.882C289.553 34.882 289.054 35.0547 288.615 35.4C288.186 35.736 287.939 36.2307 287.873 36.884H292.241C292.213 36.2587 291.999 35.7687 291.597 35.414C291.196 35.0593 290.701 34.882 290.113 34.882ZM294.962 44.08V34.056H296.026L296.138 35.204C296.362 34.868 296.679 34.5647 297.09 34.294C297.51 34.0233 298.042 33.888 298.686 33.888C299.377 33.888 299.979 34.0467 300.492 34.364C301.005 34.6813 301.402 35.1153 301.682 35.666C301.971 36.2167 302.116 36.842 302.116 37.542C302.116 38.242 301.971 38.8673 301.682 39.418C301.402 39.9593 301.001 40.3887 300.478 40.706C299.965 41.014 299.363 41.168 298.672 41.168C298.103 41.168 297.594 41.0513 297.146 40.818C296.707 40.5847 296.371 40.258 296.138 39.838V44.08H294.962ZM298.546 40.146C299.013 40.146 299.423 40.0387 299.778 39.824C300.133 39.6 300.413 39.292 300.618 38.9C300.823 38.508 300.926 38.0507 300.926 37.528C300.926 37.0053 300.823 36.548 300.618 36.156C300.413 35.764 300.133 35.4607 299.778 35.246C299.423 35.022 299.013 34.91 298.546 34.91C298.079 34.91 297.669 35.022 297.314 35.246C296.959 35.4607 296.679 35.764 296.474 36.156C296.269 36.548 296.166 37.0053 296.166 37.528C296.166 38.0507 296.269 38.508 296.474 38.9C296.679 39.292 296.959 39.6 297.314 39.824C297.669 40.0387 298.079 40.146 298.546 40.146Z" fill="#727578"/>
<path d="M0.416 16L4.544 4.8H6.4L10.496 16H8.704L7.744 13.264H3.168L2.208 16H0.416ZM3.648 11.92H7.264L5.456 6.816L3.648 11.92ZM11.6739 16V8.064H13.1779L13.3059 9.456C13.5512 8.96533 13.9085 8.58133 14.3779 8.304C14.8579 8.016 15.4072 7.872 16.0259 7.872C16.9859 7.872 17.7379 8.17067 18.2819 8.768C18.8365 9.36533 19.1139 10.256 19.1139 11.44V16H17.4339V11.616C17.4339 10.08 16.8045 9.312 15.5459 9.312C14.9165 9.312 14.3939 9.536 13.9779 9.984C13.5725 10.432 13.3699 11.072 13.3699 11.904V16H11.6739ZM21.7514 6.56C21.4314 6.56 21.1647 6.464 20.9514 6.272C20.7487 6.06933 20.6474 5.81867 20.6474 5.52C20.6474 5.22133 20.7487 4.976 20.9514 4.784C21.1647 4.58133 21.4314 4.48 21.7514 4.48C22.0714 4.48 22.3327 4.58133 22.5354 4.784C22.7487 4.976 22.8554 5.22133 22.8554 5.52C22.8554 5.81867 22.7487 6.06933 22.5354 6.272C22.3327 6.464 22.0714 6.56 21.7514 6.56ZM20.9034 16V8.064H22.5994V16H20.9034ZM27.8463 16C27.0676 16 26.4489 15.8133 25.9903 15.44C25.5316 15.056 25.3023 14.3787 25.3023 13.408V9.488H23.9423V8.064H25.3023L25.5103 6.048H26.9983V8.064H29.2383V9.488H26.9983V13.408C26.9983 13.8453 27.0889 14.1493 27.2703 14.32C27.4623 14.48 27.7876 14.56 28.2463 14.56H29.1583V16H27.8463ZM33.355 16.192C32.683 16.192 32.1283 16.08 31.691 15.856C31.2537 15.632 30.9283 15.3387 30.715 14.976C30.5017 14.6027 30.395 14.1973 30.395 13.76C30.395 12.992 30.6937 12.384 31.291 11.936C31.8883 11.488 32.7417 11.264 33.851 11.264H35.931V11.12C35.931 10.5013 35.7603 10.0373 35.419 9.728C35.0883 9.41867 34.6563 9.264 34.123 9.264C33.6537 9.264 33.243 9.38133 32.891 9.616C32.5497 9.84 32.3417 10.176 32.267 10.624H30.571C30.6243 10.048 30.8163 9.55733 31.147 9.152C31.4883 8.736 31.915 8.42133 32.427 8.208C32.9497 7.984 33.5203 7.872 34.139 7.872C35.2483 7.872 36.107 8.16533 36.715 8.752C37.323 9.328 37.627 10.1173 37.627 11.12V16H36.155L36.011 14.64C35.787 15.0773 35.4617 15.4453 35.035 15.744C34.6083 16.0427 34.0483 16.192 33.355 16.192ZM33.691 14.816C34.1497 14.816 34.5337 14.7093 34.843 14.496C35.163 14.272 35.4083 13.9787 35.579 13.616C35.7603 13.2533 35.8723 12.8533 35.915 12.416H34.027C33.355 12.416 32.875 12.5333 32.587 12.768C32.3097 13.0027 32.171 13.296 32.171 13.648C32.171 14.0107 32.3043 14.2987 32.571 14.512C32.8483 14.7147 33.2217 14.816 33.691 14.816ZM45.3478 16.016L42.3238 4.8H44.1478L46.3718 14.08L48.9318 4.8H50.8038L53.2838 14.08L55.5078 4.8H57.3318L54.2598 16H52.2758L49.8278 7.216L47.2998 16L45.3478 16.016ZM60.3481 16.192C59.6761 16.192 59.1215 16.08 58.6841 15.856C58.2468 15.632 57.9215 15.3387 57.7081 14.976C57.4948 14.6027 57.3881 14.1973 57.3881 13.76C57.3881 12.992 57.6868 12.384 58.2841 11.936C58.8815 11.488 59.7348 11.264 60.8441 11.264H62.9241V11.12C62.9241 10.5013 62.7535 10.0373 62.4121 9.728C62.0815 9.41867 61.6495 9.264 61.1161 9.264C60.6468 9.264 60.2361 9.38133 59.8841 9.616C59.5428 9.84 59.3348 10.176 59.2601 10.624H57.5641C57.6175 10.048 57.8095 9.55733 58.1401 9.152C58.4815 8.736 58.9081 8.42133 59.4201 8.208C59.9428 7.984 60.5135 7.872 61.1321 7.872C62.2415 7.872 63.1001 8.16533 63.7081 8.752C64.3161 9.328 64.6201 10.1173 64.6201 11.12V16H63.1481L63.0041 14.64C62.7801 15.0773 62.4548 15.4453 62.0281 15.744C61.6015 16.0427 61.0415 16.192 60.3481 16.192ZM60.6841 14.816C61.1428 14.816 61.5268 14.7093 61.8361 14.496C62.1561 14.272 62.4015 13.9787 62.5721 13.616C62.7535 13.2533 62.8655 12.8533 62.9081 12.416H61.0201C60.3481 12.416 59.8681 12.5333 59.5801 12.768C59.3028 13.0027 59.1641 13.296 59.1641 13.648C59.1641 14.0107 59.2975 14.2987 59.5641 14.512C59.8415 14.7147 60.2148 14.816 60.6841 14.816ZM66.2776 16V8.064H67.7976L67.9416 9.568C68.219 9.04533 68.603 8.63467 69.0936 8.336C69.595 8.02667 70.1976 7.872 70.9016 7.872V9.648H70.4376C69.9683 9.648 69.547 9.728 69.1736 9.888C68.811 10.0373 68.5176 10.2987 68.2936 10.672C68.0803 11.0347 67.9736 11.5413 67.9736 12.192V16H66.2776ZM72.0358 16V8.064H73.5558L73.6998 9.568C73.9771 9.04533 74.3611 8.63467 74.8518 8.336C75.3531 8.02667 75.9558 7.872 76.6598 7.872V9.648H76.1958C75.7264 9.648 75.3051 9.728 74.9318 9.888C74.5691 10.0373 74.2758 10.2987 74.0518 10.672C73.8384 11.0347 73.7318 11.5413 73.7318 12.192V16H72.0358ZM81.2871 16.192C80.5085 16.192 79.8151 16.0213 79.2071 15.68C78.6098 15.328 78.1405 14.8427 77.7991 14.224C77.4578 13.6053 77.2871 12.8853 77.2871 12.064C77.2871 11.232 77.4525 10.5013 77.7831 9.872C78.1245 9.24267 78.5938 8.752 79.1911 8.4C79.7991 8.048 80.5031 7.872 81.3031 7.872C82.0818 7.872 82.7591 8.048 83.3351 8.4C83.9111 8.74133 84.3591 9.2 84.6791 9.776C84.9991 10.352 85.1591 10.9867 85.1591 11.68C85.1591 11.7867 85.1538 11.904 85.1431 12.032C85.1431 12.1493 85.1378 12.2827 85.1271 12.432H78.9511C79.0045 13.2 79.2551 13.7867 79.7031 14.192C80.1618 14.5867 80.6898 14.784 81.2871 14.784C81.7671 14.784 82.1671 14.6773 82.4871 14.464C82.8178 14.24 83.0631 13.9413 83.2231 13.568H84.9191C84.7058 14.3147 84.2791 14.9387 83.6391 15.44C83.0098 15.9413 82.2258 16.192 81.2871 16.192ZM81.2871 9.264C80.7218 9.264 80.2205 9.43467 79.7831 9.776C79.3458 10.1067 79.0791 10.608 78.9831 11.28H83.4631C83.4311 10.6613 83.2125 10.1707 82.8071 9.808C82.4018 9.44533 81.8951 9.264 81.2871 9.264ZM86.5989 16V8.064H88.1029L88.2309 9.456C88.4762 8.96533 88.8335 8.58133 89.3029 8.304C89.7829 8.016 90.3322 7.872 90.9509 7.872C91.9109 7.872 92.6629 8.17067 93.2069 8.768C93.7615 9.36533 94.0389 10.256 94.0389 11.44V16H92.3589V11.616C92.3589 10.08 91.7295 9.312 90.4709 9.312C89.8415 9.312 89.3189 9.536 88.9029 9.984C88.4975 10.432 88.2949 11.072 88.2949 11.904V16H86.5989Z" fill="black"/>
<circle cx="333" cy="37" r="3.5" fill="white" stroke="#AAACAE"/>
<path d="M333 3.875C331.589 3.87538 330.202 4.24323 328.976 4.94233C327.75 5.64144 326.727 6.64771 326.009 7.86211C325.29 9.0765 324.899 10.4572 324.876 11.8682C324.853 13.2792 325.197 14.672 325.876 15.9095L325.208 18.2466C325.147 18.4609 325.144 18.6877 325.2 18.9035C325.256 19.1193 325.368 19.3162 325.526 19.4739C325.684 19.6315 325.881 19.7441 326.096 19.8C326.312 19.8559 326.539 19.8531 326.753 19.7919L329.091 19.1242C330.177 19.7202 331.385 20.0599 332.622 20.1174C333.86 20.1749 335.094 19.9487 336.231 19.456C337.368 18.9633 338.377 18.2172 339.181 17.2748C339.985 16.3324 340.563 15.2185 340.87 14.0185C341.178 12.8184 341.207 11.5639 340.956 10.3508C340.704 9.13771 340.179 7.99821 339.419 7.01942C338.66 6.04062 337.686 5.24844 336.574 4.70345C335.461 4.15846 334.239 3.87509 333 3.875ZM333 18.875C331.765 18.8759 330.553 18.5438 329.492 17.9137C329.418 17.8701 329.337 17.842 329.253 17.831C329.168 17.8201 329.082 17.8265 329 17.8499L326.41 18.59L327.15 15.9997C327.173 15.9178 327.18 15.832 327.169 15.7475C327.158 15.6631 327.13 15.5817 327.086 15.5085C326.312 14.2039 325.991 12.6798 326.173 11.1736C326.355 9.6675 327.03 8.26388 328.093 7.18144C329.156 6.09899 330.547 5.39851 332.05 5.1891C333.553 4.97969 335.082 5.27311 336.401 6.02367C337.719 6.77422 338.752 7.93975 339.339 9.33871C339.926 10.7377 340.034 12.2915 339.646 13.7581C339.258 15.2248 338.396 16.5219 337.194 17.4474C335.992 18.3729 334.517 18.8748 333 18.875ZM337.192 10.3081C337.25 10.3661 337.296 10.435 337.327 10.5108C337.359 10.5867 337.375 10.6679 337.375 10.75C337.375 10.8321 337.359 10.9133 337.327 10.9892C337.296 11.065 337.25 11.1339 337.192 11.1919L334.692 13.6919C334.634 13.75 334.565 13.796 334.489 13.8274C334.413 13.8588 334.332 13.875 334.25 13.875C334.168 13.875 334.087 13.8588 334.011 13.8274C333.935 13.796 333.866 13.75 333.808 13.6919L331.75 11.6339L329.692 13.6919C329.634 13.75 329.565 13.7961 329.489 13.8276C329.413 13.859 329.332 13.8752 329.25 13.8753C329.168 13.8753 329.087 13.8591 329.011 13.8277C328.935 13.7963 328.866 13.7503 328.808 13.6922C328.75 13.6342 328.704 13.5652 328.672 13.4894C328.641 13.4135 328.625 13.3322 328.625 13.2501C328.625 13.168 328.641 13.0867 328.672 13.0108C328.704 12.935 328.75 12.8661 328.808 12.8081L331.308 10.3081C331.425 10.1909 331.584 10.125 331.75 10.125C331.916 10.125 332.075 10.1909 332.192 10.3081L334.25 12.3661L336.308 10.3081C336.425 10.1909 336.584 10.125 336.75 10.125C336.916 10.125 337.075 10.1909 337.192 10.3081V10.3081Z" fill="#AAACAE"/>
</svg>
