<svg width="343" height="45" viewBox="0 0 343 45" fill="none" xmlns="http://www.w3.org/2000/svg">
<path d="M1.036 41V31.2H2.212V35.526H7.294V31.2H8.47V41H7.294V36.492H2.212V41H1.036ZM13.59 41.168C12.9273 41.168 12.3393 41.0187 11.826 40.72C11.3126 40.412 10.9066 39.9873 10.608 39.446C10.3186 38.9047 10.174 38.2653 10.174 37.528C10.174 36.8 10.3186 36.1653 10.608 35.624C10.8973 35.0733 11.2986 34.6487 11.812 34.35C12.3346 34.042 12.9366 33.888 13.618 33.888C14.29 33.888 14.8686 34.042 15.354 34.35C15.8486 34.6487 16.2266 35.0453 16.488 35.54C16.7493 36.0347 16.88 36.5667 16.88 37.136C16.88 37.2387 16.8753 37.3413 16.866 37.444C16.866 37.5467 16.866 37.6633 16.866 37.794H11.336C11.364 38.326 11.4853 38.7693 11.7 39.124C11.924 39.4693 12.1993 39.7307 12.526 39.908C12.862 40.0853 13.2166 40.174 13.59 40.174C14.0753 40.174 14.4813 40.062 14.808 39.838C15.1346 39.614 15.3726 39.3107 15.522 38.928H16.684C16.4973 39.572 16.138 40.1087 15.606 40.538C15.0833 40.958 14.4113 41.168 13.59 41.168ZM13.59 34.882C13.03 34.882 12.5306 35.0547 12.092 35.4C11.6626 35.736 11.4153 36.2307 11.35 36.884H15.718C15.69 36.2587 15.4753 35.7687 15.074 35.414C14.6726 35.0593 14.178 34.882 13.59 34.882ZM18.9212 44.08L20.6432 40.328H20.2372L17.4792 34.056H18.7532L21.0492 39.46L23.4852 34.056H24.7032L20.1532 44.08H18.9212ZM26.1965 38.284L26.0565 31.2H27.3305L27.1905 38.284H26.1965ZM26.7285 41.07C26.4952 41.07 26.2992 40.9953 26.1405 40.846C25.9912 40.6873 25.9165 40.496 25.9165 40.272C25.9165 40.048 25.9912 39.8613 26.1405 39.712C26.2992 39.5533 26.4952 39.474 26.7285 39.474C26.9525 39.474 27.1392 39.5533 27.2885 39.712C27.4472 39.8613 27.5265 40.048 27.5265 40.272C27.5265 40.496 27.4472 40.6873 27.2885 40.846C27.1392 40.9953 26.9525 41.07 26.7285 41.07ZM35.4883 41V32.166H32.5623V31.2H39.5903V32.166H36.6643V41H35.4883ZM40.9562 41V30.92H42.1322V35.246C42.3656 34.8167 42.6969 34.4853 43.1262 34.252C43.5556 34.0093 44.0222 33.888 44.5262 33.888C45.3289 33.888 45.9729 34.14 46.4582 34.644C46.9436 35.1387 47.1862 35.904 47.1862 36.94V41H46.0242V37.066C46.0242 35.6193 45.4409 34.896 44.2742 34.896C43.6676 34.896 43.1589 35.1153 42.7482 35.554C42.3376 35.9833 42.1322 36.5993 42.1322 37.402V41H40.9562ZM51.278 41.168C50.6993 41.168 50.2186 41.07 49.836 40.874C49.4533 40.678 49.1686 40.4167 48.982 40.09C48.7953 39.7633 48.702 39.4087 48.702 39.026C48.702 38.3167 48.9726 37.7707 49.514 37.388C50.0553 37.0053 50.7926 36.814 51.726 36.814H53.602V36.73C53.602 36.1233 53.4433 35.666 53.126 35.358C52.8086 35.0407 52.384 34.882 51.852 34.882C51.3946 34.882 50.998 34.9987 50.662 35.232C50.3353 35.456 50.13 35.7873 50.046 36.226H48.842C48.8886 35.722 49.0566 35.2973 49.346 34.952C49.6446 34.6067 50.0133 34.3453 50.452 34.168C50.8906 33.9813 51.3573 33.888 51.852 33.888C52.8226 33.888 53.5506 34.1493 54.036 34.672C54.5306 35.1853 54.778 35.8713 54.778 36.73V41H53.728L53.658 39.754C53.462 40.146 53.1726 40.482 52.79 40.762C52.4166 41.0327 51.9126 41.168 51.278 41.168ZM51.46 40.174C51.908 40.174 52.2906 40.0573 52.608 39.824C52.9346 39.5907 53.182 39.2873 53.35 38.914C53.518 38.5407 53.602 38.1487 53.602 37.738V37.724H51.824C51.1333 37.724 50.6433 37.8453 50.354 38.088C50.074 38.3213 49.934 38.6153 49.934 38.97C49.934 39.334 50.0646 39.628 50.326 39.852C50.5966 40.0667 50.9746 40.174 51.46 40.174ZM56.5422 41V34.056H57.6062L57.6762 35.302C57.9002 34.8633 58.2222 34.518 58.6422 34.266C59.0622 34.014 59.5382 33.888 60.0702 33.888C60.8915 33.888 61.5448 34.14 62.0302 34.644C62.5248 35.1387 62.7722 35.904 62.7722 36.94V41H61.5962V37.066C61.5962 35.6193 60.9988 34.896 59.8042 34.896C59.2068 34.896 58.7075 35.1153 58.3062 35.554C57.9142 35.9833 57.7182 36.5993 57.7182 37.402V41H56.5422ZM64.5539 41V30.92H65.7299V36.982L68.5719 34.056H70.0139L66.9339 37.192L70.4059 41H68.9079L65.7299 37.402V41H64.5539ZM73.8584 41.168C73.0278 41.168 72.3371 40.958 71.7864 40.538C71.2358 40.118 70.9138 39.5487 70.8204 38.83H72.0244C72.0991 39.194 72.2904 39.5113 72.5984 39.782C72.9158 40.0433 73.3404 40.174 73.8724 40.174C74.3671 40.174 74.7311 40.0713 74.9644 39.866C75.1978 39.6513 75.3144 39.3993 75.3144 39.11C75.3144 38.69 75.1604 38.41 74.8524 38.27C74.5538 38.13 74.1291 38.004 73.5784 37.892C73.2051 37.8173 72.8318 37.71 72.4584 37.57C72.0851 37.43 71.7724 37.234 71.5204 36.982C71.2684 36.7207 71.1424 36.38 71.1424 35.96C71.1424 35.3533 71.3664 34.8587 71.8144 34.476C72.2718 34.084 72.8878 33.888 73.6624 33.888C74.3998 33.888 75.0018 34.0747 75.4684 34.448C75.9444 34.812 76.2198 35.3347 76.2944 36.016H75.1324C75.0858 35.6613 74.9318 35.386 74.6704 35.19C74.4184 34.9847 74.0778 34.882 73.6484 34.882C73.2284 34.882 72.9018 34.9707 72.6684 35.148C72.4444 35.3253 72.3324 35.5587 72.3324 35.848C72.3324 36.128 72.4771 36.3473 72.7664 36.506C73.0651 36.6647 73.4664 36.8 73.9704 36.912C74.3998 37.0053 74.8058 37.122 75.1884 37.262C75.5804 37.3927 75.8978 37.5933 76.1404 37.864C76.3924 38.1253 76.5184 38.508 76.5184 39.012C76.5278 39.6373 76.2898 40.1553 75.8044 40.566C75.3284 40.9673 74.6798 41.168 73.8584 41.168ZM82.2815 41V35.05H81.2315V34.056H82.2815V32.852C82.2815 32.18 82.4495 31.69 82.7855 31.382C83.1215 31.074 83.6115 30.92 84.2555 30.92H84.9555V31.928H84.4375C84.0828 31.928 83.8308 32.0027 83.6815 32.152C83.5322 32.292 83.4575 32.5347 83.4575 32.88V34.056H85.1655V35.05H83.4575V41H82.2815ZM89.4562 41.168C88.8028 41.168 88.2148 41.0187 87.6922 40.72C87.1695 40.4213 86.7542 40.0013 86.4462 39.46C86.1475 38.9093 85.9982 38.2653 85.9982 37.528C85.9982 36.7907 86.1522 36.1513 86.4602 35.61C86.7682 35.0593 87.1835 34.6347 87.7062 34.336C88.2382 34.0373 88.8308 33.888 89.4842 33.888C90.1375 33.888 90.7255 34.0373 91.2482 34.336C91.7708 34.6347 92.1815 35.0593 92.4802 35.61C92.7882 36.1513 92.9422 36.7907 92.9422 37.528C92.9422 38.2653 92.7882 38.9093 92.4802 39.46C92.1722 40.0013 91.7522 40.4213 91.2202 40.72C90.6975 41.0187 90.1095 41.168 89.4562 41.168ZM89.4562 40.16C89.8575 40.16 90.2308 40.062 90.5762 39.866C90.9215 39.67 91.2015 39.376 91.4162 38.984C91.6308 38.592 91.7382 38.1067 91.7382 37.528C91.7382 36.9493 91.6308 36.464 91.4162 36.072C91.2108 35.68 90.9355 35.386 90.5902 35.19C90.2448 34.994 89.8762 34.896 89.4842 34.896C89.0828 34.896 88.7095 34.994 88.3642 35.19C88.0188 35.386 87.7388 35.68 87.5242 36.072C87.3095 36.464 87.2022 36.9493 87.2022 37.528C87.2022 38.1067 87.3095 38.592 87.5242 38.984C87.7388 39.376 88.0142 39.67 88.3502 39.866C88.6955 40.062 89.0642 40.16 89.4562 40.16ZM94.5773 41V34.056H95.6413L95.7393 35.386C95.954 34.9287 96.2807 34.5647 96.7193 34.294C97.158 34.0233 97.6993 33.888 98.3433 33.888V35.12H98.0213C97.6107 35.12 97.2327 35.1947 96.8873 35.344C96.542 35.484 96.2667 35.7267 96.0613 36.072C95.856 36.4173 95.7533 36.8933 95.7533 37.5V41H94.5773ZM106.112 38.816C105.72 38.816 105.361 38.7647 105.034 38.662L104.334 39.32C104.437 39.3947 104.563 39.46 104.712 39.516C104.871 39.5627 105.095 39.6093 105.384 39.656C105.674 39.6933 106.08 39.7353 106.602 39.782C107.536 39.8473 108.203 40.062 108.604 40.426C109.006 40.79 109.206 41.266 109.206 41.854C109.206 42.2553 109.094 42.638 108.87 43.002C108.656 43.366 108.32 43.6647 107.862 43.898C107.414 44.1313 106.836 44.248 106.126 44.248C105.501 44.248 104.946 44.164 104.46 43.996C103.975 43.8373 103.597 43.59 103.326 43.254C103.056 42.9273 102.92 42.512 102.92 42.008C102.92 41.7467 102.99 41.462 103.13 41.154C103.27 40.8553 103.532 40.5707 103.914 40.3C103.709 40.216 103.532 40.1273 103.382 40.034C103.242 39.9313 103.112 39.8193 102.99 39.698V39.376L104.18 38.2C103.63 37.7333 103.354 37.1173 103.354 36.352C103.354 35.8947 103.462 35.4793 103.676 35.106C103.891 34.7327 104.204 34.4387 104.614 34.224C105.025 34 105.524 33.888 106.112 33.888C106.514 33.888 106.878 33.944 107.204 34.056H109.766V34.938L108.464 34.994C108.735 35.386 108.87 35.8387 108.87 36.352C108.87 36.8093 108.758 37.2247 108.534 37.598C108.32 37.9713 108.007 38.27 107.596 38.494C107.195 38.7087 106.7 38.816 106.112 38.816ZM106.112 37.85C106.607 37.85 106.999 37.724 107.288 37.472C107.587 37.2107 107.736 36.8373 107.736 36.352C107.736 35.876 107.587 35.512 107.288 35.26C106.999 34.9987 106.607 34.868 106.112 34.868C105.608 34.868 105.207 34.9987 104.908 35.26C104.619 35.512 104.474 35.876 104.474 36.352C104.474 36.8373 104.619 37.2107 104.908 37.472C105.207 37.724 105.608 37.85 106.112 37.85ZM104.068 41.896C104.068 42.3627 104.264 42.708 104.656 42.932C105.048 43.1653 105.538 43.282 106.126 43.282C106.705 43.282 107.167 43.156 107.512 42.904C107.867 42.652 108.044 42.316 108.044 41.896C108.044 41.5973 107.923 41.336 107.68 41.112C107.438 40.8973 106.99 40.7713 106.336 40.734C105.823 40.6967 105.38 40.65 105.006 40.594C104.624 40.7993 104.372 41.0187 104.25 41.252C104.129 41.4947 104.068 41.7093 104.068 41.896ZM113.942 41.168C113.279 41.168 112.691 41.0187 112.178 40.72C111.664 40.412 111.258 39.9873 110.96 39.446C110.67 38.9047 110.526 38.2653 110.526 37.528C110.526 36.8 110.67 36.1653 110.96 35.624C111.249 35.0733 111.65 34.6487 112.164 34.35C112.686 34.042 113.288 33.888 113.97 33.888C114.642 33.888 115.22 34.042 115.706 34.35C116.2 34.6487 116.578 35.0453 116.84 35.54C117.101 36.0347 117.232 36.5667 117.232 37.136C117.232 37.2387 117.227 37.3413 117.218 37.444C117.218 37.5467 117.218 37.6633 117.218 37.794H111.688C111.716 38.326 111.837 38.7693 112.052 39.124C112.276 39.4693 112.551 39.7307 112.878 39.908C113.214 40.0853 113.568 40.174 113.942 40.174C114.427 40.174 114.833 40.062 115.16 39.838C115.486 39.614 115.724 39.3107 115.874 38.928H117.036C116.849 39.572 116.49 40.1087 115.958 40.538C115.435 40.958 114.763 41.168 113.942 41.168ZM113.942 34.882C113.382 34.882 112.882 35.0547 112.444 35.4C112.014 35.736 111.767 36.2307 111.702 36.884H116.07C116.042 36.2587 115.827 35.7687 115.426 35.414C115.024 35.0593 114.53 34.882 113.942 34.882ZM121.302 41C120.667 41 120.168 40.846 119.804 40.538C119.44 40.23 119.258 39.6747 119.258 38.872V35.05H118.054V34.056H119.258L119.412 32.39H120.434V34.056H122.478V35.05H120.434V38.872C120.434 39.3107 120.522 39.6093 120.7 39.768C120.877 39.9173 121.19 39.992 121.638 39.992H122.366V41H121.302ZM126.716 41C126.081 41 125.582 40.846 125.218 40.538C124.854 40.23 124.672 39.6747 124.672 38.872V35.05H123.468V34.056H124.672L124.826 32.39H125.848V34.056H127.892V35.05H125.848V38.872C125.848 39.3107 125.937 39.6093 126.114 39.768C126.291 39.9173 126.604 39.992 127.052 39.992H127.78V41H126.716ZM130.1 32.516C129.867 32.516 129.671 32.4413 129.512 32.292C129.363 32.1333 129.288 31.9373 129.288 31.704C129.288 31.48 129.363 31.2933 129.512 31.144C129.671 30.9947 129.867 30.92 130.1 30.92C130.324 30.92 130.515 30.9947 130.674 31.144C130.833 31.2933 130.912 31.48 130.912 31.704C130.912 31.9373 130.833 32.1333 130.674 32.292C130.515 32.4413 130.324 32.516 130.1 32.516ZM129.512 41V34.056H130.688V41H129.512ZM132.736 41V34.056H133.8L133.87 35.302C134.094 34.8633 134.416 34.518 134.836 34.266C135.256 34.014 135.732 33.888 136.264 33.888C137.085 33.888 137.738 34.14 138.224 34.644C138.718 35.1387 138.966 35.904 138.966 36.94V41H137.79V37.066C137.79 35.6193 137.192 34.896 135.998 34.896C135.4 34.896 134.901 35.1153 134.5 35.554C134.108 35.9833 133.912 36.5993 133.912 37.402V41H132.736ZM143.491 38.816C143.099 38.816 142.74 38.7647 142.413 38.662L141.713 39.32C141.816 39.3947 141.942 39.46 142.091 39.516C142.25 39.5627 142.474 39.6093 142.763 39.656C143.053 39.6933 143.459 39.7353 143.981 39.782C144.915 39.8473 145.582 40.062 145.983 40.426C146.385 40.79 146.585 41.266 146.585 41.854C146.585 42.2553 146.473 42.638 146.249 43.002C146.035 43.366 145.699 43.6647 145.241 43.898C144.793 44.1313 144.215 44.248 143.505 44.248C142.88 44.248 142.325 44.164 141.839 43.996C141.354 43.8373 140.976 43.59 140.705 43.254C140.435 42.9273 140.299 42.512 140.299 42.008C140.299 41.7467 140.369 41.462 140.509 41.154C140.649 40.8553 140.911 40.5707 141.293 40.3C141.088 40.216 140.911 40.1273 140.761 40.034C140.621 39.9313 140.491 39.8193 140.369 39.698V39.376L141.559 38.2C141.009 37.7333 140.733 37.1173 140.733 36.352C140.733 35.8947 140.841 35.4793 141.055 35.106C141.27 34.7327 141.583 34.4387 141.993 34.224C142.404 34 142.903 33.888 143.491 33.888C143.893 33.888 144.257 33.944 144.583 34.056H147.145V34.938L145.843 34.994C146.114 35.386 146.249 35.8387 146.249 36.352C146.249 36.8093 146.137 37.2247 145.913 37.598C145.699 37.9713 145.386 38.27 144.975 38.494C144.574 38.7087 144.079 38.816 143.491 38.816ZM143.491 37.85C143.986 37.85 144.378 37.724 144.667 37.472C144.966 37.2107 145.115 36.8373 145.115 36.352C145.115 35.876 144.966 35.512 144.667 35.26C144.378 34.9987 143.986 34.868 143.491 34.868C142.987 34.868 142.586 34.9987 142.287 35.26C141.998 35.512 141.853 35.876 141.853 36.352C141.853 36.8373 141.998 37.2107 142.287 37.472C142.586 37.724 142.987 37.85 143.491 37.85ZM141.447 41.896C141.447 42.3627 141.643 42.708 142.035 42.932C142.427 43.1653 142.917 43.282 143.505 43.282C144.084 43.282 144.546 43.156 144.891 42.904C145.246 42.652 145.423 42.316 145.423 41.896C145.423 41.5973 145.302 41.336 145.059 41.112C144.817 40.8973 144.369 40.7713 143.715 40.734C143.202 40.6967 142.759 40.65 142.385 40.594C142.003 40.7993 141.751 41.0187 141.629 41.252C141.508 41.4947 141.447 41.7093 141.447 41.896ZM155.887 41.168C155.318 41.168 154.809 41.0513 154.361 40.818C153.922 40.5847 153.586 40.258 153.353 39.838L153.241 41H152.177V30.92H153.353V35.204C153.577 34.868 153.894 34.5647 154.305 34.294C154.725 34.0233 155.257 33.888 155.901 33.888C156.592 33.888 157.194 34.0467 157.707 34.364C158.22 34.6813 158.617 35.1153 158.897 35.666C159.186 36.2167 159.331 36.842 159.331 37.542C159.331 38.242 159.186 38.8673 158.897 39.418C158.617 39.9593 158.216 40.3887 157.693 40.706C157.18 41.014 156.578 41.168 155.887 41.168ZM155.761 40.146C156.228 40.146 156.638 40.0387 156.993 39.824C157.348 39.6 157.628 39.292 157.833 38.9C158.038 38.508 158.141 38.0507 158.141 37.528C158.141 37.0053 158.038 36.548 157.833 36.156C157.628 35.764 157.348 35.4607 156.993 35.246C156.638 35.022 156.228 34.91 155.761 34.91C155.294 34.91 154.884 35.022 154.529 35.246C154.174 35.4607 153.894 35.764 153.689 36.156C153.484 36.548 153.381 37.0053 153.381 37.528C153.381 38.0507 153.484 38.508 153.689 38.9C153.894 39.292 154.174 39.6 154.529 39.824C154.884 40.0387 155.294 40.146 155.761 40.146ZM163.278 41.168C162.699 41.168 162.219 41.07 161.836 40.874C161.453 40.678 161.169 40.4167 160.982 40.09C160.795 39.7633 160.702 39.4087 160.702 39.026C160.702 38.3167 160.973 37.7707 161.514 37.388C162.055 37.0053 162.793 36.814 163.726 36.814H165.602V36.73C165.602 36.1233 165.443 35.666 165.126 35.358C164.809 35.0407 164.384 34.882 163.852 34.882C163.395 34.882 162.998 34.9987 162.662 35.232C162.335 35.456 162.13 35.7873 162.046 36.226H160.842C160.889 35.722 161.057 35.2973 161.346 34.952C161.645 34.6067 162.013 34.3453 162.452 34.168C162.891 33.9813 163.357 33.888 163.852 33.888C164.823 33.888 165.551 34.1493 166.036 34.672C166.531 35.1853 166.778 35.8713 166.778 36.73V41H165.728L165.658 39.754C165.462 40.146 165.173 40.482 164.79 40.762C164.417 41.0327 163.913 41.168 163.278 41.168ZM163.46 40.174C163.908 40.174 164.291 40.0573 164.608 39.824C164.935 39.5907 165.182 39.2873 165.35 38.914C165.518 38.5407 165.602 38.1487 165.602 37.738V37.724H163.824C163.133 37.724 162.643 37.8453 162.354 38.088C162.074 38.3213 161.934 38.6153 161.934 38.97C161.934 39.334 162.065 39.628 162.326 39.852C162.597 40.0667 162.975 40.174 163.46 40.174ZM171.734 41.168C171.072 41.168 170.474 41.0187 169.942 40.72C169.42 40.412 169.004 39.9873 168.696 39.446C168.398 38.8953 168.248 38.256 168.248 37.528C168.248 36.8 168.398 36.1653 168.696 35.624C169.004 35.0733 169.42 34.6487 169.942 34.35C170.474 34.042 171.072 33.888 171.734 33.888C172.556 33.888 173.246 34.1027 173.806 34.532C174.376 34.9613 174.735 35.5353 174.884 36.254H173.68C173.587 35.8247 173.358 35.4933 172.994 35.26C172.63 35.0173 172.206 34.896 171.72 34.896C171.328 34.896 170.96 34.994 170.614 35.19C170.269 35.386 169.989 35.68 169.774 36.072C169.56 36.464 169.452 36.9493 169.452 37.528C169.452 38.1067 169.56 38.592 169.774 38.984C169.989 39.376 170.269 39.6747 170.614 39.88C170.96 40.076 171.328 40.174 171.72 40.174C172.206 40.174 172.63 40.0573 172.994 39.824C173.358 39.5813 173.587 39.2407 173.68 38.802H174.884C174.744 39.502 174.39 40.0713 173.82 40.51C173.251 40.9487 172.556 41.168 171.734 41.168ZM176.527 41V30.92H177.703V36.982L180.545 34.056H181.987L178.907 37.192L182.379 41H180.881L177.703 37.402V41H176.527ZM190.03 41C189.396 41 188.896 40.846 188.532 40.538C188.168 40.23 187.986 39.6747 187.986 38.872V35.05H186.782V34.056H187.986L188.14 32.39H189.162V34.056H191.206V35.05H189.162V38.872C189.162 39.3107 189.251 39.6093 189.428 39.768C189.606 39.9173 189.918 39.992 190.366 39.992H191.094V41H190.03ZM195.673 41.168C195.02 41.168 194.432 41.0187 193.909 40.72C193.386 40.4213 192.971 40.0013 192.663 39.46C192.364 38.9093 192.215 38.2653 192.215 37.528C192.215 36.7907 192.369 36.1513 192.677 35.61C192.985 35.0593 193.4 34.6347 193.923 34.336C194.455 34.0373 195.048 33.888 195.701 33.888C196.354 33.888 196.942 34.0373 197.465 34.336C197.988 34.6347 198.398 35.0593 198.697 35.61C199.005 36.1513 199.159 36.7907 199.159 37.528C199.159 38.2653 199.005 38.9093 198.697 39.46C198.389 40.0013 197.969 40.4213 197.437 40.72C196.914 41.0187 196.326 41.168 195.673 41.168ZM195.673 40.16C196.074 40.16 196.448 40.062 196.793 39.866C197.138 39.67 197.418 39.376 197.633 38.984C197.848 38.592 197.955 38.1067 197.955 37.528C197.955 36.9493 197.848 36.464 197.633 36.072C197.428 35.68 197.152 35.386 196.807 35.19C196.462 34.994 196.093 34.896 195.701 34.896C195.3 34.896 194.926 34.994 194.581 35.19C194.236 35.386 193.956 35.68 193.741 36.072C193.526 36.464 193.419 36.9493 193.419 37.528C193.419 38.1067 193.526 38.592 193.741 38.984C193.956 39.376 194.231 39.67 194.567 39.866C194.912 40.062 195.281 40.16 195.673 40.16ZM204.499 41V34.056H205.563L205.647 35.064C205.871 34.6907 206.17 34.4013 206.543 34.196C206.917 33.9907 207.337 33.888 207.803 33.888C208.354 33.888 208.825 34 209.217 34.224C209.619 34.448 209.927 34.7887 210.141 35.246C210.384 34.826 210.715 34.4947 211.135 34.252C211.565 34.0093 212.027 33.888 212.521 33.888C213.352 33.888 214.015 34.14 214.509 34.644C215.004 35.1387 215.251 35.904 215.251 36.94V41H214.089V37.066C214.089 36.3473 213.945 35.806 213.655 35.442C213.366 35.078 212.951 34.896 212.409 34.896C211.849 34.896 211.383 35.1153 211.009 35.554C210.645 35.9833 210.463 36.5993 210.463 37.402V41H209.287V37.066C209.287 36.3473 209.143 35.806 208.853 35.442C208.564 35.078 208.149 34.896 207.607 34.896C207.057 34.896 206.595 35.1153 206.221 35.554C205.857 35.9833 205.675 36.5993 205.675 37.402V41H204.499ZM220.145 41.168C219.482 41.168 218.894 41.0187 218.381 40.72C217.867 40.412 217.461 39.9873 217.163 39.446C216.873 38.9047 216.729 38.2653 216.729 37.528C216.729 36.8 216.873 36.1653 217.163 35.624C217.452 35.0733 217.853 34.6487 218.367 34.35C218.889 34.042 219.491 33.888 220.173 33.888C220.845 33.888 221.423 34.042 221.909 34.35C222.403 34.6487 222.781 35.0453 223.043 35.54C223.304 36.0347 223.435 36.5667 223.435 37.136C223.435 37.2387 223.43 37.3413 223.421 37.444C223.421 37.5467 223.421 37.6633 223.421 37.794H217.891C217.919 38.326 218.04 38.7693 218.255 39.124C218.479 39.4693 218.754 39.7307 219.081 39.908C219.417 40.0853 219.771 40.174 220.145 40.174C220.63 40.174 221.036 40.062 221.363 39.838C221.689 39.614 221.927 39.3107 222.077 38.928H223.239C223.052 39.572 222.693 40.1087 222.161 40.538C221.638 40.958 220.966 41.168 220.145 41.168ZM220.145 34.882C219.585 34.882 219.085 35.0547 218.647 35.4C218.217 35.736 217.97 36.2307 217.905 36.884H222.273C222.245 36.2587 222.03 35.7687 221.629 35.414C221.227 35.0593 220.733 34.882 220.145 34.882ZM225.399 41.07C225.166 41.07 224.97 40.9953 224.811 40.846C224.662 40.6873 224.587 40.496 224.587 40.272C224.587 40.048 224.662 39.8613 224.811 39.712C224.97 39.5533 225.166 39.474 225.399 39.474C225.623 39.474 225.81 39.5533 225.959 39.712C226.118 39.8613 226.197 40.048 226.197 40.272C226.197 40.496 226.118 40.6873 225.959 40.846C225.81 40.9953 225.623 41.07 225.399 41.07ZM228.134 41.07C227.9 41.07 227.704 40.9953 227.546 40.846C227.396 40.6873 227.322 40.496 227.322 40.272C227.322 40.048 227.396 39.8613 227.546 39.712C227.704 39.5533 227.9 39.474 228.134 39.474C228.358 39.474 228.544 39.5533 228.694 39.712C228.852 39.8613 228.932 40.048 228.932 40.272C228.932 40.496 228.852 40.6873 228.694 40.846C228.544 40.9953 228.358 41.07 228.134 41.07ZM230.868 41.07C230.635 41.07 230.439 40.9953 230.28 40.846C230.131 40.6873 230.056 40.496 230.056 40.272C230.056 40.048 230.131 39.8613 230.28 39.712C230.439 39.5533 230.635 39.474 230.868 39.474C231.092 39.474 231.279 39.5533 231.428 39.712C231.587 39.8613 231.666 40.048 231.666 40.272C231.666 40.496 231.587 40.6873 231.428 40.846C231.279 40.9953 231.092 41.07 230.868 41.07Z" fill="#727578"/>
<path d="M242.89 37.108C243.534 37.108 244.066 36.576 244.066 35.932C244.066 35.288 243.534 34.756 242.89 34.756C242.246 34.756 241.714 35.288 241.714 35.932C241.714 36.576 242.246 37.108 242.89 37.108ZM254.186 41V32.516L252.604 32.866V32.054L254.578 31.2H255.376V41H254.186ZM260.678 41.168C260.034 41.168 259.456 41.0513 258.942 40.818C258.429 40.5753 258.023 40.244 257.724 39.824C257.435 39.3947 257.29 38.9 257.29 38.34C257.29 37.7427 257.463 37.206 257.808 36.73C258.163 36.254 258.63 35.9367 259.208 35.778C258.676 35.6007 258.266 35.316 257.976 34.924C257.687 34.532 257.542 34.1027 257.542 33.636C257.542 33.16 257.668 32.726 257.92 32.334C258.172 31.9327 258.532 31.6153 258.998 31.382C259.465 31.1487 260.025 31.032 260.678 31.032C261.332 31.032 261.892 31.1487 262.358 31.382C262.825 31.6153 263.184 31.9327 263.436 32.334C263.688 32.726 263.814 33.16 263.814 33.636C263.814 34.0933 263.67 34.5227 263.38 34.924C263.091 35.316 262.68 35.6007 262.148 35.778C262.727 35.9367 263.189 36.254 263.534 36.73C263.889 37.206 264.066 37.7427 264.066 38.34C264.066 38.9 263.917 39.3947 263.618 39.824C263.329 40.244 262.928 40.5753 262.414 40.818C261.901 41.0513 261.322 41.168 260.678 41.168ZM260.678 35.358C261.276 35.358 261.747 35.2087 262.092 34.91C262.447 34.602 262.624 34.2007 262.624 33.706C262.624 33.1553 262.452 32.74 262.106 32.46C261.761 32.18 261.285 32.04 260.678 32.04C260.072 32.04 259.596 32.18 259.25 32.46C258.914 32.74 258.746 33.1553 258.746 33.706C258.746 34.2007 258.919 34.602 259.264 34.91C259.61 35.2087 260.081 35.358 260.678 35.358ZM260.678 40.132C261.416 40.132 261.966 39.964 262.33 39.628C262.704 39.2827 262.89 38.83 262.89 38.27C262.89 37.6353 262.69 37.1547 262.288 36.828C261.887 36.5013 261.35 36.338 260.678 36.338C260.006 36.338 259.47 36.5013 259.068 36.828C258.667 37.1547 258.466 37.6353 258.466 38.27C258.466 38.83 258.648 39.2827 259.012 39.628C259.386 39.964 259.941 40.132 260.678 40.132ZM272.816 41.168C272.098 41.168 271.472 41.0373 270.94 40.776C270.408 40.5147 269.998 40.1507 269.708 39.684C269.419 39.2173 269.274 38.676 269.274 38.06H270.506C270.506 38.4427 270.595 38.7973 270.772 39.124C270.95 39.4413 271.206 39.698 271.542 39.894C271.888 40.0807 272.312 40.174 272.816 40.174C273.479 40.174 273.992 40.0153 274.356 39.698C274.72 39.3807 274.902 38.984 274.902 38.508C274.902 38.116 274.818 37.8033 274.65 37.57C274.482 37.3273 274.254 37.1313 273.964 36.982C273.684 36.8327 273.358 36.702 272.984 36.59C272.62 36.478 272.238 36.352 271.836 36.212C271.08 35.9507 270.52 35.6287 270.156 35.246C269.792 34.854 269.61 34.3453 269.61 33.72C269.601 33.1973 269.722 32.7353 269.974 32.334C270.226 31.9233 270.581 31.606 271.038 31.382C271.505 31.1487 272.056 31.032 272.69 31.032C273.316 31.032 273.857 31.1487 274.314 31.382C274.781 31.6153 275.14 31.9373 275.392 32.348C275.654 32.7587 275.789 33.2253 275.798 33.748H274.566C274.566 33.4773 274.496 33.2113 274.356 32.95C274.216 32.6793 274.002 32.46 273.712 32.292C273.432 32.124 273.078 32.04 272.648 32.04C272.116 32.0307 271.678 32.166 271.332 32.446C270.996 32.726 270.828 33.1133 270.828 33.608C270.828 34.028 270.945 34.35 271.178 34.574C271.421 34.798 271.757 34.9847 272.186 35.134C272.616 35.274 273.11 35.4373 273.67 35.624C274.137 35.792 274.557 35.988 274.93 36.212C275.304 36.436 275.593 36.7253 275.798 37.08C276.013 37.4347 276.12 37.8873 276.12 38.438C276.12 38.9047 275.999 39.348 275.756 39.768C275.514 40.1787 275.145 40.5147 274.65 40.776C274.165 41.0373 273.554 41.168 272.816 41.168ZM280.84 41.168C280.177 41.168 279.589 41.0187 279.076 40.72C278.563 40.412 278.157 39.9873 277.858 39.446C277.569 38.9047 277.424 38.2653 277.424 37.528C277.424 36.8 277.569 36.1653 277.858 35.624C278.147 35.0733 278.549 34.6487 279.062 34.35C279.585 34.042 280.187 33.888 280.868 33.888C281.54 33.888 282.119 34.042 282.604 34.35C283.099 34.6487 283.477 35.0453 283.738 35.54C283.999 36.0347 284.13 36.5667 284.13 37.136C284.13 37.2387 284.125 37.3413 284.116 37.444C284.116 37.5467 284.116 37.6633 284.116 37.794H278.586C278.614 38.326 278.735 38.7693 278.95 39.124C279.174 39.4693 279.449 39.7307 279.776 39.908C280.112 40.0853 280.467 40.174 280.84 40.174C281.325 40.174 281.731 40.062 282.058 39.838C282.385 39.614 282.623 39.3107 282.772 38.928H283.934C283.747 39.572 283.388 40.1087 282.856 40.538C282.333 40.958 281.661 41.168 280.84 41.168ZM280.84 34.882C280.28 34.882 279.781 35.0547 279.342 35.4C278.913 35.736 278.665 36.2307 278.6 36.884H282.968C282.94 36.2587 282.725 35.7687 282.324 35.414C281.923 35.0593 281.428 34.882 280.84 34.882ZM285.689 44.08V34.056H286.753L286.865 35.204C287.089 34.868 287.406 34.5647 287.817 34.294C288.237 34.0233 288.769 33.888 289.413 33.888C290.103 33.888 290.705 34.0467 291.219 34.364C291.732 34.6813 292.129 35.1153 292.409 35.666C292.698 36.2167 292.843 36.842 292.843 37.542C292.843 38.242 292.698 38.8673 292.409 39.418C292.129 39.9593 291.727 40.3887 291.205 40.706C290.691 41.014 290.089 41.168 289.399 41.168C288.829 41.168 288.321 41.0513 287.873 40.818C287.434 40.5847 287.098 40.258 286.865 39.838V44.08H285.689ZM289.273 40.146C289.739 40.146 290.15 40.0387 290.505 39.824C290.859 39.6 291.139 39.292 291.345 38.9C291.55 38.508 291.653 38.0507 291.653 37.528C291.653 37.0053 291.55 36.548 291.345 36.156C291.139 35.764 290.859 35.4607 290.505 35.246C290.15 35.022 289.739 34.91 289.273 34.91C288.806 34.91 288.395 35.022 288.041 35.246C287.686 35.4607 287.406 35.764 287.201 36.156C286.995 36.548 286.893 37.0053 286.893 37.528C286.893 38.0507 286.995 38.508 287.201 38.9C287.406 39.292 287.686 39.6 288.041 39.824C288.395 40.0387 288.806 40.146 289.273 40.146Z" fill="#727578"/>
<path d="M1.136 16V4.8H8.256V6.176H2.832V9.664H7.776V11.008H2.832V14.624H8.256V16H1.136ZM9.89263 16V4.48H11.5886V16H9.89263ZM17.1284 16.192C16.3497 16.192 15.6564 16.0213 15.0484 15.68C14.451 15.328 13.9817 14.8427 13.6404 14.224C13.299 13.6053 13.1284 12.8853 13.1284 12.064C13.1284 11.232 13.2937 10.5013 13.6244 9.872C13.9657 9.24267 14.435 8.752 15.0324 8.4C15.6404 8.048 16.3444 7.872 17.1444 7.872C17.923 7.872 18.6004 8.048 19.1764 8.4C19.7524 8.74133 20.2004 9.2 20.5204 9.776C20.8404 10.352 21.0004 10.9867 21.0004 11.68C21.0004 11.7867 20.995 11.904 20.9844 12.032C20.9844 12.1493 20.979 12.2827 20.9684 12.432H14.7924C14.8457 13.2 15.0964 13.7867 15.5444 14.192C16.003 14.5867 16.531 14.784 17.1284 14.784C17.6084 14.784 18.0084 14.6773 18.3284 14.464C18.659 14.24 18.9044 13.9413 19.0644 13.568H20.7604C20.547 14.3147 20.1204 14.9387 19.4804 15.44C18.851 15.9413 18.067 16.192 17.1284 16.192ZM17.1284 9.264C16.563 9.264 16.0617 9.43467 15.6244 9.776C15.187 10.1067 14.9204 10.608 14.8244 11.28H19.3044C19.2724 10.6613 19.0537 10.1707 18.6484 9.808C18.243 9.44533 17.7364 9.264 17.1284 9.264ZM25.1281 16.192C24.4561 16.192 23.9015 16.08 23.4641 15.856C23.0268 15.632 22.7015 15.3387 22.4881 14.976C22.2748 14.6027 22.1681 14.1973 22.1681 13.76C22.1681 12.992 22.4668 12.384 23.0641 11.936C23.6615 11.488 24.5148 11.264 25.6241 11.264H27.7041V11.12C27.7041 10.5013 27.5335 10.0373 27.1921 9.728C26.8615 9.41867 26.4295 9.264 25.8961 9.264C25.4268 9.264 25.0161 9.38133 24.6641 9.616C24.3228 9.84 24.1148 10.176 24.0401 10.624H22.3441C22.3975 10.048 22.5895 9.55733 22.9201 9.152C23.2615 8.736 23.6881 8.42133 24.2001 8.208C24.7228 7.984 25.2935 7.872 25.9121 7.872C27.0215 7.872 27.8801 8.16533 28.4881 8.752C29.0961 9.328 29.4001 10.1173 29.4001 11.12V16H27.9281L27.7841 14.64C27.5601 15.0773 27.2348 15.4453 26.8081 15.744C26.3815 16.0427 25.8215 16.192 25.1281 16.192ZM25.4641 14.816C25.9228 14.816 26.3068 14.7093 26.6161 14.496C26.9361 14.272 27.1815 13.9787 27.3521 13.616C27.5335 13.2533 27.6455 12.8533 27.6881 12.416H25.8001C25.1281 12.416 24.6481 12.5333 24.3601 12.768C24.0828 13.0027 23.9441 13.296 23.9441 13.648C23.9441 14.0107 24.0775 14.2987 24.3441 14.512C24.6215 14.7147 24.9948 14.816 25.4641 14.816ZM31.0576 16V8.064H32.5616L32.6896 9.456C32.935 8.96533 33.2923 8.58133 33.7616 8.304C34.2416 8.016 34.791 7.872 35.4096 7.872C36.3696 7.872 37.1216 8.17067 37.6656 8.768C38.2203 9.36533 38.4976 10.256 38.4976 11.44V16H36.8176V11.616C36.8176 10.08 36.1883 9.312 34.9296 9.312C34.3003 9.312 33.7776 9.536 33.3616 9.984C32.9563 10.432 32.7536 11.072 32.7536 11.904V16H31.0576ZM43.8871 16.192C43.1298 16.192 42.4471 16.0213 41.8391 15.68C41.2418 15.328 40.7671 14.8427 40.4151 14.224C40.0631 13.5947 39.8871 12.864 39.8871 12.032C39.8871 11.2 40.0631 10.4747 40.4151 9.856C40.7778 9.22667 41.2631 8.74133 41.8711 8.4C42.4791 8.048 43.1565 7.872 43.9031 7.872C44.6605 7.872 45.3378 8.048 45.9351 8.4C46.5431 8.74133 47.0231 9.22667 47.3751 9.856C47.7378 10.4747 47.9191 11.2 47.9191 12.032C47.9191 12.864 47.7378 13.5947 47.3751 14.224C47.0231 14.8427 46.5431 15.328 45.9351 15.68C45.3271 16.0213 44.6445 16.192 43.8871 16.192ZM43.8871 14.736C44.2925 14.736 44.6658 14.6347 45.0071 14.432C45.3591 14.2293 45.6418 13.9307 45.8551 13.536C46.0685 13.1307 46.1751 12.6293 46.1751 12.032C46.1751 11.4347 46.0685 10.9387 45.8551 10.544C45.6525 10.1387 45.3751 9.83467 45.0231 9.632C44.6818 9.42933 44.3085 9.328 43.9031 9.328C43.4978 9.328 43.1191 9.42933 42.7671 9.632C42.4258 9.83467 42.1485 10.1387 41.9351 10.544C41.7218 10.9387 41.6151 11.4347 41.6151 12.032C41.6151 12.6293 41.7218 13.1307 41.9351 13.536C42.1485 13.9307 42.4258 14.2293 42.7671 14.432C43.1085 14.6347 43.4818 14.736 43.8871 14.736ZM49.4333 16V8.064H50.9533L51.0973 9.568C51.3746 9.04533 51.7586 8.63467 52.2493 8.336C52.7506 8.02667 53.3533 7.872 54.0573 7.872V9.648H53.5933C53.1239 9.648 52.7026 9.728 52.3293 9.888C51.9666 10.0373 51.6733 10.2987 51.4493 10.672C51.2359 11.0347 51.1293 11.5413 51.1293 12.192V16H49.4333ZM58.9666 16V4.8H62.8866C63.7613 4.8 64.4866 4.94933 65.0626 5.248C65.6386 5.536 66.0653 5.936 66.3426 6.448C66.6306 6.94933 66.7746 7.52 66.7746 8.16C66.7746 8.768 66.636 9.328 66.3586 9.84C66.092 10.3413 65.6706 10.7413 65.0946 11.04C64.5186 11.3387 63.7826 11.488 62.8866 11.488H60.6626V16H58.9666ZM60.6626 10.096H62.8066C63.6066 10.096 64.1773 9.92533 64.5186 9.584C64.8706 9.232 65.0466 8.75733 65.0466 8.16C65.0466 7.54133 64.8706 7.06133 64.5186 6.72C64.1773 6.368 63.6066 6.192 62.8066 6.192H60.6626V10.096ZM71.3415 16.192C70.5628 16.192 69.8695 16.0213 69.2615 15.68C68.6642 15.328 68.1948 14.8427 67.8535 14.224C67.5122 13.6053 67.3415 12.8853 67.3415 12.064C67.3415 11.232 67.5068 10.5013 67.8375 9.872C68.1788 9.24267 68.6482 8.752 69.2455 8.4C69.8535 8.048 70.5575 7.872 71.3575 7.872C72.1362 7.872 72.8135 8.048 73.3895 8.4C73.9655 8.74133 74.4135 9.2 74.7335 9.776C75.0535 10.352 75.2135 10.9867 75.2135 11.68C75.2135 11.7867 75.2082 11.904 75.1975 12.032C75.1975 12.1493 75.1922 12.2827 75.1815 12.432H69.0055C69.0588 13.2 69.3095 13.7867 69.7575 14.192C70.2162 14.5867 70.7442 14.784 71.3415 14.784C71.8215 14.784 72.2215 14.6773 72.5415 14.464C72.8722 14.24 73.1175 13.9413 73.2775 13.568H74.9735C74.7602 14.3147 74.3335 14.9387 73.6935 15.44C73.0642 15.9413 72.2802 16.192 71.3415 16.192ZM71.3415 9.264C70.7762 9.264 70.2748 9.43467 69.8375 9.776C69.4002 10.1067 69.1335 10.608 69.0375 11.28H73.5175C73.4855 10.6613 73.2668 10.1707 72.8615 9.808C72.4562 9.44533 71.9495 9.264 71.3415 9.264ZM76.6533 16V8.064H78.1573L78.2853 9.456C78.5306 8.96533 78.8879 8.58133 79.3573 8.304C79.8373 8.016 80.3866 7.872 81.0053 7.872C81.9653 7.872 82.7173 8.17067 83.2613 8.768C83.8159 9.36533 84.0933 10.256 84.0933 11.44V16H82.4133V11.616C82.4133 10.08 81.7839 9.312 80.5253 9.312C79.8959 9.312 79.3733 9.536 78.9573 9.984C78.5519 10.432 78.3493 11.072 78.3493 11.904V16H76.6533ZM88.4588 16.192C87.7868 16.192 87.2321 16.08 86.7948 15.856C86.3574 15.632 86.0321 15.3387 85.8188 14.976C85.6054 14.6027 85.4988 14.1973 85.4988 13.76C85.4988 12.992 85.7974 12.384 86.3948 11.936C86.9921 11.488 87.8454 11.264 88.9548 11.264H91.0348V11.12C91.0348 10.5013 90.8641 10.0373 90.5228 9.728C90.1921 9.41867 89.7601 9.264 89.2268 9.264C88.7574 9.264 88.3468 9.38133 87.9948 9.616C87.6534 9.84 87.4454 10.176 87.3708 10.624H85.6748C85.7281 10.048 85.9201 9.55733 86.2508 9.152C86.5921 8.736 87.0188 8.42133 87.5308 8.208C88.0534 7.984 88.6241 7.872 89.2428 7.872C90.3521 7.872 91.2108 8.16533 91.8188 8.752C92.4268 9.328 92.7308 10.1173 92.7308 11.12V16H91.2588L91.1148 14.64C90.8908 15.0773 90.5654 15.4453 90.1388 15.744C89.7121 16.0427 89.1521 16.192 88.4588 16.192ZM88.7948 14.816C89.2534 14.816 89.6374 14.7093 89.9468 14.496C90.2668 14.272 90.5121 13.9787 90.6828 13.616C90.8641 13.2533 90.9761 12.8533 91.0188 12.416H89.1308C88.4588 12.416 87.9788 12.5333 87.6908 12.768C87.4134 13.0027 87.2748 13.296 87.2748 13.648C87.2748 14.0107 87.4081 14.2987 87.6748 14.512C87.9521 14.7147 88.3254 14.816 88.7948 14.816Z" fill="black"/>
<circle cx="333" cy="37" r="3.5" fill="white" stroke="#AAACAE"/>
<path d="M341.124 6.3601C341.124 6.34855 341.123 6.33701 341.122 6.32549C341.122 6.31608 341.121 6.30674 341.12 6.29747C341.118 6.28667 341.117 6.27593 341.115 6.26521C341.113 6.2555 341.111 6.24587 341.109 6.23634C341.107 6.22619 341.104 6.21614 341.101 6.20609C341.099 6.19643 341.096 6.18684 341.093 6.17738C341.089 6.16758 341.086 6.15791 341.082 6.14825C341.078 6.13897 341.075 6.12975 341.071 6.12069C341.066 6.11121 341.062 6.10189 341.057 6.09258C341.052 6.08365 341.048 6.07482 341.043 6.06616C341.038 6.05731 341.033 6.04861 341.027 6.03996C341.021 6.0311 341.016 6.02241 341.01 6.01386C341.004 6.00593 340.998 5.99815 340.992 5.9904C340.985 5.98161 340.978 5.97306 340.971 5.96465C340.967 5.96072 340.964 5.95655 340.961 5.95267C340.958 5.94941 340.954 5.94665 340.951 5.94344C340.944 5.93551 340.936 5.92784 340.928 5.92031C340.921 5.91344 340.913 5.90665 340.906 5.90018C340.898 5.89366 340.89 5.8875 340.882 5.88134C340.874 5.87482 340.866 5.86833 340.857 5.86229C340.849 5.85685 340.841 5.85182 340.833 5.84672C340.824 5.84098 340.815 5.83522 340.805 5.82999C340.797 5.82519 340.788 5.82088 340.779 5.81647C340.77 5.81189 340.761 5.80728 340.752 5.80318C340.742 5.79892 340.732 5.7952 340.722 5.79143C340.713 5.78807 340.705 5.78464 340.696 5.7817C340.685 5.77823 340.674 5.77531 340.664 5.77239C340.655 5.77001 340.646 5.76759 340.637 5.76558C340.626 5.7632 340.616 5.76131 340.605 5.75946C340.595 5.75786 340.586 5.75629 340.576 5.75511C340.566 5.75387 340.556 5.75303 340.545 5.75229C340.535 5.75152 340.524 5.75091 340.514 5.75069C340.509 5.75059 340.505 5.75 340.5 5.75H325.5C325.496 5.75 325.492 5.75055 325.487 5.75065C325.476 5.75088 325.465 5.75151 325.453 5.75237C325.444 5.75307 325.434 5.75384 325.425 5.75498C325.414 5.75624 325.404 5.75794 325.394 5.75969C325.384 5.76145 325.374 5.76318 325.364 5.76539C325.354 5.76755 325.344 5.77016 325.335 5.77278C325.325 5.77552 325.315 5.77825 325.305 5.78149C325.295 5.78462 325.286 5.78826 325.276 5.79188C325.267 5.79545 325.258 5.79896 325.249 5.80297C325.239 5.80726 325.229 5.8121 325.22 5.81691C325.211 5.82113 325.203 5.82522 325.195 5.8298C325.185 5.83518 325.176 5.84111 325.167 5.84704C325.159 5.85198 325.151 5.85686 325.143 5.86213C325.135 5.86829 325.126 5.87489 325.117 5.88156C325.11 5.88759 325.102 5.89366 325.094 5.90007C325.087 5.90659 325.079 5.91346 325.072 5.92042C325.064 5.92791 325.056 5.93552 325.049 5.94342C325.046 5.94661 325.042 5.94939 325.039 5.95267C325.036 5.95654 325.033 5.96072 325.029 5.96465C325.022 5.97306 325.015 5.9816 325.008 5.9904C325.002 5.99814 324.996 6.00592 324.99 6.01386C324.984 6.0224 324.979 6.0311 324.973 6.03995C324.967 6.04861 324.962 6.05731 324.957 6.06616C324.952 6.07482 324.948 6.08365 324.943 6.09258C324.938 6.10188 324.934 6.11121 324.929 6.12069C324.925 6.12975 324.922 6.13896 324.918 6.14825C324.914 6.1579 324.911 6.16757 324.907 6.17738C324.904 6.18684 324.901 6.19643 324.899 6.20608C324.896 6.21613 324.893 6.22619 324.891 6.23633C324.889 6.24587 324.887 6.2555 324.885 6.26521C324.883 6.27593 324.882 6.28667 324.88 6.29746C324.879 6.30675 324.878 6.31609 324.878 6.32548C324.877 6.33702 324.876 6.34856 324.876 6.3601C324.876 6.3651 324.875 6.36996 324.875 6.375V17C324.875 17.3314 325.007 17.6491 325.242 17.8835C325.476 18.1178 325.794 18.2496 326.125 18.25H339.875C340.206 18.2496 340.524 18.1178 340.758 17.8835C340.993 17.6491 341.125 17.3314 341.125 17V6.375C341.125 6.36996 341.124 6.3651 341.124 6.3601ZM338.893 7L333 12.4021L327.107 7H338.893ZM339.875 17H326.125V7.79582L332.578 13.7107C332.693 13.8164 332.844 13.875 333 13.875C333.156 13.875 333.307 13.8164 333.422 13.7107L339.875 7.79571L339.876 17L339.875 17Z" fill="#AAACAE"/>
</svg>
