<svg width="343" height="45" viewBox="0 0 343 45" fill="none" xmlns="http://www.w3.org/2000/svg">
<path d="M1.036 41V31.2H4.256C5.02133 31.2 5.65133 31.326 6.146 31.578C6.64067 31.83 7.00467 32.1707 7.238 32.6C7.48067 33.0293 7.602 33.5147 7.602 34.056C7.602 34.588 7.48533 35.0687 7.252 35.498C7.01867 35.9273 6.65467 36.2727 6.16 36.534C5.66533 36.786 5.03067 36.912 4.256 36.912H2.212V41H1.036ZM2.212 35.918H4.228C5.012 35.918 5.56733 35.7547 5.894 35.428C6.23 35.092 6.398 34.6347 6.398 34.056C6.398 33.468 6.23 33.0107 5.894 32.684C5.56733 32.348 5.012 32.18 4.228 32.18H2.212V35.918ZM11.8273 41.168C11.1739 41.168 10.5859 41.0187 10.0633 40.72C9.5406 40.4213 9.12527 40.0013 8.81727 39.46C8.5186 38.9093 8.36927 38.2653 8.36927 37.528C8.36927 36.7907 8.52327 36.1513 8.83127 35.61C9.13927 35.0593 9.5546 34.6347 10.0773 34.336C10.6093 34.0373 11.2019 33.888 11.8553 33.888C12.5086 33.888 13.0966 34.0373 13.6193 34.336C14.1419 34.6347 14.5526 35.0593 14.8513 35.61C15.1593 36.1513 15.3133 36.7907 15.3133 37.528C15.3133 38.2653 15.1593 38.9093 14.8513 39.46C14.5433 40.0013 14.1233 40.4213 13.5913 40.72C13.0686 41.0187 12.4806 41.168 11.8273 41.168ZM11.8273 40.16C12.2286 40.16 12.6019 40.062 12.9473 39.866C13.2926 39.67 13.5726 39.376 13.7873 38.984C14.0019 38.592 14.1093 38.1067 14.1093 37.528C14.1093 36.9493 14.0019 36.464 13.7873 36.072C13.5819 35.68 13.3066 35.386 12.9613 35.19C12.6159 34.994 12.2473 34.896 11.8553 34.896C11.4539 34.896 11.0806 34.994 10.7353 35.19C10.3899 35.386 10.1099 35.68 9.89527 36.072C9.6806 36.464 9.57327 36.9493 9.57327 37.528C9.57327 38.1067 9.6806 38.592 9.89527 38.984C10.1099 39.376 10.3853 39.67 10.7213 39.866C11.0666 40.062 11.4353 40.16 11.8273 40.16ZM19.419 41C18.7843 41 18.285 40.846 17.921 40.538C17.557 40.23 17.375 39.6747 17.375 38.872V35.05H16.171V34.056H17.375L17.529 32.39H18.551V34.056H20.595V35.05H18.551V38.872C18.551 39.3107 18.6397 39.6093 18.817 39.768C18.9943 39.9173 19.307 39.992 19.755 39.992H20.483V41H19.419ZM25.0196 41.168C24.357 41.168 23.769 41.0187 23.2556 40.72C22.7423 40.412 22.3363 39.9873 22.0376 39.446C21.7483 38.9047 21.6036 38.2653 21.6036 37.528C21.6036 36.8 21.7483 36.1653 22.0376 35.624C22.327 35.0733 22.7283 34.6487 23.2416 34.35C23.7643 34.042 24.3663 33.888 25.0476 33.888C25.7196 33.888 26.2983 34.042 26.7836 34.35C27.2783 34.6487 27.6563 35.0453 27.9176 35.54C28.179 36.0347 28.3096 36.5667 28.3096 37.136C28.3096 37.2387 28.305 37.3413 28.2956 37.444C28.2956 37.5467 28.2956 37.6633 28.2956 37.794H22.7656C22.7936 38.326 22.915 38.7693 23.1296 39.124C23.3536 39.4693 23.629 39.7307 23.9556 39.908C24.2916 40.0853 24.6463 40.174 25.0196 40.174C25.505 40.174 25.911 40.062 26.2376 39.838C26.5643 39.614 26.8023 39.3107 26.9516 38.928H28.1136C27.927 39.572 27.5676 40.1087 27.0356 40.538C26.513 40.958 25.841 41.168 25.0196 41.168ZM25.0196 34.882C24.4596 34.882 23.9603 35.0547 23.5216 35.4C23.0923 35.736 22.845 36.2307 22.7796 36.884H27.1476C27.1196 36.2587 26.905 35.7687 26.5036 35.414C26.1023 35.0593 25.6076 34.882 25.0196 34.882ZM29.8683 41V34.056H30.9323L31.0023 35.302C31.2263 34.8633 31.5483 34.518 31.9683 34.266C32.3883 34.014 32.8643 33.888 33.3963 33.888C34.2177 33.888 34.871 34.14 35.3563 34.644C35.851 35.1387 36.0983 35.904 36.0983 36.94V41H34.9223V37.066C34.9223 35.6193 34.325 34.896 33.1303 34.896C32.533 34.896 32.0337 35.1153 31.6323 35.554C31.2403 35.9833 31.0443 36.5993 31.0443 37.402V41H29.8683ZM40.6241 41C39.9894 41 39.4901 40.846 39.1261 40.538C38.7621 40.23 38.5801 39.6747 38.5801 38.872V35.05H37.3761V34.056H38.5801L38.7341 32.39H39.7561V34.056H41.8001V35.05H39.7561V38.872C39.7561 39.3107 39.8447 39.6093 40.0221 39.768C40.1994 39.9173 40.5121 39.992 40.9601 39.992H41.6881V41H40.6241ZM44.0081 32.516C43.7748 32.516 43.5788 32.4413 43.4201 32.292C43.2708 32.1333 43.1961 31.9373 43.1961 31.704C43.1961 31.48 43.2708 31.2933 43.4201 31.144C43.5788 30.9947 43.7748 30.92 44.0081 30.92C44.2321 30.92 44.4235 30.9947 44.5821 31.144C44.7408 31.2933 44.8201 31.48 44.8201 31.704C44.8201 31.9373 44.7408 32.1333 44.5821 32.292C44.4235 32.4413 44.2321 32.516 44.0081 32.516ZM43.4201 41V34.056H44.5961V41H43.4201ZM48.9537 41.168C48.3751 41.168 47.8944 41.07 47.5117 40.874C47.1291 40.678 46.8444 40.4167 46.6577 40.09C46.4711 39.7633 46.3777 39.4087 46.3777 39.026C46.3777 38.3167 46.6484 37.7707 47.1897 37.388C47.7311 37.0053 48.4684 36.814 49.4017 36.814H51.2777V36.73C51.2777 36.1233 51.1191 35.666 50.8017 35.358C50.4844 35.0407 50.0597 34.882 49.5277 34.882C49.0704 34.882 48.6737 34.9987 48.3377 35.232C48.0111 35.456 47.8057 35.7873 47.7217 36.226H46.5177C46.5644 35.722 46.7324 35.2973 47.0217 34.952C47.3204 34.6067 47.6891 34.3453 48.1277 34.168C48.5664 33.9813 49.0331 33.888 49.5277 33.888C50.4984 33.888 51.2264 34.1493 51.7117 34.672C52.2064 35.1853 52.4537 35.8713 52.4537 36.73V41H51.4037L51.3337 39.754C51.1377 40.146 50.8484 40.482 50.4657 40.762C50.0924 41.0327 49.5884 41.168 48.9537 41.168ZM49.1357 40.174C49.5837 40.174 49.9664 40.0573 50.2837 39.824C50.6104 39.5907 50.8577 39.2873 51.0257 38.914C51.1937 38.5407 51.2777 38.1487 51.2777 37.738V37.724H49.4997C48.8091 37.724 48.3191 37.8453 48.0297 38.088C47.7497 38.3213 47.6097 38.6153 47.6097 38.97C47.6097 39.334 47.7404 39.628 48.0017 39.852C48.2724 40.0667 48.6504 40.174 49.1357 40.174ZM54.218 41V30.92H55.394V41H54.218ZM57.3215 41V30.92H58.4975V41H57.3215ZM61.181 44.08L62.903 40.328H62.497L59.739 34.056H61.013L63.309 39.46L65.745 34.056H66.963L62.413 44.08H61.181ZM72.2874 41V35.05H71.2374V34.056H72.2874V32.852C72.2874 32.18 72.4554 31.69 72.7914 31.382C73.1274 31.074 73.6174 30.92 74.2614 30.92H74.9614V31.928H74.4434C74.0887 31.928 73.8367 32.0027 73.6874 32.152C73.538 32.292 73.4634 32.5347 73.4634 32.88V34.056H75.1714V35.05H73.4634V41H72.2874ZM79.462 41.168C78.8087 41.168 78.2207 41.0187 77.698 40.72C77.1754 40.4213 76.76 40.0013 76.452 39.46C76.1534 38.9093 76.004 38.2653 76.004 37.528C76.004 36.7907 76.158 36.1513 76.466 35.61C76.774 35.0593 77.1894 34.6347 77.712 34.336C78.244 34.0373 78.8367 33.888 79.49 33.888C80.1434 33.888 80.7314 34.0373 81.254 34.336C81.7767 34.6347 82.1874 35.0593 82.486 35.61C82.794 36.1513 82.948 36.7907 82.948 37.528C82.948 38.2653 82.794 38.9093 82.486 39.46C82.178 40.0013 81.758 40.4213 81.226 40.72C80.7034 41.0187 80.1154 41.168 79.462 41.168ZM79.462 40.16C79.8634 40.16 80.2367 40.062 80.582 39.866C80.9274 39.67 81.2074 39.376 81.422 38.984C81.6367 38.592 81.744 38.1067 81.744 37.528C81.744 36.9493 81.6367 36.464 81.422 36.072C81.2167 35.68 80.9414 35.386 80.596 35.19C80.2507 34.994 79.882 34.896 79.49 34.896C79.0887 34.896 78.7154 34.994 78.37 35.19C78.0247 35.386 77.7447 35.68 77.53 36.072C77.3154 36.464 77.208 36.9493 77.208 37.528C77.208 38.1067 77.3154 38.592 77.53 38.984C77.7447 39.376 78.02 39.67 78.356 39.866C78.7014 40.062 79.07 40.16 79.462 40.16ZM84.5832 41V34.056H85.6472L85.7452 35.386C85.9599 34.9287 86.2865 34.5647 86.7252 34.294C87.1639 34.0233 87.7052 33.888 88.3492 33.888V35.12H88.0272C87.6165 35.12 87.2385 35.1947 86.8932 35.344C86.5479 35.484 86.2725 35.7267 86.0672 36.072C85.8619 36.4173 85.7592 36.8933 85.7592 37.5V41H84.5832ZM95.6842 41.168C95.1055 41.168 94.6249 41.07 94.2422 40.874C93.8595 40.678 93.5749 40.4167 93.3882 40.09C93.2015 39.7633 93.1082 39.4087 93.1082 39.026C93.1082 38.3167 93.3789 37.7707 93.9202 37.388C94.4615 37.0053 95.1989 36.814 96.1322 36.814H98.0082V36.73C98.0082 36.1233 97.8495 35.666 97.5322 35.358C97.2149 35.0407 96.7902 34.882 96.2582 34.882C95.8009 34.882 95.4042 34.9987 95.0682 35.232C94.7415 35.456 94.5362 35.7873 94.4522 36.226H93.2482C93.2949 35.722 93.4629 35.2973 93.7522 34.952C94.0509 34.6067 94.4195 34.3453 94.8582 34.168C95.2969 33.9813 95.7635 33.888 96.2582 33.888C97.2289 33.888 97.9569 34.1493 98.4422 34.672C98.9369 35.1853 99.1842 35.8713 99.1842 36.73V41H98.1342L98.0642 39.754C97.8682 40.146 97.5789 40.482 97.1962 40.762C96.8229 41.0327 96.3189 41.168 95.6842 41.168ZM95.8662 40.174C96.3142 40.174 96.6969 40.0573 97.0142 39.824C97.3409 39.5907 97.5882 39.2873 97.7562 38.914C97.9242 38.5407 98.0082 38.1487 98.0082 37.738V37.724H96.2302C95.5395 37.724 95.0495 37.8453 94.7602 38.088C94.4802 38.3213 94.3402 38.6153 94.3402 38.97C94.3402 39.334 94.4709 39.628 94.7322 39.852C95.0029 40.0667 95.3809 40.174 95.8662 40.174ZM107.398 38.816C107.006 38.816 106.646 38.7647 106.32 38.662L105.62 39.32C105.722 39.3947 105.848 39.46 105.998 39.516C106.156 39.5627 106.38 39.6093 106.67 39.656C106.959 39.6933 107.365 39.7353 107.888 39.782C108.821 39.8473 109.488 40.062 109.89 40.426C110.291 40.79 110.492 41.266 110.492 41.854C110.492 42.2553 110.38 42.638 110.156 43.002C109.941 43.366 109.605 43.6647 109.148 43.898C108.7 44.1313 108.121 44.248 107.412 44.248C106.786 44.248 106.231 44.164 105.745 43.996C105.26 43.8373 104.882 43.59 104.611 43.254C104.341 42.9273 104.206 42.512 104.206 42.008C104.206 41.7467 104.276 41.462 104.416 41.154C104.556 40.8553 104.817 40.5707 105.2 40.3C104.994 40.216 104.817 40.1273 104.668 40.034C104.528 39.9313 104.397 39.8193 104.276 39.698V39.376L105.466 38.2C104.915 37.7333 104.64 37.1173 104.64 36.352C104.64 35.8947 104.747 35.4793 104.962 35.106C105.176 34.7327 105.489 34.4387 105.9 34.224C106.31 34 106.81 33.888 107.398 33.888C107.799 33.888 108.163 33.944 108.49 34.056H111.052V34.938L109.75 34.994C110.02 35.386 110.156 35.8387 110.156 36.352C110.156 36.8093 110.044 37.2247 109.82 37.598C109.605 37.9713 109.292 38.27 108.882 38.494C108.48 38.7087 107.986 38.816 107.398 38.816ZM107.398 37.85C107.892 37.85 108.284 37.724 108.574 37.472C108.872 37.2107 109.022 36.8373 109.022 36.352C109.022 35.876 108.872 35.512 108.574 35.26C108.284 34.9987 107.892 34.868 107.398 34.868C106.894 34.868 106.492 34.9987 106.194 35.26C105.904 35.512 105.76 35.876 105.76 36.352C105.76 36.8373 105.904 37.2107 106.194 37.472C106.492 37.724 106.894 37.85 107.398 37.85ZM105.354 41.896C105.354 42.3627 105.55 42.708 105.942 42.932C106.334 43.1653 106.824 43.282 107.412 43.282C107.99 43.282 108.452 43.156 108.798 42.904C109.152 42.652 109.33 42.316 109.33 41.896C109.33 41.5973 109.208 41.336 108.966 41.112C108.723 40.8973 108.275 40.7713 107.622 40.734C107.108 40.6967 106.665 40.65 106.292 40.594C105.909 40.7993 105.657 41.0187 105.535 41.252C105.414 41.4947 105.354 41.7093 105.354 41.896ZM112.378 41V34.056H113.442L113.54 35.386C113.755 34.9287 114.081 34.5647 114.52 34.294C114.959 34.0233 115.5 33.888 116.144 33.888V35.12H115.822C115.411 35.12 115.033 35.1947 114.688 35.344C114.343 35.484 114.067 35.7267 113.862 36.072C113.657 36.4173 113.554 36.8933 113.554 37.5V41H112.378ZM120.368 41.168C119.715 41.168 119.127 41.0187 118.604 40.72C118.082 40.4213 117.666 40.0013 117.358 39.46C117.06 38.9093 116.91 38.2653 116.91 37.528C116.91 36.7907 117.064 36.1513 117.372 35.61C117.68 35.0593 118.096 34.6347 118.618 34.336C119.15 34.0373 119.743 33.888 120.396 33.888C121.05 33.888 121.638 34.0373 122.16 34.336C122.683 34.6347 123.094 35.0593 123.392 35.61C123.7 36.1513 123.854 36.7907 123.854 37.528C123.854 38.2653 123.7 38.9093 123.392 39.46C123.084 40.0013 122.664 40.4213 122.132 40.72C121.61 41.0187 121.022 41.168 120.368 41.168ZM120.368 40.16C120.77 40.16 121.143 40.062 121.488 39.866C121.834 39.67 122.114 39.376 122.328 38.984C122.543 38.592 122.65 38.1067 122.65 37.528C122.65 36.9493 122.543 36.464 122.328 36.072C122.123 35.68 121.848 35.386 121.502 35.19C121.157 34.994 120.788 34.896 120.396 34.896C119.995 34.896 119.622 34.994 119.276 35.19C118.931 35.386 118.651 35.68 118.436 36.072C118.222 36.464 118.114 36.9493 118.114 37.528C118.114 38.1067 118.222 38.592 118.436 38.984C118.651 39.376 118.926 39.67 119.262 39.866C119.608 40.062 119.976 40.16 120.368 40.16ZM128.023 41.168C127.202 41.168 126.549 40.9207 126.063 40.426C125.578 39.922 125.335 39.152 125.335 38.116V34.056H126.511V37.99C126.511 39.4367 127.104 40.16 128.289 40.16C128.896 40.16 129.395 39.9453 129.787 39.516C130.189 39.0773 130.389 38.4567 130.389 37.654V34.056H131.565V41H130.501L130.417 39.754C130.203 40.1927 129.881 40.538 129.451 40.79C129.031 41.042 128.555 41.168 128.023 41.168ZM133.501 44.08V34.056H134.565L134.677 35.204C134.901 34.868 135.218 34.5647 135.629 34.294C136.049 34.0233 136.581 33.888 137.225 33.888C137.916 33.888 138.518 34.0467 139.031 34.364C139.544 34.6813 139.941 35.1153 140.221 35.666C140.51 36.2167 140.655 36.842 140.655 37.542C140.655 38.242 140.51 38.8673 140.221 39.418C139.941 39.9593 139.54 40.3887 139.017 40.706C138.504 41.014 137.902 41.168 137.211 41.168C136.642 41.168 136.133 41.0513 135.685 40.818C135.246 40.5847 134.91 40.258 134.677 39.838V44.08H133.501ZM137.085 40.146C137.552 40.146 137.962 40.0387 138.317 39.824C138.672 39.6 138.952 39.292 139.157 38.9C139.362 38.508 139.465 38.0507 139.465 37.528C139.465 37.0053 139.362 36.548 139.157 36.156C138.952 35.764 138.672 35.4607 138.317 35.246C137.962 35.022 137.552 34.91 137.085 34.91C136.618 34.91 136.208 35.022 135.853 35.246C135.498 35.4607 135.218 35.764 135.013 36.156C134.808 36.548 134.705 37.0053 134.705 37.528C134.705 38.0507 134.808 38.508 135.013 38.9C135.218 39.292 135.498 39.6 135.853 39.824C136.208 40.0387 136.618 40.146 137.085 40.146ZM149.161 41.168C148.508 41.168 147.92 41.0187 147.397 40.72C146.875 40.4213 146.459 40.0013 146.151 39.46C145.853 38.9093 145.703 38.2653 145.703 37.528C145.703 36.7907 145.857 36.1513 146.165 35.61C146.473 35.0593 146.889 34.6347 147.411 34.336C147.943 34.0373 148.536 33.888 149.189 33.888C149.843 33.888 150.431 34.0373 150.953 34.336C151.476 34.6347 151.887 35.0593 152.185 35.61C152.493 36.1513 152.647 36.7907 152.647 37.528C152.647 38.2653 152.493 38.9093 152.185 39.46C151.877 40.0013 151.457 40.4213 150.925 40.72C150.403 41.0187 149.815 41.168 149.161 41.168ZM149.161 40.16C149.563 40.16 149.936 40.062 150.281 39.866C150.627 39.67 150.907 39.376 151.121 38.984C151.336 38.592 151.443 38.1067 151.443 37.528C151.443 36.9493 151.336 36.464 151.121 36.072C150.916 35.68 150.641 35.386 150.295 35.19C149.95 34.994 149.581 34.896 149.189 34.896C148.788 34.896 148.415 34.994 148.069 35.19C147.724 35.386 147.444 35.68 147.229 36.072C147.015 36.464 146.907 36.9493 146.907 37.528C146.907 38.1067 147.015 38.592 147.229 38.984C147.444 39.376 147.719 39.67 148.055 39.866C148.401 40.062 148.769 40.16 149.161 40.16ZM154.66 41V35.05H153.61V34.056H154.66V32.852C154.66 32.18 154.828 31.69 155.164 31.382C155.5 31.074 155.99 30.92 156.634 30.92H157.334V31.928H156.816C156.462 31.928 156.21 32.0027 156.06 32.152C155.911 32.292 155.836 32.5347 155.836 32.88V34.056H157.544V35.05H155.836V41H154.66ZM163.686 41V32.516L162.104 32.866V32.054L164.078 31.2H164.876V41H163.686ZM170.178 41.168C169.534 41.168 168.956 41.0513 168.442 40.818C167.929 40.5753 167.523 40.244 167.224 39.824C166.935 39.3947 166.79 38.9 166.79 38.34C166.79 37.7427 166.963 37.206 167.308 36.73C167.663 36.254 168.13 35.9367 168.708 35.778C168.176 35.6007 167.766 35.316 167.476 34.924C167.187 34.532 167.042 34.1027 167.042 33.636C167.042 33.16 167.168 32.726 167.42 32.334C167.672 31.9327 168.032 31.6153 168.498 31.382C168.965 31.1487 169.525 31.032 170.178 31.032C170.832 31.032 171.392 31.1487 171.858 31.382C172.325 31.6153 172.684 31.9327 172.936 32.334C173.188 32.726 173.314 33.16 173.314 33.636C173.314 34.0933 173.17 34.5227 172.88 34.924C172.591 35.316 172.18 35.6007 171.648 35.778C172.227 35.9367 172.689 36.254 173.034 36.73C173.389 37.206 173.566 37.7427 173.566 38.34C173.566 38.9 173.417 39.3947 173.118 39.824C172.829 40.244 172.428 40.5753 171.914 40.818C171.401 41.0513 170.822 41.168 170.178 41.168ZM170.178 35.358C170.776 35.358 171.247 35.2087 171.592 34.91C171.947 34.602 172.124 34.2007 172.124 33.706C172.124 33.1553 171.952 32.74 171.606 32.46C171.261 32.18 170.785 32.04 170.178 32.04C169.572 32.04 169.096 32.18 168.75 32.46C168.414 32.74 168.246 33.1553 168.246 33.706C168.246 34.2007 168.419 34.602 168.764 34.91C169.11 35.2087 169.581 35.358 170.178 35.358ZM170.178 40.132C170.916 40.132 171.466 39.964 171.83 39.628C172.204 39.2827 172.39 38.83 172.39 38.27C172.39 37.6353 172.19 37.1547 171.788 36.828C171.387 36.5013 170.85 36.338 170.178 36.338C169.506 36.338 168.97 36.5013 168.568 36.828C168.167 37.1547 167.966 37.6353 167.966 38.27C167.966 38.83 168.148 39.2827 168.512 39.628C168.886 39.964 169.441 40.132 170.178 40.132ZM179.124 44.08V34.056H180.188L180.3 35.204C180.524 34.868 180.842 34.5647 181.252 34.294C181.672 34.0233 182.204 33.888 182.848 33.888C183.539 33.888 184.141 34.0467 184.654 34.364C185.168 34.6813 185.564 35.1153 185.844 35.666C186.134 36.2167 186.278 36.842 186.278 37.542C186.278 38.242 186.134 38.8673 185.844 39.418C185.564 39.9593 185.163 40.3887 184.64 40.706C184.127 41.014 183.525 41.168 182.834 41.168C182.265 41.168 181.756 41.0513 181.308 40.818C180.87 40.5847 180.534 40.258 180.3 39.838V44.08H179.124ZM182.708 40.146C183.175 40.146 183.586 40.0387 183.94 39.824C184.295 39.6 184.575 39.292 184.78 38.9C184.986 38.508 185.088 38.0507 185.088 37.528C185.088 37.0053 184.986 36.548 184.78 36.156C184.575 35.764 184.295 35.4607 183.94 35.246C183.586 35.022 183.175 34.91 182.708 34.91C182.242 34.91 181.831 35.022 181.476 35.246C181.122 35.4607 180.842 35.764 180.636 36.156C180.431 36.548 180.328 37.0053 180.328 37.528C180.328 38.0507 180.431 38.508 180.636 38.9C180.842 39.292 181.122 39.6 181.476 39.824C181.831 40.0387 182.242 40.146 182.708 40.146ZM191.037 41.168C190.375 41.168 189.787 41.0187 189.273 40.72C188.76 40.412 188.354 39.9873 188.055 39.446C187.766 38.9047 187.621 38.2653 187.621 37.528C187.621 36.8 187.766 36.1653 188.055 35.624C188.345 35.0733 188.746 34.6487 189.259 34.35C189.782 34.042 190.384 33.888 191.065 33.888C191.737 33.888 192.316 34.042 192.801 34.35C193.296 34.6487 193.674 35.0453 193.935 35.54C194.197 36.0347 194.327 36.5667 194.327 37.136C194.327 37.2387 194.323 37.3413 194.313 37.444C194.313 37.5467 194.313 37.6633 194.313 37.794H188.783C188.811 38.326 188.933 38.7693 189.147 39.124C189.371 39.4693 189.647 39.7307 189.973 39.908C190.309 40.0853 190.664 40.174 191.037 40.174C191.523 40.174 191.929 40.062 192.255 39.838C192.582 39.614 192.82 39.3107 192.969 38.928H194.131C193.945 39.572 193.585 40.1087 193.053 40.538C192.531 40.958 191.859 41.168 191.037 41.168ZM191.037 34.882C190.477 34.882 189.978 35.0547 189.539 35.4C189.11 35.736 188.863 36.2307 188.797 36.884H193.165C193.137 36.2587 192.923 35.7687 192.521 35.414C192.12 35.0593 191.625 34.882 191.037 34.882ZM199.05 41.168C198.397 41.168 197.809 41.0187 197.286 40.72C196.763 40.4213 196.348 40.0013 196.04 39.46C195.741 38.9093 195.592 38.2653 195.592 37.528C195.592 36.7907 195.746 36.1513 196.054 35.61C196.362 35.0593 196.777 34.6347 197.3 34.336C197.832 34.0373 198.425 33.888 199.078 33.888C199.731 33.888 200.319 34.0373 200.842 34.336C201.365 34.6347 201.775 35.0593 202.074 35.61C202.382 36.1513 202.536 36.7907 202.536 37.528C202.536 38.2653 202.382 38.9093 202.074 39.46C201.766 40.0013 201.346 40.4213 200.814 40.72C200.291 41.0187 199.703 41.168 199.05 41.168ZM199.05 40.16C199.451 40.16 199.825 40.062 200.17 39.866C200.515 39.67 200.795 39.376 201.01 38.984C201.225 38.592 201.332 38.1067 201.332 37.528C201.332 36.9493 201.225 36.464 201.01 36.072C200.805 35.68 200.529 35.386 200.184 35.19C199.839 34.994 199.47 34.896 199.078 34.896C198.677 34.896 198.303 34.994 197.958 35.19C197.613 35.386 197.333 35.68 197.118 36.072C196.903 36.464 196.796 36.9493 196.796 37.528C196.796 38.1067 196.903 38.592 197.118 38.984C197.333 39.376 197.608 39.67 197.944 39.866C198.289 40.062 198.658 40.16 199.05 40.16ZM204.171 44.08V34.056H205.235L205.347 35.204C205.571 34.868 205.888 34.5647 206.299 34.294C206.719 34.0233 207.251 33.888 207.895 33.888C208.586 33.888 209.188 34.0467 209.701 34.364C210.214 34.6813 210.611 35.1153 210.891 35.666C211.18 36.2167 211.325 36.842 211.325 37.542C211.325 38.242 211.18 38.8673 210.891 39.418C210.611 39.9593 210.21 40.3887 209.687 40.706C209.174 41.014 208.572 41.168 207.881 41.168C207.312 41.168 206.803 41.0513 206.355 40.818C205.916 40.5847 205.58 40.258 205.347 39.838V44.08H204.171ZM207.755 40.146C208.222 40.146 208.632 40.0387 208.987 39.824C209.342 39.6 209.622 39.292 209.827 38.9C210.032 38.508 210.135 38.0507 210.135 37.528C210.135 37.0053 210.032 36.548 209.827 36.156C209.622 35.764 209.342 35.4607 208.987 35.246C208.632 35.022 208.222 34.91 207.755 34.91C207.288 34.91 206.878 35.022 206.523 35.246C206.168 35.4607 205.888 35.764 205.683 36.156C205.478 36.548 205.375 37.0053 205.375 37.528C205.375 38.0507 205.478 38.508 205.683 38.9C205.888 39.292 206.168 39.6 206.523 39.824C206.878 40.0387 207.288 40.146 207.755 40.146ZM212.962 41V30.92H214.138V41H212.962ZM219.188 41.168C218.525 41.168 217.937 41.0187 217.424 40.72C216.91 40.412 216.504 39.9873 216.206 39.446C215.916 38.9047 215.772 38.2653 215.772 37.528C215.772 36.8 215.916 36.1653 216.206 35.624C216.495 35.0733 216.896 34.6487 217.41 34.35C217.932 34.042 218.534 33.888 219.216 33.888C219.888 33.888 220.466 34.042 220.952 34.35C221.446 34.6487 221.824 35.0453 222.086 35.54C222.347 36.0347 222.478 36.5667 222.478 37.136C222.478 37.2387 222.473 37.3413 222.464 37.444C222.464 37.5467 222.464 37.6633 222.464 37.794H216.934C216.962 38.326 217.083 38.7693 217.298 39.124C217.522 39.4693 217.797 39.7307 218.124 39.908C218.46 40.0853 218.814 40.174 219.188 40.174C219.673 40.174 220.079 40.062 220.406 39.838C220.732 39.614 220.97 39.3107 221.12 38.928H222.282C222.095 39.572 221.736 40.1087 221.204 40.538C220.681 40.958 220.009 41.168 219.188 41.168ZM219.188 34.882C218.628 34.882 218.128 35.0547 217.69 35.4C217.26 35.736 217.013 36.2307 216.948 36.884H221.316C221.288 36.2587 221.073 35.7687 220.672 35.414C220.27 35.0593 219.776 34.882 219.188 34.882Z" fill="#727578"/>
<path d="M233.89 37.108C234.534 37.108 235.066 36.576 235.066 35.932C235.066 35.288 234.534 34.756 233.89 34.756C233.246 34.756 232.714 35.288 232.714 35.932C232.714 36.576 233.246 37.108 233.89 37.108ZM245.186 41V32.516L243.604 32.866V32.054L245.578 31.2H246.376V41H245.186ZM251.776 41.168C251.104 41.168 250.521 41.0467 250.026 40.804C249.532 40.5613 249.135 40.23 248.836 39.81C248.547 39.3807 248.37 38.8953 248.304 38.354H249.452C249.564 38.8953 249.826 39.334 250.236 39.67C250.647 39.9967 251.165 40.16 251.79 40.16C252.257 40.16 252.658 40.0527 252.994 39.838C253.33 39.614 253.587 39.3153 253.764 38.942C253.951 38.5687 254.044 38.1533 254.044 37.696C254.044 36.968 253.839 36.38 253.428 35.932C253.018 35.484 252.486 35.26 251.832 35.26C251.291 35.26 250.829 35.3813 250.446 35.624C250.064 35.8667 249.784 36.184 249.606 36.576H248.486L249.326 31.2H254.464V32.222H250.236L249.662 35.204C249.886 34.9333 250.194 34.7093 250.586 34.532C250.988 34.3547 251.445 34.266 251.958 34.266C252.602 34.266 253.162 34.4153 253.638 34.714C254.124 35.0127 254.502 35.4187 254.772 35.932C255.043 36.4453 255.178 37.0287 255.178 37.682C255.178 38.3073 255.043 38.886 254.772 39.418C254.511 39.95 254.124 40.3747 253.61 40.692C253.106 41.0093 252.495 41.168 251.776 41.168ZM263.844 41.168C263.125 41.168 262.5 41.0373 261.968 40.776C261.436 40.5147 261.025 40.1507 260.736 39.684C260.446 39.2173 260.302 38.676 260.302 38.06H261.534C261.534 38.4427 261.622 38.7973 261.8 39.124C261.977 39.4413 262.234 39.698 262.57 39.894C262.915 40.0807 263.34 40.174 263.844 40.174C264.506 40.174 265.02 40.0153 265.384 39.698C265.748 39.3807 265.93 38.984 265.93 38.508C265.93 38.116 265.846 37.8033 265.678 37.57C265.51 37.3273 265.281 37.1313 264.992 36.982C264.712 36.8327 264.385 36.702 264.012 36.59C263.648 36.478 263.265 36.352 262.864 36.212C262.108 35.9507 261.548 35.6287 261.184 35.246C260.82 34.854 260.638 34.3453 260.638 33.72C260.628 33.1973 260.75 32.7353 261.002 32.334C261.254 31.9233 261.608 31.606 262.066 31.382C262.532 31.1487 263.083 31.032 263.718 31.032C264.343 31.032 264.884 31.1487 265.342 31.382C265.808 31.6153 266.168 31.9373 266.42 32.348C266.681 32.7587 266.816 33.2253 266.826 33.748H265.594C265.594 33.4773 265.524 33.2113 265.384 32.95C265.244 32.6793 265.029 32.46 264.74 32.292C264.46 32.124 264.105 32.04 263.676 32.04C263.144 32.0307 262.705 32.166 262.36 32.446C262.024 32.726 261.856 33.1133 261.856 33.608C261.856 34.028 261.972 34.35 262.206 34.574C262.448 34.798 262.784 34.9847 263.214 35.134C263.643 35.274 264.138 35.4373 264.698 35.624C265.164 35.792 265.584 35.988 265.958 36.212C266.331 36.436 266.62 36.7253 266.826 37.08C267.04 37.4347 267.148 37.8873 267.148 38.438C267.148 38.9047 267.026 39.348 266.784 39.768C266.541 40.1787 266.172 40.5147 265.678 40.776C265.192 41.0373 264.581 41.168 263.844 41.168ZM271.867 41.168C271.205 41.168 270.617 41.0187 270.103 40.72C269.59 40.412 269.184 39.9873 268.885 39.446C268.596 38.9047 268.451 38.2653 268.451 37.528C268.451 36.8 268.596 36.1653 268.885 35.624C269.175 35.0733 269.576 34.6487 270.089 34.35C270.612 34.042 271.214 33.888 271.895 33.888C272.567 33.888 273.146 34.042 273.631 34.35C274.126 34.6487 274.504 35.0453 274.765 35.54C275.027 36.0347 275.157 36.5667 275.157 37.136C275.157 37.2387 275.153 37.3413 275.143 37.444C275.143 37.5467 275.143 37.6633 275.143 37.794H269.613C269.641 38.326 269.763 38.7693 269.977 39.124C270.201 39.4693 270.477 39.7307 270.803 39.908C271.139 40.0853 271.494 40.174 271.867 40.174C272.353 40.174 272.759 40.062 273.085 39.838C273.412 39.614 273.65 39.3107 273.799 38.928H274.961C274.775 39.572 274.415 40.1087 273.883 40.538C273.361 40.958 272.689 41.168 271.867 41.168ZM271.867 34.882C271.307 34.882 270.808 35.0547 270.369 35.4C269.94 35.736 269.693 36.2307 269.627 36.884H273.995C273.967 36.2587 273.753 35.7687 273.351 35.414C272.95 35.0593 272.455 34.882 271.867 34.882ZM276.716 44.08V34.056H277.78L277.892 35.204C278.116 34.868 278.433 34.5647 278.844 34.294C279.264 34.0233 279.796 33.888 280.44 33.888C281.131 33.888 281.733 34.0467 282.246 34.364C282.759 34.6813 283.156 35.1153 283.436 35.666C283.725 36.2167 283.87 36.842 283.87 37.542C283.87 38.242 283.725 38.8673 283.436 39.418C283.156 39.9593 282.755 40.3887 282.232 40.706C281.719 41.014 281.117 41.168 280.426 41.168C279.857 41.168 279.348 41.0513 278.9 40.818C278.461 40.5847 278.125 40.258 277.892 39.838V44.08H276.716ZM280.3 40.146C280.767 40.146 281.177 40.0387 281.532 39.824C281.887 39.6 282.167 39.292 282.372 38.9C282.577 38.508 282.68 38.0507 282.68 37.528C282.68 37.0053 282.577 36.548 282.372 36.156C282.167 35.764 281.887 35.4607 281.532 35.246C281.177 35.022 280.767 34.91 280.3 34.91C279.833 34.91 279.423 35.022 279.068 35.246C278.713 35.4607 278.433 35.764 278.228 36.156C278.023 36.548 277.92 37.0053 277.92 37.528C277.92 38.0507 278.023 38.508 278.228 38.9C278.433 39.292 278.713 39.6 279.068 39.824C279.423 40.0387 279.833 40.146 280.3 40.146Z" fill="#727578"/>
<path d="M3.84 16.192C2.79467 16.192 1.96267 15.8987 1.344 15.312C0.736 14.7253 0.432 13.8987 0.432 12.832H2.128C2.128 13.3653 2.256 13.808 2.512 14.16C2.77867 14.512 3.21067 14.688 3.808 14.688C4.39467 14.688 4.81067 14.5227 5.056 14.192C5.30133 13.8507 5.424 13.4187 5.424 12.896V4.8H7.12V12.896C7.12 13.952 6.82667 14.768 6.24 15.344C5.65333 15.9093 4.85333 16.192 3.84 16.192ZM12.714 16.192C11.9353 16.192 11.242 16.0213 10.634 15.68C10.0367 15.328 9.56733 14.8427 9.226 14.224C8.88467 13.6053 8.714 12.8853 8.714 12.064C8.714 11.232 8.87933 10.5013 9.21 9.872C9.55133 9.24267 10.0207 8.752 10.618 8.4C11.226 8.048 11.93 7.872 12.73 7.872C13.5087 7.872 14.186 8.048 14.762 8.4C15.338 8.74133 15.786 9.2 16.106 9.776C16.426 10.352 16.586 10.9867 16.586 11.68C16.586 11.7867 16.5807 11.904 16.57 12.032C16.57 12.1493 16.5647 12.2827 16.554 12.432H10.378C10.4313 13.2 10.682 13.7867 11.13 14.192C11.5887 14.5867 12.1167 14.784 12.714 14.784C13.194 14.784 13.594 14.6773 13.914 14.464C14.2447 14.24 14.49 13.9413 14.65 13.568H16.346C16.1327 14.3147 15.706 14.9387 15.066 15.44C14.4367 15.9413 13.6527 16.192 12.714 16.192ZM12.714 9.264C12.1487 9.264 11.6473 9.43467 11.21 9.776C10.7727 10.1067 10.506 10.608 10.41 11.28H14.89C14.858 10.6613 14.6393 10.1707 14.234 9.808C13.8287 9.44533 13.322 9.264 12.714 9.264ZM18.0258 16V8.064H19.5298L19.6578 9.456C19.9031 8.96533 20.2604 8.58133 20.7298 8.304C21.2098 8.016 21.7591 7.872 22.3778 7.872C23.3378 7.872 24.0898 8.17067 24.6338 8.768C25.1884 9.36533 25.4658 10.256 25.4658 11.44V16H23.7858V11.616C23.7858 10.08 23.1564 9.312 21.8978 9.312C21.2684 9.312 20.7458 9.536 20.3298 9.984C19.9244 10.432 19.7218 11.072 19.7218 11.904V16H18.0258ZM27.1433 16V8.064H28.6473L28.7753 9.456C29.0206 8.96533 29.3779 8.58133 29.8473 8.304C30.3273 8.016 30.8766 7.872 31.4953 7.872C32.4553 7.872 33.2073 8.17067 33.7513 8.768C34.3059 9.36533 34.5833 10.256 34.5833 11.44V16H32.9033V11.616C32.9033 10.08 32.2739 9.312 31.0153 9.312C30.3859 9.312 29.8633 9.536 29.4473 9.984C29.0419 10.432 28.8393 11.072 28.8393 11.904V16H27.1433ZM36.9388 19.52L38.8428 15.344H38.3788L35.2428 8.064H37.0828L39.5148 13.936L42.0588 8.064H43.8508L38.7308 19.52H36.9388ZM50.9884 16.016L47.9644 4.8H49.7884L52.0124 14.08L54.5724 4.8H56.4444L58.9244 14.08L61.1484 4.8H62.9724L59.9004 16H57.9164L55.4684 7.216L52.9404 16L50.9884 16.016ZM65.1045 6.56C64.7845 6.56 64.5178 6.464 64.3045 6.272C64.1018 6.06933 64.0005 5.81867 64.0005 5.52C64.0005 5.22133 64.1018 4.976 64.3045 4.784C64.5178 4.58133 64.7845 4.48 65.1045 4.48C65.4245 4.48 65.6858 4.58133 65.8885 4.784C66.1018 4.976 66.2085 5.22133 66.2085 5.52C66.2085 5.81867 66.1018 6.06933 65.8885 6.272C65.6858 6.464 65.4245 6.56 65.1045 6.56ZM64.2565 16V8.064H65.9525V16H64.2565ZM67.8714 16V4.48H69.5674V16H67.8714ZM74.5631 16.192C73.5605 16.192 72.7338 15.9467 72.0831 15.456C71.4325 14.9653 71.0591 14.3147 70.9631 13.504H72.6751C72.7605 13.8667 72.9631 14.1813 73.2831 14.448C73.6031 14.704 74.0245 14.832 74.5471 14.832C75.0591 14.832 75.4325 14.7253 75.6671 14.512C75.9018 14.2987 76.0191 14.0533 76.0191 13.776C76.0191 13.3707 75.8538 13.0987 75.5231 12.96C75.2031 12.8107 74.7551 12.6773 74.1791 12.56C73.7311 12.464 73.2831 12.336 72.8351 12.176C72.3978 12.016 72.0298 11.792 71.7311 11.504C71.4431 11.2053 71.2991 10.8053 71.2991 10.304C71.2991 9.61067 71.5658 9.03467 72.0991 8.576C72.6325 8.10667 73.3791 7.872 74.3391 7.872C75.2245 7.872 75.9391 8.08533 76.4831 8.512C77.0378 8.93867 77.3631 9.54133 77.4591 10.32H75.8271C75.7738 9.97867 75.6138 9.712 75.3471 9.52C75.0911 9.328 74.7445 9.232 74.3071 9.232C73.8805 9.232 73.5498 9.32267 73.3151 9.504C73.0805 9.67467 72.9631 9.89867 72.9631 10.176C72.9631 10.4533 73.1231 10.672 73.4431 10.832C73.7738 10.992 74.2058 11.136 74.7391 11.264C75.2725 11.3813 75.7631 11.52 76.2111 11.68C76.6698 11.8293 77.0378 12.0533 77.3151 12.352C77.5925 12.6507 77.7311 13.088 77.7311 13.664C77.7418 14.3893 77.4591 14.992 76.8831 15.472C76.3178 15.952 75.5445 16.192 74.5631 16.192ZM82.9746 16.192C82.2173 16.192 81.5346 16.0213 80.9266 15.68C80.3293 15.328 79.8546 14.8427 79.5026 14.224C79.1506 13.5947 78.9746 12.864 78.9746 12.032C78.9746 11.2 79.1506 10.4747 79.5026 9.856C79.8653 9.22667 80.3506 8.74133 80.9586 8.4C81.5666 8.048 82.244 7.872 82.9906 7.872C83.748 7.872 84.4253 8.048 85.0226 8.4C85.6306 8.74133 86.1106 9.22667 86.4626 9.856C86.8253 10.4747 87.0066 11.2 87.0066 12.032C87.0066 12.864 86.8253 13.5947 86.4626 14.224C86.1106 14.8427 85.6306 15.328 85.0226 15.68C84.4146 16.0213 83.732 16.192 82.9746 16.192ZM82.9746 14.736C83.38 14.736 83.7533 14.6347 84.0946 14.432C84.4466 14.2293 84.7293 13.9307 84.9426 13.536C85.156 13.1307 85.2626 12.6293 85.2626 12.032C85.2626 11.4347 85.156 10.9387 84.9426 10.544C84.74 10.1387 84.4626 9.83467 84.1106 9.632C83.7693 9.42933 83.396 9.328 82.9906 9.328C82.5853 9.328 82.2066 9.42933 81.8546 9.632C81.5133 9.83467 81.236 10.1387 81.0226 10.544C80.8093 10.9387 80.7026 11.4347 80.7026 12.032C80.7026 12.6293 80.8093 13.1307 81.0226 13.536C81.236 13.9307 81.5133 14.2293 81.8546 14.432C82.196 14.6347 82.5693 14.736 82.9746 14.736ZM88.5208 16V8.064H90.0248L90.1528 9.456C90.3981 8.96533 90.7554 8.58133 91.2248 8.304C91.7048 8.016 92.2541 7.872 92.8728 7.872C93.8328 7.872 94.5848 8.17067 95.1288 8.768C95.6834 9.36533 95.9608 10.256 95.9608 11.44V16H94.2808V11.616C94.2808 10.08 93.6514 9.312 92.3928 9.312C91.7634 9.312 91.2408 9.536 90.8248 9.984C90.4194 10.432 90.2168 11.072 90.2168 11.904V16H88.5208Z" fill="black"/>
<circle cx="333" cy="37" r="3.5" fill="white" stroke="#AAACAE"/>
<path fill-rule="evenodd" clip-rule="evenodd" d="M338.315 6.68994C336.904 5.27881 335.029 4.5 333.032 4.5C328.916 4.5 325.563 7.84961 325.563 11.9658C325.561 13.2817 325.905 14.5659 326.56 15.6987L325.5 19.5684L329.46 18.5283C330.549 19.124 331.779 19.4365 333.029 19.439H333.032C337.148 19.439 340.498 16.0894 340.5 11.9707C340.5 9.97607 339.724 8.10107 338.315 6.68994ZM333.032 18.1768H333.029C331.916 18.1768 330.822 17.8765 329.87 17.3125L329.643 17.1782L327.292 17.7935L327.919 15.5034L327.773 15.269C327.15 14.2803 326.823 13.1377 326.823 11.9658C326.823 8.54541 329.609 5.76221 333.034 5.76221C334.692 5.76221 336.25 6.40918 337.421 7.58106C338.593 8.75537 339.238 10.313 339.238 11.9707C339.238 15.3936 336.452 18.1768 333.032 18.1768ZM336.435 13.5283C336.25 13.4355 335.332 12.9839 335.161 12.9229C334.99 12.8594 334.865 12.8301 334.741 13.0156C334.616 13.2036 334.26 13.6235 334.15 13.748C334.042 13.8701 333.933 13.8872 333.747 13.7944C333.559 13.7017 332.958 13.5039 332.246 12.8667C331.691 12.3735 331.315 11.7607 331.208 11.5752C331.098 11.3872 331.196 11.2871 331.289 11.1943C331.374 11.1113 331.477 10.9771 331.569 10.8672C331.662 10.7598 331.694 10.6816 331.757 10.5571C331.818 10.4326 331.787 10.3228 331.74 10.23C331.694 10.1372 331.32 9.2168 331.164 8.84326C331.013 8.47949 330.859 8.53076 330.744 8.52344C330.637 8.51856 330.512 8.51856 330.388 8.51856C330.263 8.51856 330.061 8.56494 329.89 8.75293C329.719 8.93848 329.238 9.39014 329.238 10.3081C329.238 11.2261 329.907 12.1147 330 12.2393C330.092 12.3613 331.315 14.2461 333.188 15.0542C333.632 15.2471 333.979 15.3618 334.25 15.4473C334.697 15.5889 335.104 15.5693 335.427 15.5229C335.786 15.4692 336.53 15.0713 336.687 14.6343C336.84 14.1997 336.84 13.8262 336.794 13.748C336.748 13.6699 336.623 13.6235 336.435 13.5283Z" fill="#AAACAE"/>
</svg>
