<svg width="319" height="45" viewBox="0 0 319 45" fill="none" xmlns="http://www.w3.org/2000/svg">
<path d="M4.228 41.168C3.50933 41.168 2.87933 41.042 2.338 40.79C1.79667 40.538 1.372 40.1787 1.064 39.712C0.765333 39.2453 0.611333 38.69 0.602 38.046H2.17C2.17933 38.5687 2.36133 39.012 2.716 39.376C3.07067 39.74 3.57 39.922 4.214 39.922C4.78333 39.922 5.22667 39.7867 5.544 39.516C5.87067 39.236 6.034 38.8813 6.034 38.452C6.034 38.1067 5.95467 37.8267 5.796 37.612C5.64667 37.3973 5.43667 37.22 5.166 37.08C4.90467 36.94 4.60133 36.814 4.256 36.702C3.91067 36.59 3.54667 36.4687 3.164 36.338C2.408 36.086 1.83867 35.7593 1.456 35.358C1.08267 34.9567 0.896 34.4293 0.896 33.776C0.886667 33.2253 1.01267 32.7447 1.274 32.334C1.54467 31.9233 1.918 31.606 2.394 31.382C2.87933 31.1487 3.444 31.032 4.088 31.032C4.72267 31.032 5.278 31.1487 5.754 31.382C6.23933 31.6153 6.61733 31.942 6.888 32.362C7.15867 32.7727 7.29867 33.2533 7.308 33.804H5.74C5.74 33.552 5.67467 33.314 5.544 33.09C5.41333 32.8567 5.222 32.6653 4.97 32.516C4.718 32.3667 4.41 32.292 4.046 32.292C3.57933 32.2827 3.192 32.3993 2.884 32.642C2.58533 32.8847 2.436 33.2207 2.436 33.65C2.436 34.0327 2.548 34.3267 2.772 34.532C2.996 34.7373 3.304 34.91 3.696 35.05C4.088 35.1807 4.536 35.3347 5.04 35.512C5.52533 35.6707 5.95933 35.862 6.342 36.086C6.72467 36.31 7.028 36.604 7.252 36.968C7.48533 37.332 7.602 37.794 7.602 38.354C7.602 38.8487 7.476 39.3107 7.224 39.74C6.972 40.16 6.594 40.5053 6.09 40.776C5.586 41.0373 4.96533 41.168 4.228 41.168ZM12.4165 41.168C11.7538 41.168 11.1565 41.0187 10.6245 40.72C10.1018 40.412 9.68647 39.9873 9.37847 39.446C9.07047 38.8953 8.91647 38.256 8.91647 37.528C8.91647 36.8 9.07047 36.1653 9.37847 35.624C9.6958 35.0733 10.1205 34.6487 10.6525 34.35C11.1845 34.042 11.7771 33.888 12.4305 33.888C13.0931 33.888 13.6858 34.042 14.2085 34.35C14.7405 34.6487 15.1605 35.0733 15.4685 35.624C15.7858 36.1653 15.9445 36.8 15.9445 37.528C15.9445 38.256 15.7858 38.8953 15.4685 39.446C15.1605 39.9873 14.7405 40.412 14.2085 40.72C13.6765 41.0187 13.0791 41.168 12.4165 41.168ZM12.4165 39.894C12.7711 39.894 13.0978 39.8053 13.3965 39.628C13.7045 39.4507 13.9518 39.1893 14.1385 38.844C14.3251 38.4893 14.4185 38.0507 14.4185 37.528C14.4185 37.0053 14.3251 36.5713 14.1385 36.226C13.9611 35.8713 13.7185 35.6053 13.4105 35.428C13.1118 35.2507 12.7851 35.162 12.4305 35.162C12.0758 35.162 11.7445 35.2507 11.4365 35.428C11.1378 35.6053 10.8951 35.8713 10.7085 36.226C10.5218 36.5713 10.4285 37.0053 10.4285 37.528C10.4285 38.0507 10.5218 38.4893 10.7085 38.844C10.8951 39.1893 11.1378 39.4507 11.4365 39.628C11.7351 39.8053 12.0618 39.894 12.4165 39.894ZM20.1113 41.168C19.2713 41.168 18.6087 40.9067 18.1233 40.384C17.6473 39.8613 17.4093 39.082 17.4093 38.046V34.056H18.8933V37.892C18.8933 39.236 19.444 39.908 20.5453 39.908C21.096 39.908 21.5487 39.712 21.9033 39.32C22.258 38.928 22.4353 38.368 22.4353 37.64V34.056H23.9193V41H22.6033L22.4913 39.782C22.2767 40.2113 21.9593 40.552 21.5393 40.804C21.1287 41.0467 20.6527 41.168 20.1113 41.168ZM25.8071 41V34.056H27.1231L27.2351 35.274C27.4498 34.8447 27.7625 34.5087 28.1731 34.266C28.5931 34.014 29.0738 33.888 29.6151 33.888C30.4551 33.888 31.1131 34.1493 31.5891 34.672C32.0745 35.1947 32.3171 35.974 32.3171 37.01V41H30.8471V37.164C30.8471 35.82 30.2965 35.148 29.1951 35.148C28.6445 35.148 28.1871 35.344 27.8231 35.736C27.4685 36.128 27.2911 36.688 27.2911 37.416V41H25.8071ZM37.229 41.168C36.557 41.168 35.9643 41.0093 35.451 40.692C34.9376 40.3747 34.5363 39.9407 34.247 39.39C33.9576 38.8393 33.813 38.214 33.813 37.514C33.813 36.814 33.9576 36.1933 34.247 35.652C34.5363 35.1013 34.9376 34.672 35.451 34.364C35.9736 34.0467 36.571 33.888 37.243 33.888C37.7936 33.888 38.2743 33.9953 38.685 34.21C39.105 34.4247 39.4316 34.728 39.665 35.12V30.92H41.149V41H39.819L39.665 39.922C39.441 40.2487 39.133 40.538 38.741 40.79C38.349 41.042 37.845 41.168 37.229 41.168ZM37.495 39.88C38.1296 39.88 38.6476 39.6607 39.049 39.222C39.4596 38.7833 39.665 38.2187 39.665 37.528C39.665 36.828 39.4596 36.2633 39.049 35.834C38.6476 35.3953 38.1296 35.176 37.495 35.176C36.8603 35.176 36.3376 35.3953 35.927 35.834C35.5163 36.2633 35.311 36.828 35.311 37.528C35.311 37.9853 35.4043 38.3913 35.591 38.746C35.7776 39.1007 36.0343 39.3807 36.361 39.586C36.697 39.782 37.075 39.88 37.495 39.88ZM45.792 41.168C44.9147 41.168 44.1914 40.9533 43.622 40.524C43.0527 40.0947 42.726 39.5253 42.642 38.816H44.14C44.2147 39.1333 44.392 39.4087 44.672 39.642C44.952 39.866 45.3207 39.978 45.778 39.978C46.226 39.978 46.5527 39.8847 46.758 39.698C46.9634 39.5113 47.066 39.2967 47.066 39.054C47.066 38.6993 46.9214 38.4613 46.632 38.34C46.352 38.2093 45.96 38.0927 45.456 37.99C45.064 37.906 44.672 37.794 44.28 37.654C43.8974 37.514 43.5754 37.318 43.314 37.066C43.062 36.8047 42.936 36.4547 42.936 36.016C42.936 35.4093 43.1694 34.9053 43.636 34.504C44.1027 34.0933 44.756 33.888 45.596 33.888C46.3707 33.888 46.996 34.0747 47.472 34.448C47.9574 34.8213 48.242 35.3487 48.326 36.03H46.898C46.8514 35.7313 46.7114 35.498 46.478 35.33C46.254 35.162 45.9507 35.078 45.568 35.078C45.1947 35.078 44.9054 35.1573 44.7 35.316C44.4947 35.4653 44.392 35.6613 44.392 35.904C44.392 36.1467 44.532 36.338 44.812 36.478C45.1014 36.618 45.4794 36.744 45.946 36.856C46.4127 36.9587 46.842 37.08 47.234 37.22C47.6354 37.3507 47.9574 37.5467 48.2 37.808C48.4427 38.0693 48.564 38.452 48.564 38.956C48.5734 39.5907 48.326 40.118 47.822 40.538C47.3274 40.958 46.6507 41.168 45.792 41.168ZM56.5534 38.872C56.1894 38.872 55.8534 38.83 55.5454 38.746L54.9434 39.334C55.0461 39.3993 55.1721 39.4553 55.3214 39.502C55.4708 39.5487 55.6808 39.5907 55.9514 39.628C56.2221 39.6653 56.5908 39.7027 57.0574 39.74C57.9814 39.824 58.6488 40.048 59.0594 40.412C59.4701 40.7667 59.6754 41.2427 59.6754 41.84C59.6754 42.2507 59.5634 42.638 59.3394 43.002C59.1248 43.3753 58.7841 43.674 58.3174 43.898C57.8601 44.1313 57.2721 44.248 56.5534 44.248C55.5828 44.248 54.7941 44.0613 54.1874 43.688C53.5901 43.324 53.2914 42.7687 53.2914 42.022C53.2914 41.7327 53.3661 41.4433 53.5154 41.154C53.6741 40.874 53.9214 40.608 54.2574 40.356C54.0614 40.272 53.8888 40.1833 53.7394 40.09C53.5994 39.9873 53.4734 39.8847 53.3614 39.782V39.446L54.5654 38.214C54.0241 37.7473 53.7534 37.136 53.7534 36.38C53.7534 35.9227 53.8608 35.5073 54.0754 35.134C54.2994 34.7513 54.6214 34.448 55.0414 34.224C55.4614 34 55.9654 33.888 56.5534 33.888C56.9454 33.888 57.3094 33.944 57.6454 34.056H60.2354V35.036L59.0034 35.106C59.2274 35.4887 59.3394 35.9133 59.3394 36.38C59.3394 36.8467 59.2274 37.2667 59.0034 37.64C58.7888 38.0133 58.4714 38.312 58.0514 38.536C57.6408 38.76 57.1414 38.872 56.5534 38.872ZM56.5534 37.71C56.9828 37.71 57.3281 37.598 57.5894 37.374C57.8601 37.1407 57.9954 36.814 57.9954 36.394C57.9954 35.9647 57.8601 35.638 57.5894 35.414C57.3281 35.19 56.9828 35.078 56.5534 35.078C56.1148 35.078 55.7601 35.19 55.4894 35.414C55.2281 35.638 55.0974 35.9647 55.0974 36.394C55.0974 36.814 55.2281 37.1407 55.4894 37.374C55.7601 37.598 56.1148 37.71 56.5534 37.71ZM54.6914 41.882C54.6914 42.2833 54.8688 42.582 55.2234 42.778C55.5781 42.9833 56.0214 43.086 56.5534 43.086C57.0668 43.086 57.4821 42.974 57.7994 42.75C58.1168 42.5353 58.2754 42.246 58.2754 41.882C58.2754 41.6113 58.1681 41.378 57.9534 41.182C57.7388 40.9953 57.3328 40.8787 56.7354 40.832C56.2874 40.804 55.8908 40.762 55.5454 40.706C55.2188 40.8833 54.9948 41.0747 54.8734 41.28C54.7521 41.4853 54.6914 41.686 54.6914 41.882ZM61.5591 41V34.056H62.8891L63.0151 35.372C63.2578 34.9147 63.5938 34.5553 64.0231 34.294C64.4618 34.0233 64.9891 33.888 65.6051 33.888V35.442H65.1991C64.7884 35.442 64.4198 35.512 64.0931 35.652C63.7758 35.7827 63.5191 36.0113 63.3231 36.338C63.1364 36.6553 63.0431 37.0987 63.0431 37.668V41H61.5591ZM69.934 41.168C69.2527 41.168 68.646 41.0187 68.114 40.72C67.5914 40.412 67.1807 39.9873 66.882 39.446C66.5834 38.9047 66.434 38.2747 66.434 37.556C66.434 36.828 66.5787 36.1887 66.868 35.638C67.1667 35.0873 67.5774 34.658 68.1 34.35C68.632 34.042 69.248 33.888 69.948 33.888C70.6294 33.888 71.222 34.042 71.726 34.35C72.23 34.6487 72.622 35.05 72.902 35.554C73.182 36.058 73.322 36.6133 73.322 37.22C73.322 37.3133 73.3174 37.416 73.308 37.528C73.308 37.6307 73.3034 37.7473 73.294 37.878H67.89C67.9367 38.55 68.156 39.0633 68.548 39.418C68.9494 39.7633 69.4114 39.936 69.934 39.936C70.354 39.936 70.704 39.8427 70.984 39.656C71.2734 39.46 71.488 39.1987 71.628 38.872H73.112C72.9254 39.5253 72.552 40.0713 71.992 40.51C71.4414 40.9487 70.7554 41.168 69.934 41.168ZM69.934 35.106C69.4394 35.106 69.0007 35.2553 68.618 35.554C68.2354 35.8433 68.002 36.282 67.918 36.87H71.838C71.81 36.3287 71.6187 35.8993 71.264 35.582C70.9094 35.2647 70.466 35.106 69.934 35.106ZM77.2138 41.168C76.6258 41.168 76.1405 41.07 75.7578 40.874C75.3752 40.678 75.0905 40.4213 74.9038 40.104C74.7172 39.7773 74.6238 39.4227 74.6238 39.04C74.6238 38.368 74.8852 37.836 75.4078 37.444C75.9305 37.052 76.6772 36.856 77.6478 36.856H79.4678V36.73C79.4678 36.1887 79.3185 35.7827 79.0198 35.512C78.7305 35.2413 78.3525 35.106 77.8858 35.106C77.4752 35.106 77.1158 35.2087 76.8078 35.414C76.5092 35.61 76.3272 35.904 76.2618 36.296H74.7778C74.8245 35.792 74.9925 35.3627 75.2818 35.008C75.5805 34.644 75.9538 34.3687 76.4018 34.182C76.8592 33.986 77.3585 33.888 77.8998 33.888C78.8705 33.888 79.6218 34.1447 80.1538 34.658C80.6858 35.162 80.9518 35.8527 80.9518 36.73V41H79.6638L79.5378 39.81C79.3418 40.1927 79.0572 40.5147 78.6838 40.776C78.3105 41.0373 77.8205 41.168 77.2138 41.168ZM77.5078 39.964C77.9092 39.964 78.2452 39.8707 78.5158 39.684C78.7958 39.488 79.0105 39.2313 79.1598 38.914C79.3185 38.5967 79.4165 38.2467 79.4538 37.864H77.8018C77.2138 37.864 76.7938 37.9667 76.5418 38.172C76.2992 38.3773 76.1778 38.634 76.1778 38.942C76.1778 39.2593 76.2945 39.5113 76.5278 39.698C76.7705 39.8753 77.0972 39.964 77.5078 39.964ZM85.4574 41C84.7761 41 84.2348 40.8367 83.8334 40.51C83.4321 40.174 83.2314 39.5813 83.2314 38.732V35.302H82.0414V34.056H83.2314L83.4134 32.292H84.7154V34.056H86.6754V35.302H84.7154V38.732C84.7154 39.1147 84.7948 39.3807 84.9534 39.53C85.1214 39.67 85.4061 39.74 85.8074 39.74H86.6054V41H85.4574ZM88.5136 38.102L88.3456 31.2H89.9416L89.7736 38.102H88.5136ZM89.1856 41.084C88.8962 41.084 88.6582 40.9953 88.4716 40.818C88.2942 40.6313 88.2056 40.412 88.2056 40.16C88.2056 39.8987 88.2942 39.6793 88.4716 39.502C88.6582 39.3153 88.8962 39.222 89.1856 39.222C89.4562 39.222 89.6802 39.3153 89.8576 39.502C90.0442 39.6793 90.1376 39.8987 90.1376 40.16C90.1376 40.412 90.0442 40.6313 89.8576 40.818C89.6802 40.9953 89.4562 41.084 89.1856 41.084ZM95.6034 41V31.2H97.0874V41H95.6034ZM98.6 34.49L99.384 31.2H100.994L99.636 34.49H98.6ZM102.37 41V34.056H103.686L103.812 35.036C104.036 34.6813 104.33 34.4013 104.694 34.196C105.067 33.9907 105.496 33.888 105.982 33.888C107.083 33.888 107.848 34.322 108.278 35.19C108.53 34.7887 108.866 34.4713 109.286 34.238C109.715 34.0047 110.177 33.888 110.672 33.888C111.54 33.888 112.221 34.1493 112.716 34.672C113.21 35.1947 113.458 35.974 113.458 37.01V41H111.974V37.164C111.974 35.82 111.46 35.148 110.434 35.148C109.911 35.148 109.482 35.344 109.146 35.736C108.819 36.128 108.656 36.688 108.656 37.416V41H107.172V37.164C107.172 35.82 106.654 35.148 105.618 35.148C105.104 35.148 104.68 35.344 104.344 35.736C104.017 36.128 103.854 36.688 103.854 37.416V41H102.37ZM121.885 41.168C121.213 41.168 120.621 41.0093 120.107 40.692C119.594 40.3747 119.193 39.9407 118.903 39.39C118.614 38.8393 118.469 38.214 118.469 37.514C118.469 36.814 118.614 36.1933 118.903 35.652C119.193 35.1013 119.594 34.672 120.107 34.364C120.63 34.0467 121.227 33.888 121.899 33.888C122.45 33.888 122.931 33.9953 123.341 34.21C123.761 34.4247 124.088 34.728 124.321 35.12V30.92H125.805V41H124.475L124.321 39.922C124.097 40.2487 123.789 40.538 123.397 40.79C123.005 41.042 122.501 41.168 121.885 41.168ZM122.151 39.88C122.786 39.88 123.304 39.6607 123.705 39.222C124.116 38.7833 124.321 38.2187 124.321 37.528C124.321 36.828 124.116 36.2633 123.705 35.834C123.304 35.3953 122.786 35.176 122.151 35.176C121.517 35.176 120.994 35.3953 120.583 35.834C120.173 36.2633 119.967 36.828 119.967 37.528C119.967 37.9853 120.061 38.3913 120.247 38.746C120.434 39.1007 120.691 39.3807 121.017 39.586C121.353 39.782 121.731 39.88 122.151 39.88ZM130.924 41.168C130.243 41.168 129.636 41.0187 129.104 40.72C128.582 40.412 128.171 39.9873 127.872 39.446C127.574 38.9047 127.424 38.2747 127.424 37.556C127.424 36.828 127.569 36.1887 127.858 35.638C128.157 35.0873 128.568 34.658 129.09 34.35C129.622 34.042 130.238 33.888 130.938 33.888C131.62 33.888 132.212 34.042 132.716 34.35C133.22 34.6487 133.612 35.05 133.892 35.554C134.172 36.058 134.312 36.6133 134.312 37.22C134.312 37.3133 134.308 37.416 134.298 37.528C134.298 37.6307 134.294 37.7473 134.284 37.878H128.88C128.927 38.55 129.146 39.0633 129.538 39.418C129.94 39.7633 130.402 39.936 130.924 39.936C131.344 39.936 131.694 39.8427 131.974 39.656C132.264 39.46 132.478 39.1987 132.618 38.872H134.102C133.916 39.5253 133.542 40.0713 132.982 40.51C132.432 40.9487 131.746 41.168 130.924 41.168ZM130.924 35.106C130.43 35.106 129.991 35.2553 129.608 35.554C129.226 35.8433 128.992 36.282 128.908 36.87H132.828C132.8 36.3287 132.609 35.8993 132.254 35.582C131.9 35.2647 131.456 35.106 130.924 35.106ZM136.202 41V35.302H135.208V34.056H136.202V33.048C136.202 32.292 136.389 31.7507 136.762 31.424C137.145 31.088 137.681 30.92 138.372 30.92H139.1V32.18H138.596C138.269 32.18 138.036 32.25 137.896 32.39C137.756 32.5207 137.686 32.7447 137.686 33.062V34.056H142.082V41H140.598V35.302H137.686V41H136.202ZM141.354 32.894C141.074 32.894 140.841 32.81 140.654 32.642C140.477 32.4647 140.388 32.2407 140.388 31.97C140.388 31.7087 140.477 31.494 140.654 31.326C140.841 31.158 141.074 31.074 141.354 31.074C141.634 31.074 141.863 31.158 142.04 31.326C142.227 31.494 142.32 31.7087 142.32 31.97C142.32 32.2407 142.227 32.4647 142.04 32.642C141.863 32.81 141.634 32.894 141.354 32.894ZM144.055 41V34.056H145.371L145.483 35.274C145.698 34.8447 146.011 34.5087 146.421 34.266C146.841 34.014 147.322 33.888 147.863 33.888C148.703 33.888 149.361 34.1493 149.837 34.672C150.323 35.1947 150.565 35.974 150.565 37.01V41H149.095V37.164C149.095 35.82 148.545 35.148 147.443 35.148C146.893 35.148 146.435 35.344 146.071 35.736C145.717 36.128 145.539 36.688 145.539 37.416V41H144.055ZM153.153 32.74C152.873 32.74 152.64 32.656 152.453 32.488C152.276 32.3107 152.187 32.0913 152.187 31.83C152.187 31.5687 152.276 31.354 152.453 31.186C152.64 31.0087 152.873 30.92 153.153 30.92C153.433 30.92 153.662 31.0087 153.839 31.186C154.026 31.354 154.119 31.5687 154.119 31.83C154.119 32.0913 154.026 32.3107 153.839 32.488C153.662 32.656 153.433 32.74 153.153 32.74ZM152.411 41V34.056H153.895V41H152.411ZM158.766 41C158.085 41 157.543 40.8367 157.142 40.51C156.741 40.174 156.54 39.5813 156.54 38.732V35.302H155.35V34.056H156.54L156.722 32.292H158.024V34.056H159.984V35.302H158.024V38.732C158.024 39.1147 158.103 39.3807 158.262 39.53C158.43 39.67 158.715 39.74 159.116 39.74H159.914V41H158.766ZM164.584 41.168C163.903 41.168 163.296 41.0187 162.764 40.72C162.242 40.412 161.831 39.9873 161.532 39.446C161.234 38.9047 161.084 38.2747 161.084 37.556C161.084 36.828 161.229 36.1887 161.518 35.638C161.817 35.0873 162.228 34.658 162.75 34.35C163.282 34.042 163.898 33.888 164.598 33.888C165.28 33.888 165.872 34.042 166.376 34.35C166.88 34.6487 167.272 35.05 167.552 35.554C167.832 36.058 167.972 36.6133 167.972 37.22C167.972 37.3133 167.968 37.416 167.958 37.528C167.958 37.6307 167.954 37.7473 167.944 37.878H162.54C162.587 38.55 162.806 39.0633 163.198 39.418C163.6 39.7633 164.062 39.936 164.584 39.936C165.004 39.936 165.354 39.8427 165.634 39.656C165.924 39.46 166.138 39.1987 166.278 38.872H167.762C167.576 39.5253 167.202 40.0713 166.642 40.51C166.092 40.9487 165.406 41.168 164.584 41.168ZM164.584 35.106C164.09 35.106 163.651 35.2553 163.268 35.554C162.886 35.8433 162.652 36.282 162.568 36.87H166.488C166.46 36.3287 166.269 35.8993 165.914 35.582C165.56 35.2647 165.116 35.106 164.584 35.106ZM169.512 41V30.92H170.996V41H169.512ZM173.688 44.08L175.354 40.426H174.948L172.204 34.056H173.814L175.942 39.194L178.168 34.056H179.736L175.256 44.08H173.688ZM185.323 32.74C185.043 32.74 184.81 32.656 184.623 32.488C184.446 32.3107 184.357 32.0913 184.357 31.83C184.357 31.5687 184.446 31.354 184.623 31.186C184.81 31.0087 185.043 30.92 185.323 30.92C185.603 30.92 185.832 31.0087 186.009 31.186C186.196 31.354 186.289 31.5687 186.289 31.83C186.289 32.0913 186.196 32.3107 186.009 32.488C185.832 32.656 185.603 32.74 185.323 32.74ZM184.581 41V34.056H186.065V41H184.581ZM188.024 41V34.056H189.34L189.452 35.274C189.667 34.8447 189.979 34.5087 190.39 34.266C190.81 34.014 191.291 33.888 191.832 33.888C192.672 33.888 193.33 34.1493 193.806 34.672C194.291 35.1947 194.534 35.974 194.534 37.01V41H193.064V37.164C193.064 35.82 192.513 35.148 191.412 35.148C190.861 35.148 190.404 35.344 190.04 35.736C189.685 36.128 189.508 36.688 189.508 37.416V41H188.024ZM199.194 41C198.512 41 197.971 40.8367 197.57 40.51C197.168 40.174 196.968 39.5813 196.968 38.732V35.302H195.778V34.056H196.968L197.15 32.292H198.452V34.056H200.412V35.302H198.452V38.732C198.452 39.1147 198.531 39.3807 198.69 39.53C198.858 39.67 199.142 39.74 199.544 39.74H200.342V41H199.194ZM205.012 41.168C204.331 41.168 203.724 41.0187 203.192 40.72C202.67 40.412 202.259 39.9873 201.96 39.446C201.662 38.9047 201.512 38.2747 201.512 37.556C201.512 36.828 201.657 36.1887 201.946 35.638C202.245 35.0873 202.656 34.658 203.178 34.35C203.71 34.042 204.326 33.888 205.026 33.888C205.708 33.888 206.3 34.042 206.804 34.35C207.308 34.6487 207.7 35.05 207.98 35.554C208.26 36.058 208.4 36.6133 208.4 37.22C208.4 37.3133 208.396 37.416 208.386 37.528C208.386 37.6307 208.382 37.7473 208.372 37.878H202.968C203.015 38.55 203.234 39.0633 203.626 39.418C204.028 39.7633 204.49 39.936 205.012 39.936C205.432 39.936 205.782 39.8427 206.062 39.656C206.352 39.46 206.566 39.1987 206.706 38.872H208.19C208.004 39.5253 207.63 40.0713 207.07 40.51C206.52 40.9487 205.834 41.168 205.012 41.168ZM205.012 35.106C204.518 35.106 204.079 35.2553 203.696 35.554C203.314 35.8433 203.08 36.282 202.996 36.87H206.916C206.888 36.3287 206.697 35.8993 206.342 35.582C205.988 35.2647 205.544 35.106 205.012 35.106ZM209.94 41V34.056H211.27L211.396 35.372C211.639 34.9147 211.975 34.5553 212.404 34.294C212.843 34.0233 213.37 33.888 213.986 33.888V35.442H213.58C213.169 35.442 212.801 35.512 212.474 35.652C212.157 35.7827 211.9 36.0113 211.704 36.338C211.517 36.6553 211.424 37.0987 211.424 37.668V41H209.94ZM218.315 41.168C217.634 41.168 217.027 41.0187 216.495 40.72C215.972 40.412 215.562 39.9873 215.263 39.446C214.964 38.9047 214.815 38.2747 214.815 37.556C214.815 36.828 214.96 36.1887 215.249 35.638C215.548 35.0873 215.958 34.658 216.481 34.35C217.013 34.042 217.629 33.888 218.329 33.888C219.01 33.888 219.603 34.042 220.107 34.35C220.611 34.6487 221.003 35.05 221.283 35.554C221.563 36.058 221.703 36.6133 221.703 37.22C221.703 37.3133 221.698 37.416 221.689 37.528C221.689 37.6307 221.684 37.7473 221.675 37.878H216.271C216.318 38.55 216.537 39.0633 216.929 39.418C217.33 39.7633 217.792 39.936 218.315 39.936C218.735 39.936 219.085 39.8427 219.365 39.656C219.654 39.46 219.869 39.1987 220.009 38.872H221.493C221.306 39.5253 220.933 40.0713 220.373 40.51C219.822 40.9487 219.136 41.168 218.315 41.168ZM218.315 35.106C217.82 35.106 217.382 35.2553 216.999 35.554C216.616 35.8433 216.383 36.282 216.299 36.87H220.219C220.191 36.3287 220 35.8993 219.645 35.582C219.29 35.2647 218.847 35.106 218.315 35.106ZM226.015 41.168C225.137 41.168 224.414 40.9533 223.845 40.524C223.275 40.0947 222.949 39.5253 222.865 38.816H224.363C224.437 39.1333 224.615 39.4087 224.895 39.642C225.175 39.866 225.543 39.978 226.001 39.978C226.449 39.978 226.775 39.8847 226.981 39.698C227.186 39.5113 227.289 39.2967 227.289 39.054C227.289 38.6993 227.144 38.4613 226.855 38.34C226.575 38.2093 226.183 38.0927 225.679 37.99C225.287 37.906 224.895 37.794 224.503 37.654C224.12 37.514 223.798 37.318 223.537 37.066C223.285 36.8047 223.159 36.4547 223.159 36.016C223.159 35.4093 223.392 34.9053 223.859 34.504C224.325 34.0933 224.979 33.888 225.819 33.888C226.593 33.888 227.219 34.0747 227.695 34.448C228.18 34.8213 228.465 35.3487 228.549 36.03H227.121C227.074 35.7313 226.934 35.498 226.701 35.33C226.477 35.162 226.173 35.078 225.791 35.078C225.417 35.078 225.128 35.1573 224.923 35.316C224.717 35.4653 224.615 35.6613 224.615 35.904C224.615 36.1467 224.755 36.338 225.035 36.478C225.324 36.618 225.702 36.744 226.169 36.856C226.635 36.9587 227.065 37.08 227.457 37.22C227.858 37.3507 228.18 37.5467 228.423 37.808C228.665 38.0693 228.787 38.452 228.787 38.956C228.796 39.5907 228.549 40.118 228.045 40.538C227.55 40.958 226.873 41.168 226.015 41.168ZM230.995 41.084C230.715 41.084 230.481 40.9953 230.295 40.818C230.117 40.6313 230.029 40.412 230.029 40.16C230.029 39.8987 230.117 39.6793 230.295 39.502C230.481 39.3153 230.715 39.222 230.995 39.222C231.275 39.222 231.503 39.3153 231.681 39.502C231.858 39.6793 231.947 39.8987 231.947 40.16C231.947 40.412 231.858 40.6313 231.681 40.818C231.503 40.9953 231.275 41.084 230.995 41.084ZM234.03 41.084C233.75 41.084 233.517 40.9953 233.33 40.818C233.153 40.6313 233.064 40.412 233.064 40.16C233.064 39.8987 233.153 39.6793 233.33 39.502C233.517 39.3153 233.75 39.222 234.03 39.222C234.31 39.222 234.539 39.3153 234.716 39.502C234.893 39.6793 234.982 39.8987 234.982 40.16C234.982 40.412 234.893 40.6313 234.716 40.818C234.539 40.9953 234.31 41.084 234.03 41.084ZM237.065 41.084C236.785 41.084 236.552 40.9953 236.365 40.818C236.188 40.6313 236.099 40.412 236.099 40.16C236.099 39.8987 236.188 39.6793 236.365 39.502C236.552 39.3153 236.785 39.222 237.065 39.222C237.345 39.222 237.574 39.3153 237.751 39.502C237.928 39.6793 238.017 39.8987 238.017 40.16C238.017 40.412 237.928 40.6313 237.751 40.818C237.574 40.9953 237.345 41.084 237.065 41.084Z" fill="black"/>
<path d="M248.89 37.108C249.534 37.108 250.066 36.576 250.066 35.932C250.066 35.288 249.534 34.756 248.89 34.756C248.246 34.756 247.714 35.288 247.714 35.932C247.714 36.576 248.246 37.108 248.89 37.108ZM262.552 41.168C261.88 41.168 261.296 41.0467 260.802 40.804C260.307 40.5613 259.91 40.23 259.612 39.81C259.322 39.3807 259.145 38.8953 259.08 38.354H260.228C260.34 38.8953 260.601 39.334 261.012 39.67C261.422 39.9967 261.94 40.16 262.566 40.16C263.032 40.16 263.434 40.0527 263.77 39.838C264.106 39.614 264.362 39.3153 264.54 38.942C264.726 38.5687 264.82 38.1533 264.82 37.696C264.82 36.968 264.614 36.38 264.204 35.932C263.793 35.484 263.261 35.26 262.608 35.26C262.066 35.26 261.604 35.3813 261.222 35.624C260.839 35.8667 260.559 36.184 260.382 36.576H259.262L260.102 31.2H265.24V32.222H261.012L260.438 35.204C260.662 34.9333 260.97 34.7093 261.362 34.532C261.763 34.3547 262.22 34.266 262.734 34.266C263.378 34.266 263.938 34.4153 264.414 34.714C264.899 35.0127 265.277 35.4187 265.548 35.932C265.818 36.4453 265.954 37.0287 265.954 37.682C265.954 38.3073 265.818 38.886 265.548 39.418C265.286 39.95 264.899 40.3747 264.386 40.692C263.882 41.0093 263.27 41.168 262.552 41.168ZM267.722 41V34.056H268.786L268.87 35.064C269.094 34.6907 269.393 34.4013 269.766 34.196C270.139 33.9907 270.559 33.888 271.026 33.888C271.577 33.888 272.048 34 272.44 34.224C272.841 34.448 273.149 34.7887 273.364 35.246C273.607 34.826 273.938 34.4947 274.358 34.252C274.787 34.0093 275.249 33.888 275.744 33.888C276.575 33.888 277.237 34.14 277.732 34.644C278.227 35.1387 278.474 35.904 278.474 36.94V41H277.312V37.066C277.312 36.3473 277.167 35.806 276.878 35.442C276.589 35.078 276.173 34.896 275.632 34.896C275.072 34.896 274.605 35.1153 274.232 35.554C273.868 35.9833 273.686 36.5993 273.686 37.402V41H272.51V37.066C272.51 36.3473 272.365 35.806 272.076 35.442C271.787 35.078 271.371 34.896 270.83 34.896C270.279 34.896 269.817 35.1153 269.444 35.554C269.08 35.9833 268.898 36.5993 268.898 37.402V41H267.722Z" fill="#727578"/>
<path d="M3.84 16.192C2.79467 16.192 1.96267 15.8987 1.344 15.312C0.736 14.7253 0.432 13.8987 0.432 12.832H2.128C2.128 13.3653 2.256 13.808 2.512 14.16C2.77867 14.512 3.21067 14.688 3.808 14.688C4.39467 14.688 4.81067 14.5227 5.056 14.192C5.30133 13.8507 5.424 13.4187 5.424 12.896V4.8H7.12V12.896C7.12 13.952 6.82667 14.768 6.24 15.344C5.65333 15.9093 4.85333 16.192 3.84 16.192ZM11.69 16.192C11.018 16.192 10.4633 16.08 10.026 15.856C9.58867 15.632 9.26333 15.3387 9.05 14.976C8.83667 14.6027 8.73 14.1973 8.73 13.76C8.73 12.992 9.02867 12.384 9.626 11.936C10.2233 11.488 11.0767 11.264 12.186 11.264H14.266V11.12C14.266 10.5013 14.0953 10.0373 13.754 9.728C13.4233 9.41867 12.9913 9.264 12.458 9.264C11.9887 9.264 11.578 9.38133 11.226 9.616C10.8847 9.84 10.6767 10.176 10.602 10.624H8.906C8.95933 10.048 9.15133 9.55733 9.482 9.152C9.82333 8.736 10.25 8.42133 10.762 8.208C11.2847 7.984 11.8553 7.872 12.474 7.872C13.5833 7.872 14.442 8.16533 15.05 8.752C15.658 9.328 15.962 10.1173 15.962 11.12V16H14.49L14.346 14.64C14.122 15.0773 13.7967 15.4453 13.37 15.744C12.9433 16.0427 12.3833 16.192 11.69 16.192ZM12.026 14.816C12.4847 14.816 12.8687 14.7093 13.178 14.496C13.498 14.272 13.7433 13.9787 13.914 13.616C14.0953 13.2533 14.2073 12.8533 14.25 12.416H12.362C11.69 12.416 11.21 12.5333 10.922 12.768C10.6447 13.0027 10.506 13.296 10.506 13.648C10.506 14.0107 10.6393 14.2987 10.906 14.512C11.1833 14.7147 11.5567 14.816 12.026 14.816ZM21.3795 16.192C20.6008 16.192 19.9022 16.016 19.2835 15.664C18.6755 15.312 18.1955 14.8267 17.8435 14.208C17.5022 13.5787 17.3315 12.8533 17.3315 12.032C17.3315 11.2107 17.5022 10.4907 17.8435 9.872C18.1955 9.24267 18.6755 8.752 19.2835 8.4C19.9022 8.048 20.6008 7.872 21.3795 7.872C22.3608 7.872 23.1822 8.128 23.8435 8.64C24.5155 9.152 24.9475 9.84533 25.1395 10.72H23.3635C23.2568 10.2827 23.0222 9.94133 22.6595 9.696C22.2968 9.45067 21.8702 9.328 21.3795 9.328C20.9635 9.328 20.5795 9.43467 20.2275 9.648C19.8755 9.85067 19.5928 10.1547 19.3795 10.56C19.1662 10.9547 19.0595 11.4453 19.0595 12.032C19.0595 12.6187 19.1662 13.1147 19.3795 13.52C19.5928 13.9147 19.8755 14.2187 20.2275 14.432C20.5795 14.6453 20.9635 14.752 21.3795 14.752C21.8702 14.752 22.2968 14.6293 22.6595 14.384C23.0222 14.1387 23.2568 13.792 23.3635 13.344H25.1395C24.9582 14.1973 24.5315 14.8853 23.8595 15.408C23.1875 15.9307 22.3608 16.192 21.3795 16.192ZM30.3709 16.192C29.6135 16.192 28.9309 16.0213 28.3229 15.68C27.7255 15.328 27.2509 14.8427 26.8989 14.224C26.5469 13.5947 26.3709 12.864 26.3709 12.032C26.3709 11.2 26.5469 10.4747 26.8989 9.856C27.2615 9.22667 27.7469 8.74133 28.3549 8.4C28.9629 8.048 29.6402 7.872 30.3869 7.872C31.1442 7.872 31.8215 8.048 32.4189 8.4C33.0269 8.74133 33.5069 9.22667 33.8589 9.856C34.2215 10.4747 34.4029 11.2 34.4029 12.032C34.4029 12.864 34.2215 13.5947 33.8589 14.224C33.5069 14.8427 33.0269 15.328 32.4189 15.68C31.8109 16.0213 31.1282 16.192 30.3709 16.192ZM30.3709 14.736C30.7762 14.736 31.1495 14.6347 31.4909 14.432C31.8429 14.2293 32.1255 13.9307 32.3389 13.536C32.5522 13.1307 32.6589 12.6293 32.6589 12.032C32.6589 11.4347 32.5522 10.9387 32.3389 10.544C32.1362 10.1387 31.8589 9.83467 31.5069 9.632C31.1655 9.42933 30.7922 9.328 30.3869 9.328C29.9815 9.328 29.6029 9.42933 29.2509 9.632C28.9095 9.83467 28.6322 10.1387 28.4189 10.544C28.2055 10.9387 28.0989 11.4347 28.0989 12.032C28.0989 12.6293 28.2055 13.1307 28.4189 13.536C28.6322 13.9307 28.9095 14.2293 29.2509 14.432C29.5922 14.6347 29.9655 14.736 30.3709 14.736ZM40.381 16.192C39.7623 16.192 39.213 16.0693 38.733 15.824C38.2637 15.5787 37.8903 15.232 37.613 14.784L37.437 16H35.917V4.48H37.613V9.296C37.869 8.92267 38.221 8.592 38.669 8.304C39.117 8.016 39.693 7.872 40.397 7.872C41.165 7.872 41.8423 8.05333 42.429 8.416C43.0157 8.77867 43.4743 9.27467 43.805 9.904C44.1463 10.5333 44.317 11.248 44.317 12.048C44.317 12.848 44.1463 13.5627 43.805 14.192C43.4743 14.8107 43.0157 15.3013 42.429 15.664C41.8423 16.016 41.1597 16.192 40.381 16.192ZM40.093 14.72C40.8183 14.72 41.4157 14.4747 41.885 13.984C42.3543 13.4827 42.589 12.832 42.589 12.032C42.589 11.5093 42.4823 11.0453 42.269 10.64C42.0557 10.2347 41.7623 9.92 41.389 9.696C41.0157 9.46133 40.5837 9.344 40.093 9.344C39.3677 9.344 38.7703 9.59467 38.301 10.096C37.8423 10.5973 37.613 11.2427 37.613 12.032C37.613 12.832 37.8423 13.4827 38.301 13.984C38.7703 14.4747 39.3677 14.72 40.093 14.72ZM53.3026 16.192C52.4813 16.192 51.7613 16.048 51.1426 15.76C50.524 15.472 50.0386 15.0613 49.6866 14.528C49.3453 13.9947 49.1693 13.36 49.1586 12.624H50.9506C50.9613 13.2213 51.1693 13.728 51.5746 14.144C51.98 14.56 52.5506 14.768 53.2866 14.768C53.9373 14.768 54.444 14.6133 54.8066 14.304C55.18 13.984 55.3666 13.5787 55.3666 13.088C55.3666 12.6933 55.276 12.3733 55.0946 12.128C54.924 11.8827 54.684 11.68 54.3746 11.52C54.076 11.36 53.7293 11.216 53.3346 11.088C52.94 10.96 52.524 10.8213 52.0866 10.672C51.2226 10.384 50.572 10.0107 50.1346 9.552C49.708 9.09333 49.4946 8.49067 49.4946 7.744C49.484 7.11467 49.628 6.56533 49.9266 6.096C50.236 5.62667 50.6626 5.264 51.2066 5.008C51.7613 4.74133 52.4066 4.608 53.1426 4.608C53.868 4.608 54.5026 4.74133 55.0466 5.008C55.6013 5.27467 56.0333 5.648 56.3426 6.128C56.652 6.59733 56.812 7.14667 56.8226 7.776H55.0306C55.0306 7.488 54.956 7.216 54.8066 6.96C54.6573 6.69333 54.4386 6.47467 54.1506 6.304C53.8626 6.13333 53.5106 6.048 53.0946 6.048C52.5613 6.03733 52.1186 6.17067 51.7666 6.448C51.4253 6.72533 51.2546 7.10933 51.2546 7.6C51.2546 8.03733 51.3826 8.37333 51.6386 8.608C51.8946 8.84267 52.2466 9.04 52.6946 9.2C53.1426 9.34933 53.6546 9.52533 54.2306 9.728C54.7853 9.90933 55.2813 10.128 55.7186 10.384C56.156 10.64 56.5026 10.976 56.7586 11.392C57.0253 11.808 57.1586 12.336 57.1586 12.976C57.1586 13.5413 57.0146 14.0693 56.7266 14.56C56.4386 15.04 56.0066 15.4347 55.4306 15.744C54.8546 16.0427 54.1453 16.192 53.3026 16.192ZM59.5889 6.56C59.2689 6.56 59.0022 6.464 58.7889 6.272C58.5862 6.06933 58.4849 5.81867 58.4849 5.52C58.4849 5.22133 58.5862 4.976 58.7889 4.784C59.0022 4.58133 59.2689 4.48 59.5889 4.48C59.9089 4.48 60.1702 4.58133 60.3729 4.784C60.5862 4.976 60.6929 5.22133 60.6929 5.52C60.6929 5.81867 60.5862 6.06933 60.3729 6.272C60.1702 6.464 59.9089 6.56 59.5889 6.56ZM58.7409 16V8.064H60.4369V16H58.7409ZM62.3557 16V8.064H63.8597L64.0037 9.184C64.2597 8.77867 64.5957 8.45867 65.0117 8.224C65.4384 7.98933 65.9291 7.872 66.4837 7.872C67.7424 7.872 68.6171 8.368 69.1077 9.36C69.3957 8.90133 69.7797 8.53867 70.2597 8.272C70.7504 8.00533 71.2784 7.872 71.8437 7.872C72.8357 7.872 73.6144 8.17067 74.1797 8.768C74.7451 9.36533 75.0277 10.256 75.0277 11.44V16H73.3317V11.616C73.3317 10.08 72.7451 9.312 71.5717 9.312C70.9744 9.312 70.4837 9.536 70.0997 9.984C69.7264 10.432 69.5397 11.072 69.5397 11.904V16H67.8437V11.616C67.8437 10.08 67.2517 9.312 66.0677 9.312C65.4811 9.312 64.9957 9.536 64.6117 9.984C64.2384 10.432 64.0517 11.072 64.0517 11.904V16H62.3557ZM76.692 16V8.064H78.196L78.34 9.184C78.596 8.77867 78.932 8.45867 79.348 8.224C79.7747 7.98933 80.2653 7.872 80.82 7.872C82.0787 7.872 82.9533 8.368 83.444 9.36C83.732 8.90133 84.116 8.53867 84.596 8.272C85.0867 8.00533 85.6147 7.872 86.18 7.872C87.172 7.872 87.9507 8.17067 88.516 8.768C89.0813 9.36533 89.364 10.256 89.364 11.44V16H87.668V11.616C87.668 10.08 87.0813 9.312 85.908 9.312C85.3107 9.312 84.82 9.536 84.436 9.984C84.0627 10.432 83.876 11.072 83.876 11.904V16H82.18V11.616C82.18 10.08 81.588 9.312 80.404 9.312C79.8173 9.312 79.332 9.536 78.948 9.984C78.5747 10.432 78.388 11.072 78.388 11.904V16H76.692ZM94.7403 16.192C93.9829 16.192 93.3003 16.0213 92.6923 15.68C92.0949 15.328 91.6203 14.8427 91.2683 14.224C90.9163 13.5947 90.7403 12.864 90.7403 12.032C90.7403 11.2 90.9163 10.4747 91.2683 9.856C91.6309 9.22667 92.1163 8.74133 92.7243 8.4C93.3323 8.048 94.0096 7.872 94.7563 7.872C95.5136 7.872 96.1909 8.048 96.7883 8.4C97.3963 8.74133 97.8763 9.22667 98.2283 9.856C98.5909 10.4747 98.7723 11.2 98.7723 12.032C98.7723 12.864 98.5909 13.5947 98.2283 14.224C97.8763 14.8427 97.3963 15.328 96.7883 15.68C96.1803 16.0213 95.4976 16.192 94.7403 16.192ZM94.7403 14.736C95.1456 14.736 95.5189 14.6347 95.8603 14.432C96.2123 14.2293 96.4949 13.9307 96.7083 13.536C96.9216 13.1307 97.0283 12.6293 97.0283 12.032C97.0283 11.4347 96.9216 10.9387 96.7083 10.544C96.5056 10.1387 96.2283 9.83467 95.8763 9.632C95.5349 9.42933 95.1616 9.328 94.7563 9.328C94.3509 9.328 93.9723 9.42933 93.6203 9.632C93.2789 9.83467 93.0016 10.1387 92.7883 10.544C92.5749 10.9387 92.4683 11.4347 92.4683 12.032C92.4683 12.6293 92.5749 13.1307 92.7883 13.536C93.0016 13.9307 93.2789 14.2293 93.6203 14.432C93.9616 14.6347 94.3349 14.736 94.7403 14.736ZM100.286 16V8.064H101.79L101.918 9.456C102.164 8.96533 102.521 8.58133 102.99 8.304C103.47 8.016 104.02 7.872 104.638 7.872C105.598 7.872 106.35 8.17067 106.894 8.768C107.449 9.36533 107.726 10.256 107.726 11.44V16H106.046V11.616C106.046 10.08 105.417 9.312 104.158 9.312C103.529 9.312 103.006 9.536 102.59 9.984C102.185 10.432 101.982 11.072 101.982 11.904V16H100.286ZM112.572 16.192C111.569 16.192 110.743 15.9467 110.092 15.456C109.441 14.9653 109.068 14.3147 108.972 13.504H110.684C110.769 13.8667 110.972 14.1813 111.292 14.448C111.612 14.704 112.033 14.832 112.556 14.832C113.068 14.832 113.441 14.7253 113.676 14.512C113.911 14.2987 114.028 14.0533 114.028 13.776C114.028 13.3707 113.863 13.0987 113.532 12.96C113.212 12.8107 112.764 12.6773 112.188 12.56C111.74 12.464 111.292 12.336 110.844 12.176C110.407 12.016 110.039 11.792 109.74 11.504C109.452 11.2053 109.308 10.8053 109.308 10.304C109.308 9.61067 109.575 9.03467 110.108 8.576C110.641 8.10667 111.388 7.872 112.348 7.872C113.233 7.872 113.948 8.08533 114.492 8.512C115.047 8.93867 115.372 9.54133 115.468 10.32H113.836C113.783 9.97867 113.623 9.712 113.356 9.52C113.1 9.328 112.753 9.232 112.316 9.232C111.889 9.232 111.559 9.32267 111.324 9.504C111.089 9.67467 110.972 9.89867 110.972 10.176C110.972 10.4533 111.132 10.672 111.452 10.832C111.783 10.992 112.215 11.136 112.748 11.264C113.281 11.3813 113.772 11.52 114.22 11.68C114.679 11.8293 115.047 12.0533 115.324 12.352C115.601 12.6507 115.74 13.088 115.74 13.664C115.751 14.3893 115.468 14.992 114.892 15.472C114.327 15.952 113.553 16.192 112.572 16.192Z" fill="black"/>
<circle cx="309" cy="37" r="4" fill="#FF874E"/>
<path fill-rule="evenodd" clip-rule="evenodd" d="M314.315 6.68994C312.904 5.27881 311.029 4.5 309.032 4.5C304.916 4.5 301.563 7.84961 301.563 11.9658C301.561 13.2817 301.905 14.5659 302.56 15.6987L301.5 19.5684L305.46 18.5283C306.549 19.124 307.779 19.4365 309.029 19.439H309.032C313.148 19.439 316.498 16.0894 316.5 11.9707C316.5 9.97607 315.724 8.10107 314.315 6.68994ZM309.032 18.1768H309.029C307.916 18.1768 306.822 17.8765 305.87 17.3125L305.643 17.1782L303.292 17.7935L303.919 15.5034L303.773 15.269C303.15 14.2803 302.823 13.1377 302.823 11.9658C302.823 8.54541 305.609 5.76221 309.034 5.76221C310.692 5.76221 312.25 6.40918 313.421 7.58106C314.593 8.75537 315.238 10.313 315.238 11.9707C315.238 15.3936 312.452 18.1768 309.032 18.1768ZM312.435 13.5283C312.25 13.4355 311.332 12.9839 311.161 12.9229C310.99 12.8594 310.865 12.8301 310.741 13.0156C310.616 13.2036 310.26 13.6235 310.15 13.748C310.042 13.8701 309.933 13.8872 309.747 13.7944C309.559 13.7017 308.958 13.5039 308.246 12.8667C307.691 12.3735 307.315 11.7607 307.208 11.5752C307.098 11.3872 307.196 11.2871 307.289 11.1943C307.374 11.1113 307.477 10.9771 307.569 10.8672C307.662 10.7598 307.694 10.6816 307.757 10.5571C307.818 10.4326 307.787 10.3228 307.74 10.23C307.694 10.1372 307.32 9.2168 307.164 8.84326C307.013 8.47949 306.859 8.53076 306.744 8.52344C306.637 8.51856 306.512 8.51856 306.388 8.51856C306.263 8.51856 306.061 8.56494 305.89 8.75293C305.719 8.93848 305.238 9.39014 305.238 10.3081C305.238 11.2261 305.907 12.1147 306 12.2393C306.092 12.3613 307.315 14.2461 309.188 15.0542C309.632 15.2471 309.979 15.3618 310.25 15.4473C310.697 15.5889 311.104 15.5693 311.427 15.5229C311.786 15.4692 312.53 15.0713 312.687 14.6343C312.84 14.1997 312.84 13.8262 312.794 13.748C312.748 13.6699 312.623 13.6235 312.435 13.5283Z" fill="#AAACAE"/>
</svg>
