<svg width="319" height="45" viewBox="0 0 319 45" fill="none" xmlns="http://www.w3.org/2000/svg">
<path d="M1.036 41V31.2H4.256C5.02133 31.2 5.65133 31.326 6.146 31.578C6.64067 31.83 7.00467 32.1707 7.238 32.6C7.48067 33.0293 7.602 33.5147 7.602 34.056C7.602 34.588 7.48533 35.0687 7.252 35.498C7.01867 35.9273 6.65467 36.2727 6.16 36.534C5.66533 36.786 5.03067 36.912 4.256 36.912H2.212V41H1.036ZM2.212 35.918H4.228C5.012 35.918 5.56733 35.7547 5.894 35.428C6.23 35.092 6.398 34.6347 6.398 34.056C6.398 33.468 6.23 33.0107 5.894 32.684C5.56733 32.348 5.012 32.18 4.228 32.18H2.212V35.918ZM11.6074 41.168C10.7861 41.168 10.1328 40.9207 9.64742 40.426C9.16209 39.922 8.91942 39.152 8.91942 38.116V34.056H10.0954V37.99C10.0954 39.4367 10.6881 40.16 11.8734 40.16C12.4801 40.16 12.9794 39.9453 13.3714 39.516C13.7728 39.0773 13.9734 38.4567 13.9734 37.654V34.056H15.1494V41H14.0854L14.0014 39.754C13.7868 40.1927 13.4648 40.538 13.0354 40.79C12.6154 41.042 12.1394 41.168 11.6074 41.168ZM19.8291 41C19.1945 41 18.6951 40.846 18.3311 40.538C17.9671 40.23 17.7851 39.6747 17.7851 38.872V35.05H16.5811V34.056H17.7851L17.9391 32.39H18.9611V34.056H21.0051V35.05H18.9611V38.872C18.9611 39.3107 19.0498 39.6093 19.2271 39.768C19.4045 39.9173 19.7171 39.992 20.1651 39.992H20.8931V41H19.8291ZM26.2043 41V34.056H27.2683L27.3523 35.064C27.5763 34.6907 27.8749 34.4013 28.2483 34.196C28.6216 33.9907 29.0416 33.888 29.5083 33.888C30.0589 33.888 30.5303 34 30.9223 34.224C31.3236 34.448 31.6316 34.7887 31.8463 35.246C32.0889 34.826 32.4203 34.4947 32.8403 34.252C33.2696 34.0093 33.7316 33.888 34.2263 33.888C35.0569 33.888 35.7196 34.14 36.2143 34.644C36.7089 35.1387 36.9563 35.904 36.9563 36.94V41H35.7943V37.066C35.7943 36.3473 35.6496 35.806 35.3603 35.442C35.0709 35.078 34.6556 34.896 34.1143 34.896C33.5543 34.896 33.0876 35.1153 32.7143 35.554C32.3503 35.9833 32.1683 36.5993 32.1683 37.402V41H30.9923V37.066C30.9923 36.3473 30.8476 35.806 30.5583 35.442C30.2689 35.078 29.8536 34.896 29.3123 34.896C28.7616 34.896 28.2996 35.1153 27.9263 35.554C27.5623 35.9833 27.3803 36.5993 27.3803 37.402V41H26.2043ZM41.8497 41.168C41.1871 41.168 40.5991 41.0187 40.0857 40.72C39.5724 40.412 39.1664 39.9873 38.8677 39.446C38.5784 38.9047 38.4337 38.2653 38.4337 37.528C38.4337 36.8 38.5784 36.1653 38.8677 35.624C39.1571 35.0733 39.5584 34.6487 40.0717 34.35C40.5944 34.042 41.1964 33.888 41.8777 33.888C42.5497 33.888 43.1284 34.042 43.6137 34.35C44.1084 34.6487 44.4864 35.0453 44.7477 35.54C45.0091 36.0347 45.1397 36.5667 45.1397 37.136C45.1397 37.2387 45.1351 37.3413 45.1257 37.444C45.1257 37.5467 45.1257 37.6633 45.1257 37.794H39.5957C39.6237 38.326 39.7451 38.7693 39.9597 39.124C40.1837 39.4693 40.4591 39.7307 40.7857 39.908C41.1217 40.0853 41.4764 40.174 41.8497 40.174C42.3351 40.174 42.7411 40.062 43.0677 39.838C43.3944 39.614 43.6324 39.3107 43.7817 38.928H44.9437C44.7571 39.572 44.3977 40.1087 43.8657 40.538C43.3431 40.958 42.6711 41.168 41.8497 41.168ZM41.8497 34.882C41.2897 34.882 40.7904 35.0547 40.3517 35.4C39.9224 35.736 39.6751 36.2307 39.6097 36.884H43.9777C43.9497 36.2587 43.7351 35.7687 43.3337 35.414C42.9324 35.0593 42.4377 34.882 41.8497 34.882ZM53.5535 41.168C52.8628 41.168 52.2562 41.0093 51.7335 40.692C51.2202 40.3747 50.8188 39.9407 50.5295 39.39C50.2495 38.8393 50.1095 38.214 50.1095 37.514C50.1095 36.814 50.2542 36.1933 50.5435 35.652C50.8328 35.1013 51.2342 34.672 51.7475 34.364C52.2608 34.0467 52.8675 33.888 53.5675 33.888C54.1368 33.888 54.6408 34.0047 55.0795 34.238C55.5182 34.4713 55.8588 34.798 56.1015 35.218V30.92H57.2775V41H56.2135L56.1015 39.852C55.8775 40.188 55.5555 40.4913 55.1355 40.762C54.7155 41.0327 54.1882 41.168 53.5535 41.168ZM53.6795 40.146C54.1462 40.146 54.5568 40.0387 54.9115 39.824C55.2755 39.6 55.5555 39.292 55.7515 38.9C55.9568 38.508 56.0595 38.0507 56.0595 37.528C56.0595 37.0053 55.9568 36.548 55.7515 36.156C55.5555 35.764 55.2755 35.4607 54.9115 35.246C54.5568 35.022 54.1462 34.91 53.6795 34.91C53.2222 34.91 52.8115 35.022 52.4475 35.246C52.0928 35.4607 51.8128 35.764 51.6075 36.156C51.4115 36.548 51.3135 37.0053 51.3135 37.528C51.3135 38.0507 51.4115 38.508 51.6075 38.9C51.8128 39.292 52.0928 39.6 52.4475 39.824C52.8115 40.0387 53.2222 40.146 53.6795 40.146ZM62.3585 41.168C61.7052 41.168 61.1172 41.0187 60.5945 40.72C60.0718 40.4213 59.6565 40.0013 59.3485 39.46C59.0498 38.9093 58.9005 38.2653 58.9005 37.528C58.9005 36.7907 59.0545 36.1513 59.3625 35.61C59.6705 35.0593 60.0858 34.6347 60.6085 34.336C61.1405 34.0373 61.7332 33.888 62.3865 33.888C63.0398 33.888 63.6278 34.0373 64.1505 34.336C64.6732 34.6347 65.0838 35.0593 65.3825 35.61C65.6905 36.1513 65.8445 36.7907 65.8445 37.528C65.8445 38.2653 65.6905 38.9093 65.3825 39.46C65.0745 40.0013 64.6545 40.4213 64.1225 40.72C63.5998 41.0187 63.0118 41.168 62.3585 41.168ZM62.3585 40.16C62.7598 40.16 63.1332 40.062 63.4785 39.866C63.8238 39.67 64.1038 39.376 64.3185 38.984C64.5332 38.592 64.6405 38.1067 64.6405 37.528C64.6405 36.9493 64.5332 36.464 64.3185 36.072C64.1132 35.68 63.8378 35.386 63.4925 35.19C63.1472 34.994 62.7785 34.896 62.3865 34.896C61.9852 34.896 61.6118 34.994 61.2665 35.19C60.9212 35.386 60.6412 35.68 60.4265 36.072C60.2118 36.464 60.1045 36.9493 60.1045 37.528C60.1045 38.1067 60.2118 38.592 60.4265 38.984C60.6412 39.376 60.9165 39.67 61.2525 39.866C61.5978 40.062 61.9665 40.16 62.3585 40.16ZM68.6199 41L66.5899 34.056H67.7659L69.2359 39.502L70.8599 34.056H72.1899L73.8279 39.502L75.2839 34.056H76.4739L74.4439 41H73.2399L71.5319 35.274L69.8239 41H68.6199ZM77.7746 41V34.056H78.8386L78.9086 35.302C79.1326 34.8633 79.4546 34.518 79.8746 34.266C80.2946 34.014 80.7706 33.888 81.3026 33.888C82.1239 33.888 82.7773 34.14 83.2626 34.644C83.7573 35.1387 84.0046 35.904 84.0046 36.94V41H82.8286V37.066C82.8286 35.6193 82.2313 34.896 81.0366 34.896C80.4393 34.896 79.9399 35.1153 79.5386 35.554C79.1466 35.9833 78.9506 36.5993 78.9506 37.402V41H77.7746ZM89.8694 41V35.05H88.8194V34.056H89.8694V32.852C89.8694 32.18 90.0374 31.69 90.3734 31.382C90.7094 31.074 91.1994 30.92 91.8434 30.92H92.5434V31.928H92.0254C91.6707 31.928 91.4187 32.0027 91.2694 32.152C91.1201 32.292 91.0454 32.5347 91.0454 32.88V34.056H92.7534V35.05H91.0454V41H89.8694ZM97.0441 41.168C96.3907 41.168 95.8027 41.0187 95.2801 40.72C94.7574 40.4213 94.3421 40.0013 94.0341 39.46C93.7354 38.9093 93.5861 38.2653 93.5861 37.528C93.5861 36.7907 93.7401 36.1513 94.0481 35.61C94.3561 35.0593 94.7714 34.6347 95.2941 34.336C95.8261 34.0373 96.4187 33.888 97.0721 33.888C97.7254 33.888 98.3134 34.0373 98.8361 34.336C99.3587 34.6347 99.7694 35.0593 100.068 35.61C100.376 36.1513 100.53 36.7907 100.53 37.528C100.53 38.2653 100.376 38.9093 100.068 39.46C99.7601 40.0013 99.3401 40.4213 98.8081 40.72C98.2854 41.0187 97.6974 41.168 97.0441 41.168ZM97.0441 40.16C97.4454 40.16 97.8187 40.062 98.1641 39.866C98.5094 39.67 98.7894 39.376 99.0041 38.984C99.2187 38.592 99.3261 38.1067 99.3261 37.528C99.3261 36.9493 99.2187 36.464 99.0041 36.072C98.7987 35.68 98.5234 35.386 98.1781 35.19C97.8327 34.994 97.4641 34.896 97.0721 34.896C96.6707 34.896 96.2974 34.994 95.9521 35.19C95.6067 35.386 95.3267 35.68 95.1121 36.072C94.8974 36.464 94.7901 36.9493 94.7901 37.528C94.7901 38.1067 94.8974 38.592 95.1121 38.984C95.3267 39.376 95.6021 39.67 95.9381 39.866C96.2834 40.062 96.6521 40.16 97.0441 40.16ZM102.165 41V34.056H103.229L103.327 35.386C103.542 34.9287 103.869 34.5647 104.307 34.294C104.746 34.0233 105.287 33.888 105.931 33.888V35.12H105.609C105.199 35.12 104.821 35.1947 104.475 35.344C104.13 35.484 103.855 35.7267 103.649 36.072C103.444 36.4173 103.341 36.8933 103.341 37.5V41H102.165ZM113.042 41.014L110.354 31.2H111.614L113.728 39.614L116.136 31.2H117.438L119.776 39.614L121.918 31.2H123.178L120.434 41H119.09L116.752 32.908L114.358 41L113.042 41.014ZM126.902 41.168C126.24 41.168 125.652 41.0187 125.138 40.72C124.625 40.412 124.219 39.9873 123.92 39.446C123.631 38.9047 123.486 38.2653 123.486 37.528C123.486 36.8 123.631 36.1653 123.92 35.624C124.21 35.0733 124.611 34.6487 125.124 34.35C125.647 34.042 126.249 33.888 126.93 33.888C127.602 33.888 128.181 34.042 128.666 34.35C129.161 34.6487 129.539 35.0453 129.8 35.54C130.062 36.0347 130.192 36.5667 130.192 37.136C130.192 37.2387 130.188 37.3413 130.178 37.444C130.178 37.5467 130.178 37.6633 130.178 37.794H124.648C124.676 38.326 124.798 38.7693 125.012 39.124C125.236 39.4693 125.512 39.7307 125.838 39.908C126.174 40.0853 126.529 40.174 126.902 40.174C127.388 40.174 127.794 40.062 128.12 39.838C128.447 39.614 128.685 39.3107 128.834 38.928H129.996C129.81 39.572 129.45 40.1087 128.918 40.538C128.396 40.958 127.724 41.168 126.902 41.168ZM126.902 34.882C126.342 34.882 125.843 35.0547 125.404 35.4C124.975 35.736 124.728 36.2307 124.662 36.884H129.03C129.002 36.2587 128.788 35.7687 128.386 35.414C127.985 35.0593 127.49 34.882 126.902 34.882ZM134.901 41.168C134.21 41.168 133.604 41.0093 133.081 40.692C132.568 40.3747 132.166 39.9407 131.877 39.39C131.597 38.8393 131.457 38.214 131.457 37.514C131.457 36.814 131.602 36.1933 131.891 35.652C132.18 35.1013 132.582 34.672 133.095 34.364C133.608 34.0467 134.215 33.888 134.915 33.888C135.484 33.888 135.988 34.0047 136.427 34.238C136.866 34.4713 137.206 34.798 137.449 35.218V30.92H138.625V41H137.561L137.449 39.852C137.225 40.188 136.903 40.4913 136.483 40.762C136.063 41.0327 135.536 41.168 134.901 41.168ZM135.027 40.146C135.494 40.146 135.904 40.0387 136.259 39.824C136.623 39.6 136.903 39.292 137.099 38.9C137.304 38.508 137.407 38.0507 137.407 37.528C137.407 37.0053 137.304 36.548 137.099 36.156C136.903 35.764 136.623 35.4607 136.259 35.246C135.904 35.022 135.494 34.91 135.027 34.91C134.57 34.91 134.159 35.022 133.795 35.246C133.44 35.4607 133.16 35.764 132.955 36.156C132.759 36.548 132.661 37.0053 132.661 37.528C132.661 38.0507 132.759 38.508 132.955 38.9C133.16 39.292 133.44 39.6 133.795 39.824C134.159 40.0387 134.57 40.146 135.027 40.146ZM140.542 41V34.056H141.606L141.676 35.302C141.9 34.8633 142.222 34.518 142.642 34.266C143.062 34.014 143.538 33.888 144.07 33.888C144.892 33.888 145.545 34.14 146.03 34.644C146.525 35.1387 146.772 35.904 146.772 36.94V41H145.596V37.066C145.596 35.6193 144.999 34.896 143.804 34.896C143.207 34.896 142.708 35.1153 142.306 35.554C141.914 35.9833 141.718 36.5993 141.718 37.402V41H140.542ZM151.676 41.168C151.013 41.168 150.425 41.0187 149.912 40.72C149.399 40.412 148.993 39.9873 148.694 39.446C148.405 38.9047 148.26 38.2653 148.26 37.528C148.26 36.8 148.405 36.1653 148.694 35.624C148.983 35.0733 149.385 34.6487 149.898 34.35C150.421 34.042 151.023 33.888 151.704 33.888C152.376 33.888 152.955 34.042 153.44 34.35C153.935 34.6487 154.313 35.0453 154.574 35.54C154.835 36.0347 154.966 36.5667 154.966 37.136C154.966 37.2387 154.961 37.3413 154.952 37.444C154.952 37.5467 154.952 37.6633 154.952 37.794H149.422C149.45 38.326 149.571 38.7693 149.786 39.124C150.01 39.4693 150.285 39.7307 150.612 39.908C150.948 40.0853 151.303 40.174 151.676 40.174C152.161 40.174 152.567 40.062 152.894 39.838C153.221 39.614 153.459 39.3107 153.608 38.928H154.77C154.583 39.572 154.224 40.1087 153.692 40.538C153.169 40.958 152.497 41.168 151.676 41.168ZM151.676 34.882C151.116 34.882 150.617 35.0547 150.178 35.4C149.749 35.736 149.501 36.2307 149.436 36.884H153.804C153.776 36.2587 153.561 35.7687 153.16 35.414C152.759 35.0593 152.264 34.882 151.676 34.882ZM159.185 41.168C158.354 41.168 157.663 40.958 157.113 40.538C156.562 40.118 156.24 39.5487 156.147 38.83H157.351C157.425 39.194 157.617 39.5113 157.925 39.782C158.242 40.0433 158.667 40.174 159.199 40.174C159.693 40.174 160.057 40.0713 160.291 39.866C160.524 39.6513 160.641 39.3993 160.641 39.11C160.641 38.69 160.487 38.41 160.179 38.27C159.88 38.13 159.455 38.004 158.905 37.892C158.531 37.8173 158.158 37.71 157.785 37.57C157.411 37.43 157.099 37.234 156.847 36.982C156.595 36.7207 156.469 36.38 156.469 35.96C156.469 35.3533 156.693 34.8587 157.141 34.476C157.598 34.084 158.214 33.888 158.989 33.888C159.726 33.888 160.328 34.0747 160.795 34.448C161.271 34.812 161.546 35.3347 161.621 36.016H160.459C160.412 35.6613 160.258 35.386 159.997 35.19C159.745 34.9847 159.404 34.882 158.975 34.882C158.555 34.882 158.228 34.9707 157.995 35.148C157.771 35.3253 157.659 35.5587 157.659 35.848C157.659 36.128 157.803 36.3473 158.093 36.506C158.391 36.6647 158.793 36.8 159.297 36.912C159.726 37.0053 160.132 37.122 160.515 37.262C160.907 37.3927 161.224 37.5933 161.467 37.864C161.719 38.1253 161.845 38.508 161.845 39.012C161.854 39.6373 161.616 40.1553 161.131 40.566C160.655 40.9673 160.006 41.168 159.185 41.168ZM166.675 41.168C165.984 41.168 165.377 41.0093 164.855 40.692C164.341 40.3747 163.94 39.9407 163.651 39.39C163.371 38.8393 163.231 38.214 163.231 37.514C163.231 36.814 163.375 36.1933 163.665 35.652C163.954 35.1013 164.355 34.672 164.869 34.364C165.382 34.0467 165.989 33.888 166.689 33.888C167.258 33.888 167.762 34.0047 168.201 34.238C168.639 34.4713 168.98 34.798 169.223 35.218V30.92H170.399V41H169.335L169.223 39.852C168.999 40.188 168.677 40.4913 168.257 40.762C167.837 41.0327 167.309 41.168 166.675 41.168ZM166.801 40.146C167.267 40.146 167.678 40.0387 168.033 39.824C168.397 39.6 168.677 39.292 168.873 38.9C169.078 38.508 169.181 38.0507 169.181 37.528C169.181 37.0053 169.078 36.548 168.873 36.156C168.677 35.764 168.397 35.4607 168.033 35.246C167.678 35.022 167.267 34.91 166.801 34.91C166.343 34.91 165.933 35.022 165.569 35.246C165.214 35.4607 164.934 35.764 164.729 36.156C164.533 36.548 164.435 37.0053 164.435 37.528C164.435 38.0507 164.533 38.508 164.729 38.9C164.934 39.292 165.214 39.6 165.569 39.824C165.933 40.0387 166.343 40.146 166.801 40.146ZM174.626 41.168C174.047 41.168 173.566 41.07 173.184 40.874C172.801 40.678 172.516 40.4167 172.33 40.09C172.143 39.7633 172.05 39.4087 172.05 39.026C172.05 38.3167 172.32 37.7707 172.862 37.388C173.403 37.0053 174.14 36.814 175.074 36.814H176.95V36.73C176.95 36.1233 176.791 35.666 176.474 35.358C176.156 35.0407 175.732 34.882 175.2 34.882C174.742 34.882 174.346 34.9987 174.01 35.232C173.683 35.456 173.478 35.7873 173.394 36.226H172.19C172.236 35.722 172.404 35.2973 172.694 34.952C172.992 34.6067 173.361 34.3453 173.8 34.168C174.238 33.9813 174.705 33.888 175.2 33.888C176.17 33.888 176.898 34.1493 177.384 34.672C177.878 35.1853 178.126 35.8713 178.126 36.73V41H177.076L177.006 39.754C176.81 40.146 176.52 40.482 176.138 40.762C175.764 41.0327 175.26 41.168 174.626 41.168ZM174.808 40.174C175.256 40.174 175.638 40.0573 175.956 39.824C176.282 39.5907 176.53 39.2873 176.698 38.914C176.866 38.5407 176.95 38.1487 176.95 37.738V37.724H175.172C174.481 37.724 173.991 37.8453 173.702 38.088C173.422 38.3213 173.282 38.6153 173.282 38.97C173.282 39.334 173.412 39.628 173.674 39.852C173.944 40.0667 174.322 40.174 174.808 40.174ZM180.441 44.08L182.163 40.328H181.757L178.999 34.056H180.273L182.569 39.46L185.005 34.056H186.223L181.673 44.08H180.441ZM187.716 38.284L187.576 31.2H188.85L188.71 38.284H187.716ZM188.248 41.07C188.015 41.07 187.819 40.9953 187.66 40.846C187.511 40.6873 187.436 40.496 187.436 40.272C187.436 40.048 187.511 39.8613 187.66 39.712C187.819 39.5533 188.015 39.474 188.248 39.474C188.472 39.474 188.659 39.5533 188.808 39.712C188.967 39.8613 189.046 40.048 189.046 40.272C189.046 40.496 188.967 40.6873 188.808 40.846C188.659 40.9953 188.472 41.07 188.248 41.07Z" fill="#727578"/>
<path d="M199.89 37.108C200.534 37.108 201.066 36.576 201.066 35.932C201.066 35.288 200.534 34.756 199.89 34.756C199.246 34.756 198.714 35.288 198.714 35.932C198.714 36.576 199.246 37.108 199.89 37.108ZM210.066 41V40.174C210.728 39.6513 211.354 39.124 211.942 38.592C212.539 38.0507 213.066 37.5187 213.524 36.996C213.99 36.4733 214.354 35.96 214.616 35.456C214.886 34.952 215.022 34.4667 215.022 34C215.022 33.6547 214.961 33.3327 214.84 33.034C214.728 32.7353 214.541 32.4973 214.28 32.32C214.018 32.1333 213.664 32.04 213.216 32.04C212.786 32.04 212.427 32.138 212.138 32.334C211.848 32.5207 211.629 32.7727 211.48 33.09C211.34 33.4073 211.27 33.748 211.27 34.112H210.136C210.136 33.468 210.271 32.9173 210.542 32.46C210.812 31.9933 211.181 31.6387 211.648 31.396C212.114 31.1533 212.642 31.032 213.23 31.032C214.098 31.032 214.807 31.2793 215.358 31.774C215.918 32.2593 216.198 32.9873 216.198 33.958C216.198 34.5367 216.053 35.1107 215.764 35.68C215.474 36.24 215.106 36.786 214.658 37.318C214.21 37.8407 213.729 38.3307 213.216 38.788C212.712 39.2453 212.24 39.656 211.802 40.02H216.534V41H210.066ZM218.811 41L222.703 32.208H217.327V31.2H223.907V32.082L220.057 41H218.811ZM232.291 41.168C231.572 41.168 230.947 41.0373 230.415 40.776C229.883 40.5147 229.472 40.1507 229.183 39.684C228.893 39.2173 228.749 38.676 228.749 38.06H229.981C229.981 38.4427 230.069 38.7973 230.247 39.124C230.424 39.4413 230.681 39.698 231.017 39.894C231.362 40.0807 231.787 40.174 232.291 40.174C232.953 40.174 233.467 40.0153 233.831 39.698C234.195 39.3807 234.377 38.984 234.377 38.508C234.377 38.116 234.293 37.8033 234.125 37.57C233.957 37.3273 233.728 37.1313 233.439 36.982C233.159 36.8327 232.832 36.702 232.459 36.59C232.095 36.478 231.712 36.352 231.311 36.212C230.555 35.9507 229.995 35.6287 229.631 35.246C229.267 34.854 229.085 34.3453 229.085 33.72C229.075 33.1973 229.197 32.7353 229.449 32.334C229.701 31.9233 230.055 31.606 230.513 31.382C230.979 31.1487 231.53 31.032 232.165 31.032C232.79 31.032 233.331 31.1487 233.789 31.382C234.255 31.6153 234.615 31.9373 234.867 32.348C235.128 32.7587 235.263 33.2253 235.273 33.748H234.041C234.041 33.4773 233.971 33.2113 233.831 32.95C233.691 32.6793 233.476 32.46 233.187 32.292C232.907 32.124 232.552 32.04 232.123 32.04C231.591 32.0307 231.152 32.166 230.807 32.446C230.471 32.726 230.303 33.1133 230.303 33.608C230.303 34.028 230.419 34.35 230.653 34.574C230.895 34.798 231.231 34.9847 231.661 35.134C232.09 35.274 232.585 35.4373 233.145 35.624C233.611 35.792 234.031 35.988 234.405 36.212C234.778 36.436 235.067 36.7253 235.273 37.08C235.487 37.4347 235.595 37.8873 235.595 38.438C235.595 38.9047 235.473 39.348 235.231 39.768C234.988 40.1787 234.619 40.5147 234.125 40.776C233.639 41.0373 233.028 41.168 232.291 41.168ZM240.315 41.168C239.652 41.168 239.064 41.0187 238.551 40.72C238.037 40.412 237.631 39.9873 237.333 39.446C237.043 38.9047 236.899 38.2653 236.899 37.528C236.899 36.8 237.043 36.1653 237.333 35.624C237.622 35.0733 238.023 34.6487 238.537 34.35C239.059 34.042 239.661 33.888 240.343 33.888C241.015 33.888 241.593 34.042 242.079 34.35C242.573 34.6487 242.951 35.0453 243.213 35.54C243.474 36.0347 243.605 36.5667 243.605 37.136C243.605 37.2387 243.6 37.3413 243.591 37.444C243.591 37.5467 243.591 37.6633 243.591 37.794H238.061C238.089 38.326 238.21 38.7693 238.425 39.124C238.649 39.4693 238.924 39.7307 239.251 39.908C239.587 40.0853 239.941 40.174 240.315 40.174C240.8 40.174 241.206 40.062 241.533 39.838C241.859 39.614 242.097 39.3107 242.247 38.928H243.409C243.222 39.572 242.863 40.1087 242.331 40.538C241.808 40.958 241.136 41.168 240.315 41.168ZM240.315 34.882C239.755 34.882 239.255 35.0547 238.817 35.4C238.387 35.736 238.14 36.2307 238.075 36.884H242.443C242.415 36.2587 242.2 35.7687 241.799 35.414C241.397 35.0593 240.903 34.882 240.315 34.882ZM245.163 44.08V34.056H246.227L246.339 35.204C246.563 34.868 246.881 34.5647 247.291 34.294C247.711 34.0233 248.243 33.888 248.887 33.888C249.578 33.888 250.18 34.0467 250.693 34.364C251.207 34.6813 251.603 35.1153 251.883 35.666C252.173 36.2167 252.317 36.842 252.317 37.542C252.317 38.242 252.173 38.8673 251.883 39.418C251.603 39.9593 251.202 40.3887 250.679 40.706C250.166 41.014 249.564 41.168 248.873 41.168C248.304 41.168 247.795 41.0513 247.347 40.818C246.909 40.5847 246.573 40.258 246.339 39.838V44.08H245.163ZM248.747 40.146C249.214 40.146 249.625 40.0387 249.979 39.824C250.334 39.6 250.614 39.292 250.819 38.9C251.025 38.508 251.127 38.0507 251.127 37.528C251.127 37.0053 251.025 36.548 250.819 36.156C250.614 35.764 250.334 35.4607 249.979 35.246C249.625 35.022 249.214 34.91 248.747 34.91C248.281 34.91 247.87 35.022 247.515 35.246C247.161 35.4607 246.881 35.764 246.675 36.156C246.47 36.548 246.367 37.0053 246.367 37.528C246.367 38.0507 246.47 38.508 246.675 38.9C246.881 39.292 247.161 39.6 247.515 39.824C247.87 40.0387 248.281 40.146 248.747 40.146Z" fill="#727578"/>
<path d="M1.136 16V4.8H4.992C5.87733 4.8 6.60267 4.94933 7.168 5.248C7.744 5.54667 8.17067 5.952 8.448 6.464C8.72533 6.96533 8.864 7.52533 8.864 8.144C8.864 8.83733 8.67733 9.46667 8.304 10.032C7.94133 10.5973 7.37067 11.0027 6.592 11.248L8.976 16H7.008L4.832 11.488H2.832V16H1.136ZM2.832 10.208H4.896C5.664 10.208 6.224 10.0213 6.576 9.648C6.93867 9.27467 7.12 8.78933 7.12 8.192C7.12 7.59467 6.944 7.12 6.592 6.768C6.24 6.40533 5.66933 6.224 4.88 6.224H2.832V10.208ZM12.9244 16.192C12.2524 16.192 11.6977 16.08 11.2604 15.856C10.823 15.632 10.4977 15.3387 10.2844 14.976C10.071 14.6027 9.96438 14.1973 9.96438 13.76C9.96438 12.992 10.263 12.384 10.8604 11.936C11.4577 11.488 12.311 11.264 13.4204 11.264H15.5004V11.12C15.5004 10.5013 15.3297 10.0373 14.9884 9.728C14.6577 9.41867 14.2257 9.264 13.6924 9.264C13.223 9.264 12.8124 9.38133 12.4604 9.616C12.119 9.84 11.911 10.176 11.8364 10.624H10.1404C10.1937 10.048 10.3857 9.55733 10.7164 9.152C11.0577 8.736 11.4844 8.42133 11.9964 8.208C12.519 7.984 13.0897 7.872 13.7084 7.872C14.8177 7.872 15.6764 8.16533 16.2844 8.752C16.8924 9.328 17.1964 10.1173 17.1964 11.12V16H15.7244L15.5804 14.64C15.3564 15.0773 15.031 15.4453 14.6044 15.744C14.1777 16.0427 13.6177 16.192 12.9244 16.192ZM13.2604 14.816C13.719 14.816 14.103 14.7093 14.4124 14.496C14.7324 14.272 14.9777 13.9787 15.1484 13.616C15.3297 13.2533 15.4417 12.8533 15.4844 12.416H13.5964C12.9244 12.416 12.4444 12.5333 12.1564 12.768C11.879 13.0027 11.7404 13.296 11.7404 13.648C11.7404 14.0107 11.8737 14.2987 12.1404 14.512C12.4177 14.7147 12.791 14.816 13.2604 14.816ZM18.8539 16V4.48H20.5499V16H18.8539ZM22.3776 19.52V8.064H23.8976L24.0736 9.296C24.3296 8.92267 24.6816 8.592 25.1296 8.304C25.5776 8.016 26.1536 7.872 26.8576 7.872C27.6256 7.872 28.303 8.05333 28.8896 8.416C29.4763 8.77867 29.935 9.27467 30.2656 9.904C30.607 10.5333 30.7776 11.248 30.7776 12.048C30.7776 12.848 30.607 13.5627 30.2656 14.192C29.935 14.8107 29.4763 15.3013 28.8896 15.664C28.303 16.016 27.6203 16.192 26.8416 16.192C26.223 16.192 25.6736 16.0693 25.1936 15.824C24.7243 15.5787 24.351 15.232 24.0736 14.784V19.52H22.3776ZM26.5536 14.72C27.279 14.72 27.8763 14.4747 28.3456 13.984C28.815 13.4827 29.0496 12.832 29.0496 12.032C29.0496 11.5093 28.943 11.0453 28.7296 10.64C28.5163 10.2347 28.223 9.92 27.8496 9.696C27.4763 9.46133 27.0443 9.344 26.5536 9.344C25.8283 9.344 25.231 9.59467 24.7616 10.096C24.303 10.5973 24.0736 11.2427 24.0736 12.032C24.0736 12.832 24.303 13.4827 24.7616 13.984C25.231 14.4747 25.8283 14.72 26.5536 14.72ZM32.292 16V4.48H33.988V9.344C34.2547 8.88533 34.6227 8.528 35.092 8.272C35.572 8.00533 36.1 7.872 36.676 7.872C37.6253 7.872 38.372 8.17067 38.916 8.768C39.46 9.36533 39.732 10.256 39.732 11.44V16H38.052V11.616C38.052 10.08 37.4387 9.312 36.212 9.312C35.572 9.312 35.0387 9.536 34.612 9.984C34.196 10.432 33.988 11.072 33.988 11.904V16H32.292ZM45.1848 16V4.8H52.3048V6.176H46.8808V9.664H51.8248V11.008H46.8808V14.624H52.3048V16H45.1848ZM57.5574 16.192C56.7894 16.192 56.112 16.0107 55.5254 15.648C54.9387 15.2853 54.48 14.7893 54.1494 14.16C53.8187 13.5307 53.6534 12.816 53.6534 12.016C53.6534 11.216 53.8187 10.5067 54.1494 9.888C54.48 9.25867 54.9387 8.768 55.5254 8.416C56.1227 8.05333 56.8054 7.872 57.5734 7.872C58.2027 7.872 58.752 7.99467 59.2214 8.24C59.7014 8.48533 60.0747 8.832 60.3414 9.28V4.48H62.0374V16H60.5174L60.3414 14.768C60.0854 15.1413 59.7334 15.472 59.2854 15.76C58.8374 16.048 58.2614 16.192 57.5574 16.192ZM57.8614 14.72C58.5867 14.72 59.1787 14.4693 59.6374 13.968C60.1067 13.4667 60.3414 12.8213 60.3414 12.032C60.3414 11.232 60.1067 10.5867 59.6374 10.096C59.1787 9.59467 58.5867 9.344 57.8614 9.344C57.136 9.344 56.5387 9.59467 56.0694 10.096C55.6 10.5867 55.3654 11.232 55.3654 12.032C55.3654 12.5547 55.472 13.0187 55.6854 13.424C55.8987 13.8293 56.192 14.1493 56.5654 14.384C56.9494 14.608 57.3814 14.72 57.8614 14.72ZM65.4397 16L63.1037 8.064H64.7997L66.3357 14.048L68.0637 8.064H69.9517L71.6797 14.048L73.2157 8.064H74.9117L72.5757 16H70.8317L69.0077 9.76L67.1837 16H65.4397ZM78.3175 16.192C77.6455 16.192 77.0908 16.08 76.6535 15.856C76.2162 15.632 75.8908 15.3387 75.6775 14.976C75.4642 14.6027 75.3575 14.1973 75.3575 13.76C75.3575 12.992 75.6562 12.384 76.2535 11.936C76.8508 11.488 77.7042 11.264 78.8135 11.264H80.8935V11.12C80.8935 10.5013 80.7228 10.0373 80.3815 9.728C80.0508 9.41867 79.6188 9.264 79.0855 9.264C78.6162 9.264 78.2055 9.38133 77.8535 9.616C77.5122 9.84 77.3042 10.176 77.2295 10.624H75.5335C75.5868 10.048 75.7788 9.55733 76.1095 9.152C76.4508 8.736 76.8775 8.42133 77.3895 8.208C77.9122 7.984 78.4828 7.872 79.1015 7.872C80.2108 7.872 81.0695 8.16533 81.6775 8.752C82.2855 9.328 82.5895 10.1173 82.5895 11.12V16H81.1175L80.9735 14.64C80.7495 15.0773 80.4242 15.4453 79.9975 15.744C79.5708 16.0427 79.0108 16.192 78.3175 16.192ZM78.6535 14.816C79.1122 14.816 79.4962 14.7093 79.8055 14.496C80.1255 14.272 80.3708 13.9787 80.5415 13.616C80.7228 13.2533 80.8348 12.8533 80.8775 12.416H78.9895C78.3175 12.416 77.8375 12.5333 77.5495 12.768C77.2722 13.0027 77.1335 13.296 77.1335 13.648C77.1335 14.0107 77.2668 14.2987 77.5335 14.512C77.8108 14.7147 78.1842 14.816 78.6535 14.816ZM84.247 16V8.064H85.767L85.911 9.568C86.1883 9.04533 86.5723 8.63467 87.063 8.336C87.5643 8.02667 88.167 7.872 88.871 7.872V9.648H88.407C87.9377 9.648 87.5163 9.728 87.143 9.888C86.7803 10.0373 86.487 10.2987 86.263 10.672C86.0497 11.0347 85.943 11.5413 85.943 12.192V16H84.247ZM93.4024 16.192C92.6344 16.192 91.957 16.0107 91.3704 15.648C90.7837 15.2853 90.325 14.7893 89.9944 14.16C89.6637 13.5307 89.4984 12.816 89.4984 12.016C89.4984 11.216 89.6637 10.5067 89.9944 9.888C90.325 9.25867 90.7837 8.768 91.3704 8.416C91.9677 8.05333 92.6504 7.872 93.4184 7.872C94.0477 7.872 94.597 7.99467 95.0664 8.24C95.5464 8.48533 95.9197 8.832 96.1864 9.28V4.48H97.8824V16H96.3624L96.1864 14.768C95.9304 15.1413 95.5784 15.472 95.1304 15.76C94.6824 16.048 94.1064 16.192 93.4024 16.192ZM93.7064 14.72C94.4317 14.72 95.0237 14.4693 95.4824 13.968C95.9517 13.4667 96.1864 12.8213 96.1864 12.032C96.1864 11.232 95.9517 10.5867 95.4824 10.096C95.0237 9.59467 94.4317 9.344 93.7064 9.344C92.981 9.344 92.3837 9.59467 91.9144 10.096C91.445 10.5867 91.2104 11.232 91.2104 12.032C91.2104 12.5547 91.317 13.0187 91.5304 13.424C91.7437 13.8293 92.037 14.1493 92.4104 14.384C92.7944 14.608 93.2264 14.72 93.7064 14.72ZM102.869 16.192C101.866 16.192 101.039 15.9467 100.389 15.456C99.7381 14.9653 99.3648 14.3147 99.2688 13.504H100.981C101.066 13.8667 101.269 14.1813 101.589 14.448C101.909 14.704 102.33 14.832 102.853 14.832C103.365 14.832 103.738 14.7253 103.973 14.512C104.207 14.2987 104.325 14.0533 104.325 13.776C104.325 13.3707 104.159 13.0987 103.829 12.96C103.509 12.8107 103.061 12.6773 102.485 12.56C102.037 12.464 101.589 12.336 101.141 12.176C100.703 12.016 100.335 11.792 100.037 11.504C99.7488 11.2053 99.6048 10.8053 99.6048 10.304C99.6048 9.61067 99.8714 9.03467 100.405 8.576C100.938 8.10667 101.685 7.872 102.645 7.872C103.53 7.872 104.245 8.08533 104.789 8.512C105.343 8.93867 105.669 9.54133 105.765 10.32H104.133C104.079 9.97867 103.919 9.712 103.653 9.52C103.397 9.328 103.05 9.232 102.613 9.232C102.186 9.232 101.855 9.32267 101.621 9.504C101.386 9.67467 101.269 9.89867 101.269 10.176C101.269 10.4533 101.429 10.672 101.749 10.832C102.079 10.992 102.511 11.136 103.045 11.264C103.578 11.3813 104.069 11.52 104.517 11.68C104.975 11.8293 105.343 12.0533 105.621 12.352C105.898 12.6507 106.037 13.088 106.037 13.664C106.047 14.3893 105.765 14.992 105.189 15.472C104.623 15.952 103.85 16.192 102.869 16.192Z" fill="black"/>
<circle cx="309" cy="37" r="3.5" fill="white" stroke="#AAACAE"/>
<path d="M316.5 11.5834C316.503 12.6832 316.246 13.7683 315.75 14.75C315.162 15.9265 314.258 16.916 313.14 17.6078C312.021 18.2995 310.732 18.6662 309.417 18.6667C308.317 18.6696 307.232 18.4126 306.25 17.9167L301.5 19.5L303.083 14.75C302.587 13.7683 302.33 12.6832 302.333 11.5834C302.334 10.2682 302.701 8.97907 303.392 7.86048C304.084 6.7419 305.074 5.838 306.25 5.25002C307.232 4.75413 308.317 4.49716 309.417 4.50002H309.833C311.57 4.59585 313.211 5.32899 314.441 6.55907C315.671 7.78915 316.404 9.42973 316.5 11.1667V11.5834Z" stroke="#AAACAE" stroke-width="1.3" stroke-linecap="round" stroke-linejoin="round"/>
</svg>
