<svg width="351" height="44" viewBox="0 0 351 44" fill="none" xmlns="http://www.w3.org/2000/svg">
<rect x="0.5" y="0.5" width="350" height="43" rx="7.5" fill="#F7F8F9" stroke="#D3D7DB"/>
<path d="M17.488 27.016L14.416 15.8H15.856L18.272 25.416L21.024 15.8H22.512L25.184 25.416L27.632 15.8H29.072L25.936 27H24.4L21.728 17.752L18.992 27L17.488 27.016ZM30.3071 27V19.064H31.5231L31.6351 20.584C31.8805 20.0613 32.2538 19.6453 32.7551 19.336C33.2565 19.0267 33.8751 18.872 34.6111 18.872V20.28H34.2431C33.7738 20.28 33.3418 20.3653 32.9471 20.536C32.5525 20.696 32.2378 20.9733 32.0031 21.368C31.7685 21.7627 31.6511 22.3067 31.6511 23V27H30.3071ZM36.9356 17.304C36.669 17.304 36.445 17.2187 36.2636 17.048C36.093 16.8667 36.0076 16.6427 36.0076 16.376C36.0076 16.12 36.093 15.9067 36.2636 15.736C36.445 15.5653 36.669 15.48 36.9356 15.48C37.1916 15.48 37.4103 15.5653 37.5916 15.736C37.773 15.9067 37.8636 16.12 37.8636 16.376C37.8636 16.6427 37.773 16.8667 37.5916 17.048C37.4103 17.2187 37.1916 17.304 36.9356 17.304ZM36.2636 27V19.064H37.6076V27H36.2636ZM43.0838 27C42.3584 27 41.7878 26.824 41.3718 26.472C40.9558 26.12 40.7478 25.4853 40.7478 24.568V20.2H39.3717V19.064H40.7478L40.9238 17.16H42.0918V19.064H44.4278V20.2H42.0918V24.568C42.0918 25.0693 42.1931 25.4107 42.3958 25.592C42.5984 25.7627 42.9558 25.848 43.4678 25.848H44.2998V27H43.0838ZM49.4845 27.192C48.7272 27.192 48.0552 27.0213 47.4685 26.68C46.8818 26.328 46.4178 25.8427 46.0765 25.224C45.7458 24.6053 45.5805 23.8747 45.5805 23.032C45.5805 22.2 45.7458 21.4747 46.0765 20.856C46.4072 20.2267 46.8658 19.7413 47.4525 19.4C48.0498 19.048 48.7378 18.872 49.5165 18.872C50.2845 18.872 50.9458 19.048 51.5005 19.4C52.0658 19.7413 52.4978 20.1947 52.7965 20.76C53.0952 21.3253 53.2445 21.9333 53.2445 22.584C53.2445 22.7013 53.2392 22.8187 53.2285 22.936C53.2285 23.0533 53.2285 23.1867 53.2285 23.336H46.9085C46.9405 23.944 47.0792 24.4507 47.3245 24.856C47.5805 25.2507 47.8952 25.5493 48.2685 25.752C48.6525 25.9547 49.0578 26.056 49.4845 26.056C50.0392 26.056 50.5032 25.928 50.8765 25.672C51.2498 25.416 51.5218 25.0693 51.6925 24.632H53.0205C52.8072 25.368 52.3965 25.9813 51.7885 26.472C51.1912 26.952 50.4232 27.192 49.4845 27.192ZM49.4845 20.008C48.8445 20.008 48.2738 20.2053 47.7725 20.6C47.2818 20.984 46.9992 21.5493 46.9245 22.296H51.9165C51.8845 21.5813 51.6392 21.0213 51.1805 20.616C50.7218 20.2107 50.1565 20.008 49.4845 20.008ZM61.9003 27.192C61.2389 27.192 60.6896 27.08 60.2523 26.856C59.8149 26.632 59.4896 26.3333 59.2763 25.96C59.0629 25.5867 58.9563 25.1813 58.9563 24.744C58.9563 23.9333 59.2656 23.3093 59.8843 22.872C60.5029 22.4347 61.3456 22.216 62.4123 22.216H64.5563V22.12C64.5563 21.4267 64.3749 20.904 64.0123 20.552C63.6496 20.1893 63.1643 20.008 62.5563 20.008C62.0336 20.008 61.5803 20.1413 61.1963 20.408C60.8229 20.664 60.5883 21.0427 60.4923 21.544H59.1163C59.1696 20.968 59.3616 20.4827 59.6923 20.088C60.0336 19.6933 60.4549 19.3947 60.9563 19.192C61.4576 18.9787 61.9909 18.872 62.5563 18.872C63.6656 18.872 64.4976 19.1707 65.0523 19.768C65.6176 20.3547 65.9003 21.1387 65.9003 22.12V27H64.7003L64.6203 25.576C64.3963 26.024 64.0656 26.408 63.6283 26.728C63.2016 27.0373 62.6256 27.192 61.9003 27.192ZM62.1083 26.056C62.6203 26.056 63.0576 25.9227 63.4203 25.656C63.7936 25.3893 64.0763 25.0427 64.2683 24.616C64.4603 24.1893 64.5563 23.7413 64.5563 23.272V23.256H62.5243C61.7349 23.256 61.1749 23.3947 60.8443 23.672C60.5243 23.9387 60.3643 24.2747 60.3643 24.68C60.3643 25.096 60.5136 25.432 60.8123 25.688C61.1216 25.9333 61.5536 26.056 62.1083 26.056ZM72.1509 27V19.064H73.3669L73.4629 20.216C73.7189 19.7893 74.0602 19.4587 74.4869 19.224C74.9135 18.9893 75.3935 18.872 75.9269 18.872C76.5562 18.872 77.0949 19 77.5429 19.256C78.0015 19.512 78.3535 19.9013 78.5989 20.424C78.8762 19.944 79.2549 19.5653 79.7349 19.288C80.2255 19.0107 80.7535 18.872 81.3189 18.872C82.2682 18.872 83.0255 19.16 83.5909 19.736C84.1562 20.3013 84.4389 21.176 84.4389 22.36V27H83.1109V22.504C83.1109 21.6827 82.9455 21.064 82.6149 20.648C82.2842 20.232 81.8095 20.024 81.1909 20.024C80.5509 20.024 80.0175 20.2747 79.5909 20.776C79.1749 21.2667 78.9669 21.9707 78.9669 22.888V27H77.6229V22.504C77.6229 21.6827 77.4575 21.064 77.1269 20.648C76.7962 20.232 76.3215 20.024 75.7029 20.024C75.0735 20.024 74.5455 20.2747 74.1189 20.776C73.7029 21.2667 73.4949 21.9707 73.4949 22.888V27H72.1509ZM90.0314 27.192C89.274 27.192 88.602 27.0213 88.0154 26.68C87.4287 26.328 86.9647 25.8427 86.6234 25.224C86.2927 24.6053 86.1274 23.8747 86.1274 23.032C86.1274 22.2 86.2927 21.4747 86.6234 20.856C86.954 20.2267 87.4127 19.7413 87.9994 19.4C88.5967 19.048 89.2847 18.872 90.0634 18.872C90.8314 18.872 91.4927 19.048 92.0474 19.4C92.6127 19.7413 93.0447 20.1947 93.3434 20.76C93.642 21.3253 93.7914 21.9333 93.7914 22.584C93.7914 22.7013 93.786 22.8187 93.7754 22.936C93.7754 23.0533 93.7754 23.1867 93.7754 23.336H87.4554C87.4874 23.944 87.626 24.4507 87.8714 24.856C88.1274 25.2507 88.442 25.5493 88.8154 25.752C89.1994 25.9547 89.6047 26.056 90.0314 26.056C90.586 26.056 91.05 25.928 91.4234 25.672C91.7967 25.416 92.0687 25.0693 92.2394 24.632H93.5674C93.354 25.368 92.9434 25.9813 92.3354 26.472C91.738 26.952 90.97 27.192 90.0314 27.192ZM90.0314 20.008C89.3914 20.008 88.8207 20.2053 88.3194 20.6C87.8287 20.984 87.546 21.5493 87.4714 22.296H92.4634C92.4314 21.5813 92.186 21.0213 91.7274 20.616C91.2687 20.2107 90.7034 20.008 90.0314 20.008ZM98.6128 27.192C97.6634 27.192 96.8741 26.952 96.2448 26.472C95.6154 25.992 95.2474 25.3413 95.1408 24.52H96.5168C96.6021 24.936 96.8208 25.2987 97.1728 25.608C97.5354 25.9067 98.0208 26.056 98.6288 26.056C99.1941 26.056 99.6101 25.9387 99.8768 25.704C100.143 25.4587 100.277 25.1707 100.277 24.84C100.277 24.36 100.101 24.04 99.7488 23.88C99.4074 23.72 98.9221 23.576 98.2928 23.448C97.8661 23.3627 97.4394 23.24 97.0128 23.08C96.5861 22.92 96.2288 22.696 95.9408 22.408C95.6528 22.1093 95.5088 21.72 95.5088 21.24C95.5088 20.5467 95.7648 19.9813 96.2768 19.544C96.7994 19.096 97.5034 18.872 98.3888 18.872C99.2314 18.872 99.9194 19.0853 100.453 19.512C100.997 19.928 101.311 20.5253 101.397 21.304H100.069C100.015 20.8987 99.8394 20.584 99.5408 20.36C99.2528 20.1253 98.8634 20.008 98.3728 20.008C97.8928 20.008 97.5194 20.1093 97.2528 20.312C96.9968 20.5147 96.8688 20.7813 96.8688 21.112C96.8688 21.432 97.0341 21.6827 97.3648 21.864C97.7061 22.0453 98.1648 22.2 98.7408 22.328C99.2314 22.4347 99.6954 22.568 100.133 22.728C100.581 22.8773 100.943 23.1067 101.221 23.416C101.509 23.7147 101.653 24.152 101.653 24.728C101.663 25.4427 101.391 26.0347 100.837 26.504C100.293 26.9627 99.5514 27.192 98.6128 27.192ZM106.613 27.192C105.663 27.192 104.874 26.952 104.245 26.472C103.615 25.992 103.247 25.3413 103.141 24.52H104.517C104.602 24.936 104.821 25.2987 105.173 25.608C105.535 25.9067 106.021 26.056 106.629 26.056C107.194 26.056 107.61 25.9387 107.877 25.704C108.143 25.4587 108.277 25.1707 108.277 24.84C108.277 24.36 108.101 24.04 107.749 23.88C107.407 23.72 106.922 23.576 106.293 23.448C105.866 23.3627 105.439 23.24 105.013 23.08C104.586 22.92 104.229 22.696 103.941 22.408C103.653 22.1093 103.509 21.72 103.509 21.24C103.509 20.5467 103.765 19.9813 104.277 19.544C104.799 19.096 105.503 18.872 106.389 18.872C107.231 18.872 107.919 19.0853 108.453 19.512C108.997 19.928 109.311 20.5253 109.397 21.304H108.069C108.015 20.8987 107.839 20.584 107.541 20.36C107.253 20.1253 106.863 20.008 106.373 20.008C105.893 20.008 105.519 20.1093 105.253 20.312C104.997 20.5147 104.869 20.7813 104.869 21.112C104.869 21.432 105.034 21.6827 105.365 21.864C105.706 22.0453 106.165 22.2 106.741 22.328C107.231 22.4347 107.695 22.568 108.133 22.728C108.581 22.8773 108.943 23.1067 109.221 23.416C109.509 23.7147 109.653 24.152 109.653 24.728C109.663 25.4427 109.391 26.0347 108.837 26.504C108.293 26.9627 107.551 27.192 106.613 27.192ZM114.213 27.192C113.551 27.192 113.002 27.08 112.565 26.856C112.127 26.632 111.802 26.3333 111.589 25.96C111.375 25.5867 111.269 25.1813 111.269 24.744C111.269 23.9333 111.578 23.3093 112.197 22.872C112.815 22.4347 113.658 22.216 114.725 22.216H116.869V22.12C116.869 21.4267 116.687 20.904 116.325 20.552C115.962 20.1893 115.477 20.008 114.869 20.008C114.346 20.008 113.893 20.1413 113.509 20.408C113.135 20.664 112.901 21.0427 112.805 21.544H111.429C111.482 20.968 111.674 20.4827 112.005 20.088C112.346 19.6933 112.767 19.3947 113.269 19.192C113.77 18.9787 114.303 18.872 114.869 18.872C115.978 18.872 116.81 19.1707 117.365 19.768C117.93 20.3547 118.213 21.1387 118.213 22.12V27H117.013L116.933 25.576C116.709 26.024 116.378 26.408 115.941 26.728C115.514 27.0373 114.938 27.192 114.213 27.192ZM114.421 26.056C114.933 26.056 115.37 25.9227 115.733 25.656C116.106 25.3893 116.389 25.0427 116.581 24.616C116.773 24.1893 116.869 23.7413 116.869 23.272V23.256H114.837C114.047 23.256 113.487 23.3947 113.157 23.672C112.837 23.9387 112.677 24.2747 112.677 24.68C112.677 25.096 112.826 25.432 113.125 25.688C113.434 25.9333 113.866 26.056 114.421 26.056ZM123.365 24.504C122.917 24.504 122.506 24.4453 122.133 24.328L121.333 25.08C121.45 25.1653 121.594 25.24 121.765 25.304C121.946 25.3573 122.202 25.4107 122.533 25.464C122.864 25.5067 123.328 25.5547 123.925 25.608C124.992 25.6827 125.754 25.928 126.213 26.344C126.672 26.76 126.901 27.304 126.901 27.976C126.901 28.4347 126.773 28.872 126.517 29.288C126.272 29.704 125.888 30.0453 125.365 30.312C124.853 30.5787 124.192 30.712 123.381 30.712C122.666 30.712 122.032 30.616 121.477 30.424C120.922 30.2427 120.49 29.96 120.181 29.576C119.872 29.2027 119.717 28.728 119.717 28.152C119.717 27.8533 119.797 27.528 119.957 27.176C120.117 26.8347 120.416 26.5093 120.853 26.2C120.618 26.104 120.416 26.0027 120.245 25.896C120.085 25.7787 119.936 25.6507 119.797 25.512V25.144L121.157 23.8C120.528 23.2667 120.213 22.5627 120.213 21.688C120.213 21.1653 120.336 20.6907 120.581 20.264C120.826 19.8373 121.184 19.5013 121.653 19.256C122.122 19 122.693 18.872 123.365 18.872C123.824 18.872 124.24 18.936 124.613 19.064H127.541V20.072L126.053 20.136C126.362 20.584 126.517 21.1013 126.517 21.688C126.517 22.2107 126.389 22.6853 126.133 23.112C125.888 23.5387 125.53 23.88 125.061 24.136C124.602 24.3813 124.037 24.504 123.365 24.504ZM123.365 23.4C123.93 23.4 124.378 23.256 124.709 22.968C125.05 22.6693 125.221 22.2427 125.221 21.688C125.221 21.144 125.05 20.728 124.709 20.44C124.378 20.1413 123.93 19.992 123.365 19.992C122.789 19.992 122.33 20.1413 121.989 20.44C121.658 20.728 121.493 21.144 121.493 21.688C121.493 22.2427 121.658 22.6693 121.989 22.968C122.33 23.256 122.789 23.4 123.365 23.4ZM121.029 28.024C121.029 28.5573 121.253 28.952 121.701 29.208C122.149 29.4747 122.709 29.608 123.381 29.608C124.042 29.608 124.57 29.464 124.965 29.176C125.37 28.888 125.573 28.504 125.573 28.024C125.573 27.6827 125.434 27.384 125.157 27.128C124.88 26.8827 124.368 26.7387 123.621 26.696C123.034 26.6533 122.528 26.6 122.101 26.536C121.664 26.7707 121.376 27.0213 121.237 27.288C121.098 27.5653 121.029 27.8107 121.029 28.024ZM132.313 27.192C131.555 27.192 130.883 27.0213 130.297 26.68C129.71 26.328 129.246 25.8427 128.905 25.224C128.574 24.6053 128.409 23.8747 128.409 23.032C128.409 22.2 128.574 21.4747 128.905 20.856C129.235 20.2267 129.694 19.7413 130.281 19.4C130.878 19.048 131.566 18.872 132.345 18.872C133.113 18.872 133.774 19.048 134.329 19.4C134.894 19.7413 135.326 20.1947 135.625 20.76C135.923 21.3253 136.073 21.9333 136.073 22.584C136.073 22.7013 136.067 22.8187 136.057 22.936C136.057 23.0533 136.057 23.1867 136.057 23.336H129.737C129.769 23.944 129.907 24.4507 130.153 24.856C130.409 25.2507 130.723 25.5493 131.097 25.752C131.481 25.9547 131.886 26.056 132.313 26.056C132.867 26.056 133.331 25.928 133.705 25.672C134.078 25.416 134.35 25.0693 134.521 24.632H135.849C135.635 25.368 135.225 25.9813 134.617 26.472C134.019 26.952 133.251 27.192 132.313 27.192ZM132.313 20.008C131.673 20.008 131.102 20.2053 130.601 20.6C130.11 20.984 129.827 21.5493 129.753 22.296H134.745C134.713 21.5813 134.467 21.0213 134.009 20.616C133.55 20.2107 132.985 20.008 132.313 20.008ZM138.318 27.08C138.051 27.08 137.827 26.9947 137.646 26.824C137.475 26.6427 137.39 26.424 137.39 26.168C137.39 25.912 137.475 25.6987 137.646 25.528C137.827 25.3467 138.051 25.256 138.318 25.256C138.574 25.256 138.787 25.3467 138.958 25.528C139.139 25.6987 139.23 25.912 139.23 26.168C139.23 26.424 139.139 26.6427 138.958 26.824C138.787 26.9947 138.574 27.08 138.318 27.08ZM141.443 27.08C141.176 27.08 140.952 26.9947 140.771 26.824C140.6 26.6427 140.515 26.424 140.515 26.168C140.515 25.912 140.6 25.6987 140.771 25.528C140.952 25.3467 141.176 25.256 141.443 25.256C141.699 25.256 141.912 25.3467 142.083 25.528C142.264 25.6987 142.355 25.912 142.355 26.168C142.355 26.424 142.264 26.6427 142.083 26.824C141.912 26.9947 141.699 27.08 141.443 27.08ZM144.568 27.08C144.301 27.08 144.077 26.9947 143.896 26.824C143.725 26.6427 143.64 26.424 143.64 26.168C143.64 25.912 143.725 25.6987 143.896 25.528C144.077 25.3467 144.301 25.256 144.568 25.256C144.824 25.256 145.037 25.3467 145.208 25.528C145.389 25.6987 145.48 25.912 145.48 26.168C145.48 26.424 145.389 26.6427 145.208 26.824C145.037 26.9947 144.824 27.08 144.568 27.08Z" fill="#AAACAE"/>
<g clip-path="url(#clip0_843_2725)">
<path d="M333.334 13.6663L324.167 22.8329" stroke="#3B79D8" stroke-width="1.5" stroke-linecap="round" stroke-linejoin="round"/>
<path d="M333.334 13.6663L327.5 30.3329L324.167 22.8329L316.667 19.4996L333.334 13.6663Z" stroke="#3B79D8" stroke-width="1.5" stroke-linecap="round" stroke-linejoin="round"/>
</g>
<defs>
<clipPath id="clip0_843_2725">
<rect width="20" height="20" fill="white" transform="translate(315 12)"/>
</clipPath>
</defs>
</svg>
