<svg width="67" height="29" viewBox="0 0 67 29" fill="none" xmlns="http://www.w3.org/2000/svg">
<rect width="67" height="29" rx="14.5" fill="#FFF0DE"/>
<path d="M19.2607 19V9.2H20.4367V18.062H25.0007V19H19.2607ZM29.0874 19.168C28.4247 19.168 27.8367 19.0187 27.3234 18.72C26.81 18.412 26.404 17.9873 26.1054 17.446C25.816 16.9047 25.6714 16.2653 25.6714 15.528C25.6714 14.8 25.816 14.1653 26.1054 13.624C26.3947 13.0733 26.796 12.6487 27.3094 12.35C27.832 12.042 28.434 11.888 29.1154 11.888C29.7874 11.888 30.366 12.042 30.8514 12.35C31.346 12.6487 31.724 13.0453 31.9854 13.54C32.2467 14.0347 32.3774 14.5667 32.3774 15.136C32.3774 15.2387 32.3727 15.3413 32.3634 15.444C32.3634 15.5467 32.3634 15.6633 32.3634 15.794H26.8334C26.8614 16.326 26.9827 16.7693 27.1974 17.124C27.4214 17.4693 27.6967 17.7307 28.0234 17.908C28.3594 18.0853 28.714 18.174 29.0874 18.174C29.5727 18.174 29.9787 18.062 30.3054 17.838C30.632 17.614 30.87 17.3107 31.0194 16.928H32.1814C31.9947 17.572 31.6354 18.1087 31.1034 18.538C30.5807 18.958 29.9087 19.168 29.0874 19.168ZM29.0874 12.882C28.5274 12.882 28.028 13.0547 27.5894 13.4C27.16 13.736 26.9127 14.2307 26.8474 14.884H31.2154C31.1874 14.2587 30.9727 13.7687 30.5714 13.414C30.17 13.0593 29.6754 12.882 29.0874 12.882ZM35.9661 19.168C35.3874 19.168 34.9067 19.07 34.5241 18.874C34.1414 18.678 33.8567 18.4167 33.6701 18.09C33.4834 17.7633 33.3901 17.4087 33.3901 17.026C33.3901 16.3167 33.6607 15.7707 34.2021 15.388C34.7434 15.0053 35.4807 14.814 36.4141 14.814H38.2901V14.73C38.2901 14.1233 38.1314 13.666 37.8141 13.358C37.4967 13.0407 37.0721 12.882 36.5401 12.882C36.0827 12.882 35.6861 12.9987 35.3501 13.232C35.0234 13.456 34.8181 13.7873 34.7341 14.226H33.5301C33.5767 13.722 33.7447 13.2973 34.0341 12.952C34.3327 12.6067 34.7014 12.3453 35.1401 12.168C35.5787 11.9813 36.0454 11.888 36.5401 11.888C37.5107 11.888 38.2387 12.1493 38.7241 12.672C39.2187 13.1853 39.4661 13.8713 39.4661 14.73V19H38.4161L38.3461 17.754C38.1501 18.146 37.8607 18.482 37.4781 18.762C37.1047 19.0327 36.6007 19.168 35.9661 19.168ZM36.1481 18.174C36.5961 18.174 36.9787 18.0573 37.2961 17.824C37.6227 17.5907 37.8701 17.2873 38.0381 16.914C38.2061 16.5407 38.2901 16.1487 38.2901 15.738V15.724H36.5121C35.8214 15.724 35.3314 15.8453 35.0421 16.088C34.7621 16.3213 34.6221 16.6153 34.6221 16.97C34.6221 17.334 34.7527 17.628 35.0141 17.852C35.2847 18.0667 35.6627 18.174 36.1481 18.174ZM44.1003 19.168C43.4096 19.168 42.803 19.0093 42.2803 18.692C41.767 18.3747 41.3656 17.9407 41.0763 17.39C40.7963 16.8393 40.6563 16.214 40.6563 15.514C40.6563 14.814 40.801 14.1933 41.0903 13.652C41.3796 13.1013 41.781 12.672 42.2943 12.364C42.8076 12.0467 43.4143 11.888 44.1143 11.888C44.6836 11.888 45.1876 12.0047 45.6263 12.238C46.065 12.4713 46.4056 12.798 46.6483 13.218V8.92H47.8243V19H46.7603L46.6483 17.852C46.4243 18.188 46.1023 18.4913 45.6823 18.762C45.2623 19.0327 44.735 19.168 44.1003 19.168ZM44.2263 18.146C44.693 18.146 45.1036 18.0387 45.4583 17.824C45.8223 17.6 46.1023 17.292 46.2983 16.9C46.5036 16.508 46.6063 16.0507 46.6063 15.528C46.6063 15.0053 46.5036 14.548 46.2983 14.156C46.1023 13.764 45.8223 13.4607 45.4583 13.246C45.1036 13.022 44.693 12.91 44.2263 12.91C43.769 12.91 43.3583 13.022 42.9943 13.246C42.6396 13.4607 42.3596 13.764 42.1543 14.156C41.9583 14.548 41.8603 15.0053 41.8603 15.528C41.8603 16.0507 41.9583 16.508 42.1543 16.9C42.3596 17.292 42.6396 17.6 42.9943 17.824C43.3583 18.0387 43.769 18.146 44.2263 18.146Z" fill="#965F1C"/>
</svg>
