<svg width="339" height="93" viewBox="0 0 339 93" fill="none" xmlns="http://www.w3.org/2000/svg">
<g filter="url(#filter0_d_152_3689)">
<path d="M14 28C14 20.268 20.268 14 28 14H323C325.209 14 327 15.7909 327 18V65C327 72.732 320.732 79 313 79H28C20.268 79 14 72.732 14 65V28Z" fill="white"/>
<path d="M14.5 28C14.5 20.5442 20.5442 14.5 28 14.5H323C324.933 14.5 326.5 16.067 326.5 18V65C326.5 72.4558 320.456 78.5 313 78.5H28C20.5442 78.5 14.5 72.4558 14.5 65V28Z" stroke="#D3D7DB"/>
</g>
<path d="M33.6304 28.4164C30.2059 30.5182 28.1256 32.4213 28.8269 37.33C29.5358 42.292 30.2503 41.3485 32.6431 45.7502C35.0359 50.152 31.3193 50.0119 33.6011 57.9449C35.8078 65.617 42.9605 67.665 54.3636 64.705C65.7668 61.745 66.6362 52.2793 61.8133 44.1299C58.1962 38.0179 58.5966 37.8625 51.2481 32.3725C42.2895 25.6797 38.5293 25.4097 33.6304 28.4164Z" fill="#FFF0DE"/>
<path d="M55.3392 53.5494C55.2445 55.8618 55.5582 56.5579 54.8392 56.5166C54.0758 56.4724 53.558 55.7468 53.1763 55.0861C51.6377 52.4286 50.3787 49.6177 49.2603 46.7582C48.9333 45.9235 48.6123 45.0401 48.7321 44.1508C48.8504 43.2616 49.6405 42.766 50.4645 42.4047C51.401 41.9933 51.8019 42.4622 52.1422 43.9045C52.4247 45.1006 52.3952 45.3808 51.475 45.6919C50.1109 46.1521 49.5206 44.7053 48.9762 43.6701C47.1654 40.228 46.8754 36.0235 48.198 32.3675C48.3844 31.8514 48.6788 31.2792 49.2188 31.173C49.9334 31.0299 50.4793 31.7806 50.8018 32.431C54.0861 39.0423 55.6588 46.4898 55.3274 53.8591C55.3067 54.3119 55.2504 54.8221 54.8895 55.0979C54.5492 55.3575 54.0684 55.3044 53.6512 55.2041C51.4468 54.6791 48.67 52.3652 46.5218 51.647C44.9655 51.1264 40.3038 50.0439 37.6882 50.0439C37.1926 50.0439 36.0061 44.9634 36.7236 44.6169C37.9737 44.0152 46.0647 39.1573 48.5694 34.0547C48.6034 38.7621 49.4896 45.4117 52.5046 52.4036C52.5845 52.5879 52.6511 52.7929 52.5993 52.9876C52.5179 53.3002 52.1318 53.4492 51.8137 53.3902C51.4957 53.3312 51.2264 53.1247 50.9646 52.9359C47.516 50.451 43.0289 50.0557 38.7859 49.746C38.7327 51.1205 39.4709 53.3651 40.2372 54.508C39.604 55.1392 38.2119 54.9298 37.5757 54.3016C37.3597 54.0877 37.2739 53.781 37.197 53.4875L35.0252 45.2923C33.7736 45.5931 31.6743 45.9574 30.7378 46.8378C29.8028 47.7183 31.5205 50.656 32.022 50.6943C33.1375 50.7784 33.497 49.9363 33.3742 49.5057C33.2514 49.075 33.0324 48.6562 33.0591 48.2094C33.0857 47.7625 33.5236 47.3009 33.9393 47.469C34.4542 47.677 34.2914 48.4261 34.1464 48.96C33.6567 50.7622 34.4763 52.6321 35.2752 54.3207C35.4202 54.626 35.5859 54.9549 35.8892 55.1053C36.1925 55.2557 36.7709 55.0876 36.6733 54.7617C36.3863 53.7987 34.6613 54.8915 33.6553 54.9549" stroke="#1F3758" stroke-width="0.939978" stroke-miterlimit="10" stroke-linecap="round" stroke-linejoin="round"/>
<path d="M77.888 38V29.6H79.064L82.088 35.456L85.088 29.6H86.276V38H85.268V31.4L82.46 36.8H81.704L78.896 31.412V38H77.888ZM90.6642 38.144C90.0962 38.144 89.5922 38.016 89.1522 37.76C88.7122 37.496 88.3642 37.132 88.1082 36.668C87.8602 36.204 87.7362 35.656 87.7362 35.024C87.7362 34.4 87.8602 33.856 88.1082 33.392C88.3562 32.92 88.7002 32.556 89.1402 32.3C89.5882 32.036 90.1042 31.904 90.6882 31.904C91.2642 31.904 91.7602 32.036 92.1762 32.3C92.6002 32.556 92.9242 32.896 93.1482 33.32C93.3722 33.744 93.4842 34.2 93.4842 34.688C93.4842 34.776 93.4802 34.864 93.4722 34.952C93.4722 35.04 93.4722 35.14 93.4722 35.252H88.7322C88.7562 35.708 88.8602 36.088 89.0442 36.392C89.2362 36.688 89.4722 36.912 89.7522 37.064C90.0402 37.216 90.3442 37.292 90.6642 37.292C91.0802 37.292 91.4282 37.196 91.7082 37.004C91.9882 36.812 92.1922 36.552 92.3202 36.224H93.3162C93.1562 36.776 92.8482 37.236 92.3922 37.604C91.9442 37.964 91.3682 38.144 90.6642 38.144ZM90.6642 32.756C90.1842 32.756 89.7562 32.904 89.3802 33.2C89.0122 33.488 88.8002 33.912 88.7442 34.472H92.4882C92.4642 33.936 92.2802 33.516 91.9362 33.212C91.5922 32.908 91.1682 32.756 90.6642 32.756ZM97.1002 38.144C96.3882 38.144 95.7962 37.964 95.3242 37.604C94.8522 37.244 94.5762 36.756 94.4962 36.14H95.5282C95.5922 36.452 95.7562 36.724 96.0202 36.956C96.2922 37.18 96.6562 37.292 97.1122 37.292C97.5362 37.292 97.8482 37.204 98.0482 37.028C98.2482 36.844 98.3482 36.628 98.3482 36.38C98.3482 36.02 98.2162 35.78 97.9522 35.66C97.6962 35.54 97.3322 35.432 96.8602 35.336C96.5402 35.272 96.2202 35.18 95.9002 35.06C95.5802 34.94 95.3122 34.772 95.0962 34.556C94.8802 34.332 94.7722 34.04 94.7722 33.68C94.7722 33.16 94.9642 32.736 95.3482 32.408C95.7402 32.072 96.2682 31.904 96.9322 31.904C97.5642 31.904 98.0802 32.064 98.4802 32.384C98.8882 32.696 99.1242 33.144 99.1882 33.728H98.1922C98.1522 33.424 98.0202 33.188 97.7962 33.02C97.5802 32.844 97.2882 32.756 96.9202 32.756C96.5602 32.756 96.2802 32.832 96.0802 32.984C95.8882 33.136 95.7922 33.336 95.7922 33.584C95.7922 33.824 95.9162 34.012 96.1642 34.148C96.4202 34.284 96.7642 34.4 97.1962 34.496C97.5642 34.576 97.9122 34.676 98.2402 34.796C98.5762 34.908 98.8482 35.08 99.0562 35.312C99.2722 35.536 99.3802 35.864 99.3802 36.296C99.3882 36.832 99.1842 37.276 98.7682 37.628C98.3602 37.972 97.8042 38.144 97.1002 38.144ZM103.1 38.144C102.388 38.144 101.796 37.964 101.324 37.604C100.852 37.244 100.576 36.756 100.496 36.14H101.528C101.592 36.452 101.756 36.724 102.02 36.956C102.292 37.18 102.656 37.292 103.112 37.292C103.536 37.292 103.848 37.204 104.048 37.028C104.248 36.844 104.348 36.628 104.348 36.38C104.348 36.02 104.216 35.78 103.952 35.66C103.696 35.54 103.332 35.432 102.86 35.336C102.54 35.272 102.22 35.18 101.9 35.06C101.58 34.94 101.312 34.772 101.096 34.556C100.88 34.332 100.772 34.04 100.772 33.68C100.772 33.16 100.964 32.736 101.348 32.408C101.74 32.072 102.268 31.904 102.932 31.904C103.564 31.904 104.08 32.064 104.48 32.384C104.888 32.696 105.124 33.144 105.188 33.728H104.192C104.152 33.424 104.02 33.188 103.796 33.02C103.58 32.844 103.288 32.756 102.92 32.756C102.56 32.756 102.28 32.832 102.08 32.984C101.888 33.136 101.792 33.336 101.792 33.584C101.792 33.824 101.916 34.012 102.164 34.148C102.42 34.284 102.764 34.4 103.196 34.496C103.564 34.576 103.912 34.676 104.24 34.796C104.576 34.908 104.848 35.08 105.056 35.312C105.272 35.536 105.38 35.864 105.38 36.296C105.388 36.832 105.184 37.276 104.768 37.628C104.36 37.972 103.804 38.144 103.1 38.144ZM108.8 38.144C108.304 38.144 107.892 38.06 107.564 37.892C107.236 37.724 106.992 37.5 106.832 37.22C106.672 36.94 106.592 36.636 106.592 36.308C106.592 35.7 106.824 35.232 107.288 34.904C107.752 34.576 108.384 34.412 109.184 34.412H110.792V34.34C110.792 33.82 110.656 33.428 110.384 33.164C110.112 32.892 109.748 32.756 109.292 32.756C108.9 32.756 108.56 32.856 108.272 33.056C107.992 33.248 107.816 33.532 107.744 33.908H106.712C106.752 33.476 106.896 33.112 107.144 32.816C107.4 32.52 107.716 32.296 108.092 32.144C108.468 31.984 108.868 31.904 109.292 31.904C110.124 31.904 110.748 32.128 111.164 32.576C111.588 33.016 111.8 33.604 111.8 34.34V38H110.9L110.84 36.932C110.672 37.268 110.424 37.556 110.096 37.796C109.776 38.028 109.344 38.144 108.8 38.144ZM108.956 37.292C109.34 37.292 109.668 37.192 109.94 36.992C110.22 36.792 110.432 36.532 110.576 36.212C110.72 35.892 110.792 35.556 110.792 35.204V35.192H109.268C108.676 35.192 108.256 35.296 108.008 35.504C107.768 35.704 107.648 35.956 107.648 36.26C107.648 36.572 107.76 36.824 107.984 37.016C108.216 37.2 108.54 37.292 108.956 37.292ZM115.664 36.128C115.328 36.128 115.02 36.084 114.74 35.996L114.14 36.56C114.228 36.624 114.336 36.68 114.464 36.728C114.6 36.768 114.792 36.808 115.04 36.848C115.288 36.88 115.636 36.916 116.084 36.956C116.884 37.012 117.456 37.196 117.8 37.508C118.144 37.82 118.316 38.228 118.316 38.732C118.316 39.076 118.22 39.404 118.028 39.716C117.844 40.028 117.556 40.284 117.164 40.484C116.78 40.684 116.284 40.784 115.676 40.784C115.14 40.784 114.664 40.712 114.248 40.568C113.832 40.432 113.508 40.22 113.276 39.932C113.044 39.652 112.928 39.296 112.928 38.864C112.928 38.64 112.988 38.396 113.108 38.132C113.228 37.876 113.452 37.632 113.78 37.4C113.604 37.328 113.452 37.252 113.324 37.172C113.204 37.084 113.092 36.988 112.988 36.884V36.608L114.008 35.6C113.536 35.2 113.3 34.672 113.3 34.016C113.3 33.624 113.392 33.268 113.576 32.948C113.76 32.628 114.028 32.376 114.38 32.192C114.732 32 115.16 31.904 115.664 31.904C116.008 31.904 116.32 31.952 116.6 32.048H118.796V32.804L117.68 32.852C117.912 33.188 118.028 33.576 118.028 34.016C118.028 34.408 117.932 34.764 117.74 35.084C117.556 35.404 117.288 35.66 116.936 35.852C116.592 36.036 116.168 36.128 115.664 36.128ZM115.664 35.3C116.088 35.3 116.424 35.192 116.672 34.976C116.928 34.752 117.056 34.432 117.056 34.016C117.056 33.608 116.928 33.296 116.672 33.08C116.424 32.856 116.088 32.744 115.664 32.744C115.232 32.744 114.888 32.856 114.632 33.08C114.384 33.296 114.26 33.608 114.26 34.016C114.26 34.432 114.384 34.752 114.632 34.976C114.888 35.192 115.232 35.3 115.664 35.3ZM113.912 38.768C113.912 39.168 114.08 39.464 114.416 39.656C114.752 39.856 115.172 39.956 115.676 39.956C116.172 39.956 116.568 39.848 116.864 39.632C117.168 39.416 117.32 39.128 117.32 38.768C117.32 38.512 117.216 38.288 117.008 38.096C116.8 37.912 116.416 37.804 115.856 37.772C115.416 37.74 115.036 37.7 114.716 37.652C114.388 37.828 114.172 38.016 114.068 38.216C113.964 38.424 113.912 38.608 113.912 38.768ZM122.375 38.144C121.807 38.144 121.303 38.016 120.863 37.76C120.423 37.496 120.075 37.132 119.819 36.668C119.571 36.204 119.447 35.656 119.447 35.024C119.447 34.4 119.571 33.856 119.819 33.392C120.067 32.92 120.411 32.556 120.851 32.3C121.299 32.036 121.815 31.904 122.399 31.904C122.975 31.904 123.471 32.036 123.887 32.3C124.311 32.556 124.635 32.896 124.859 33.32C125.083 33.744 125.195 34.2 125.195 34.688C125.195 34.776 125.191 34.864 125.183 34.952C125.183 35.04 125.183 35.14 125.183 35.252H120.443C120.467 35.708 120.571 36.088 120.755 36.392C120.947 36.688 121.183 36.912 121.463 37.064C121.751 37.216 122.055 37.292 122.375 37.292C122.791 37.292 123.139 37.196 123.419 37.004C123.699 36.812 123.903 36.552 124.031 36.224H125.027C124.867 36.776 124.559 37.236 124.103 37.604C123.655 37.964 123.079 38.144 122.375 38.144ZM122.375 32.756C121.895 32.756 121.467 32.904 121.091 33.2C120.723 33.488 120.511 33.912 120.455 34.472H124.199C124.175 33.936 123.991 33.516 123.647 33.212C123.303 32.908 122.879 32.756 122.375 32.756ZM131.987 38.144C131.275 38.144 130.683 37.964 130.211 37.604C129.739 37.244 129.463 36.756 129.383 36.14H130.415C130.479 36.452 130.643 36.724 130.907 36.956C131.179 37.18 131.543 37.292 131.999 37.292C132.423 37.292 132.735 37.204 132.935 37.028C133.135 36.844 133.235 36.628 133.235 36.38C133.235 36.02 133.103 35.78 132.839 35.66C132.583 35.54 132.219 35.432 131.747 35.336C131.427 35.272 131.107 35.18 130.787 35.06C130.467 34.94 130.199 34.772 129.983 34.556C129.767 34.332 129.659 34.04 129.659 33.68C129.659 33.16 129.851 32.736 130.235 32.408C130.627 32.072 131.155 31.904 131.819 31.904C132.451 31.904 132.967 32.064 133.367 32.384C133.775 32.696 134.011 33.144 134.075 33.728H133.079C133.039 33.424 132.907 33.188 132.683 33.02C132.467 32.844 132.175 32.756 131.807 32.756C131.447 32.756 131.167 32.832 130.967 32.984C130.775 33.136 130.679 33.336 130.679 33.584C130.679 33.824 130.803 34.012 131.051 34.148C131.307 34.284 131.651 34.4 132.083 34.496C132.451 34.576 132.799 34.676 133.127 34.796C133.463 34.908 133.735 35.08 133.943 35.312C134.159 35.536 134.267 35.864 134.267 36.296C134.275 36.832 134.071 37.276 133.655 37.628C133.247 37.972 132.691 38.144 131.987 38.144ZM138.383 38.144C137.815 38.144 137.311 38.016 136.871 37.76C136.431 37.496 136.083 37.132 135.827 36.668C135.579 36.204 135.455 35.656 135.455 35.024C135.455 34.4 135.579 33.856 135.827 33.392C136.075 32.92 136.419 32.556 136.859 32.3C137.307 32.036 137.823 31.904 138.407 31.904C138.983 31.904 139.479 32.036 139.895 32.3C140.319 32.556 140.643 32.896 140.867 33.32C141.091 33.744 141.203 34.2 141.203 34.688C141.203 34.776 141.199 34.864 141.191 34.952C141.191 35.04 141.191 35.14 141.191 35.252H136.451C136.475 35.708 136.579 36.088 136.763 36.392C136.955 36.688 137.191 36.912 137.471 37.064C137.759 37.216 138.063 37.292 138.383 37.292C138.799 37.292 139.147 37.196 139.427 37.004C139.707 36.812 139.911 36.552 140.039 36.224H141.035C140.875 36.776 140.567 37.236 140.111 37.604C139.663 37.964 139.087 38.144 138.383 38.144ZM138.383 32.756C137.903 32.756 137.475 32.904 137.099 33.2C136.731 33.488 136.519 33.912 136.463 34.472H140.207C140.183 33.936 139.999 33.516 139.655 33.212C139.311 32.908 138.887 32.756 138.383 32.756ZM142.539 38V32.048H143.451L143.511 33.116C143.703 32.74 143.979 32.444 144.339 32.228C144.699 32.012 145.107 31.904 145.563 31.904C146.267 31.904 146.827 32.12 147.243 32.552C147.667 32.976 147.879 33.632 147.879 34.52V38H146.871V34.628C146.871 33.388 146.359 32.768 145.335 32.768C144.823 32.768 144.395 32.956 144.051 33.332C143.715 33.7 143.547 34.228 143.547 34.916V38H142.539ZM151.758 38C151.214 38 150.786 37.868 150.474 37.604C150.162 37.34 150.006 36.864 150.006 36.176V32.9H148.974V32.048H150.006L150.138 30.62H151.014V32.048H152.766V32.9H151.014V36.176C151.014 36.552 151.09 36.808 151.242 36.944C151.394 37.072 151.662 37.136 152.046 37.136H152.67V38H151.758ZM158.939 38L156.683 32.048H157.739L159.527 37.028L161.327 32.048H162.359L160.103 38H158.939ZM164.092 30.728C163.892 30.728 163.724 30.664 163.588 30.536C163.46 30.4 163.396 30.232 163.396 30.032C163.396 29.84 163.46 29.68 163.588 29.552C163.724 29.424 163.892 29.36 164.092 29.36C164.284 29.36 164.448 29.424 164.584 29.552C164.72 29.68 164.788 29.84 164.788 30.032C164.788 30.232 164.72 30.4 164.584 30.536C164.448 30.664 164.284 30.728 164.092 30.728ZM163.588 38V32.048H164.596V38H163.588ZM168.331 38.144C167.835 38.144 167.423 38.06 167.095 37.892C166.767 37.724 166.523 37.5 166.363 37.22C166.203 36.94 166.123 36.636 166.123 36.308C166.123 35.7 166.355 35.232 166.819 34.904C167.283 34.576 167.915 34.412 168.715 34.412H170.323V34.34C170.323 33.82 170.187 33.428 169.915 33.164C169.643 32.892 169.279 32.756 168.823 32.756C168.431 32.756 168.091 32.856 167.803 33.056C167.523 33.248 167.347 33.532 167.275 33.908H166.243C166.283 33.476 166.427 33.112 166.675 32.816C166.931 32.52 167.247 32.296 167.623 32.144C167.999 31.984 168.399 31.904 168.823 31.904C169.655 31.904 170.279 32.128 170.695 32.576C171.119 33.016 171.331 33.604 171.331 34.34V38H170.431L170.371 36.932C170.203 37.268 169.955 37.556 169.627 37.796C169.307 38.028 168.875 38.144 168.331 38.144ZM168.487 37.292C168.871 37.292 169.199 37.192 169.471 36.992C169.751 36.792 169.963 36.532 170.107 36.212C170.251 35.892 170.323 35.556 170.323 35.204V35.192H168.799C168.207 35.192 167.787 35.296 167.539 35.504C167.299 35.704 167.179 35.956 167.179 36.26C167.179 36.572 167.291 36.824 167.515 37.016C167.747 37.2 168.071 37.292 168.487 37.292Z" fill="#727578"/>
<path d="M83 60.192C81.944 60.192 81.0213 59.952 80.232 59.472C79.4427 58.992 78.8293 58.32 78.392 57.456C77.9547 56.592 77.736 55.584 77.736 54.432C77.736 53.2907 77.96 52.2827 78.408 51.408C78.856 50.5333 79.4907 49.8507 80.312 49.36C81.144 48.8587 82.1253 48.608 83.256 48.608C84.536 48.608 85.6027 48.9173 86.456 49.536C87.3093 50.1547 87.864 51.008 88.12 52.096H86.2C86.0293 51.4987 85.6933 51.0293 85.192 50.688C84.6907 50.3467 84.0453 50.176 83.256 50.176C82.0827 50.176 81.16 50.5547 80.488 51.312C79.816 52.0693 79.48 53.1147 79.48 54.448C79.48 55.7813 79.8107 56.8213 80.472 57.568C81.1333 58.3147 82.0133 58.688 83.112 58.688C84.2213 58.688 85.0533 58.3733 85.608 57.744C86.1733 57.1147 86.504 56.2773 86.6 55.232H83.56V53.92H88.312V60H86.76L86.616 58.352C86.2427 58.9387 85.7733 59.392 85.208 59.712C84.6427 60.032 83.9067 60.192 83 60.192ZM89.9864 60V52.064H91.5064L91.6504 53.568C91.9277 53.0453 92.3117 52.6347 92.8024 52.336C93.3037 52.0267 93.9064 51.872 94.6104 51.872V53.648H94.1464C93.677 53.648 93.2557 53.728 92.8824 53.888C92.5197 54.0373 92.2264 54.2987 92.0024 54.672C91.789 55.0347 91.6824 55.5413 91.6824 56.192V60H89.9864ZM99.2378 60.192C98.4591 60.192 97.7658 60.0213 97.1578 59.68C96.5604 59.328 96.0911 58.8427 95.7498 58.224C95.4084 57.6053 95.2378 56.8853 95.2378 56.064C95.2378 55.232 95.4031 54.5013 95.7338 53.872C96.0751 53.2427 96.5444 52.752 97.1418 52.4C97.7498 52.048 98.4538 51.872 99.2538 51.872C100.032 51.872 100.71 52.048 101.286 52.4C101.862 52.7413 102.31 53.2 102.63 53.776C102.95 54.352 103.11 54.9867 103.11 55.68C103.11 55.7867 103.104 55.904 103.094 56.032C103.094 56.1493 103.088 56.2827 103.078 56.432H96.9018C96.9551 57.2 97.2058 57.7867 97.6538 58.192C98.1124 58.5867 98.6404 58.784 99.2378 58.784C99.7178 58.784 100.118 58.6773 100.438 58.464C100.768 58.24 101.014 57.9413 101.174 57.568H102.87C102.656 58.3147 102.23 58.9387 101.59 59.44C100.96 59.9413 100.176 60.192 99.2378 60.192ZM99.2378 53.264C98.6724 53.264 98.1711 53.4347 97.7338 53.776C97.2964 54.1067 97.0298 54.608 96.9338 55.28H101.414C101.382 54.6613 101.163 54.1707 100.758 53.808C100.352 53.4453 99.8458 53.264 99.2378 53.264ZM108.262 60.192C107.483 60.192 106.79 60.0213 106.182 59.68C105.584 59.328 105.115 58.8427 104.774 58.224C104.432 57.6053 104.262 56.8853 104.262 56.064C104.262 55.232 104.427 54.5013 104.758 53.872C105.099 53.2427 105.568 52.752 106.166 52.4C106.774 52.048 107.478 51.872 108.278 51.872C109.056 51.872 109.734 52.048 110.31 52.4C110.886 52.7413 111.334 53.2 111.654 53.776C111.974 54.352 112.134 54.9867 112.134 55.68C112.134 55.7867 112.128 55.904 112.118 56.032C112.118 56.1493 112.112 56.2827 112.102 56.432H105.926C105.979 57.2 106.23 57.7867 106.678 58.192C107.136 58.5867 107.664 58.784 108.262 58.784C108.742 58.784 109.142 58.6773 109.462 58.464C109.792 58.24 110.038 57.9413 110.198 57.568H111.894C111.68 58.3147 111.254 58.9387 110.614 59.44C109.984 59.9413 109.2 60.192 108.262 60.192ZM108.262 53.264C107.696 53.264 107.195 53.4347 106.758 53.776C106.32 54.1067 106.054 54.608 105.958 55.28H110.438C110.406 54.6613 110.187 54.1707 109.782 53.808C109.376 53.4453 108.87 53.264 108.262 53.264ZM116.698 60C115.919 60 115.301 59.8133 114.842 59.44C114.383 59.056 114.154 58.3787 114.154 57.408V53.488H112.794V52.064H114.154L114.362 50.048H115.85V52.064H118.09V53.488H115.85V57.408C115.85 57.8453 115.941 58.1493 116.122 58.32C116.314 58.48 116.639 58.56 117.098 58.56H118.01V60H116.698ZM120.479 50.56C120.159 50.56 119.892 50.464 119.679 50.272C119.476 50.0693 119.375 49.8187 119.375 49.52C119.375 49.2213 119.476 48.976 119.679 48.784C119.892 48.5813 120.159 48.48 120.479 48.48C120.799 48.48 121.06 48.5813 121.263 48.784C121.476 48.976 121.583 49.2213 121.583 49.52C121.583 49.8187 121.476 50.0693 121.263 50.272C121.06 50.464 120.799 50.56 120.479 50.56ZM119.631 60V52.064H121.327V60H119.631ZM123.246 60V52.064H124.75L124.878 53.456C125.123 52.9653 125.48 52.5813 125.95 52.304C126.43 52.016 126.979 51.872 127.598 51.872C128.558 51.872 129.31 52.1707 129.854 52.768C130.408 53.3653 130.686 54.256 130.686 55.44V60H129.006V55.616C129.006 54.08 128.376 53.312 127.118 53.312C126.488 53.312 125.966 53.536 125.55 53.984C125.144 54.432 124.942 55.072 124.942 55.904V60H123.246ZM135.611 57.568C135.195 57.568 134.811 57.52 134.459 57.424L133.771 58.096C133.889 58.1707 134.033 58.2347 134.203 58.288C134.374 58.3413 134.614 58.3893 134.923 58.432C135.233 58.4747 135.654 58.5173 136.187 58.56C137.243 58.656 138.006 58.912 138.475 59.328C138.945 59.7333 139.179 60.2773 139.179 60.96C139.179 61.4293 139.051 61.872 138.795 62.288C138.55 62.7147 138.161 63.056 137.627 63.312C137.105 63.5787 136.433 63.712 135.611 63.712C134.502 63.712 133.601 63.4987 132.907 63.072C132.225 62.656 131.883 62.0213 131.883 61.168C131.883 60.8373 131.969 60.5067 132.139 60.176C132.321 59.856 132.603 59.552 132.987 59.264C132.763 59.168 132.566 59.0667 132.395 58.96C132.235 58.8427 132.091 58.7253 131.963 58.608V58.224L133.339 56.816C132.721 56.2827 132.411 55.584 132.411 54.72C132.411 54.1973 132.534 53.7227 132.779 53.296C133.035 52.8587 133.403 52.512 133.883 52.256C134.363 52 134.939 51.872 135.611 51.872C136.059 51.872 136.475 51.936 136.859 52.064H139.819V53.184L138.411 53.264C138.667 53.7013 138.795 54.1867 138.795 54.72C138.795 55.2533 138.667 55.7333 138.411 56.16C138.166 56.5867 137.803 56.928 137.323 57.184C136.854 57.44 136.283 57.568 135.611 57.568ZM135.611 56.24C136.102 56.24 136.497 56.112 136.795 55.856C137.105 55.5893 137.259 55.216 137.259 54.736C137.259 54.2453 137.105 53.872 136.795 53.616C136.497 53.36 136.102 53.232 135.611 53.232C135.11 53.232 134.705 53.36 134.395 53.616C134.097 53.872 133.947 54.2453 133.947 54.736C133.947 55.216 134.097 55.5893 134.395 55.856C134.705 56.112 135.11 56.24 135.611 56.24ZM133.483 61.008C133.483 61.4667 133.686 61.808 134.091 62.032C134.497 62.2667 135.003 62.384 135.611 62.384C136.198 62.384 136.673 62.256 137.035 62C137.398 61.7547 137.579 61.424 137.579 61.008C137.579 60.6987 137.457 60.432 137.211 60.208C136.966 59.9947 136.502 59.8613 135.819 59.808C135.307 59.776 134.854 59.728 134.459 59.664C134.086 59.8667 133.83 60.0853 133.691 60.32C133.553 60.5547 133.483 60.784 133.483 61.008ZM148.483 60.192C147.705 60.192 147.006 60.016 146.387 59.664C145.779 59.312 145.299 58.8267 144.947 58.208C144.606 57.5787 144.435 56.8533 144.435 56.032C144.435 55.2107 144.606 54.4907 144.947 53.872C145.299 53.2427 145.779 52.752 146.387 52.4C147.006 52.048 147.705 51.872 148.483 51.872C149.465 51.872 150.286 52.128 150.947 52.64C151.619 53.152 152.051 53.8453 152.243 54.72H150.467C150.361 54.2827 150.126 53.9413 149.763 53.696C149.401 53.4507 148.974 53.328 148.483 53.328C148.067 53.328 147.683 53.4347 147.331 53.648C146.979 53.8507 146.697 54.1547 146.483 54.56C146.27 54.9547 146.163 55.4453 146.163 56.032C146.163 56.6187 146.27 57.1147 146.483 57.52C146.697 57.9147 146.979 58.2187 147.331 58.432C147.683 58.6453 148.067 58.752 148.483 58.752C148.974 58.752 149.401 58.6293 149.763 58.384C150.126 58.1387 150.361 57.792 150.467 57.344H152.243C152.062 58.1973 151.635 58.8853 150.963 59.408C150.291 59.9307 149.465 60.192 148.483 60.192ZM156.451 60.192C155.779 60.192 155.224 60.08 154.787 59.856C154.349 59.632 154.024 59.3387 153.811 58.976C153.597 58.6027 153.491 58.1973 153.491 57.76C153.491 56.992 153.789 56.384 154.387 55.936C154.984 55.488 155.837 55.264 156.947 55.264H159.027V55.12C159.027 54.5013 158.856 54.0373 158.515 53.728C158.184 53.4187 157.752 53.264 157.219 53.264C156.749 53.264 156.339 53.3813 155.987 53.616C155.645 53.84 155.437 54.176 155.363 54.624H153.667C153.72 54.048 153.912 53.5573 154.243 53.152C154.584 52.736 155.011 52.4213 155.523 52.208C156.045 51.984 156.616 51.872 157.235 51.872C158.344 51.872 159.203 52.1653 159.811 52.752C160.419 53.328 160.723 54.1173 160.723 55.12V60H159.251L159.107 58.64C158.883 59.0773 158.557 59.4453 158.131 59.744C157.704 60.0427 157.144 60.192 156.451 60.192ZM156.787 58.816C157.245 58.816 157.629 58.7093 157.939 58.496C158.259 58.272 158.504 57.9787 158.675 57.616C158.856 57.2533 158.968 56.8533 159.011 56.416H157.123C156.451 56.416 155.971 56.5333 155.683 56.768C155.405 57.0027 155.267 57.296 155.267 57.648C155.267 58.0107 155.4 58.2987 155.667 58.512C155.944 58.7147 156.317 58.816 156.787 58.816ZM162.38 60V52.064H163.884L164.028 53.184C164.284 52.7787 164.62 52.4587 165.036 52.224C165.463 51.9893 165.953 51.872 166.508 51.872C167.767 51.872 168.641 52.368 169.132 53.36C169.42 52.9013 169.804 52.5387 170.284 52.272C170.775 52.0053 171.303 51.872 171.868 51.872C172.86 51.872 173.639 52.1707 174.204 52.768C174.769 53.3653 175.052 54.256 175.052 55.44V60H173.356V55.616C173.356 54.08 172.769 53.312 171.596 53.312C170.999 53.312 170.508 53.536 170.124 53.984C169.751 54.432 169.564 55.072 169.564 55.904V60H167.868V55.616C167.868 54.08 167.276 53.312 166.092 53.312C165.505 53.312 165.02 53.536 164.636 53.984C164.263 54.432 164.076 55.072 164.076 55.904V60H162.38ZM176.716 63.52V52.064H178.236L178.412 53.296C178.668 52.9227 179.02 52.592 179.468 52.304C179.916 52.016 180.492 51.872 181.196 51.872C181.964 51.872 182.642 52.0533 183.228 52.416C183.815 52.7787 184.274 53.2747 184.604 53.904C184.946 54.5333 185.116 55.248 185.116 56.048C185.116 56.848 184.946 57.5627 184.604 58.192C184.274 58.8107 183.815 59.3013 183.228 59.664C182.642 60.016 181.959 60.192 181.18 60.192C180.562 60.192 180.012 60.0693 179.532 59.824C179.063 59.5787 178.69 59.232 178.412 58.784V63.52H176.716ZM180.892 58.72C181.618 58.72 182.215 58.4747 182.684 57.984C183.154 57.4827 183.388 56.832 183.388 56.032C183.388 55.5093 183.282 55.0453 183.068 54.64C182.855 54.2347 182.562 53.92 182.188 53.696C181.815 53.4613 181.383 53.344 180.892 53.344C180.167 53.344 179.57 53.5947 179.1 54.096C178.642 54.5973 178.412 55.2427 178.412 56.032C178.412 56.832 178.642 57.4827 179.1 57.984C179.57 58.4747 180.167 58.72 180.892 58.72ZM189.319 60.192C188.647 60.192 188.092 60.08 187.655 59.856C187.217 59.632 186.892 59.3387 186.679 58.976C186.465 58.6027 186.359 58.1973 186.359 57.76C186.359 56.992 186.657 56.384 187.255 55.936C187.852 55.488 188.705 55.264 189.815 55.264H191.895V55.12C191.895 54.5013 191.724 54.0373 191.383 53.728C191.052 53.4187 190.62 53.264 190.087 53.264C189.617 53.264 189.207 53.3813 188.855 53.616C188.513 53.84 188.305 54.176 188.231 54.624H186.535C186.588 54.048 186.78 53.5573 187.111 53.152C187.452 52.736 187.879 52.4213 188.391 52.208C188.913 51.984 189.484 51.872 190.103 51.872C191.212 51.872 192.071 52.1653 192.679 52.752C193.287 53.328 193.591 54.1173 193.591 55.12V60H192.119L191.975 58.64C191.751 59.0773 191.425 59.4453 190.999 59.744C190.572 60.0427 190.012 60.192 189.319 60.192ZM189.655 58.816C190.113 58.816 190.497 58.7093 190.807 58.496C191.127 58.272 191.372 57.9787 191.543 57.616C191.724 57.2533 191.836 56.8533 191.879 56.416H189.991C189.319 56.416 188.839 56.5333 188.551 56.768C188.273 57.0027 188.135 57.296 188.135 57.648C188.135 58.0107 188.268 58.2987 188.535 58.512C188.812 58.7147 189.185 58.816 189.655 58.816ZM196.208 50.56C195.888 50.56 195.622 50.464 195.408 50.272C195.206 50.0693 195.104 49.8187 195.104 49.52C195.104 49.2213 195.206 48.976 195.408 48.784C195.622 48.5813 195.888 48.48 196.208 48.48C196.528 48.48 196.79 48.5813 196.992 48.784C197.206 48.976 197.312 49.2213 197.312 49.52C197.312 49.8187 197.206 50.0693 196.992 50.272C196.79 50.464 196.528 50.56 196.208 50.56ZM195.36 60V52.064H197.056V60H195.36ZM202.223 57.568C201.807 57.568 201.423 57.52 201.071 57.424L200.383 58.096C200.5 58.1707 200.644 58.2347 200.815 58.288C200.986 58.3413 201.226 58.3893 201.535 58.432C201.844 58.4747 202.266 58.5173 202.799 58.56C203.855 58.656 204.618 58.912 205.087 59.328C205.556 59.7333 205.791 60.2773 205.791 60.96C205.791 61.4293 205.663 61.872 205.407 62.288C205.162 62.7147 204.772 63.056 204.239 63.312C203.716 63.5787 203.044 63.712 202.223 63.712C201.114 63.712 200.212 63.4987 199.519 63.072C198.836 62.656 198.495 62.0213 198.495 61.168C198.495 60.8373 198.58 60.5067 198.751 60.176C198.932 59.856 199.215 59.552 199.599 59.264C199.375 59.168 199.178 59.0667 199.007 58.96C198.847 58.8427 198.703 58.7253 198.575 58.608V58.224L199.951 56.816C199.332 56.2827 199.023 55.584 199.023 54.72C199.023 54.1973 199.146 53.7227 199.391 53.296C199.647 52.8587 200.015 52.512 200.495 52.256C200.975 52 201.551 51.872 202.223 51.872C202.671 51.872 203.087 51.936 203.471 52.064H206.431V53.184L205.023 53.264C205.279 53.7013 205.407 54.1867 205.407 54.72C205.407 55.2533 205.279 55.7333 205.023 56.16C204.778 56.5867 204.415 56.928 203.935 57.184C203.466 57.44 202.895 57.568 202.223 57.568ZM202.223 56.24C202.714 56.24 203.108 56.112 203.407 55.856C203.716 55.5893 203.871 55.216 203.871 54.736C203.871 54.2453 203.716 53.872 203.407 53.616C203.108 53.36 202.714 53.232 202.223 53.232C201.722 53.232 201.316 53.36 201.007 53.616C200.708 53.872 200.559 54.2453 200.559 54.736C200.559 55.216 200.708 55.5893 201.007 55.856C201.316 56.112 201.722 56.24 202.223 56.24ZM200.095 61.008C200.095 61.4667 200.298 61.808 200.703 62.032C201.108 62.2667 201.615 62.384 202.223 62.384C202.81 62.384 203.284 62.256 203.647 62C204.01 61.7547 204.191 61.424 204.191 61.008C204.191 60.6987 204.068 60.432 203.823 60.208C203.578 59.9947 203.114 59.8613 202.431 59.808C201.919 59.776 201.466 59.728 201.071 59.664C200.698 59.8667 200.442 60.0853 200.303 60.32C200.164 60.5547 200.095 60.784 200.095 61.008ZM207.624 60V52.064H209.128L209.256 53.456C209.501 52.9653 209.859 52.5813 210.328 52.304C210.808 52.016 211.357 51.872 211.976 51.872C212.936 51.872 213.688 52.1707 214.232 52.768C214.787 53.3653 215.064 54.256 215.064 55.44V60H213.384V55.616C213.384 54.08 212.755 53.312 211.496 53.312C210.867 53.312 210.344 53.536 209.928 53.984C209.523 54.432 209.32 55.072 209.32 55.904V60H207.624Z" fill="black"/>
<rect x="236.5" y="32.5" width="72" height="28" rx="14" fill="white" stroke="#D3D7DB"/>
<path d="M254.433 51L250.751 41.2H252.025L255.119 49.754L258.241 41.2H259.487L255.805 51H254.433ZM261.195 42.516C260.962 42.516 260.766 42.4413 260.607 42.292C260.458 42.1333 260.383 41.9373 260.383 41.704C260.383 41.48 260.458 41.2933 260.607 41.144C260.766 40.9947 260.962 40.92 261.195 40.92C261.419 40.92 261.61 40.9947 261.769 41.144C261.928 41.2933 262.007 41.48 262.007 41.704C262.007 41.9373 261.928 42.1333 261.769 42.292C261.61 42.4413 261.419 42.516 261.195 42.516ZM260.607 51V44.056H261.783V51H260.607ZM266.673 51.168C266.01 51.168 265.422 51.0187 264.909 50.72C264.395 50.412 263.989 49.9873 263.691 49.446C263.401 48.9047 263.257 48.2653 263.257 47.528C263.257 46.8 263.401 46.1653 263.691 45.624C263.98 45.0733 264.381 44.6487 264.895 44.35C265.417 44.042 266.019 43.888 266.701 43.888C267.373 43.888 267.951 44.042 268.437 44.35C268.931 44.6487 269.309 45.0453 269.571 45.54C269.832 46.0347 269.963 46.5667 269.963 47.136C269.963 47.2387 269.958 47.3413 269.949 47.444C269.949 47.5467 269.949 47.6633 269.949 47.794H264.419C264.447 48.326 264.568 48.7693 264.783 49.124C265.007 49.4693 265.282 49.7307 265.609 49.908C265.945 50.0853 266.299 50.174 266.673 50.174C267.158 50.174 267.564 50.062 267.891 49.838C268.217 49.614 268.455 49.3107 268.605 48.928H269.767C269.58 49.572 269.221 50.1087 268.689 50.538C268.166 50.958 267.494 51.168 266.673 51.168ZM266.673 44.882C266.113 44.882 265.613 45.0547 265.175 45.4C264.745 45.736 264.498 46.2307 264.433 46.884H268.801C268.773 46.2587 268.558 45.7687 268.157 45.414C267.755 45.0593 267.261 44.882 266.673 44.882ZM272.368 51L270.338 44.056H271.514L272.984 49.502L274.608 44.056H275.938L277.576 49.502L279.032 44.056H280.222L278.192 51H276.988L275.28 45.274L273.572 51H272.368Z" fill="black"/>
<path d="M288.708 46.5H296.291" stroke="black" stroke-linecap="round" stroke-linejoin="round"/>
<path d="M292.5 42.709L296.292 46.5007L292.5 50.2923" stroke="black" stroke-linecap="round" stroke-linejoin="round"/>
<defs>
<filter id="filter0_d_152_3689" x="0" y="0" width="341" height="93" filterUnits="userSpaceOnUse" color-interpolation-filters="sRGB">
<feFlood flood-opacity="0" result="BackgroundImageFix"/>
<feColorMatrix in="SourceAlpha" type="matrix" values="0 0 0 0 0 0 0 0 0 0 0 0 0 0 0 0 0 0 127 0" result="hardAlpha"/>
<feOffset/>
<feGaussianBlur stdDeviation="7"/>
<feComposite in2="hardAlpha" operator="out"/>
<feColorMatrix type="matrix" values="0 0 0 0 0.27106 0 0 0 0 0.291722 0 0 0 0 0.320993 0 0 0 0.12 0"/>
<feBlend mode="normal" in2="BackgroundImageFix" result="effect1_dropShadow_152_3689"/>
<feBlend mode="normal" in="SourceGraphic" in2="effect1_dropShadow_152_3689" result="shape"/>
</filter>
</defs>
</svg>
