<svg width="125" height="29" viewBox="0 0 125 29" fill="none" xmlns="http://www.w3.org/2000/svg">
<rect x="0.5" y="0.5" width="124" height="28" rx="14" fill="white" stroke="#D3D7DB"/>
<path d="M18.4626 19L14.7806 9.2H16.0546L19.1486 17.754L22.2706 9.2H23.5166L19.8346 19H18.4626ZM25.2242 10.516C24.9908 10.516 24.7948 10.4413 24.6362 10.292C24.4868 10.1333 24.4122 9.93733 24.4122 9.704C24.4122 9.48 24.4868 9.29333 24.6362 9.144C24.7948 8.99467 24.9908 8.92 25.2242 8.92C25.4482 8.92 25.6395 8.99467 25.7982 9.144C25.9568 9.29333 26.0362 9.48 26.0362 9.704C26.0362 9.93733 25.9568 10.1333 25.7982 10.292C25.6395 10.4413 25.4482 10.516 25.2242 10.516ZM24.6362 19V12.056H25.8122V19H24.6362ZM30.7018 19.168C30.0391 19.168 29.4511 19.0187 28.9378 18.72C28.4245 18.412 28.0185 17.9873 27.7198 17.446C27.4305 16.9047 27.2858 16.2653 27.2858 15.528C27.2858 14.8 27.4305 14.1653 27.7198 13.624C28.0091 13.0733 28.4105 12.6487 28.9238 12.35C29.4465 12.042 30.0485 11.888 30.7298 11.888C31.4018 11.888 31.9805 12.042 32.4658 12.35C32.9605 12.6487 33.3385 13.0453 33.5998 13.54C33.8611 14.0347 33.9918 14.5667 33.9918 15.136C33.9918 15.2387 33.9871 15.3413 33.9778 15.444C33.9778 15.5467 33.9778 15.6633 33.9778 15.794H28.4478C28.4758 16.326 28.5971 16.7693 28.8118 17.124C29.0358 17.4693 29.3111 17.7307 29.6378 17.908C29.9738 18.0853 30.3285 18.174 30.7018 18.174C31.1871 18.174 31.5931 18.062 31.9198 17.838C32.2465 17.614 32.4845 17.3107 32.6338 16.928H33.7958C33.6091 17.572 33.2498 18.1087 32.7178 18.538C32.1951 18.958 31.5231 19.168 30.7018 19.168ZM30.7018 12.882C30.1418 12.882 29.6425 13.0547 29.2038 13.4C28.7745 13.736 28.5271 14.2307 28.4618 14.884H32.8298C32.8018 14.2587 32.5871 13.7687 32.1858 13.414C31.7845 13.0593 31.2898 12.882 30.7018 12.882ZM36.3971 19L34.3671 12.056H35.5431L37.0131 17.502L38.6371 12.056H39.9671L41.6051 17.502L43.0611 12.056H44.2511L42.2211 19H41.0171L39.3091 13.274L37.6011 19H36.3971ZM51.8888 19.168C51.2262 19.168 50.6288 19.0187 50.0968 18.72C49.5742 18.412 49.1588 17.9873 48.8508 17.446C48.5522 16.8953 48.4028 16.256 48.4028 15.528C48.4028 14.8 48.5522 14.1653 48.8508 13.624C49.1588 13.0733 49.5742 12.6487 50.0968 12.35C50.6288 12.042 51.2262 11.888 51.8888 11.888C52.7102 11.888 53.4008 12.1027 53.9608 12.532C54.5302 12.9613 54.8895 13.5353 55.0388 14.254H53.8348C53.7415 13.8247 53.5128 13.4933 53.1488 13.26C52.7848 13.0173 52.3602 12.896 51.8748 12.896C51.4828 12.896 51.1142 12.994 50.7688 13.19C50.4235 13.386 50.1435 13.68 49.9288 14.072C49.7142 14.464 49.6068 14.9493 49.6068 15.528C49.6068 16.1067 49.7142 16.592 49.9288 16.984C50.1435 17.376 50.4235 17.6747 50.7688 17.88C51.1142 18.076 51.4828 18.174 51.8748 18.174C52.3602 18.174 52.7848 18.0573 53.1488 17.824C53.5128 17.5813 53.7415 17.2407 53.8348 16.802H55.0388C54.8988 17.502 54.5442 18.0713 53.9748 18.51C53.4055 18.9487 52.7102 19.168 51.8888 19.168ZM59.5652 19.168C58.9119 19.168 58.3239 19.0187 57.8012 18.72C57.2785 18.4213 56.8632 18.0013 56.5552 17.46C56.2565 16.9093 56.1072 16.2653 56.1072 15.528C56.1072 14.7907 56.2612 14.1513 56.5692 13.61C56.8772 13.0593 57.2925 12.6347 57.8152 12.336C58.3472 12.0373 58.9399 11.888 59.5932 11.888C60.2465 11.888 60.8345 12.0373 61.3572 12.336C61.8799 12.6347 62.2905 13.0593 62.5892 13.61C62.8972 14.1513 63.0512 14.7907 63.0512 15.528C63.0512 16.2653 62.8972 16.9093 62.5892 17.46C62.2812 18.0013 61.8612 18.4213 61.3292 18.72C60.8065 19.0187 60.2185 19.168 59.5652 19.168ZM59.5652 18.16C59.9665 18.16 60.3399 18.062 60.6852 17.866C61.0305 17.67 61.3105 17.376 61.5252 16.984C61.7399 16.592 61.8472 16.1067 61.8472 15.528C61.8472 14.9493 61.7399 14.464 61.5252 14.072C61.3199 13.68 61.0445 13.386 60.6992 13.19C60.3539 12.994 59.9852 12.896 59.5932 12.896C59.1919 12.896 58.8185 12.994 58.4732 13.19C58.1279 13.386 57.8479 13.68 57.6332 14.072C57.4185 14.464 57.3112 14.9493 57.3112 15.528C57.3112 16.1067 57.4185 16.592 57.6332 16.984C57.8479 17.376 58.1232 17.67 58.4592 17.866C58.8045 18.062 59.1732 18.16 59.5652 18.16ZM64.4064 19V12.056H65.4704L65.5404 13.302C65.7644 12.8633 66.0864 12.518 66.5064 12.266C66.9264 12.014 67.4024 11.888 67.9344 11.888C68.7557 11.888 69.409 12.14 69.8944 12.644C70.389 13.1387 70.6364 13.904 70.6364 14.94V19H69.4604V15.066C69.4604 13.6193 68.863 12.896 67.6684 12.896C67.071 12.896 66.5717 13.1153 66.1704 13.554C65.7784 13.9833 65.5824 14.5993 65.5824 15.402V19H64.4064ZM74.8821 19C74.2474 19 73.7481 18.846 73.3841 18.538C73.0201 18.23 72.8381 17.6747 72.8381 16.872V13.05H71.6341V12.056H72.8381L72.9921 10.39H74.0141V12.056H76.0581V13.05H74.0141V16.872C74.0141 17.3107 74.1027 17.6093 74.2801 17.768C74.4574 17.9173 74.7701 17.992 75.2181 17.992H75.9461V19H74.8821ZM79.5821 19.168C79.0035 19.168 78.5228 19.07 78.1401 18.874C77.7575 18.678 77.4728 18.4167 77.2861 18.09C77.0995 17.7633 77.0061 17.4087 77.0061 17.026C77.0061 16.3167 77.2768 15.7707 77.8181 15.388C78.3595 15.0053 79.0968 14.814 80.0301 14.814H81.9061V14.73C81.9061 14.1233 81.7475 13.666 81.4301 13.358C81.1128 13.0407 80.6881 12.882 80.1561 12.882C79.6988 12.882 79.3021 12.9987 78.9661 13.232C78.6395 13.456 78.4341 13.7873 78.3501 14.226H77.1461C77.1928 13.722 77.3608 13.2973 77.6501 12.952C77.9488 12.6067 78.3175 12.3453 78.7561 12.168C79.1948 11.9813 79.6615 11.888 80.1561 11.888C81.1268 11.888 81.8548 12.1493 82.3401 12.672C82.8348 13.1853 83.0821 13.8713 83.0821 14.73V19H82.0321L81.9621 17.754C81.7661 18.146 81.4768 18.482 81.0941 18.762C80.7208 19.0327 80.2168 19.168 79.5821 19.168ZM79.7641 18.174C80.2121 18.174 80.5948 18.0573 80.9121 17.824C81.2388 17.5907 81.4861 17.2873 81.6541 16.914C81.8221 16.5407 81.9061 16.1487 81.9061 15.738V15.724H80.1281C79.4375 15.724 78.9475 15.8453 78.6581 16.088C78.3781 16.3213 78.2381 16.6153 78.2381 16.97C78.2381 17.334 78.3688 17.628 78.6301 17.852C78.9008 18.0667 79.2788 18.174 79.7641 18.174ZM87.7583 19.168C87.0957 19.168 86.4983 19.0187 85.9663 18.72C85.4437 18.412 85.0283 17.9873 84.7203 17.446C84.4217 16.8953 84.2723 16.256 84.2723 15.528C84.2723 14.8 84.4217 14.1653 84.7203 13.624C85.0283 13.0733 85.4437 12.6487 85.9663 12.35C86.4983 12.042 87.0957 11.888 87.7583 11.888C88.5797 11.888 89.2703 12.1027 89.8303 12.532C90.3997 12.9613 90.759 13.5353 90.9083 14.254H89.7043C89.611 13.8247 89.3823 13.4933 89.0183 13.26C88.6543 13.0173 88.2297 12.896 87.7443 12.896C87.3523 12.896 86.9837 12.994 86.6383 13.19C86.293 13.386 86.013 13.68 85.7983 14.072C85.5837 14.464 85.4763 14.9493 85.4763 15.528C85.4763 16.1067 85.5837 16.592 85.7983 16.984C86.013 17.376 86.293 17.6747 86.6383 17.88C86.9837 18.076 87.3523 18.174 87.7443 18.174C88.2297 18.174 88.6543 18.0573 89.0183 17.824C89.3823 17.5813 89.611 17.2407 89.7043 16.802H90.9083C90.7683 17.502 90.4137 18.0713 89.8443 18.51C89.275 18.9487 88.5797 19.168 87.7583 19.168ZM94.8233 19C94.1887 19 93.6893 18.846 93.3253 18.538C92.9613 18.23 92.7793 17.6747 92.7793 16.872V13.05H91.5753V12.056H92.7793L92.9333 10.39H93.9553V12.056H95.9993V13.05H93.9553V16.872C93.9553 17.3107 94.044 17.6093 94.2213 17.768C94.3987 17.9173 94.7113 17.992 95.1593 17.992H95.8873V19H94.8233Z" fill="black"/>
<path d="M104.708 14.5H112.291" stroke="black" stroke-linecap="round" stroke-linejoin="round"/>
<path d="M108.5 10.709L112.292 14.5007L108.5 18.2923" stroke="black" stroke-linecap="round" stroke-linejoin="round"/>
</svg>
