<svg width="375" height="144" viewBox="0 0 375 144" fill="none" xmlns="http://www.w3.org/2000/svg">
<g filter="url(#filter0_d_152_3740)">
<rect x="12" y="14" width="351" height="116" rx="14" fill="white"/>
<rect x="12.5" y="14.5" width="350" height="115" rx="13.5" stroke="#D3D7DB"/>
</g>
<path d="M332 53L338 47L332 41" stroke="#1F3758" stroke-width="2" stroke-linecap="round" stroke-linejoin="round"/>
<path d="M79 52.192C77.944 52.192 77.0213 51.952 76.232 51.472C75.4427 50.992 74.8293 50.32 74.392 49.456C73.9547 48.592 73.736 47.584 73.736 46.432C73.736 45.2907 73.96 44.2827 74.408 43.408C74.856 42.5333 75.4907 41.8507 76.312 41.36C77.144 40.8587 78.1253 40.608 79.256 40.608C80.536 40.608 81.6027 40.9173 82.456 41.536C83.3093 42.1547 83.864 43.008 84.12 44.096H82.2C82.0293 43.4987 81.6933 43.0293 81.192 42.688C80.6907 42.3467 80.0453 42.176 79.256 42.176C78.0827 42.176 77.16 42.5547 76.488 43.312C75.816 44.0693 75.48 45.1147 75.48 46.448C75.48 47.7813 75.8107 48.8213 76.472 49.568C77.1333 50.3147 78.0133 50.688 79.112 50.688C80.2213 50.688 81.0533 50.3733 81.608 49.744C82.1733 49.1147 82.504 48.2773 82.6 47.232H79.56V45.92H84.312V52H82.76L82.616 50.352C82.2427 50.9387 81.7733 51.392 81.208 51.712C80.6427 52.032 79.9067 52.192 79 52.192ZM85.9864 52V44.064H87.5064L87.6504 45.568C87.9277 45.0453 88.3117 44.6347 88.8024 44.336C89.3037 44.0267 89.9064 43.872 90.6104 43.872V45.648H90.1464C89.677 45.648 89.2557 45.728 88.8824 45.888C88.5197 46.0373 88.2264 46.2987 88.0024 46.672C87.789 47.0347 87.6824 47.5413 87.6824 48.192V52H85.9864ZM95.2378 52.192C94.4591 52.192 93.7658 52.0213 93.1578 51.68C92.5604 51.328 92.0911 50.8427 91.7498 50.224C91.4084 49.6053 91.2378 48.8853 91.2378 48.064C91.2378 47.232 91.4031 46.5013 91.7338 45.872C92.0751 45.2427 92.5444 44.752 93.1418 44.4C93.7498 44.048 94.4538 43.872 95.2538 43.872C96.0324 43.872 96.7098 44.048 97.2858 44.4C97.8618 44.7413 98.3098 45.2 98.6298 45.776C98.9498 46.352 99.1098 46.9867 99.1098 47.68C99.1098 47.7867 99.1044 47.904 99.0938 48.032C99.0938 48.1493 99.0884 48.2827 99.0778 48.432H92.9018C92.9551 49.2 93.2058 49.7867 93.6538 50.192C94.1124 50.5867 94.6404 50.784 95.2378 50.784C95.7178 50.784 96.1178 50.6773 96.4378 50.464C96.7684 50.24 97.0138 49.9413 97.1738 49.568H98.8698C98.6564 50.3147 98.2298 50.9387 97.5898 51.44C96.9604 51.9413 96.1764 52.192 95.2378 52.192ZM95.2378 45.264C94.6724 45.264 94.1711 45.4347 93.7338 45.776C93.2964 46.1067 93.0298 46.608 92.9338 47.28H97.4138C97.3818 46.6613 97.1631 46.1707 96.7578 45.808C96.3524 45.4453 95.8458 45.264 95.2378 45.264ZM104.262 52.192C103.483 52.192 102.79 52.0213 102.182 51.68C101.584 51.328 101.115 50.8427 100.774 50.224C100.432 49.6053 100.262 48.8853 100.262 48.064C100.262 47.232 100.427 46.5013 100.758 45.872C101.099 45.2427 101.568 44.752 102.166 44.4C102.774 44.048 103.478 43.872 104.278 43.872C105.056 43.872 105.734 44.048 106.31 44.4C106.886 44.7413 107.334 45.2 107.654 45.776C107.974 46.352 108.134 46.9867 108.134 47.68C108.134 47.7867 108.128 47.904 108.118 48.032C108.118 48.1493 108.112 48.2827 108.102 48.432H101.926C101.979 49.2 102.23 49.7867 102.678 50.192C103.136 50.5867 103.664 50.784 104.262 50.784C104.742 50.784 105.142 50.6773 105.462 50.464C105.792 50.24 106.038 49.9413 106.198 49.568H107.894C107.68 50.3147 107.254 50.9387 106.614 51.44C105.984 51.9413 105.2 52.192 104.262 52.192ZM104.262 45.264C103.696 45.264 103.195 45.4347 102.758 45.776C102.32 46.1067 102.054 46.608 101.958 47.28H106.438C106.406 46.6613 106.187 46.1707 105.782 45.808C105.376 45.4453 104.87 45.264 104.262 45.264ZM112.698 52C111.919 52 111.301 51.8133 110.842 51.44C110.383 51.056 110.154 50.3787 110.154 49.408V45.488H108.794V44.064H110.154L110.362 42.048H111.85V44.064H114.09V45.488H111.85V49.408C111.85 49.8453 111.941 50.1493 112.122 50.32C112.314 50.48 112.639 50.56 113.098 50.56H114.01V52H112.698ZM116.479 42.56C116.159 42.56 115.892 42.464 115.679 42.272C115.476 42.0693 115.375 41.8187 115.375 41.52C115.375 41.2213 115.476 40.976 115.679 40.784C115.892 40.5813 116.159 40.48 116.479 40.48C116.799 40.48 117.06 40.5813 117.263 40.784C117.476 40.976 117.583 41.2213 117.583 41.52C117.583 41.8187 117.476 42.0693 117.263 42.272C117.06 42.464 116.799 42.56 116.479 42.56ZM115.631 52V44.064H117.327V52H115.631ZM119.246 52V44.064H120.75L120.878 45.456C121.123 44.9653 121.48 44.5813 121.95 44.304C122.43 44.016 122.979 43.872 123.598 43.872C124.558 43.872 125.31 44.1707 125.854 44.768C126.408 45.3653 126.686 46.256 126.686 47.44V52H125.006V47.616C125.006 46.08 124.376 45.312 123.118 45.312C122.488 45.312 121.966 45.536 121.55 45.984C121.144 46.432 120.942 47.072 120.942 47.904V52H119.246ZM131.611 49.568C131.195 49.568 130.811 49.52 130.459 49.424L129.771 50.096C129.889 50.1707 130.033 50.2347 130.203 50.288C130.374 50.3413 130.614 50.3893 130.923 50.432C131.233 50.4747 131.654 50.5173 132.187 50.56C133.243 50.656 134.006 50.912 134.475 51.328C134.945 51.7333 135.179 52.2773 135.179 52.96C135.179 53.4293 135.051 53.872 134.795 54.288C134.55 54.7147 134.161 55.056 133.627 55.312C133.105 55.5787 132.433 55.712 131.611 55.712C130.502 55.712 129.601 55.4987 128.907 55.072C128.225 54.656 127.883 54.0213 127.883 53.168C127.883 52.8373 127.969 52.5067 128.139 52.176C128.321 51.856 128.603 51.552 128.987 51.264C128.763 51.168 128.566 51.0667 128.395 50.96C128.235 50.8427 128.091 50.7253 127.963 50.608V50.224L129.339 48.816C128.721 48.2827 128.411 47.584 128.411 46.72C128.411 46.1973 128.534 45.7227 128.779 45.296C129.035 44.8587 129.403 44.512 129.883 44.256C130.363 44 130.939 43.872 131.611 43.872C132.059 43.872 132.475 43.936 132.859 44.064H135.819V45.184L134.411 45.264C134.667 45.7013 134.795 46.1867 134.795 46.72C134.795 47.2533 134.667 47.7333 134.411 48.16C134.166 48.5867 133.803 48.928 133.323 49.184C132.854 49.44 132.283 49.568 131.611 49.568ZM131.611 48.24C132.102 48.24 132.497 48.112 132.795 47.856C133.105 47.5893 133.259 47.216 133.259 46.736C133.259 46.2453 133.105 45.872 132.795 45.616C132.497 45.36 132.102 45.232 131.611 45.232C131.11 45.232 130.705 45.36 130.395 45.616C130.097 45.872 129.947 46.2453 129.947 46.736C129.947 47.216 130.097 47.5893 130.395 47.856C130.705 48.112 131.11 48.24 131.611 48.24ZM129.483 53.008C129.483 53.4667 129.686 53.808 130.091 54.032C130.497 54.2667 131.003 54.384 131.611 54.384C132.198 54.384 132.673 54.256 133.035 54C133.398 53.7547 133.579 53.424 133.579 53.008C133.579 52.6987 133.457 52.432 133.211 52.208C132.966 51.9947 132.502 51.8613 131.819 51.808C131.307 51.776 130.854 51.728 130.459 51.664C130.086 51.8667 129.83 52.0853 129.691 52.32C129.553 52.5547 129.483 52.784 129.483 53.008ZM144.483 52.192C143.705 52.192 143.006 52.016 142.387 51.664C141.779 51.312 141.299 50.8267 140.947 50.208C140.606 49.5787 140.435 48.8533 140.435 48.032C140.435 47.2107 140.606 46.4907 140.947 45.872C141.299 45.2427 141.779 44.752 142.387 44.4C143.006 44.048 143.705 43.872 144.483 43.872C145.465 43.872 146.286 44.128 146.947 44.64C147.619 45.152 148.051 45.8453 148.243 46.72H146.467C146.361 46.2827 146.126 45.9413 145.763 45.696C145.401 45.4507 144.974 45.328 144.483 45.328C144.067 45.328 143.683 45.4347 143.331 45.648C142.979 45.8507 142.697 46.1547 142.483 46.56C142.27 46.9547 142.163 47.4453 142.163 48.032C142.163 48.6187 142.27 49.1147 142.483 49.52C142.697 49.9147 142.979 50.2187 143.331 50.432C143.683 50.6453 144.067 50.752 144.483 50.752C144.974 50.752 145.401 50.6293 145.763 50.384C146.126 50.1387 146.361 49.792 146.467 49.344H148.243C148.062 50.1973 147.635 50.8853 146.963 51.408C146.291 51.9307 145.465 52.192 144.483 52.192ZM152.451 52.192C151.779 52.192 151.224 52.08 150.787 51.856C150.349 51.632 150.024 51.3387 149.811 50.976C149.597 50.6027 149.491 50.1973 149.491 49.76C149.491 48.992 149.789 48.384 150.387 47.936C150.984 47.488 151.837 47.264 152.947 47.264H155.027V47.12C155.027 46.5013 154.856 46.0373 154.515 45.728C154.184 45.4187 153.752 45.264 153.219 45.264C152.749 45.264 152.339 45.3813 151.987 45.616C151.645 45.84 151.437 46.176 151.363 46.624H149.667C149.72 46.048 149.912 45.5573 150.243 45.152C150.584 44.736 151.011 44.4213 151.523 44.208C152.045 43.984 152.616 43.872 153.235 43.872C154.344 43.872 155.203 44.1653 155.811 44.752C156.419 45.328 156.723 46.1173 156.723 47.12V52H155.251L155.107 50.64C154.883 51.0773 154.557 51.4453 154.131 51.744C153.704 52.0427 153.144 52.192 152.451 52.192ZM152.787 50.816C153.245 50.816 153.629 50.7093 153.939 50.496C154.259 50.272 154.504 49.9787 154.675 49.616C154.856 49.2533 154.968 48.8533 155.011 48.416H153.123C152.451 48.416 151.971 48.5333 151.683 48.768C151.405 49.0027 151.267 49.296 151.267 49.648C151.267 50.0107 151.4 50.2987 151.667 50.512C151.944 50.7147 152.317 50.816 152.787 50.816ZM158.38 52V44.064H159.884L160.028 45.184C160.284 44.7787 160.62 44.4587 161.036 44.224C161.463 43.9893 161.953 43.872 162.508 43.872C163.767 43.872 164.641 44.368 165.132 45.36C165.42 44.9013 165.804 44.5387 166.284 44.272C166.775 44.0053 167.303 43.872 167.868 43.872C168.86 43.872 169.639 44.1707 170.204 44.768C170.769 45.3653 171.052 46.256 171.052 47.44V52H169.356V47.616C169.356 46.08 168.769 45.312 167.596 45.312C166.999 45.312 166.508 45.536 166.124 45.984C165.751 46.432 165.564 47.072 165.564 47.904V52H163.868V47.616C163.868 46.08 163.276 45.312 162.092 45.312C161.505 45.312 161.02 45.536 160.636 45.984C160.263 46.432 160.076 47.072 160.076 47.904V52H158.38ZM172.716 55.52V44.064H174.236L174.412 45.296C174.668 44.9227 175.02 44.592 175.468 44.304C175.916 44.016 176.492 43.872 177.196 43.872C177.964 43.872 178.642 44.0533 179.228 44.416C179.815 44.7787 180.274 45.2747 180.604 45.904C180.946 46.5333 181.116 47.248 181.116 48.048C181.116 48.848 180.946 49.5627 180.604 50.192C180.274 50.8107 179.815 51.3013 179.228 51.664C178.642 52.016 177.959 52.192 177.18 52.192C176.562 52.192 176.012 52.0693 175.532 51.824C175.063 51.5787 174.69 51.232 174.412 50.784V55.52H172.716ZM176.892 50.72C177.618 50.72 178.215 50.4747 178.684 49.984C179.154 49.4827 179.388 48.832 179.388 48.032C179.388 47.5093 179.282 47.0453 179.068 46.64C178.855 46.2347 178.562 45.92 178.188 45.696C177.815 45.4613 177.383 45.344 176.892 45.344C176.167 45.344 175.57 45.5947 175.1 46.096C174.642 46.5973 174.412 47.2427 174.412 48.032C174.412 48.832 174.642 49.4827 175.1 49.984C175.57 50.4747 176.167 50.72 176.892 50.72ZM185.319 52.192C184.647 52.192 184.092 52.08 183.655 51.856C183.217 51.632 182.892 51.3387 182.679 50.976C182.465 50.6027 182.359 50.1973 182.359 49.76C182.359 48.992 182.657 48.384 183.255 47.936C183.852 47.488 184.705 47.264 185.815 47.264H187.895V47.12C187.895 46.5013 187.724 46.0373 187.383 45.728C187.052 45.4187 186.62 45.264 186.087 45.264C185.617 45.264 185.207 45.3813 184.855 45.616C184.513 45.84 184.305 46.176 184.231 46.624H182.535C182.588 46.048 182.78 45.5573 183.111 45.152C183.452 44.736 183.879 44.4213 184.391 44.208C184.913 43.984 185.484 43.872 186.103 43.872C187.212 43.872 188.071 44.1653 188.679 44.752C189.287 45.328 189.591 46.1173 189.591 47.12V52H188.119L187.975 50.64C187.751 51.0773 187.425 51.4453 186.999 51.744C186.572 52.0427 186.012 52.192 185.319 52.192ZM185.655 50.816C186.113 50.816 186.497 50.7093 186.807 50.496C187.127 50.272 187.372 49.9787 187.543 49.616C187.724 49.2533 187.836 48.8533 187.879 48.416H185.991C185.319 48.416 184.839 48.5333 184.551 48.768C184.273 49.0027 184.135 49.296 184.135 49.648C184.135 50.0107 184.268 50.2987 184.535 50.512C184.812 50.7147 185.185 50.816 185.655 50.816ZM192.208 42.56C191.888 42.56 191.622 42.464 191.408 42.272C191.206 42.0693 191.104 41.8187 191.104 41.52C191.104 41.2213 191.206 40.976 191.408 40.784C191.622 40.5813 191.888 40.48 192.208 40.48C192.528 40.48 192.79 40.5813 192.992 40.784C193.206 40.976 193.312 41.2213 193.312 41.52C193.312 41.8187 193.206 42.0693 192.992 42.272C192.79 42.464 192.528 42.56 192.208 42.56ZM191.36 52V44.064H193.056V52H191.36ZM198.223 49.568C197.807 49.568 197.423 49.52 197.071 49.424L196.383 50.096C196.5 50.1707 196.644 50.2347 196.815 50.288C196.986 50.3413 197.226 50.3893 197.535 50.432C197.844 50.4747 198.266 50.5173 198.799 50.56C199.855 50.656 200.618 50.912 201.087 51.328C201.556 51.7333 201.791 52.2773 201.791 52.96C201.791 53.4293 201.663 53.872 201.407 54.288C201.162 54.7147 200.772 55.056 200.239 55.312C199.716 55.5787 199.044 55.712 198.223 55.712C197.114 55.712 196.212 55.4987 195.519 55.072C194.836 54.656 194.495 54.0213 194.495 53.168C194.495 52.8373 194.58 52.5067 194.751 52.176C194.932 51.856 195.215 51.552 195.599 51.264C195.375 51.168 195.178 51.0667 195.007 50.96C194.847 50.8427 194.703 50.7253 194.575 50.608V50.224L195.951 48.816C195.332 48.2827 195.023 47.584 195.023 46.72C195.023 46.1973 195.146 45.7227 195.391 45.296C195.647 44.8587 196.015 44.512 196.495 44.256C196.975 44 197.551 43.872 198.223 43.872C198.671 43.872 199.087 43.936 199.471 44.064H202.431V45.184L201.023 45.264C201.279 45.7013 201.407 46.1867 201.407 46.72C201.407 47.2533 201.279 47.7333 201.023 48.16C200.778 48.5867 200.415 48.928 199.935 49.184C199.466 49.44 198.895 49.568 198.223 49.568ZM198.223 48.24C198.714 48.24 199.108 48.112 199.407 47.856C199.716 47.5893 199.871 47.216 199.871 46.736C199.871 46.2453 199.716 45.872 199.407 45.616C199.108 45.36 198.714 45.232 198.223 45.232C197.722 45.232 197.316 45.36 197.007 45.616C196.708 45.872 196.559 46.2453 196.559 46.736C196.559 47.216 196.708 47.5893 197.007 47.856C197.316 48.112 197.722 48.24 198.223 48.24ZM196.095 53.008C196.095 53.4667 196.298 53.808 196.703 54.032C197.108 54.2667 197.615 54.384 198.223 54.384C198.81 54.384 199.284 54.256 199.647 54C200.01 53.7547 200.191 53.424 200.191 53.008C200.191 52.6987 200.068 52.432 199.823 52.208C199.578 51.9947 199.114 51.8613 198.431 51.808C197.919 51.776 197.466 51.728 197.071 51.664C196.698 51.8667 196.442 52.0853 196.303 52.32C196.164 52.5547 196.095 52.784 196.095 53.008ZM203.624 52V44.064H205.128L205.256 45.456C205.501 44.9653 205.859 44.5813 206.328 44.304C206.808 44.016 207.357 43.872 207.976 43.872C208.936 43.872 209.688 44.1707 210.232 44.768C210.787 45.3653 211.064 46.256 211.064 47.44V52H209.384V47.616C209.384 46.08 208.755 45.312 207.496 45.312C206.867 45.312 206.344 45.536 205.928 45.984C205.523 46.432 205.32 47.072 205.32 47.904V52H203.624Z" fill="black"/>
<path d="M30.6304 28.4164C27.2059 30.5182 25.1256 32.4213 25.8269 37.33C26.5358 42.292 27.2503 41.3485 29.6431 45.7502C32.0359 50.152 28.3193 50.0119 30.6011 57.9449C32.8078 65.617 39.9605 67.665 51.3636 64.705C62.7668 61.745 63.6362 52.2793 58.8133 44.1299C55.1962 38.0179 55.5966 37.8625 48.2481 32.3725C39.2895 25.6797 35.5293 25.4097 30.6304 28.4164Z" fill="#FFF0DE"/>
<path d="M52.3392 53.5494C52.2445 55.8618 52.5582 56.5579 51.8392 56.5166C51.0758 56.4724 50.558 55.7468 50.1763 55.0861C48.6377 52.4286 47.3787 49.6177 46.2603 46.7582C45.9333 45.9235 45.6123 45.0401 45.7321 44.1508C45.8504 43.2616 46.6405 42.766 47.4645 42.4047C48.401 41.9933 48.8019 42.4622 49.1422 43.9045C49.4247 45.1006 49.3952 45.3808 48.475 45.6919C47.1109 46.1521 46.5206 44.7053 45.9762 43.6701C44.1654 40.228 43.8754 36.0235 45.198 32.3675C45.3844 31.8514 45.6788 31.2792 46.2188 31.173C46.9334 31.0299 47.4793 31.7806 47.8018 32.431C51.0861 39.0423 52.6588 46.4898 52.3274 53.8591C52.3067 54.3119 52.2504 54.8221 51.8895 55.0979C51.5492 55.3575 51.0684 55.3044 50.6512 55.2041C48.4468 54.6791 45.67 52.3652 43.5218 51.647C41.9655 51.1264 37.3038 50.0439 34.6882 50.0439C34.1926 50.0439 33.0061 44.9634 33.7236 44.6169C34.9737 44.0152 43.0647 39.1573 45.5694 34.0547C45.6034 38.7621 46.4896 45.4117 49.5046 52.4036C49.5845 52.5879 49.6511 52.7929 49.5993 52.9876C49.5179 53.3002 49.1318 53.4492 48.8137 53.3902C48.4957 53.3312 48.2264 53.1247 47.9646 52.9359C44.516 50.451 40.0289 50.0557 35.7859 49.746C35.7327 51.1205 36.4709 53.3651 37.2372 54.508C36.604 55.1392 35.2119 54.9298 34.5757 54.3016C34.3597 54.0877 34.2739 53.781 34.197 53.4875L32.0252 45.2923C30.7736 45.5931 28.6743 45.9574 27.7378 46.8378C26.8028 47.7183 28.5205 50.656 29.022 50.6943C30.1375 50.7784 30.497 49.9363 30.3742 49.5057C30.2514 49.075 30.0324 48.6562 30.0591 48.2094C30.0857 47.7625 30.5236 47.3009 30.9393 47.469C31.4542 47.677 31.2914 48.4261 31.1464 48.96C30.6567 50.7622 31.4763 52.6321 32.2752 54.3207C32.4202 54.626 32.5859 54.9549 32.8892 55.1053C33.1925 55.2557 33.7709 55.0876 33.6733 54.7617C33.3863 53.7987 31.6613 54.8915 30.6553 54.9549" stroke="#1F3758" stroke-miterlimit="10" stroke-linecap="round" stroke-linejoin="round"/>
<rect x="124" y="83" width="69" height="29" rx="14.5" fill="#E9EBED"/>
<path d="M156.368 102.168C155.696 102.168 155.113 102.047 154.618 101.804C154.123 101.561 153.727 101.23 153.428 100.81C153.139 100.381 152.961 99.8953 152.896 99.354H154.044C154.156 99.8953 154.417 100.334 154.828 100.67C155.239 100.997 155.757 101.16 156.382 101.16C156.849 101.16 157.25 101.053 157.586 100.838C157.922 100.614 158.179 100.315 158.356 99.942C158.543 99.5687 158.636 99.1533 158.636 98.696C158.636 97.968 158.431 97.38 158.02 96.932C157.609 96.484 157.077 96.26 156.424 96.26C155.883 96.26 155.421 96.3813 155.038 96.624C154.655 96.8667 154.375 97.184 154.198 97.576H153.078L153.918 92.2H159.056V93.222H154.828L154.254 96.204C154.478 95.9333 154.786 95.7093 155.178 95.532C155.579 95.3547 156.037 95.266 156.55 95.266C157.194 95.266 157.754 95.4153 158.23 95.714C158.715 96.0127 159.093 96.4187 159.364 96.932C159.635 97.4453 159.77 98.0287 159.77 98.682C159.77 99.3073 159.635 99.886 159.364 100.418C159.103 100.95 158.715 101.375 158.202 101.692C157.698 102.009 157.087 102.168 156.368 102.168ZM165.15 102.168C164.282 102.168 163.531 101.958 162.896 101.538C162.271 101.109 161.79 100.516 161.454 99.76C161.118 98.9947 160.95 98.108 160.95 97.1C160.95 96.092 161.118 95.21 161.454 94.454C161.79 93.6887 162.271 93.096 162.896 92.676C163.531 92.2467 164.282 92.032 165.15 92.032C166.018 92.032 166.765 92.2467 167.39 92.676C168.016 93.096 168.496 93.6887 168.832 94.454C169.168 95.21 169.336 96.092 169.336 97.1C169.336 98.108 169.168 98.9947 168.832 99.76C168.496 100.516 168.016 101.109 167.39 101.538C166.765 101.958 166.018 102.168 165.15 102.168ZM165.15 101.132C165.72 101.132 166.228 100.973 166.676 100.656C167.134 100.329 167.488 99.8673 167.74 99.27C168.002 98.6633 168.132 97.94 168.132 97.1C168.132 96.26 168.002 95.5413 167.74 94.944C167.488 94.3467 167.134 93.8893 166.676 93.572C166.228 93.2453 165.72 93.082 165.15 93.082C164.572 93.082 164.058 93.2453 163.61 93.572C163.162 93.8893 162.808 94.3467 162.546 94.944C162.285 95.5413 162.154 96.26 162.154 97.1C162.154 97.94 162.285 98.6633 162.546 99.27C162.808 99.8673 163.162 100.329 163.61 100.656C164.058 100.973 164.572 101.132 165.15 101.132ZM175.193 102V99.9H170.223V98.99L174.983 92.2H176.355V98.864H177.811V99.9H176.355V102H175.193ZM171.525 98.864H175.249V93.502L171.525 98.864Z" fill="black"/>
<path d="M145.781 93.8341C145.781 93.8266 145.78 93.8191 145.78 93.8116C145.779 93.8055 145.779 93.7994 145.778 93.7934C145.777 93.7863 145.776 93.7794 145.775 93.7724C145.773 93.7661 145.772 93.7598 145.771 93.7536C145.769 93.747 145.768 93.7405 145.766 93.734C145.764 93.7277 145.762 93.7214 145.76 93.7153C145.758 93.7089 145.756 93.7026 145.753 93.6964C145.751 93.6903 145.748 93.6843 145.746 93.6785C145.743 93.6723 145.74 93.6662 145.737 93.6602C145.734 93.6544 145.731 93.6486 145.728 93.643C145.725 93.6373 145.721 93.6316 145.718 93.626C145.714 93.6202 145.71 93.6146 145.706 93.609C145.703 93.6039 145.699 93.5988 145.695 93.5938C145.69 93.588 145.686 93.5825 145.681 93.577C145.679 93.5745 145.677 93.5718 145.674 93.5692C145.673 93.5671 145.67 93.5653 145.668 93.5632C145.663 93.5581 145.658 93.5531 145.653 93.5482C145.648 93.5437 145.644 93.5393 145.639 93.5351C145.634 93.5309 145.629 93.5269 145.624 93.5229C145.618 93.5186 145.613 93.5144 145.607 93.5105C145.602 93.507 145.597 93.5037 145.591 93.5004C145.585 93.4966 145.58 93.4929 145.574 93.4895C145.568 93.4864 145.562 93.4836 145.557 93.4807C145.551 93.4777 145.545 93.4747 145.539 93.4721C145.532 93.4693 145.526 93.4669 145.519 93.4644C145.514 93.4622 145.508 93.46 145.502 93.4581C145.495 93.4558 145.488 93.454 145.481 93.4521C145.476 93.4505 145.47 93.4489 145.464 93.4476C145.457 93.4461 145.45 93.4449 145.443 93.4436C145.437 93.4426 145.431 93.4416 145.425 93.4408C145.418 93.44 145.411 93.4395 145.404 93.439C145.398 93.4385 145.391 93.4381 145.384 93.4379C145.381 93.4379 145.378 93.4375 145.375 93.4375H135.625C135.622 93.4375 135.62 93.4379 135.617 93.4379C135.609 93.4381 135.602 93.4385 135.595 93.439C135.588 93.4395 135.582 93.44 135.576 93.4407C135.569 93.4416 135.563 93.4427 135.556 93.4438C135.549 93.4449 135.543 93.4461 135.536 93.4475C135.53 93.4489 135.524 93.4506 135.518 93.4523C135.511 93.4541 135.505 93.4559 135.498 93.458C135.492 93.46 135.486 93.4624 135.48 93.4647C135.474 93.467 135.468 93.4693 135.462 93.4719C135.455 93.4747 135.449 93.4779 135.443 93.481C135.437 93.4837 135.432 93.4864 135.427 93.4894C135.42 93.4929 135.414 93.4967 135.408 93.5006C135.403 93.5038 135.398 93.507 135.393 93.5104C135.387 93.5144 135.382 93.5187 135.376 93.523C135.371 93.5269 135.366 93.5309 135.361 93.535C135.356 93.5393 135.352 93.5437 135.347 93.5483C135.342 93.5531 135.337 93.5581 135.332 93.5632C135.33 93.5653 135.327 93.5671 135.326 93.5692C135.323 93.5718 135.321 93.5745 135.319 93.577C135.314 93.5825 135.31 93.588 135.305 93.5938C135.301 93.5988 135.297 93.6039 135.294 93.609C135.29 93.6146 135.286 93.6202 135.282 93.626C135.279 93.6316 135.275 93.6373 135.272 93.643C135.269 93.6486 135.266 93.6544 135.263 93.6602C135.26 93.6662 135.257 93.6723 135.254 93.6784C135.251 93.6843 135.249 93.6903 135.247 93.6964C135.244 93.7026 135.242 93.7089 135.24 93.7153C135.238 93.7214 135.236 93.7277 135.234 93.734C135.232 93.7405 135.231 93.747 135.229 93.7536C135.228 93.7598 135.227 93.7661 135.225 93.7724C135.224 93.7794 135.223 93.7863 135.222 93.7934C135.221 93.7994 135.221 93.8055 135.22 93.8116C135.22 93.8191 135.219 93.8266 135.219 93.8341C135.219 93.8373 135.219 93.8405 135.219 93.8438V100.75C135.219 100.965 135.305 101.172 135.457 101.324C135.609 101.477 135.816 101.562 136.031 101.562H144.969C145.184 101.562 145.391 101.477 145.543 101.324C145.695 101.172 145.781 100.965 145.781 100.75V93.8438C145.781 93.8405 145.781 93.8373 145.781 93.8341ZM144.331 94.25L140.5 97.7614L136.669 94.25H144.331ZM144.969 100.75H136.031V94.7673L140.225 98.612C140.3 98.6807 140.398 98.7188 140.5 98.7188C140.602 98.7188 140.7 98.6807 140.775 98.612L144.969 94.7672L144.969 100.75L144.969 100.75Z" fill="black"/>
<rect x="196" y="83" width="63" height="29" rx="14.5" fill="#E9EBED"/>
<path d="M215.209 102.375V101.292C215.209 100.717 214.98 100.166 214.574 99.7596C214.168 99.3533 213.617 99.125 213.042 99.125H208.709C208.134 99.125 207.583 99.3533 207.177 99.7596C206.77 100.166 206.542 100.717 206.542 101.292V102.375" stroke="black" stroke-linecap="round" stroke-linejoin="round"/>
<path d="M210.875 96.9583C212.071 96.9583 213.041 95.9883 213.041 94.7917C213.041 93.595 212.071 92.625 210.875 92.625C209.678 92.625 208.708 93.595 208.708 94.7917C208.708 95.9883 209.678 96.9583 210.875 96.9583Z" stroke="black" stroke-linecap="round" stroke-linejoin="round"/>
<path d="M218.459 102.375V101.292C218.459 100.811 218.299 100.345 218.005 99.9657C217.711 99.5863 217.299 99.3153 216.834 99.1953" stroke="black" stroke-linecap="round" stroke-linejoin="round"/>
<path d="M214.666 92.6953C215.132 92.8146 215.545 93.0857 215.84 93.4657C216.135 93.8458 216.295 94.3132 216.295 94.7943C216.295 95.2754 216.135 95.7428 215.84 96.1228C215.545 96.5028 215.132 96.7739 214.666 96.8932" stroke="black" stroke-linecap="round" stroke-linejoin="round"/>
<path d="M226.002 102V93.516L224.42 93.866V93.054L226.394 92.2H227.192V102H226.002ZM233.419 102V99.9H228.449V98.99L233.209 92.2H234.581V98.864H236.037V99.9H234.581V102H233.419ZM229.751 98.864H233.475V93.502L229.751 98.864ZM240.229 102.168C239.604 102.168 239.039 102.056 238.535 101.832C238.031 101.599 237.625 101.253 237.317 100.796C237.019 100.339 236.86 99.7693 236.841 99.088H238.031C238.041 99.648 238.237 100.133 238.619 100.544C239.002 100.945 239.539 101.146 240.229 101.146C240.92 101.146 241.438 100.955 241.783 100.572C242.138 100.189 242.315 99.7273 242.315 99.186C242.315 98.7287 242.203 98.3553 241.979 98.066C241.765 97.7767 241.471 97.562 241.097 97.422C240.733 97.282 240.332 97.212 239.893 97.212H239.165V96.218H239.893C240.528 96.218 241.023 96.0733 241.377 95.784C241.741 95.4947 241.923 95.0887 241.923 94.566C241.923 94.1273 241.779 93.768 241.489 93.488C241.209 93.1987 240.789 93.054 240.229 93.054C239.688 93.054 239.254 93.2173 238.927 93.544C238.601 93.8613 238.419 94.2627 238.381 94.748H237.191C237.219 94.216 237.359 93.7447 237.611 93.334C237.873 92.9233 238.227 92.606 238.675 92.382C239.123 92.1487 239.641 92.032 240.229 92.032C240.864 92.032 241.391 92.144 241.811 92.368C242.241 92.592 242.563 92.8907 242.777 93.264C243.001 93.6373 243.113 94.048 243.113 94.496C243.113 94.9907 242.978 95.4433 242.707 95.854C242.437 96.2553 242.031 96.526 241.489 96.666C242.068 96.7873 242.549 97.0627 242.931 97.492C243.314 97.9213 243.505 98.486 243.505 99.186C243.505 99.7273 243.379 100.227 243.127 100.684C242.885 101.132 242.521 101.491 242.035 101.762C241.55 102.033 240.948 102.168 240.229 102.168Z" fill="black"/>
<rect x="24" y="83" width="97" height="29" rx="14.5" fill="#E9EBED"/>
<path d="M54.002 102V93.516L52.42 93.866V93.054L54.394 92.2H55.192V102H54.002ZM60.3126 102.168C59.6406 102.168 59.0573 102.047 58.5626 101.804C58.0679 101.561 57.6713 101.23 57.3726 100.81C57.0833 100.381 56.9059 99.8953 56.8406 99.354H57.9886C58.1006 99.8953 58.3619 100.334 58.7726 100.67C59.1833 100.997 59.7013 101.16 60.3266 101.16C60.7933 101.16 61.1946 101.053 61.5306 100.838C61.8666 100.614 62.1233 100.315 62.3006 99.942C62.4873 99.5687 62.5806 99.1533 62.5806 98.696C62.5806 97.968 62.3753 97.38 61.9646 96.932C61.5539 96.484 61.0219 96.26 60.3686 96.26C59.8273 96.26 59.3653 96.3813 58.9826 96.624C58.5999 96.8667 58.3199 97.184 58.1426 97.576H57.0226L57.8626 92.2H63.0006V93.222H58.7726L58.1986 96.204C58.4226 95.9333 58.7306 95.7093 59.1226 95.532C59.5239 95.3547 59.9813 95.266 60.4946 95.266C61.1386 95.266 61.6986 95.4153 62.1746 95.714C62.6599 96.0127 63.0379 96.4187 63.3086 96.932C63.5793 97.4453 63.7146 98.0287 63.7146 98.682C63.7146 99.3073 63.5793 99.886 63.3086 100.418C63.0473 100.95 62.6599 101.375 62.1466 101.692C61.6426 102.009 61.0313 102.168 60.3126 102.168ZM64.205 103.33L67.719 91.304H68.881L65.367 103.33H64.205ZM73.5864 102.168C72.7184 102.168 71.967 101.958 71.3324 101.538C70.707 101.109 70.2264 100.516 69.8904 99.76C69.5544 98.9947 69.3864 98.108 69.3864 97.1C69.3864 96.092 69.5544 95.21 69.8904 94.454C70.2264 93.6887 70.707 93.096 71.3324 92.676C71.967 92.2467 72.7184 92.032 73.5864 92.032C74.4544 92.032 75.201 92.2467 75.8264 92.676C76.4517 93.096 76.9324 93.6887 77.2684 94.454C77.6044 95.21 77.7724 96.092 77.7724 97.1C77.7724 98.108 77.6044 98.9947 77.2684 99.76C76.9324 100.516 76.4517 101.109 75.8264 101.538C75.201 101.958 74.4544 102.168 73.5864 102.168ZM73.5864 101.132C74.1557 101.132 74.6644 100.973 75.1124 100.656C75.5697 100.329 75.9244 99.8673 76.1764 99.27C76.4377 98.6633 76.5684 97.94 76.5684 97.1C76.5684 96.26 76.4377 95.5413 76.1764 94.944C75.9244 94.3467 75.5697 93.8893 75.1124 93.572C74.6644 93.2453 74.1557 93.082 73.5864 93.082C73.0077 93.082 72.4944 93.2453 72.0464 93.572C71.5984 93.8893 71.2437 94.3467 70.9824 94.944C70.721 95.5413 70.5904 96.26 70.5904 97.1C70.5904 97.94 70.721 98.6633 70.9824 99.27C71.2437 99.8673 71.5984 100.329 72.0464 100.656C72.4944 100.973 73.0077 101.132 73.5864 101.132ZM82.4254 102.168C81.8094 102.168 81.2821 102.047 80.8434 101.804C80.4047 101.561 80.0547 101.239 79.7934 100.838C79.5414 100.427 79.3874 99.9747 79.3314 99.48H80.4234C80.5167 100.012 80.7407 100.423 81.0954 100.712C81.4501 101.001 81.8981 101.146 82.4394 101.146C83.1861 101.146 83.8067 100.801 84.3014 100.11C84.7961 99.41 85.0621 98.3227 85.0994 96.848C84.8754 97.2867 84.5161 97.6693 84.0214 97.996C83.5361 98.3133 82.9481 98.472 82.2574 98.472C81.7067 98.472 81.1841 98.3413 80.6894 98.08C80.1947 97.8187 79.7934 97.4547 79.4854 96.988C79.1774 96.512 79.0234 95.9567 79.0234 95.322C79.0234 94.7713 79.1587 94.244 79.4294 93.74C79.7094 93.236 80.1014 92.8253 80.6054 92.508C81.1094 92.1907 81.7114 92.032 82.4114 92.032C83.1207 92.032 83.7181 92.1673 84.2034 92.438C84.6887 92.6993 85.0761 93.054 85.3654 93.502C85.6641 93.95 85.8787 94.454 86.0094 95.014C86.1494 95.5647 86.2194 96.1293 86.2194 96.708C86.2194 97.7907 86.0701 98.7427 85.7714 99.564C85.4727 100.376 85.0387 101.015 84.4694 101.482C83.9094 101.939 83.2281 102.168 82.4254 102.168ZM82.4954 97.45C82.9341 97.45 83.3261 97.352 83.6714 97.156C84.0167 96.9507 84.2921 96.68 84.4974 96.344C84.7027 96.008 84.8054 95.644 84.8054 95.252C84.8054 94.832 84.7027 94.4587 84.4974 94.132C84.2921 93.796 84.0167 93.5347 83.6714 93.348C83.3261 93.1613 82.9341 93.068 82.4954 93.068C82.0567 93.068 81.6647 93.1613 81.3194 93.348C80.9741 93.5347 80.7034 93.796 80.5074 94.132C80.3114 94.4587 80.2134 94.8367 80.2134 95.266C80.2134 95.9287 80.4281 96.4607 80.8574 96.862C81.2961 97.254 81.8421 97.45 82.4954 97.45ZM86.3885 103.33L89.9025 91.304H91.0645L87.5505 103.33H86.3885ZM92.0672 102V101.174C92.7299 100.651 93.3552 100.124 93.9432 99.592C94.5406 99.0507 95.0679 98.5187 95.5252 97.996C95.9919 97.4733 96.3559 96.96 96.6172 96.456C96.8879 95.952 97.0232 95.4667 97.0232 95C97.0232 94.6547 96.9626 94.3327 96.8412 94.034C96.7292 93.7353 96.5426 93.4973 96.2812 93.32C96.0199 93.1333 95.6652 93.04 95.2172 93.04C94.7879 93.04 94.4286 93.138 94.1392 93.334C93.8499 93.5207 93.6306 93.7727 93.4812 94.09C93.3412 94.4073 93.2712 94.748 93.2712 95.112H92.1372C92.1372 94.468 92.2726 93.9173 92.5432 93.46C92.8139 92.9933 93.1826 92.6387 93.6492 92.396C94.1159 92.1533 94.6432 92.032 95.2312 92.032C96.0992 92.032 96.8086 92.2793 97.3592 92.774C97.9192 93.2593 98.1992 93.9873 98.1992 94.958C98.1992 95.5367 98.0546 96.1107 97.7652 96.68C97.4759 97.24 97.1072 97.786 96.6592 98.318C96.2112 98.8407 95.7306 99.3307 95.2172 99.788C94.7132 100.245 94.2419 100.656 93.8032 101.02H98.5352V102H92.0672ZM99.799 102V101.174C100.462 100.651 101.087 100.124 101.675 99.592C102.272 99.0507 102.8 98.5187 103.257 97.996C103.724 97.4733 104.088 96.96 104.349 96.456C104.62 95.952 104.755 95.4667 104.755 95C104.755 94.6547 104.694 94.3327 104.573 94.034C104.461 93.7353 104.274 93.4973 104.013 93.32C103.752 93.1333 103.397 93.04 102.949 93.04C102.52 93.04 102.16 93.138 101.871 93.334C101.582 93.5207 101.362 93.7727 101.213 94.09C101.073 94.4073 101.003 94.748 101.003 95.112H99.869C99.869 94.468 100.004 93.9173 100.275 93.46C100.546 92.9933 100.914 92.6387 101.381 92.396C101.848 92.1533 102.375 92.032 102.963 92.032C103.831 92.032 104.54 92.2793 105.091 92.774C105.651 93.2593 105.931 93.9873 105.931 94.958C105.931 95.5367 105.786 96.1107 105.497 96.68C105.208 97.24 104.839 97.786 104.391 98.318C103.943 98.8407 103.462 99.3307 102.949 99.788C102.445 100.245 101.974 100.656 101.535 101.02H106.267V102H99.799Z" fill="black"/>
<path d="M44.2917 93.167H36.7083C36.11 93.167 35.625 93.652 35.625 94.2503V101.834C35.625 102.432 36.11 102.917 36.7083 102.917H44.2917C44.89 102.917 45.375 102.432 45.375 101.834V94.2503C45.375 93.652 44.89 93.167 44.2917 93.167Z" stroke="black" stroke-linecap="round" stroke-linejoin="round"/>
<path d="M42.6665 92.083V94.2497" stroke="black" stroke-linecap="round" stroke-linejoin="round"/>
<path d="M38.3335 92.083V94.2497" stroke="black" stroke-linecap="round" stroke-linejoin="round"/>
<path d="M35.625 96.417H45.375" stroke="black" stroke-linecap="round" stroke-linejoin="round"/>
<rect x="262" y="83" width="65" height="29" rx="14.5" fill="#E9EBED"/>
<rect x="262" y="83" width="65" height="29" rx="14.5" stroke="#D3D7DB"/>
<path fill-rule="evenodd" clip-rule="evenodd" d="M281.955 94.0485C281.037 93.1312 279.819 92.625 278.521 92.625C275.845 92.625 273.666 94.8022 273.666 97.4778C273.665 98.3331 273.888 99.1678 274.314 99.9042L273.625 102.419L276.199 101.743C276.907 102.131 277.707 102.334 278.519 102.335H278.521C281.196 102.335 283.373 100.158 283.375 97.481C283.375 96.1844 282.87 94.9657 281.955 94.0485ZM278.521 101.515H278.519C277.795 101.515 277.084 101.32 276.466 100.953L276.318 100.866L274.79 101.266L275.198 99.7772L275.102 99.6249C274.698 98.9822 274.485 98.2395 274.485 97.4778C274.485 95.2545 276.296 93.4454 278.522 93.4454C279.6 93.4454 280.612 93.866 281.374 94.6277C282.136 95.391 282.555 96.4034 282.555 97.481C282.555 99.7058 280.744 101.515 278.521 101.515ZM280.733 98.4934C280.612 98.4331 280.016 98.1395 279.904 98.0999C279.793 98.0586 279.712 98.0396 279.631 98.1602C279.551 98.2823 279.319 98.5553 279.247 98.6362C279.178 98.7156 279.106 98.7267 278.986 98.6664C278.863 98.6061 278.473 98.4775 278.01 98.0634C277.649 97.7428 277.405 97.3445 277.335 97.2239C277.264 97.1017 277.327 97.0366 277.388 96.9763C277.443 96.9224 277.51 96.8351 277.57 96.7637C277.63 96.6938 277.651 96.6431 277.692 96.5621C277.732 96.4812 277.711 96.4098 277.681 96.3495C277.651 96.2892 277.408 95.6909 277.307 95.4481C277.208 95.2117 277.108 95.245 277.034 95.2402C276.964 95.2371 276.883 95.2371 276.802 95.2371C276.721 95.2371 276.589 95.2672 276.478 95.3894C276.367 95.51 276.055 95.8036 276.055 96.4003C276.055 96.9969 276.489 97.5746 276.55 97.6555C276.61 97.7349 277.405 98.96 278.622 99.4852C278.911 99.6106 279.136 99.6852 279.312 99.7407C279.603 99.8328 279.868 99.8201 280.077 99.7899C280.311 99.755 280.795 99.4963 280.896 99.2123C280.996 98.9298 280.996 98.687 280.966 98.6362C280.936 98.5854 280.855 98.5553 280.733 98.4934Z" fill="black"/>
<path d="M299.375 97.2292C299.377 97.9441 299.21 98.6494 298.887 99.2875C298.505 100.052 297.918 100.695 297.191 101.145C296.464 101.595 295.626 101.833 294.771 101.833C294.056 101.835 293.351 101.668 292.712 101.346L289.625 102.375L290.654 99.2875C290.332 98.6494 290.165 97.9441 290.167 97.2292C290.167 96.3743 290.405 95.5364 290.855 94.8093C291.305 94.0822 291.948 93.4947 292.712 93.1125C293.351 92.7902 294.056 92.6232 294.771 92.625H295.042C296.171 92.6873 297.237 93.1638 298.037 93.9634C298.836 94.763 299.313 95.8293 299.375 96.9583V97.2292Z" stroke="black" stroke-width="0.845" stroke-linecap="round" stroke-linejoin="round"/>
<path d="M310.5 92.2188C309.583 92.219 308.681 92.4581 307.884 92.9125C307.088 93.3669 306.423 94.021 305.956 94.8104C305.488 95.5997 305.235 96.4972 305.219 97.4143C305.204 98.3315 305.428 99.2368 305.869 100.041L305.435 101.56C305.395 101.7 305.394 101.847 305.43 101.987C305.466 102.128 305.54 102.256 305.642 102.358C305.744 102.46 305.872 102.534 306.013 102.57C306.153 102.606 306.3 102.605 306.44 102.565L307.959 102.131C308.665 102.518 309.45 102.739 310.254 102.776C311.059 102.814 311.861 102.667 312.6 102.346C313.339 102.026 313.995 101.541 314.517 100.929C315.04 100.316 315.416 99.5921 315.616 98.812C315.816 98.032 315.835 97.2165 315.671 96.428C315.508 95.6395 315.166 94.8988 314.672 94.2626C314.179 93.6264 313.546 93.1115 312.823 92.7572C312.1 92.403 311.305 92.2188 310.5 92.2188ZM310.5 101.969C309.697 101.969 308.91 101.753 308.22 101.344C308.172 101.316 308.119 101.297 308.064 101.29C308.009 101.283 307.953 101.287 307.9 101.302L306.217 101.783L306.698 100.1C306.713 100.047 306.717 99.9908 306.71 99.9359C306.703 99.881 306.684 99.8281 306.656 99.7805C306.153 98.9325 305.944 97.9419 306.062 96.9629C306.181 95.9839 306.62 95.0715 307.311 94.3679C308.002 93.6643 308.906 93.209 309.883 93.0729C310.859 92.9368 311.854 93.1275 312.711 93.6154C313.568 94.1032 314.239 94.8608 314.621 95.7702C315.002 96.6795 315.072 97.6895 314.82 98.6428C314.568 99.5961 314.007 100.439 313.226 101.041C312.445 101.642 311.486 101.969 310.5 101.969ZM313.225 96.4002C313.262 96.438 313.292 96.4827 313.313 96.532C313.333 96.5813 313.344 96.6342 313.344 96.6875C313.344 96.7408 313.333 96.7937 313.313 96.843C313.292 96.8923 313.262 96.937 313.225 96.9748L311.6 98.5998C311.562 98.6375 311.517 98.6674 311.468 98.6878C311.419 98.7082 311.366 98.7188 311.313 98.7188C311.259 98.7188 311.206 98.7082 311.157 98.6878C311.108 98.6674 311.063 98.6375 311.025 98.5998L309.688 97.262L308.35 98.5998C308.312 98.6375 308.267 98.6675 308.218 98.6879C308.169 98.7084 308.116 98.7189 308.062 98.7189C308.009 98.7189 307.956 98.7084 307.907 98.688C307.858 98.6676 307.813 98.6377 307.775 98.5999C307.737 98.5622 307.707 98.5174 307.687 98.4681C307.667 98.4188 307.656 98.3659 307.656 98.3126C307.656 98.2592 307.667 98.2063 307.687 98.157C307.708 98.1077 307.737 98.063 307.775 98.0252L309.4 96.4002C309.476 96.3241 309.58 96.2813 309.688 96.2813C309.795 96.2813 309.899 96.3241 309.975 96.4002L311.313 97.738L312.65 96.4002C312.726 96.3241 312.83 96.2813 312.938 96.2813C313.045 96.2813 313.149 96.3241 313.225 96.4002V96.4002Z" fill="black"/>
<defs>
<filter id="filter0_d_152_3740" x="-2" y="0" width="379" height="144" filterUnits="userSpaceOnUse" color-interpolation-filters="sRGB">
<feFlood flood-opacity="0" result="BackgroundImageFix"/>
<feColorMatrix in="SourceAlpha" type="matrix" values="0 0 0 0 0 0 0 0 0 0 0 0 0 0 0 0 0 0 127 0" result="hardAlpha"/>
<feOffset/>
<feGaussianBlur stdDeviation="7"/>
<feComposite in2="hardAlpha" operator="out"/>
<feColorMatrix type="matrix" values="0 0 0 0 0.27106 0 0 0 0 0.291722 0 0 0 0 0.320993 0 0 0 0.12 0"/>
<feBlend mode="normal" in2="BackgroundImageFix" result="effect1_dropShadow_152_3740"/>
<feBlend mode="normal" in="SourceGraphic" in2="effect1_dropShadow_152_3740" result="shape"/>
</filter>
</defs>
</svg>
