<svg width="375" height="144" viewBox="0 0 375 144" fill="none" xmlns="http://www.w3.org/2000/svg">
<g filter="url(#filter0_d_152_3778)">
<rect x="12" y="14" width="351" height="116" rx="14" fill="white"/>
<rect x="12.5" y="14.5" width="350" height="115" rx="13.5" stroke="#D3D7DB"/>
</g>
<path d="M332 53L338 47L332 41" stroke="#1F3758" stroke-width="2" stroke-linecap="round" stroke-linejoin="round"/>
<path d="M74.136 52V40.8H81.16V42.176H75.832V45.712H80.248V47.072H75.832V52H74.136ZM85.7609 52.192C85.0035 52.192 84.3209 52.0213 83.7129 51.68C83.1155 51.328 82.6409 50.8427 82.2889 50.224C81.9369 49.5947 81.7609 48.864 81.7609 48.032C81.7609 47.2 81.9369 46.4747 82.2889 45.856C82.6515 45.2267 83.1369 44.7413 83.7449 44.4C84.3529 44.048 85.0302 43.872 85.7769 43.872C86.5342 43.872 87.2115 44.048 87.8089 44.4C88.4169 44.7413 88.8969 45.2267 89.2489 45.856C89.6115 46.4747 89.7929 47.2 89.7929 48.032C89.7929 48.864 89.6115 49.5947 89.2489 50.224C88.8969 50.8427 88.4169 51.328 87.8089 51.68C87.2009 52.0213 86.5182 52.192 85.7609 52.192ZM85.7609 50.736C86.1662 50.736 86.5395 50.6347 86.8809 50.432C87.2329 50.2293 87.5155 49.9307 87.7289 49.536C87.9422 49.1307 88.0489 48.6293 88.0489 48.032C88.0489 47.4347 87.9422 46.9387 87.7289 46.544C87.5262 46.1387 87.2489 45.8347 86.8969 45.632C86.5555 45.4293 86.1822 45.328 85.7769 45.328C85.3715 45.328 84.9929 45.4293 84.6409 45.632C84.2995 45.8347 84.0222 46.1387 83.8089 46.544C83.5955 46.9387 83.4889 47.4347 83.4889 48.032C83.4889 48.6293 83.5955 49.1307 83.8089 49.536C84.0222 49.9307 84.2995 50.2293 84.6409 50.432C84.9822 50.6347 85.3555 50.736 85.7609 50.736ZM91.307 52V40.48H93.003V52H91.307ZM94.8308 52V40.48H96.5268V52H94.8308ZM102.066 52.192C101.309 52.192 100.626 52.0213 100.018 51.68C99.4212 51.328 98.9465 50.8427 98.5945 50.224C98.2425 49.5947 98.0665 48.864 98.0665 48.032C98.0665 47.2 98.2425 46.4747 98.5945 45.856C98.9572 45.2267 99.4425 44.7413 100.05 44.4C100.658 44.048 101.336 43.872 102.082 43.872C102.84 43.872 103.517 44.048 104.114 44.4C104.722 44.7413 105.202 45.2267 105.554 45.856C105.917 46.4747 106.098 47.2 106.098 48.032C106.098 48.864 105.917 49.5947 105.554 50.224C105.202 50.8427 104.722 51.328 104.114 51.68C103.506 52.0213 102.824 52.192 102.066 52.192ZM102.066 50.736C102.472 50.736 102.845 50.6347 103.186 50.432C103.538 50.2293 103.821 49.9307 104.034 49.536C104.248 49.1307 104.354 48.6293 104.354 48.032C104.354 47.4347 104.248 46.9387 104.034 46.544C103.832 46.1387 103.554 45.8347 103.202 45.632C102.861 45.4293 102.488 45.328 102.082 45.328C101.677 45.328 101.298 45.4293 100.946 45.632C100.605 45.8347 100.328 46.1387 100.114 46.544C99.9012 46.9387 99.7945 47.4347 99.7945 48.032C99.7945 48.6293 99.9012 49.1307 100.114 49.536C100.328 49.9307 100.605 50.2293 100.946 50.432C101.288 50.6347 101.661 50.736 102.066 50.736ZM108.9 52L106.564 44.064H108.26L109.796 50.048L111.524 44.064H113.412L115.14 50.048L116.676 44.064H118.372L116.036 52H114.292L112.468 45.76L110.644 52H108.9ZM119.289 48.064V46.64H125.801V48.064H119.289ZM130.369 52.192C129.409 52.192 128.652 51.8933 128.097 51.296C127.553 50.6987 127.281 49.808 127.281 48.624V44.064H128.977V48.448C128.977 49.984 129.607 50.752 130.865 50.752C131.495 50.752 132.012 50.528 132.417 50.08C132.823 49.632 133.025 48.992 133.025 48.16V44.064H134.721V52H133.217L133.089 50.608C132.844 51.0987 132.481 51.488 132.001 51.776C131.532 52.0533 130.988 52.192 130.369 52.192ZM136.559 55.52V44.064H138.079L138.255 45.296C138.511 44.9227 138.863 44.592 139.311 44.304C139.759 44.016 140.335 43.872 141.039 43.872C141.807 43.872 142.484 44.0533 143.071 44.416C143.658 44.7787 144.116 45.2747 144.447 45.904C144.788 46.5333 144.959 47.248 144.959 48.048C144.959 48.848 144.788 49.5627 144.447 50.192C144.116 50.8107 143.658 51.3013 143.071 51.664C142.484 52.016 141.802 52.192 141.023 52.192C140.404 52.192 139.855 52.0693 139.375 51.824C138.906 51.5787 138.532 51.232 138.255 50.784V55.52H136.559ZM140.735 50.72C141.46 50.72 142.058 50.4747 142.527 49.984C142.996 49.4827 143.231 48.832 143.231 48.032C143.231 47.5093 143.124 47.0453 142.911 46.64C142.698 46.2347 142.404 45.92 142.031 45.696C141.658 45.4613 141.226 45.344 140.735 45.344C140.01 45.344 139.412 45.5947 138.943 46.096C138.484 46.5973 138.255 47.2427 138.255 48.032C138.255 48.832 138.484 49.4827 138.943 49.984C139.412 50.4747 140.01 50.72 140.735 50.72ZM153.945 52.192C153.166 52.192 152.467 52.016 151.849 51.664C151.241 51.312 150.761 50.8267 150.409 50.208C150.067 49.5787 149.897 48.8533 149.897 48.032C149.897 47.2107 150.067 46.4907 150.409 45.872C150.761 45.2427 151.241 44.752 151.849 44.4C152.467 44.048 153.166 43.872 153.945 43.872C154.926 43.872 155.747 44.128 156.409 44.64C157.081 45.152 157.513 45.8453 157.705 46.72H155.929C155.822 46.2827 155.587 45.9413 155.225 45.696C154.862 45.4507 154.435 45.328 153.945 45.328C153.529 45.328 153.145 45.4347 152.793 45.648C152.441 45.8507 152.158 46.1547 151.945 46.56C151.731 46.9547 151.625 47.4453 151.625 48.032C151.625 48.6187 151.731 49.1147 151.945 49.52C152.158 49.9147 152.441 50.2187 152.793 50.432C153.145 50.6453 153.529 50.752 153.945 50.752C154.435 50.752 154.862 50.6293 155.225 50.384C155.587 50.1387 155.822 49.792 155.929 49.344H157.705C157.523 50.1973 157.097 50.8853 156.425 51.408C155.753 51.9307 154.926 52.192 153.945 52.192ZM161.912 52.192C161.24 52.192 160.685 52.08 160.248 51.856C159.811 51.632 159.485 51.3387 159.272 50.976C159.059 50.6027 158.952 50.1973 158.952 49.76C158.952 48.992 159.251 48.384 159.848 47.936C160.445 47.488 161.299 47.264 162.408 47.264H164.488V47.12C164.488 46.5013 164.317 46.0373 163.976 45.728C163.645 45.4187 163.213 45.264 162.68 45.264C162.211 45.264 161.8 45.3813 161.448 45.616C161.107 45.84 160.899 46.176 160.824 46.624H159.128C159.181 46.048 159.373 45.5573 159.704 45.152C160.045 44.736 160.472 44.4213 160.984 44.208C161.507 43.984 162.077 43.872 162.696 43.872C163.805 43.872 164.664 44.1653 165.272 44.752C165.88 45.328 166.184 46.1173 166.184 47.12V52H164.712L164.568 50.64C164.344 51.0773 164.019 51.4453 163.592 51.744C163.165 52.0427 162.605 52.192 161.912 52.192ZM162.248 50.816C162.707 50.816 163.091 50.7093 163.4 50.496C163.72 50.272 163.965 49.9787 164.136 49.616C164.317 49.2533 164.429 48.8533 164.472 48.416H162.584C161.912 48.416 161.432 48.5333 161.144 48.768C160.867 49.0027 160.728 49.296 160.728 49.648C160.728 50.0107 160.861 50.2987 161.128 50.512C161.405 50.7147 161.779 50.816 162.248 50.816ZM167.841 52V44.064H169.345L169.489 45.184C169.745 44.7787 170.081 44.4587 170.497 44.224C170.924 43.9893 171.415 43.872 171.969 43.872C173.228 43.872 174.103 44.368 174.593 45.36C174.881 44.9013 175.265 44.5387 175.745 44.272C176.236 44.0053 176.764 43.872 177.329 43.872C178.321 43.872 179.1 44.1707 179.665 44.768C180.231 45.3653 180.513 46.256 180.513 47.44V52H178.817V47.616C178.817 46.08 178.231 45.312 177.057 45.312C176.46 45.312 175.969 45.536 175.585 45.984C175.212 46.432 175.025 47.072 175.025 47.904V52H173.329V47.616C173.329 46.08 172.737 45.312 171.553 45.312C170.967 45.312 170.481 45.536 170.097 45.984C169.724 46.432 169.537 47.072 169.537 47.904V52H167.841ZM182.178 55.52V44.064H183.698L183.874 45.296C184.13 44.9227 184.482 44.592 184.93 44.304C185.378 44.016 185.954 43.872 186.658 43.872C187.426 43.872 188.103 44.0533 188.69 44.416C189.276 44.7787 189.735 45.2747 190.066 45.904C190.407 46.5333 190.578 47.248 190.578 48.048C190.578 48.848 190.407 49.5627 190.066 50.192C189.735 50.8107 189.276 51.3013 188.69 51.664C188.103 52.016 187.42 52.192 186.642 52.192C186.023 52.192 185.474 52.0693 184.994 51.824C184.524 51.5787 184.151 51.232 183.874 50.784V55.52H182.178ZM186.354 50.72C187.079 50.72 187.676 50.4747 188.146 49.984C188.615 49.4827 188.85 48.832 188.85 48.032C188.85 47.5093 188.743 47.0453 188.53 46.64C188.316 46.2347 188.023 45.92 187.65 45.696C187.276 45.4613 186.844 45.344 186.354 45.344C185.628 45.344 185.031 45.5947 184.562 46.096C184.103 46.5973 183.874 47.2427 183.874 48.032C183.874 48.832 184.103 49.4827 184.562 49.984C185.031 50.4747 185.628 50.72 186.354 50.72ZM194.78 52.192C194.108 52.192 193.553 52.08 193.116 51.856C192.679 51.632 192.353 51.3387 192.14 50.976C191.927 50.6027 191.82 50.1973 191.82 49.76C191.82 48.992 192.119 48.384 192.716 47.936C193.313 47.488 194.167 47.264 195.276 47.264H197.356V47.12C197.356 46.5013 197.185 46.0373 196.844 45.728C196.513 45.4187 196.081 45.264 195.548 45.264C195.079 45.264 194.668 45.3813 194.316 45.616C193.975 45.84 193.767 46.176 193.692 46.624H191.996C192.049 46.048 192.241 45.5573 192.572 45.152C192.913 44.736 193.34 44.4213 193.852 44.208C194.375 43.984 194.945 43.872 195.564 43.872C196.673 43.872 197.532 44.1653 198.14 44.752C198.748 45.328 199.052 46.1173 199.052 47.12V52H197.58L197.436 50.64C197.212 51.0773 196.887 51.4453 196.46 51.744C196.033 52.0427 195.473 52.192 194.78 52.192ZM195.116 50.816C195.575 50.816 195.959 50.7093 196.268 50.496C196.588 50.272 196.833 49.9787 197.004 49.616C197.185 49.2533 197.297 48.8533 197.34 48.416H195.452C194.78 48.416 194.3 48.5333 194.012 48.768C193.735 49.0027 193.596 49.296 193.596 49.648C193.596 50.0107 193.729 50.2987 193.996 50.512C194.273 50.7147 194.647 50.816 195.116 50.816ZM201.669 42.56C201.349 42.56 201.083 42.464 200.869 42.272C200.667 42.0693 200.565 41.8187 200.565 41.52C200.565 41.2213 200.667 40.976 200.869 40.784C201.083 40.5813 201.349 40.48 201.669 40.48C201.989 40.48 202.251 40.5813 202.453 40.784C202.667 40.976 202.773 41.2213 202.773 41.52C202.773 41.8187 202.667 42.0693 202.453 42.272C202.251 42.464 201.989 42.56 201.669 42.56ZM200.821 52V44.064H202.517V52H200.821ZM207.684 49.568C207.268 49.568 206.884 49.52 206.532 49.424L205.844 50.096C205.962 50.1707 206.106 50.2347 206.276 50.288C206.447 50.3413 206.687 50.3893 206.996 50.432C207.306 50.4747 207.727 50.5173 208.26 50.56C209.316 50.656 210.079 50.912 210.548 51.328C211.018 51.7333 211.252 52.2773 211.252 52.96C211.252 53.4293 211.124 53.872 210.868 54.288C210.623 54.7147 210.234 55.056 209.7 55.312C209.178 55.5787 208.506 55.712 207.684 55.712C206.575 55.712 205.674 55.4987 204.98 55.072C204.298 54.656 203.956 54.0213 203.956 53.168C203.956 52.8373 204.042 52.5067 204.212 52.176C204.394 51.856 204.676 51.552 205.06 51.264C204.836 51.168 204.639 51.0667 204.468 50.96C204.308 50.8427 204.164 50.7253 204.036 50.608V50.224L205.412 48.816C204.794 48.2827 204.484 47.584 204.484 46.72C204.484 46.1973 204.607 45.7227 204.852 45.296C205.108 44.8587 205.476 44.512 205.956 44.256C206.436 44 207.012 43.872 207.684 43.872C208.132 43.872 208.548 43.936 208.932 44.064H211.892V45.184L210.484 45.264C210.74 45.7013 210.868 46.1867 210.868 46.72C210.868 47.2533 210.74 47.7333 210.484 48.16C210.239 48.5867 209.876 48.928 209.396 49.184C208.927 49.44 208.356 49.568 207.684 49.568ZM207.684 48.24C208.175 48.24 208.57 48.112 208.868 47.856C209.178 47.5893 209.332 47.216 209.332 46.736C209.332 46.2453 209.178 45.872 208.868 45.616C208.57 45.36 208.175 45.232 207.684 45.232C207.183 45.232 206.778 45.36 206.468 45.616C206.17 45.872 206.02 46.2453 206.02 46.736C206.02 47.216 206.17 47.5893 206.468 47.856C206.778 48.112 207.183 48.24 207.684 48.24ZM205.556 53.008C205.556 53.4667 205.759 53.808 206.164 54.032C206.57 54.2667 207.076 54.384 207.684 54.384C208.271 54.384 208.746 54.256 209.108 54C209.471 53.7547 209.652 53.424 209.652 53.008C209.652 52.6987 209.53 52.432 209.284 52.208C209.039 51.9947 208.575 51.8613 207.892 51.808C207.38 51.776 206.927 51.728 206.532 51.664C206.159 51.8667 205.903 52.0853 205.764 52.32C205.626 52.5547 205.556 52.784 205.556 53.008ZM213.085 52V44.064H214.589L214.717 45.456C214.962 44.9653 215.32 44.5813 215.789 44.304C216.269 44.016 216.818 43.872 217.437 43.872C218.397 43.872 219.149 44.1707 219.693 44.768C220.248 45.3653 220.525 46.256 220.525 47.44V52H218.845V47.616C218.845 46.08 218.216 45.312 216.957 45.312C216.328 45.312 215.805 45.536 215.389 45.984C214.984 46.432 214.781 47.072 214.781 47.904V52H213.085Z" fill="black"/>
<path d="M30.6304 28.4164C27.2059 30.5182 25.1256 32.4213 25.8269 37.33C26.5358 42.292 27.2503 41.3485 29.6431 45.7502C32.0359 50.152 28.3193 50.0119 30.6011 57.9449C32.8078 65.617 39.9605 67.665 51.3636 64.705C62.7668 61.745 63.6362 52.2793 58.8133 44.1299C55.1962 38.0179 55.5966 37.8625 48.2481 32.3725C39.2895 25.6797 35.5293 25.4097 30.6304 28.4164Z" fill="#DEEBFF"/>
<path d="M52.3392 53.5494C52.2445 55.8618 52.5582 56.5579 51.8392 56.5166C51.0758 56.4724 50.558 55.7468 50.1763 55.0861C48.6377 52.4286 47.3787 49.6177 46.2603 46.7582C45.9333 45.9235 45.6123 45.0401 45.7321 44.1508C45.8504 43.2616 46.6405 42.766 47.4645 42.4047C48.401 41.9933 48.8019 42.4622 49.1422 43.9045C49.4247 45.1006 49.3952 45.3808 48.475 45.6919C47.1109 46.1521 46.5206 44.7053 45.9762 43.6701C44.1654 40.228 43.8754 36.0235 45.198 32.3675C45.3844 31.8514 45.6788 31.2792 46.2188 31.173C46.9334 31.0299 47.4793 31.7806 47.8018 32.431C51.0861 39.0423 52.6588 46.4898 52.3274 53.8591C52.3067 54.3119 52.2504 54.8221 51.8895 55.0979C51.5492 55.3575 51.0684 55.3044 50.6512 55.2041C48.4468 54.6791 45.67 52.3652 43.5218 51.647C41.9655 51.1264 37.3038 50.0439 34.6882 50.0439C34.1926 50.0439 33.0061 44.9634 33.7236 44.6169C34.9737 44.0152 43.0647 39.1573 45.5694 34.0547C45.6034 38.7621 46.4896 45.4117 49.5046 52.4036C49.5845 52.5879 49.6511 52.7929 49.5993 52.9876C49.5179 53.3002 49.1318 53.4492 48.8137 53.3902C48.4957 53.3312 48.2264 53.1247 47.9646 52.9359C44.516 50.451 40.0289 50.0557 35.7859 49.746C35.7327 51.1205 36.4709 53.3651 37.2372 54.508C36.604 55.1392 35.2119 54.9298 34.5757 54.3016C34.3597 54.0877 34.2739 53.781 34.197 53.4875L32.0252 45.2923C30.7736 45.5931 28.6743 45.9574 27.7378 46.8378C26.8028 47.7183 28.5205 50.656 29.022 50.6943C30.1375 50.7784 30.497 49.9363 30.3742 49.5057C30.2514 49.075 30.0324 48.6562 30.0591 48.2094C30.0857 47.7625 30.5236 47.3009 30.9393 47.469C31.4542 47.677 31.2914 48.4261 31.1464 48.96C30.6567 50.7622 31.4763 52.6321 32.2752 54.3207C32.4202 54.626 32.5859 54.9549 32.8892 55.1053C33.1925 55.2557 33.7709 55.0876 33.6733 54.7617C33.3863 53.7987 31.6613 54.8915 30.6553 54.9549" stroke="#1F3758" stroke-miterlimit="10" stroke-linecap="round" stroke-linejoin="round"/>
<rect x="128" y="83" width="62" height="29" rx="14.5" fill="#E9EBED"/>
<rect x="128" y="83" width="62" height="29" rx="14.5" stroke="#D3D7DB"/>
<path d="M158.002 102V93.516L156.42 93.866V93.054L158.394 92.2H159.192V102H158.002ZM160.827 102V101.174C161.489 100.651 162.115 100.124 162.703 99.592C163.3 99.0507 163.827 98.5187 164.285 97.996C164.751 97.4733 165.115 96.96 165.377 96.456C165.647 95.952 165.783 95.4667 165.783 95C165.783 94.6547 165.722 94.3327 165.601 94.034C165.489 93.7353 165.302 93.4973 165.041 93.32C164.779 93.1333 164.425 93.04 163.977 93.04C163.547 93.04 163.188 93.138 162.899 93.334C162.609 93.5207 162.39 93.7727 162.241 94.09C162.101 94.4073 162.031 94.748 162.031 95.112H160.897C160.897 94.468 161.032 93.9173 161.303 93.46C161.573 92.9933 161.942 92.6387 162.409 92.396C162.875 92.1533 163.403 92.032 163.991 92.032C164.859 92.032 165.568 92.2793 166.119 92.774C166.679 93.2593 166.959 93.9873 166.959 94.958C166.959 95.5367 166.814 96.1107 166.525 96.68C166.235 97.24 165.867 97.786 165.419 98.318C164.971 98.8407 164.49 99.3307 163.977 99.788C163.473 100.245 163.001 100.656 162.563 101.02H167.295V102H160.827ZM172.918 102V99.9H167.948V98.99L172.708 92.2H174.08V98.864H175.536V99.9H174.08V102H172.918ZM169.25 98.864H172.974V93.502L169.25 98.864Z" fill="black"/>
<path d="M149.781 93.8341C149.781 93.8266 149.78 93.8191 149.78 93.8116C149.779 93.8055 149.779 93.7994 149.778 93.7934C149.777 93.7863 149.776 93.7794 149.775 93.7724C149.773 93.7661 149.772 93.7598 149.771 93.7536C149.769 93.747 149.768 93.7405 149.766 93.734C149.764 93.7277 149.762 93.7214 149.76 93.7153C149.758 93.7089 149.756 93.7026 149.753 93.6964C149.751 93.6903 149.748 93.6843 149.746 93.6785C149.743 93.6723 149.74 93.6662 149.737 93.6602C149.734 93.6544 149.731 93.6486 149.728 93.643C149.725 93.6373 149.721 93.6316 149.718 93.626C149.714 93.6202 149.71 93.6146 149.706 93.609C149.703 93.6039 149.699 93.5988 149.695 93.5938C149.69 93.588 149.686 93.5825 149.681 93.577C149.679 93.5745 149.677 93.5718 149.674 93.5692C149.673 93.5671 149.67 93.5653 149.668 93.5632C149.663 93.5581 149.658 93.5531 149.653 93.5482C149.648 93.5437 149.644 93.5393 149.639 93.5351C149.634 93.5309 149.629 93.5269 149.624 93.5229C149.618 93.5186 149.613 93.5144 149.607 93.5105C149.602 93.507 149.597 93.5037 149.591 93.5004C149.585 93.4966 149.58 93.4929 149.574 93.4895C149.568 93.4864 149.562 93.4836 149.557 93.4807C149.551 93.4777 149.545 93.4747 149.539 93.4721C149.532 93.4693 149.526 93.4669 149.519 93.4644C149.514 93.4622 149.508 93.46 149.502 93.4581C149.495 93.4558 149.488 93.454 149.481 93.4521C149.476 93.4505 149.47 93.4489 149.464 93.4476C149.457 93.4461 149.45 93.4449 149.443 93.4436C149.437 93.4426 149.431 93.4416 149.425 93.4408C149.418 93.44 149.411 93.4395 149.404 93.439C149.398 93.4385 149.391 93.4381 149.384 93.4379C149.381 93.4379 149.378 93.4375 149.375 93.4375H139.625C139.622 93.4375 139.62 93.4379 139.617 93.4379C139.609 93.4381 139.602 93.4385 139.595 93.439C139.588 93.4395 139.582 93.44 139.576 93.4407C139.569 93.4416 139.563 93.4427 139.556 93.4438C139.549 93.4449 139.543 93.4461 139.536 93.4475C139.53 93.4489 139.524 93.4506 139.518 93.4523C139.511 93.4541 139.505 93.4559 139.498 93.458C139.492 93.46 139.486 93.4624 139.48 93.4647C139.474 93.467 139.468 93.4693 139.462 93.4719C139.455 93.4747 139.449 93.4779 139.443 93.481C139.437 93.4837 139.432 93.4864 139.427 93.4894C139.42 93.4929 139.414 93.4967 139.408 93.5006C139.403 93.5038 139.398 93.507 139.393 93.5104C139.387 93.5144 139.382 93.5187 139.376 93.523C139.371 93.5269 139.366 93.5309 139.361 93.535C139.356 93.5393 139.352 93.5437 139.347 93.5483C139.342 93.5531 139.337 93.5581 139.332 93.5632C139.33 93.5653 139.327 93.5671 139.326 93.5692C139.323 93.5718 139.321 93.5745 139.319 93.577C139.314 93.5825 139.31 93.588 139.305 93.5938C139.301 93.5988 139.297 93.6039 139.294 93.609C139.29 93.6146 139.286 93.6202 139.282 93.626C139.279 93.6316 139.275 93.6373 139.272 93.643C139.269 93.6486 139.266 93.6544 139.263 93.6602C139.26 93.6662 139.257 93.6723 139.254 93.6784C139.251 93.6843 139.249 93.6903 139.247 93.6964C139.244 93.7026 139.242 93.7089 139.24 93.7153C139.238 93.7214 139.236 93.7277 139.234 93.734C139.232 93.7405 139.231 93.747 139.229 93.7536C139.228 93.7598 139.227 93.7661 139.225 93.7724C139.224 93.7794 139.223 93.7863 139.222 93.7934C139.221 93.7994 139.221 93.8055 139.22 93.8116C139.22 93.8191 139.219 93.8266 139.219 93.8341C139.219 93.8373 139.219 93.8405 139.219 93.8438V100.75C139.219 100.965 139.305 101.172 139.457 101.324C139.609 101.477 139.816 101.562 140.031 101.562H148.969C149.184 101.562 149.391 101.477 149.543 101.324C149.695 101.172 149.781 100.965 149.781 100.75V93.8438C149.781 93.8405 149.781 93.8373 149.781 93.8341ZM148.331 94.25L144.5 97.7614L140.669 94.25H148.331ZM148.969 100.75H140.031V94.7673L144.225 98.612C144.3 98.6807 144.398 98.7188 144.5 98.7188C144.602 98.7188 144.7 98.6807 144.775 98.612L148.969 94.7672L148.969 100.75L148.969 100.75Z" fill="black"/>
<rect x="193" y="83" width="59" height="29" rx="14.5" fill="#E9EBED"/>
<rect x="193" y="83" width="59" height="29" rx="14.5" stroke="#D3D7DB"/>
<path d="M212.209 102.375V101.292C212.209 100.717 211.98 100.166 211.574 99.7596C211.168 99.3533 210.617 99.125 210.042 99.125H205.709C205.134 99.125 204.583 99.3533 204.177 99.7596C203.77 100.166 203.542 100.717 203.542 101.292V102.375" stroke="black" stroke-linecap="round" stroke-linejoin="round"/>
<path d="M207.875 96.9583C209.071 96.9583 210.041 95.9883 210.041 94.7917C210.041 93.595 209.071 92.625 207.875 92.625C206.678 92.625 205.708 93.595 205.708 94.7917C205.708 95.9883 206.678 96.9583 207.875 96.9583Z" stroke="black" stroke-linecap="round" stroke-linejoin="round"/>
<path d="M215.459 102.375V101.292C215.459 100.811 215.299 100.345 215.005 99.9657C214.711 99.5863 214.299 99.3153 213.834 99.1953" stroke="black" stroke-linecap="round" stroke-linejoin="round"/>
<path d="M211.666 92.6953C212.132 92.8146 212.545 93.0857 212.84 93.4657C213.135 93.8458 213.295 94.3132 213.295 94.7943C213.295 95.2754 213.135 95.7428 212.84 96.1228C212.545 96.5028 212.132 96.7739 211.666 96.8932" stroke="black" stroke-linecap="round" stroke-linejoin="round"/>
<path d="M225.27 102.168C224.654 102.168 224.127 102.047 223.688 101.804C223.249 101.561 222.899 101.239 222.638 100.838C222.386 100.427 222.232 99.9747 222.176 99.48H223.268C223.361 100.012 223.585 100.423 223.94 100.712C224.295 101.001 224.743 101.146 225.284 101.146C226.031 101.146 226.651 100.801 227.146 100.11C227.641 99.41 227.907 98.3227 227.944 96.848C227.72 97.2867 227.361 97.6693 226.866 97.996C226.381 98.3133 225.793 98.472 225.102 98.472C224.551 98.472 224.029 98.3413 223.534 98.08C223.039 97.8187 222.638 97.4547 222.33 96.988C222.022 96.512 221.868 95.9567 221.868 95.322C221.868 94.7713 222.003 94.244 222.274 93.74C222.554 93.236 222.946 92.8253 223.45 92.508C223.954 92.1907 224.556 92.032 225.256 92.032C225.965 92.032 226.563 92.1673 227.048 92.438C227.533 92.6993 227.921 93.054 228.21 93.502C228.509 93.95 228.723 94.454 228.854 95.014C228.994 95.5647 229.064 96.1293 229.064 96.708C229.064 97.7907 228.915 98.7427 228.616 99.564C228.317 100.376 227.883 101.015 227.314 101.482C226.754 101.939 226.073 102.168 225.27 102.168ZM225.34 97.45C225.779 97.45 226.171 97.352 226.516 97.156C226.861 96.9507 227.137 96.68 227.342 96.344C227.547 96.008 227.65 95.644 227.65 95.252C227.65 94.832 227.547 94.4587 227.342 94.132C227.137 93.796 226.861 93.5347 226.516 93.348C226.171 93.1613 225.779 93.068 225.34 93.068C224.901 93.068 224.509 93.1613 224.164 93.348C223.819 93.5347 223.548 93.796 223.352 94.132C223.156 94.4587 223.058 94.8367 223.058 95.266C223.058 95.9287 223.273 96.4607 223.702 96.862C224.141 97.254 224.687 97.45 225.34 97.45ZM233.394 102.168C232.769 102.168 232.204 102.056 231.7 101.832C231.196 101.599 230.79 101.253 230.482 100.796C230.183 100.339 230.025 99.7693 230.006 99.088H231.196C231.205 99.648 231.401 100.133 231.784 100.544C232.167 100.945 232.703 101.146 233.394 101.146C234.085 101.146 234.603 100.955 234.948 100.572C235.303 100.189 235.48 99.7273 235.48 99.186C235.48 98.7287 235.368 98.3553 235.144 98.066C234.929 97.7767 234.635 97.562 234.262 97.422C233.898 97.282 233.497 97.212 233.058 97.212H232.33V96.218H233.058C233.693 96.218 234.187 96.0733 234.542 95.784C234.906 95.4947 235.088 95.0887 235.088 94.566C235.088 94.1273 234.943 93.768 234.654 93.488C234.374 93.1987 233.954 93.054 233.394 93.054C232.853 93.054 232.419 93.2173 232.092 93.544C231.765 93.8613 231.583 94.2627 231.546 94.748H230.356C230.384 94.216 230.524 93.7447 230.776 93.334C231.037 92.9233 231.392 92.606 231.84 92.382C232.288 92.1487 232.806 92.032 233.394 92.032C234.029 92.032 234.556 92.144 234.976 92.368C235.405 92.592 235.727 92.8907 235.942 93.264C236.166 93.6373 236.278 94.048 236.278 94.496C236.278 94.9907 236.143 95.4433 235.872 95.854C235.601 96.2553 235.195 96.526 234.654 96.666C235.233 96.7873 235.713 97.0627 236.096 97.492C236.479 97.9213 236.67 98.486 236.67 99.186C236.67 99.7273 236.544 100.227 236.292 100.684C236.049 101.132 235.685 101.491 235.2 101.762C234.715 102.033 234.113 102.168 233.394 102.168Z" fill="black"/>
<rect x="24" y="83" width="101" height="29" rx="14.5" fill="#E9EBED"/>
<rect x="24" y="83" width="101" height="29" rx="14.5" stroke="#D3D7DB"/>
<path d="M52.882 102V101.174C53.5447 100.651 54.17 100.124 54.758 99.592C55.3553 99.0507 55.8827 98.5187 56.34 97.996C56.8067 97.4733 57.1707 96.96 57.432 96.456C57.7027 95.952 57.838 95.4667 57.838 95C57.838 94.6547 57.7773 94.3327 57.656 94.034C57.544 93.7353 57.3573 93.4973 57.096 93.32C56.8347 93.1333 56.48 93.04 56.032 93.04C55.6027 93.04 55.2433 93.138 54.954 93.334C54.6647 93.5207 54.4453 93.7727 54.296 94.09C54.156 94.4073 54.086 94.748 54.086 95.112H52.952C52.952 94.468 53.0873 93.9173 53.358 93.46C53.6287 92.9933 53.9973 92.6387 54.464 92.396C54.9307 92.1533 55.458 92.032 56.046 92.032C56.914 92.032 57.6233 92.2793 58.174 92.774C58.734 93.2593 59.014 93.9873 59.014 94.958C59.014 95.5367 58.8693 96.1107 58.58 96.68C58.2907 97.24 57.922 97.786 57.474 98.318C57.026 98.8407 56.5453 99.3307 56.032 99.788C55.528 100.245 55.0567 100.656 54.618 101.02H59.35V102H52.882ZM60.6137 102V101.174C61.2764 100.651 61.9017 100.124 62.4897 99.592C63.0871 99.0507 63.6144 98.5187 64.0717 97.996C64.5384 97.4733 64.9024 96.96 65.1637 96.456C65.4344 95.952 65.5697 95.4667 65.5697 95C65.5697 94.6547 65.5091 94.3327 65.3877 94.034C65.2757 93.7353 65.0891 93.4973 64.8277 93.32C64.5664 93.1333 64.2117 93.04 63.7637 93.04C63.3344 93.04 62.9751 93.138 62.6857 93.334C62.3964 93.5207 62.1771 93.7727 62.0277 94.09C61.8877 94.4073 61.8177 94.748 61.8177 95.112H60.6837C60.6837 94.468 60.8191 93.9173 61.0897 93.46C61.3604 92.9933 61.7291 92.6387 62.1957 92.396C62.6624 92.1533 63.1897 92.032 63.7777 92.032C64.6457 92.032 65.3551 92.2793 65.9057 92.774C66.4657 93.2593 66.7457 93.9873 66.7457 94.958C66.7457 95.5367 66.6011 96.1107 66.3117 96.68C66.0224 97.24 65.6537 97.786 65.2057 98.318C64.7577 98.8407 64.2771 99.3307 63.7637 99.788C63.2597 100.245 62.7884 100.656 62.3497 101.02H67.0817V102H60.6137ZM67.8554 103.33L71.3694 91.304H72.5314L69.0174 103.33H67.8554ZM77.2367 102.168C76.3687 102.168 75.6174 101.958 74.9827 101.538C74.3574 101.109 73.8767 100.516 73.5407 99.76C73.2047 98.9947 73.0367 98.108 73.0367 97.1C73.0367 96.092 73.2047 95.21 73.5407 94.454C73.8767 93.6887 74.3574 93.096 74.9827 92.676C75.6174 92.2467 76.3687 92.032 77.2367 92.032C78.1048 92.032 78.8514 92.2467 79.4768 92.676C80.1021 93.096 80.5827 93.6887 80.9188 94.454C81.2548 95.21 81.4228 96.092 81.4228 97.1C81.4228 98.108 81.2548 98.9947 80.9188 99.76C80.5827 100.516 80.1021 101.109 79.4768 101.538C78.8514 101.958 78.1048 102.168 77.2367 102.168ZM77.2367 101.132C77.8061 101.132 78.3148 100.973 78.7628 100.656C79.2201 100.329 79.5747 99.8673 79.8267 99.27C80.0881 98.6633 80.2187 97.94 80.2187 97.1C80.2187 96.26 80.0881 95.5413 79.8267 94.944C79.5747 94.3467 79.2201 93.8893 78.7628 93.572C78.3148 93.2453 77.8061 93.082 77.2367 93.082C76.6581 93.082 76.1448 93.2453 75.6968 93.572C75.2488 93.8893 74.8941 94.3467 74.6328 94.944C74.3714 95.5413 74.2407 96.26 74.2407 97.1C74.2407 97.94 74.3714 98.6633 74.6328 99.27C74.8941 99.8673 75.2488 100.329 75.6968 100.656C76.1448 100.973 76.6581 101.132 77.2367 101.132ZM86.0758 102.168C85.4598 102.168 84.9324 102.047 84.4938 101.804C84.0551 101.561 83.7051 101.239 83.4438 100.838C83.1918 100.427 83.0378 99.9747 82.9818 99.48H84.0738C84.1671 100.012 84.3911 100.423 84.7458 100.712C85.1004 101.001 85.5484 101.146 86.0898 101.146C86.8364 101.146 87.4571 100.801 87.9518 100.11C88.4464 99.41 88.7124 98.3227 88.7498 96.848C88.5258 97.2867 88.1664 97.6693 87.6718 97.996C87.1864 98.3133 86.5984 98.472 85.9078 98.472C85.3571 98.472 84.8344 98.3413 84.3398 98.08C83.8451 97.8187 83.4438 97.4547 83.1358 96.988C82.8278 96.512 82.6738 95.9567 82.6738 95.322C82.6738 94.7713 82.8091 94.244 83.0798 93.74C83.3598 93.236 83.7518 92.8253 84.2558 92.508C84.7598 92.1907 85.3618 92.032 86.0618 92.032C86.7711 92.032 87.3684 92.1673 87.8538 92.438C88.3391 92.6993 88.7264 93.054 89.0158 93.502C89.3144 93.95 89.5291 94.454 89.6598 95.014C89.7998 95.5647 89.8698 96.1293 89.8698 96.708C89.8698 97.7907 89.7204 98.7427 89.4218 99.564C89.1231 100.376 88.6891 101.015 88.1198 101.482C87.5598 101.939 86.8784 102.168 86.0758 102.168ZM86.1458 97.45C86.5844 97.45 86.9764 97.352 87.3218 97.156C87.6671 96.9507 87.9424 96.68 88.1478 96.344C88.3531 96.008 88.4558 95.644 88.4558 95.252C88.4558 94.832 88.3531 94.4587 88.1478 94.132C87.9424 93.796 87.6671 93.5347 87.3218 93.348C86.9764 93.1613 86.5844 93.068 86.1458 93.068C85.7071 93.068 85.3151 93.1613 84.9698 93.348C84.6244 93.5347 84.3538 93.796 84.1578 94.132C83.9618 94.4587 83.8638 94.8367 83.8638 95.266C83.8638 95.9287 84.0784 96.4607 84.5078 96.862C84.9464 97.254 85.4924 97.45 86.1458 97.45ZM90.0389 103.33L93.5529 91.304H94.7149L91.2009 103.33H90.0389ZM95.7176 102V101.174C96.3803 100.651 97.0056 100.124 97.5936 99.592C98.191 99.0507 98.7183 98.5187 99.1756 97.996C99.6423 97.4733 100.006 96.96 100.268 96.456C100.538 95.952 100.674 95.4667 100.674 95C100.674 94.6547 100.613 94.3327 100.492 94.034C100.38 93.7353 100.193 93.4973 99.9316 93.32C99.6703 93.1333 99.3156 93.04 98.8676 93.04C98.4383 93.04 98.079 93.138 97.7896 93.334C97.5003 93.5207 97.281 93.7727 97.1316 94.09C96.9916 94.4073 96.9216 94.748 96.9216 95.112H95.7876C95.7876 94.468 95.923 93.9173 96.1936 93.46C96.4643 92.9933 96.833 92.6387 97.2996 92.396C97.7663 92.1533 98.2936 92.032 98.8816 92.032C99.7496 92.032 100.459 92.2793 101.01 92.774C101.57 93.2593 101.85 93.9873 101.85 94.958C101.85 95.5367 101.705 96.1107 101.416 96.68C101.126 97.24 100.758 97.786 100.31 98.318C99.8616 98.8407 99.381 99.3307 98.8676 99.788C98.3636 100.245 97.8923 100.656 97.4536 101.02H102.186V102H95.7176ZM103.449 102V101.174C104.112 100.651 104.737 100.124 105.325 99.592C105.923 99.0507 106.45 98.5187 106.907 97.996C107.374 97.4733 107.738 96.96 107.999 96.456C108.27 95.952 108.405 95.4667 108.405 95C108.405 94.6547 108.345 94.3327 108.223 94.034C108.111 93.7353 107.925 93.4973 107.663 93.32C107.402 93.1333 107.047 93.04 106.599 93.04C106.17 93.04 105.811 93.138 105.521 93.334C105.232 93.5207 105.013 93.7727 104.863 94.09C104.723 94.4073 104.653 94.748 104.653 95.112H103.519C103.519 94.468 103.655 93.9173 103.925 93.46C104.196 92.9933 104.565 92.6387 105.031 92.396C105.498 92.1533 106.025 92.032 106.613 92.032C107.481 92.032 108.191 92.2793 108.741 92.774C109.301 93.2593 109.581 93.9873 109.581 94.958C109.581 95.5367 109.437 96.1107 109.147 96.68C108.858 97.24 108.489 97.786 108.041 98.318C107.593 98.8407 107.113 99.3307 106.599 99.788C106.095 100.245 105.624 100.656 105.185 101.02H109.917V102H103.449Z" fill="black"/>
<path d="M44.2917 93.167H36.7083C36.11 93.167 35.625 93.652 35.625 94.2503V101.834C35.625 102.432 36.11 102.917 36.7083 102.917H44.2917C44.89 102.917 45.375 102.432 45.375 101.834V94.2503C45.375 93.652 44.89 93.167 44.2917 93.167Z" stroke="black" stroke-linecap="round" stroke-linejoin="round"/>
<path d="M42.6665 92.083V94.2497" stroke="black" stroke-linecap="round" stroke-linejoin="round"/>
<path d="M38.3335 92.083V94.2497" stroke="black" stroke-linecap="round" stroke-linejoin="round"/>
<path d="M35.625 96.417H45.375" stroke="black" stroke-linecap="round" stroke-linejoin="round"/>
<rect x="255" y="83" width="65" height="29" rx="14.5" fill="#E9EBED"/>
<rect x="255" y="83" width="65" height="29" rx="14.5" stroke="#D3D7DB"/>
<path fill-rule="evenodd" clip-rule="evenodd" d="M274.955 94.0485C274.037 93.1312 272.819 92.625 271.521 92.625C268.845 92.625 266.666 94.8022 266.666 97.4778C266.665 98.3331 266.888 99.1678 267.314 99.9042L266.625 102.419L269.199 101.743C269.907 102.131 270.707 102.334 271.519 102.335H271.521C274.196 102.335 276.373 100.158 276.375 97.481C276.375 96.1844 275.87 94.9657 274.955 94.0485ZM271.521 101.515H271.519C270.795 101.515 270.084 101.32 269.466 100.953L269.318 100.866L267.79 101.266L268.198 99.7772L268.102 99.6249C267.698 98.9822 267.485 98.2395 267.485 97.4778C267.485 95.2545 269.296 93.4454 271.522 93.4454C272.6 93.4454 273.612 93.866 274.374 94.6277C275.136 95.391 275.555 96.4034 275.555 97.481C275.555 99.7058 273.744 101.515 271.521 101.515ZM273.733 98.4934C273.612 98.4331 273.016 98.1395 272.904 98.0999C272.793 98.0586 272.712 98.0396 272.631 98.1602C272.551 98.2823 272.319 98.5553 272.247 98.6362C272.178 98.7156 272.106 98.7267 271.986 98.6664C271.863 98.6061 271.473 98.4775 271.01 98.0634C270.649 97.7428 270.405 97.3445 270.335 97.2239C270.264 97.1017 270.327 97.0366 270.388 96.9763C270.443 96.9224 270.51 96.8351 270.57 96.7637C270.63 96.6938 270.651 96.6431 270.692 96.5621C270.732 96.4812 270.711 96.4098 270.681 96.3495C270.651 96.2892 270.408 95.6909 270.307 95.4481C270.208 95.2117 270.108 95.245 270.034 95.2402C269.964 95.2371 269.883 95.2371 269.802 95.2371C269.721 95.2371 269.589 95.2672 269.478 95.3894C269.367 95.51 269.055 95.8036 269.055 96.4003C269.055 96.9969 269.489 97.5746 269.55 97.6555C269.61 97.7349 270.405 98.96 271.622 99.4852C271.911 99.6106 272.136 99.6852 272.312 99.7407C272.603 99.8328 272.868 99.8201 273.077 99.7899C273.311 99.755 273.795 99.4963 273.896 99.2123C273.996 98.9298 273.996 98.687 273.966 98.6362C273.936 98.5854 273.855 98.5553 273.733 98.4934Z" fill="black"/>
<path d="M292.375 97.2292C292.377 97.9441 292.21 98.6494 291.887 99.2875C291.505 100.052 290.918 100.695 290.191 101.145C289.464 101.595 288.626 101.833 287.771 101.833C287.056 101.835 286.351 101.668 285.712 101.346L282.625 102.375L283.654 99.2875C283.332 98.6494 283.165 97.9441 283.167 97.2292C283.167 96.3743 283.405 95.5364 283.855 94.8093C284.305 94.0822 284.948 93.4947 285.712 93.1125C286.351 92.7902 287.056 92.6232 287.771 92.625H288.042C289.171 92.6873 290.237 93.1638 291.037 93.9634C291.836 94.763 292.313 95.8293 292.375 96.9583V97.2292Z" stroke="black" stroke-width="0.845" stroke-linecap="round" stroke-linejoin="round"/>
<path d="M303.5 92.2188C302.583 92.219 301.681 92.4581 300.884 92.9125C300.088 93.3669 299.423 94.021 298.956 94.8104C298.488 95.5997 298.235 96.4972 298.219 97.4143C298.204 98.3315 298.428 99.2368 298.869 100.041L298.435 101.56C298.395 101.7 298.394 101.847 298.43 101.987C298.466 102.128 298.54 102.256 298.642 102.358C298.744 102.46 298.872 102.534 299.013 102.57C299.153 102.606 299.3 102.605 299.44 102.565L300.959 102.131C301.665 102.518 302.45 102.739 303.254 102.776C304.059 102.814 304.861 102.667 305.6 102.346C306.339 102.026 306.995 101.541 307.517 100.929C308.04 100.316 308.416 99.5921 308.616 98.812C308.816 98.032 308.835 97.2165 308.671 96.428C308.508 95.6395 308.166 94.8988 307.672 94.2626C307.179 93.6264 306.546 93.1115 305.823 92.7572C305.1 92.403 304.305 92.2188 303.5 92.2188ZM303.5 101.969C302.697 101.969 301.91 101.753 301.22 101.344C301.172 101.316 301.119 101.297 301.064 101.29C301.009 101.283 300.953 101.287 300.9 101.302L299.217 101.783L299.698 100.1C299.713 100.047 299.717 99.9908 299.71 99.9359C299.703 99.881 299.684 99.8281 299.656 99.7805C299.153 98.9325 298.944 97.9419 299.062 96.9629C299.181 95.9839 299.62 95.0715 300.311 94.3679C301.002 93.6643 301.906 93.209 302.883 93.0729C303.859 92.9368 304.854 93.1275 305.711 93.6154C306.568 94.1032 307.239 94.8608 307.621 95.7702C308.002 96.6795 308.072 97.6895 307.82 98.6428C307.568 99.5961 307.007 100.439 306.226 101.041C305.445 101.642 304.486 101.969 303.5 101.969ZM306.225 96.4002C306.262 96.438 306.292 96.4827 306.313 96.532C306.333 96.5813 306.344 96.6342 306.344 96.6875C306.344 96.7408 306.333 96.7937 306.313 96.843C306.292 96.8923 306.262 96.937 306.225 96.9748L304.6 98.5998C304.562 98.6375 304.517 98.6674 304.468 98.6878C304.419 98.7082 304.366 98.7188 304.313 98.7188C304.259 98.7188 304.206 98.7082 304.157 98.6878C304.108 98.6674 304.063 98.6375 304.025 98.5998L302.688 97.262L301.35 98.5998C301.312 98.6375 301.267 98.6675 301.218 98.6879C301.169 98.7084 301.116 98.7189 301.062 98.7189C301.009 98.7189 300.956 98.7084 300.907 98.688C300.858 98.6676 300.813 98.6377 300.775 98.5999C300.737 98.5622 300.707 98.5174 300.687 98.4681C300.667 98.4188 300.656 98.3659 300.656 98.3126C300.656 98.2592 300.667 98.2063 300.687 98.157C300.708 98.1077 300.737 98.063 300.775 98.0252L302.4 96.4002C302.476 96.3241 302.58 96.2813 302.688 96.2813C302.795 96.2813 302.899 96.3241 302.975 96.4002L304.313 97.738L305.65 96.4002C305.726 96.3241 305.83 96.2813 305.938 96.2813C306.045 96.2813 306.149 96.3241 306.225 96.4002V96.4002Z" fill="black"/>
<defs>
<filter id="filter0_d_152_3778" x="-2" y="0" width="379" height="144" filterUnits="userSpaceOnUse" color-interpolation-filters="sRGB">
<feFlood flood-opacity="0" result="BackgroundImageFix"/>
<feColorMatrix in="SourceAlpha" type="matrix" values="0 0 0 0 0 0 0 0 0 0 0 0 0 0 0 0 0 0 127 0" result="hardAlpha"/>
<feOffset/>
<feGaussianBlur stdDeviation="7"/>
<feComposite in2="hardAlpha" operator="out"/>
<feColorMatrix type="matrix" values="0 0 0 0 0.27106 0 0 0 0 0.291722 0 0 0 0 0.320993 0 0 0 0.12 0"/>
<feBlend mode="normal" in2="BackgroundImageFix" result="effect1_dropShadow_152_3778"/>
<feBlend mode="normal" in="SourceGraphic" in2="effect1_dropShadow_152_3778" result="shape"/>
</filter>
</defs>
</svg>
