<svg width="375" height="144" viewBox="0 0 375 144" fill="none" xmlns="http://www.w3.org/2000/svg">
<g filter="url(#filter0_d_152_3852)">
<rect x="12" y="14" width="351" height="116" rx="14" fill="white"/>
<rect x="12.5" y="14.5" width="350" height="115" rx="13.5" stroke="#D3D7DB"/>
</g>
<path d="M332 53L338 47L332 41" stroke="#1F3758" stroke-width="2" stroke-linecap="round" stroke-linejoin="round"/>
<path d="M73.912 52V50.784C74.6373 50.208 75.3307 49.6267 75.992 49.04C76.6533 48.4533 77.24 47.8773 77.752 47.312C78.2747 46.736 78.6853 46.176 78.984 45.632C79.2827 45.0773 79.432 44.544 79.432 44.032C79.432 43.6907 79.3733 43.3707 79.256 43.072C79.1387 42.7627 78.9467 42.5173 78.68 42.336C78.4133 42.144 78.056 42.048 77.608 42.048C76.936 42.048 76.4293 42.2613 76.088 42.688C75.7573 43.1147 75.5973 43.6267 75.608 44.224H73.96C73.9707 43.4347 74.136 42.7733 74.456 42.24C74.7867 41.7067 75.224 41.3013 75.768 41.024C76.3227 40.7467 76.9467 40.608 77.64 40.608C78.696 40.608 79.5387 40.9067 80.168 41.504C80.808 42.0907 81.128 42.912 81.128 43.968C81.128 44.5973 80.9733 45.2213 80.664 45.84C80.3653 46.4587 79.9707 47.056 79.48 47.632C79 48.1973 78.4827 48.7307 77.928 49.232C77.3733 49.7333 76.8453 50.1867 76.344 50.592H81.464V52H73.912ZM87.3273 52.192C86.3139 52.192 85.4393 51.952 84.7033 51.472C83.9779 50.9813 83.4179 50.304 83.0233 49.44C82.6393 48.5653 82.4473 47.552 82.4473 46.4C82.4473 45.248 82.6393 44.24 83.0233 43.376C83.4179 42.5013 83.9779 41.824 84.7033 41.344C85.4393 40.8533 86.3139 40.608 87.3273 40.608C88.3406 40.608 89.2099 40.8533 89.9353 41.344C90.6606 41.824 91.2153 42.5013 91.5993 43.376C91.9939 44.24 92.1913 45.248 92.1913 46.4C92.1913 47.552 91.9939 48.5653 91.5993 49.44C91.2153 50.304 90.6606 50.9813 89.9353 51.472C89.2099 51.952 88.3406 52.192 87.3273 52.192ZM87.3273 50.672C87.9353 50.672 88.4739 50.5013 88.9433 50.16C89.4233 49.8187 89.7966 49.328 90.0633 48.688C90.3299 48.048 90.4633 47.2853 90.4633 46.4C90.4633 45.5147 90.3299 44.752 90.0633 44.112C89.7966 43.472 89.4233 42.9813 88.9433 42.64C88.4739 42.2987 87.9353 42.128 87.3273 42.128C86.7086 42.128 86.1646 42.2987 85.6953 42.64C85.2259 42.9813 84.8579 43.472 84.5913 44.112C84.3246 44.752 84.1913 45.5147 84.1913 46.4C84.1913 47.2853 84.3246 48.048 84.5913 48.688C84.8579 49.328 85.2259 49.8187 85.6953 50.16C86.1646 50.5013 86.7086 50.672 87.3273 50.672ZM93.4126 52V50.784C94.138 50.208 94.8313 49.6267 95.4926 49.04C96.154 48.4533 96.7406 47.8773 97.2526 47.312C97.7753 46.736 98.186 46.176 98.4846 45.632C98.7833 45.0773 98.9326 44.544 98.9326 44.032C98.9326 43.6907 98.874 43.3707 98.7566 43.072C98.6393 42.7627 98.4473 42.5173 98.1806 42.336C97.914 42.144 97.5566 42.048 97.1086 42.048C96.4366 42.048 95.93 42.2613 95.5886 42.688C95.258 43.1147 95.098 43.6267 95.1086 44.224H93.4606C93.4713 43.4347 93.6366 42.7733 93.9566 42.24C94.2873 41.7067 94.7246 41.3013 95.2686 41.024C95.8233 40.7467 96.4473 40.608 97.1406 40.608C98.1966 40.608 99.0393 40.9067 99.6686 41.504C100.309 42.0907 100.629 42.912 100.629 43.968C100.629 44.5973 100.474 45.2213 100.165 45.84C99.866 46.4587 99.4713 47.056 98.9806 47.632C98.5006 48.1973 97.9833 48.7307 97.4286 49.232C96.874 49.7333 96.346 50.1867 95.8446 50.592H100.965V52H93.4126ZM102.249 52V50.784C102.974 50.208 103.668 49.6267 104.329 49.04C104.99 48.4533 105.577 47.8773 106.089 47.312C106.612 46.736 107.022 46.176 107.321 45.632C107.62 45.0773 107.769 44.544 107.769 44.032C107.769 43.6907 107.71 43.3707 107.593 43.072C107.476 42.7627 107.284 42.5173 107.017 42.336C106.75 42.144 106.393 42.048 105.945 42.048C105.273 42.048 104.766 42.2613 104.425 42.688C104.094 43.1147 103.934 43.6267 103.945 44.224H102.297C102.308 43.4347 102.473 42.7733 102.793 42.24C103.124 41.7067 103.561 41.3013 104.105 41.024C104.66 40.7467 105.284 40.608 105.977 40.608C107.033 40.608 107.876 40.9067 108.505 41.504C109.145 42.0907 109.465 42.912 109.465 43.968C109.465 44.5973 109.31 45.2213 109.001 45.84C108.702 46.4587 108.308 47.056 107.817 47.632C107.337 48.1973 106.82 48.7307 106.265 49.232C105.71 49.7333 105.182 50.1867 104.681 50.592H109.801V52H102.249ZM118.124 52.192C117.122 52.192 116.295 51.9467 115.644 51.456C114.994 50.9653 114.62 50.3147 114.524 49.504H116.236C116.322 49.8667 116.524 50.1813 116.844 50.448C117.164 50.704 117.586 50.832 118.108 50.832C118.62 50.832 118.994 50.7253 119.228 50.512C119.463 50.2987 119.58 50.0533 119.58 49.776C119.58 49.3707 119.415 49.0987 119.084 48.96C118.764 48.8107 118.316 48.6773 117.74 48.56C117.292 48.464 116.844 48.336 116.396 48.176C115.959 48.016 115.591 47.792 115.292 47.504C115.004 47.2053 114.86 46.8053 114.86 46.304C114.86 45.6107 115.127 45.0347 115.66 44.576C116.194 44.1067 116.94 43.872 117.9 43.872C118.786 43.872 119.5 44.0853 120.044 44.512C120.599 44.9387 120.924 45.5413 121.02 46.32H119.388C119.335 45.9787 119.175 45.712 118.908 45.52C118.652 45.328 118.306 45.232 117.868 45.232C117.442 45.232 117.111 45.3227 116.876 45.504C116.642 45.6747 116.524 45.8987 116.524 46.176C116.524 46.4533 116.684 46.672 117.004 46.832C117.335 46.992 117.767 47.136 118.3 47.264C118.834 47.3813 119.324 47.52 119.772 47.68C120.231 47.8293 120.599 48.0533 120.876 48.352C121.154 48.6507 121.292 49.088 121.292 49.664C121.303 50.3893 121.02 50.992 120.444 51.472C119.879 51.952 119.106 52.192 118.124 52.192ZM125.512 52.192C124.84 52.192 124.285 52.08 123.848 51.856C123.411 51.632 123.085 51.3387 122.872 50.976C122.659 50.6027 122.552 50.1973 122.552 49.76C122.552 48.992 122.851 48.384 123.448 47.936C124.045 47.488 124.899 47.264 126.008 47.264H128.088V47.12C128.088 46.5013 127.917 46.0373 127.576 45.728C127.245 45.4187 126.813 45.264 126.28 45.264C125.811 45.264 125.4 45.3813 125.048 45.616C124.707 45.84 124.499 46.176 124.424 46.624H122.728C122.781 46.048 122.973 45.5573 123.304 45.152C123.645 44.736 124.072 44.4213 124.584 44.208C125.107 43.984 125.677 43.872 126.296 43.872C127.405 43.872 128.264 44.1653 128.872 44.752C129.48 45.328 129.784 46.1173 129.784 47.12V52H128.312L128.168 50.64C127.944 51.0773 127.619 51.4453 127.192 51.744C126.765 52.0427 126.205 52.192 125.512 52.192ZM125.848 50.816C126.307 50.816 126.691 50.7093 127 50.496C127.32 50.272 127.565 49.9787 127.736 49.616C127.917 49.2533 128.029 48.8533 128.072 48.416H126.184C125.512 48.416 125.032 48.5333 124.744 48.768C124.467 49.0027 124.328 49.296 124.328 49.648C124.328 50.0107 124.461 50.2987 124.728 50.512C125.005 50.7147 125.379 50.816 125.848 50.816ZM131.441 52V40.48H133.137V52H131.441ZM138.677 52.192C137.898 52.192 137.205 52.0213 136.597 51.68C136 51.328 135.53 50.8427 135.189 50.224C134.848 49.6053 134.677 48.8853 134.677 48.064C134.677 47.232 134.842 46.5013 135.173 45.872C135.514 45.2427 135.984 44.752 136.581 44.4C137.189 44.048 137.893 43.872 138.693 43.872C139.472 43.872 140.149 44.048 140.725 44.4C141.301 44.7413 141.749 45.2 142.069 45.776C142.389 46.352 142.549 46.9867 142.549 47.68C142.549 47.7867 142.544 47.904 142.533 48.032C142.533 48.1493 142.528 48.2827 142.517 48.432H136.341C136.394 49.2 136.645 49.7867 137.093 50.192C137.552 50.5867 138.08 50.784 138.677 50.784C139.157 50.784 139.557 50.6773 139.877 50.464C140.208 50.24 140.453 49.9413 140.613 49.568H142.309C142.096 50.3147 141.669 50.9387 141.029 51.44C140.4 51.9413 139.616 52.192 138.677 52.192ZM138.677 45.264C138.112 45.264 137.61 45.4347 137.173 45.776C136.736 46.1067 136.469 46.608 136.373 47.28H140.853C140.821 46.6613 140.602 46.1707 140.197 45.808C139.792 45.4453 139.285 45.264 138.677 45.264ZM151.46 52.192C150.681 52.192 149.983 52.016 149.364 51.664C148.756 51.312 148.276 50.8267 147.924 50.208C147.583 49.5787 147.412 48.8533 147.412 48.032C147.412 47.2107 147.583 46.4907 147.924 45.872C148.276 45.2427 148.756 44.752 149.364 44.4C149.983 44.048 150.681 43.872 151.46 43.872C152.441 43.872 153.263 44.128 153.924 44.64C154.596 45.152 155.028 45.8453 155.22 46.72H153.444C153.337 46.2827 153.103 45.9413 152.74 45.696C152.377 45.4507 151.951 45.328 151.46 45.328C151.044 45.328 150.66 45.4347 150.308 45.648C149.956 45.8507 149.673 46.1547 149.46 46.56C149.247 46.9547 149.14 47.4453 149.14 48.032C149.14 48.6187 149.247 49.1147 149.46 49.52C149.673 49.9147 149.956 50.2187 150.308 50.432C150.66 50.6453 151.044 50.752 151.46 50.752C151.951 50.752 152.377 50.6293 152.74 50.384C153.103 50.1387 153.337 49.792 153.444 49.344H155.22C155.039 50.1973 154.612 50.8853 153.94 51.408C153.268 51.9307 152.441 52.192 151.46 52.192ZM159.428 52.192C158.756 52.192 158.201 52.08 157.764 51.856C157.326 51.632 157.001 51.3387 156.788 50.976C156.574 50.6027 156.468 50.1973 156.468 49.76C156.468 48.992 156.766 48.384 157.364 47.936C157.961 47.488 158.814 47.264 159.924 47.264H162.004V47.12C162.004 46.5013 161.833 46.0373 161.492 45.728C161.161 45.4187 160.729 45.264 160.196 45.264C159.726 45.264 159.316 45.3813 158.964 45.616C158.622 45.84 158.414 46.176 158.34 46.624H156.644C156.697 46.048 156.889 45.5573 157.22 45.152C157.561 44.736 157.988 44.4213 158.5 44.208C159.022 43.984 159.593 43.872 160.212 43.872C161.321 43.872 162.18 44.1653 162.788 44.752C163.396 45.328 163.7 46.1173 163.7 47.12V52H162.228L162.084 50.64C161.86 51.0773 161.534 51.4453 161.108 51.744C160.681 52.0427 160.121 52.192 159.428 52.192ZM159.764 50.816C160.222 50.816 160.606 50.7093 160.916 50.496C161.236 50.272 161.481 49.9787 161.652 49.616C161.833 49.2533 161.945 48.8533 161.988 48.416H160.1C159.428 48.416 158.948 48.5333 158.66 48.768C158.382 49.0027 158.244 49.296 158.244 49.648C158.244 50.0107 158.377 50.2987 158.644 50.512C158.921 50.7147 159.294 50.816 159.764 50.816ZM165.357 52V44.064H166.861L167.005 45.184C167.261 44.7787 167.597 44.4587 168.013 44.224C168.44 43.9893 168.93 43.872 169.485 43.872C170.744 43.872 171.618 44.368 172.109 45.36C172.397 44.9013 172.781 44.5387 173.261 44.272C173.752 44.0053 174.28 43.872 174.845 43.872C175.837 43.872 176.616 44.1707 177.181 44.768C177.746 45.3653 178.029 46.256 178.029 47.44V52H176.333V47.616C176.333 46.08 175.746 45.312 174.573 45.312C173.976 45.312 173.485 45.536 173.101 45.984C172.728 46.432 172.541 47.072 172.541 47.904V52H170.845V47.616C170.845 46.08 170.253 45.312 169.069 45.312C168.482 45.312 167.997 45.536 167.613 45.984C167.24 46.432 167.053 47.072 167.053 47.904V52H165.357ZM179.693 55.52V44.064H181.213L181.389 45.296C181.645 44.9227 181.997 44.592 182.445 44.304C182.893 44.016 183.469 43.872 184.173 43.872C184.941 43.872 185.619 44.0533 186.205 44.416C186.792 44.7787 187.251 45.2747 187.581 45.904C187.923 46.5333 188.093 47.248 188.093 48.048C188.093 48.848 187.923 49.5627 187.581 50.192C187.251 50.8107 186.792 51.3013 186.205 51.664C185.619 52.016 184.936 52.192 184.157 52.192C183.539 52.192 182.989 52.0693 182.509 51.824C182.04 51.5787 181.667 51.232 181.389 50.784V55.52H179.693ZM183.869 50.72C184.595 50.72 185.192 50.4747 185.661 49.984C186.131 49.4827 186.365 48.832 186.365 48.032C186.365 47.5093 186.259 47.0453 186.045 46.64C185.832 46.2347 185.539 45.92 185.165 45.696C184.792 45.4613 184.36 45.344 183.869 45.344C183.144 45.344 182.547 45.5947 182.077 46.096C181.619 46.5973 181.389 47.2427 181.389 48.032C181.389 48.832 181.619 49.4827 182.077 49.984C182.547 50.4747 183.144 50.72 183.869 50.72ZM192.296 52.192C191.624 52.192 191.069 52.08 190.632 51.856C190.194 51.632 189.869 51.3387 189.656 50.976C189.442 50.6027 189.336 50.1973 189.336 49.76C189.336 48.992 189.634 48.384 190.232 47.936C190.829 47.488 191.682 47.264 192.792 47.264H194.872V47.12C194.872 46.5013 194.701 46.0373 194.36 45.728C194.029 45.4187 193.597 45.264 193.064 45.264C192.594 45.264 192.184 45.3813 191.832 45.616C191.49 45.84 191.282 46.176 191.208 46.624H189.512C189.565 46.048 189.757 45.5573 190.088 45.152C190.429 44.736 190.856 44.4213 191.368 44.208C191.89 43.984 192.461 43.872 193.08 43.872C194.189 43.872 195.048 44.1653 195.656 44.752C196.264 45.328 196.568 46.1173 196.568 47.12V52H195.096L194.952 50.64C194.728 51.0773 194.402 51.4453 193.976 51.744C193.549 52.0427 192.989 52.192 192.296 52.192ZM192.632 50.816C193.09 50.816 193.474 50.7093 193.784 50.496C194.104 50.272 194.349 49.9787 194.52 49.616C194.701 49.2533 194.813 48.8533 194.856 48.416H192.968C192.296 48.416 191.816 48.5333 191.528 48.768C191.25 49.0027 191.112 49.296 191.112 49.648C191.112 50.0107 191.245 50.2987 191.512 50.512C191.789 50.7147 192.162 50.816 192.632 50.816ZM199.185 42.56C198.865 42.56 198.598 42.464 198.385 42.272C198.182 42.0693 198.081 41.8187 198.081 41.52C198.081 41.2213 198.182 40.976 198.385 40.784C198.598 40.5813 198.865 40.48 199.185 40.48C199.505 40.48 199.766 40.5813 199.969 40.784C200.182 40.976 200.289 41.2213 200.289 41.52C200.289 41.8187 200.182 42.0693 199.969 42.272C199.766 42.464 199.505 42.56 199.185 42.56ZM198.337 52V44.064H200.033V52H198.337ZM205.2 49.568C204.784 49.568 204.4 49.52 204.048 49.424L203.36 50.096C203.477 50.1707 203.621 50.2347 203.792 50.288C203.963 50.3413 204.203 50.3893 204.512 50.432C204.821 50.4747 205.243 50.5173 205.776 50.56C206.832 50.656 207.595 50.912 208.064 51.328C208.533 51.7333 208.768 52.2773 208.768 52.96C208.768 53.4293 208.64 53.872 208.384 54.288C208.139 54.7147 207.749 55.056 207.216 55.312C206.693 55.5787 206.021 55.712 205.2 55.712C204.091 55.712 203.189 55.4987 202.496 55.072C201.813 54.656 201.472 54.0213 201.472 53.168C201.472 52.8373 201.557 52.5067 201.728 52.176C201.909 51.856 202.192 51.552 202.576 51.264C202.352 51.168 202.155 51.0667 201.984 50.96C201.824 50.8427 201.68 50.7253 201.552 50.608V50.224L202.928 48.816C202.309 48.2827 202 47.584 202 46.72C202 46.1973 202.123 45.7227 202.368 45.296C202.624 44.8587 202.992 44.512 203.472 44.256C203.952 44 204.528 43.872 205.2 43.872C205.648 43.872 206.064 43.936 206.448 44.064H209.408V45.184L208 45.264C208.256 45.7013 208.384 46.1867 208.384 46.72C208.384 47.2533 208.256 47.7333 208 48.16C207.755 48.5867 207.392 48.928 206.912 49.184C206.443 49.44 205.872 49.568 205.2 49.568ZM205.2 48.24C205.691 48.24 206.085 48.112 206.384 47.856C206.693 47.5893 206.848 47.216 206.848 46.736C206.848 46.2453 206.693 45.872 206.384 45.616C206.085 45.36 205.691 45.232 205.2 45.232C204.699 45.232 204.293 45.36 203.984 45.616C203.685 45.872 203.536 46.2453 203.536 46.736C203.536 47.216 203.685 47.5893 203.984 47.856C204.293 48.112 204.699 48.24 205.2 48.24ZM203.072 53.008C203.072 53.4667 203.275 53.808 203.68 54.032C204.085 54.2667 204.592 54.384 205.2 54.384C205.787 54.384 206.261 54.256 206.624 54C206.987 53.7547 207.168 53.424 207.168 53.008C207.168 52.6987 207.045 52.432 206.8 52.208C206.555 51.9947 206.091 51.8613 205.408 51.808C204.896 51.776 204.443 51.728 204.048 51.664C203.675 51.8667 203.419 52.0853 203.28 52.32C203.141 52.5547 203.072 52.784 203.072 53.008ZM210.601 52V44.064H212.105L212.233 45.456C212.478 44.9653 212.835 44.5813 213.305 44.304C213.785 44.016 214.334 43.872 214.953 43.872C215.913 43.872 216.665 44.1707 217.209 44.768C217.763 45.3653 218.041 46.256 218.041 47.44V52H216.361V47.616C216.361 46.08 215.731 45.312 214.473 45.312C213.843 45.312 213.321 45.536 212.905 45.984C212.499 46.432 212.297 47.072 212.297 47.904V52H210.601Z" fill="black"/>
<path d="M30.6304 28.4164C27.2059 30.5182 25.1256 32.4213 25.8269 37.33C26.5358 42.292 27.2503 41.3485 29.6431 45.7502C32.0359 50.152 28.3193 50.0119 30.6011 57.9449C32.8078 65.617 39.9605 67.665 51.3636 64.705C62.7668 61.745 63.6362 52.2793 58.8133 44.1299C55.1962 38.0179 55.5966 37.8625 48.2481 32.3725C39.2895 25.6797 35.5293 25.4097 30.6304 28.4164Z" fill="#EAE0FF"/>
<path d="M52.3392 53.5494C52.2445 55.8618 52.5582 56.5579 51.8392 56.5166C51.0758 56.4724 50.558 55.7468 50.1763 55.0861C48.6377 52.4286 47.3787 49.6177 46.2603 46.7582C45.9333 45.9235 45.6123 45.0401 45.7321 44.1508C45.8504 43.2616 46.6405 42.766 47.4645 42.4047C48.401 41.9933 48.8019 42.4622 49.1422 43.9045C49.4247 45.1006 49.3952 45.3808 48.475 45.6919C47.1109 46.1521 46.5206 44.7053 45.9762 43.6701C44.1654 40.228 43.8754 36.0235 45.198 32.3675C45.3844 31.8514 45.6788 31.2792 46.2188 31.173C46.9334 31.0299 47.4793 31.7806 47.8018 32.431C51.0861 39.0423 52.6588 46.4898 52.3274 53.8591C52.3067 54.3119 52.2504 54.8221 51.8895 55.0979C51.5492 55.3575 51.0684 55.3044 50.6512 55.2041C48.4468 54.6791 45.67 52.3652 43.5218 51.647C41.9655 51.1264 37.3038 50.0439 34.6882 50.0439C34.1926 50.0439 33.0061 44.9634 33.7236 44.6169C34.9737 44.0152 43.0647 39.1573 45.5694 34.0547C45.6034 38.7621 46.4896 45.4117 49.5046 52.4036C49.5845 52.5879 49.6511 52.7929 49.5993 52.9876C49.5179 53.3002 49.1318 53.4492 48.8137 53.3902C48.4957 53.3312 48.2264 53.1247 47.9646 52.9359C44.516 50.451 40.0289 50.0557 35.7859 49.746C35.7327 51.1205 36.4709 53.3651 37.2372 54.508C36.604 55.1392 35.2119 54.9298 34.5757 54.3016C34.3597 54.0877 34.2739 53.781 34.197 53.4875L32.0252 45.2923C30.7736 45.5931 28.6743 45.9574 27.7378 46.8378C26.8028 47.7183 28.5205 50.656 29.022 50.6943C30.1375 50.7784 30.497 49.9363 30.3742 49.5057C30.2514 49.075 30.0324 48.6562 30.0591 48.2094C30.0857 47.7625 30.5236 47.3009 30.9393 47.469C31.4542 47.677 31.2914 48.4261 31.1464 48.96C30.6567 50.7622 31.4763 52.6321 32.2752 54.3207C32.4202 54.626 32.5859 54.9549 32.8892 55.1053C33.1925 55.2557 33.7709 55.0876 33.6733 54.7617C33.3863 53.7987 31.6613 54.8915 30.6553 54.9549" stroke="#1F3758" stroke-miterlimit="10" stroke-linecap="round" stroke-linejoin="round"/>
<rect x="125" y="83" width="59" height="29" rx="14.5" fill="#E9EBED"/>
<rect x="125" y="83" width="59" height="29" rx="14.5" stroke="#D3D7DB"/>
<path d="M155.002 102V93.516L153.42 93.866V93.054L155.394 92.2H156.192V102H155.002ZM158.947 102V93.516L157.365 93.866V93.054L159.339 92.2H160.137V102H158.947ZM165.159 102.168C164.515 102.168 163.937 102.051 163.423 101.818C162.91 101.575 162.504 101.244 162.205 100.824C161.916 100.395 161.771 99.9 161.771 99.34C161.771 98.7427 161.944 98.206 162.289 97.73C162.644 97.254 163.111 96.9367 163.689 96.778C163.157 96.6007 162.747 96.316 162.457 95.924C162.168 95.532 162.023 95.1027 162.023 94.636C162.023 94.16 162.149 93.726 162.401 93.334C162.653 92.9327 163.013 92.6153 163.479 92.382C163.946 92.1487 164.506 92.032 165.159 92.032C165.813 92.032 166.373 92.1487 166.839 92.382C167.306 92.6153 167.665 92.9327 167.917 93.334C168.169 93.726 168.295 94.16 168.295 94.636C168.295 95.0933 168.151 95.5227 167.861 95.924C167.572 96.316 167.161 96.6007 166.629 96.778C167.208 96.9367 167.67 97.254 168.015 97.73C168.37 98.206 168.547 98.7427 168.547 99.34C168.547 99.9 168.398 100.395 168.099 100.824C167.81 101.244 167.409 101.575 166.895 101.818C166.382 102.051 165.803 102.168 165.159 102.168ZM165.159 96.358C165.757 96.358 166.228 96.2087 166.573 95.91C166.928 95.602 167.105 95.2007 167.105 94.706C167.105 94.1553 166.933 93.74 166.587 93.46C166.242 93.18 165.766 93.04 165.159 93.04C164.553 93.04 164.077 93.18 163.731 93.46C163.395 93.74 163.227 94.1553 163.227 94.706C163.227 95.2007 163.4 95.602 163.745 95.91C164.091 96.2087 164.562 96.358 165.159 96.358ZM165.159 101.132C165.897 101.132 166.447 100.964 166.811 100.628C167.185 100.283 167.371 99.83 167.371 99.27C167.371 98.6353 167.171 98.1547 166.769 97.828C166.368 97.5013 165.831 97.338 165.159 97.338C164.487 97.338 163.951 97.5013 163.549 97.828C163.148 98.1547 162.947 98.6353 162.947 99.27C162.947 99.83 163.129 100.283 163.493 100.628C163.867 100.964 164.422 101.132 165.159 101.132Z" fill="black"/>
<path d="M146.781 93.8341C146.781 93.8266 146.78 93.8191 146.78 93.8116C146.779 93.8055 146.779 93.7994 146.778 93.7934C146.777 93.7863 146.776 93.7794 146.775 93.7724C146.773 93.7661 146.772 93.7598 146.771 93.7536C146.769 93.747 146.768 93.7405 146.766 93.734C146.764 93.7277 146.762 93.7214 146.76 93.7153C146.758 93.7089 146.756 93.7026 146.753 93.6964C146.751 93.6903 146.748 93.6843 146.746 93.6785C146.743 93.6723 146.74 93.6662 146.737 93.6602C146.734 93.6544 146.731 93.6486 146.728 93.643C146.725 93.6373 146.721 93.6316 146.718 93.626C146.714 93.6202 146.71 93.6146 146.706 93.609C146.703 93.6039 146.699 93.5988 146.695 93.5938C146.69 93.588 146.686 93.5825 146.681 93.577C146.679 93.5745 146.677 93.5718 146.674 93.5692C146.673 93.5671 146.67 93.5653 146.668 93.5632C146.663 93.5581 146.658 93.5531 146.653 93.5482C146.648 93.5437 146.644 93.5393 146.639 93.5351C146.634 93.5309 146.629 93.5269 146.624 93.5229C146.618 93.5186 146.613 93.5144 146.607 93.5105C146.602 93.507 146.597 93.5037 146.591 93.5004C146.585 93.4966 146.58 93.4929 146.574 93.4895C146.568 93.4864 146.562 93.4836 146.557 93.4807C146.551 93.4777 146.545 93.4747 146.539 93.4721C146.532 93.4693 146.526 93.4669 146.519 93.4644C146.514 93.4622 146.508 93.46 146.502 93.4581C146.495 93.4558 146.488 93.454 146.481 93.4521C146.476 93.4505 146.47 93.4489 146.464 93.4476C146.457 93.4461 146.45 93.4449 146.443 93.4436C146.437 93.4426 146.431 93.4416 146.425 93.4408C146.418 93.44 146.411 93.4395 146.404 93.439C146.398 93.4385 146.391 93.4381 146.384 93.4379C146.381 93.4379 146.378 93.4375 146.375 93.4375H136.625C136.622 93.4375 136.62 93.4379 136.617 93.4379C136.609 93.4381 136.602 93.4385 136.595 93.439C136.588 93.4395 136.582 93.44 136.576 93.4407C136.569 93.4416 136.563 93.4427 136.556 93.4438C136.549 93.4449 136.543 93.4461 136.536 93.4475C136.53 93.4489 136.524 93.4506 136.518 93.4523C136.511 93.4541 136.505 93.4559 136.498 93.458C136.492 93.46 136.486 93.4624 136.48 93.4647C136.474 93.467 136.468 93.4693 136.462 93.4719C136.455 93.4747 136.449 93.4779 136.443 93.481C136.437 93.4837 136.432 93.4864 136.427 93.4894C136.42 93.4929 136.414 93.4967 136.408 93.5006C136.403 93.5038 136.398 93.507 136.393 93.5104C136.387 93.5144 136.382 93.5187 136.376 93.523C136.371 93.5269 136.366 93.5309 136.361 93.535C136.356 93.5393 136.352 93.5437 136.347 93.5483C136.342 93.5531 136.337 93.5581 136.332 93.5632C136.33 93.5653 136.327 93.5671 136.326 93.5692C136.323 93.5718 136.321 93.5745 136.319 93.577C136.314 93.5825 136.31 93.588 136.305 93.5938C136.301 93.5988 136.297 93.6039 136.294 93.609C136.29 93.6146 136.286 93.6202 136.282 93.626C136.279 93.6316 136.275 93.6373 136.272 93.643C136.269 93.6486 136.266 93.6544 136.263 93.6602C136.26 93.6662 136.257 93.6723 136.254 93.6784C136.251 93.6843 136.249 93.6903 136.247 93.6964C136.244 93.7026 136.242 93.7089 136.24 93.7153C136.238 93.7214 136.236 93.7277 136.234 93.734C136.232 93.7405 136.231 93.747 136.229 93.7536C136.228 93.7598 136.227 93.7661 136.225 93.7724C136.224 93.7794 136.223 93.7863 136.222 93.7934C136.221 93.7994 136.221 93.8055 136.22 93.8116C136.22 93.8191 136.219 93.8266 136.219 93.8341C136.219 93.8373 136.219 93.8405 136.219 93.8438V100.75C136.219 100.965 136.305 101.172 136.457 101.324C136.609 101.477 136.816 101.562 137.031 101.562H145.969C146.184 101.562 146.391 101.477 146.543 101.324C146.695 101.172 146.781 100.965 146.781 100.75V93.8438C146.781 93.8405 146.781 93.8373 146.781 93.8341ZM145.331 94.25L141.5 97.7614L137.669 94.25H145.331ZM145.969 100.75H137.031V94.7673L141.225 98.612C141.3 98.6807 141.398 98.7188 141.5 98.7188C141.602 98.7188 141.7 98.6807 141.775 98.612L145.969 94.7672L145.969 100.75L145.969 100.75Z" fill="black"/>
<rect x="187" y="83" width="59" height="29" rx="14.5" fill="#E9EBED"/>
<rect x="187" y="83" width="59" height="29" rx="14.5" stroke="#D3D7DB"/>
<path d="M206.209 102.375V101.292C206.209 100.717 205.98 100.166 205.574 99.7596C205.168 99.3533 204.617 99.125 204.042 99.125H199.709C199.134 99.125 198.583 99.3533 198.177 99.7596C197.77 100.166 197.542 100.717 197.542 101.292V102.375" stroke="black" stroke-linecap="round" stroke-linejoin="round"/>
<path d="M201.875 96.9583C203.071 96.9583 204.041 95.9883 204.041 94.7917C204.041 93.595 203.071 92.625 201.875 92.625C200.678 92.625 199.708 93.595 199.708 94.7917C199.708 95.9883 200.678 96.9583 201.875 96.9583Z" stroke="black" stroke-linecap="round" stroke-linejoin="round"/>
<path d="M209.459 102.375V101.292C209.459 100.811 209.299 100.345 209.005 99.9657C208.711 99.5863 208.299 99.3153 207.834 99.1953" stroke="black" stroke-linecap="round" stroke-linejoin="round"/>
<path d="M205.666 92.6953C206.132 92.8146 206.545 93.0857 206.84 93.4657C207.135 93.8458 207.295 94.3132 207.295 94.7943C207.295 95.2754 207.135 95.7428 206.84 96.1228C206.545 96.5028 206.132 96.7739 205.666 96.8932" stroke="black" stroke-linecap="round" stroke-linejoin="round"/>
<path d="M219.27 102.168C218.626 102.168 218.047 102.051 217.534 101.818C217.021 101.575 216.615 101.244 216.316 100.824C216.027 100.395 215.882 99.9 215.882 99.34C215.882 98.7427 216.055 98.206 216.4 97.73C216.755 97.254 217.221 96.9367 217.8 96.778C217.268 96.6007 216.857 96.316 216.568 95.924C216.279 95.532 216.134 95.1027 216.134 94.636C216.134 94.16 216.26 93.726 216.512 93.334C216.764 92.9327 217.123 92.6153 217.59 92.382C218.057 92.1487 218.617 92.032 219.27 92.032C219.923 92.032 220.483 92.1487 220.95 92.382C221.417 92.6153 221.776 92.9327 222.028 93.334C222.28 93.726 222.406 94.16 222.406 94.636C222.406 95.0933 222.261 95.5227 221.972 95.924C221.683 96.316 221.272 96.6007 220.74 96.778C221.319 96.9367 221.781 97.254 222.126 97.73C222.481 98.206 222.658 98.7427 222.658 99.34C222.658 99.9 222.509 100.395 222.21 100.824C221.921 101.244 221.519 101.575 221.006 101.818C220.493 102.051 219.914 102.168 219.27 102.168ZM219.27 96.358C219.867 96.358 220.339 96.2087 220.684 95.91C221.039 95.602 221.216 95.2007 221.216 94.706C221.216 94.1553 221.043 93.74 220.698 93.46C220.353 93.18 219.877 93.04 219.27 93.04C218.663 93.04 218.187 93.18 217.842 93.46C217.506 93.74 217.338 94.1553 217.338 94.706C217.338 95.2007 217.511 95.602 217.856 95.91C218.201 96.2087 218.673 96.358 219.27 96.358ZM219.27 101.132C220.007 101.132 220.558 100.964 220.922 100.628C221.295 100.283 221.482 99.83 221.482 99.27C221.482 98.6353 221.281 98.1547 220.88 97.828C220.479 97.5013 219.942 97.338 219.27 97.338C218.598 97.338 218.061 97.5013 217.66 97.828C217.259 98.1547 217.058 98.6353 217.058 99.27C217.058 99.83 217.24 100.283 217.604 100.628C217.977 100.964 218.533 101.132 219.27 101.132ZM223.915 102V101.174C224.577 100.651 225.203 100.124 225.791 99.592C226.388 99.0507 226.915 98.5187 227.373 97.996C227.839 97.4733 228.203 96.96 228.465 96.456C228.735 95.952 228.871 95.4667 228.871 95C228.871 94.6547 228.81 94.3327 228.689 94.034C228.577 93.7353 228.39 93.4973 228.129 93.32C227.867 93.1333 227.513 93.04 227.065 93.04C226.635 93.04 226.276 93.138 225.987 93.334C225.697 93.5207 225.478 93.7727 225.329 94.09C225.189 94.4073 225.119 94.748 225.119 95.112H223.985C223.985 94.468 224.12 93.9173 224.391 93.46C224.661 92.9933 225.03 92.6387 225.497 92.396C225.963 92.1533 226.491 92.032 227.079 92.032C227.947 92.032 228.656 92.2793 229.207 92.774C229.767 93.2593 230.047 93.9873 230.047 94.958C230.047 95.5367 229.902 96.1107 229.613 96.68C229.323 97.24 228.955 97.786 228.507 98.318C228.059 98.8407 227.578 99.3307 227.065 99.788C226.561 100.245 226.089 100.656 225.651 101.02H230.383V102H223.915Z" fill="black"/>
<rect x="249" y="83" width="81" height="29" rx="14.5" fill="#E9EBED"/>
<rect x="249" y="83" width="81" height="29" rx="14.5" stroke="#D3D7DB"/>
<path fill-rule="evenodd" clip-rule="evenodd" d="M268.955 94.0485C268.037 93.1312 266.819 92.625 265.521 92.625C262.845 92.625 260.666 94.8022 260.666 97.4778C260.665 98.3331 260.888 99.1678 261.314 99.9042L260.625 102.419L263.199 101.743C263.907 102.131 264.707 102.334 265.519 102.335H265.521C268.196 102.335 270.373 100.158 270.375 97.481C270.375 96.1844 269.87 94.9657 268.955 94.0485ZM265.521 101.515H265.519C264.795 101.515 264.084 101.32 263.466 100.953L263.318 100.866L261.79 101.266L262.198 99.7772L262.102 99.6249C261.698 98.9822 261.485 98.2395 261.485 97.4778C261.485 95.2545 263.296 93.4454 265.522 93.4454C266.6 93.4454 267.612 93.866 268.374 94.6277C269.136 95.391 269.555 96.4034 269.555 97.481C269.555 99.7058 267.744 101.515 265.521 101.515ZM267.733 98.4934C267.612 98.4331 267.016 98.1395 266.904 98.0999C266.793 98.0586 266.712 98.0396 266.631 98.1602C266.551 98.2823 266.319 98.5553 266.247 98.6362C266.178 98.7156 266.106 98.7267 265.986 98.6664C265.863 98.6061 265.473 98.4775 265.01 98.0634C264.649 97.7428 264.405 97.3445 264.335 97.2239C264.264 97.1017 264.327 97.0366 264.388 96.9763C264.443 96.9224 264.51 96.8351 264.57 96.7637C264.63 96.6938 264.651 96.6431 264.692 96.5621C264.732 96.4812 264.711 96.4098 264.681 96.3495C264.651 96.2892 264.408 95.6909 264.307 95.4481C264.208 95.2117 264.108 95.245 264.034 95.2402C263.964 95.2371 263.883 95.2371 263.802 95.2371C263.721 95.2371 263.589 95.2672 263.478 95.3894C263.367 95.51 263.055 95.8036 263.055 96.4003C263.055 96.9969 263.489 97.5746 263.55 97.6555C263.61 97.7349 264.405 98.96 265.622 99.4852C265.911 99.6106 266.136 99.6852 266.312 99.7407C266.603 99.8328 266.868 99.8201 267.077 99.7899C267.311 99.755 267.795 99.4963 267.896 99.2123C267.996 98.9298 267.996 98.687 267.966 98.6362C267.936 98.5854 267.855 98.5553 267.733 98.4934Z" fill="black"/>
<path d="M302.375 97.2292C302.377 97.9441 302.21 98.6494 301.887 99.2875C301.505 100.052 300.918 100.695 300.191 101.145C299.464 101.595 298.626 101.833 297.771 101.833C297.056 101.835 296.351 101.668 295.712 101.346L292.625 102.375L293.654 99.2875C293.332 98.6494 293.165 97.9441 293.167 97.2292C293.167 96.3743 293.405 95.5364 293.855 94.8093C294.305 94.0822 294.948 93.4947 295.712 93.1125C296.351 92.7902 297.056 92.6232 297.771 92.625H298.042C299.171 92.6873 300.237 93.1638 301.037 93.9634C301.836 94.763 302.313 95.8293 302.375 96.9583V97.2292Z" stroke="black" stroke-width="0.845" stroke-linecap="round" stroke-linejoin="round"/>
<path d="M286.781 93.8341C286.781 93.8266 286.78 93.8191 286.78 93.8116C286.779 93.8055 286.779 93.7994 286.778 93.7934C286.777 93.7863 286.776 93.7794 286.775 93.7724C286.773 93.7661 286.772 93.7598 286.771 93.7536C286.769 93.747 286.768 93.7405 286.766 93.734C286.764 93.7277 286.762 93.7214 286.76 93.7153C286.758 93.7089 286.756 93.7026 286.753 93.6964C286.751 93.6903 286.748 93.6843 286.746 93.6785C286.743 93.6723 286.74 93.6662 286.737 93.6602C286.734 93.6544 286.731 93.6486 286.728 93.643C286.725 93.6373 286.721 93.6316 286.718 93.626C286.714 93.6202 286.71 93.6146 286.706 93.609C286.703 93.6039 286.699 93.5988 286.695 93.5938C286.69 93.588 286.686 93.5825 286.681 93.577C286.679 93.5745 286.677 93.5718 286.674 93.5692C286.673 93.5671 286.67 93.5653 286.668 93.5632C286.663 93.5581 286.658 93.5531 286.653 93.5482C286.648 93.5437 286.644 93.5393 286.639 93.5351C286.634 93.5309 286.629 93.5269 286.624 93.5229C286.618 93.5186 286.613 93.5144 286.607 93.5105C286.602 93.507 286.597 93.5037 286.591 93.5004C286.585 93.4966 286.58 93.4929 286.574 93.4895C286.568 93.4864 286.562 93.4836 286.557 93.4807C286.551 93.4777 286.545 93.4747 286.539 93.4721C286.532 93.4693 286.526 93.4669 286.519 93.4644C286.514 93.4622 286.508 93.46 286.502 93.4581C286.495 93.4558 286.488 93.454 286.481 93.4521C286.476 93.4505 286.47 93.4489 286.464 93.4476C286.457 93.4461 286.45 93.4449 286.443 93.4436C286.437 93.4426 286.431 93.4416 286.425 93.4408C286.418 93.44 286.411 93.4395 286.404 93.439C286.398 93.4385 286.391 93.4381 286.384 93.4379C286.381 93.4379 286.378 93.4375 286.375 93.4375H276.625C276.622 93.4375 276.62 93.4379 276.617 93.4379C276.609 93.4381 276.602 93.4385 276.595 93.439C276.588 93.4395 276.582 93.44 276.576 93.4407C276.569 93.4416 276.563 93.4427 276.556 93.4438C276.549 93.4449 276.543 93.4461 276.536 93.4475C276.53 93.4489 276.524 93.4506 276.518 93.4523C276.511 93.4541 276.505 93.4559 276.498 93.458C276.492 93.46 276.486 93.4624 276.48 93.4647C276.474 93.467 276.468 93.4693 276.462 93.4719C276.455 93.4747 276.449 93.4779 276.443 93.481C276.437 93.4837 276.432 93.4864 276.427 93.4894C276.42 93.4929 276.414 93.4967 276.408 93.5006C276.403 93.5038 276.398 93.507 276.393 93.5104C276.387 93.5144 276.382 93.5187 276.376 93.523C276.371 93.5269 276.366 93.5309 276.361 93.535C276.356 93.5393 276.352 93.5437 276.347 93.5483C276.342 93.5531 276.337 93.5581 276.332 93.5632C276.33 93.5653 276.327 93.5671 276.326 93.5692C276.323 93.5718 276.321 93.5745 276.319 93.577C276.314 93.5825 276.31 93.588 276.305 93.5938C276.301 93.5988 276.297 93.6039 276.294 93.609C276.29 93.6146 276.286 93.6202 276.282 93.626C276.279 93.6316 276.275 93.6373 276.272 93.643C276.269 93.6486 276.266 93.6544 276.263 93.6602C276.26 93.6662 276.257 93.6723 276.254 93.6784C276.251 93.6843 276.249 93.6903 276.247 93.6964C276.244 93.7026 276.242 93.7089 276.24 93.7153C276.238 93.7214 276.236 93.7277 276.234 93.734C276.232 93.7405 276.231 93.747 276.229 93.7536C276.228 93.7598 276.227 93.7661 276.225 93.7724C276.224 93.7794 276.223 93.7863 276.222 93.7934C276.221 93.7994 276.221 93.8055 276.22 93.8116C276.22 93.8191 276.219 93.8266 276.219 93.8341C276.219 93.8373 276.219 93.8405 276.219 93.8438V100.75C276.219 100.965 276.305 101.172 276.457 101.324C276.609 101.477 276.816 101.562 277.031 101.562H285.969C286.184 101.562 286.391 101.477 286.543 101.324C286.695 101.172 286.781 100.965 286.781 100.75V93.8438C286.781 93.8405 286.781 93.8373 286.781 93.8341ZM285.331 94.25L281.5 97.7614L277.669 94.25H285.331ZM285.969 100.75H277.031V94.7673L281.225 98.612C281.3 98.6807 281.398 98.7188 281.5 98.7188C281.602 98.7188 281.7 98.6807 281.775 98.612L285.969 94.7672L285.969 100.75L285.969 100.75Z" fill="black"/>
<path d="M313.5 92.2188C312.583 92.219 311.681 92.4581 310.884 92.9125C310.088 93.3669 309.423 94.021 308.956 94.8104C308.488 95.5997 308.235 96.4972 308.219 97.4143C308.204 98.3315 308.428 99.2368 308.869 100.041L308.435 101.56C308.395 101.7 308.394 101.847 308.43 101.987C308.466 102.128 308.54 102.256 308.642 102.358C308.744 102.46 308.872 102.534 309.013 102.57C309.153 102.606 309.3 102.605 309.44 102.565L310.959 102.131C311.665 102.518 312.45 102.739 313.254 102.776C314.059 102.814 314.861 102.667 315.6 102.346C316.339 102.026 316.995 101.541 317.517 100.929C318.04 100.316 318.416 99.5921 318.616 98.812C318.816 98.032 318.835 97.2165 318.671 96.428C318.508 95.6395 318.166 94.8988 317.672 94.2626C317.179 93.6264 316.546 93.1115 315.823 92.7572C315.1 92.403 314.305 92.2188 313.5 92.2188V92.2188ZM313.5 101.969C312.697 101.969 311.91 101.753 311.22 101.344C311.172 101.316 311.119 101.297 311.064 101.29C311.009 101.283 310.953 101.287 310.9 101.302L309.217 101.783L309.698 100.1C309.713 100.047 309.717 99.9908 309.71 99.9359C309.703 99.881 309.684 99.8281 309.656 99.7805C309.153 98.9325 308.944 97.9419 309.062 96.9629C309.181 95.9839 309.62 95.0715 310.311 94.3679C311.002 93.6643 311.906 93.209 312.883 93.0729C313.859 92.9368 314.854 93.1275 315.711 93.6154C316.568 94.1032 317.239 94.8608 317.621 95.7702C318.002 96.6795 318.072 97.6895 317.82 98.6428C317.568 99.5961 317.007 100.439 316.226 101.041C315.445 101.642 314.486 101.969 313.5 101.969V101.969ZM316.225 96.4002C316.262 96.438 316.292 96.4827 316.313 96.532C316.333 96.5813 316.344 96.6342 316.344 96.6875C316.344 96.7409 316.333 96.7937 316.313 96.843C316.292 96.8923 316.262 96.937 316.225 96.9748L314.6 98.5998C314.562 98.6375 314.517 98.6674 314.468 98.6878C314.419 98.7082 314.366 98.7188 314.313 98.7188C314.259 98.7188 314.206 98.7082 314.157 98.6878C314.108 98.6674 314.063 98.6375 314.025 98.5998L312.688 97.262L311.35 98.5998C311.312 98.6375 311.267 98.6675 311.218 98.6879C311.169 98.7084 311.116 98.7189 311.062 98.7189C311.009 98.7189 310.956 98.7084 310.907 98.688C310.858 98.6676 310.813 98.6377 310.775 98.5999C310.737 98.5622 310.707 98.5174 310.687 98.4681C310.667 98.4188 310.656 98.3659 310.656 98.3126C310.656 98.2592 310.667 98.2063 310.687 98.157C310.708 98.1077 310.737 98.063 310.775 98.0252L312.4 96.4002C312.476 96.3241 312.58 96.2813 312.688 96.2813C312.795 96.2813 312.899 96.3241 312.975 96.4002L314.313 97.738L315.65 96.4002C315.726 96.3241 315.83 96.2813 315.938 96.2813C316.045 96.2813 316.149 96.3241 316.225 96.4002V96.4002Z" fill="black"/>
<rect x="24" y="83" width="98" height="29" rx="14.5" fill="#E9EBED"/>
<rect x="24" y="83" width="98" height="29" rx="14.5" stroke="#D3D7DB"/>
<path d="M52.882 102V101.174C53.5447 100.651 54.17 100.124 54.758 99.592C55.3553 99.0507 55.8827 98.5187 56.34 97.996C56.8067 97.4733 57.1707 96.96 57.432 96.456C57.7027 95.952 57.838 95.4667 57.838 95C57.838 94.6547 57.7773 94.3327 57.656 94.034C57.544 93.7353 57.3573 93.4973 57.096 93.32C56.8347 93.1333 56.48 93.04 56.032 93.04C55.6027 93.04 55.2433 93.138 54.954 93.334C54.6647 93.5207 54.4453 93.7727 54.296 94.09C54.156 94.4073 54.086 94.748 54.086 95.112H52.952C52.952 94.468 53.0873 93.9173 53.358 93.46C53.6287 92.9933 53.9973 92.6387 54.464 92.396C54.9307 92.1533 55.458 92.032 56.046 92.032C56.914 92.032 57.6233 92.2793 58.174 92.774C58.734 93.2593 59.014 93.9873 59.014 94.958C59.014 95.5367 58.8693 96.1107 58.58 96.68C58.2907 97.24 57.922 97.786 57.474 98.318C57.026 98.8407 56.5453 99.3307 56.032 99.788C55.528 100.245 55.0567 100.656 54.618 101.02H59.35V102H52.882ZM64.453 102.168C63.585 102.168 62.8337 101.958 62.199 101.538C61.5737 101.109 61.093 100.516 60.757 99.76C60.421 98.9947 60.253 98.108 60.253 97.1C60.253 96.092 60.421 95.21 60.757 94.454C61.093 93.6887 61.5737 93.096 62.199 92.676C62.8337 92.2467 63.585 92.032 64.453 92.032C65.321 92.032 66.0677 92.2467 66.693 92.676C67.3183 93.096 67.799 93.6887 68.135 94.454C68.471 95.21 68.639 96.092 68.639 97.1C68.639 98.108 68.471 98.9947 68.135 99.76C67.799 100.516 67.3183 101.109 66.693 101.538C66.0677 101.958 65.321 102.168 64.453 102.168ZM64.453 101.132C65.0223 101.132 65.531 100.973 65.979 100.656C66.4363 100.329 66.791 99.8673 67.043 99.27C67.3043 98.6633 67.435 97.94 67.435 97.1C67.435 96.26 67.3043 95.5413 67.043 94.944C66.791 94.3467 66.4363 93.8893 65.979 93.572C65.531 93.2453 65.0223 93.082 64.453 93.082C63.8743 93.082 63.361 93.2453 62.913 93.572C62.465 93.8893 62.1103 94.3467 61.849 94.944C61.5877 95.5413 61.457 96.26 61.457 97.1C61.457 97.94 61.5877 98.6633 61.849 99.27C62.1103 99.8673 62.465 100.329 62.913 100.656C63.361 100.973 63.8743 101.132 64.453 101.132ZM68.8535 103.33L72.3675 91.304H73.5295L70.0155 103.33H68.8535ZM75.6522 102V93.516L74.0702 93.866V93.054L76.0442 92.2H76.8422V102H75.6522ZM82.4528 102.168C81.5848 102.168 80.8335 101.958 80.1988 101.538C79.5735 101.109 79.0928 100.516 78.7568 99.76C78.4208 98.9947 78.2528 98.108 78.2528 97.1C78.2528 96.092 78.4208 95.21 78.7568 94.454C79.0928 93.6887 79.5735 93.096 80.1988 92.676C80.8335 92.2467 81.5848 92.032 82.4528 92.032C83.3208 92.032 84.0675 92.2467 84.6928 92.676C85.3182 93.096 85.7988 93.6887 86.1348 94.454C86.4708 95.21 86.6388 96.092 86.6388 97.1C86.6388 98.108 86.4708 98.9947 86.1348 99.76C85.7988 100.516 85.3182 101.109 84.6928 101.538C84.0675 101.958 83.3208 102.168 82.4528 102.168ZM82.4528 101.132C83.0222 101.132 83.5308 100.973 83.9788 100.656C84.4362 100.329 84.7908 99.8673 85.0428 99.27C85.3042 98.6633 85.4348 97.94 85.4348 97.1C85.4348 96.26 85.3042 95.5413 85.0428 94.944C84.7908 94.3467 84.4362 93.8893 83.9788 93.572C83.5308 93.2453 83.0222 93.082 82.4528 93.082C81.8742 93.082 81.3608 93.2453 80.9128 93.572C80.4648 93.8893 80.1102 94.3467 79.8488 94.944C79.5875 95.5413 79.4568 96.26 79.4568 97.1C79.4568 97.94 79.5875 98.6633 79.8488 99.27C80.1102 99.8673 80.4648 100.329 80.9128 100.656C81.3608 100.973 81.8742 101.132 82.4528 101.132ZM86.8533 103.33L90.3673 91.304H91.5293L88.0153 103.33H86.8533ZM92.5321 102V101.174C93.1947 100.651 93.8201 100.124 94.4081 99.592C95.0054 99.0507 95.5327 98.5187 95.9901 97.996C96.4567 97.4733 96.8207 96.96 97.0821 96.456C97.3527 95.952 97.4881 95.4667 97.4881 95C97.4881 94.6547 97.4274 94.3327 97.3061 94.034C97.1941 93.7353 97.0074 93.4973 96.7461 93.32C96.4847 93.1333 96.1301 93.04 95.6821 93.04C95.2527 93.04 94.8934 93.138 94.6041 93.334C94.3147 93.5207 94.0954 93.7727 93.9461 94.09C93.8061 94.4073 93.7361 94.748 93.7361 95.112H92.6021C92.6021 94.468 92.7374 93.9173 93.0081 93.46C93.2787 92.9933 93.6474 92.6387 94.1141 92.396C94.5807 92.1533 95.1081 92.032 95.6961 92.032C96.5641 92.032 97.2734 92.2793 97.8241 92.774C98.3841 93.2593 98.6641 93.9873 98.6641 94.958C98.6641 95.5367 98.5194 96.1107 98.2301 96.68C97.9407 97.24 97.5721 97.786 97.1241 98.318C96.6761 98.8407 96.1954 99.3307 95.6821 99.788C95.1781 100.245 94.7067 100.656 94.2681 101.02H99.0001V102H92.5321ZM100.264 102V101.174C100.926 100.651 101.552 100.124 102.14 99.592C102.737 99.0507 103.264 98.5187 103.722 97.996C104.188 97.4733 104.552 96.96 104.814 96.456C105.084 95.952 105.22 95.4667 105.22 95C105.22 94.6547 105.159 94.3327 105.038 94.034C104.926 93.7353 104.739 93.4973 104.478 93.32C104.216 93.1333 103.862 93.04 103.414 93.04C102.984 93.04 102.625 93.138 102.336 93.334C102.046 93.5207 101.827 93.7727 101.678 94.09C101.538 94.4073 101.468 94.748 101.468 95.112H100.334C100.334 94.468 100.469 93.9173 100.74 93.46C101.01 92.9933 101.379 92.6387 101.846 92.396C102.312 92.1533 102.84 92.032 103.428 92.032C104.296 92.032 105.005 92.2793 105.556 92.774C106.116 93.2593 106.396 93.9873 106.396 94.958C106.396 95.5367 106.251 96.1107 105.962 96.68C105.672 97.24 105.304 97.786 104.856 98.318C104.408 98.8407 103.927 99.3307 103.414 99.788C102.91 100.245 102.438 100.656 102 101.02H106.732V102H100.264Z" fill="black"/>
<path d="M44.2917 93.167H36.7083C36.11 93.167 35.625 93.652 35.625 94.2503V101.834C35.625 102.432 36.11 102.917 36.7083 102.917H44.2917C44.89 102.917 45.375 102.432 45.375 101.834V94.2503C45.375 93.652 44.89 93.167 44.2917 93.167Z" stroke="black" stroke-linecap="round" stroke-linejoin="round"/>
<path d="M42.6665 92.083V94.2497" stroke="black" stroke-linecap="round" stroke-linejoin="round"/>
<path d="M38.3335 92.083V94.2497" stroke="black" stroke-linecap="round" stroke-linejoin="round"/>
<path d="M35.625 96.417H45.375" stroke="black" stroke-linecap="round" stroke-linejoin="round"/>
<defs>
<filter id="filter0_d_152_3852" x="-2" y="0" width="379" height="144" filterUnits="userSpaceOnUse" color-interpolation-filters="sRGB">
<feFlood flood-opacity="0" result="BackgroundImageFix"/>
<feColorMatrix in="SourceAlpha" type="matrix" values="0 0 0 0 0 0 0 0 0 0 0 0 0 0 0 0 0 0 127 0" result="hardAlpha"/>
<feOffset/>
<feGaussianBlur stdDeviation="7"/>
<feComposite in2="hardAlpha" operator="out"/>
<feColorMatrix type="matrix" values="0 0 0 0 0.27106 0 0 0 0 0.291722 0 0 0 0 0.320993 0 0 0 0.12 0"/>
<feBlend mode="normal" in2="BackgroundImageFix" result="effect1_dropShadow_152_3852"/>
<feBlend mode="normal" in="SourceGraphic" in2="effect1_dropShadow_152_3852" result="shape"/>
</filter>
</defs>
</svg>
