<svg width="375" height="144" viewBox="0 0 375 144" fill="none" xmlns="http://www.w3.org/2000/svg">
<g filter="url(#filter0_d_152_3816)">
<rect x="12" y="14" width="351" height="116" rx="14" fill="white"/>
<rect x="12.5" y="14.5" width="350" height="115" rx="13.5" stroke="#D3D7DB"/>
</g>
<path d="M332 53L338 47L332 41" stroke="#1F3758" stroke-width="2" stroke-linecap="round" stroke-linejoin="round"/>
<path d="M77.448 52L73.304 40.8H75.112L78.472 50.24L81.848 40.8H83.64L79.496 52H77.448ZM87.4171 52.192C86.6385 52.192 85.9451 52.0213 85.3371 51.68C84.7398 51.328 84.2705 50.8427 83.9291 50.224C83.5878 49.6053 83.4171 48.8853 83.4171 48.064C83.4171 47.232 83.5825 46.5013 83.9131 45.872C84.2545 45.2427 84.7238 44.752 85.3211 44.4C85.9291 44.048 86.6331 43.872 87.4331 43.872C88.2118 43.872 88.8891 44.048 89.4651 44.4C90.0411 44.7413 90.4891 45.2 90.8091 45.776C91.1291 46.352 91.2891 46.9867 91.2891 47.68C91.2891 47.7867 91.2838 47.904 91.2731 48.032C91.2731 48.1493 91.2678 48.2827 91.2571 48.432H85.0811C85.1345 49.2 85.3851 49.7867 85.8331 50.192C86.2918 50.5867 86.8198 50.784 87.4171 50.784C87.8971 50.784 88.2971 50.6773 88.6171 50.464C88.9478 50.24 89.1931 49.9413 89.3531 49.568H91.0491C90.8358 50.3147 90.4091 50.9387 89.7691 51.44C89.1398 51.9413 88.3558 52.192 87.4171 52.192ZM87.4171 45.264C86.8518 45.264 86.3505 45.4347 85.9131 45.776C85.4758 46.1067 85.2091 46.608 85.1131 47.28H89.5931C89.5611 46.6613 89.3425 46.1707 88.9371 45.808C88.5318 45.4453 88.0251 45.264 87.4171 45.264ZM92.7289 52V44.064H94.2329L94.3609 45.456C94.6062 44.9653 94.9635 44.5813 95.4329 44.304C95.9129 44.016 96.4622 43.872 97.0809 43.872C98.0409 43.872 98.7929 44.1707 99.3369 44.768C99.8915 45.3653 100.169 46.256 100.169 47.44V52H98.4889V47.616C98.4889 46.08 97.8595 45.312 96.6009 45.312C95.9715 45.312 95.4489 45.536 95.0329 45.984C94.6275 46.432 94.4249 47.072 94.4249 47.904V52H92.7289ZM104.774 52.192C103.814 52.192 103.057 51.8933 102.502 51.296C101.958 50.6987 101.686 49.808 101.686 48.624V44.064H103.382V48.448C103.382 49.984 104.012 50.752 105.27 50.752C105.9 50.752 106.417 50.528 106.822 50.08C107.228 49.632 107.43 48.992 107.43 48.16V44.064H109.126V52H107.622L107.494 50.608C107.249 51.0987 106.886 51.488 106.406 51.776C105.937 52.0533 105.393 52.192 104.774 52.192ZM114.676 52.192C113.897 52.192 113.204 52.0213 112.596 51.68C111.999 51.328 111.529 50.8427 111.188 50.224C110.847 49.6053 110.676 48.8853 110.676 48.064C110.676 47.232 110.841 46.5013 111.172 45.872C111.513 45.2427 111.983 44.752 112.58 44.4C113.188 44.048 113.892 43.872 114.692 43.872C115.471 43.872 116.148 44.048 116.724 44.4C117.3 44.7413 117.748 45.2 118.068 45.776C118.388 46.352 118.548 46.9867 118.548 47.68C118.548 47.7867 118.543 47.904 118.532 48.032C118.532 48.1493 118.527 48.2827 118.516 48.432H112.34C112.393 49.2 112.644 49.7867 113.092 50.192C113.551 50.5867 114.079 50.784 114.676 50.784C115.156 50.784 115.556 50.6773 115.876 50.464C116.207 50.24 116.452 49.9413 116.612 49.568H118.308C118.095 50.3147 117.668 50.9387 117.028 51.44C116.399 51.9413 115.615 52.192 114.676 52.192ZM114.676 45.264C114.111 45.264 113.609 45.4347 113.172 45.776C112.735 46.1067 112.468 46.608 112.372 47.28H116.852C116.82 46.6613 116.601 46.1707 116.196 45.808C115.791 45.4453 115.284 45.264 114.676 45.264ZM127.411 52.192C126.654 52.192 125.971 52.0213 125.363 51.68C124.766 51.328 124.291 50.8427 123.939 50.224C123.587 49.5947 123.411 48.864 123.411 48.032C123.411 47.2 123.587 46.4747 123.939 45.856C124.302 45.2267 124.787 44.7413 125.395 44.4C126.003 44.048 126.68 43.872 127.427 43.872C128.184 43.872 128.862 44.048 129.459 44.4C130.067 44.7413 130.547 45.2267 130.899 45.856C131.262 46.4747 131.443 47.2 131.443 48.032C131.443 48.864 131.262 49.5947 130.899 50.224C130.547 50.8427 130.067 51.328 129.459 51.68C128.851 52.0213 128.168 52.192 127.411 52.192ZM127.411 50.736C127.816 50.736 128.19 50.6347 128.531 50.432C128.883 50.2293 129.166 49.9307 129.379 49.536C129.592 49.1307 129.699 48.6293 129.699 48.032C129.699 47.4347 129.592 46.9387 129.379 46.544C129.176 46.1387 128.899 45.8347 128.547 45.632C128.206 45.4293 127.832 45.328 127.427 45.328C127.022 45.328 126.643 45.4293 126.291 45.632C125.95 45.8347 125.672 46.1387 125.459 46.544C125.246 46.9387 125.139 47.4347 125.139 48.032C125.139 48.6293 125.246 49.1307 125.459 49.536C125.672 49.9307 125.95 50.2293 126.291 50.432C126.632 50.6347 127.006 50.736 127.411 50.736ZM132.957 55.52V44.064H134.477L134.653 45.296C134.909 44.9227 135.261 44.592 135.709 44.304C136.157 44.016 136.733 43.872 137.437 43.872C138.205 43.872 138.882 44.0533 139.469 44.416C140.056 44.7787 140.514 45.2747 140.845 45.904C141.186 46.5333 141.357 47.248 141.357 48.048C141.357 48.848 141.186 49.5627 140.845 50.192C140.514 50.8107 140.056 51.3013 139.469 51.664C138.882 52.016 138.2 52.192 137.421 52.192C136.802 52.192 136.253 52.0693 135.773 51.824C135.304 51.5787 134.93 51.232 134.653 50.784V55.52H132.957ZM137.133 50.72C137.858 50.72 138.456 50.4747 138.925 49.984C139.394 49.4827 139.629 48.832 139.629 48.032C139.629 47.5093 139.522 47.0453 139.309 46.64C139.096 46.2347 138.802 45.92 138.429 45.696C138.056 45.4613 137.624 45.344 137.133 45.344C136.408 45.344 135.81 45.5947 135.341 46.096C134.882 46.5973 134.653 47.2427 134.653 48.032C134.653 48.832 134.882 49.4827 135.341 49.984C135.81 50.4747 136.408 50.72 137.133 50.72ZM146.583 52.192C145.805 52.192 145.111 52.0213 144.503 51.68C143.906 51.328 143.437 50.8427 143.095 50.224C142.754 49.6053 142.583 48.8853 142.583 48.064C142.583 47.232 142.749 46.5013 143.079 45.872C143.421 45.2427 143.89 44.752 144.487 44.4C145.095 44.048 145.799 43.872 146.599 43.872C147.378 43.872 148.055 44.048 148.631 44.4C149.207 44.7413 149.655 45.2 149.975 45.776C150.295 46.352 150.455 46.9867 150.455 47.68C150.455 47.7867 150.45 47.904 150.439 48.032C150.439 48.1493 150.434 48.2827 150.423 48.432H144.247C144.301 49.2 144.551 49.7867 144.999 50.192C145.458 50.5867 145.986 50.784 146.583 50.784C147.063 50.784 147.463 50.6773 147.783 50.464C148.114 50.24 148.359 49.9413 148.519 49.568H150.215C150.002 50.3147 149.575 50.9387 148.935 51.44C148.306 51.9413 147.522 52.192 146.583 52.192ZM146.583 45.264C146.018 45.264 145.517 45.4347 145.079 45.776C144.642 46.1067 144.375 46.608 144.279 47.28H148.759C148.727 46.6613 148.509 46.1707 148.103 45.808C147.698 45.4453 147.191 45.264 146.583 45.264ZM151.895 52V44.064H153.399L153.527 45.456C153.772 44.9653 154.13 44.5813 154.599 44.304C155.079 44.016 155.628 43.872 156.247 43.872C157.207 43.872 157.959 44.1707 158.503 44.768C159.058 45.3653 159.335 46.256 159.335 47.44V52H157.655V47.616C157.655 46.08 157.026 45.312 155.767 45.312C155.138 45.312 154.615 45.536 154.199 45.984C153.794 46.432 153.591 47.072 153.591 47.904V52H151.895ZM161.973 42.56C161.653 42.56 161.386 42.464 161.173 42.272C160.97 42.0693 160.869 41.8187 160.869 41.52C160.869 41.2213 160.97 40.976 161.173 40.784C161.386 40.5813 161.653 40.48 161.973 40.48C162.293 40.48 162.554 40.5813 162.757 40.784C162.97 40.976 163.077 41.2213 163.077 41.52C163.077 41.8187 162.97 42.0693 162.757 42.272C162.554 42.464 162.293 42.56 161.973 42.56ZM161.125 52V44.064H162.821V52H161.125ZM164.74 52V44.064H166.244L166.372 45.456C166.617 44.9653 166.974 44.5813 167.444 44.304C167.924 44.016 168.473 43.872 169.092 43.872C170.052 43.872 170.804 44.1707 171.348 44.768C171.902 45.3653 172.18 46.256 172.18 47.44V52H170.5V47.616C170.5 46.08 169.87 45.312 168.612 45.312C167.982 45.312 167.46 45.536 167.044 45.984C166.638 46.432 166.436 47.072 166.436 47.904V52H164.74ZM177.105 49.568C176.689 49.568 176.305 49.52 175.953 49.424L175.265 50.096C175.382 50.1707 175.526 50.2347 175.697 50.288C175.868 50.3413 176.108 50.3893 176.417 50.432C176.726 50.4747 177.148 50.5173 177.681 50.56C178.737 50.656 179.5 50.912 179.969 51.328C180.438 51.7333 180.673 52.2773 180.673 52.96C180.673 53.4293 180.545 53.872 180.289 54.288C180.044 54.7147 179.654 55.056 179.121 55.312C178.598 55.5787 177.926 55.712 177.105 55.712C175.996 55.712 175.094 55.4987 174.401 55.072C173.718 54.656 173.377 54.0213 173.377 53.168C173.377 52.8373 173.462 52.5067 173.633 52.176C173.814 51.856 174.097 51.552 174.481 51.264C174.257 51.168 174.06 51.0667 173.889 50.96C173.729 50.8427 173.585 50.7253 173.457 50.608V50.224L174.833 48.816C174.214 48.2827 173.905 47.584 173.905 46.72C173.905 46.1973 174.028 45.7227 174.273 45.296C174.529 44.8587 174.897 44.512 175.377 44.256C175.857 44 176.433 43.872 177.105 43.872C177.553 43.872 177.969 43.936 178.353 44.064H181.313V45.184L179.905 45.264C180.161 45.7013 180.289 46.1867 180.289 46.72C180.289 47.2533 180.161 47.7333 179.905 48.16C179.66 48.5867 179.297 48.928 178.817 49.184C178.348 49.44 177.777 49.568 177.105 49.568ZM177.105 48.24C177.596 48.24 177.99 48.112 178.289 47.856C178.598 47.5893 178.753 47.216 178.753 46.736C178.753 46.2453 178.598 45.872 178.289 45.616C177.99 45.36 177.596 45.232 177.105 45.232C176.604 45.232 176.198 45.36 175.889 45.616C175.59 45.872 175.441 46.2453 175.441 46.736C175.441 47.216 175.59 47.5893 175.889 47.856C176.198 48.112 176.604 48.24 177.105 48.24ZM174.977 53.008C174.977 53.4667 175.18 53.808 175.585 54.032C175.99 54.2667 176.497 54.384 177.105 54.384C177.692 54.384 178.166 54.256 178.529 54C178.892 53.7547 179.073 53.424 179.073 53.008C179.073 52.6987 178.95 52.432 178.705 52.208C178.46 51.9947 177.996 51.8613 177.313 51.808C176.801 51.776 176.348 51.728 175.953 51.664C175.58 51.8667 175.324 52.0853 175.185 52.32C175.046 52.5547 174.977 52.784 174.977 53.008ZM189.977 52.192C189.198 52.192 188.5 52.016 187.881 51.664C187.273 51.312 186.793 50.8267 186.441 50.208C186.1 49.5787 185.929 48.8533 185.929 48.032C185.929 47.2107 186.1 46.4907 186.441 45.872C186.793 45.2427 187.273 44.752 187.881 44.4C188.5 44.048 189.198 43.872 189.977 43.872C190.958 43.872 191.78 44.128 192.441 44.64C193.113 45.152 193.545 45.8453 193.737 46.72H191.961C191.854 46.2827 191.62 45.9413 191.257 45.696C190.894 45.4507 190.468 45.328 189.977 45.328C189.561 45.328 189.177 45.4347 188.825 45.648C188.473 45.8507 188.19 46.1547 187.977 46.56C187.764 46.9547 187.657 47.4453 187.657 48.032C187.657 48.6187 187.764 49.1147 187.977 49.52C188.19 49.9147 188.473 50.2187 188.825 50.432C189.177 50.6453 189.561 50.752 189.977 50.752C190.468 50.752 190.894 50.6293 191.257 50.384C191.62 50.1387 191.854 49.792 191.961 49.344H193.737C193.556 50.1973 193.129 50.8853 192.457 51.408C191.785 51.9307 190.958 52.192 189.977 52.192ZM197.944 52.192C197.272 52.192 196.718 52.08 196.28 51.856C195.843 51.632 195.518 51.3387 195.304 50.976C195.091 50.6027 194.984 50.1973 194.984 49.76C194.984 48.992 195.283 48.384 195.88 47.936C196.478 47.488 197.331 47.264 198.44 47.264H200.52V47.12C200.52 46.5013 200.35 46.0373 200.008 45.728C199.678 45.4187 199.246 45.264 198.712 45.264C198.243 45.264 197.832 45.3813 197.48 45.616C197.139 45.84 196.931 46.176 196.856 46.624H195.16C195.214 46.048 195.406 45.5573 195.736 45.152C196.078 44.736 196.504 44.4213 197.016 44.208C197.539 43.984 198.11 43.872 198.728 43.872C199.838 43.872 200.696 44.1653 201.304 44.752C201.912 45.328 202.216 46.1173 202.216 47.12V52H200.744L200.6 50.64C200.376 51.0773 200.051 51.4453 199.624 51.744C199.198 52.0427 198.638 52.192 197.944 52.192ZM198.28 50.816C198.739 50.816 199.123 50.7093 199.432 50.496C199.752 50.272 199.998 49.9787 200.168 49.616C200.35 49.2533 200.462 48.8533 200.504 48.416H198.616C197.944 48.416 197.464 48.5333 197.176 48.768C196.899 49.0027 196.76 49.296 196.76 49.648C196.76 50.0107 196.894 50.2987 197.16 50.512C197.438 50.7147 197.811 50.816 198.28 50.816ZM203.874 52V44.064H205.378L205.522 45.184C205.778 44.7787 206.114 44.4587 206.53 44.224C206.957 43.9893 207.447 43.872 208.002 43.872C209.261 43.872 210.135 44.368 210.626 45.36C210.914 44.9013 211.298 44.5387 211.778 44.272C212.269 44.0053 212.797 43.872 213.362 43.872C214.354 43.872 215.133 44.1707 215.698 44.768C216.263 45.3653 216.546 46.256 216.546 47.44V52H214.85V47.616C214.85 46.08 214.263 45.312 213.09 45.312C212.493 45.312 212.002 45.536 211.618 45.984C211.245 46.432 211.058 47.072 211.058 47.904V52H209.362V47.616C209.362 46.08 208.77 45.312 207.586 45.312C206.999 45.312 206.514 45.536 206.13 45.984C205.757 46.432 205.57 47.072 205.57 47.904V52H203.874ZM218.21 55.52V44.064H219.73L219.906 45.296C220.162 44.9227 220.514 44.592 220.962 44.304C221.41 44.016 221.986 43.872 222.69 43.872C223.458 43.872 224.135 44.0533 224.722 44.416C225.309 44.7787 225.767 45.2747 226.098 45.904C226.439 46.5333 226.61 47.248 226.61 48.048C226.61 48.848 226.439 49.5627 226.098 50.192C225.767 50.8107 225.309 51.3013 224.722 51.664C224.135 52.016 223.453 52.192 222.674 52.192C222.055 52.192 221.506 52.0693 221.026 51.824C220.557 51.5787 220.183 51.232 219.906 50.784V55.52H218.21ZM222.386 50.72C223.111 50.72 223.709 50.4747 224.178 49.984C224.647 49.4827 224.882 48.832 224.882 48.032C224.882 47.5093 224.775 47.0453 224.562 46.64C224.349 46.2347 224.055 45.92 223.682 45.696C223.309 45.4613 222.877 45.344 222.386 45.344C221.661 45.344 221.063 45.5947 220.594 46.096C220.135 46.5973 219.906 47.2427 219.906 48.032C219.906 48.832 220.135 49.4827 220.594 49.984C221.063 50.4747 221.661 50.72 222.386 50.72ZM230.813 52.192C230.141 52.192 229.586 52.08 229.149 51.856C228.711 51.632 228.386 51.3387 228.173 50.976C227.959 50.6027 227.853 50.1973 227.853 49.76C227.853 48.992 228.151 48.384 228.749 47.936C229.346 47.488 230.199 47.264 231.309 47.264H233.389V47.12C233.389 46.5013 233.218 46.0373 232.877 45.728C232.546 45.4187 232.114 45.264 231.581 45.264C231.111 45.264 230.701 45.3813 230.349 45.616C230.007 45.84 229.799 46.176 229.725 46.624H228.029C228.082 46.048 228.274 45.5573 228.605 45.152C228.946 44.736 229.373 44.4213 229.885 44.208C230.407 43.984 230.978 43.872 231.597 43.872C232.706 43.872 233.565 44.1653 234.173 44.752C234.781 45.328 235.085 46.1173 235.085 47.12V52H233.613L233.469 50.64C233.245 51.0773 232.919 51.4453 232.493 51.744C232.066 52.0427 231.506 52.192 230.813 52.192ZM231.149 50.816C231.607 50.816 231.991 50.7093 232.301 50.496C232.621 50.272 232.866 49.9787 233.037 49.616C233.218 49.2533 233.33 48.8533 233.373 48.416H231.485C230.813 48.416 230.333 48.5333 230.045 48.768C229.767 49.0027 229.629 49.296 229.629 49.648C229.629 50.0107 229.762 50.2987 230.029 50.512C230.306 50.7147 230.679 50.816 231.149 50.816ZM237.702 42.56C237.382 42.56 237.115 42.464 236.902 42.272C236.699 42.0693 236.598 41.8187 236.598 41.52C236.598 41.2213 236.699 40.976 236.902 40.784C237.115 40.5813 237.382 40.48 237.702 40.48C238.022 40.48 238.283 40.5813 238.486 40.784C238.699 40.976 238.806 41.2213 238.806 41.52C238.806 41.8187 238.699 42.0693 238.486 42.272C238.283 42.464 238.022 42.56 237.702 42.56ZM236.854 52V44.064H238.55V52H236.854ZM243.717 49.568C243.301 49.568 242.917 49.52 242.565 49.424L241.877 50.096C241.994 50.1707 242.138 50.2347 242.309 50.288C242.48 50.3413 242.72 50.3893 243.029 50.432C243.338 50.4747 243.76 50.5173 244.293 50.56C245.349 50.656 246.112 50.912 246.581 51.328C247.05 51.7333 247.285 52.2773 247.285 52.96C247.285 53.4293 247.157 53.872 246.901 54.288C246.656 54.7147 246.266 55.056 245.733 55.312C245.21 55.5787 244.538 55.712 243.717 55.712C242.608 55.712 241.706 55.4987 241.013 55.072C240.33 54.656 239.989 54.0213 239.989 53.168C239.989 52.8373 240.074 52.5067 240.245 52.176C240.426 51.856 240.709 51.552 241.093 51.264C240.869 51.168 240.672 51.0667 240.501 50.96C240.341 50.8427 240.197 50.7253 240.069 50.608V50.224L241.445 48.816C240.826 48.2827 240.517 47.584 240.517 46.72C240.517 46.1973 240.64 45.7227 240.885 45.296C241.141 44.8587 241.509 44.512 241.989 44.256C242.469 44 243.045 43.872 243.717 43.872C244.165 43.872 244.581 43.936 244.965 44.064H247.925V45.184L246.517 45.264C246.773 45.7013 246.901 46.1867 246.901 46.72C246.901 47.2533 246.773 47.7333 246.517 48.16C246.272 48.5867 245.909 48.928 245.429 49.184C244.96 49.44 244.389 49.568 243.717 49.568ZM243.717 48.24C244.208 48.24 244.602 48.112 244.901 47.856C245.21 47.5893 245.365 47.216 245.365 46.736C245.365 46.2453 245.21 45.872 244.901 45.616C244.602 45.36 244.208 45.232 243.717 45.232C243.216 45.232 242.81 45.36 242.501 45.616C242.202 45.872 242.053 46.2453 242.053 46.736C242.053 47.216 242.202 47.5893 242.501 47.856C242.81 48.112 243.216 48.24 243.717 48.24ZM241.589 53.008C241.589 53.4667 241.792 53.808 242.197 54.032C242.602 54.2667 243.109 54.384 243.717 54.384C244.304 54.384 244.778 54.256 245.141 54C245.504 53.7547 245.685 53.424 245.685 53.008C245.685 52.6987 245.562 52.432 245.317 52.208C245.072 51.9947 244.608 51.8613 243.925 51.808C243.413 51.776 242.96 51.728 242.565 51.664C242.192 51.8667 241.936 52.0853 241.797 52.32C241.658 52.5547 241.589 52.784 241.589 53.008ZM249.118 52V44.064H250.622L250.75 45.456C250.995 44.9653 251.352 44.5813 251.822 44.304C252.302 44.016 252.851 43.872 253.47 43.872C254.43 43.872 255.182 44.1707 255.726 44.768C256.28 45.3653 256.558 46.256 256.558 47.44V52H254.878V47.616C254.878 46.08 254.248 45.312 252.99 45.312C252.36 45.312 251.838 45.536 251.422 45.984C251.016 46.432 250.814 47.072 250.814 47.904V52H249.118Z" fill="black"/>
<path d="M30.6304 28.4164C27.2059 30.5182 25.1256 32.4213 25.8269 37.33C26.5358 42.292 27.2503 41.3485 29.6431 45.7502C32.0359 50.152 28.3193 50.0119 30.6011 57.9449C32.8078 65.617 39.9605 67.665 51.3636 64.705C62.7668 61.745 63.6362 52.2793 58.8133 44.1299C55.1962 38.0179 55.5966 37.8625 48.2481 32.3725C39.2895 25.6797 35.5293 25.4097 30.6304 28.4164Z" fill="#DEFFDF"/>
<path d="M52.3392 53.5494C52.2445 55.8618 52.5582 56.5579 51.8392 56.5166C51.0758 56.4724 50.558 55.7468 50.1763 55.0861C48.6377 52.4286 47.3787 49.6177 46.2603 46.7582C45.9333 45.9235 45.6123 45.0401 45.7321 44.1508C45.8504 43.2616 46.6405 42.766 47.4645 42.4047C48.401 41.9933 48.8019 42.4622 49.1422 43.9045C49.4247 45.1006 49.3952 45.3808 48.475 45.6919C47.1109 46.1521 46.5206 44.7053 45.9762 43.6701C44.1654 40.228 43.8754 36.0235 45.198 32.3675C45.3844 31.8514 45.6788 31.2792 46.2188 31.173C46.9334 31.0299 47.4793 31.7806 47.8018 32.431C51.0861 39.0423 52.6588 46.4898 52.3274 53.8591C52.3067 54.3119 52.2504 54.8221 51.8895 55.0979C51.5492 55.3575 51.0684 55.3044 50.6512 55.2041C48.4468 54.6791 45.67 52.3652 43.5218 51.647C41.9655 51.1264 37.3038 50.0439 34.6882 50.0439C34.1926 50.0439 33.0061 44.9634 33.7236 44.6169C34.9737 44.0152 43.0647 39.1573 45.5694 34.0547C45.6034 38.7621 46.4896 45.4117 49.5046 52.4036C49.5845 52.5879 49.6511 52.7929 49.5993 52.9876C49.5179 53.3002 49.1318 53.4492 48.8137 53.3902C48.4957 53.3312 48.2264 53.1247 47.9646 52.9359C44.516 50.451 40.0289 50.0557 35.7859 49.746C35.7327 51.1205 36.4709 53.3651 37.2372 54.508C36.604 55.1392 35.2119 54.9298 34.5757 54.3016C34.3597 54.0877 34.2739 53.781 34.197 53.4875L32.0252 45.2923C30.7736 45.5931 28.6743 45.9574 27.7378 46.8378C26.8028 47.7183 28.5205 50.656 29.022 50.6943C30.1375 50.7784 30.497 49.9363 30.3742 49.5057C30.2514 49.075 30.0324 48.6562 30.0591 48.2094C30.0857 47.7625 30.5236 47.3009 30.9393 47.469C31.4542 47.677 31.2914 48.4261 31.1464 48.96C30.6567 50.7622 31.4763 52.6321 32.2752 54.3207C32.4202 54.626 32.5859 54.9549 32.8892 55.1053C33.1925 55.2557 33.7709 55.0876 33.6733 54.7617C33.3863 53.7987 31.6613 54.8915 30.6553 54.9549" stroke="#1F3758" stroke-miterlimit="10" stroke-linecap="round" stroke-linejoin="round"/>
<rect x="124" y="83" width="69" height="29" rx="14.5" fill="#E9EBED"/>
<rect x="124" y="83" width="69" height="29" rx="14.5" stroke="#D3D7DB"/>
<path d="M156.368 102.168C155.696 102.168 155.113 102.047 154.618 101.804C154.123 101.561 153.727 101.23 153.428 100.81C153.139 100.381 152.961 99.8953 152.896 99.354H154.044C154.156 99.8953 154.417 100.334 154.828 100.67C155.239 100.997 155.757 101.16 156.382 101.16C156.849 101.16 157.25 101.053 157.586 100.838C157.922 100.614 158.179 100.315 158.356 99.942C158.543 99.5687 158.636 99.1533 158.636 98.696C158.636 97.968 158.431 97.38 158.02 96.932C157.609 96.484 157.077 96.26 156.424 96.26C155.883 96.26 155.421 96.3813 155.038 96.624C154.655 96.8667 154.375 97.184 154.198 97.576H153.078L153.918 92.2H159.056V93.222H154.828L154.254 96.204C154.478 95.9333 154.786 95.7093 155.178 95.532C155.579 95.3547 156.037 95.266 156.55 95.266C157.194 95.266 157.754 95.4153 158.23 95.714C158.715 96.0127 159.093 96.4187 159.364 96.932C159.635 97.4453 159.77 98.0287 159.77 98.682C159.77 99.3073 159.635 99.886 159.364 100.418C159.103 100.95 158.715 101.375 158.202 101.692C157.698 102.009 157.087 102.168 156.368 102.168ZM165.15 102.168C164.282 102.168 163.531 101.958 162.896 101.538C162.271 101.109 161.79 100.516 161.454 99.76C161.118 98.9947 160.95 98.108 160.95 97.1C160.95 96.092 161.118 95.21 161.454 94.454C161.79 93.6887 162.271 93.096 162.896 92.676C163.531 92.2467 164.282 92.032 165.15 92.032C166.018 92.032 166.765 92.2467 167.39 92.676C168.016 93.096 168.496 93.6887 168.832 94.454C169.168 95.21 169.336 96.092 169.336 97.1C169.336 98.108 169.168 98.9947 168.832 99.76C168.496 100.516 168.016 101.109 167.39 101.538C166.765 101.958 166.018 102.168 165.15 102.168ZM165.15 101.132C165.72 101.132 166.228 100.973 166.676 100.656C167.134 100.329 167.488 99.8673 167.74 99.27C168.002 98.6633 168.132 97.94 168.132 97.1C168.132 96.26 168.002 95.5413 167.74 94.944C167.488 94.3467 167.134 93.8893 166.676 93.572C166.228 93.2453 165.72 93.082 165.15 93.082C164.572 93.082 164.058 93.2453 163.61 93.572C163.162 93.8893 162.808 94.3467 162.546 94.944C162.285 95.5413 162.154 96.26 162.154 97.1C162.154 97.94 162.285 98.6633 162.546 99.27C162.808 99.8673 163.162 100.329 163.61 100.656C164.058 100.973 164.572 101.132 165.15 101.132ZM175.193 102V99.9H170.223V98.99L174.983 92.2H176.355V98.864H177.811V99.9H176.355V102H175.193ZM171.525 98.864H175.249V93.502L171.525 98.864Z" fill="black"/>
<path d="M145.781 93.8341C145.781 93.8266 145.78 93.8191 145.78 93.8116C145.779 93.8055 145.779 93.7994 145.778 93.7934C145.777 93.7863 145.776 93.7794 145.775 93.7724C145.773 93.7661 145.772 93.7598 145.771 93.7536C145.769 93.747 145.768 93.7405 145.766 93.734C145.764 93.7277 145.762 93.7214 145.76 93.7153C145.758 93.7089 145.756 93.7026 145.753 93.6964C145.751 93.6903 145.748 93.6843 145.746 93.6785C145.743 93.6723 145.74 93.6662 145.737 93.6602C145.734 93.6544 145.731 93.6486 145.728 93.643C145.725 93.6373 145.721 93.6316 145.718 93.626C145.714 93.6202 145.71 93.6146 145.706 93.609C145.703 93.6039 145.699 93.5988 145.695 93.5938C145.69 93.588 145.686 93.5825 145.681 93.577C145.679 93.5745 145.677 93.5718 145.674 93.5692C145.673 93.5671 145.67 93.5653 145.668 93.5632C145.663 93.5581 145.658 93.5531 145.653 93.5482C145.648 93.5437 145.644 93.5393 145.639 93.5351C145.634 93.5309 145.629 93.5269 145.624 93.5229C145.618 93.5186 145.613 93.5144 145.607 93.5105C145.602 93.507 145.597 93.5037 145.591 93.5004C145.585 93.4966 145.58 93.4929 145.574 93.4895C145.568 93.4864 145.562 93.4836 145.557 93.4807C145.551 93.4777 145.545 93.4747 145.539 93.4721C145.532 93.4693 145.526 93.4669 145.519 93.4644C145.514 93.4622 145.508 93.46 145.502 93.4581C145.495 93.4558 145.488 93.454 145.481 93.4521C145.476 93.4505 145.47 93.4489 145.464 93.4476C145.457 93.4461 145.45 93.4449 145.443 93.4436C145.437 93.4426 145.431 93.4416 145.425 93.4408C145.418 93.44 145.411 93.4395 145.404 93.439C145.398 93.4385 145.391 93.4381 145.384 93.4379C145.381 93.4379 145.378 93.4375 145.375 93.4375H135.625C135.622 93.4375 135.62 93.4379 135.617 93.4379C135.609 93.4381 135.602 93.4385 135.595 93.439C135.588 93.4395 135.582 93.44 135.576 93.4407C135.569 93.4416 135.563 93.4427 135.556 93.4438C135.549 93.4449 135.543 93.4461 135.536 93.4475C135.53 93.4489 135.524 93.4506 135.518 93.4523C135.511 93.4541 135.505 93.4559 135.498 93.458C135.492 93.46 135.486 93.4624 135.48 93.4647C135.474 93.467 135.468 93.4693 135.462 93.4719C135.455 93.4747 135.449 93.4779 135.443 93.481C135.437 93.4837 135.432 93.4864 135.427 93.4894C135.42 93.4929 135.414 93.4967 135.408 93.5006C135.403 93.5038 135.398 93.507 135.393 93.5104C135.387 93.5144 135.382 93.5187 135.376 93.523C135.371 93.5269 135.366 93.5309 135.361 93.535C135.356 93.5393 135.352 93.5437 135.347 93.5483C135.342 93.5531 135.337 93.5581 135.332 93.5632C135.33 93.5653 135.327 93.5671 135.326 93.5692C135.323 93.5718 135.321 93.5745 135.319 93.577C135.314 93.5825 135.31 93.588 135.305 93.5938C135.301 93.5988 135.297 93.6039 135.294 93.609C135.29 93.6146 135.286 93.6202 135.282 93.626C135.279 93.6316 135.275 93.6373 135.272 93.643C135.269 93.6486 135.266 93.6544 135.263 93.6602C135.26 93.6662 135.257 93.6723 135.254 93.6784C135.251 93.6843 135.249 93.6903 135.247 93.6964C135.244 93.7026 135.242 93.7089 135.24 93.7153C135.238 93.7214 135.236 93.7277 135.234 93.734C135.232 93.7405 135.231 93.747 135.229 93.7536C135.228 93.7598 135.227 93.7661 135.225 93.7724C135.224 93.7794 135.223 93.7863 135.222 93.7934C135.221 93.7994 135.221 93.8055 135.22 93.8116C135.22 93.8191 135.219 93.8266 135.219 93.8341C135.219 93.8373 135.219 93.8405 135.219 93.8438V100.75C135.219 100.965 135.305 101.172 135.457 101.324C135.609 101.477 135.816 101.562 136.031 101.562H144.969C145.184 101.562 145.391 101.477 145.543 101.324C145.695 101.172 145.781 100.965 145.781 100.75V93.8438C145.781 93.8405 145.781 93.8373 145.781 93.8341ZM144.331 94.25L140.5 97.7614L136.669 94.25H144.331ZM144.969 100.75H136.031V94.7673L140.225 98.612C140.3 98.6807 140.398 98.7188 140.5 98.7188C140.602 98.7188 140.7 98.6807 140.775 98.612L144.969 94.7672L144.969 100.75L144.969 100.75Z" fill="black"/>
<rect x="196" y="83" width="63" height="29" rx="14.5" fill="#E9EBED"/>
<rect x="196" y="83" width="63" height="29" rx="14.5" stroke="#D3D7DB"/>
<path d="M215.209 102.375V101.292C215.209 100.717 214.98 100.166 214.574 99.7596C214.168 99.3533 213.617 99.125 213.042 99.125H208.709C208.134 99.125 207.583 99.3533 207.177 99.7596C206.77 100.166 206.542 100.717 206.542 101.292V102.375" stroke="black" stroke-linecap="round" stroke-linejoin="round"/>
<path d="M210.875 96.9583C212.071 96.9583 213.041 95.9883 213.041 94.7917C213.041 93.595 212.071 92.625 210.875 92.625C209.678 92.625 208.708 93.595 208.708 94.7917C208.708 95.9883 209.678 96.9583 210.875 96.9583Z" stroke="black" stroke-linecap="round" stroke-linejoin="round"/>
<path d="M218.459 102.375V101.292C218.459 100.811 218.299 100.345 218.005 99.9657C217.711 99.5863 217.299 99.3153 216.834 99.1953" stroke="black" stroke-linecap="round" stroke-linejoin="round"/>
<path d="M214.666 92.6953C215.132 92.8146 215.545 93.0857 215.84 93.4657C216.135 93.8458 216.295 94.3132 216.295 94.7943C216.295 95.2754 216.135 95.7428 215.84 96.1228C215.545 96.5028 215.132 96.7739 214.666 96.8932" stroke="black" stroke-linecap="round" stroke-linejoin="round"/>
<path d="M226.002 102V93.516L224.42 93.866V93.054L226.394 92.2H227.192V102H226.002ZM233.419 102V99.9H228.449V98.99L233.209 92.2H234.581V98.864H236.037V99.9H234.581V102H233.419ZM229.751 98.864H233.475V93.502L229.751 98.864ZM240.229 102.168C239.604 102.168 239.039 102.056 238.535 101.832C238.031 101.599 237.625 101.253 237.317 100.796C237.019 100.339 236.86 99.7693 236.841 99.088H238.031C238.041 99.648 238.237 100.133 238.619 100.544C239.002 100.945 239.539 101.146 240.229 101.146C240.92 101.146 241.438 100.955 241.783 100.572C242.138 100.189 242.315 99.7273 242.315 99.186C242.315 98.7287 242.203 98.3553 241.979 98.066C241.765 97.7767 241.471 97.562 241.097 97.422C240.733 97.282 240.332 97.212 239.893 97.212H239.165V96.218H239.893C240.528 96.218 241.023 96.0733 241.377 95.784C241.741 95.4947 241.923 95.0887 241.923 94.566C241.923 94.1273 241.779 93.768 241.489 93.488C241.209 93.1987 240.789 93.054 240.229 93.054C239.688 93.054 239.254 93.2173 238.927 93.544C238.601 93.8613 238.419 94.2627 238.381 94.748H237.191C237.219 94.216 237.359 93.7447 237.611 93.334C237.873 92.9233 238.227 92.606 238.675 92.382C239.123 92.1487 239.641 92.032 240.229 92.032C240.864 92.032 241.391 92.144 241.811 92.368C242.241 92.592 242.563 92.8907 242.777 93.264C243.001 93.6373 243.113 94.048 243.113 94.496C243.113 94.9907 242.978 95.4433 242.707 95.854C242.437 96.2553 242.031 96.526 241.489 96.666C242.068 96.7873 242.549 97.0627 242.931 97.492C243.314 97.9213 243.505 98.486 243.505 99.186C243.505 99.7273 243.379 100.227 243.127 100.684C242.885 101.132 242.521 101.491 242.035 101.762C241.55 102.033 240.948 102.168 240.229 102.168Z" fill="black"/>
<rect x="24" y="83" width="97" height="29" rx="14.5" fill="#E9EBED"/>
<rect x="24" y="83" width="97" height="29" rx="14.5" stroke="#D3D7DB"/>
<path d="M54.002 102V93.516L52.42 93.866V93.054L54.394 92.2H55.192V102H54.002ZM56.8266 102V101.174C57.4893 100.651 58.1146 100.124 58.7026 99.592C59.2999 99.0507 59.8273 98.5187 60.2846 97.996C60.7513 97.4733 61.1153 96.96 61.3766 96.456C61.6473 95.952 61.7826 95.4667 61.7826 95C61.7826 94.6547 61.7219 94.3327 61.6006 94.034C61.4886 93.7353 61.3019 93.4973 61.0406 93.32C60.7793 93.1333 60.4246 93.04 59.9766 93.04C59.5473 93.04 59.1879 93.138 58.8986 93.334C58.6093 93.5207 58.3899 93.7727 58.2406 94.09C58.1006 94.4073 58.0306 94.748 58.0306 95.112H56.8966C56.8966 94.468 57.0319 93.9173 57.3026 93.46C57.5733 92.9933 57.9419 92.6387 58.4086 92.396C58.8753 92.1533 59.4026 92.032 59.9906 92.032C60.8586 92.032 61.5679 92.2793 62.1186 92.774C62.6786 93.2593 62.9586 93.9873 62.9586 94.958C62.9586 95.5367 62.8139 96.1107 62.5246 96.68C62.2353 97.24 61.8666 97.786 61.4186 98.318C60.9706 98.8407 60.4899 99.3307 59.9766 99.788C59.4726 100.245 59.0013 100.656 58.5626 101.02H63.2946V102H56.8266ZM64.0683 103.33L67.5823 91.304H68.7443L65.2303 103.33H64.0683ZM73.4496 102.168C72.5816 102.168 71.8303 101.958 71.1956 101.538C70.5703 101.109 70.0896 100.516 69.7536 99.76C69.4176 98.9947 69.2496 98.108 69.2496 97.1C69.2496 96.092 69.4176 95.21 69.7536 94.454C70.0896 93.6887 70.5703 93.096 71.1956 92.676C71.8303 92.2467 72.5816 92.032 73.4496 92.032C74.3176 92.032 75.0643 92.2467 75.6896 92.676C76.315 93.096 76.7956 93.6887 77.1316 94.454C77.4676 95.21 77.6356 96.092 77.6356 97.1C77.6356 98.108 77.4676 98.9947 77.1316 99.76C76.7956 100.516 76.315 101.109 75.6896 101.538C75.0643 101.958 74.3176 102.168 73.4496 102.168ZM73.4496 101.132C74.019 101.132 74.5276 100.973 74.9756 100.656C75.433 100.329 75.7876 99.8673 76.0396 99.27C76.301 98.6633 76.4316 97.94 76.4316 97.1C76.4316 96.26 76.301 95.5413 76.0396 94.944C75.7876 94.3467 75.433 93.8893 74.9756 93.572C74.5276 93.2453 74.019 93.082 73.4496 93.082C72.871 93.082 72.3576 93.2453 71.9096 93.572C71.4616 93.8893 71.107 94.3467 70.8456 94.944C70.5843 95.5413 70.4536 96.26 70.4536 97.1C70.4536 97.94 70.5843 98.6633 70.8456 99.27C71.107 99.8673 71.4616 100.329 71.9096 100.656C72.3576 100.973 72.871 101.132 73.4496 101.132ZM82.2887 102.168C81.6727 102.168 81.1453 102.047 80.7067 101.804C80.268 101.561 79.918 101.239 79.6567 100.838C79.4047 100.427 79.2507 99.9747 79.1947 99.48H80.2867C80.38 100.012 80.604 100.423 80.9587 100.712C81.3133 101.001 81.7613 101.146 82.3027 101.146C83.0493 101.146 83.67 100.801 84.1647 100.11C84.6593 99.41 84.9253 98.3227 84.9627 96.848C84.7387 97.2867 84.3793 97.6693 83.8847 97.996C83.3993 98.3133 82.8113 98.472 82.1207 98.472C81.57 98.472 81.0473 98.3413 80.5527 98.08C80.058 97.8187 79.6567 97.4547 79.3487 96.988C79.0407 96.512 78.8867 95.9567 78.8867 95.322C78.8867 94.7713 79.022 94.244 79.2927 93.74C79.5727 93.236 79.9647 92.8253 80.4687 92.508C80.9727 92.1907 81.5747 92.032 82.2747 92.032C82.984 92.032 83.5813 92.1673 84.0667 92.438C84.552 92.6993 84.9393 93.054 85.2287 93.502C85.5273 93.95 85.742 94.454 85.8727 95.014C86.0127 95.5647 86.0827 96.1293 86.0827 96.708C86.0827 97.7907 85.9333 98.7427 85.6347 99.564C85.336 100.376 84.902 101.015 84.3327 101.482C83.7727 101.939 83.0913 102.168 82.2887 102.168ZM82.3587 97.45C82.7973 97.45 83.1893 97.352 83.5347 97.156C83.88 96.9507 84.1553 96.68 84.3607 96.344C84.566 96.008 84.6687 95.644 84.6687 95.252C84.6687 94.832 84.566 94.4587 84.3607 94.132C84.1553 93.796 83.88 93.5347 83.5347 93.348C83.1893 93.1613 82.7973 93.068 82.3587 93.068C81.92 93.068 81.528 93.1613 81.1827 93.348C80.8373 93.5347 80.5667 93.796 80.3707 94.132C80.1747 94.4587 80.0767 94.8367 80.0767 95.266C80.0767 95.9287 80.2913 96.4607 80.7207 96.862C81.1593 97.254 81.7053 97.45 82.3587 97.45ZM86.2518 103.33L89.7658 91.304H90.9278L87.4138 103.33H86.2518ZM91.9305 102V101.174C92.5932 100.651 93.2185 100.124 93.8065 99.592C94.4038 99.0507 94.9312 98.5187 95.3885 97.996C95.8552 97.4733 96.2192 96.96 96.4805 96.456C96.7512 95.952 96.8865 95.4667 96.8865 95C96.8865 94.6547 96.8258 94.3327 96.7045 94.034C96.5925 93.7353 96.4058 93.4973 96.1445 93.32C95.8832 93.1333 95.5285 93.04 95.0805 93.04C94.6512 93.04 94.2918 93.138 94.0025 93.334C93.7132 93.5207 93.4938 93.7727 93.3445 94.09C93.2045 94.4073 93.1345 94.748 93.1345 95.112H92.0005C92.0005 94.468 92.1358 93.9173 92.4065 93.46C92.6772 92.9933 93.0458 92.6387 93.5125 92.396C93.9792 92.1533 94.5065 92.032 95.0945 92.032C95.9625 92.032 96.6718 92.2793 97.2225 92.774C97.7825 93.2593 98.0625 93.9873 98.0625 94.958C98.0625 95.5367 97.9178 96.1107 97.6285 96.68C97.3392 97.24 96.9705 97.786 96.5225 98.318C96.0745 98.8407 95.5938 99.3307 95.0805 99.788C94.5765 100.245 94.1052 100.656 93.6665 101.02H98.3985V102H91.9305ZM99.6622 102V101.174C100.325 100.651 100.95 100.124 101.538 99.592C102.136 99.0507 102.663 98.5187 103.12 97.996C103.587 97.4733 103.951 96.96 104.212 96.456C104.483 95.952 104.618 95.4667 104.618 95C104.618 94.6547 104.558 94.3327 104.436 94.034C104.324 93.7353 104.138 93.4973 103.876 93.32C103.615 93.1333 103.26 93.04 102.812 93.04C102.383 93.04 102.024 93.138 101.734 93.334C101.445 93.5207 101.226 93.7727 101.076 94.09C100.936 94.4073 100.866 94.748 100.866 95.112H99.7322C99.7322 94.468 99.8676 93.9173 100.138 93.46C100.409 92.9933 100.778 92.6387 101.244 92.396C101.711 92.1533 102.238 92.032 102.826 92.032C103.694 92.032 104.404 92.2793 104.954 92.774C105.514 93.2593 105.794 93.9873 105.794 94.958C105.794 95.5367 105.65 96.1107 105.36 96.68C105.071 97.24 104.702 97.786 104.254 98.318C103.806 98.8407 103.326 99.3307 102.812 99.788C102.308 100.245 101.837 100.656 101.398 101.02H106.13V102H99.6622Z" fill="black"/>
<path d="M44.2917 93.167H36.7083C36.11 93.167 35.625 93.652 35.625 94.2503V101.834C35.625 102.432 36.11 102.917 36.7083 102.917H44.2917C44.89 102.917 45.375 102.432 45.375 101.834V94.2503C45.375 93.652 44.89 93.167 44.2917 93.167Z" stroke="black" stroke-linecap="round" stroke-linejoin="round"/>
<path d="M42.6665 92.083V94.2497" stroke="black" stroke-linecap="round" stroke-linejoin="round"/>
<path d="M38.3335 92.083V94.2497" stroke="black" stroke-linecap="round" stroke-linejoin="round"/>
<path d="M35.625 96.417H45.375" stroke="black" stroke-linecap="round" stroke-linejoin="round"/>
<rect x="262" y="83" width="49" height="29" rx="14.5" fill="#E9EBED"/>
<rect x="262" y="83" width="49" height="29" rx="14.5" stroke="#D3D7DB"/>
<path d="M299.375 97.2292C299.377 97.9441 299.21 98.6494 298.887 99.2875C298.505 100.052 297.918 100.695 297.191 101.145C296.464 101.595 295.626 101.833 294.771 101.833C294.056 101.835 293.351 101.668 292.712 101.346L289.625 102.375L290.654 99.2875C290.332 98.6494 290.165 97.9441 290.167 97.2292C290.167 96.3743 290.405 95.5364 290.855 94.8093C291.305 94.0822 291.948 93.4947 292.712 93.1125C293.351 92.7902 294.056 92.6232 294.771 92.625H295.042C296.171 92.6873 297.237 93.1638 298.037 93.9634C298.836 94.763 299.313 95.8293 299.375 96.9583V97.2292Z" stroke="black" stroke-width="0.845" stroke-linecap="round" stroke-linejoin="round"/>
<path d="M283.781 93.8341C283.781 93.8266 283.78 93.8191 283.78 93.8116C283.779 93.8055 283.779 93.7994 283.778 93.7934C283.777 93.7863 283.776 93.7794 283.775 93.7724C283.773 93.7661 283.772 93.7598 283.771 93.7536C283.769 93.747 283.768 93.7405 283.766 93.734C283.764 93.7277 283.762 93.7214 283.76 93.7153C283.758 93.7089 283.756 93.7026 283.753 93.6964C283.751 93.6903 283.748 93.6843 283.746 93.6785C283.743 93.6723 283.74 93.6662 283.737 93.6602C283.734 93.6544 283.731 93.6486 283.728 93.643C283.725 93.6373 283.721 93.6316 283.718 93.626C283.714 93.6202 283.71 93.6146 283.706 93.609C283.703 93.6039 283.699 93.5988 283.695 93.5938C283.69 93.588 283.686 93.5825 283.681 93.577C283.679 93.5745 283.677 93.5718 283.674 93.5692C283.673 93.5671 283.67 93.5653 283.668 93.5632C283.663 93.5581 283.658 93.5531 283.653 93.5482C283.648 93.5437 283.644 93.5393 283.639 93.5351C283.634 93.5309 283.629 93.5269 283.624 93.5229C283.618 93.5186 283.613 93.5144 283.607 93.5105C283.602 93.507 283.597 93.5037 283.591 93.5004C283.585 93.4966 283.58 93.4929 283.574 93.4895C283.568 93.4864 283.562 93.4836 283.557 93.4807C283.551 93.4777 283.545 93.4747 283.539 93.4721C283.532 93.4693 283.526 93.4669 283.519 93.4644C283.514 93.4622 283.508 93.46 283.502 93.4581C283.495 93.4558 283.488 93.454 283.481 93.4521C283.476 93.4505 283.47 93.4489 283.464 93.4476C283.457 93.4461 283.45 93.4449 283.443 93.4436C283.437 93.4426 283.431 93.4416 283.425 93.4408C283.418 93.44 283.411 93.4395 283.404 93.439C283.398 93.4385 283.391 93.4381 283.384 93.4379C283.381 93.4379 283.378 93.4375 283.375 93.4375H273.625C273.622 93.4375 273.62 93.4379 273.617 93.4379C273.609 93.4381 273.602 93.4385 273.595 93.439C273.588 93.4395 273.582 93.44 273.576 93.4407C273.569 93.4416 273.563 93.4427 273.556 93.4438C273.549 93.4449 273.543 93.4461 273.536 93.4475C273.53 93.4489 273.524 93.4506 273.518 93.4523C273.511 93.4541 273.505 93.4559 273.498 93.458C273.492 93.46 273.486 93.4624 273.48 93.4647C273.474 93.467 273.468 93.4693 273.462 93.4719C273.455 93.4747 273.449 93.4779 273.443 93.481C273.437 93.4837 273.432 93.4864 273.427 93.4894C273.42 93.4929 273.414 93.4967 273.408 93.5006C273.403 93.5038 273.398 93.507 273.393 93.5104C273.387 93.5144 273.382 93.5187 273.376 93.523C273.371 93.5269 273.366 93.5309 273.361 93.535C273.356 93.5393 273.352 93.5437 273.347 93.5483C273.342 93.5531 273.337 93.5581 273.332 93.5632C273.33 93.5653 273.327 93.5671 273.326 93.5692C273.323 93.5718 273.321 93.5745 273.319 93.577C273.314 93.5825 273.31 93.588 273.305 93.5938C273.301 93.5988 273.297 93.6039 273.294 93.609C273.29 93.6146 273.286 93.6202 273.282 93.626C273.279 93.6316 273.275 93.6373 273.272 93.643C273.269 93.6486 273.266 93.6544 273.263 93.6602C273.26 93.6662 273.257 93.6723 273.254 93.6784C273.251 93.6843 273.249 93.6903 273.247 93.6964C273.244 93.7026 273.242 93.7089 273.24 93.7153C273.238 93.7214 273.236 93.7277 273.234 93.734C273.232 93.7405 273.231 93.747 273.229 93.7536C273.228 93.7598 273.227 93.7661 273.225 93.7724C273.224 93.7794 273.223 93.7863 273.222 93.7934C273.221 93.7994 273.221 93.8055 273.22 93.8116C273.22 93.8191 273.219 93.8266 273.219 93.8341C273.219 93.8373 273.219 93.8405 273.219 93.8438V100.75C273.219 100.965 273.305 101.172 273.457 101.324C273.609 101.477 273.816 101.562 274.031 101.562H282.969C283.184 101.562 283.391 101.477 283.543 101.324C283.695 101.172 283.781 100.965 283.781 100.75V93.8438C283.781 93.8405 283.781 93.8373 283.781 93.8341ZM282.331 94.25L278.5 97.7614L274.669 94.25H282.331ZM282.969 100.75H274.031V94.7673L278.225 98.612C278.3 98.6807 278.398 98.7188 278.5 98.7188C278.602 98.7188 278.7 98.6807 278.775 98.612L282.969 94.7672L282.969 100.75L282.969 100.75Z" fill="black"/>
<defs>
<filter id="filter0_d_152_3816" x="-2" y="0" width="379" height="144" filterUnits="userSpaceOnUse" color-interpolation-filters="sRGB">
<feFlood flood-opacity="0" result="BackgroundImageFix"/>
<feColorMatrix in="SourceAlpha" type="matrix" values="0 0 0 0 0 0 0 0 0 0 0 0 0 0 0 0 0 0 127 0" result="hardAlpha"/>
<feOffset/>
<feGaussianBlur stdDeviation="7"/>
<feComposite in2="hardAlpha" operator="out"/>
<feColorMatrix type="matrix" values="0 0 0 0 0.27106 0 0 0 0 0.291722 0 0 0 0 0.320993 0 0 0 0.12 0"/>
<feBlend mode="normal" in2="BackgroundImageFix" result="effect1_dropShadow_152_3816"/>
<feBlend mode="normal" in="SourceGraphic" in2="effect1_dropShadow_152_3816" result="shape"/>
</filter>
</defs>
</svg>
