<svg width="375" height="144" viewBox="0 0 375 144" fill="none" xmlns="http://www.w3.org/2000/svg">
<g filter="url(#filter0_d_152_3892)">
<rect x="12" y="14" width="351" height="116" rx="14" fill="white"/>
<rect x="12.5" y="14.5" width="350" height="115" rx="13.5" stroke="#D3D7DB"/>
</g>
<path d="M332 53L338 47L332 41" stroke="#1F3758" stroke-width="2" stroke-linecap="round" stroke-linejoin="round"/>
<path d="M74.136 52V40.8H77.992C78.8773 40.8 79.6027 40.9493 80.168 41.248C80.744 41.5467 81.1707 41.952 81.448 42.464C81.7253 42.9653 81.864 43.5253 81.864 44.144C81.864 44.8373 81.6773 45.4667 81.304 46.032C80.9413 46.5973 80.3707 47.0027 79.592 47.248L81.976 52H80.008L77.832 47.488H75.832V52H74.136ZM75.832 46.208H77.896C78.664 46.208 79.224 46.0213 79.576 45.648C79.9387 45.2747 80.12 44.7893 80.12 44.192C80.12 43.5947 79.944 43.12 79.592 42.768C79.24 42.4053 78.6693 42.224 77.88 42.224H75.832V46.208ZM86.714 52.192C85.9353 52.192 85.242 52.0213 84.634 51.68C84.0367 51.328 83.5673 50.8427 83.226 50.224C82.8847 49.6053 82.714 48.8853 82.714 48.064C82.714 47.232 82.8793 46.5013 83.21 45.872C83.5513 45.2427 84.0207 44.752 84.618 44.4C85.226 44.048 85.93 43.872 86.73 43.872C87.5087 43.872 88.186 44.048 88.762 44.4C89.338 44.7413 89.786 45.2 90.106 45.776C90.426 46.352 90.586 46.9867 90.586 47.68C90.586 47.7867 90.5807 47.904 90.57 48.032C90.57 48.1493 90.5647 48.2827 90.554 48.432H84.378C84.4313 49.2 84.682 49.7867 85.13 50.192C85.5887 50.5867 86.1167 50.784 86.714 50.784C87.194 50.784 87.594 50.6773 87.914 50.464C88.2447 50.24 88.49 49.9413 88.65 49.568H90.346C90.1327 50.3147 89.706 50.9387 89.066 51.44C88.4367 51.9413 87.6527 52.192 86.714 52.192ZM86.714 45.264C86.1487 45.264 85.6473 45.4347 85.21 45.776C84.7727 46.1067 84.506 46.608 84.41 47.28H88.89C88.858 46.6613 88.6393 46.1707 88.234 45.808C87.8287 45.4453 87.322 45.264 86.714 45.264ZM92.4258 52V45.488H91.2898V44.064H92.4258V42.912C92.4258 42.048 92.6391 41.4293 93.0658 41.056C93.5031 40.672 94.1164 40.48 94.9058 40.48H95.7378V41.92H95.1618C94.7884 41.92 94.5218 42 94.3618 42.16C94.2018 42.3093 94.1218 42.5653 94.1218 42.928V44.064H95.9458V45.488H94.1218V52H92.4258ZM100.637 52.192C99.8578 52.192 99.1645 52.0213 98.5565 51.68C97.9592 51.328 97.4898 50.8427 97.1485 50.224C96.8072 49.6053 96.6365 48.8853 96.6365 48.064C96.6365 47.232 96.8018 46.5013 97.1325 45.872C97.4738 45.2427 97.9432 44.752 98.5405 44.4C99.1485 44.048 99.8525 43.872 100.653 43.872C101.431 43.872 102.109 44.048 102.685 44.4C103.261 44.7413 103.709 45.2 104.029 45.776C104.349 46.352 104.509 46.9867 104.509 47.68C104.509 47.7867 104.503 47.904 104.493 48.032C104.493 48.1493 104.487 48.2827 104.477 48.432H98.3005C98.3538 49.2 98.6045 49.7867 99.0525 50.192C99.5112 50.5867 100.039 50.784 100.637 50.784C101.117 50.784 101.517 50.6773 101.837 50.464C102.167 50.24 102.413 49.9413 102.573 49.568H104.269C104.055 50.3147 103.629 50.9387 102.989 51.44C102.359 51.9413 101.575 52.192 100.637 52.192ZM100.637 45.264C100.071 45.264 99.5698 45.4347 99.1325 45.776C98.6952 46.1067 98.4285 46.608 98.3325 47.28H102.813C102.781 46.6613 102.562 46.1707 102.157 45.808C101.751 45.4453 101.245 45.264 100.637 45.264ZM105.948 52V44.064H107.468L107.612 45.568C107.89 45.0453 108.274 44.6347 108.764 44.336C109.266 44.0267 109.868 43.872 110.572 43.872V45.648H110.108C109.639 45.648 109.218 45.728 108.844 45.888C108.482 46.0373 108.188 46.2987 107.964 46.672C107.751 47.0347 107.644 47.5413 107.644 48.192V52H105.948ZM111.706 52V44.064H113.226L113.37 45.568C113.648 45.0453 114.032 44.6347 114.522 44.336C115.024 44.0267 115.626 43.872 116.33 43.872V45.648H115.866C115.397 45.648 114.976 45.728 114.602 45.888C114.24 46.0373 113.946 46.2987 113.722 46.672C113.509 47.0347 113.402 47.5413 113.402 48.192V52H111.706ZM120.153 52.192C119.481 52.192 118.926 52.08 118.489 51.856C118.051 51.632 117.726 51.3387 117.513 50.976C117.299 50.6027 117.193 50.1973 117.193 49.76C117.193 48.992 117.491 48.384 118.089 47.936C118.686 47.488 119.539 47.264 120.649 47.264H122.729V47.12C122.729 46.5013 122.558 46.0373 122.217 45.728C121.886 45.4187 121.454 45.264 120.921 45.264C120.451 45.264 120.041 45.3813 119.689 45.616C119.347 45.84 119.139 46.176 119.065 46.624H117.369C117.422 46.048 117.614 45.5573 117.945 45.152C118.286 44.736 118.713 44.4213 119.225 44.208C119.747 43.984 120.318 43.872 120.937 43.872C122.046 43.872 122.905 44.1653 123.513 44.752C124.121 45.328 124.425 46.1173 124.425 47.12V52H122.953L122.809 50.64C122.585 51.0773 122.259 51.4453 121.833 51.744C121.406 52.0427 120.846 52.192 120.153 52.192ZM120.489 50.816C120.947 50.816 121.331 50.7093 121.641 50.496C121.961 50.272 122.206 49.9787 122.377 49.616C122.558 49.2533 122.67 48.8533 122.713 48.416H120.825C120.153 48.416 119.673 48.5333 119.385 48.768C119.107 49.0027 118.969 49.296 118.969 49.648C118.969 50.0107 119.102 50.2987 119.369 50.512C119.646 50.7147 120.019 50.816 120.489 50.816ZM126.082 52V40.48H127.778V52H126.082ZM137.077 52.192C136.298 52.192 135.6 52.016 134.981 51.664C134.373 51.312 133.893 50.8267 133.541 50.208C133.2 49.5787 133.029 48.8533 133.029 48.032C133.029 47.2107 133.2 46.4907 133.541 45.872C133.893 45.2427 134.373 44.752 134.981 44.4C135.6 44.048 136.298 43.872 137.077 43.872C138.058 43.872 138.88 44.128 139.541 44.64C140.213 45.152 140.645 45.8453 140.837 46.72H139.061C138.954 46.2827 138.72 45.9413 138.357 45.696C137.994 45.4507 137.568 45.328 137.077 45.328C136.661 45.328 136.277 45.4347 135.925 45.648C135.573 45.8507 135.29 46.1547 135.077 46.56C134.864 46.9547 134.757 47.4453 134.757 48.032C134.757 48.6187 134.864 49.1147 135.077 49.52C135.29 49.9147 135.573 50.2187 135.925 50.432C136.277 50.6453 136.661 50.752 137.077 50.752C137.568 50.752 137.994 50.6293 138.357 50.384C138.72 50.1387 138.954 49.792 139.061 49.344H140.837C140.656 50.1973 140.229 50.8853 139.557 51.408C138.885 51.9307 138.058 52.192 137.077 52.192ZM145.044 52.192C144.372 52.192 143.818 52.08 143.38 51.856C142.943 51.632 142.618 51.3387 142.404 50.976C142.191 50.6027 142.084 50.1973 142.084 49.76C142.084 48.992 142.383 48.384 142.98 47.936C143.578 47.488 144.431 47.264 145.54 47.264H147.62V47.12C147.62 46.5013 147.45 46.0373 147.108 45.728C146.778 45.4187 146.346 45.264 145.812 45.264C145.343 45.264 144.932 45.3813 144.58 45.616C144.239 45.84 144.031 46.176 143.956 46.624H142.26C142.314 46.048 142.506 45.5573 142.836 45.152C143.178 44.736 143.604 44.4213 144.116 44.208C144.639 43.984 145.21 43.872 145.828 43.872C146.938 43.872 147.796 44.1653 148.404 44.752C149.012 45.328 149.316 46.1173 149.316 47.12V52H147.844L147.7 50.64C147.476 51.0773 147.151 51.4453 146.724 51.744C146.298 52.0427 145.738 52.192 145.044 52.192ZM145.38 50.816C145.839 50.816 146.223 50.7093 146.532 50.496C146.852 50.272 147.098 49.9787 147.268 49.616C147.45 49.2533 147.562 48.8533 147.604 48.416H145.716C145.044 48.416 144.564 48.5333 144.276 48.768C143.999 49.0027 143.86 49.296 143.86 49.648C143.86 50.0107 143.994 50.2987 144.26 50.512C144.538 50.7147 144.911 50.816 145.38 50.816ZM150.974 52V44.064H152.478L152.622 45.184C152.878 44.7787 153.214 44.4587 153.63 44.224C154.057 43.9893 154.547 43.872 155.102 43.872C156.361 43.872 157.235 44.368 157.726 45.36C158.014 44.9013 158.398 44.5387 158.878 44.272C159.369 44.0053 159.897 43.872 160.462 43.872C161.454 43.872 162.233 44.1707 162.798 44.768C163.363 45.3653 163.646 46.256 163.646 47.44V52H161.95V47.616C161.95 46.08 161.363 45.312 160.19 45.312C159.593 45.312 159.102 45.536 158.718 45.984C158.345 46.432 158.158 47.072 158.158 47.904V52H156.462V47.616C156.462 46.08 155.87 45.312 154.686 45.312C154.099 45.312 153.614 45.536 153.23 45.984C152.857 46.432 152.67 47.072 152.67 47.904V52H150.974ZM165.31 55.52V44.064H166.83L167.006 45.296C167.262 44.9227 167.614 44.592 168.062 44.304C168.51 44.016 169.086 43.872 169.79 43.872C170.558 43.872 171.235 44.0533 171.822 44.416C172.409 44.7787 172.867 45.2747 173.198 45.904C173.539 46.5333 173.71 47.248 173.71 48.048C173.71 48.848 173.539 49.5627 173.198 50.192C172.867 50.8107 172.409 51.3013 171.822 51.664C171.235 52.016 170.553 52.192 169.774 52.192C169.155 52.192 168.606 52.0693 168.126 51.824C167.657 51.5787 167.283 51.232 167.006 50.784V55.52H165.31ZM169.486 50.72C170.211 50.72 170.809 50.4747 171.278 49.984C171.747 49.4827 171.982 48.832 171.982 48.032C171.982 47.5093 171.875 47.0453 171.662 46.64C171.449 46.2347 171.155 45.92 170.782 45.696C170.409 45.4613 169.977 45.344 169.486 45.344C168.761 45.344 168.163 45.5947 167.694 46.096C167.235 46.5973 167.006 47.2427 167.006 48.032C167.006 48.832 167.235 49.4827 167.694 49.984C168.163 50.4747 168.761 50.72 169.486 50.72ZM177.912 52.192C177.24 52.192 176.686 52.08 176.248 51.856C175.811 51.632 175.486 51.3387 175.272 50.976C175.059 50.6027 174.952 50.1973 174.952 49.76C174.952 48.992 175.251 48.384 175.848 47.936C176.446 47.488 177.299 47.264 178.408 47.264H180.488V47.12C180.488 46.5013 180.318 46.0373 179.976 45.728C179.646 45.4187 179.214 45.264 178.68 45.264C178.211 45.264 177.8 45.3813 177.448 45.616C177.107 45.84 176.899 46.176 176.824 46.624H175.128C175.182 46.048 175.374 45.5573 175.704 45.152C176.046 44.736 176.472 44.4213 176.984 44.208C177.507 43.984 178.078 43.872 178.696 43.872C179.806 43.872 180.664 44.1653 181.272 44.752C181.88 45.328 182.184 46.1173 182.184 47.12V52H180.712L180.568 50.64C180.344 51.0773 180.019 51.4453 179.592 51.744C179.166 52.0427 178.606 52.192 177.912 52.192ZM178.248 50.816C178.707 50.816 179.091 50.7093 179.4 50.496C179.72 50.272 179.966 49.9787 180.136 49.616C180.318 49.2533 180.43 48.8533 180.472 48.416H178.584C177.912 48.416 177.432 48.5333 177.144 48.768C176.867 49.0027 176.728 49.296 176.728 49.648C176.728 50.0107 176.862 50.2987 177.128 50.512C177.406 50.7147 177.779 50.816 178.248 50.816ZM184.802 42.56C184.482 42.56 184.215 42.464 184.002 42.272C183.799 42.0693 183.698 41.8187 183.698 41.52C183.698 41.2213 183.799 40.976 184.002 40.784C184.215 40.5813 184.482 40.48 184.802 40.48C185.122 40.48 185.383 40.5813 185.586 40.784C185.799 40.976 185.906 41.2213 185.906 41.52C185.906 41.8187 185.799 42.0693 185.586 42.272C185.383 42.464 185.122 42.56 184.802 42.56ZM183.954 52V44.064H185.65V52H183.954ZM190.817 49.568C190.401 49.568 190.017 49.52 189.665 49.424L188.977 50.096C189.094 50.1707 189.238 50.2347 189.409 50.288C189.58 50.3413 189.82 50.3893 190.129 50.432C190.438 50.4747 190.86 50.5173 191.393 50.56C192.449 50.656 193.212 50.912 193.681 51.328C194.15 51.7333 194.385 52.2773 194.385 52.96C194.385 53.4293 194.257 53.872 194.001 54.288C193.756 54.7147 193.366 55.056 192.833 55.312C192.31 55.5787 191.638 55.712 190.817 55.712C189.708 55.712 188.806 55.4987 188.113 55.072C187.43 54.656 187.089 54.0213 187.089 53.168C187.089 52.8373 187.174 52.5067 187.345 52.176C187.526 51.856 187.809 51.552 188.193 51.264C187.969 51.168 187.772 51.0667 187.601 50.96C187.441 50.8427 187.297 50.7253 187.169 50.608V50.224L188.545 48.816C187.926 48.2827 187.617 47.584 187.617 46.72C187.617 46.1973 187.74 45.7227 187.985 45.296C188.241 44.8587 188.609 44.512 189.089 44.256C189.569 44 190.145 43.872 190.817 43.872C191.265 43.872 191.681 43.936 192.065 44.064H195.025V45.184L193.617 45.264C193.873 45.7013 194.001 46.1867 194.001 46.72C194.001 47.2533 193.873 47.7333 193.617 48.16C193.372 48.5867 193.009 48.928 192.529 49.184C192.06 49.44 191.489 49.568 190.817 49.568ZM190.817 48.24C191.308 48.24 191.702 48.112 192.001 47.856C192.31 47.5893 192.465 47.216 192.465 46.736C192.465 46.2453 192.31 45.872 192.001 45.616C191.702 45.36 191.308 45.232 190.817 45.232C190.316 45.232 189.91 45.36 189.601 45.616C189.302 45.872 189.153 46.2453 189.153 46.736C189.153 47.216 189.302 47.5893 189.601 47.856C189.91 48.112 190.316 48.24 190.817 48.24ZM188.689 53.008C188.689 53.4667 188.892 53.808 189.297 54.032C189.702 54.2667 190.209 54.384 190.817 54.384C191.404 54.384 191.878 54.256 192.241 54C192.604 53.7547 192.785 53.424 192.785 53.008C192.785 52.6987 192.662 52.432 192.417 52.208C192.172 51.9947 191.708 51.8613 191.025 51.808C190.513 51.776 190.06 51.728 189.665 51.664C189.292 51.8667 189.036 52.0853 188.897 52.32C188.758 52.5547 188.689 52.784 188.689 53.008ZM196.218 52V44.064H197.722L197.85 45.456C198.095 44.9653 198.452 44.5813 198.922 44.304C199.402 44.016 199.951 43.872 200.57 43.872C201.53 43.872 202.282 44.1707 202.826 44.768C203.38 45.3653 203.658 46.256 203.658 47.44V52H201.978V47.616C201.978 46.08 201.348 45.312 200.09 45.312C199.46 45.312 198.938 45.536 198.522 45.984C198.116 46.432 197.914 47.072 197.914 47.904V52H196.218Z" fill="black"/>
<path d="M30.6304 28.4164C27.2059 30.5182 25.1256 32.4213 25.8269 37.33C26.5358 42.292 27.2503 41.3485 29.6431 45.7502C32.0359 50.152 28.3193 50.0119 30.6011 57.9449C32.8078 65.617 39.9605 67.665 51.3636 64.705C62.7668 61.745 63.6362 52.2793 58.8133 44.1299C55.1962 38.0179 55.5966 37.8625 48.2481 32.3725C39.2895 25.6797 35.5293 25.4097 30.6304 28.4164Z" fill="#FFDEDE"/>
<path d="M52.3392 53.5494C52.2445 55.8618 52.5582 56.5579 51.8392 56.5166C51.0758 56.4724 50.558 55.7468 50.1763 55.0861C48.6377 52.4286 47.3787 49.6177 46.2603 46.7582C45.9333 45.9235 45.6123 45.0401 45.7321 44.1508C45.8504 43.2616 46.6405 42.766 47.4645 42.4047C48.401 41.9933 48.8019 42.4622 49.1422 43.9045C49.4247 45.1006 49.3952 45.3808 48.475 45.6919C47.1109 46.1521 46.5206 44.7053 45.9762 43.6701C44.1654 40.228 43.8754 36.0235 45.198 32.3675C45.3844 31.8514 45.6788 31.2792 46.2188 31.173C46.9334 31.0299 47.4793 31.7806 47.8018 32.431C51.0861 39.0423 52.6588 46.4898 52.3274 53.8591C52.3067 54.3119 52.2504 54.8221 51.8895 55.0979C51.5492 55.3575 51.0684 55.3044 50.6512 55.2041C48.4468 54.6791 45.67 52.3652 43.5218 51.647C41.9655 51.1264 37.3038 50.0439 34.6882 50.0439C34.1926 50.0439 33.0061 44.9634 33.7236 44.6169C34.9737 44.0152 43.0647 39.1573 45.5694 34.0547C45.6034 38.7621 46.4896 45.4117 49.5046 52.4036C49.5845 52.5879 49.6511 52.7929 49.5993 52.9876C49.5179 53.3002 49.1318 53.4492 48.8137 53.3902C48.4957 53.3312 48.2264 53.1247 47.9646 52.9359C44.516 50.451 40.0289 50.0557 35.7859 49.746C35.7327 51.1205 36.4709 53.3651 37.2372 54.508C36.604 55.1392 35.2119 54.9298 34.5757 54.3016C34.3597 54.0877 34.2739 53.781 34.197 53.4875L32.0252 45.2923C30.7736 45.5931 28.6743 45.9574 27.7378 46.8378C26.8028 47.7183 28.5205 50.656 29.022 50.6943C30.1375 50.7784 30.497 49.9363 30.3742 49.5057C30.2514 49.075 30.0324 48.6562 30.0591 48.2094C30.0857 47.7625 30.5236 47.3009 30.9393 47.469C31.4542 47.677 31.2914 48.4261 31.1464 48.96C30.6567 50.7622 31.4763 52.6321 32.2752 54.3207C32.4202 54.626 32.5859 54.9549 32.8892 55.1053C33.1925 55.2557 33.7709 55.0876 33.6733 54.7617C33.3863 53.7987 31.6613 54.8915 30.6553 54.9549" stroke="#1F3758" stroke-miterlimit="10" stroke-linecap="round" stroke-linejoin="round"/>
<rect x="124" y="83" width="69" height="29" rx="14.5" fill="#E9EBED"/>
<rect x="124" y="83" width="69" height="29" rx="14.5" stroke="#D3D7DB"/>
<path d="M156.368 102.168C155.696 102.168 155.113 102.047 154.618 101.804C154.123 101.561 153.727 101.23 153.428 100.81C153.139 100.381 152.961 99.8953 152.896 99.354H154.044C154.156 99.8953 154.417 100.334 154.828 100.67C155.239 100.997 155.757 101.16 156.382 101.16C156.849 101.16 157.25 101.053 157.586 100.838C157.922 100.614 158.179 100.315 158.356 99.942C158.543 99.5687 158.636 99.1533 158.636 98.696C158.636 97.968 158.431 97.38 158.02 96.932C157.609 96.484 157.077 96.26 156.424 96.26C155.883 96.26 155.421 96.3813 155.038 96.624C154.655 96.8667 154.375 97.184 154.198 97.576H153.078L153.918 92.2H159.056V93.222H154.828L154.254 96.204C154.478 95.9333 154.786 95.7093 155.178 95.532C155.579 95.3547 156.037 95.266 156.55 95.266C157.194 95.266 157.754 95.4153 158.23 95.714C158.715 96.0127 159.093 96.4187 159.364 96.932C159.635 97.4453 159.77 98.0287 159.77 98.682C159.77 99.3073 159.635 99.886 159.364 100.418C159.103 100.95 158.715 101.375 158.202 101.692C157.698 102.009 157.087 102.168 156.368 102.168ZM165.15 102.168C164.282 102.168 163.531 101.958 162.896 101.538C162.271 101.109 161.79 100.516 161.454 99.76C161.118 98.9947 160.95 98.108 160.95 97.1C160.95 96.092 161.118 95.21 161.454 94.454C161.79 93.6887 162.271 93.096 162.896 92.676C163.531 92.2467 164.282 92.032 165.15 92.032C166.018 92.032 166.765 92.2467 167.39 92.676C168.016 93.096 168.496 93.6887 168.832 94.454C169.168 95.21 169.336 96.092 169.336 97.1C169.336 98.108 169.168 98.9947 168.832 99.76C168.496 100.516 168.016 101.109 167.39 101.538C166.765 101.958 166.018 102.168 165.15 102.168ZM165.15 101.132C165.72 101.132 166.228 100.973 166.676 100.656C167.134 100.329 167.488 99.8673 167.74 99.27C168.002 98.6633 168.132 97.94 168.132 97.1C168.132 96.26 168.002 95.5413 167.74 94.944C167.488 94.3467 167.134 93.8893 166.676 93.572C166.228 93.2453 165.72 93.082 165.15 93.082C164.572 93.082 164.058 93.2453 163.61 93.572C163.162 93.8893 162.808 94.3467 162.546 94.944C162.285 95.5413 162.154 96.26 162.154 97.1C162.154 97.94 162.285 98.6633 162.546 99.27C162.808 99.8673 163.162 100.329 163.61 100.656C164.058 100.973 164.572 101.132 165.15 101.132ZM175.193 102V99.9H170.223V98.99L174.983 92.2H176.355V98.864H177.811V99.9H176.355V102H175.193ZM171.525 98.864H175.249V93.502L171.525 98.864Z" fill="black"/>
<path d="M145.781 93.8341C145.781 93.8266 145.78 93.8191 145.78 93.8116C145.779 93.8055 145.779 93.7994 145.778 93.7934C145.777 93.7863 145.776 93.7794 145.775 93.7724C145.773 93.7661 145.772 93.7598 145.771 93.7536C145.769 93.747 145.768 93.7405 145.766 93.734C145.764 93.7277 145.762 93.7214 145.76 93.7153C145.758 93.7089 145.756 93.7026 145.753 93.6964C145.751 93.6903 145.748 93.6843 145.746 93.6785C145.743 93.6723 145.74 93.6662 145.737 93.6602C145.734 93.6544 145.731 93.6486 145.728 93.643C145.725 93.6373 145.721 93.6316 145.718 93.626C145.714 93.6202 145.71 93.6146 145.706 93.609C145.703 93.6039 145.699 93.5988 145.695 93.5938C145.69 93.588 145.686 93.5825 145.681 93.577C145.679 93.5745 145.677 93.5718 145.674 93.5692C145.673 93.5671 145.67 93.5653 145.668 93.5632C145.663 93.5581 145.658 93.5531 145.653 93.5482C145.648 93.5437 145.644 93.5393 145.639 93.5351C145.634 93.5309 145.629 93.5269 145.624 93.5229C145.618 93.5186 145.613 93.5144 145.607 93.5105C145.602 93.507 145.597 93.5037 145.591 93.5004C145.585 93.4966 145.58 93.4929 145.574 93.4895C145.568 93.4864 145.562 93.4836 145.557 93.4807C145.551 93.4777 145.545 93.4747 145.539 93.4721C145.532 93.4693 145.526 93.4669 145.519 93.4644C145.514 93.4622 145.508 93.46 145.502 93.4581C145.495 93.4558 145.488 93.454 145.481 93.4521C145.476 93.4505 145.47 93.4489 145.464 93.4476C145.457 93.4461 145.45 93.4449 145.443 93.4436C145.437 93.4426 145.431 93.4416 145.425 93.4408C145.418 93.44 145.411 93.4395 145.404 93.439C145.398 93.4385 145.391 93.4381 145.384 93.4379C145.381 93.4379 145.378 93.4375 145.375 93.4375H135.625C135.622 93.4375 135.62 93.4379 135.617 93.4379C135.609 93.4381 135.602 93.4385 135.595 93.439C135.588 93.4395 135.582 93.44 135.576 93.4407C135.569 93.4416 135.563 93.4427 135.556 93.4438C135.549 93.4449 135.543 93.4461 135.536 93.4475C135.53 93.4489 135.524 93.4506 135.518 93.4523C135.511 93.4541 135.505 93.4559 135.498 93.458C135.492 93.46 135.486 93.4624 135.48 93.4647C135.474 93.467 135.468 93.4693 135.462 93.4719C135.455 93.4747 135.449 93.4779 135.443 93.481C135.437 93.4837 135.432 93.4864 135.427 93.4894C135.42 93.4929 135.414 93.4967 135.408 93.5006C135.403 93.5038 135.398 93.507 135.393 93.5104C135.387 93.5144 135.382 93.5187 135.376 93.523C135.371 93.5269 135.366 93.5309 135.361 93.535C135.356 93.5393 135.352 93.5437 135.347 93.5483C135.342 93.5531 135.337 93.5581 135.332 93.5632C135.33 93.5653 135.327 93.5671 135.326 93.5692C135.323 93.5718 135.321 93.5745 135.319 93.577C135.314 93.5825 135.31 93.588 135.305 93.5938C135.301 93.5988 135.297 93.6039 135.294 93.609C135.29 93.6146 135.286 93.6202 135.282 93.626C135.279 93.6316 135.275 93.6373 135.272 93.643C135.269 93.6486 135.266 93.6544 135.263 93.6602C135.26 93.6662 135.257 93.6723 135.254 93.6784C135.251 93.6843 135.249 93.6903 135.247 93.6964C135.244 93.7026 135.242 93.7089 135.24 93.7153C135.238 93.7214 135.236 93.7277 135.234 93.734C135.232 93.7405 135.231 93.747 135.229 93.7536C135.228 93.7598 135.227 93.7661 135.225 93.7724C135.224 93.7794 135.223 93.7863 135.222 93.7934C135.221 93.7994 135.221 93.8055 135.22 93.8116C135.22 93.8191 135.219 93.8266 135.219 93.8341C135.219 93.8373 135.219 93.8405 135.219 93.8438V100.75C135.219 100.965 135.305 101.172 135.457 101.324C135.609 101.477 135.816 101.562 136.031 101.562H144.969C145.184 101.562 145.391 101.477 145.543 101.324C145.695 101.172 145.781 100.965 145.781 100.75V93.8438C145.781 93.8405 145.781 93.8373 145.781 93.8341ZM144.331 94.25L140.5 97.7614L136.669 94.25H144.331ZM144.969 100.75H136.031V94.7673L140.225 98.612C140.3 98.6807 140.398 98.7188 140.5 98.7188C140.602 98.7188 140.7 98.6807 140.775 98.612L144.969 94.7672L144.969 100.75L144.969 100.75Z" fill="black"/>
<rect x="196" y="83" width="63" height="29" rx="14.5" fill="#E9EBED"/>
<rect x="196" y="83" width="63" height="29" rx="14.5" stroke="#D3D7DB"/>
<path d="M215.209 102.375V101.292C215.209 100.717 214.98 100.166 214.574 99.7596C214.168 99.3533 213.617 99.125 213.042 99.125H208.709C208.134 99.125 207.583 99.3533 207.177 99.7596C206.77 100.166 206.542 100.717 206.542 101.292V102.375" stroke="black" stroke-linecap="round" stroke-linejoin="round"/>
<path d="M210.875 96.9583C212.071 96.9583 213.041 95.9883 213.041 94.7917C213.041 93.595 212.071 92.625 210.875 92.625C209.678 92.625 208.708 93.595 208.708 94.7917C208.708 95.9883 209.678 96.9583 210.875 96.9583Z" stroke="black" stroke-linecap="round" stroke-linejoin="round"/>
<path d="M218.459 102.375V101.292C218.459 100.811 218.299 100.345 218.005 99.9657C217.711 99.5863 217.299 99.3153 216.834 99.1953" stroke="black" stroke-linecap="round" stroke-linejoin="round"/>
<path d="M214.666 92.6953C215.132 92.8146 215.545 93.0857 215.84 93.4657C216.135 93.8458 216.295 94.3132 216.295 94.7943C216.295 95.2754 216.135 95.7428 215.84 96.1228C215.545 96.5028 215.132 96.7739 214.666 96.8932" stroke="black" stroke-linecap="round" stroke-linejoin="round"/>
<path d="M226.002 102V93.516L224.42 93.866V93.054L226.394 92.2H227.192V102H226.002ZM233.419 102V99.9H228.449V98.99L233.209 92.2H234.581V98.864H236.037V99.9H234.581V102H233.419ZM229.751 98.864H233.475V93.502L229.751 98.864ZM240.229 102.168C239.604 102.168 239.039 102.056 238.535 101.832C238.031 101.599 237.625 101.253 237.317 100.796C237.019 100.339 236.86 99.7693 236.841 99.088H238.031C238.041 99.648 238.237 100.133 238.619 100.544C239.002 100.945 239.539 101.146 240.229 101.146C240.92 101.146 241.438 100.955 241.783 100.572C242.138 100.189 242.315 99.7273 242.315 99.186C242.315 98.7287 242.203 98.3553 241.979 98.066C241.765 97.7767 241.471 97.562 241.097 97.422C240.733 97.282 240.332 97.212 239.893 97.212H239.165V96.218H239.893C240.528 96.218 241.023 96.0733 241.377 95.784C241.741 95.4947 241.923 95.0887 241.923 94.566C241.923 94.1273 241.779 93.768 241.489 93.488C241.209 93.1987 240.789 93.054 240.229 93.054C239.688 93.054 239.254 93.2173 238.927 93.544C238.601 93.8613 238.419 94.2627 238.381 94.748H237.191C237.219 94.216 237.359 93.7447 237.611 93.334C237.873 92.9233 238.227 92.606 238.675 92.382C239.123 92.1487 239.641 92.032 240.229 92.032C240.864 92.032 241.391 92.144 241.811 92.368C242.241 92.592 242.563 92.8907 242.777 93.264C243.001 93.6373 243.113 94.048 243.113 94.496C243.113 94.9907 242.978 95.4433 242.707 95.854C242.437 96.2553 242.031 96.526 241.489 96.666C242.068 96.7873 242.549 97.0627 242.931 97.492C243.314 97.9213 243.505 98.486 243.505 99.186C243.505 99.7273 243.379 100.227 243.127 100.684C242.885 101.132 242.521 101.491 242.035 101.762C241.55 102.033 240.948 102.168 240.229 102.168Z" fill="black"/>
<rect x="24" y="83" width="97" height="29" rx="14.5" fill="#E9EBED"/>
<rect x="24" y="83" width="97" height="29" rx="14.5" stroke="#D3D7DB"/>
<path d="M54.002 102V93.516L52.42 93.866V93.054L54.394 92.2H55.192V102H54.002ZM61.4186 102V99.9H56.4486V98.99L61.2086 92.2H62.5806V98.864H64.0366V99.9H62.5806V102H61.4186ZM57.7506 98.864H61.4746V93.502L57.7506 98.864ZM64.5332 103.33L68.0472 91.304H69.2092L65.6952 103.33H64.5332ZM73.9145 102.168C73.0465 102.168 72.2952 101.958 71.6605 101.538C71.0352 101.109 70.5545 100.516 70.2185 99.76C69.8825 98.9947 69.7145 98.108 69.7145 97.1C69.7145 96.092 69.8825 95.21 70.2185 94.454C70.5545 93.6887 71.0352 93.096 71.6605 92.676C72.2952 92.2467 73.0465 92.032 73.9145 92.032C74.7825 92.032 75.5292 92.2467 76.1545 92.676C76.7798 93.096 77.2605 93.6887 77.5965 94.454C77.9325 95.21 78.1005 96.092 78.1005 97.1C78.1005 98.108 77.9325 98.9947 77.5965 99.76C77.2605 100.516 76.7798 101.109 76.1545 101.538C75.5292 101.958 74.7825 102.168 73.9145 102.168ZM73.9145 101.132C74.4838 101.132 74.9925 100.973 75.4405 100.656C75.8978 100.329 76.2525 99.8673 76.5045 99.27C76.7658 98.6633 76.8965 97.94 76.8965 97.1C76.8965 96.26 76.7658 95.5413 76.5045 94.944C76.2525 94.3467 75.8978 93.8893 75.4405 93.572C74.9925 93.2453 74.4838 93.082 73.9145 93.082C73.3358 93.082 72.8225 93.2453 72.3745 93.572C71.9265 93.8893 71.5718 94.3467 71.3105 94.944C71.0492 95.5413 70.9185 96.26 70.9185 97.1C70.9185 97.94 71.0492 98.6633 71.3105 99.27C71.5718 99.8673 71.9265 100.329 72.3745 100.656C72.8225 100.973 73.3358 101.132 73.9145 101.132ZM82.7535 102.168C82.1375 102.168 81.6102 102.047 81.1715 101.804C80.7328 101.561 80.3828 101.239 80.1215 100.838C79.8695 100.427 79.7155 99.9747 79.6595 99.48H80.7515C80.8448 100.012 81.0688 100.423 81.4235 100.712C81.7782 101.001 82.2262 101.146 82.7675 101.146C83.5142 101.146 84.1348 100.801 84.6295 100.11C85.1242 99.41 85.3902 98.3227 85.4275 96.848C85.2035 97.2867 84.8442 97.6693 84.3495 97.996C83.8642 98.3133 83.2762 98.472 82.5855 98.472C82.0348 98.472 81.5122 98.3413 81.0175 98.08C80.5228 97.8187 80.1215 97.4547 79.8135 96.988C79.5055 96.512 79.3515 95.9567 79.3515 95.322C79.3515 94.7713 79.4868 94.244 79.7575 93.74C80.0375 93.236 80.4295 92.8253 80.9335 92.508C81.4375 92.1907 82.0395 92.032 82.7395 92.032C83.4488 92.032 84.0462 92.1673 84.5315 92.438C85.0168 92.6993 85.4042 93.054 85.6935 93.502C85.9922 93.95 86.2068 94.454 86.3375 95.014C86.4775 95.5647 86.5475 96.1293 86.5475 96.708C86.5475 97.7907 86.3982 98.7427 86.0995 99.564C85.8008 100.376 85.3668 101.015 84.7975 101.482C84.2375 101.939 83.5562 102.168 82.7535 102.168ZM82.8235 97.45C83.2622 97.45 83.6542 97.352 83.9995 97.156C84.3448 96.9507 84.6202 96.68 84.8255 96.344C85.0308 96.008 85.1335 95.644 85.1335 95.252C85.1335 94.832 85.0308 94.4587 84.8255 94.132C84.6202 93.796 84.3448 93.5347 83.9995 93.348C83.6542 93.1613 83.2622 93.068 82.8235 93.068C82.3848 93.068 81.9928 93.1613 81.6475 93.348C81.3022 93.5347 81.0315 93.796 80.8355 94.132C80.6395 94.4587 80.5415 94.8367 80.5415 95.266C80.5415 95.9287 80.7562 96.4607 81.1855 96.862C81.6242 97.254 82.1702 97.45 82.8235 97.45ZM86.7166 103.33L90.2306 91.304H91.3926L87.8786 103.33H86.7166ZM92.3954 102V101.174C93.058 100.651 93.6834 100.124 94.2714 99.592C94.8687 99.0507 95.396 98.5187 95.8534 97.996C96.32 97.4733 96.684 96.96 96.9454 96.456C97.216 95.952 97.3514 95.4667 97.3514 95C97.3514 94.6547 97.2907 94.3327 97.1694 94.034C97.0574 93.7353 96.8707 93.4973 96.6094 93.32C96.348 93.1333 95.9934 93.04 95.5454 93.04C95.116 93.04 94.7567 93.138 94.4674 93.334C94.178 93.5207 93.9587 93.7727 93.8094 94.09C93.6694 94.4073 93.5994 94.748 93.5994 95.112H92.4654C92.4654 94.468 92.6007 93.9173 92.8714 93.46C93.142 92.9933 93.5107 92.6387 93.9774 92.396C94.444 92.1533 94.9714 92.032 95.5594 92.032C96.4274 92.032 97.1367 92.2793 97.6874 92.774C98.2474 93.2593 98.5274 93.9873 98.5274 94.958C98.5274 95.5367 98.3827 96.1107 98.0934 96.68C97.804 97.24 97.4354 97.786 96.9874 98.318C96.5394 98.8407 96.0587 99.3307 95.5454 99.788C95.0414 100.245 94.57 100.656 94.1314 101.02H98.8634V102H92.3954ZM100.127 102V101.174C100.79 100.651 101.415 100.124 102.003 99.592C102.6 99.0507 103.128 98.5187 103.585 97.996C104.052 97.4733 104.416 96.96 104.677 96.456C104.948 95.952 105.083 95.4667 105.083 95C105.083 94.6547 105.022 94.3327 104.901 94.034C104.789 93.7353 104.602 93.4973 104.341 93.32C104.08 93.1333 103.725 93.04 103.277 93.04C102.848 93.04 102.488 93.138 102.199 93.334C101.91 93.5207 101.69 93.7727 101.541 94.09C101.401 94.4073 101.331 94.748 101.331 95.112H100.197C100.197 94.468 100.332 93.9173 100.603 93.46C100.874 92.9933 101.242 92.6387 101.709 92.396C102.176 92.1533 102.703 92.032 103.291 92.032C104.159 92.032 104.868 92.2793 105.419 92.774C105.979 93.2593 106.259 93.9873 106.259 94.958C106.259 95.5367 106.114 96.1107 105.825 96.68C105.536 97.24 105.167 97.786 104.719 98.318C104.271 98.8407 103.79 99.3307 103.277 99.788C102.773 100.245 102.302 100.656 101.863 101.02H106.595V102H100.127Z" fill="black"/>
<path d="M44.2917 93.167H36.7083C36.11 93.167 35.625 93.652 35.625 94.2503V101.834C35.625 102.432 36.11 102.917 36.7083 102.917H44.2917C44.89 102.917 45.375 102.432 45.375 101.834V94.2503C45.375 93.652 44.89 93.167 44.2917 93.167Z" stroke="black" stroke-linecap="round" stroke-linejoin="round"/>
<path d="M42.6665 92.083V94.2497" stroke="black" stroke-linecap="round" stroke-linejoin="round"/>
<path d="M38.3335 92.083V94.2497" stroke="black" stroke-linecap="round" stroke-linejoin="round"/>
<path d="M35.625 96.417H45.375" stroke="black" stroke-linecap="round" stroke-linejoin="round"/>
<rect x="262" y="83" width="81" height="29" rx="14.5" fill="#E9EBED"/>
<rect x="262" y="83" width="81" height="29" rx="14.5" stroke="#D3D7DB"/>
<path fill-rule="evenodd" clip-rule="evenodd" d="M281.955 94.0485C281.037 93.1312 279.819 92.625 278.521 92.625C275.845 92.625 273.666 94.8022 273.666 97.4778C273.665 98.3331 273.888 99.1678 274.314 99.9042L273.625 102.419L276.199 101.743C276.907 102.131 277.707 102.334 278.519 102.335H278.521C281.196 102.335 283.373 100.158 283.375 97.481C283.375 96.1844 282.87 94.9657 281.955 94.0485ZM278.521 101.515H278.519C277.795 101.515 277.084 101.32 276.466 100.953L276.318 100.866L274.79 101.266L275.198 99.7772L275.102 99.6249C274.698 98.9822 274.485 98.2395 274.485 97.4778C274.485 95.2545 276.296 93.4454 278.522 93.4454C279.6 93.4454 280.612 93.866 281.374 94.6277C282.136 95.391 282.555 96.4034 282.555 97.481C282.555 99.7058 280.744 101.515 278.521 101.515ZM280.733 98.4934C280.612 98.4331 280.016 98.1395 279.904 98.0999C279.793 98.0586 279.712 98.0396 279.631 98.1602C279.551 98.2823 279.319 98.5553 279.247 98.6362C279.178 98.7156 279.106 98.7267 278.986 98.6664C278.863 98.6061 278.473 98.4775 278.01 98.0634C277.649 97.7428 277.405 97.3445 277.335 97.2239C277.264 97.1017 277.327 97.0366 277.388 96.9763C277.443 96.9224 277.51 96.8351 277.57 96.7637C277.63 96.6938 277.651 96.6431 277.692 96.5621C277.732 96.4812 277.711 96.4098 277.681 96.3495C277.651 96.2892 277.408 95.6909 277.307 95.4481C277.208 95.2117 277.108 95.245 277.034 95.2402C276.964 95.2371 276.883 95.2371 276.802 95.2371C276.721 95.2371 276.589 95.2672 276.478 95.3894C276.367 95.51 276.055 95.8036 276.055 96.4003C276.055 96.9969 276.489 97.5746 276.55 97.6555C276.61 97.7349 277.405 98.96 278.622 99.4852C278.911 99.6106 279.136 99.6852 279.312 99.7407C279.603 99.8328 279.868 99.8201 280.077 99.7899C280.311 99.755 280.795 99.4963 280.896 99.2123C280.996 98.9298 280.996 98.687 280.966 98.6362C280.936 98.5854 280.855 98.5553 280.733 98.4934Z" fill="black"/>
<path d="M315.375 97.2292C315.377 97.9441 315.21 98.6494 314.887 99.2875C314.505 100.052 313.918 100.695 313.191 101.145C312.464 101.595 311.626 101.833 310.771 101.833C310.056 101.835 309.351 101.668 308.712 101.346L305.625 102.375L306.654 99.2875C306.332 98.6494 306.165 97.9441 306.167 97.2292C306.167 96.3743 306.405 95.5364 306.855 94.8093C307.305 94.0822 307.948 93.4947 308.712 93.1125C309.351 92.7902 310.056 92.6232 310.771 92.625H311.042C312.171 92.6873 313.237 93.1638 314.037 93.9634C314.836 94.763 315.313 95.8293 315.375 96.9583V97.2292Z" stroke="black" stroke-width="0.845" stroke-linecap="round" stroke-linejoin="round"/>
<path d="M299.781 93.8341C299.781 93.8266 299.78 93.8191 299.78 93.8116C299.779 93.8055 299.779 93.7994 299.778 93.7934C299.777 93.7863 299.776 93.7794 299.775 93.7724C299.773 93.7661 299.772 93.7598 299.771 93.7536C299.769 93.747 299.768 93.7405 299.766 93.734C299.764 93.7277 299.762 93.7214 299.76 93.7153C299.758 93.7089 299.756 93.7026 299.753 93.6964C299.751 93.6903 299.748 93.6843 299.746 93.6785C299.743 93.6723 299.74 93.6662 299.737 93.6602C299.734 93.6544 299.731 93.6486 299.728 93.643C299.725 93.6373 299.721 93.6316 299.718 93.626C299.714 93.6202 299.71 93.6146 299.706 93.609C299.703 93.6039 299.699 93.5988 299.695 93.5938C299.69 93.588 299.686 93.5825 299.681 93.577C299.679 93.5745 299.677 93.5718 299.674 93.5692C299.673 93.5671 299.67 93.5653 299.668 93.5632C299.663 93.5581 299.658 93.5531 299.653 93.5482C299.648 93.5437 299.644 93.5393 299.639 93.5351C299.634 93.5309 299.629 93.5269 299.624 93.5229C299.618 93.5186 299.613 93.5144 299.607 93.5105C299.602 93.507 299.597 93.5037 299.591 93.5004C299.585 93.4966 299.58 93.4929 299.574 93.4895C299.568 93.4864 299.562 93.4836 299.557 93.4807C299.551 93.4777 299.545 93.4747 299.539 93.4721C299.532 93.4693 299.526 93.4669 299.519 93.4644C299.514 93.4622 299.508 93.46 299.502 93.4581C299.495 93.4558 299.488 93.454 299.481 93.4521C299.476 93.4505 299.47 93.4489 299.464 93.4476C299.457 93.4461 299.45 93.4449 299.443 93.4436C299.437 93.4426 299.431 93.4416 299.425 93.4408C299.418 93.44 299.411 93.4395 299.404 93.439C299.398 93.4385 299.391 93.4381 299.384 93.4379C299.381 93.4379 299.378 93.4375 299.375 93.4375H289.625C289.622 93.4375 289.62 93.4379 289.617 93.4379C289.609 93.4381 289.602 93.4385 289.595 93.439C289.588 93.4395 289.582 93.44 289.576 93.4407C289.569 93.4416 289.563 93.4427 289.556 93.4438C289.549 93.4449 289.543 93.4461 289.536 93.4475C289.53 93.4489 289.524 93.4506 289.518 93.4523C289.511 93.4541 289.505 93.4559 289.498 93.458C289.492 93.46 289.486 93.4624 289.48 93.4647C289.474 93.467 289.468 93.4693 289.462 93.4719C289.455 93.4747 289.449 93.4779 289.443 93.481C289.437 93.4837 289.432 93.4864 289.427 93.4894C289.42 93.4929 289.414 93.4967 289.408 93.5006C289.403 93.5038 289.398 93.507 289.393 93.5104C289.387 93.5144 289.382 93.5187 289.376 93.523C289.371 93.5269 289.366 93.5309 289.361 93.535C289.356 93.5393 289.352 93.5437 289.347 93.5483C289.342 93.5531 289.337 93.5581 289.332 93.5632C289.33 93.5653 289.327 93.5671 289.326 93.5692C289.323 93.5718 289.321 93.5745 289.319 93.577C289.314 93.5825 289.31 93.588 289.305 93.5938C289.301 93.5988 289.297 93.6039 289.294 93.609C289.29 93.6146 289.286 93.6202 289.282 93.626C289.279 93.6316 289.275 93.6373 289.272 93.643C289.269 93.6486 289.266 93.6544 289.263 93.6602C289.26 93.6662 289.257 93.6723 289.254 93.6784C289.251 93.6843 289.249 93.6903 289.247 93.6964C289.244 93.7026 289.242 93.7089 289.24 93.7153C289.238 93.7214 289.236 93.7277 289.234 93.734C289.232 93.7405 289.231 93.747 289.229 93.7536C289.228 93.7598 289.227 93.7661 289.225 93.7724C289.224 93.7794 289.223 93.7863 289.222 93.7934C289.221 93.7994 289.221 93.8055 289.22 93.8116C289.22 93.8191 289.219 93.8266 289.219 93.8341C289.219 93.8373 289.219 93.8405 289.219 93.8438V100.75C289.219 100.965 289.305 101.172 289.457 101.324C289.609 101.477 289.816 101.562 290.031 101.562H298.969C299.184 101.562 299.391 101.477 299.543 101.324C299.695 101.172 299.781 100.965 299.781 100.75V93.8438C299.781 93.8405 299.781 93.8373 299.781 93.8341ZM298.331 94.25L294.5 97.7614L290.669 94.25H298.331ZM298.969 100.75H290.031V94.7673L294.225 98.612C294.3 98.6807 294.398 98.7188 294.5 98.7188C294.602 98.7188 294.7 98.6807 294.775 98.612L298.969 94.7672L298.969 100.75L298.969 100.75Z" fill="black"/>
<path d="M326.5 92.2188C325.583 92.219 324.681 92.4581 323.884 92.9125C323.088 93.3669 322.423 94.021 321.956 94.8104C321.488 95.5997 321.235 96.4972 321.219 97.4143C321.204 98.3315 321.428 99.2368 321.869 100.041L321.435 101.56C321.395 101.7 321.394 101.847 321.43 101.987C321.466 102.128 321.54 102.256 321.642 102.358C321.744 102.46 321.872 102.534 322.013 102.57C322.153 102.606 322.3 102.605 322.44 102.565L323.959 102.131C324.665 102.518 325.45 102.739 326.254 102.776C327.059 102.814 327.861 102.667 328.6 102.346C329.339 102.026 329.995 101.541 330.517 100.929C331.04 100.316 331.416 99.5921 331.616 98.812C331.816 98.032 331.835 97.2165 331.671 96.428C331.508 95.6395 331.166 94.8988 330.672 94.2626C330.179 93.6264 329.546 93.1115 328.823 92.7572C328.1 92.403 327.305 92.2188 326.5 92.2188ZM326.5 101.969C325.697 101.969 324.91 101.753 324.22 101.344C324.172 101.316 324.119 101.297 324.064 101.29C324.009 101.283 323.953 101.287 323.9 101.302L322.217 101.783L322.698 100.1C322.713 100.047 322.717 99.9908 322.71 99.9359C322.703 99.881 322.684 99.8281 322.656 99.7805C322.153 98.9325 321.944 97.9419 322.062 96.9629C322.181 95.9839 322.62 95.0715 323.311 94.3679C324.002 93.6643 324.906 93.209 325.883 93.0729C326.859 92.9368 327.854 93.1275 328.711 93.6154C329.568 94.1032 330.239 94.8608 330.621 95.7702C331.002 96.6795 331.072 97.6895 330.82 98.6428C330.568 99.5961 330.007 100.439 329.226 101.041C328.445 101.642 327.486 101.969 326.5 101.969ZM329.225 96.4002C329.262 96.438 329.292 96.4827 329.313 96.532C329.333 96.5813 329.344 96.6342 329.344 96.6875C329.344 96.7408 329.333 96.7937 329.313 96.843C329.292 96.8923 329.262 96.937 329.225 96.9748L327.6 98.5998C327.562 98.6375 327.517 98.6674 327.468 98.6878C327.419 98.7082 327.366 98.7188 327.313 98.7188C327.259 98.7188 327.206 98.7082 327.157 98.6878C327.108 98.6674 327.063 98.6375 327.025 98.5998L325.688 97.262L324.35 98.5998C324.312 98.6375 324.267 98.6675 324.218 98.6879C324.169 98.7084 324.116 98.7189 324.062 98.7189C324.009 98.7189 323.956 98.7084 323.907 98.688C323.858 98.6676 323.813 98.6377 323.775 98.5999C323.737 98.5622 323.707 98.5174 323.687 98.4681C323.667 98.4188 323.656 98.3659 323.656 98.3126C323.656 98.2592 323.667 98.2063 323.687 98.157C323.708 98.1077 323.737 98.063 323.775 98.0252L325.4 96.4002C325.476 96.3241 325.58 96.2813 325.688 96.2813C325.795 96.2813 325.899 96.3241 325.975 96.4002L327.313 97.738L328.65 96.4002C328.726 96.3241 328.83 96.2813 328.938 96.2813C329.045 96.2813 329.149 96.3241 329.225 96.4002V96.4002Z" fill="black"/>
<defs>
<filter id="filter0_d_152_3892" x="-2" y="0" width="379" height="144" filterUnits="userSpaceOnUse" color-interpolation-filters="sRGB">
<feFlood flood-opacity="0" result="BackgroundImageFix"/>
<feColorMatrix in="SourceAlpha" type="matrix" values="0 0 0 0 0 0 0 0 0 0 0 0 0 0 0 0 0 0 127 0" result="hardAlpha"/>
<feOffset/>
<feGaussianBlur stdDeviation="7"/>
<feComposite in2="hardAlpha" operator="out"/>
<feColorMatrix type="matrix" values="0 0 0 0 0.27106 0 0 0 0 0.291722 0 0 0 0 0.320993 0 0 0 0.12 0"/>
<feBlend mode="normal" in2="BackgroundImageFix" result="effect1_dropShadow_152_3892"/>
<feBlend mode="normal" in="SourceGraphic" in2="effect1_dropShadow_152_3892" result="shape"/>
</filter>
</defs>
</svg>
