<svg width="160" height="42" viewBox="0 0 160 42" fill="none" xmlns="http://www.w3.org/2000/svg">
<path d="M6.63038 2.41643C3.2059 4.51824 1.12563 6.42129 1.82692 11.33C2.53584 16.292 3.2503 15.3485 5.6431 19.7502C8.03591 24.152 4.31928 24.0119 6.60107 31.9449C8.80783 39.617 15.9605 41.665 27.3636 38.705C38.7668 35.745 39.6362 26.2793 34.8133 18.1299C31.1962 12.0179 31.5966 11.8625 24.2481 6.37252C15.2895 -0.320337 11.5293 -0.590339 6.63038 2.41643Z" fill="#FFF0DE"/>
<path d="M28.3392 27.5494C28.2445 29.8618 28.5582 30.5579 27.8392 30.5166C27.0758 30.4724 26.558 29.7468 26.1763 29.0861C24.6377 26.4286 23.3787 23.6177 22.2603 20.7582C21.9333 19.9235 21.6123 19.0401 21.7321 18.1508C21.8504 17.2616 22.6405 16.766 23.4645 16.4047C24.401 15.9933 24.8019 16.4622 25.1422 17.9045C25.4247 19.1006 25.3952 19.3808 24.475 19.6919C23.1109 20.1521 22.5206 18.7053 21.9762 17.6701C20.1654 14.228 19.8754 10.0235 21.198 6.36754C21.3844 5.85138 21.6788 5.27918 22.2188 5.17299C22.9334 5.02994 23.4793 5.78059 23.8018 6.43096C27.0861 13.0423 28.6588 20.4898 28.3274 27.8591C28.3067 28.3119 28.2504 28.8221 27.8895 29.0979C27.5492 29.3575 27.0684 29.3044 26.6512 29.2041C24.4468 28.6791 21.67 26.3652 19.5218 25.647C17.9655 25.1264 13.3038 24.0439 10.6882 24.0439C10.1926 24.0439 9.00607 18.9634 9.72359 18.6169C10.9737 18.0152 19.0647 13.1573 21.5694 8.05466C21.6034 12.7621 22.4896 19.4117 25.5046 26.4036C25.5845 26.5879 25.6511 26.7929 25.5993 26.9876C25.5179 27.3002 25.1318 27.4492 24.8137 27.3902C24.4957 27.3312 24.2264 27.1247 23.9646 26.9359C20.516 24.451 16.0289 24.0557 11.7859 23.746C11.7327 25.1205 12.4709 27.3651 13.2372 28.508C12.604 29.1392 11.2119 28.9298 10.5757 28.3016C10.3597 28.0877 10.2739 27.781 10.197 27.4875L8.02521 19.2923C6.77362 19.5931 4.67431 19.9574 3.73783 20.8378C2.80283 21.7183 4.52045 24.656 5.02198 24.6943C6.13747 24.7784 6.49696 23.9363 6.37417 23.5057C6.25138 23.075 6.03243 22.6562 6.05906 22.2094C6.08568 21.7625 6.52359 21.3009 6.93931 21.469C7.45415 21.677 7.29142 22.4261 7.14643 22.96C6.65674 24.7622 7.47635 26.6321 8.27524 28.3207C8.42022 28.626 8.58591 28.9549 8.8892 29.1053C9.19248 29.2557 9.77093 29.0876 9.67329 28.7617C9.38628 27.7987 7.66127 28.8915 6.65526 28.9549" stroke="#1F3758" stroke-miterlimit="10" stroke-linecap="round" stroke-linejoin="round"/>
<path d="M58.198 26.24C56.7847 26.24 55.5714 25.94 54.558 25.34C53.5447 24.7267 52.7647 23.88 52.218 22.8C51.6714 21.7067 51.398 20.4467 51.398 19.02C51.398 17.5933 51.6714 16.3333 52.218 15.24C52.7647 14.1467 53.5447 13.2933 54.558 12.68C55.5714 12.0667 56.7847 11.76 58.198 11.76C59.878 11.76 61.2514 12.18 62.318 13.02C63.398 13.8467 64.0714 15.0133 64.338 16.52H61.518C61.3447 15.76 60.9714 15.1667 60.398 14.74C59.838 14.3 59.0914 14.08 58.158 14.08C56.8647 14.08 55.8514 14.52 55.118 15.4C54.3847 16.28 54.018 17.4867 54.018 19.02C54.018 20.5533 54.3847 21.76 55.118 22.64C55.8514 23.5067 56.8647 23.94 58.158 23.94C59.0914 23.94 59.838 23.74 60.398 23.34C60.9714 22.9267 61.3447 22.36 61.518 21.64H64.338C64.0714 23.08 63.398 24.2067 62.318 25.02C61.2514 25.8333 59.878 26.24 58.198 26.24ZM69.9641 26.24C69.1108 26.24 68.4108 26.1067 67.8641 25.84C67.3175 25.56 66.9108 25.1933 66.6441 24.74C66.3775 24.2867 66.2441 23.7867 66.2441 23.24C66.2441 22.32 66.6041 21.5733 67.3241 21C68.0441 20.4267 69.1241 20.14 70.5641 20.14H73.0841V19.9C73.0841 19.22 72.8908 18.72 72.5041 18.4C72.1175 18.08 71.6375 17.92 71.0641 17.92C70.5441 17.92 70.0908 18.0467 69.7041 18.3C69.3175 18.54 69.0775 18.9 68.9841 19.38H66.4841C66.5508 18.66 66.7908 18.0333 67.2041 17.5C67.6308 16.9667 68.1775 16.56 68.8441 16.28C69.5108 15.9867 70.2575 15.84 71.0841 15.84C72.4975 15.84 73.6108 16.1933 74.4241 16.9C75.2375 17.6067 75.6441 18.6067 75.6441 19.9V26H73.4641L73.2241 24.4C72.9308 24.9333 72.5175 25.3733 71.9841 25.72C71.4641 26.0667 70.7908 26.24 69.9641 26.24ZM70.5441 24.24C71.2775 24.24 71.8441 24 72.2441 23.52C72.6575 23.04 72.9175 22.4467 73.0241 21.74H70.8441C70.1641 21.74 69.6775 21.8667 69.3841 22.12C69.0908 22.36 68.9441 22.66 68.9441 23.02C68.9441 23.4067 69.0908 23.7067 69.3841 23.92C69.6775 24.1333 70.0641 24.24 70.5441 24.24ZM78.0871 26V16.08H80.3471L80.5671 17.42C80.8871 16.94 81.3071 16.56 81.8271 16.28C82.3604 15.9867 82.9738 15.84 83.6671 15.84C85.2004 15.84 86.2871 16.4333 86.9271 17.62C87.2871 17.0733 87.7671 16.64 88.3671 16.32C88.9804 16 89.6471 15.84 90.3671 15.84C91.6604 15.84 92.6538 16.2267 93.3471 17C94.0404 17.7733 94.3871 18.9067 94.3871 20.4V26H91.8271V20.64C91.8271 19.7867 91.6604 19.1333 91.3271 18.68C91.0071 18.2267 90.5071 18 89.8271 18C89.1338 18 88.5738 18.2533 88.1471 18.76C87.7338 19.2667 87.5271 19.9733 87.5271 20.88V26H84.9671V20.64C84.9671 19.7867 84.8004 19.1333 84.4671 18.68C84.1338 18.2267 83.6204 18 82.9271 18C82.2471 18 81.6938 18.2533 81.2671 18.76C80.8538 19.2667 80.6471 19.9733 80.6471 20.88V26H78.0871ZM96.8176 30.4V16.08H99.0976L99.3776 17.5C99.6976 17.06 100.118 16.6733 100.638 16.34C101.171 16.0067 101.858 15.84 102.698 15.84C103.631 15.84 104.464 16.0667 105.198 16.52C105.931 16.9733 106.511 17.5933 106.938 18.38C107.364 19.1667 107.578 20.06 107.578 21.06C107.578 22.06 107.364 22.9533 106.938 23.74C106.511 24.5133 105.931 25.1267 105.198 25.58C104.464 26.02 103.631 26.24 102.698 26.24C101.951 26.24 101.298 26.1 100.738 25.82C100.178 25.54 99.7242 25.1467 99.3776 24.64V30.4H96.8176ZM102.158 24C102.971 24 103.644 23.7267 104.178 23.18C104.711 22.6333 104.978 21.9267 104.978 21.06C104.978 20.1933 104.711 19.48 104.178 18.92C103.644 18.36 102.971 18.08 102.158 18.08C101.331 18.08 100.651 18.36 100.118 18.92C99.5976 19.4667 99.3376 20.1733 99.3376 21.04C99.3376 21.9067 99.5976 22.62 100.118 23.18C100.651 23.7267 101.331 24 102.158 24ZM113.284 26.24C112.431 26.24 111.731 26.1067 111.184 25.84C110.638 25.56 110.231 25.1933 109.964 24.74C109.698 24.2867 109.564 23.7867 109.564 23.24C109.564 22.32 109.924 21.5733 110.644 21C111.364 20.4267 112.444 20.14 113.884 20.14H116.404V19.9C116.404 19.22 116.211 18.72 115.824 18.4C115.438 18.08 114.958 17.92 114.384 17.92C113.864 17.92 113.411 18.0467 113.024 18.3C112.638 18.54 112.398 18.9 112.304 19.38H109.804C109.871 18.66 110.111 18.0333 110.524 17.5C110.951 16.9667 111.498 16.56 112.164 16.28C112.831 15.9867 113.578 15.84 114.404 15.84C115.818 15.84 116.931 16.1933 117.744 16.9C118.558 17.6067 118.964 18.6067 118.964 19.9V26H116.784L116.544 24.4C116.251 24.9333 115.838 25.3733 115.304 25.72C114.784 26.0667 114.111 26.24 113.284 26.24ZM113.864 24.24C114.598 24.24 115.164 24 115.564 23.52C115.978 23.04 116.238 22.4467 116.344 21.74H114.164C113.484 21.74 112.998 21.8667 112.704 22.12C112.411 22.36 112.264 22.66 112.264 23.02C112.264 23.4067 112.411 23.7067 112.704 23.92C112.998 24.1333 113.384 24.24 113.864 24.24ZM122.787 14.54C122.321 14.54 121.934 14.4 121.627 14.12C121.334 13.84 121.187 13.4867 121.187 13.06C121.187 12.6333 121.334 12.2867 121.627 12.02C121.934 11.74 122.321 11.6 122.787 11.6C123.254 11.6 123.634 11.74 123.927 12.02C124.234 12.2867 124.387 12.6333 124.387 13.06C124.387 13.4867 124.234 13.84 123.927 14.12C123.634 14.4 123.254 14.54 122.787 14.54ZM121.507 26V16.08H124.067V26H121.507ZM130.939 23.04C130.459 23.04 130.013 22.9867 129.599 22.88L128.859 23.62C129.086 23.74 129.393 23.84 129.779 23.92C130.166 24 130.793 24.08 131.659 24.16C132.979 24.28 133.939 24.5933 134.539 25.1C135.139 25.6067 135.439 26.3067 135.439 27.2C135.439 27.7867 135.279 28.34 134.959 28.86C134.639 29.3933 134.146 29.82 133.479 30.14C132.813 30.4733 131.959 30.64 130.919 30.64C129.506 30.64 128.366 30.3733 127.499 29.84C126.633 29.32 126.199 28.5333 126.199 27.48C126.199 26.5867 126.633 25.8133 127.499 25.16C127.233 25.04 126.999 24.9133 126.799 24.78C126.613 24.6467 126.446 24.5067 126.299 24.36V23.9L128.039 22.06C127.266 21.38 126.879 20.5067 126.879 19.44C126.879 18.7733 127.039 18.1667 127.359 17.62C127.693 17.0733 128.159 16.64 128.759 16.32C129.359 16 130.086 15.84 130.939 15.84C131.499 15.84 132.019 15.92 132.499 16.08H136.259V17.64L134.559 17.76C134.826 18.2667 134.959 18.8267 134.959 19.44C134.959 20.1067 134.799 20.7133 134.479 21.26C134.159 21.8067 133.693 22.24 133.079 22.56C132.479 22.88 131.766 23.04 130.939 23.04ZM130.939 21.08C131.459 21.08 131.886 20.94 132.219 20.66C132.566 20.38 132.739 19.98 132.739 19.46C132.739 18.94 132.566 18.54 132.219 18.26C131.886 17.98 131.459 17.84 130.939 17.84C130.393 17.84 129.953 17.98 129.619 18.26C129.286 18.54 129.119 18.94 129.119 19.46C129.119 19.98 129.286 20.38 129.619 20.66C129.953 20.94 130.393 21.08 130.939 21.08ZM128.539 27.22C128.539 27.7133 128.766 28.08 129.219 28.32C129.686 28.5733 130.253 28.7 130.919 28.7C131.559 28.7 132.079 28.5667 132.479 28.3C132.879 28.0467 133.079 27.7 133.079 27.26C133.079 26.9 132.946 26.6 132.679 26.36C132.426 26.12 131.913 25.9733 131.139 25.92C130.593 25.88 130.086 25.82 129.619 25.74C129.233 25.9533 128.953 26.1867 128.779 26.44C128.619 26.6933 128.539 26.9533 128.539 27.22ZM138.126 26V16.08H140.386L140.586 17.76C140.893 17.1733 141.333 16.7067 141.906 16.36C142.493 16.0133 143.18 15.84 143.966 15.84C145.193 15.84 146.146 16.2267 146.826 17C147.506 17.7733 147.846 18.9067 147.846 20.4V26H145.286V20.64C145.286 19.7867 145.113 19.1333 144.766 18.68C144.42 18.2267 143.88 18 143.146 18C142.426 18 141.833 18.2533 141.366 18.76C140.913 19.2667 140.686 19.9733 140.686 20.88V26H138.126ZM154.394 26.24C153.514 26.24 152.741 26.1 152.074 25.82C151.407 25.5267 150.874 25.1267 150.474 24.62C150.074 24.1133 149.834 23.5267 149.754 22.86H152.334C152.414 23.2467 152.627 23.58 152.974 23.86C153.334 24.1267 153.794 24.26 154.354 24.26C154.914 24.26 155.321 24.1467 155.574 23.92C155.841 23.6933 155.974 23.4333 155.974 23.14C155.974 22.7133 155.787 22.4267 155.414 22.28C155.041 22.12 154.521 21.9667 153.854 21.82C153.427 21.7267 152.994 21.6133 152.554 21.48C152.114 21.3467 151.707 21.18 151.334 20.98C150.974 20.7667 150.681 20.5 150.454 20.18C150.227 19.8467 150.114 19.44 150.114 18.96C150.114 18.08 150.461 17.34 151.154 16.74C151.861 16.14 152.847 15.84 154.114 15.84C155.287 15.84 156.221 16.1133 156.914 16.66C157.621 17.2067 158.041 17.96 158.174 18.92H155.754C155.607 18.1867 155.054 17.82 154.094 17.82C153.614 17.82 153.241 17.9133 152.974 18.1C152.721 18.2867 152.594 18.52 152.594 18.8C152.594 19.0933 152.787 19.3267 153.174 19.5C153.561 19.6733 154.074 19.8333 154.714 19.98C155.407 20.14 156.041 20.32 156.614 20.52C157.201 20.7067 157.667 20.9933 158.014 21.38C158.361 21.7533 158.534 22.2933 158.534 23C158.547 23.6133 158.387 24.1667 158.054 24.66C157.721 25.1533 157.241 25.54 156.614 25.82C155.987 26.1 155.247 26.24 154.394 26.24Z" fill="black"/>
</svg>
