<svg width="351" height="79" viewBox="0 0 351 79" fill="none" xmlns="http://www.w3.org/2000/svg">
<rect x="2.5" y="50.5" width="125" height="28" rx="14" fill="white" stroke="#D3D7DB"/>
<path d="M34.158 69.168C33.4393 69.168 32.814 69.0373 32.282 68.776C31.75 68.5147 31.3393 68.1507 31.05 67.684C30.7607 67.2173 30.616 66.676 30.616 66.06H31.848C31.848 66.4427 31.9367 66.7973 32.114 67.124C32.2913 67.4413 32.548 67.698 32.884 67.894C33.2293 68.0807 33.654 68.174 34.158 68.174C34.8207 68.174 35.334 68.0153 35.698 67.698C36.062 67.3807 36.244 66.984 36.244 66.508C36.244 66.116 36.16 65.8033 35.992 65.57C35.824 65.3273 35.5953 65.1313 35.306 64.982C35.026 64.8327 34.6993 64.702 34.326 64.59C33.962 64.478 33.5793 64.352 33.178 64.212C32.422 63.9507 31.862 63.6287 31.498 63.246C31.134 62.854 30.952 62.3453 30.952 61.72C30.9427 61.1973 31.064 60.7353 31.316 60.334C31.568 59.9233 31.9227 59.606 32.38 59.382C32.8467 59.1487 33.3973 59.032 34.032 59.032C34.6573 59.032 35.1987 59.1487 35.656 59.382C36.1227 59.6153 36.482 59.9373 36.734 60.348C36.9953 60.7587 37.1307 61.2253 37.14 61.748H35.908C35.908 61.4773 35.838 61.2113 35.698 60.95C35.558 60.6793 35.3433 60.46 35.054 60.292C34.774 60.124 34.4193 60.04 33.99 60.04C33.458 60.0307 33.0193 60.166 32.674 60.446C32.338 60.726 32.17 61.1133 32.17 61.608C32.17 62.028 32.2867 62.35 32.52 62.574C32.7627 62.798 33.0987 62.9847 33.528 63.134C33.9573 63.274 34.452 63.4373 35.012 63.624C35.4787 63.792 35.8987 63.988 36.272 64.212C36.6453 64.436 36.9347 64.7253 37.14 65.08C37.3547 65.4347 37.462 65.8873 37.462 66.438C37.462 66.9047 37.3407 67.348 37.098 67.768C36.8553 68.1787 36.4867 68.5147 35.992 68.776C35.5067 69.0373 34.8953 69.168 34.158 69.168ZM41.9438 69.168C41.2904 69.168 40.7024 69.0187 40.1797 68.72C39.6571 68.4213 39.2417 68.0013 38.9337 67.46C38.6351 66.9093 38.4857 66.2653 38.4857 65.528C38.4857 64.7907 38.6397 64.1513 38.9477 63.61C39.2557 63.0593 39.6711 62.6347 40.1937 62.336C40.7257 62.0373 41.3184 61.888 41.9718 61.888C42.6251 61.888 43.2131 62.0373 43.7357 62.336C44.2584 62.6347 44.6691 63.0593 44.9678 63.61C45.2758 64.1513 45.4298 64.7907 45.4298 65.528C45.4298 66.2653 45.2758 66.9093 44.9678 67.46C44.6598 68.0013 44.2398 68.4213 43.7078 68.72C43.1851 69.0187 42.5971 69.168 41.9438 69.168ZM41.9438 68.16C42.3451 68.16 42.7184 68.062 43.0638 67.866C43.4091 67.67 43.6891 67.376 43.9038 66.984C44.1184 66.592 44.2258 66.1067 44.2258 65.528C44.2258 64.9493 44.1184 64.464 43.9038 64.072C43.6984 63.68 43.4231 63.386 43.0778 63.19C42.7324 62.994 42.3638 62.896 41.9718 62.896C41.5704 62.896 41.1971 62.994 40.8517 63.19C40.5064 63.386 40.2264 63.68 40.0117 64.072C39.7971 64.464 39.6897 64.9493 39.6897 65.528C39.6897 66.1067 39.7971 66.592 40.0117 66.984C40.2264 67.376 40.5017 67.67 40.8377 67.866C41.1831 68.062 41.5518 68.16 41.9438 68.16ZM46.7849 69V62.056H47.8489L47.9469 63.386C48.1616 62.9287 48.4882 62.5647 48.9269 62.294C49.3656 62.0233 49.9069 61.888 50.5509 61.888V63.12H50.2289C49.8182 63.12 49.4402 63.1947 49.0949 63.344C48.7496 63.484 48.4742 63.7267 48.2689 64.072C48.0636 64.4173 47.9609 64.8933 47.9609 65.5V69H46.7849ZM54.3348 69C53.7002 69 53.2008 68.846 52.8368 68.538C52.4728 68.23 52.2908 67.6747 52.2908 66.872V63.05H51.0868V62.056H52.2908L52.4448 60.39H53.4668V62.056H55.5108V63.05H53.4668V66.872C53.4668 67.3107 53.5555 67.6093 53.7328 67.768C53.9102 67.9173 54.2228 67.992 54.6708 67.992H55.3988V69H54.3348ZM63.86 69.168C63.2907 69.168 62.782 69.0513 62.334 68.818C61.8953 68.5847 61.5593 68.258 61.326 67.838L61.214 69H60.15V58.92H61.326V63.204C61.55 62.868 61.8673 62.5647 62.278 62.294C62.698 62.0233 63.23 61.888 63.874 61.888C64.5647 61.888 65.1667 62.0467 65.68 62.364C66.1933 62.6813 66.59 63.1153 66.87 63.666C67.1593 64.2167 67.304 64.842 67.304 65.542C67.304 66.242 67.1593 66.8673 66.87 67.418C66.59 67.9593 66.1887 68.3887 65.666 68.706C65.1527 69.014 64.5507 69.168 63.86 69.168ZM63.734 68.146C64.2007 68.146 64.6113 68.0387 64.966 67.824C65.3207 67.6 65.6007 67.292 65.806 66.9C66.0113 66.508 66.114 66.0507 66.114 65.528C66.114 65.0053 66.0113 64.548 65.806 64.156C65.6007 63.764 65.3207 63.4607 64.966 63.246C64.6113 63.022 64.2007 62.91 63.734 62.91C63.2673 62.91 62.8567 63.022 62.502 63.246C62.1473 63.4607 61.8673 63.764 61.662 64.156C61.4567 64.548 61.354 65.0053 61.354 65.528C61.354 66.0507 61.4567 66.508 61.662 66.9C61.8673 67.292 62.1473 67.6 62.502 67.824C62.8567 68.0387 63.2673 68.146 63.734 68.146ZM68.8565 72.08L70.5785 68.328H70.1725L67.4145 62.056H68.6885L70.9845 67.46L73.4205 62.056H74.6385L70.0885 72.08H68.8565ZM79.0248 69V62.056H80.0888L80.1588 63.302C80.3828 62.8633 80.7048 62.518 81.1248 62.266C81.5448 62.014 82.0208 61.888 82.5528 61.888C83.3742 61.888 84.0275 62.14 84.5128 62.644C85.0075 63.1387 85.2548 63.904 85.2548 64.94V69H84.0788V65.066C84.0788 63.6193 83.4815 62.896 82.2868 62.896C81.6895 62.896 81.1902 63.1153 80.7888 63.554C80.3968 63.9833 80.2008 64.5993 80.2008 65.402V69H79.0248ZM89.0665 69.168C88.4879 69.168 88.0072 69.07 87.6245 68.874C87.2419 68.678 86.9572 68.4167 86.7705 68.09C86.5839 67.7633 86.4905 67.4087 86.4905 67.026C86.4905 66.3167 86.7612 65.7707 87.3025 65.388C87.8439 65.0053 88.5812 64.814 89.5145 64.814H91.3905V64.73C91.3905 64.1233 91.2319 63.666 90.9145 63.358C90.5972 63.0407 90.1725 62.882 89.6405 62.882C89.1832 62.882 88.7865 62.9987 88.4505 63.232C88.1239 63.456 87.9185 63.7873 87.8345 64.226H86.6305C86.6772 63.722 86.8452 63.2973 87.1345 62.952C87.4332 62.6067 87.8019 62.3453 88.2405 62.168C88.6792 61.9813 89.1459 61.888 89.6405 61.888C90.6112 61.888 91.3392 62.1493 91.8245 62.672C92.3192 63.1853 92.5665 63.8713 92.5665 64.73V69H91.5165L91.4465 67.754C91.2505 68.146 90.9612 68.482 90.5785 68.762C90.2052 69.0327 89.7012 69.168 89.0665 69.168ZM89.2485 68.174C89.6965 68.174 90.0792 68.0573 90.3965 67.824C90.7232 67.5907 90.9705 67.2873 91.1385 66.914C91.3065 66.5407 91.3905 66.1487 91.3905 65.738V65.724H89.6125C88.9219 65.724 88.4319 65.8453 88.1425 66.088C87.8625 66.3213 87.7225 66.6153 87.7225 66.97C87.7225 67.334 87.8532 67.628 88.1145 67.852C88.3852 68.0667 88.7632 68.174 89.2485 68.174ZM94.0508 69V62.056H95.1148L95.1988 63.064C95.4228 62.6907 95.7214 62.4013 96.0948 62.196C96.4681 61.9907 96.8881 61.888 97.3548 61.888C97.9054 61.888 98.3768 62 98.7688 62.224C99.1701 62.448 99.4781 62.7887 99.6928 63.246C99.9354 62.826 100.267 62.4947 100.687 62.252C101.116 62.0093 101.578 61.888 102.073 61.888C102.903 61.888 103.566 62.14 104.061 62.644C104.555 63.1387 104.803 63.904 104.803 64.94V69H103.641V65.066C103.641 64.3473 103.496 63.806 103.207 63.442C102.917 63.078 102.502 62.896 101.961 62.896C101.401 62.896 100.934 63.1153 100.561 63.554C100.197 63.9833 100.015 64.5993 100.015 65.402V69H98.8388V65.066C98.8388 64.3473 98.6941 63.806 98.4048 63.442C98.1154 63.078 97.7001 62.896 97.1588 62.896C96.6081 62.896 96.1461 63.1153 95.7728 63.554C95.4088 63.9833 95.2268 64.5993 95.2268 65.402V69H94.0508ZM109.416 69.168C108.754 69.168 108.166 69.0187 107.652 68.72C107.139 68.412 106.733 67.9873 106.434 67.446C106.145 66.9047 106 66.2653 106 65.528C106 64.8 106.145 64.1653 106.434 63.624C106.724 63.0733 107.125 62.6487 107.638 62.35C108.161 62.042 108.763 61.888 109.444 61.888C110.116 61.888 110.695 62.042 111.18 62.35C111.675 62.6487 112.053 63.0453 112.314 63.54C112.576 64.0347 112.706 64.5667 112.706 65.136C112.706 65.2387 112.702 65.3413 112.692 65.444C112.692 65.5467 112.692 65.6633 112.692 65.794H107.162C107.19 66.326 107.312 66.7693 107.526 67.124C107.75 67.4693 108.026 67.7307 108.352 67.908C108.688 68.0853 109.043 68.174 109.416 68.174C109.902 68.174 110.308 68.062 110.634 67.838C110.961 67.614 111.199 67.3107 111.348 66.928H112.51C112.324 67.572 111.964 68.1087 111.432 68.538C110.91 68.958 110.238 69.168 109.416 69.168ZM109.416 62.882C108.856 62.882 108.357 63.0547 107.918 63.4C107.489 63.736 107.242 64.2307 107.176 64.884H111.544C111.516 64.2587 111.302 63.7687 110.9 63.414C110.499 63.0593 110.004 62.882 109.416 62.882Z" fill="black"/>
<path d="M15.25 62.875L18.5 66.125L21.75 62.875" stroke="black" stroke-width="1.08333" stroke-linecap="round" stroke-linejoin="round"/>
<rect x="131.5" y="50.5" width="150" height="28" rx="14" fill="white" stroke="#D3D7DB"/>
<path d="M163.158 69.168C162.439 69.168 161.814 69.0373 161.282 68.776C160.75 68.5147 160.339 68.1507 160.05 67.684C159.761 67.2173 159.616 66.676 159.616 66.06H160.848C160.848 66.4427 160.937 66.7973 161.114 67.124C161.291 67.4413 161.548 67.698 161.884 67.894C162.229 68.0807 162.654 68.174 163.158 68.174C163.821 68.174 164.334 68.0153 164.698 67.698C165.062 67.3807 165.244 66.984 165.244 66.508C165.244 66.116 165.16 65.8033 164.992 65.57C164.824 65.3273 164.595 65.1313 164.306 64.982C164.026 64.8327 163.699 64.702 163.326 64.59C162.962 64.478 162.579 64.352 162.178 64.212C161.422 63.9507 160.862 63.6287 160.498 63.246C160.134 62.854 159.952 62.3453 159.952 61.72C159.943 61.1973 160.064 60.7353 160.316 60.334C160.568 59.9233 160.923 59.606 161.38 59.382C161.847 59.1487 162.397 59.032 163.032 59.032C163.657 59.032 164.199 59.1487 164.656 59.382C165.123 59.6153 165.482 59.9373 165.734 60.348C165.995 60.7587 166.131 61.2253 166.14 61.748H164.908C164.908 61.4773 164.838 61.2113 164.698 60.95C164.558 60.6793 164.343 60.46 164.054 60.292C163.774 60.124 163.419 60.04 162.99 60.04C162.458 60.0307 162.019 60.166 161.674 60.446C161.338 60.726 161.17 61.1133 161.17 61.608C161.17 62.028 161.287 62.35 161.52 62.574C161.763 62.798 162.099 62.9847 162.528 63.134C162.957 63.274 163.452 63.4373 164.012 63.624C164.479 63.792 164.899 63.988 165.272 64.212C165.645 64.436 165.935 64.7253 166.14 65.08C166.355 65.4347 166.462 65.8873 166.462 66.438C166.462 66.9047 166.341 67.348 166.098 67.768C165.855 68.1787 165.487 68.5147 164.992 68.776C164.507 69.0373 163.895 69.168 163.158 69.168ZM170.902 69.168C170.239 69.168 169.651 69.0187 169.138 68.72C168.624 68.412 168.218 67.9873 167.92 67.446C167.63 66.9047 167.486 66.2653 167.486 65.528C167.486 64.8 167.63 64.1653 167.92 63.624C168.209 63.0733 168.61 62.6487 169.124 62.35C169.646 62.042 170.248 61.888 170.93 61.888C171.602 61.888 172.18 62.042 172.666 62.35C173.16 62.6487 173.538 63.0453 173.8 63.54C174.061 64.0347 174.192 64.5667 174.192 65.136C174.192 65.2387 174.187 65.3413 174.178 65.444C174.178 65.5467 174.178 65.6633 174.178 65.794H168.648C168.676 66.326 168.797 66.7693 169.012 67.124C169.236 67.4693 169.511 67.7307 169.838 67.908C170.174 68.0853 170.528 68.174 170.902 68.174C171.387 68.174 171.793 68.062 172.12 67.838C172.446 67.614 172.684 67.3107 172.834 66.928H173.996C173.809 67.572 173.45 68.1087 172.918 68.538C172.395 68.958 171.723 69.168 170.902 69.168ZM170.902 62.882C170.342 62.882 169.842 63.0547 169.404 63.4C168.974 63.736 168.727 64.2307 168.662 64.884H173.03C173.002 64.2587 172.787 63.7687 172.386 63.414C171.984 63.0593 171.49 62.882 170.902 62.882ZM175.47 69V58.92H176.646V69H175.47ZM181.416 69.168C180.753 69.168 180.165 69.0187 179.652 68.72C179.139 68.412 178.733 67.9873 178.434 67.446C178.145 66.9047 178 66.2653 178 65.528C178 64.8 178.145 64.1653 178.434 63.624C178.723 63.0733 179.125 62.6487 179.638 62.35C180.161 62.042 180.763 61.888 181.444 61.888C182.116 61.888 182.695 62.042 183.18 62.35C183.675 62.6487 184.053 63.0453 184.314 63.54C184.575 64.0347 184.706 64.5667 184.706 65.136C184.706 65.2387 184.701 65.3413 184.692 65.444C184.692 65.5467 184.692 65.6633 184.692 65.794H179.162C179.19 66.326 179.311 66.7693 179.526 67.124C179.75 67.4693 180.025 67.7307 180.352 67.908C180.688 68.0853 181.043 68.174 181.416 68.174C181.901 68.174 182.307 68.062 182.634 67.838C182.961 67.614 183.199 67.3107 183.348 66.928H184.51C184.323 67.572 183.964 68.1087 183.432 68.538C182.909 68.958 182.237 69.168 181.416 69.168ZM181.416 62.882C180.856 62.882 180.357 63.0547 179.918 63.4C179.489 63.736 179.241 64.2307 179.176 64.884H183.544C183.516 64.2587 183.301 63.7687 182.9 63.414C182.499 63.0593 182.004 62.882 181.416 62.882ZM189.177 69.168C188.514 69.168 187.917 69.0187 187.385 68.72C186.862 68.412 186.447 67.9873 186.139 67.446C185.84 66.8953 185.691 66.256 185.691 65.528C185.691 64.8 185.84 64.1653 186.139 63.624C186.447 63.0733 186.862 62.6487 187.385 62.35C187.917 62.042 188.514 61.888 189.177 61.888C189.998 61.888 190.689 62.1027 191.249 62.532C191.818 62.9613 192.177 63.5353 192.327 64.254H191.123C191.029 63.8247 190.801 63.4933 190.437 63.26C190.073 63.0173 189.648 62.896 189.163 62.896C188.771 62.896 188.402 62.994 188.057 63.19C187.711 63.386 187.431 63.68 187.217 64.072C187.002 64.464 186.895 64.9493 186.895 65.528C186.895 66.1067 187.002 66.592 187.217 66.984C187.431 67.376 187.711 67.6747 188.057 67.88C188.402 68.076 188.771 68.174 189.163 68.174C189.648 68.174 190.073 68.0573 190.437 67.824C190.801 67.5813 191.029 67.2407 191.123 66.802H192.327C192.187 67.502 191.832 68.0713 191.263 68.51C190.693 68.9487 189.998 69.168 189.177 69.168ZM196.242 69C195.607 69 195.108 68.846 194.744 68.538C194.38 68.23 194.198 67.6747 194.198 66.872V63.05H192.994V62.056H194.198L194.352 60.39H195.374V62.056H197.418V63.05H195.374V66.872C195.374 67.3107 195.462 67.6093 195.64 67.768C195.817 67.9173 196.13 67.992 196.578 67.992H197.306V69H196.242ZM205.207 69.168C204.516 69.168 203.909 69.0093 203.387 68.692C202.873 68.3747 202.472 67.9407 202.183 67.39C201.903 66.8393 201.763 66.214 201.763 65.514C201.763 64.814 201.907 64.1933 202.197 63.652C202.486 63.1013 202.887 62.672 203.401 62.364C203.914 62.0467 204.521 61.888 205.221 61.888C205.79 61.888 206.294 62.0047 206.733 62.238C207.171 62.4713 207.512 62.798 207.755 63.218V58.92H208.931V69H207.867L207.755 67.852C207.531 68.188 207.209 68.4913 206.789 68.762C206.369 69.0327 205.841 69.168 205.207 69.168ZM205.333 68.146C205.799 68.146 206.21 68.0387 206.565 67.824C206.929 67.6 207.209 67.292 207.405 66.9C207.61 66.508 207.713 66.0507 207.713 65.528C207.713 65.0053 207.61 64.548 207.405 64.156C207.209 63.764 206.929 63.4607 206.565 63.246C206.21 63.022 205.799 62.91 205.333 62.91C204.875 62.91 204.465 63.022 204.101 63.246C203.746 63.4607 203.466 63.764 203.261 64.156C203.065 64.548 202.967 65.0053 202.967 65.528C202.967 66.0507 203.065 66.508 203.261 66.9C203.466 67.292 203.746 67.6 204.101 67.824C204.465 68.0387 204.875 68.146 205.333 68.146ZM212.878 69.168C212.299 69.168 211.818 69.07 211.436 68.874C211.053 68.678 210.768 68.4167 210.582 68.09C210.395 67.7633 210.302 67.4087 210.302 67.026C210.302 66.3167 210.572 65.7707 211.114 65.388C211.655 65.0053 212.392 64.814 213.326 64.814H215.202V64.73C215.202 64.1233 215.043 63.666 214.726 63.358C214.408 63.0407 213.984 62.882 213.452 62.882C212.994 62.882 212.598 62.9987 212.262 63.232C211.935 63.456 211.73 63.7873 211.646 64.226H210.442C210.488 63.722 210.656 63.2973 210.946 62.952C211.244 62.6067 211.613 62.3453 212.052 62.168C212.49 61.9813 212.957 61.888 213.452 61.888C214.422 61.888 215.15 62.1493 215.636 62.672C216.13 63.1853 216.378 63.8713 216.378 64.73V69H215.328L215.258 67.754C215.062 68.146 214.772 68.482 214.39 68.762C214.016 69.0327 213.512 69.168 212.878 69.168ZM213.06 68.174C213.508 68.174 213.89 68.0573 214.208 67.824C214.534 67.5907 214.782 67.2873 214.95 66.914C215.118 66.5407 215.202 66.1487 215.202 65.738V65.724H213.424C212.733 65.724 212.243 65.8453 211.954 66.088C211.674 66.3213 211.534 66.6153 211.534 66.97C211.534 67.334 211.664 67.628 211.926 67.852C212.196 68.0667 212.574 68.174 213.06 68.174ZM220.415 69C219.78 69 219.281 68.846 218.917 68.538C218.553 68.23 218.371 67.6747 218.371 66.872V63.05H217.167V62.056H218.371L218.525 60.39H219.547V62.056H221.591V63.05H219.547V66.872C219.547 67.3107 219.635 67.6093 219.813 67.768C219.99 67.9173 220.303 67.992 220.751 67.992H221.479V69H220.415ZM225.735 69.168C225.073 69.168 224.485 69.0187 223.971 68.72C223.458 68.412 223.052 67.9873 222.753 67.446C222.464 66.9047 222.319 66.2653 222.319 65.528C222.319 64.8 222.464 64.1653 222.753 63.624C223.043 63.0733 223.444 62.6487 223.957 62.35C224.48 62.042 225.082 61.888 225.763 61.888C226.435 61.888 227.014 62.042 227.499 62.35C227.994 62.6487 228.372 63.0453 228.633 63.54C228.895 64.0347 229.025 64.5667 229.025 65.136C229.025 65.2387 229.021 65.3413 229.011 65.444C229.011 65.5467 229.011 65.6633 229.011 65.794H223.481C223.509 66.326 223.631 66.7693 223.845 67.124C224.069 67.4693 224.345 67.7307 224.671 67.908C225.007 68.0853 225.362 68.174 225.735 68.174C226.221 68.174 226.627 68.062 226.953 67.838C227.28 67.614 227.518 67.3107 227.667 66.928H228.829C228.643 67.572 228.283 68.1087 227.751 68.538C227.229 68.958 226.557 69.168 225.735 69.168ZM225.735 62.882C225.175 62.882 224.676 63.0547 224.237 63.4C223.808 63.736 223.561 64.2307 223.495 64.884H227.863C227.835 64.2587 227.621 63.7687 227.219 63.414C226.818 63.0593 226.323 62.882 225.735 62.882ZM233.729 69V62.056H234.793L234.891 63.386C235.106 62.9287 235.432 62.5647 235.871 62.294C236.31 62.0233 236.851 61.888 237.495 61.888V63.12H237.173C236.762 63.12 236.384 63.1947 236.039 63.344C235.694 63.484 235.418 63.7267 235.213 64.072C235.008 64.4173 234.905 64.8933 234.905 65.5V69H233.729ZM240.845 69.168C240.266 69.168 239.786 69.07 239.403 68.874C239.02 68.678 238.736 68.4167 238.549 68.09C238.362 67.7633 238.269 67.4087 238.269 67.026C238.269 66.3167 238.54 65.7707 239.081 65.388C239.622 65.0053 240.36 64.814 241.293 64.814H243.169V64.73C243.169 64.1233 243.01 63.666 242.693 63.358C242.376 63.0407 241.951 62.882 241.419 62.882C240.962 62.882 240.565 62.9987 240.229 63.232C239.902 63.456 239.697 63.7873 239.613 64.226H238.409C238.456 63.722 238.624 63.2973 238.913 62.952C239.212 62.6067 239.58 62.3453 240.019 62.168C240.458 61.9813 240.924 61.888 241.419 61.888C242.39 61.888 243.118 62.1493 243.603 62.672C244.098 63.1853 244.345 63.8713 244.345 64.73V69H243.295L243.225 67.754C243.029 68.146 242.74 68.482 242.357 68.762C241.984 69.0327 241.48 69.168 240.845 69.168ZM241.027 68.174C241.475 68.174 241.858 68.0573 242.175 67.824C242.502 67.5907 242.749 67.2873 242.917 66.914C243.085 66.5407 243.169 66.1487 243.169 65.738V65.724H241.391C240.7 65.724 240.21 65.8453 239.921 66.088C239.641 66.3213 239.501 66.6153 239.501 66.97C239.501 67.334 239.632 67.628 239.893 67.852C240.164 68.0667 240.542 68.174 241.027 68.174ZM245.829 69V62.056H246.893L246.963 63.302C247.187 62.8633 247.509 62.518 247.929 62.266C248.349 62.014 248.825 61.888 249.357 61.888C250.179 61.888 250.832 62.14 251.317 62.644C251.812 63.1387 252.059 63.904 252.059 64.94V69H250.883V65.066C250.883 63.6193 250.286 62.896 249.091 62.896C248.494 62.896 247.995 63.1153 247.593 63.554C247.201 63.9833 247.005 64.5993 247.005 65.402V69H245.829ZM256.305 66.816C255.913 66.816 255.554 66.7647 255.227 66.662L254.527 67.32C254.63 67.3947 254.756 67.46 254.905 67.516C255.064 67.5627 255.288 67.6093 255.577 67.656C255.866 67.6933 256.272 67.7353 256.795 67.782C257.728 67.8473 258.396 68.062 258.797 68.426C259.198 68.79 259.399 69.266 259.399 69.854C259.399 70.2553 259.287 70.638 259.063 71.002C258.848 71.366 258.512 71.6647 258.055 71.898C257.607 72.1313 257.028 72.248 256.319 72.248C255.694 72.248 255.138 72.164 254.653 71.996C254.168 71.8373 253.79 71.59 253.519 71.254C253.248 70.9273 253.113 70.512 253.113 70.008C253.113 69.7467 253.183 69.462 253.323 69.154C253.463 68.8553 253.724 68.5707 254.107 68.3C253.902 68.216 253.724 68.1273 253.575 68.034C253.435 67.9313 253.304 67.8193 253.183 67.698V67.376L254.373 66.2C253.822 65.7333 253.547 65.1173 253.547 64.352C253.547 63.8947 253.654 63.4793 253.869 63.106C254.084 62.7327 254.396 62.4387 254.807 62.224C255.218 62 255.717 61.888 256.305 61.888C256.706 61.888 257.07 61.944 257.397 62.056H259.959V62.938L258.657 62.994C258.928 63.386 259.063 63.8387 259.063 64.352C259.063 64.8093 258.951 65.2247 258.727 65.598C258.512 65.9713 258.2 66.27 257.789 66.494C257.388 66.7087 256.893 66.816 256.305 66.816ZM256.305 65.85C256.8 65.85 257.192 65.724 257.481 65.472C257.78 65.2107 257.929 64.8373 257.929 64.352C257.929 63.876 257.78 63.512 257.481 63.26C257.192 62.9987 256.8 62.868 256.305 62.868C255.801 62.868 255.4 62.9987 255.101 63.26C254.812 63.512 254.667 63.876 254.667 64.352C254.667 64.8373 254.812 65.2107 255.101 65.472C255.4 65.724 255.801 65.85 256.305 65.85ZM254.261 69.896C254.261 70.3627 254.457 70.708 254.849 70.932C255.241 71.1653 255.731 71.282 256.319 71.282C256.898 71.282 257.36 71.156 257.705 70.904C258.06 70.652 258.237 70.316 258.237 69.896C258.237 69.5973 258.116 69.336 257.873 69.112C257.63 68.8973 257.182 68.7713 256.529 68.734C256.016 68.6967 255.572 68.65 255.199 68.594C254.816 68.7993 254.564 69.0187 254.443 69.252C254.322 69.4947 254.261 69.7093 254.261 69.896ZM263.854 69.168C263.191 69.168 262.603 69.0187 262.09 68.72C261.577 68.412 261.171 67.9873 260.872 67.446C260.583 66.9047 260.438 66.2653 260.438 65.528C260.438 64.8 260.583 64.1653 260.872 63.624C261.161 63.0733 261.563 62.6487 262.076 62.35C262.599 62.042 263.201 61.888 263.882 61.888C264.554 61.888 265.133 62.042 265.618 62.35C266.113 62.6487 266.491 63.0453 266.752 63.54C267.013 64.0347 267.144 64.5667 267.144 65.136C267.144 65.2387 267.139 65.3413 267.13 65.444C267.13 65.5467 267.13 65.6633 267.13 65.794H261.6C261.628 66.326 261.749 66.7693 261.964 67.124C262.188 67.4693 262.463 67.7307 262.79 67.908C263.126 68.0853 263.481 68.174 263.854 68.174C264.339 68.174 264.745 68.062 265.072 67.838C265.399 67.614 265.637 67.3107 265.786 66.928H266.948C266.761 67.572 266.402 68.1087 265.87 68.538C265.347 68.958 264.675 69.168 263.854 69.168ZM263.854 62.882C263.294 62.882 262.795 63.0547 262.356 63.4C261.927 63.736 261.679 64.2307 261.614 64.884H265.982C265.954 64.2587 265.739 63.7687 265.338 63.414C264.937 63.0593 264.442 62.882 263.854 62.882Z" fill="black"/>
<path d="M151.292 60.167H143.708C143.11 60.167 142.625 60.652 142.625 61.2503V68.8337C142.625 69.432 143.11 69.917 143.708 69.917H151.292C151.89 69.917 152.375 69.432 152.375 68.8337V61.2503C152.375 60.652 151.89 60.167 151.292 60.167Z" stroke="black" stroke-linecap="round" stroke-linejoin="round"/>
<path d="M149.666 59.083V61.2497" stroke="black" stroke-linecap="round" stroke-linejoin="round"/>
<path d="M145.333 59.083V61.2497" stroke="black" stroke-linecap="round" stroke-linejoin="round"/>
<path d="M142.625 63.417H152.375" stroke="black" stroke-linecap="round" stroke-linejoin="round"/>
<rect x="0.5" y="0.5" width="350" height="39" rx="7.5" fill="#F7F8F9" stroke="#D3D7DB"/>
<path d="M44.158 24.168C43.4393 24.168 42.814 24.0373 42.282 23.776C41.75 23.5147 41.3393 23.1507 41.05 22.684C40.7607 22.2173 40.616 21.676 40.616 21.06H41.848C41.848 21.4427 41.9367 21.7973 42.114 22.124C42.2913 22.4413 42.548 22.698 42.884 22.894C43.2293 23.0807 43.654 23.174 44.158 23.174C44.8207 23.174 45.334 23.0153 45.698 22.698C46.062 22.3807 46.244 21.984 46.244 21.508C46.244 21.116 46.16 20.8033 45.992 20.57C45.824 20.3273 45.5953 20.1313 45.306 19.982C45.026 19.8327 44.6993 19.702 44.326 19.59C43.962 19.478 43.5793 19.352 43.178 19.212C42.422 18.9507 41.862 18.6287 41.498 18.246C41.134 17.854 40.952 17.3453 40.952 16.72C40.9427 16.1973 41.064 15.7353 41.316 15.334C41.568 14.9233 41.9227 14.606 42.38 14.382C42.8467 14.1487 43.3973 14.032 44.032 14.032C44.6573 14.032 45.1987 14.1487 45.656 14.382C46.1227 14.6153 46.482 14.9373 46.734 15.348C46.9953 15.7587 47.1307 16.2253 47.14 16.748H45.908C45.908 16.4773 45.838 16.2113 45.698 15.95C45.558 15.6793 45.3433 15.46 45.054 15.292C44.774 15.124 44.4193 15.04 43.99 15.04C43.458 15.0307 43.0193 15.166 42.674 15.446C42.338 15.726 42.17 16.1133 42.17 16.608C42.17 17.028 42.2867 17.35 42.52 17.574C42.7627 17.798 43.0987 17.9847 43.528 18.134C43.9573 18.274 44.452 18.4373 45.012 18.624C45.4787 18.792 45.8987 18.988 46.272 19.212C46.6453 19.436 46.9347 19.7253 47.14 20.08C47.3547 20.4347 47.462 20.8873 47.462 21.438C47.462 21.9047 47.3407 22.348 47.098 22.768C46.8553 23.1787 46.4867 23.5147 45.992 23.776C45.5067 24.0373 44.8953 24.168 44.158 24.168ZM51.9018 24.168C51.2391 24.168 50.6511 24.0187 50.1377 23.72C49.6244 23.412 49.2184 22.9873 48.9197 22.446C48.6304 21.9047 48.4857 21.2653 48.4857 20.528C48.4857 19.8 48.6304 19.1653 48.9197 18.624C49.2091 18.0733 49.6104 17.6487 50.1237 17.35C50.6464 17.042 51.2484 16.888 51.9297 16.888C52.6018 16.888 53.1804 17.042 53.6657 17.35C54.1604 17.6487 54.5384 18.0453 54.7997 18.54C55.0611 19.0347 55.1917 19.5667 55.1917 20.136C55.1917 20.2387 55.1871 20.3413 55.1778 20.444C55.1778 20.5467 55.1778 20.6633 55.1778 20.794H49.6477C49.6757 21.326 49.7971 21.7693 50.0117 22.124C50.2357 22.4693 50.5111 22.7307 50.8377 22.908C51.1737 23.0853 51.5284 23.174 51.9018 23.174C52.3871 23.174 52.7931 23.062 53.1197 22.838C53.4464 22.614 53.6844 22.3107 53.8337 21.928H54.9957C54.8091 22.572 54.4498 23.1087 53.9178 23.538C53.3951 23.958 52.7231 24.168 51.9018 24.168ZM51.9018 17.882C51.3417 17.882 50.8424 18.0547 50.4037 18.4C49.9744 18.736 49.7271 19.2307 49.6617 19.884H54.0298C54.0018 19.2587 53.7871 18.7687 53.3858 18.414C52.9844 18.0593 52.4898 17.882 51.9018 17.882ZM58.7805 24.168C58.2018 24.168 57.7211 24.07 57.3385 23.874C56.9558 23.678 56.6711 23.4167 56.4845 23.09C56.2978 22.7633 56.2045 22.4087 56.2045 22.026C56.2045 21.3167 56.4751 20.7707 57.0165 20.388C57.5578 20.0053 58.2951 19.814 59.2285 19.814H61.1045V19.73C61.1045 19.1233 60.9458 18.666 60.6285 18.358C60.3111 18.0407 59.8865 17.882 59.3545 17.882C58.8971 17.882 58.5005 17.9987 58.1645 18.232C57.8378 18.456 57.6325 18.7873 57.5485 19.226H56.3445C56.3911 18.722 56.5591 18.2973 56.8485 17.952C57.1471 17.6067 57.5158 17.3453 57.9545 17.168C58.3931 16.9813 58.8598 16.888 59.3545 16.888C60.3251 16.888 61.0531 17.1493 61.5385 17.672C62.0331 18.1853 62.2805 18.8713 62.2805 19.73V24H61.2305L61.1605 22.754C60.9645 23.146 60.6751 23.482 60.2925 23.762C59.9191 24.0327 59.4151 24.168 58.7805 24.168ZM58.9625 23.174C59.4105 23.174 59.7931 23.0573 60.1105 22.824C60.4371 22.5907 60.6845 22.2873 60.8525 21.914C61.0205 21.5407 61.1045 21.1487 61.1045 20.738V20.724H59.3265C58.6358 20.724 58.1458 20.8453 57.8565 21.088C57.5765 21.3213 57.4365 21.6153 57.4365 21.97C57.4365 22.334 57.5671 22.628 57.8285 22.852C58.0991 23.0667 58.4771 23.174 58.9625 23.174ZM63.7647 24V17.056H64.8287L64.9267 18.386C65.1413 17.9287 65.468 17.5647 65.9067 17.294C66.3453 17.0233 66.8867 16.888 67.5307 16.888V18.12H67.2087C66.798 18.12 66.42 18.1947 66.0747 18.344C65.7293 18.484 65.454 18.7267 65.2487 19.072C65.0433 19.4173 64.9407 19.8933 64.9407 20.5V24H63.7647ZM71.5028 24.168C70.8402 24.168 70.2428 24.0187 69.7108 23.72C69.1882 23.412 68.7728 22.9873 68.4648 22.446C68.1662 21.8953 68.0168 21.256 68.0168 20.528C68.0168 19.8 68.1662 19.1653 68.4648 18.624C68.7728 18.0733 69.1882 17.6487 69.7108 17.35C70.2428 17.042 70.8402 16.888 71.5028 16.888C72.3242 16.888 73.0148 17.1027 73.5748 17.532C74.1442 17.9613 74.5035 18.5353 74.6528 19.254H73.4488C73.3555 18.8247 73.1268 18.4933 72.7628 18.26C72.3988 18.0173 71.9742 17.896 71.4888 17.896C71.0968 17.896 70.7282 17.994 70.3828 18.19C70.0375 18.386 69.7575 18.68 69.5428 19.072C69.3282 19.464 69.2208 19.9493 69.2208 20.528C69.2208 21.1067 69.3282 21.592 69.5428 21.984C69.7575 22.376 70.0375 22.6747 70.3828 22.88C70.7282 23.076 71.0968 23.174 71.4888 23.174C71.9742 23.174 72.3988 23.0573 72.7628 22.824C73.1268 22.5813 73.3555 22.2407 73.4488 21.802H74.6528C74.5128 22.502 74.1582 23.0713 73.5888 23.51C73.0195 23.9487 72.3242 24.168 71.5028 24.168ZM76.0152 24V13.92H77.1912V18.246C77.4246 17.8167 77.7559 17.4853 78.1852 17.252C78.6146 17.0093 79.0812 16.888 79.5852 16.888C80.3879 16.888 81.0319 17.14 81.5172 17.644C82.0026 18.1387 82.2452 18.904 82.2452 19.94V24H81.0832V20.066C81.0832 18.6193 80.4999 17.896 79.3332 17.896C78.7266 17.896 78.2179 18.1153 77.8072 18.554C77.3966 18.9833 77.1912 19.5993 77.1912 20.402V24H76.0152ZM90.364 24.168C89.7014 24.168 89.104 24.0187 88.572 23.72C88.0493 23.412 87.634 22.9873 87.326 22.446C87.0273 21.8953 86.878 21.256 86.878 20.528C86.878 19.8 87.0273 19.1653 87.326 18.624C87.634 18.0733 88.0493 17.6487 88.572 17.35C89.104 17.042 89.7014 16.888 90.364 16.888C91.1854 16.888 91.876 17.1027 92.436 17.532C93.0054 17.9613 93.3647 18.5353 93.514 19.254H92.31C92.2167 18.8247 91.988 18.4933 91.624 18.26C91.26 18.0173 90.8354 17.896 90.35 17.896C89.958 17.896 89.5893 17.994 89.244 18.19C88.8987 18.386 88.6187 18.68 88.404 19.072C88.1893 19.464 88.082 19.9493 88.082 20.528C88.082 21.1067 88.1893 21.592 88.404 21.984C88.6187 22.376 88.8987 22.6747 89.244 22.88C89.5893 23.076 89.958 23.174 90.35 23.174C90.8354 23.174 91.26 23.0573 91.624 22.824C91.988 22.5813 92.2167 22.2407 92.31 21.802H93.514C93.374 22.502 93.0194 23.0713 92.45 23.51C91.8807 23.9487 91.1854 24.168 90.364 24.168ZM97.1864 24.168C96.6077 24.168 96.1271 24.07 95.7444 23.874C95.3617 23.678 95.0771 23.4167 94.8904 23.09C94.7037 22.7633 94.6104 22.4087 94.6104 22.026C94.6104 21.3167 94.8811 20.7707 95.4224 20.388C95.9637 20.0053 96.7011 19.814 97.6344 19.814H99.5104V19.73C99.5104 19.1233 99.3517 18.666 99.0344 18.358C98.7171 18.0407 98.2924 17.882 97.7604 17.882C97.3031 17.882 96.9064 17.9987 96.5704 18.232C96.2437 18.456 96.0384 18.7873 95.9544 19.226H94.7504C94.7971 18.722 94.9651 18.2973 95.2544 17.952C95.5531 17.6067 95.9217 17.3453 96.3604 17.168C96.7991 16.9813 97.2657 16.888 97.7604 16.888C98.7311 16.888 99.4591 17.1493 99.9444 17.672C100.439 18.1853 100.686 18.8713 100.686 19.73V24H99.6364L99.5664 22.754C99.3704 23.146 99.0811 23.482 98.6984 23.762C98.3251 24.0327 97.8211 24.168 97.1864 24.168ZM97.3684 23.174C97.8164 23.174 98.1991 23.0573 98.5164 22.824C98.8431 22.5907 99.0904 22.2873 99.2584 21.914C99.4264 21.5407 99.5104 21.1487 99.5104 20.738V20.724H97.7324C97.0417 20.724 96.5517 20.8453 96.2624 21.088C95.9824 21.3213 95.8424 21.6153 95.8424 21.97C95.8424 22.334 95.9731 22.628 96.2344 22.852C96.5051 23.0667 96.8831 23.174 97.3684 23.174ZM102.171 24V17.056H103.235L103.319 18.064C103.543 17.6907 103.841 17.4013 104.215 17.196C104.588 16.9907 105.008 16.888 105.475 16.888C106.025 16.888 106.497 17 106.889 17.224C107.29 17.448 107.598 17.7887 107.813 18.246C108.055 17.826 108.387 17.4947 108.807 17.252C109.236 17.0093 109.698 16.888 110.193 16.888C111.023 16.888 111.686 17.14 112.181 17.644C112.675 18.1387 112.923 18.904 112.923 19.94V24H111.761V20.066C111.761 19.3473 111.616 18.806 111.327 18.442C111.037 18.078 110.622 17.896 110.081 17.896C109.521 17.896 109.054 18.1153 108.681 18.554C108.317 18.9833 108.135 19.5993 108.135 20.402V24H106.959V20.066C106.959 19.3473 106.814 18.806 106.525 18.442C106.235 18.078 105.82 17.896 105.279 17.896C104.728 17.896 104.266 18.1153 103.893 18.554C103.529 18.9833 103.347 19.5993 103.347 20.402V24H102.171ZM114.414 27.08V17.056H115.478L115.59 18.204C115.814 17.868 116.131 17.5647 116.542 17.294C116.962 17.0233 117.494 16.888 118.138 16.888C118.829 16.888 119.431 17.0467 119.944 17.364C120.457 17.6813 120.854 18.1153 121.134 18.666C121.423 19.2167 121.568 19.842 121.568 20.542C121.568 21.242 121.423 21.8673 121.134 22.418C120.854 22.9593 120.453 23.3887 119.93 23.706C119.417 24.014 118.815 24.168 118.124 24.168C117.555 24.168 117.046 24.0513 116.598 23.818C116.159 23.5847 115.823 23.258 115.59 22.838V27.08H114.414ZM117.998 23.146C118.465 23.146 118.875 23.0387 119.23 22.824C119.585 22.6 119.865 22.292 120.07 21.9C120.275 21.508 120.378 21.0507 120.378 20.528C120.378 20.0053 120.275 19.548 120.07 19.156C119.865 18.764 119.585 18.4607 119.23 18.246C118.875 18.022 118.465 17.91 117.998 17.91C117.531 17.91 117.121 18.022 116.766 18.246C116.411 18.4607 116.131 18.764 115.926 19.156C115.721 19.548 115.618 20.0053 115.618 20.528C115.618 21.0507 115.721 21.508 115.926 21.9C116.131 22.292 116.411 22.6 116.766 22.824C117.121 23.0387 117.531 23.146 117.998 23.146ZM125.235 24.168C124.656 24.168 124.176 24.07 123.793 23.874C123.41 23.678 123.126 23.4167 122.939 23.09C122.752 22.7633 122.659 22.4087 122.659 22.026C122.659 21.3167 122.93 20.7707 123.471 20.388C124.012 20.0053 124.75 19.814 125.683 19.814H127.559V19.73C127.559 19.1233 127.4 18.666 127.083 18.358C126.766 18.0407 126.341 17.882 125.809 17.882C125.352 17.882 124.955 17.9987 124.619 18.232C124.292 18.456 124.087 18.7873 124.003 19.226H122.799C122.846 18.722 123.014 18.2973 123.303 17.952C123.602 17.6067 123.97 17.3453 124.409 17.168C124.848 16.9813 125.314 16.888 125.809 16.888C126.78 16.888 127.508 17.1493 127.993 17.672C128.488 18.1853 128.735 18.8713 128.735 19.73V24H127.685L127.615 22.754C127.419 23.146 127.13 23.482 126.747 23.762C126.374 24.0327 125.87 24.168 125.235 24.168ZM125.417 23.174C125.865 23.174 126.248 23.0573 126.565 22.824C126.892 22.5907 127.139 22.2873 127.307 21.914C127.475 21.5407 127.559 21.1487 127.559 20.738V20.724H125.781C125.09 20.724 124.6 20.8453 124.311 21.088C124.031 21.3213 123.891 21.6153 123.891 21.97C123.891 22.334 124.022 22.628 124.283 22.852C124.554 23.0667 124.932 23.174 125.417 23.174ZM130.933 15.516C130.7 15.516 130.504 15.4413 130.345 15.292C130.196 15.1333 130.121 14.9373 130.121 14.704C130.121 14.48 130.196 14.2933 130.345 14.144C130.504 13.9947 130.7 13.92 130.933 13.92C131.157 13.92 131.349 13.9947 131.507 14.144C131.666 14.2933 131.745 14.48 131.745 14.704C131.745 14.9373 131.666 15.1333 131.507 15.292C131.349 15.4413 131.157 15.516 130.933 15.516ZM130.345 24V17.056H131.521V24H130.345ZM136.033 21.816C135.641 21.816 135.282 21.7647 134.955 21.662L134.255 22.32C134.358 22.3947 134.484 22.46 134.633 22.516C134.792 22.5627 135.016 22.6093 135.305 22.656C135.594 22.6933 136 22.7353 136.523 22.782C137.456 22.8473 138.124 23.062 138.525 23.426C138.926 23.79 139.127 24.266 139.127 24.854C139.127 25.2553 139.015 25.638 138.791 26.002C138.576 26.366 138.24 26.6647 137.783 26.898C137.335 27.1313 136.756 27.248 136.047 27.248C135.422 27.248 134.866 27.164 134.381 26.996C133.896 26.8373 133.518 26.59 133.247 26.254C132.976 25.9273 132.841 25.512 132.841 25.008C132.841 24.7467 132.911 24.462 133.051 24.154C133.191 23.8553 133.452 23.5707 133.835 23.3C133.63 23.216 133.452 23.1273 133.303 23.034C133.163 22.9313 133.032 22.8193 132.911 22.698V22.376L134.101 21.2C133.55 20.7333 133.275 20.1173 133.275 19.352C133.275 18.8947 133.382 18.4793 133.597 18.106C133.812 17.7327 134.124 17.4387 134.535 17.224C134.946 17 135.445 16.888 136.033 16.888C136.434 16.888 136.798 16.944 137.125 17.056H139.687V17.938L138.385 17.994C138.656 18.386 138.791 18.8387 138.791 19.352C138.791 19.8093 138.679 20.2247 138.455 20.598C138.24 20.9713 137.928 21.27 137.517 21.494C137.116 21.7087 136.621 21.816 136.033 21.816ZM136.033 20.85C136.528 20.85 136.92 20.724 137.209 20.472C137.508 20.2107 137.657 19.8373 137.657 19.352C137.657 18.876 137.508 18.512 137.209 18.26C136.92 17.9987 136.528 17.868 136.033 17.868C135.529 17.868 135.128 17.9987 134.829 18.26C134.54 18.512 134.395 18.876 134.395 19.352C134.395 19.8373 134.54 20.2107 134.829 20.472C135.128 20.724 135.529 20.85 136.033 20.85ZM133.989 24.896C133.989 25.3627 134.185 25.708 134.577 25.932C134.969 26.1653 135.459 26.282 136.047 26.282C136.626 26.282 137.088 26.156 137.433 25.904C137.788 25.652 137.965 25.316 137.965 24.896C137.965 24.5973 137.844 24.336 137.601 24.112C137.358 23.8973 136.91 23.7713 136.257 23.734C135.744 23.6967 135.3 23.65 134.927 23.594C134.544 23.7993 134.292 24.0187 134.171 24.252C134.05 24.4947 133.989 24.7093 133.989 24.896ZM140.734 24V17.056H141.798L141.868 18.302C142.092 17.8633 142.414 17.518 142.834 17.266C143.254 17.014 143.73 16.888 144.262 16.888C145.083 16.888 145.736 17.14 146.222 17.644C146.716 18.1387 146.964 18.904 146.964 19.94V24H145.788V20.066C145.788 18.6193 145.19 17.896 143.996 17.896C143.398 17.896 142.899 18.1153 142.498 18.554C142.106 18.9833 141.91 19.5993 141.91 20.402V24H140.734ZM151.125 24.168C150.295 24.168 149.604 23.958 149.053 23.538C148.503 23.118 148.181 22.5487 148.087 21.83H149.291C149.366 22.194 149.557 22.5113 149.865 22.782C150.183 23.0433 150.607 23.174 151.139 23.174C151.634 23.174 151.998 23.0713 152.231 22.866C152.465 22.6513 152.581 22.3993 152.581 22.11C152.581 21.69 152.427 21.41 152.119 21.27C151.821 21.13 151.396 21.004 150.845 20.892C150.472 20.8173 150.099 20.71 149.725 20.57C149.352 20.43 149.039 20.234 148.787 19.982C148.535 19.7207 148.409 19.38 148.409 18.96C148.409 18.3533 148.633 17.8587 149.081 17.476C149.539 17.084 150.155 16.888 150.929 16.888C151.667 16.888 152.269 17.0747 152.735 17.448C153.211 17.812 153.487 18.3347 153.561 19.016H152.399C152.353 18.6613 152.199 18.386 151.937 18.19C151.685 17.9847 151.345 17.882 150.915 17.882C150.495 17.882 150.169 17.9707 149.935 18.148C149.711 18.3253 149.599 18.5587 149.599 18.848C149.599 19.128 149.744 19.3473 150.033 19.506C150.332 19.6647 150.733 19.8 151.237 19.912C151.667 20.0053 152.073 20.122 152.455 20.262C152.847 20.3927 153.165 20.5933 153.407 20.864C153.659 21.1253 153.785 21.508 153.785 22.012C153.795 22.6373 153.557 23.1553 153.071 23.566C152.595 23.9673 151.947 24.168 151.125 24.168Z" fill="#727578"/>
<path d="M22.0002 25.8333C25.6821 25.8333 28.6668 22.8486 28.6668 19.1667C28.6668 15.4848 25.6821 12.5 22.0002 12.5C18.3183 12.5 15.3335 15.4848 15.3335 19.1667C15.3335 22.8486 18.3183 25.8333 22.0002 25.8333Z" stroke="#727578" stroke-width="1.5" stroke-linecap="round" stroke-linejoin="round"/>
<path d="M30.333 27.5L26.708 23.875" stroke="#727578" stroke-width="1.5" stroke-linecap="round" stroke-linejoin="round"/>
</svg>
