<svg width="363" height="280" viewBox="0 0 363 280" fill="none" xmlns="http://www.w3.org/2000/svg">
<rect y="-0.000488281" width="351" height="280" rx="14" fill="#DCF8F3"/>
<path d="M275.185 30.0005V21.6005H276.361L279.385 27.4565L282.385 21.6005H283.573V30.0005H282.565V23.4005L279.757 28.8005H279.001L276.193 23.4125V30.0005H275.185ZM287.961 30.1445C287.393 30.1445 286.889 30.0165 286.449 29.7605C286.009 29.4965 285.661 29.1325 285.405 28.6685C285.157 28.2045 285.033 27.6565 285.033 27.0245C285.033 26.4005 285.157 25.8565 285.405 25.3925C285.653 24.9205 285.997 24.5565 286.437 24.3005C286.885 24.0365 287.401 23.9045 287.985 23.9045C288.561 23.9045 289.057 24.0365 289.473 24.3005C289.897 24.5565 290.221 24.8965 290.445 25.3205C290.669 25.7445 290.781 26.2005 290.781 26.6885C290.781 26.7765 290.777 26.8645 290.769 26.9525C290.769 27.0405 290.769 27.1405 290.769 27.2525H286.029C286.053 27.7085 286.157 28.0885 286.341 28.3925C286.533 28.6885 286.769 28.9125 287.049 29.0645C287.337 29.2165 287.641 29.2925 287.961 29.2925C288.377 29.2925 288.725 29.1965 289.005 29.0045C289.285 28.8125 289.489 28.5525 289.617 28.2245H290.613C290.453 28.7765 290.145 29.2365 289.689 29.6045C289.241 29.9645 288.665 30.1445 287.961 30.1445ZM287.961 24.7565C287.481 24.7565 287.053 24.9045 286.677 25.2005C286.309 25.4885 286.097 25.9125 286.041 26.4725H289.785C289.761 25.9365 289.577 25.5165 289.233 25.2125C288.889 24.9085 288.465 24.7565 287.961 24.7565ZM294.397 30.1445C293.685 30.1445 293.093 29.9645 292.621 29.6045C292.149 29.2445 291.873 28.7565 291.793 28.1405H292.825C292.889 28.4525 293.053 28.7245 293.317 28.9565C293.589 29.1805 293.953 29.2925 294.409 29.2925C294.833 29.2925 295.145 29.2045 295.345 29.0285C295.545 28.8445 295.645 28.6285 295.645 28.3805C295.645 28.0205 295.513 27.7805 295.249 27.6605C294.993 27.5405 294.629 27.4325 294.157 27.3365C293.837 27.2725 293.517 27.1805 293.197 27.0605C292.877 26.9405 292.609 26.7725 292.393 26.5565C292.177 26.3325 292.069 26.0405 292.069 25.6805C292.069 25.1605 292.261 24.7365 292.645 24.4085C293.037 24.0725 293.565 23.9045 294.229 23.9045C294.861 23.9045 295.377 24.0645 295.777 24.3845C296.185 24.6965 296.421 25.1445 296.485 25.7285H295.489C295.449 25.4245 295.317 25.1885 295.093 25.0205C294.877 24.8445 294.585 24.7565 294.217 24.7565C293.857 24.7565 293.577 24.8325 293.377 24.9845C293.185 25.1365 293.089 25.3365 293.089 25.5845C293.089 25.8245 293.213 26.0125 293.461 26.1485C293.717 26.2845 294.061 26.4005 294.493 26.4965C294.861 26.5765 295.209 26.6765 295.537 26.7965C295.873 26.9085 296.145 27.0805 296.353 27.3125C296.569 27.5365 296.677 27.8645 296.677 28.2965C296.685 28.8325 296.481 29.2765 296.065 29.6285C295.657 29.9725 295.101 30.1445 294.397 30.1445ZM300.397 30.1445C299.685 30.1445 299.093 29.9645 298.621 29.6045C298.149 29.2445 297.873 28.7565 297.793 28.1405H298.825C298.889 28.4525 299.053 28.7245 299.317 28.9565C299.589 29.1805 299.953 29.2925 300.409 29.2925C300.833 29.2925 301.145 29.2045 301.345 29.0285C301.545 28.8445 301.645 28.6285 301.645 28.3805C301.645 28.0205 301.513 27.7805 301.249 27.6605C300.993 27.5405 300.629 27.4325 300.157 27.3365C299.837 27.2725 299.517 27.1805 299.197 27.0605C298.877 26.9405 298.609 26.7725 298.393 26.5565C298.177 26.3325 298.069 26.0405 298.069 25.6805C298.069 25.1605 298.261 24.7365 298.645 24.4085C299.037 24.0725 299.565 23.9045 300.229 23.9045C300.861 23.9045 301.377 24.0645 301.777 24.3845C302.185 24.6965 302.421 25.1445 302.485 25.7285H301.489C301.449 25.4245 301.317 25.1885 301.093 25.0205C300.877 24.8445 300.585 24.7565 300.217 24.7565C299.857 24.7565 299.577 24.8325 299.377 24.9845C299.185 25.1365 299.089 25.3365 299.089 25.5845C299.089 25.8245 299.213 26.0125 299.461 26.1485C299.717 26.2845 300.061 26.4005 300.493 26.4965C300.861 26.5765 301.209 26.6765 301.537 26.7965C301.873 26.9085 302.145 27.0805 302.353 27.3125C302.569 27.5365 302.677 27.8645 302.677 28.2965C302.685 28.8325 302.481 29.2765 302.065 29.6285C301.657 29.9725 301.101 30.1445 300.397 30.1445ZM306.097 30.1445C305.601 30.1445 305.189 30.0605 304.861 29.8925C304.533 29.7245 304.289 29.5005 304.129 29.2205C303.969 28.9405 303.889 28.6365 303.889 28.3085C303.889 27.7005 304.121 27.2325 304.585 26.9045C305.049 26.5765 305.681 26.4125 306.481 26.4125H308.089V26.3405C308.089 25.8205 307.953 25.4285 307.681 25.1645C307.409 24.8925 307.045 24.7565 306.589 24.7565C306.197 24.7565 305.857 24.8565 305.569 25.0565C305.289 25.2485 305.113 25.5325 305.041 25.9085H304.009C304.049 25.4765 304.193 25.1125 304.441 24.8165C304.697 24.5205 305.013 24.2965 305.389 24.1445C305.765 23.9845 306.165 23.9045 306.589 23.9045C307.421 23.9045 308.045 24.1285 308.461 24.5765C308.885 25.0165 309.097 25.6045 309.097 26.3405V30.0005H308.197L308.137 28.9325C307.969 29.2685 307.721 29.5565 307.393 29.7965C307.073 30.0285 306.641 30.1445 306.097 30.1445ZM306.253 29.2925C306.637 29.2925 306.965 29.1925 307.237 28.9925C307.517 28.7925 307.729 28.5325 307.873 28.2125C308.017 27.8925 308.089 27.5565 308.089 27.2045V27.1925H306.565C305.973 27.1925 305.553 27.2965 305.305 27.5045C305.065 27.7045 304.945 27.9565 304.945 28.2605C304.945 28.5725 305.057 28.8245 305.281 29.0165C305.513 29.2005 305.837 29.2925 306.253 29.2925ZM312.961 28.1285C312.625 28.1285 312.317 28.0845 312.037 27.9965L311.437 28.5605C311.525 28.6245 311.633 28.6805 311.761 28.7285C311.897 28.7685 312.089 28.8085 312.337 28.8485C312.585 28.8805 312.933 28.9165 313.381 28.9565C314.181 29.0125 314.753 29.1965 315.097 29.5085C315.441 29.8205 315.613 30.2285 315.613 30.7325C315.613 31.0765 315.517 31.4045 315.325 31.7165C315.141 32.0285 314.853 32.2845 314.461 32.4845C314.077 32.6845 313.581 32.7845 312.973 32.7845C312.437 32.7845 311.961 32.7125 311.545 32.5685C311.129 32.4325 310.805 32.2205 310.573 31.9325C310.341 31.6525 310.225 31.2965 310.225 30.8645C310.225 30.6405 310.285 30.3965 310.405 30.1325C310.525 29.8765 310.749 29.6325 311.077 29.4005C310.901 29.3285 310.749 29.2525 310.621 29.1725C310.501 29.0845 310.389 28.9885 310.285 28.8845V28.6085L311.305 27.6005C310.833 27.2005 310.597 26.6725 310.597 26.0165C310.597 25.6245 310.689 25.2685 310.873 24.9485C311.057 24.6285 311.325 24.3765 311.677 24.1925C312.029 24.0005 312.457 23.9045 312.961 23.9045C313.305 23.9045 313.617 23.9525 313.897 24.0485H316.093V24.8045L314.977 24.8525C315.209 25.1885 315.325 25.5765 315.325 26.0165C315.325 26.4085 315.229 26.7645 315.037 27.0845C314.853 27.4045 314.585 27.6605 314.233 27.8525C313.889 28.0365 313.465 28.1285 312.961 28.1285ZM312.961 27.3005C313.385 27.3005 313.721 27.1925 313.969 26.9765C314.225 26.7525 314.353 26.4325 314.353 26.0165C314.353 25.6085 314.225 25.2965 313.969 25.0805C313.721 24.8565 313.385 24.7445 312.961 24.7445C312.529 24.7445 312.185 24.8565 311.929 25.0805C311.681 25.2965 311.557 25.6085 311.557 26.0165C311.557 26.4325 311.681 26.7525 311.929 26.9765C312.185 27.1925 312.529 27.3005 312.961 27.3005ZM311.209 30.7685C311.209 31.1685 311.377 31.4645 311.713 31.6565C312.049 31.8565 312.469 31.9565 312.973 31.9565C313.469 31.9565 313.865 31.8485 314.161 31.6325C314.465 31.4165 314.617 31.1285 314.617 30.7685C314.617 30.5125 314.513 30.2885 314.305 30.0965C314.097 29.9125 313.713 29.8045 313.153 29.7725C312.713 29.7405 312.333 29.7005 312.013 29.6525C311.685 29.8285 311.469 30.0165 311.365 30.2165C311.261 30.4245 311.209 30.6085 311.209 30.7685ZM319.672 30.1445C319.104 30.1445 318.6 30.0165 318.16 29.7605C317.72 29.4965 317.372 29.1325 317.116 28.6685C316.868 28.2045 316.744 27.6565 316.744 27.0245C316.744 26.4005 316.868 25.8565 317.116 25.3925C317.364 24.9205 317.708 24.5565 318.148 24.3005C318.596 24.0365 319.112 23.9045 319.696 23.9045C320.272 23.9045 320.768 24.0365 321.184 24.3005C321.608 24.5565 321.932 24.8965 322.156 25.3205C322.38 25.7445 322.492 26.2005 322.492 26.6885C322.492 26.7765 322.488 26.8645 322.48 26.9525C322.48 27.0405 322.48 27.1405 322.48 27.2525H317.74C317.764 27.7085 317.868 28.0885 318.052 28.3925C318.244 28.6885 318.48 28.9125 318.76 29.0645C319.048 29.2165 319.352 29.2925 319.672 29.2925C320.088 29.2925 320.436 29.1965 320.716 29.0045C320.996 28.8125 321.2 28.5525 321.328 28.2245H322.324C322.164 28.7765 321.856 29.2365 321.4 29.6045C320.952 29.9645 320.376 30.1445 319.672 30.1445ZM319.672 24.7565C319.192 24.7565 318.764 24.9045 318.388 25.2005C318.02 25.4885 317.808 25.9125 317.752 26.4725H321.496C321.472 25.9365 321.288 25.5165 320.944 25.2125C320.6 24.9085 320.176 24.7565 319.672 24.7565ZM326.108 30.1445C325.396 30.1445 324.804 29.9645 324.332 29.6045C323.86 29.2445 323.584 28.7565 323.504 28.1405H324.536C324.6 28.4525 324.764 28.7245 325.028 28.9565C325.3 29.1805 325.664 29.2925 326.12 29.2925C326.544 29.2925 326.856 29.2045 327.056 29.0285C327.256 28.8445 327.356 28.6285 327.356 28.3805C327.356 28.0205 327.224 27.7805 326.96 27.6605C326.704 27.5405 326.34 27.4325 325.868 27.3365C325.548 27.2725 325.228 27.1805 324.908 27.0605C324.588 26.9405 324.32 26.7725 324.104 26.5565C323.888 26.3325 323.78 26.0405 323.78 25.6805C323.78 25.1605 323.972 24.7365 324.356 24.4085C324.748 24.0725 325.276 23.9045 325.94 23.9045C326.572 23.9045 327.088 24.0645 327.488 24.3845C327.896 24.6965 328.132 25.1445 328.196 25.7285H327.2C327.16 25.4245 327.028 25.1885 326.804 25.0205C326.588 24.8445 326.296 24.7565 325.928 24.7565C325.568 24.7565 325.288 24.8325 325.088 24.9845C324.896 25.1365 324.8 25.3365 324.8 25.5845C324.8 25.8245 324.924 26.0125 325.172 26.1485C325.428 26.2845 325.772 26.4005 326.204 26.4965C326.572 26.5765 326.92 26.6765 327.248 26.7965C327.584 26.9085 327.856 27.0805 328.064 27.3125C328.28 27.5365 328.388 27.8645 328.388 28.2965C328.396 28.8325 328.192 29.2765 327.776 29.6285C327.368 29.9725 326.812 30.1445 326.108 30.1445ZM307.768 46.1445C307.056 46.1445 306.464 45.9645 305.992 45.6045C305.52 45.2445 305.244 44.7565 305.164 44.1405H306.196C306.26 44.4525 306.424 44.7245 306.688 44.9565C306.96 45.1805 307.324 45.2925 307.78 45.2925C308.204 45.2925 308.516 45.2045 308.716 45.0285C308.916 44.8445 309.016 44.6285 309.016 44.3805C309.016 44.0205 308.884 43.7805 308.62 43.6605C308.364 43.5405 308 43.4325 307.528 43.3365C307.208 43.2725 306.888 43.1805 306.568 43.0605C306.248 42.9405 305.98 42.7725 305.764 42.5565C305.548 42.3325 305.44 42.0405 305.44 41.6805C305.44 41.1605 305.632 40.7365 306.016 40.4085C306.408 40.0725 306.936 39.9045 307.6 39.9045C308.232 39.9045 308.748 40.0645 309.148 40.3845C309.556 40.6965 309.792 41.1445 309.856 41.7285H308.86C308.82 41.4245 308.688 41.1885 308.464 41.0205C308.248 40.8445 307.956 40.7565 307.588 40.7565C307.228 40.7565 306.948 40.8325 306.748 40.9845C306.556 41.1365 306.46 41.3365 306.46 41.5845C306.46 41.8245 306.584 42.0125 306.832 42.1485C307.088 42.2845 307.432 42.4005 307.864 42.4965C308.232 42.5765 308.58 42.6765 308.908 42.7965C309.244 42.9085 309.516 43.0805 309.724 43.3125C309.94 43.5365 310.048 43.8645 310.048 44.2965C310.056 44.8325 309.852 45.2765 309.436 45.6285C309.028 45.9725 308.472 46.1445 307.768 46.1445ZM314.164 46.1445C313.596 46.1445 313.092 46.0165 312.652 45.7605C312.212 45.4965 311.864 45.1325 311.608 44.6685C311.36 44.2045 311.236 43.6565 311.236 43.0245C311.236 42.4005 311.36 41.8565 311.608 41.3925C311.856 40.9205 312.2 40.5565 312.64 40.3005C313.088 40.0365 313.604 39.9045 314.188 39.9045C314.764 39.9045 315.26 40.0365 315.676 40.3005C316.1 40.5565 316.424 40.8965 316.648 41.3205C316.872 41.7445 316.984 42.2005 316.984 42.6885C316.984 42.7765 316.98 42.8645 316.972 42.9525C316.972 43.0405 316.972 43.1405 316.972 43.2525H312.232C312.256 43.7085 312.36 44.0885 312.544 44.3925C312.736 44.6885 312.972 44.9125 313.252 45.0645C313.54 45.2165 313.844 45.2925 314.164 45.2925C314.58 45.2925 314.928 45.1965 315.208 45.0045C315.488 44.8125 315.692 44.5525 315.82 44.2245H316.816C316.656 44.7765 316.348 45.2365 315.892 45.6045C315.444 45.9645 314.868 46.1445 314.164 46.1445ZM314.164 40.7565C313.684 40.7565 313.256 40.9045 312.88 41.2005C312.512 41.4885 312.3 41.9125 312.244 42.4725H315.988C315.964 41.9365 315.78 41.5165 315.436 41.2125C315.092 40.9085 314.668 40.7565 314.164 40.7565ZM318.32 46.0005V40.0485H319.232L319.292 41.1165C319.484 40.7405 319.76 40.4445 320.12 40.2285C320.48 40.0125 320.888 39.9045 321.344 39.9045C322.048 39.9045 322.608 40.1205 323.024 40.5525C323.448 40.9765 323.66 41.6325 323.66 42.5205V46.0005H322.652V42.6285C322.652 41.3885 322.14 40.7685 321.116 40.7685C320.604 40.7685 320.176 40.9565 319.832 41.3325C319.496 41.7005 319.328 42.2285 319.328 42.9165V46.0005H318.32ZM327.539 46.0005C326.995 46.0005 326.567 45.8685 326.255 45.6045C325.943 45.3405 325.787 44.8645 325.787 44.1765V40.9005H324.755V40.0485H325.787L325.919 38.6205H326.795V40.0485H328.547V40.9005H326.795V44.1765C326.795 44.5525 326.871 44.8085 327.023 44.9445C327.175 45.0725 327.443 45.1365 327.827 45.1365H328.451V46.0005H327.539Z" fill="#727578"/>
<path d="M271.013 134V125.6H272.021L276.497 132.332V125.6H277.505V134H276.497L272.021 127.268V134H271.013ZM281.398 134.144C280.694 134.144 280.134 133.932 279.718 133.508C279.302 133.076 279.094 132.416 279.094 131.528V128.048H280.102V131.42C280.102 132.66 280.61 133.28 281.626 133.28C282.146 133.28 282.574 133.096 282.91 132.728C283.254 132.352 283.426 131.82 283.426 131.132V128.048H284.434V134H283.522L283.45 132.932C283.266 133.308 282.99 133.604 282.622 133.82C282.262 134.036 281.854 134.144 281.398 134.144ZM286.094 134V128.048H287.006L287.078 128.912C287.27 128.592 287.526 128.344 287.846 128.168C288.166 127.992 288.526 127.904 288.926 127.904C289.398 127.904 289.802 128 290.138 128.192C290.482 128.384 290.746 128.676 290.93 129.068C291.138 128.708 291.422 128.424 291.782 128.216C292.15 128.008 292.546 127.904 292.97 127.904C293.682 127.904 294.25 128.12 294.674 128.552C295.098 128.976 295.31 129.632 295.31 130.52V134H294.314V130.628C294.314 130.012 294.19 129.548 293.942 129.236C293.694 128.924 293.338 128.768 292.874 128.768C292.394 128.768 291.994 128.956 291.674 129.332C291.362 129.7 291.206 130.228 291.206 130.916V134H290.198V130.628C290.198 130.012 290.074 129.548 289.826 129.236C289.578 128.924 289.222 128.768 288.758 128.768C288.286 128.768 287.89 128.956 287.57 129.332C287.258 129.7 287.102 130.228 287.102 130.916V134H286.094ZM300.008 134.144C299.52 134.144 299.084 134.044 298.7 133.844C298.324 133.644 298.036 133.364 297.836 133.004L297.74 134H296.828V125.36H297.836V129.032C298.028 128.744 298.3 128.484 298.652 128.252C299.012 128.02 299.468 127.904 300.02 127.904C300.612 127.904 301.128 128.04 301.568 128.312C302.008 128.584 302.348 128.956 302.588 129.428C302.836 129.9 302.96 130.436 302.96 131.036C302.96 131.636 302.836 132.172 302.588 132.644C302.348 133.108 302.004 133.476 301.556 133.748C301.116 134.012 300.6 134.144 300.008 134.144ZM299.9 133.268C300.3 133.268 300.652 133.176 300.956 132.992C301.26 132.8 301.5 132.536 301.676 132.2C301.852 131.864 301.94 131.472 301.94 131.024C301.94 130.576 301.852 130.184 301.676 129.848C301.5 129.512 301.26 129.252 300.956 129.068C300.652 128.876 300.3 128.78 299.9 128.78C299.5 128.78 299.148 128.876 298.844 129.068C298.54 129.252 298.3 129.512 298.124 129.848C297.948 130.184 297.86 130.576 297.86 131.024C297.86 131.472 297.948 131.864 298.124 132.2C298.3 132.536 298.54 132.8 298.844 132.992C299.148 133.176 299.5 133.268 299.9 133.268ZM307.039 134.144C306.471 134.144 305.967 134.016 305.527 133.76C305.087 133.496 304.739 133.132 304.483 132.668C304.235 132.204 304.111 131.656 304.111 131.024C304.111 130.4 304.235 129.856 304.483 129.392C304.731 128.92 305.075 128.556 305.515 128.3C305.963 128.036 306.479 127.904 307.063 127.904C307.639 127.904 308.135 128.036 308.551 128.3C308.975 128.556 309.299 128.896 309.523 129.32C309.747 129.744 309.859 130.2 309.859 130.688C309.859 130.776 309.855 130.864 309.847 130.952C309.847 131.04 309.847 131.14 309.847 131.252H305.107C305.131 131.708 305.235 132.088 305.419 132.392C305.611 132.688 305.847 132.912 306.127 133.064C306.415 133.216 306.719 133.292 307.039 133.292C307.455 133.292 307.803 133.196 308.083 133.004C308.363 132.812 308.567 132.552 308.695 132.224H309.691C309.531 132.776 309.223 133.236 308.767 133.604C308.319 133.964 307.743 134.144 307.039 134.144ZM307.039 128.756C306.559 128.756 306.131 128.904 305.755 129.2C305.387 129.488 305.175 129.912 305.119 130.472H308.863C308.839 129.936 308.655 129.516 308.311 129.212C307.967 128.908 307.543 128.756 307.039 128.756ZM311.195 134V128.048H312.107L312.191 129.188C312.375 128.796 312.655 128.484 313.031 128.252C313.407 128.02 313.871 127.904 314.423 127.904V128.96H314.147C313.795 128.96 313.471 129.024 313.175 129.152C312.879 129.272 312.643 129.48 312.467 129.776C312.291 130.072 312.203 130.48 312.203 131V134H311.195ZM321.442 134.144C320.882 134.144 320.378 134.016 319.93 133.76C319.482 133.504 319.126 133.144 318.862 132.68C318.606 132.208 318.478 131.656 318.478 131.024C318.478 130.392 318.61 129.844 318.874 129.38C319.138 128.908 319.494 128.544 319.942 128.288C320.398 128.032 320.906 127.904 321.466 127.904C322.026 127.904 322.53 128.032 322.978 128.288C323.426 128.544 323.778 128.908 324.034 129.38C324.298 129.844 324.43 130.392 324.43 131.024C324.43 131.656 324.298 132.208 324.034 132.68C323.77 133.144 323.41 133.504 322.954 133.76C322.506 134.016 322.002 134.144 321.442 134.144ZM321.442 133.28C321.786 133.28 322.106 133.196 322.402 133.028C322.698 132.86 322.938 132.608 323.122 132.272C323.306 131.936 323.398 131.52 323.398 131.024C323.398 130.528 323.306 130.112 323.122 129.776C322.946 129.44 322.71 129.188 322.414 129.02C322.118 128.852 321.802 128.768 321.466 128.768C321.122 128.768 320.802 128.852 320.506 129.02C320.21 129.188 319.97 129.44 319.786 129.776C319.602 130.112 319.51 130.528 319.51 131.024C319.51 131.52 319.602 131.936 319.786 132.272C319.97 132.608 320.206 132.86 320.494 133.028C320.79 133.196 321.106 133.28 321.442 133.28ZM326.156 134V128.9H325.256V128.048H326.156V127.016C326.156 126.44 326.3 126.02 326.588 125.756C326.876 125.492 327.296 125.36 327.848 125.36H328.448V126.224H328.004C327.7 126.224 327.484 126.288 327.356 126.416C327.228 126.536 327.164 126.744 327.164 127.04V128.048H328.628V128.9H327.164V134H326.156ZM283.298 150.144C282.73 150.144 282.218 150.016 281.762 149.76C281.314 149.496 280.958 149.132 280.694 148.668C280.438 148.196 280.31 147.648 280.31 147.024C280.31 146.4 280.438 145.856 280.694 145.392C280.958 144.92 281.314 144.556 281.762 144.3C282.218 144.036 282.73 143.904 283.298 143.904C284.002 143.904 284.594 144.088 285.074 144.456C285.562 144.824 285.87 145.316 285.998 145.932H284.966C284.886 145.564 284.69 145.28 284.378 145.08C284.066 144.872 283.702 144.768 283.286 144.768C282.95 144.768 282.634 144.852 282.338 145.02C282.042 145.188 281.802 145.44 281.618 145.776C281.434 146.112 281.342 146.528 281.342 147.024C281.342 147.52 281.434 147.936 281.618 148.272C281.802 148.608 282.042 148.864 282.338 149.04C282.634 149.208 282.95 149.292 283.286 149.292C283.702 149.292 284.066 149.192 284.378 148.992C284.69 148.784 284.886 148.492 284.966 148.116H285.998C285.878 148.716 285.574 149.204 285.086 149.58C284.598 149.956 284.002 150.144 283.298 150.144ZM290.118 150.144C289.558 150.144 289.054 150.016 288.606 149.76C288.158 149.504 287.802 149.144 287.538 148.68C287.282 148.208 287.154 147.656 287.154 147.024C287.154 146.392 287.286 145.844 287.55 145.38C287.814 144.908 288.17 144.544 288.618 144.288C289.074 144.032 289.582 143.904 290.142 143.904C290.702 143.904 291.206 144.032 291.654 144.288C292.102 144.544 292.454 144.908 292.71 145.38C292.974 145.844 293.106 146.392 293.106 147.024C293.106 147.656 292.974 148.208 292.71 148.68C292.446 149.144 292.086 149.504 291.63 149.76C291.182 150.016 290.678 150.144 290.118 150.144ZM290.118 149.28C290.462 149.28 290.782 149.196 291.078 149.028C291.374 148.86 291.614 148.608 291.798 148.272C291.982 147.936 292.074 147.52 292.074 147.024C292.074 146.528 291.982 146.112 291.798 145.776C291.622 145.44 291.386 145.188 291.09 145.02C290.794 144.852 290.478 144.768 290.142 144.768C289.798 144.768 289.478 144.852 289.182 145.02C288.886 145.188 288.646 145.44 288.462 145.776C288.278 146.112 288.186 146.528 288.186 147.024C288.186 147.52 288.278 147.936 288.462 148.272C288.646 148.608 288.882 148.86 289.17 149.028C289.466 149.196 289.782 149.28 290.118 149.28ZM294.508 150V144.048H295.42L295.48 145.116C295.672 144.74 295.948 144.444 296.308 144.228C296.668 144.012 297.076 143.904 297.532 143.904C298.236 143.904 298.796 144.12 299.212 144.552C299.636 144.976 299.848 145.632 299.848 146.52V150H298.84V146.628C298.84 145.388 298.328 144.768 297.304 144.768C296.792 144.768 296.364 144.956 296.02 145.332C295.684 145.7 295.516 146.228 295.516 146.916V150H294.508ZM303.727 150C303.183 150 302.755 149.868 302.443 149.604C302.131 149.34 301.975 148.864 301.975 148.176V144.9H300.943V144.048H301.975L302.107 142.62H302.983V144.048H304.735V144.9H302.983V148.176C302.983 148.552 303.059 148.808 303.211 148.944C303.363 149.072 303.631 149.136 304.015 149.136H304.639V150H303.727ZM307.996 150.144C307.5 150.144 307.088 150.06 306.76 149.892C306.432 149.724 306.188 149.5 306.028 149.22C305.868 148.94 305.788 148.636 305.788 148.308C305.788 147.7 306.02 147.232 306.484 146.904C306.948 146.576 307.58 146.412 308.38 146.412H309.988V146.34C309.988 145.82 309.852 145.428 309.58 145.164C309.308 144.892 308.944 144.756 308.488 144.756C308.096 144.756 307.756 144.856 307.468 145.056C307.188 145.248 307.012 145.532 306.94 145.908H305.908C305.948 145.476 306.092 145.112 306.34 144.816C306.596 144.52 306.912 144.296 307.288 144.144C307.664 143.984 308.064 143.904 308.488 143.904C309.32 143.904 309.944 144.128 310.36 144.576C310.784 145.016 310.996 145.604 310.996 146.34V150H310.096L310.036 148.932C309.868 149.268 309.62 149.556 309.292 149.796C308.972 150.028 308.54 150.144 307.996 150.144ZM308.152 149.292C308.536 149.292 308.864 149.192 309.136 148.992C309.416 148.792 309.628 148.532 309.772 148.212C309.916 147.892 309.988 147.556 309.988 147.204V147.192H308.464C307.872 147.192 307.452 147.296 307.204 147.504C306.964 147.704 306.844 147.956 306.844 148.26C306.844 148.572 306.956 148.824 307.18 149.016C307.412 149.2 307.736 149.292 308.152 149.292ZM315.244 150.144C314.676 150.144 314.164 150.016 313.708 149.76C313.26 149.496 312.904 149.132 312.64 148.668C312.384 148.196 312.256 147.648 312.256 147.024C312.256 146.4 312.384 145.856 312.64 145.392C312.904 144.92 313.26 144.556 313.708 144.3C314.164 144.036 314.676 143.904 315.244 143.904C315.948 143.904 316.54 144.088 317.02 144.456C317.508 144.824 317.816 145.316 317.944 145.932H316.912C316.832 145.564 316.636 145.28 316.324 145.08C316.012 144.872 315.648 144.768 315.232 144.768C314.896 144.768 314.58 144.852 314.284 145.02C313.988 145.188 313.748 145.44 313.564 145.776C313.38 146.112 313.288 146.528 313.288 147.024C313.288 147.52 313.38 147.936 313.564 148.272C313.748 148.608 313.988 148.864 314.284 149.04C314.58 149.208 314.896 149.292 315.232 149.292C315.648 149.292 316.012 149.192 316.324 148.992C316.636 148.784 316.832 148.492 316.912 148.116H317.944C317.824 148.716 317.52 149.204 317.032 149.58C316.544 149.956 315.948 150.144 315.244 150.144ZM321.539 150C320.995 150 320.567 149.868 320.255 149.604C319.943 149.34 319.787 148.864 319.787 148.176V144.9H318.755V144.048H319.787L319.919 142.62H320.795V144.048H322.547V144.9H320.795V148.176C320.795 148.552 320.871 148.808 321.023 148.944C321.175 149.072 321.443 149.136 321.827 149.136H322.451V150H321.539ZM326.108 150.144C325.396 150.144 324.804 149.964 324.332 149.604C323.86 149.244 323.584 148.756 323.504 148.14H324.536C324.6 148.452 324.764 148.724 325.028 148.956C325.3 149.18 325.664 149.292 326.12 149.292C326.544 149.292 326.856 149.204 327.056 149.028C327.256 148.844 327.356 148.628 327.356 148.38C327.356 148.02 327.224 147.78 326.96 147.66C326.704 147.54 326.34 147.432 325.868 147.336C325.548 147.272 325.228 147.18 324.908 147.06C324.588 146.94 324.32 146.772 324.104 146.556C323.888 146.332 323.78 146.04 323.78 145.68C323.78 145.16 323.972 144.736 324.356 144.408C324.748 144.072 325.276 143.904 325.94 143.904C326.572 143.904 327.088 144.064 327.488 144.384C327.896 144.696 328.132 145.144 328.196 145.728H327.2C327.16 145.424 327.028 145.188 326.804 145.02C326.588 144.844 326.296 144.756 325.928 144.756C325.568 144.756 325.288 144.832 325.088 144.984C324.896 145.136 324.8 145.336 324.8 145.584C324.8 145.824 324.924 146.012 325.172 146.148C325.428 146.284 325.772 146.4 326.204 146.496C326.572 146.576 326.92 146.676 327.248 146.796C327.584 146.908 327.856 147.08 328.064 147.312C328.28 147.536 328.388 147.864 328.388 148.296C328.396 148.832 328.192 149.276 327.776 149.628C327.368 149.972 326.812 150.144 326.108 150.144Z" fill="#727578"/>
<path d="M286.884 85.9998V69.3798L283.434 70.1898V67.2498L288.504 64.9998H290.874V85.9998H286.884ZM294.436 85.9998V83.2098C295.716 82.1498 296.956 81.0998 298.156 80.0598C299.376 79.0198 300.456 77.9898 301.396 76.9698C302.356 75.9498 303.116 74.9598 303.676 73.9998C304.256 73.0198 304.546 72.0698 304.546 71.1498C304.546 70.2898 304.306 69.5298 303.826 68.8698C303.366 68.2098 302.596 67.8798 301.516 67.8798C300.416 67.8798 299.586 68.2398 299.026 68.9598C298.466 69.6798 298.186 70.5498 298.186 71.5698H294.466C294.506 70.0298 294.846 68.7498 295.486 67.7298C296.126 66.6898 296.976 65.9198 298.036 65.4198C299.096 64.8998 300.286 64.6398 301.606 64.6398C303.746 64.6398 305.406 65.2298 306.586 66.4098C307.786 67.5698 308.386 69.0798 308.386 70.9398C308.386 72.0998 308.116 73.2298 307.576 74.3298C307.056 75.4298 306.366 76.4898 305.506 77.5098C304.646 78.5298 303.716 79.4898 302.716 80.3898C301.716 81.2698 300.746 82.0898 299.806 82.8498H308.896V85.9998H294.436ZM321.421 85.9998V82.0998H311.071V79.0398L320.911 64.9998H325.261V78.7698H328.021V82.0998H325.261V85.9998H321.421ZM315.181 78.7698H321.661V69.2298L315.181 78.7698Z" fill="black"/>
<path d="M297.934 192.408C296.279 192.408 294.885 192.091 293.752 191.456C292.619 190.799 291.735 189.949 291.1 188.906C290.465 187.863 290.091 186.741 289.978 185.54H294.024C294.205 186.583 294.636 187.387 295.316 187.954C296.019 188.521 296.903 188.804 297.968 188.804C299.487 188.804 300.711 188.113 301.64 186.73C302.569 185.325 303.068 183.194 303.136 180.338C302.592 181.267 301.765 182.038 300.654 182.65C299.566 183.262 298.365 183.568 297.05 183.568C295.735 183.568 294.5 183.251 293.344 182.616C292.188 181.981 291.247 181.086 290.522 179.93C289.797 178.774 289.434 177.414 289.434 175.85C289.434 174.422 289.785 173.096 290.488 171.872C291.191 170.648 292.165 169.662 293.412 168.914C294.659 168.166 296.121 167.792 297.798 167.792C299.589 167.792 301.096 168.121 302.32 168.778C303.544 169.435 304.519 170.319 305.244 171.43C305.992 172.541 306.525 173.776 306.842 175.136C307.182 176.496 307.352 177.89 307.352 179.318C307.352 181.97 306.978 184.282 306.23 186.254C305.505 188.203 304.428 189.722 303 190.81C301.595 191.875 299.906 192.408 297.934 192.408ZM298.07 179.896C298.909 179.896 299.668 179.715 300.348 179.352C301.028 178.967 301.561 178.468 301.946 177.856C302.331 177.221 302.524 176.519 302.524 175.748C302.524 174.524 302.093 173.515 301.232 172.722C300.393 171.929 299.328 171.532 298.036 171.532C296.767 171.532 295.713 171.929 294.874 172.722C294.035 173.493 293.616 174.479 293.616 175.68C293.616 176.949 294.035 177.969 294.874 178.74C295.713 179.511 296.778 179.896 298.07 179.896ZM318.844 192.408C317.28 192.408 315.863 192.136 314.594 191.592C313.325 191.025 312.305 190.164 311.534 189.008C310.763 187.852 310.355 186.401 310.31 184.656H314.594C314.617 185.812 314.991 186.787 315.716 187.58C316.464 188.351 317.507 188.736 318.844 188.736C320.113 188.736 321.088 188.385 321.768 187.682C322.448 186.979 322.788 186.095 322.788 185.03C322.788 183.783 322.335 182.843 321.428 182.208C320.544 181.551 319.399 181.222 317.994 181.222H316.226V177.652H318.028C319.184 177.652 320.147 177.38 320.918 176.836C321.689 176.292 322.074 175.487 322.074 174.422C322.074 173.538 321.779 172.835 321.19 172.314C320.623 171.77 319.83 171.498 318.81 171.498C317.699 171.498 316.827 171.827 316.192 172.484C315.58 173.141 315.24 173.946 315.172 174.898H310.922C311.013 172.699 311.772 170.965 313.2 169.696C314.651 168.427 316.521 167.792 318.81 167.792C320.442 167.792 321.813 168.087 322.924 168.676C324.057 169.243 324.907 170.002 325.474 170.954C326.063 171.906 326.358 172.96 326.358 174.116C326.358 175.453 325.984 176.587 325.236 177.516C324.511 178.423 323.604 179.035 322.516 179.352C323.853 179.624 324.941 180.281 325.78 181.324C326.619 182.344 327.038 183.636 327.038 185.2C327.038 186.515 326.721 187.716 326.086 188.804C325.451 189.892 324.522 190.765 323.298 191.422C322.097 192.079 320.612 192.408 318.844 192.408Z" fill="black"/>
<circle cx="121.642" cy="110.865" r="75" transform="rotate(47.7461 121.642 110.865)" stroke="#A8DADC" stroke-width="30"/>
<path d="M93.7939 180.502C132.254 195.882 175.9 177.172 191.28 138.712C198.176 121.466 198.218 103.179 192.699 86.8638" stroke="#3B79D8" stroke-width="30"/>
<path d="M66.1281 161.296C74.6614 170.689 85.0326 177.418 96.1963 181.432" stroke="#FF874E" stroke-width="30"/>
<g filter="url(#filter0_d_152_4156)">
<rect x="144" y="226" width="138" height="30" rx="15" fill="white"/>
</g>
<path d="M170.888 245V236.6H173.6C174.256 236.6 174.792 236.708 175.208 236.924C175.624 237.14 175.932 237.436 176.132 237.812C176.332 238.188 176.432 238.604 176.432 239.06C176.432 239.588 176.288 240.064 176 240.488C175.72 240.912 175.28 241.212 174.68 241.388L176.516 245H175.328L173.624 241.532H173.552H171.896V245H170.888ZM171.896 240.74H173.528C174.176 240.74 174.648 240.584 174.944 240.272C175.24 239.96 175.388 239.56 175.388 239.072C175.388 238.576 175.24 238.184 174.944 237.896C174.656 237.6 174.18 237.452 173.516 237.452H171.896V240.74ZM180.254 245.144C179.686 245.144 179.182 245.016 178.742 244.76C178.302 244.496 177.954 244.132 177.698 243.668C177.45 243.204 177.326 242.656 177.326 242.024C177.326 241.4 177.45 240.856 177.698 240.392C177.946 239.92 178.29 239.556 178.73 239.3C179.178 239.036 179.694 238.904 180.278 238.904C180.854 238.904 181.35 239.036 181.766 239.3C182.19 239.556 182.514 239.896 182.738 240.32C182.962 240.744 183.074 241.2 183.074 241.688C183.074 241.776 183.07 241.864 183.062 241.952C183.062 242.04 183.062 242.14 183.062 242.252H178.322C178.346 242.708 178.45 243.088 178.634 243.392C178.826 243.688 179.062 243.912 179.342 244.064C179.63 244.216 179.934 244.292 180.254 244.292C180.67 244.292 181.018 244.196 181.298 244.004C181.578 243.812 181.782 243.552 181.91 243.224H182.906C182.746 243.776 182.438 244.236 181.982 244.604C181.534 244.964 180.958 245.144 180.254 245.144ZM180.254 239.756C179.774 239.756 179.346 239.904 178.97 240.2C178.602 240.488 178.39 240.912 178.334 241.472H182.078C182.054 240.936 181.87 240.516 181.526 240.212C181.182 239.908 180.758 239.756 180.254 239.756ZM186.69 245.144C185.978 245.144 185.386 244.964 184.914 244.604C184.442 244.244 184.166 243.756 184.086 243.14H185.118C185.182 243.452 185.346 243.724 185.61 243.956C185.882 244.18 186.246 244.292 186.702 244.292C187.126 244.292 187.438 244.204 187.638 244.028C187.838 243.844 187.938 243.628 187.938 243.38C187.938 243.02 187.806 242.78 187.542 242.66C187.286 242.54 186.922 242.432 186.45 242.336C186.13 242.272 185.81 242.18 185.49 242.06C185.17 241.94 184.902 241.772 184.686 241.556C184.47 241.332 184.362 241.04 184.362 240.68C184.362 240.16 184.554 239.736 184.938 239.408C185.33 239.072 185.858 238.904 186.522 238.904C187.154 238.904 187.67 239.064 188.07 239.384C188.478 239.696 188.714 240.144 188.778 240.728H187.782C187.742 240.424 187.61 240.188 187.386 240.02C187.17 239.844 186.878 239.756 186.51 239.756C186.15 239.756 185.87 239.832 185.67 239.984C185.478 240.136 185.382 240.336 185.382 240.584C185.382 240.824 185.506 241.012 185.754 241.148C186.01 241.284 186.354 241.4 186.786 241.496C187.154 241.576 187.502 241.676 187.83 241.796C188.166 241.908 188.438 242.08 188.646 242.312C188.862 242.536 188.97 242.864 188.97 243.296C188.978 243.832 188.774 244.276 188.358 244.628C187.95 244.972 187.394 245.144 186.69 245.144ZM190.41 247.64V239.048H191.322L191.418 240.032C191.61 239.744 191.882 239.484 192.234 239.252C192.594 239.02 193.05 238.904 193.602 238.904C194.194 238.904 194.71 239.04 195.15 239.312C195.59 239.584 195.93 239.956 196.17 240.428C196.418 240.9 196.542 241.436 196.542 242.036C196.542 242.636 196.418 243.172 196.17 243.644C195.93 244.108 195.586 244.476 195.138 244.748C194.698 245.012 194.182 245.144 193.59 245.144C193.102 245.144 192.666 245.044 192.282 244.844C191.906 244.644 191.618 244.364 191.418 244.004V247.64H190.41ZM193.482 244.268C193.882 244.268 194.234 244.176 194.538 243.992C194.842 243.8 195.082 243.536 195.258 243.2C195.434 242.864 195.522 242.472 195.522 242.024C195.522 241.576 195.434 241.184 195.258 240.848C195.082 240.512 194.842 240.252 194.538 240.068C194.234 239.876 193.882 239.78 193.482 239.78C193.082 239.78 192.73 239.876 192.426 240.068C192.122 240.252 191.882 240.512 191.706 240.848C191.53 241.184 191.442 241.576 191.442 242.024C191.442 242.472 191.53 242.864 191.706 243.2C191.882 243.536 192.122 243.8 192.426 243.992C192.73 244.176 193.082 244.268 193.482 244.268ZM200.657 245.144C200.097 245.144 199.593 245.016 199.145 244.76C198.697 244.504 198.341 244.144 198.077 243.68C197.821 243.208 197.693 242.656 197.693 242.024C197.693 241.392 197.825 240.844 198.089 240.38C198.353 239.908 198.709 239.544 199.157 239.288C199.613 239.032 200.121 238.904 200.681 238.904C201.241 238.904 201.745 239.032 202.193 239.288C202.641 239.544 202.993 239.908 203.249 240.38C203.513 240.844 203.645 241.392 203.645 242.024C203.645 242.656 203.513 243.208 203.249 243.68C202.985 244.144 202.625 244.504 202.169 244.76C201.721 245.016 201.217 245.144 200.657 245.144ZM200.657 244.28C201.001 244.28 201.321 244.196 201.617 244.028C201.913 243.86 202.153 243.608 202.337 243.272C202.521 242.936 202.613 242.52 202.613 242.024C202.613 241.528 202.521 241.112 202.337 240.776C202.161 240.44 201.925 240.188 201.629 240.02C201.333 239.852 201.017 239.768 200.681 239.768C200.337 239.768 200.017 239.852 199.721 240.02C199.425 240.188 199.185 240.44 199.001 240.776C198.817 241.112 198.725 241.528 198.725 242.024C198.725 242.52 198.817 242.936 199.001 243.272C199.185 243.608 199.421 243.86 199.709 244.028C200.005 244.196 200.321 244.28 200.657 244.28ZM205.047 245V239.048H205.959L206.019 240.116C206.211 239.74 206.487 239.444 206.847 239.228C207.207 239.012 207.615 238.904 208.071 238.904C208.775 238.904 209.335 239.12 209.751 239.552C210.175 239.976 210.387 240.632 210.387 241.52V245H209.379V241.628C209.379 240.388 208.867 239.768 207.843 239.768C207.331 239.768 206.903 239.956 206.559 240.332C206.223 240.7 206.055 241.228 206.055 241.916V245H205.047ZM214.614 245.144C214.022 245.144 213.502 245.008 213.054 244.736C212.614 244.464 212.27 244.092 212.022 243.62C211.782 243.148 211.662 242.612 211.662 242.012C211.662 241.412 211.786 240.88 212.034 240.416C212.282 239.944 212.626 239.576 213.066 239.312C213.506 239.04 214.026 238.904 214.626 238.904C215.114 238.904 215.546 239.004 215.922 239.204C216.298 239.404 216.59 239.684 216.798 240.044V236.36H217.806V245H216.894L216.798 244.016C216.606 244.304 216.33 244.564 215.97 244.796C215.61 245.028 215.158 245.144 214.614 245.144ZM214.722 244.268C215.122 244.268 215.474 244.176 215.778 243.992C216.09 243.8 216.33 243.536 216.498 243.2C216.674 242.864 216.762 242.472 216.762 242.024C216.762 241.576 216.674 241.184 216.498 240.848C216.33 240.512 216.09 240.252 215.778 240.068C215.474 239.876 215.122 239.78 214.722 239.78C214.33 239.78 213.978 239.876 213.666 240.068C213.362 240.252 213.122 240.512 212.946 240.848C212.778 241.184 212.694 241.576 212.694 242.024C212.694 242.472 212.778 242.864 212.946 243.2C213.122 243.536 213.362 243.8 213.666 243.992C213.978 244.176 214.33 244.268 214.722 244.268ZM222.125 245.144C221.557 245.144 221.053 245.016 220.613 244.76C220.173 244.496 219.825 244.132 219.569 243.668C219.321 243.204 219.197 242.656 219.197 242.024C219.197 241.4 219.321 240.856 219.569 240.392C219.817 239.92 220.161 239.556 220.601 239.3C221.049 239.036 221.565 238.904 222.149 238.904C222.725 238.904 223.221 239.036 223.637 239.3C224.061 239.556 224.385 239.896 224.609 240.32C224.833 240.744 224.945 241.2 224.945 241.688C224.945 241.776 224.941 241.864 224.933 241.952C224.933 242.04 224.933 242.14 224.933 242.252H220.193C220.217 242.708 220.321 243.088 220.505 243.392C220.697 243.688 220.933 243.912 221.213 244.064C221.501 244.216 221.805 244.292 222.125 244.292C222.541 244.292 222.889 244.196 223.169 244.004C223.449 243.812 223.653 243.552 223.781 243.224H224.777C224.617 243.776 224.309 244.236 223.853 244.604C223.405 244.964 222.829 245.144 222.125 245.144ZM222.125 239.756C221.645 239.756 221.217 239.904 220.841 240.2C220.473 240.488 220.261 240.912 220.205 241.472H223.949C223.925 240.936 223.741 240.516 223.397 240.212C223.053 239.908 222.629 239.756 222.125 239.756ZM228.981 245.144C228.389 245.144 227.869 245.008 227.421 244.736C226.981 244.464 226.637 244.092 226.389 243.62C226.149 243.148 226.029 242.612 226.029 242.012C226.029 241.412 226.153 240.88 226.401 240.416C226.649 239.944 226.993 239.576 227.433 239.312C227.873 239.04 228.393 238.904 228.993 238.904C229.481 238.904 229.913 239.004 230.289 239.204C230.665 239.404 230.957 239.684 231.165 240.044V236.36H232.173V245H231.261L231.165 244.016C230.973 244.304 230.697 244.564 230.337 244.796C229.977 245.028 229.525 245.144 228.981 245.144ZM229.089 244.268C229.489 244.268 229.841 244.176 230.145 243.992C230.457 243.8 230.697 243.536 230.865 243.2C231.041 242.864 231.129 242.472 231.129 242.024C231.129 241.576 231.041 241.184 230.865 240.848C230.697 240.512 230.457 240.252 230.145 240.068C229.841 239.876 229.489 239.78 229.089 239.78C228.697 239.78 228.345 239.876 228.033 240.068C227.729 240.252 227.489 240.512 227.313 240.848C227.145 241.184 227.061 241.576 227.061 242.024C227.061 242.472 227.145 242.864 227.313 243.2C227.489 243.536 227.729 243.8 228.033 243.992C228.345 244.176 228.697 244.268 229.089 244.268ZM236.872 241.94V241.088H241.624V241.94H236.872ZM249.404 245.144C248.796 245.144 248.284 245.032 247.868 244.808C247.452 244.576 247.116 244.268 246.86 243.884C246.612 243.5 246.428 243.072 246.308 242.6C246.196 242.12 246.14 241.632 246.14 241.136C246.14 240.208 246.268 239.396 246.524 238.7C246.78 237.996 247.148 237.448 247.628 237.056C248.116 236.656 248.704 236.456 249.392 236.456C249.92 236.456 250.372 236.56 250.748 236.768C251.124 236.976 251.42 237.256 251.636 237.608C251.86 237.952 252 238.336 252.056 238.76H251.12C251.032 238.304 250.836 237.952 250.532 237.704C250.228 237.456 249.844 237.332 249.38 237.332C248.748 237.332 248.216 237.632 247.784 238.232C247.36 238.824 247.132 239.752 247.1 241.016C247.292 240.64 247.596 240.316 248.012 240.044C248.436 239.764 248.944 239.624 249.536 239.624C250.016 239.624 250.464 239.736 250.88 239.96C251.304 240.184 251.648 240.5 251.912 240.908C252.176 241.308 252.308 241.78 252.308 242.324C252.308 242.796 252.192 243.248 251.96 243.68C251.728 244.112 251.392 244.464 250.952 244.736C250.52 245.008 250.004 245.144 249.404 245.144ZM249.332 244.256C249.708 244.256 250.044 244.176 250.34 244.016C250.636 243.856 250.868 243.636 251.036 243.356C251.204 243.068 251.288 242.74 251.288 242.372C251.288 241.804 251.1 241.352 250.724 241.016C250.356 240.672 249.892 240.5 249.332 240.5C248.956 240.5 248.62 240.588 248.324 240.764C248.028 240.932 247.792 241.16 247.616 241.448C247.448 241.736 247.364 242.048 247.364 242.384C247.364 242.744 247.448 243.068 247.616 243.356C247.792 243.636 248.028 243.856 248.324 244.016C248.62 244.176 248.956 244.256 249.332 244.256ZM256.711 245.144C256.159 245.144 255.663 245.044 255.223 244.844C254.783 244.636 254.435 244.352 254.179 243.992C253.931 243.624 253.807 243.2 253.807 242.72C253.807 242.208 253.955 241.748 254.251 241.34C254.555 240.932 254.955 240.66 255.451 240.524C254.995 240.372 254.643 240.128 254.395 239.792C254.147 239.456 254.023 239.088 254.023 238.688C254.023 238.28 254.131 237.908 254.347 237.572C254.563 237.228 254.871 236.956 255.271 236.756C255.671 236.556 256.151 236.456 256.711 236.456C257.271 236.456 257.751 236.556 258.151 236.756C258.551 236.956 258.859 237.228 259.075 237.572C259.291 237.908 259.399 238.28 259.399 238.688C259.399 239.08 259.275 239.448 259.027 239.792C258.779 240.128 258.427 240.372 257.971 240.524C258.467 240.66 258.863 240.932 259.159 241.34C259.463 241.748 259.615 242.208 259.615 242.72C259.615 243.2 259.487 243.624 259.231 243.992C258.983 244.352 258.639 244.636 258.199 244.844C257.759 245.044 257.263 245.144 256.711 245.144ZM256.711 240.164C257.223 240.164 257.627 240.036 257.923 239.78C258.227 239.516 258.379 239.172 258.379 238.748C258.379 238.276 258.231 237.92 257.935 237.68C257.639 237.44 257.231 237.32 256.711 237.32C256.191 237.32 255.783 237.44 255.487 237.68C255.199 237.92 255.055 238.276 255.055 238.748C255.055 239.172 255.203 239.516 255.499 239.78C255.795 240.036 256.199 240.164 256.711 240.164ZM256.711 244.256C257.343 244.256 257.815 244.112 258.127 243.824C258.447 243.528 258.607 243.14 258.607 242.66C258.607 242.116 258.435 241.704 258.091 241.424C257.747 241.144 257.287 241.004 256.711 241.004C256.135 241.004 255.675 241.144 255.331 241.424C254.987 241.704 254.815 242.116 254.815 242.66C254.815 243.14 254.971 243.528 255.283 243.824C255.603 244.112 256.079 244.256 256.711 244.256ZM262.775 240.5C262.415 240.5 262.087 240.42 261.791 240.26C261.503 240.092 261.275 239.86 261.107 239.564C260.939 239.26 260.855 238.9 260.855 238.484C260.855 238.068 260.939 237.712 261.107 237.416C261.283 237.112 261.515 236.88 261.803 236.72C262.099 236.552 262.427 236.468 262.787 236.468C263.147 236.468 263.471 236.552 263.759 236.72C264.047 236.88 264.275 237.112 264.443 237.416C264.611 237.712 264.695 238.068 264.695 238.484C264.695 238.9 264.607 239.26 264.431 239.564C264.263 239.86 264.035 240.092 263.747 240.26C263.459 240.42 263.135 240.5 262.775 240.5ZM262.031 245L266.915 236.6H267.923L263.039 245H262.031ZM262.775 239.72C263.055 239.72 263.299 239.616 263.507 239.408C263.723 239.2 263.831 238.892 263.831 238.484C263.831 238.068 263.727 237.756 263.519 237.548C263.311 237.332 263.067 237.224 262.787 237.224C262.507 237.224 262.255 237.332 262.031 237.548C261.815 237.756 261.707 238.068 261.707 238.484C261.707 238.892 261.815 239.2 262.031 239.408C262.247 239.616 262.495 239.72 262.775 239.72ZM267.263 245.144C266.903 245.144 266.575 245.064 266.279 244.904C265.991 244.736 265.763 244.504 265.595 244.208C265.427 243.904 265.343 243.544 265.343 243.128C265.343 242.712 265.427 242.356 265.595 242.06C265.771 241.756 266.003 241.524 266.291 241.364C266.579 241.196 266.903 241.112 267.263 241.112C267.623 241.112 267.947 241.196 268.235 241.364C268.523 241.524 268.751 241.756 268.919 242.06C269.087 242.356 269.171 242.712 269.171 243.128C269.171 243.544 269.087 243.904 268.919 244.208C268.751 244.504 268.523 244.736 268.235 244.904C267.947 245.064 267.623 245.144 267.263 245.144ZM267.251 244.364C267.539 244.364 267.787 244.26 267.995 244.052C268.211 243.844 268.319 243.536 268.319 243.128C268.319 242.712 268.215 242.4 268.007 242.192C267.799 241.984 267.551 241.88 267.263 241.88C266.983 241.88 266.735 241.984 266.519 242.192C266.303 242.4 266.195 242.712 266.195 243.128C266.195 243.536 266.299 243.844 266.507 244.052C266.723 244.26 266.971 244.364 267.251 244.364Z" fill="black"/>
<circle cx="159" cy="241" r="5" fill="#A8DADC"/>
<g filter="url(#filter1_d_152_4156)">
<rect x="24" y="226" width="116" height="30" rx="15" fill="white"/>
</g>
<path d="M50.6653 245V236.6H53.6173C54.2093 236.6 54.6973 236.696 55.0813 236.888C55.4733 237.072 55.7653 237.328 55.9573 237.656C56.1493 237.976 56.2453 238.336 56.2453 238.736C56.2453 239.28 56.0973 239.708 55.8013 240.02C55.5133 240.332 55.1653 240.548 54.7573 240.668C55.0693 240.724 55.3533 240.848 55.6093 241.04C55.8653 241.232 56.0653 241.472 56.2093 241.76C56.3613 242.048 56.4373 242.364 56.4373 242.708C56.4373 243.132 56.3333 243.52 56.1253 243.872C55.9173 244.216 55.6093 244.492 55.2013 244.7C54.7933 244.9 54.2973 245 53.7133 245H50.6653ZM51.6733 240.272H53.5453C54.0813 240.272 54.4933 240.148 54.7813 239.9C55.0693 239.644 55.2133 239.292 55.2133 238.844C55.2133 238.42 55.0693 238.08 54.7813 237.824C54.5013 237.568 54.0773 237.44 53.5093 237.44H51.6733V240.272ZM51.6733 244.16H53.6053C54.1813 244.16 54.6253 244.028 54.9373 243.764C55.2493 243.492 55.4053 243.116 55.4053 242.636C55.4053 242.164 55.2413 241.788 54.9133 241.508C54.5853 241.22 54.1413 241.076 53.5813 241.076H51.6733V244.16ZM60.5361 245.144C59.9761 245.144 59.4721 245.016 59.0241 244.76C58.5761 244.504 58.2201 244.144 57.9561 243.68C57.7001 243.208 57.5721 242.656 57.5721 242.024C57.5721 241.392 57.7041 240.844 57.9681 240.38C58.2321 239.908 58.5881 239.544 59.0361 239.288C59.4921 239.032 60.0001 238.904 60.5601 238.904C61.1201 238.904 61.6241 239.032 62.0721 239.288C62.5201 239.544 62.8721 239.908 63.1281 240.38C63.3921 240.844 63.5241 241.392 63.5241 242.024C63.5241 242.656 63.3921 243.208 63.1281 243.68C62.8641 244.144 62.5041 244.504 62.0481 244.76C61.6001 245.016 61.0961 245.144 60.5361 245.144ZM60.5361 244.28C60.8801 244.28 61.2001 244.196 61.4961 244.028C61.7921 243.86 62.0321 243.608 62.2161 243.272C62.4001 242.936 62.4921 242.52 62.4921 242.024C62.4921 241.528 62.4001 241.112 62.2161 240.776C62.0401 240.44 61.8041 240.188 61.5081 240.02C61.2121 239.852 60.8961 239.768 60.5601 239.768C60.2161 239.768 59.8961 239.852 59.6001 240.02C59.3041 240.188 59.0641 240.44 58.8801 240.776C58.6961 241.112 58.6041 241.528 58.6041 242.024C58.6041 242.52 58.6961 242.936 58.8801 243.272C59.0641 243.608 59.3001 243.86 59.5881 244.028C59.8841 244.196 60.2001 244.28 60.5361 244.28ZM67.0977 245.144C66.3937 245.144 65.8337 244.932 65.4177 244.508C65.0017 244.076 64.7937 243.416 64.7937 242.528V239.048H65.8017V242.42C65.8017 243.66 66.3097 244.28 67.3257 244.28C67.8457 244.28 68.2737 244.096 68.6097 243.728C68.9537 243.352 69.1257 242.82 69.1257 242.132V239.048H70.1337V245H69.2217L69.1497 243.932C68.9657 244.308 68.6897 244.604 68.3217 244.82C67.9617 245.036 67.5537 245.144 67.0977 245.144ZM71.7928 245V239.048H72.7048L72.7648 240.116C72.9568 239.74 73.2328 239.444 73.5928 239.228C73.9528 239.012 74.3608 238.904 74.8168 238.904C75.5208 238.904 76.0808 239.12 76.4968 239.552C76.9208 239.976 77.1328 240.632 77.1328 241.52V245H76.1248V241.628C76.1248 240.388 75.6128 239.768 74.5888 239.768C74.0768 239.768 73.6488 239.956 73.3048 240.332C72.9688 240.7 72.8008 241.228 72.8008 241.916V245H71.7928ZM81.396 245.144C80.828 245.144 80.316 245.016 79.86 244.76C79.412 244.496 79.056 244.132 78.792 243.668C78.536 243.196 78.408 242.648 78.408 242.024C78.408 241.4 78.536 240.856 78.792 240.392C79.056 239.92 79.412 239.556 79.86 239.3C80.316 239.036 80.828 238.904 81.396 238.904C82.1 238.904 82.692 239.088 83.172 239.456C83.66 239.824 83.968 240.316 84.096 240.932H83.064C82.984 240.564 82.788 240.28 82.476 240.08C82.164 239.872 81.8 239.768 81.384 239.768C81.048 239.768 80.732 239.852 80.436 240.02C80.14 240.188 79.9 240.44 79.716 240.776C79.532 241.112 79.44 241.528 79.44 242.024C79.44 242.52 79.532 242.936 79.716 243.272C79.9 243.608 80.14 243.864 80.436 244.04C80.732 244.208 81.048 244.292 81.384 244.292C81.8 244.292 82.164 244.192 82.476 243.992C82.788 243.784 82.984 243.492 83.064 243.116H84.096C83.976 243.716 83.672 244.204 83.184 244.58C82.696 244.956 82.1 245.144 81.396 245.144ZM88.1798 245.144C87.6118 245.144 87.1078 245.016 86.6678 244.76C86.2278 244.496 85.8798 244.132 85.6238 243.668C85.3758 243.204 85.2518 242.656 85.2518 242.024C85.2518 241.4 85.3758 240.856 85.6238 240.392C85.8718 239.92 86.2158 239.556 86.6558 239.3C87.1038 239.036 87.6198 238.904 88.2038 238.904C88.7798 238.904 89.2758 239.036 89.6918 239.3C90.1158 239.556 90.4398 239.896 90.6638 240.32C90.8878 240.744 90.9998 241.2 90.9998 241.688C90.9998 241.776 90.9958 241.864 90.9878 241.952C90.9878 242.04 90.9878 242.14 90.9878 242.252H86.2478C86.2718 242.708 86.3758 243.088 86.5598 243.392C86.7518 243.688 86.9878 243.912 87.2678 244.064C87.5558 244.216 87.8598 244.292 88.1798 244.292C88.5958 244.292 88.9438 244.196 89.2238 244.004C89.5038 243.812 89.7078 243.552 89.8358 243.224H90.8318C90.6718 243.776 90.3638 244.236 89.9078 244.604C89.4598 244.964 88.8838 245.144 88.1798 245.144ZM88.1798 239.756C87.6998 239.756 87.2718 239.904 86.8958 240.2C86.5278 240.488 86.3158 240.912 86.2598 241.472H90.0038C89.9798 240.936 89.7958 240.516 89.4518 240.212C89.1078 239.908 88.6838 239.756 88.1798 239.756ZM95.0358 245.144C94.4438 245.144 93.9238 245.008 93.4758 244.736C93.0358 244.464 92.6918 244.092 92.4438 243.62C92.2038 243.148 92.0838 242.612 92.0838 242.012C92.0838 241.412 92.2078 240.88 92.4558 240.416C92.7038 239.944 93.0478 239.576 93.4878 239.312C93.9278 239.04 94.4478 238.904 95.0478 238.904C95.5358 238.904 95.9678 239.004 96.3438 239.204C96.7198 239.404 97.0118 239.684 97.2198 240.044V236.36H98.2278V245H97.3158L97.2198 244.016C97.0278 244.304 96.7518 244.564 96.3918 244.796C96.0318 245.028 95.5798 245.144 95.0358 245.144ZM95.1438 244.268C95.5438 244.268 95.8958 244.176 96.1998 243.992C96.5118 243.8 96.7518 243.536 96.9198 243.2C97.0958 242.864 97.1838 242.472 97.1838 242.024C97.1838 241.576 97.0958 241.184 96.9198 240.848C96.7518 240.512 96.5118 240.252 96.1998 240.068C95.8958 239.876 95.5438 239.78 95.1438 239.78C94.7518 239.78 94.3998 239.876 94.0878 240.068C93.7838 240.252 93.5438 240.512 93.3678 240.848C93.1998 241.184 93.1158 241.576 93.1158 242.024C93.1158 242.472 93.1998 242.864 93.3678 243.2C93.5438 243.536 93.7838 243.8 94.0878 243.992C94.3998 244.176 94.7518 244.268 95.1438 244.268ZM102.927 241.94V241.088H107.679V241.94H102.927ZM116.239 245V243.2H111.979V242.42L116.059 236.6H117.235V242.312H118.483V243.2H117.235V245H116.239ZM113.095 242.312H116.287V237.716L113.095 242.312ZM121.166 240.5C120.806 240.5 120.478 240.42 120.182 240.26C119.894 240.092 119.666 239.86 119.498 239.564C119.33 239.26 119.246 238.9 119.246 238.484C119.246 238.068 119.33 237.712 119.498 237.416C119.674 237.112 119.906 236.88 120.194 236.72C120.49 236.552 120.818 236.468 121.178 236.468C121.538 236.468 121.862 236.552 122.15 236.72C122.438 236.88 122.666 237.112 122.834 237.416C123.002 237.712 123.086 238.068 123.086 238.484C123.086 238.9 122.998 239.26 122.822 239.564C122.654 239.86 122.426 240.092 122.138 240.26C121.85 240.42 121.526 240.5 121.166 240.5ZM120.422 245L125.306 236.6H126.314L121.43 245H120.422ZM121.166 239.72C121.446 239.72 121.69 239.616 121.898 239.408C122.114 239.2 122.222 238.892 122.222 238.484C122.222 238.068 122.118 237.756 121.91 237.548C121.702 237.332 121.458 237.224 121.178 237.224C120.898 237.224 120.646 237.332 120.422 237.548C120.206 237.756 120.098 238.068 120.098 238.484C120.098 238.892 120.206 239.2 120.422 239.408C120.638 239.616 120.886 239.72 121.166 239.72ZM125.654 245.144C125.294 245.144 124.966 245.064 124.67 244.904C124.382 244.736 124.154 244.504 123.986 244.208C123.818 243.904 123.734 243.544 123.734 243.128C123.734 242.712 123.818 242.356 123.986 242.06C124.162 241.756 124.394 241.524 124.682 241.364C124.97 241.196 125.294 241.112 125.654 241.112C126.014 241.112 126.338 241.196 126.626 241.364C126.914 241.524 127.142 241.756 127.31 242.06C127.478 242.356 127.562 242.712 127.562 243.128C127.562 243.544 127.478 243.904 127.31 244.208C127.142 244.504 126.914 244.736 126.626 244.904C126.338 245.064 126.014 245.144 125.654 245.144ZM125.642 244.364C125.93 244.364 126.178 244.26 126.386 244.052C126.602 243.844 126.71 243.536 126.71 243.128C126.71 242.712 126.606 242.4 126.398 242.192C126.19 241.984 125.942 241.88 125.654 241.88C125.374 241.88 125.126 241.984 124.91 242.192C124.694 242.4 124.586 242.712 124.586 243.128C124.586 243.536 124.69 243.844 124.898 244.052C125.114 244.26 125.362 244.364 125.642 244.364Z" fill="black"/>
<ellipse cx="38.8713" cy="241" rx="4.95726" ry="5" fill="#FF874E"/>
<g filter="url(#filter2_d_152_4156)">
<rect x="285" y="226" width="131" height="30" rx="15" fill="white"/>
</g>
<path d="M311.888 245V236.6H314.6C315.256 236.6 315.792 236.708 316.208 236.924C316.624 237.14 316.932 237.436 317.132 237.812C317.332 238.188 317.432 238.604 317.432 239.06C317.432 239.588 317.288 240.064 317 240.488C316.72 240.912 316.28 241.212 315.68 241.388L317.516 245H316.328L314.624 241.532H314.552H312.896V245H311.888ZM312.896 240.74H314.528C315.176 240.74 315.648 240.584 315.944 240.272C316.24 239.96 316.388 239.56 316.388 239.072C316.388 238.576 316.24 238.184 315.944 237.896C315.656 237.6 315.18 237.452 314.516 237.452H312.896V240.74ZM321.254 245.144C320.686 245.144 320.182 245.016 319.742 244.76C319.302 244.496 318.954 244.132 318.698 243.668C318.45 243.204 318.326 242.656 318.326 242.024C318.326 241.4 318.45 240.856 318.698 240.392C318.946 239.92 319.29 239.556 319.73 239.3C320.178 239.036 320.694 238.904 321.278 238.904C321.854 238.904 322.35 239.036 322.766 239.3C323.19 239.556 323.514 239.896 323.738 240.32C323.962 240.744 324.074 241.2 324.074 241.688C324.074 241.776 324.07 241.864 324.062 241.952C324.062 242.04 324.062 242.14 324.062 242.252H319.322C319.346 242.708 319.45 243.088 319.634 243.392C319.826 243.688 320.062 243.912 320.342 244.064C320.63 244.216 320.934 244.292 321.254 244.292C321.67 244.292 322.018 244.196 322.298 244.004C322.578 243.812 322.782 243.552 322.91 243.224H323.906C323.746 243.776 323.438 244.236 322.982 244.604C322.534 244.964 321.958 245.144 321.254 245.144ZM321.254 239.756C320.774 239.756 320.346 239.904 319.97 240.2C319.602 240.488 319.39 240.912 319.334 241.472H323.078C323.054 240.936 322.87 240.516 322.526 240.212C322.182 239.908 321.758 239.756 321.254 239.756ZM325.41 245V239.048H326.322L326.394 239.912C326.586 239.592 326.842 239.344 327.162 239.168C327.482 238.992 327.842 238.904 328.242 238.904C328.714 238.904 329.118 239 329.454 239.192C329.798 239.384 330.062 239.676 330.246 240.068C330.454 239.708 330.738 239.424 331.098 239.216C331.466 239.008 331.862 238.904 332.286 238.904C332.998 238.904 333.566 239.12 333.99 239.552C334.414 239.976 334.626 240.632 334.626 241.52V245H333.63V241.628C333.63 241.012 333.506 240.548 333.258 240.236C333.01 239.924 332.654 239.768 332.19 239.768C331.71 239.768 331.31 239.956 330.99 240.332C330.678 240.7 330.522 241.228 330.522 241.916V245H329.514V241.628C329.514 241.012 329.39 240.548 329.142 240.236C328.894 239.924 328.538 239.768 328.074 239.768C327.602 239.768 327.206 239.956 326.886 240.332C326.574 240.7 326.418 241.228 326.418 241.916V245H325.41ZM338.124 245.144C337.628 245.144 337.216 245.06 336.888 244.892C336.56 244.724 336.316 244.5 336.156 244.22C335.996 243.94 335.916 243.636 335.916 243.308C335.916 242.7 336.148 242.232 336.612 241.904C337.076 241.576 337.708 241.412 338.508 241.412H340.116V241.34C340.116 240.82 339.98 240.428 339.708 240.164C339.436 239.892 339.072 239.756 338.616 239.756C338.224 239.756 337.884 239.856 337.596 240.056C337.316 240.248 337.14 240.532 337.068 240.908H336.036C336.076 240.476 336.22 240.112 336.468 239.816C336.724 239.52 337.04 239.296 337.416 239.144C337.792 238.984 338.192 238.904 338.616 238.904C339.448 238.904 340.072 239.128 340.488 239.576C340.912 240.016 341.124 240.604 341.124 241.34V245H340.224L340.164 243.932C339.996 244.268 339.748 244.556 339.42 244.796C339.1 245.028 338.668 245.144 338.124 245.144ZM338.28 244.292C338.664 244.292 338.992 244.192 339.264 243.992C339.544 243.792 339.756 243.532 339.9 243.212C340.044 242.892 340.116 242.556 340.116 242.204V242.192H338.592C338 242.192 337.58 242.296 337.332 242.504C337.092 242.704 336.972 242.956 336.972 243.26C336.972 243.572 337.084 243.824 337.308 244.016C337.54 244.2 337.864 244.292 338.28 244.292ZM343.249 237.728C343.049 237.728 342.881 237.664 342.745 237.536C342.617 237.4 342.553 237.232 342.553 237.032C342.553 236.84 342.617 236.68 342.745 236.552C342.881 236.424 343.049 236.36 343.249 236.36C343.441 236.36 343.605 236.424 343.741 236.552C343.877 236.68 343.945 236.84 343.945 237.032C343.945 237.232 343.877 237.4 343.741 237.536C343.605 237.664 343.441 237.728 343.249 237.728ZM342.745 245V239.048H343.753V245H342.745ZM345.508 245V239.048H346.42L346.48 240.116C346.672 239.74 346.948 239.444 347.308 239.228C347.668 239.012 348.076 238.904 348.532 238.904C349.236 238.904 349.796 239.12 350.212 239.552C350.636 239.976 350.848 240.632 350.848 241.52V245H349.84V241.628C349.84 240.388 349.328 239.768 348.304 239.768C347.792 239.768 347.364 239.956 347.02 240.332C346.684 240.7 346.516 241.228 346.516 241.916V245H345.508ZM352.987 237.728C352.787 237.728 352.619 237.664 352.483 237.536C352.355 237.4 352.291 237.232 352.291 237.032C352.291 236.84 352.355 236.68 352.483 236.552C352.619 236.424 352.787 236.36 352.987 236.36C353.179 236.36 353.343 236.424 353.479 236.552C353.615 236.68 353.683 236.84 353.683 237.032C353.683 237.232 353.615 237.4 353.479 237.536C353.343 237.664 353.179 237.728 352.987 237.728ZM352.483 245V239.048H353.491V245H352.483ZM355.246 245V239.048H356.158L356.218 240.116C356.41 239.74 356.686 239.444 357.046 239.228C357.406 239.012 357.814 238.904 358.27 238.904C358.974 238.904 359.534 239.12 359.95 239.552C360.374 239.976 360.586 240.632 360.586 241.52V245H359.578V241.628C359.578 240.388 359.066 239.768 358.042 239.768C357.53 239.768 357.102 239.956 356.758 240.332C356.422 240.7 356.254 241.228 356.254 241.916V245H355.246ZM364.465 243.128C364.129 243.128 363.821 243.084 363.541 242.996L362.941 243.56C363.029 243.624 363.137 243.68 363.265 243.728C363.401 243.768 363.593 243.808 363.841 243.848C364.089 243.88 364.437 243.916 364.885 243.956C365.685 244.012 366.257 244.196 366.601 244.508C366.945 244.82 367.117 245.228 367.117 245.732C367.117 246.076 367.021 246.404 366.829 246.716C366.645 247.028 366.357 247.284 365.965 247.484C365.581 247.684 365.085 247.784 364.477 247.784C363.941 247.784 363.465 247.712 363.049 247.568C362.633 247.432 362.309 247.22 362.077 246.932C361.845 246.652 361.729 246.296 361.729 245.864C361.729 245.64 361.789 245.396 361.909 245.132C362.029 244.876 362.253 244.632 362.581 244.4C362.405 244.328 362.253 244.252 362.125 244.172C362.005 244.084 361.893 243.988 361.789 243.884V243.608L362.809 242.6C362.337 242.2 362.101 241.672 362.101 241.016C362.101 240.624 362.193 240.268 362.377 239.948C362.561 239.628 362.829 239.376 363.181 239.192C363.533 239 363.961 238.904 364.465 238.904C364.809 238.904 365.121 238.952 365.401 239.048H367.597V239.804L366.481 239.852C366.713 240.188 366.829 240.576 366.829 241.016C366.829 241.408 366.733 241.764 366.541 242.084C366.357 242.404 366.089 242.66 365.737 242.852C365.393 243.036 364.969 243.128 364.465 243.128ZM364.465 242.3C364.889 242.3 365.225 242.192 365.473 241.976C365.729 241.752 365.857 241.432 365.857 241.016C365.857 240.608 365.729 240.296 365.473 240.08C365.225 239.856 364.889 239.744 364.465 239.744C364.033 239.744 363.689 239.856 363.433 240.08C363.185 240.296 363.061 240.608 363.061 241.016C363.061 241.432 363.185 241.752 363.433 241.976C363.689 242.192 364.033 242.3 364.465 242.3ZM362.713 245.768C362.713 246.168 362.881 246.464 363.217 246.656C363.553 246.856 363.973 246.956 364.477 246.956C364.973 246.956 365.369 246.848 365.665 246.632C365.969 246.416 366.121 246.128 366.121 245.768C366.121 245.512 366.017 245.288 365.809 245.096C365.601 244.912 365.217 244.804 364.657 244.772C364.217 244.74 363.837 244.7 363.517 244.652C363.189 244.828 362.973 245.016 362.869 245.216C362.765 245.424 362.713 245.608 362.713 245.768ZM371.79 241.94V241.088H376.542V241.94H371.79ZM381.166 245V244.292C381.734 243.844 382.27 243.392 382.774 242.936C383.286 242.472 383.738 242.016 384.13 241.568C384.53 241.12 384.842 240.68 385.066 240.248C385.298 239.816 385.414 239.4 385.414 239C385.414 238.704 385.362 238.428 385.258 238.172C385.162 237.916 385.002 237.712 384.778 237.56C384.554 237.4 384.25 237.32 383.866 237.32C383.498 237.32 383.19 237.404 382.942 237.572C382.694 237.732 382.506 237.948 382.378 238.22C382.258 238.492 382.198 238.784 382.198 239.096H381.226C381.226 238.544 381.342 238.072 381.574 237.68C381.806 237.28 382.122 236.976 382.522 236.768C382.922 236.56 383.374 236.456 383.878 236.456C384.622 236.456 385.23 236.668 385.702 237.092C386.182 237.508 386.422 238.132 386.422 238.964C386.422 239.46 386.298 239.952 386.05 240.44C385.802 240.92 385.486 241.388 385.102 241.844C384.718 242.292 384.306 242.712 383.866 243.104C383.434 243.496 383.03 243.848 382.654 244.16H386.71V245H381.166ZM390.738 245.144C390.186 245.144 389.69 245.044 389.25 244.844C388.81 244.636 388.462 244.352 388.206 243.992C387.958 243.624 387.834 243.2 387.834 242.72C387.834 242.208 387.982 241.748 388.278 241.34C388.582 240.932 388.982 240.66 389.478 240.524C389.022 240.372 388.67 240.128 388.422 239.792C388.174 239.456 388.05 239.088 388.05 238.688C388.05 238.28 388.158 237.908 388.374 237.572C388.59 237.228 388.898 236.956 389.298 236.756C389.698 236.556 390.178 236.456 390.738 236.456C391.298 236.456 391.778 236.556 392.178 236.756C392.578 236.956 392.886 237.228 393.102 237.572C393.318 237.908 393.426 238.28 393.426 238.688C393.426 239.08 393.302 239.448 393.054 239.792C392.806 240.128 392.454 240.372 391.998 240.524C392.494 240.66 392.89 240.932 393.186 241.34C393.49 241.748 393.642 242.208 393.642 242.72C393.642 243.2 393.514 243.624 393.258 243.992C393.01 244.352 392.666 244.636 392.226 244.844C391.786 245.044 391.29 245.144 390.738 245.144ZM390.738 240.164C391.25 240.164 391.654 240.036 391.95 239.78C392.254 239.516 392.406 239.172 392.406 238.748C392.406 238.276 392.258 237.92 391.962 237.68C391.666 237.44 391.258 237.32 390.738 237.32C390.218 237.32 389.81 237.44 389.514 237.68C389.226 237.92 389.082 238.276 389.082 238.748C389.082 239.172 389.23 239.516 389.526 239.78C389.822 240.036 390.226 240.164 390.738 240.164ZM390.738 244.256C391.37 244.256 391.842 244.112 392.154 243.824C392.474 243.528 392.634 243.14 392.634 242.66C392.634 242.116 392.462 241.704 392.118 241.424C391.774 241.144 391.314 241.004 390.738 241.004C390.162 241.004 389.702 241.144 389.358 241.424C389.014 241.704 388.842 242.116 388.842 242.66C388.842 243.14 388.998 243.528 389.31 243.824C389.63 244.112 390.106 244.256 390.738 244.256ZM396.802 240.5C396.442 240.5 396.114 240.42 395.818 240.26C395.53 240.092 395.302 239.86 395.134 239.564C394.966 239.26 394.882 238.9 394.882 238.484C394.882 238.068 394.966 237.712 395.134 237.416C395.31 237.112 395.542 236.88 395.83 236.72C396.126 236.552 396.454 236.468 396.814 236.468C397.174 236.468 397.498 236.552 397.786 236.72C398.074 236.88 398.302 237.112 398.47 237.416C398.638 237.712 398.722 238.068 398.722 238.484C398.722 238.9 398.634 239.26 398.458 239.564C398.29 239.86 398.062 240.092 397.774 240.26C397.486 240.42 397.162 240.5 396.802 240.5ZM396.058 245L400.942 236.6H401.95L397.066 245H396.058ZM396.802 239.72C397.082 239.72 397.326 239.616 397.534 239.408C397.75 239.2 397.858 238.892 397.858 238.484C397.858 238.068 397.754 237.756 397.546 237.548C397.338 237.332 397.094 237.224 396.814 237.224C396.534 237.224 396.282 237.332 396.058 237.548C395.842 237.756 395.734 238.068 395.734 238.484C395.734 238.892 395.842 239.2 396.058 239.408C396.274 239.616 396.522 239.72 396.802 239.72ZM401.29 245.144C400.93 245.144 400.602 245.064 400.306 244.904C400.018 244.736 399.79 244.504 399.622 244.208C399.454 243.904 399.37 243.544 399.37 243.128C399.37 242.712 399.454 242.356 399.622 242.06C399.798 241.756 400.03 241.524 400.318 241.364C400.606 241.196 400.93 241.112 401.29 241.112C401.65 241.112 401.974 241.196 402.262 241.364C402.55 241.524 402.778 241.756 402.946 242.06C403.114 242.356 403.198 242.712 403.198 243.128C403.198 243.544 403.114 243.904 402.946 244.208C402.778 244.504 402.55 244.736 402.262 244.904C401.974 245.064 401.65 245.144 401.29 245.144ZM401.278 244.364C401.566 244.364 401.814 244.26 402.022 244.052C402.238 243.844 402.346 243.536 402.346 243.128C402.346 242.712 402.242 242.4 402.034 242.192C401.826 241.984 401.578 241.88 401.29 241.88C401.01 241.88 400.762 241.984 400.546 242.192C400.33 242.4 400.222 242.712 400.222 243.128C400.222 243.536 400.326 243.844 400.534 244.052C400.75 244.26 400.998 244.364 401.278 244.364Z" fill="black"/>
<circle cx="300" cy="241" r="5" fill="#3B79D8"/>
<defs>
<filter id="filter0_d_152_4156" x="130" y="212" width="166" height="58" filterUnits="userSpaceOnUse" color-interpolation-filters="sRGB">
<feFlood flood-opacity="0" result="BackgroundImageFix"/>
<feColorMatrix in="SourceAlpha" type="matrix" values="0 0 0 0 0 0 0 0 0 0 0 0 0 0 0 0 0 0 127 0" result="hardAlpha"/>
<feOffset/>
<feGaussianBlur stdDeviation="7"/>
<feComposite in2="hardAlpha" operator="out"/>
<feColorMatrix type="matrix" values="0 0 0 0 0.27106 0 0 0 0 0.291722 0 0 0 0 0.320993 0 0 0 0.12 0"/>
<feBlend mode="normal" in2="BackgroundImageFix" result="effect1_dropShadow_152_4156"/>
<feBlend mode="normal" in="SourceGraphic" in2="effect1_dropShadow_152_4156" result="shape"/>
</filter>
<filter id="filter1_d_152_4156" x="10" y="212" width="144" height="58" filterUnits="userSpaceOnUse" color-interpolation-filters="sRGB">
<feFlood flood-opacity="0" result="BackgroundImageFix"/>
<feColorMatrix in="SourceAlpha" type="matrix" values="0 0 0 0 0 0 0 0 0 0 0 0 0 0 0 0 0 0 127 0" result="hardAlpha"/>
<feOffset/>
<feGaussianBlur stdDeviation="7"/>
<feComposite in2="hardAlpha" operator="out"/>
<feColorMatrix type="matrix" values="0 0 0 0 0.27106 0 0 0 0 0.291722 0 0 0 0 0.320993 0 0 0 0.12 0"/>
<feBlend mode="normal" in2="BackgroundImageFix" result="effect1_dropShadow_152_4156"/>
<feBlend mode="normal" in="SourceGraphic" in2="effect1_dropShadow_152_4156" result="shape"/>
</filter>
<filter id="filter2_d_152_4156" x="271" y="212" width="159" height="58" filterUnits="userSpaceOnUse" color-interpolation-filters="sRGB">
<feFlood flood-opacity="0" result="BackgroundImageFix"/>
<feColorMatrix in="SourceAlpha" type="matrix" values="0 0 0 0 0 0 0 0 0 0 0 0 0 0 0 0 0 0 127 0" result="hardAlpha"/>
<feOffset/>
<feGaussianBlur stdDeviation="7"/>
<feComposite in2="hardAlpha" operator="out"/>
<feColorMatrix type="matrix" values="0 0 0 0 0.27106 0 0 0 0 0.291722 0 0 0 0 0.320993 0 0 0 0.12 0"/>
<feBlend mode="normal" in2="BackgroundImageFix" result="effect1_dropShadow_152_4156"/>
<feBlend mode="normal" in="SourceGraphic" in2="effect1_dropShadow_152_4156" result="shape"/>
</filter>
</defs>
</svg>
