<svg width="62" height="29" viewBox="0 0 62 29" fill="none" xmlns="http://www.w3.org/2000/svg">
<rect width="62" height="29" rx="14.5" fill="#E9EBED"/>
<rect width="62" height="29" rx="14.5" stroke="#D3D7DB"/>
<path d="M30.002 19V10.516L28.42 10.866V10.054L30.394 9.2H31.192V19H30.002ZM32.8266 19V18.174C33.4893 17.6513 34.1146 17.124 34.7026 16.592C35.2999 16.0507 35.8273 15.5187 36.2846 14.996C36.7513 14.4733 37.1153 13.96 37.3766 13.456C37.6473 12.952 37.7826 12.4667 37.7826 12C37.7826 11.6547 37.7219 11.3327 37.6006 11.034C37.4886 10.7353 37.3019 10.4973 37.0406 10.32C36.7793 10.1333 36.4246 10.04 35.9766 10.04C35.5473 10.04 35.1879 10.138 34.8986 10.334C34.6093 10.5207 34.3899 10.7727 34.2406 11.09C34.1006 11.4073 34.0306 11.748 34.0306 12.112H32.8966C32.8966 11.468 33.0319 10.9173 33.3026 10.46C33.5733 9.99333 33.9419 9.63867 34.4086 9.396C34.8753 9.15333 35.4026 9.032 35.9906 9.032C36.8586 9.032 37.5679 9.27933 38.1186 9.774C38.6786 10.2593 38.9586 10.9873 38.9586 11.958C38.9586 12.5367 38.8139 13.1107 38.5246 13.68C38.2353 14.24 37.8666 14.786 37.4186 15.318C36.9706 15.8407 36.4899 16.3307 35.9766 16.788C35.4726 17.2453 35.0013 17.656 34.5626 18.02H39.2946V19H32.8266ZM44.9179 19V16.9H39.9479V15.99L44.7079 9.2H46.0799V15.864H47.5359V16.9H46.0799V19H44.9179ZM41.2499 15.864H44.9739V10.502L41.2499 15.864Z" fill="black"/>
<path d="M21.7808 10.8341C21.7806 10.8266 21.7802 10.8191 21.7796 10.8116C21.7791 10.8055 21.7785 10.7994 21.7778 10.7934C21.7769 10.7863 21.7758 10.7794 21.7746 10.7724C21.7735 10.7661 21.7723 10.7598 21.7709 10.7536C21.7694 10.747 21.7676 10.7405 21.7658 10.734C21.7641 10.7277 21.7622 10.7214 21.7602 10.7153C21.7581 10.7089 21.7557 10.7026 21.7533 10.6964C21.7509 10.6903 21.7485 10.6843 21.7459 10.6785C21.7431 10.6723 21.7401 10.6662 21.7371 10.6602C21.7341 10.6544 21.7311 10.6486 21.7279 10.643C21.7246 10.6373 21.7211 10.6316 21.7176 10.626C21.7139 10.6202 21.7101 10.6146 21.7062 10.609C21.7025 10.6039 21.6987 10.5988 21.6948 10.5938C21.6903 10.588 21.6857 10.5825 21.6809 10.577C21.6787 10.5745 21.6768 10.5718 21.6745 10.5692C21.6725 10.5671 21.6704 10.5653 21.6684 10.5632C21.6634 10.5581 21.6583 10.5531 21.6531 10.5482C21.6484 10.5437 21.6437 10.5393 21.6387 10.5351C21.6338 10.5309 21.6287 10.5269 21.6235 10.5229C21.618 10.5186 21.6126 10.5144 21.607 10.5105C21.6019 10.507 21.5966 10.5037 21.5914 10.5004C21.5855 10.4966 21.5796 10.4929 21.5735 10.4895C21.568 10.4864 21.5623 10.4836 21.5565 10.4807C21.5506 10.4777 21.5447 10.4747 21.5386 10.4721C21.5323 10.4693 21.5259 10.4669 21.5195 10.4644C21.5137 10.4622 21.508 10.46 21.5022 10.4581C21.4954 10.4558 21.4884 10.454 21.4814 10.4521C21.4756 10.4505 21.4699 10.4489 21.4642 10.4476C21.4572 10.4461 21.4502 10.4449 21.4431 10.4436C21.4369 10.4426 21.4308 10.4416 21.4246 10.4408C21.4179 10.44 21.4112 10.4395 21.4044 10.439C21.3976 10.4385 21.3908 10.4381 21.3839 10.4379C21.3809 10.4379 21.378 10.4375 21.375 10.4375H11.625C11.6222 10.4375 11.6195 10.4379 11.6168 10.4379C11.6094 10.4381 11.602 10.4385 11.5947 10.439C11.5884 10.4395 11.5822 10.44 11.576 10.4407C11.5693 10.4416 11.5626 10.4427 11.5559 10.4438C11.5493 10.4449 11.5428 10.4461 11.5363 10.4475C11.5301 10.4489 11.5239 10.4506 11.5177 10.4523C11.5111 10.4541 11.5046 10.4559 11.4982 10.458C11.4919 10.46 11.4858 10.4624 11.4797 10.4647C11.4737 10.467 11.4676 10.4693 11.4617 10.4719C11.4553 10.4747 11.4491 10.4779 11.4429 10.481C11.4374 10.4837 11.432 10.4864 11.4267 10.4894C11.4204 10.4929 11.4143 10.4967 11.4082 10.5006C11.4032 10.5038 11.3981 10.507 11.3932 10.5104C11.3874 10.5144 11.3819 10.5187 11.3763 10.523C11.3712 10.5269 11.3662 10.5309 11.3613 10.535C11.3564 10.5393 11.3516 10.5437 11.3468 10.5483C11.3416 10.5531 11.3365 10.5581 11.3316 10.5632C11.3296 10.5653 11.3275 10.5671 11.3255 10.5692C11.3232 10.5718 11.3213 10.5745 11.3191 10.577C11.3143 10.5825 11.3097 10.588 11.3052 10.5938C11.3013 10.5988 11.2975 10.6039 11.2938 10.609C11.2899 10.6146 11.2861 10.6202 11.2824 10.626C11.2788 10.6316 11.2754 10.6373 11.2721 10.643C11.2689 10.6486 11.2659 10.6544 11.2629 10.6602C11.2599 10.6662 11.2569 10.6723 11.2541 10.6784C11.2515 10.6843 11.2491 10.6903 11.2467 10.6964C11.2443 10.7026 11.2419 10.7089 11.2398 10.7153C11.2378 10.7214 11.2359 10.7277 11.2342 10.734C11.2324 10.7405 11.2306 10.747 11.2291 10.7536C11.2277 10.7598 11.2265 10.7661 11.2254 10.7724C11.2241 10.7794 11.2231 10.7863 11.2222 10.7934C11.2214 10.7994 11.2208 10.8055 11.2204 10.8116C11.2198 10.8191 11.2194 10.8266 11.2192 10.8341C11.2192 10.8373 11.2188 10.8405 11.2188 10.8438V17.75C11.219 17.9654 11.3047 18.1719 11.457 18.3243C11.6093 18.4766 11.8158 18.5623 12.0312 18.5625H20.9688C21.1842 18.5623 21.3907 18.4766 21.543 18.3243C21.6953 18.1719 21.781 17.9654 21.7812 17.75V10.8438C21.7812 10.8405 21.7808 10.8373 21.7808 10.8341ZM20.3306 11.25L16.5 14.7614L12.6694 11.25H20.3306ZM20.9688 17.75H12.0312V11.7673L16.2255 15.612C16.3004 15.6807 16.3984 15.7188 16.5 15.7188C16.6016 15.7188 16.6996 15.6807 16.7745 15.612L20.9688 11.7672L20.9692 17.75L20.9688 17.75Z" fill="black"/>
</svg>
