<svg width="101" height="29" viewBox="0 0 101 29" fill="none" xmlns="http://www.w3.org/2000/svg">
<rect width="101" height="29" rx="14.5" fill="#E9EBED"/>
<rect width="101" height="29" rx="14.5" stroke="#D3D7DB"/>
<path d="M28.882 19V18.174C29.5447 17.6513 30.17 17.124 30.758 16.592C31.3553 16.0507 31.8827 15.5187 32.34 14.996C32.8067 14.4733 33.1707 13.96 33.432 13.456C33.7027 12.952 33.838 12.4667 33.838 12C33.838 11.6547 33.7773 11.3327 33.656 11.034C33.544 10.7353 33.3573 10.4973 33.096 10.32C32.8347 10.1333 32.48 10.04 32.032 10.04C31.6027 10.04 31.2433 10.138 30.954 10.334C30.6647 10.5207 30.4453 10.7727 30.296 11.09C30.156 11.4073 30.086 11.748 30.086 12.112H28.952C28.952 11.468 29.0873 10.9173 29.358 10.46C29.6287 9.99333 29.9973 9.63867 30.464 9.396C30.9307 9.15333 31.458 9.032 32.046 9.032C32.914 9.032 33.6233 9.27933 34.174 9.774C34.734 10.2593 35.014 10.9873 35.014 11.958C35.014 12.5367 34.8693 13.1107 34.58 13.68C34.2907 14.24 33.922 14.786 33.474 15.318C33.026 15.8407 32.5453 16.3307 32.032 16.788C31.528 17.2453 31.0567 17.656 30.618 18.02H35.35V19H28.882ZM36.6137 19V18.174C37.2764 17.6513 37.9017 17.124 38.4897 16.592C39.0871 16.0507 39.6144 15.5187 40.0717 14.996C40.5384 14.4733 40.9024 13.96 41.1637 13.456C41.4344 12.952 41.5697 12.4667 41.5697 12C41.5697 11.6547 41.5091 11.3327 41.3877 11.034C41.2757 10.7353 41.0891 10.4973 40.8277 10.32C40.5664 10.1333 40.2117 10.04 39.7637 10.04C39.3344 10.04 38.9751 10.138 38.6857 10.334C38.3964 10.5207 38.1771 10.7727 38.0277 11.09C37.8877 11.4073 37.8177 11.748 37.8177 12.112H36.6837C36.6837 11.468 36.8191 10.9173 37.0897 10.46C37.3604 9.99333 37.7291 9.63867 38.1957 9.396C38.6624 9.15333 39.1897 9.032 39.7777 9.032C40.6457 9.032 41.3551 9.27933 41.9057 9.774C42.4657 10.2593 42.7457 10.9873 42.7457 11.958C42.7457 12.5367 42.6011 13.1107 42.3117 13.68C42.0224 14.24 41.6537 14.786 41.2057 15.318C40.7577 15.8407 40.2771 16.3307 39.7637 16.788C39.2597 17.2453 38.7884 17.656 38.3497 18.02H43.0817V19H36.6137ZM43.8554 20.33L47.3694 8.304H48.5314L45.0174 20.33H43.8554ZM53.2367 19.168C52.3687 19.168 51.6174 18.958 50.9827 18.538C50.3574 18.1087 49.8767 17.516 49.5407 16.76C49.2047 15.9947 49.0367 15.108 49.0367 14.1C49.0367 13.092 49.2047 12.21 49.5407 11.454C49.8767 10.6887 50.3574 10.096 50.9827 9.676C51.6174 9.24667 52.3687 9.032 53.2367 9.032C54.1048 9.032 54.8514 9.24667 55.4768 9.676C56.1021 10.096 56.5827 10.6887 56.9188 11.454C57.2548 12.21 57.4228 13.092 57.4228 14.1C57.4228 15.108 57.2548 15.9947 56.9188 16.76C56.5827 17.516 56.1021 18.1087 55.4768 18.538C54.8514 18.958 54.1048 19.168 53.2367 19.168ZM53.2367 18.132C53.8061 18.132 54.3148 17.9733 54.7628 17.656C55.2201 17.3293 55.5747 16.8673 55.8267 16.27C56.0881 15.6633 56.2187 14.94 56.2187 14.1C56.2187 13.26 56.0881 12.5413 55.8267 11.944C55.5747 11.3467 55.2201 10.8893 54.7628 10.572C54.3148 10.2453 53.8061 10.082 53.2367 10.082C52.6581 10.082 52.1448 10.2453 51.6968 10.572C51.2488 10.8893 50.8941 11.3467 50.6328 11.944C50.3714 12.5413 50.2407 13.26 50.2407 14.1C50.2407 14.94 50.3714 15.6633 50.6328 16.27C50.8941 16.8673 51.2488 17.3293 51.6968 17.656C52.1448 17.9733 52.6581 18.132 53.2367 18.132ZM62.0758 19.168C61.4598 19.168 60.9324 19.0467 60.4938 18.804C60.0551 18.5613 59.7051 18.2393 59.4438 17.838C59.1918 17.4273 59.0378 16.9747 58.9818 16.48H60.0738C60.1671 17.012 60.3911 17.4227 60.7458 17.712C61.1004 18.0013 61.5484 18.146 62.0898 18.146C62.8364 18.146 63.4571 17.8007 63.9518 17.11C64.4464 16.41 64.7124 15.3227 64.7498 13.848C64.5258 14.2867 64.1664 14.6693 63.6718 14.996C63.1864 15.3133 62.5984 15.472 61.9078 15.472C61.3571 15.472 60.8344 15.3413 60.3398 15.08C59.8451 14.8187 59.4438 14.4547 59.1358 13.988C58.8278 13.512 58.6738 12.9567 58.6738 12.322C58.6738 11.7713 58.8091 11.244 59.0798 10.74C59.3598 10.236 59.7518 9.82533 60.2558 9.508C60.7598 9.19067 61.3618 9.032 62.0618 9.032C62.7711 9.032 63.3684 9.16733 63.8538 9.438C64.3391 9.69933 64.7264 10.054 65.0158 10.502C65.3144 10.95 65.5291 11.454 65.6598 12.014C65.7998 12.5647 65.8698 13.1293 65.8698 13.708C65.8698 14.7907 65.7204 15.7427 65.4218 16.564C65.1231 17.376 64.6891 18.0153 64.1198 18.482C63.5598 18.9393 62.8784 19.168 62.0758 19.168ZM62.1458 14.45C62.5844 14.45 62.9764 14.352 63.3218 14.156C63.6671 13.9507 63.9424 13.68 64.1478 13.344C64.3531 13.008 64.4558 12.644 64.4558 12.252C64.4558 11.832 64.3531 11.4587 64.1478 11.132C63.9424 10.796 63.6671 10.5347 63.3218 10.348C62.9764 10.1613 62.5844 10.068 62.1458 10.068C61.7071 10.068 61.3151 10.1613 60.9698 10.348C60.6244 10.5347 60.3538 10.796 60.1578 11.132C59.9618 11.4587 59.8638 11.8367 59.8638 12.266C59.8638 12.9287 60.0784 13.4607 60.5078 13.862C60.9464 14.254 61.4924 14.45 62.1458 14.45ZM66.0389 20.33L69.5529 8.304H70.7149L67.2009 20.33H66.0389ZM71.7176 19V18.174C72.3803 17.6513 73.0056 17.124 73.5936 16.592C74.191 16.0507 74.7183 15.5187 75.1756 14.996C75.6423 14.4733 76.0063 13.96 76.2676 13.456C76.5383 12.952 76.6736 12.4667 76.6736 12C76.6736 11.6547 76.613 11.3327 76.4916 11.034C76.3796 10.7353 76.193 10.4973 75.9316 10.32C75.6703 10.1333 75.3156 10.04 74.8676 10.04C74.4383 10.04 74.079 10.138 73.7896 10.334C73.5003 10.5207 73.281 10.7727 73.1316 11.09C72.9916 11.4073 72.9216 11.748 72.9216 12.112H71.7876C71.7876 11.468 71.923 10.9173 72.1936 10.46C72.4643 9.99333 72.833 9.63867 73.2996 9.396C73.7663 9.15333 74.2936 9.032 74.8816 9.032C75.7496 9.032 76.459 9.27933 77.0096 9.774C77.5696 10.2593 77.8496 10.9873 77.8496 11.958C77.8496 12.5367 77.705 13.1107 77.4156 13.68C77.1263 14.24 76.7576 14.786 76.3096 15.318C75.8616 15.8407 75.381 16.3307 74.8676 16.788C74.3636 17.2453 73.8923 17.656 73.4536 18.02H78.1856V19H71.7176ZM79.4493 19V18.174C80.112 17.6513 80.7373 17.124 81.3253 16.592C81.9227 16.0507 82.45 15.5187 82.9073 14.996C83.374 14.4733 83.738 13.96 83.9993 13.456C84.27 12.952 84.4053 12.4667 84.4053 12C84.4053 11.6547 84.3447 11.3327 84.2233 11.034C84.1113 10.7353 83.9247 10.4973 83.6633 10.32C83.402 10.1333 83.0473 10.04 82.5993 10.04C82.17 10.04 81.8107 10.138 81.5213 10.334C81.232 10.5207 81.0127 10.7727 80.8633 11.09C80.7233 11.4073 80.6533 11.748 80.6533 12.112H79.5193C79.5193 11.468 79.6547 10.9173 79.9253 10.46C80.196 9.99333 80.5647 9.63867 81.0313 9.396C81.498 9.15333 82.0253 9.032 82.6133 9.032C83.4813 9.032 84.1907 9.27933 84.7413 9.774C85.3013 10.2593 85.5813 10.9873 85.5813 11.958C85.5813 12.5367 85.4367 13.1107 85.1473 13.68C84.858 14.24 84.4893 14.786 84.0413 15.318C83.5933 15.8407 83.1127 16.3307 82.5993 16.788C82.0953 17.2453 81.624 17.656 81.1853 18.02H85.9173V19H79.4493Z" fill="black"/>
<path d="M20.2917 10.167H12.7083C12.11 10.167 11.625 10.652 11.625 11.2503V18.8337C11.625 19.432 12.11 19.917 12.7083 19.917H20.2917C20.89 19.917 21.375 19.432 21.375 18.8337V11.2503C21.375 10.652 20.89 10.167 20.2917 10.167Z" stroke="black" stroke-linecap="round" stroke-linejoin="round"/>
<path d="M18.666 9.08301V11.2497" stroke="black" stroke-linecap="round" stroke-linejoin="round"/>
<path d="M14.334 9.08301V11.2497" stroke="black" stroke-linecap="round" stroke-linejoin="round"/>
<path d="M11.625 13.417H21.375" stroke="black" stroke-linecap="round" stroke-linejoin="round"/>
</svg>
