<svg width="59" height="29" viewBox="0 0 59 29" fill="none" xmlns="http://www.w3.org/2000/svg">
<rect width="59" height="29" rx="14.5" fill="#E9EBED"/>
<rect width="59" height="29" rx="14.5" stroke="#D3D7DB"/>
<path d="M19.2087 19.375V18.2917C19.2087 17.717 18.9804 17.1659 18.5741 16.7596C18.1677 16.3533 17.6166 16.125 17.042 16.125H12.7087C12.134 16.125 11.5829 16.3533 11.1766 16.7596C10.7703 17.1659 10.542 17.717 10.542 18.2917V19.375" stroke="black" stroke-linecap="round" stroke-linejoin="round"/>
<path d="M14.8747 13.9583C16.0713 13.9583 17.0413 12.9883 17.0413 11.7917C17.0413 10.595 16.0713 9.625 14.8747 9.625C13.6781 9.625 12.708 10.595 12.708 11.7917C12.708 12.9883 13.6781 13.9583 14.8747 13.9583Z" stroke="black" stroke-linecap="round" stroke-linejoin="round"/>
<path d="M22.459 19.3749V18.2916C22.4586 17.8115 22.2988 17.3451 22.0047 16.9657C21.7106 16.5863 21.2988 16.3153 20.834 16.1953" stroke="black" stroke-linecap="round" stroke-linejoin="round"/>
<path d="M18.666 9.69531C19.1321 9.81464 19.5452 10.0857 19.8402 10.4657C20.1351 10.8458 20.2953 11.3132 20.2953 11.7943C20.2953 12.2754 20.1351 12.7428 19.8402 13.1228C19.5452 13.5028 19.1321 13.7739 18.666 13.8932" stroke="black" stroke-linecap="round" stroke-linejoin="round"/>
<path d="M32.27 19.168C31.654 19.168 31.1267 19.0467 30.688 18.804C30.2493 18.5613 29.8993 18.2393 29.638 17.838C29.386 17.4273 29.232 16.9747 29.176 16.48H30.268C30.3613 17.012 30.5853 17.4227 30.94 17.712C31.2947 18.0013 31.7427 18.146 32.284 18.146C33.0307 18.146 33.6513 17.8007 34.146 17.11C34.6407 16.41 34.9067 15.3227 34.944 13.848C34.72 14.2867 34.3607 14.6693 33.866 14.996C33.3807 15.3133 32.7927 15.472 32.102 15.472C31.5513 15.472 31.0287 15.3413 30.534 15.08C30.0393 14.8187 29.638 14.4547 29.33 13.988C29.022 13.512 28.868 12.9567 28.868 12.322C28.868 11.7713 29.0033 11.244 29.274 10.74C29.554 10.236 29.946 9.82533 30.45 9.508C30.954 9.19067 31.556 9.032 32.256 9.032C32.9653 9.032 33.5627 9.16733 34.048 9.438C34.5333 9.69933 34.9207 10.054 35.21 10.502C35.5087 10.95 35.7233 11.454 35.854 12.014C35.994 12.5647 36.064 13.1293 36.064 13.708C36.064 14.7907 35.9147 15.7427 35.616 16.564C35.3173 17.376 34.8833 18.0153 34.314 18.482C33.754 18.9393 33.0727 19.168 32.27 19.168ZM32.34 14.45C32.7787 14.45 33.1707 14.352 33.516 14.156C33.8613 13.9507 34.1367 13.68 34.342 13.344C34.5473 13.008 34.65 12.644 34.65 12.252C34.65 11.832 34.5473 11.4587 34.342 11.132C34.1367 10.796 33.8613 10.5347 33.516 10.348C33.1707 10.1613 32.7787 10.068 32.34 10.068C31.9013 10.068 31.5093 10.1613 31.164 10.348C30.8187 10.5347 30.548 10.796 30.352 11.132C30.156 11.4587 30.058 11.8367 30.058 12.266C30.058 12.9287 30.2727 13.4607 30.702 13.862C31.1407 14.254 31.6867 14.45 32.34 14.45ZM40.3939 19.168C39.7686 19.168 39.2039 19.056 38.6999 18.832C38.1959 18.5987 37.7899 18.2533 37.4819 17.796C37.1833 17.3387 37.0246 16.7693 37.0059 16.088H38.1959C38.2053 16.648 38.4013 17.1333 38.7839 17.544C39.1666 17.9453 39.7033 18.146 40.3939 18.146C41.0846 18.146 41.6026 17.9547 41.9479 17.572C42.3026 17.1893 42.4799 16.7273 42.4799 16.186C42.4799 15.7287 42.3679 15.3553 42.1439 15.066C41.9293 14.7767 41.6353 14.562 41.2619 14.422C40.8979 14.282 40.4966 14.212 40.0579 14.212H39.3299V13.218H40.0579C40.6926 13.218 41.1873 13.0733 41.5419 12.784C41.9059 12.4947 42.0879 12.0887 42.0879 11.566C42.0879 11.1273 41.9433 10.768 41.6539 10.488C41.3739 10.1987 40.9539 10.054 40.3939 10.054C39.8526 10.054 39.4186 10.2173 39.0919 10.544C38.7653 10.8613 38.5833 11.2627 38.5459 11.748H37.3559C37.3839 11.216 37.5239 10.7447 37.7759 10.334C38.0373 9.92333 38.3919 9.606 38.8399 9.382C39.2879 9.14867 39.8059 9.032 40.3939 9.032C41.0286 9.032 41.5559 9.144 41.9759 9.368C42.4053 9.592 42.7273 9.89067 42.9419 10.264C43.1659 10.6373 43.2779 11.048 43.2779 11.496C43.2779 11.9907 43.1426 12.4433 42.8719 12.854C42.6013 13.2553 42.1953 13.526 41.6539 13.666C42.2326 13.7873 42.7133 14.0627 43.0959 14.492C43.4786 14.9213 43.6699 15.486 43.6699 16.186C43.6699 16.7273 43.5439 17.2267 43.2919 17.684C43.0493 18.132 42.6853 18.4913 42.1999 18.762C41.7146 19.0327 41.1126 19.168 40.3939 19.168Z" fill="black"/>
</svg>
