<svg width="375" height="334" viewBox="0 0 375 334" fill="none" xmlns="http://www.w3.org/2000/svg">
<g filter="url(#filter0_d_152_4034)">
<rect x="12" y="14" width="351" height="306" rx="14" fill="white"/>
<rect x="12.5" y="14.5" width="350" height="305" rx="13.5" stroke="#D3D7DB"/>
</g>
<rect x="13" y="79" width="349" height="1" fill="#D3D7DB"/>
<rect x="13" y="139" width="349" height="1" fill="#D3D7DB"/>
<rect x="13" y="199" width="349" height="1" fill="#D3D7DB"/>
<rect x="13" y="259" width="349" height="1" fill="#D3D7DB"/>
<path d="M83.128 52.192C82.0187 52.192 81.0587 51.952 80.248 51.472C79.448 50.9813 78.8293 50.304 78.392 49.44C77.9547 48.5653 77.736 47.5573 77.736 46.416C77.736 45.264 77.9547 44.256 78.392 43.392C78.8293 42.5173 79.448 41.8347 80.248 41.344C81.0587 40.8533 82.0187 40.608 83.128 40.608C84.44 40.608 85.512 40.928 86.344 41.568C87.176 42.208 87.704 43.104 87.928 44.256H86.04C85.8907 43.6053 85.5707 43.088 85.08 42.704C84.5893 42.32 83.9333 42.128 83.112 42.128C81.992 42.128 81.1067 42.512 80.456 43.28C79.8053 44.0373 79.48 45.0827 79.48 46.416C79.48 47.7387 79.8053 48.7787 80.456 49.536C81.1067 50.2933 81.992 50.672 83.112 50.672C83.9333 50.672 84.5893 50.4907 85.08 50.128C85.5707 49.7653 85.8907 49.2693 86.04 48.64H87.928C87.704 49.7493 87.176 50.6187 86.344 51.248C85.512 51.8773 84.44 52.192 83.128 52.192ZM92.3363 52.192C91.3763 52.192 90.6189 51.8933 90.0643 51.296C89.5203 50.6987 89.2483 49.808 89.2483 48.624V44.064H90.9443V48.448C90.9443 49.984 91.5736 50.752 92.8323 50.752C93.4616 50.752 93.9789 50.528 94.3843 50.08C94.7896 49.632 94.9923 48.992 94.9923 48.16V44.064H96.6883V52H95.1843L95.0563 50.608C94.8109 51.0987 94.4483 51.488 93.9683 51.776C93.4989 52.0533 92.9549 52.192 92.3363 52.192ZM101.694 52.192C100.691 52.192 99.8644 51.9467 99.2138 51.456C98.5631 50.9653 98.1898 50.3147 98.0938 49.504H99.8058C99.8911 49.8667 100.094 50.1813 100.414 50.448C100.734 50.704 101.155 50.832 101.678 50.832C102.19 50.832 102.563 50.7253 102.798 50.512C103.032 50.2987 103.15 50.0533 103.15 49.776C103.15 49.3707 102.984 49.0987 102.654 48.96C102.334 48.8107 101.886 48.6773 101.31 48.56C100.862 48.464 100.414 48.336 99.9658 48.176C99.5284 48.016 99.1604 47.792 98.8618 47.504C98.5738 47.2053 98.4298 46.8053 98.4298 46.304C98.4298 45.6107 98.6964 45.0347 99.2298 44.576C99.7631 44.1067 100.51 43.872 101.47 43.872C102.355 43.872 103.07 44.0853 103.614 44.512C104.168 44.9387 104.494 45.5413 104.59 46.32H102.958C102.904 45.9787 102.744 45.712 102.478 45.52C102.222 45.328 101.875 45.232 101.438 45.232C101.011 45.232 100.68 45.3227 100.446 45.504C100.211 45.6747 100.094 45.8987 100.094 46.176C100.094 46.4533 100.254 46.672 100.574 46.832C100.904 46.992 101.336 47.136 101.87 47.264C102.403 47.3813 102.894 47.52 103.342 47.68C103.8 47.8293 104.168 48.0533 104.446 48.352C104.723 48.6507 104.862 49.088 104.862 49.664C104.872 50.3893 104.59 50.992 104.014 51.472C103.448 51.952 102.675 52.192 101.694 52.192ZM109.424 52C108.646 52 108.027 51.8133 107.568 51.44C107.11 51.056 106.88 50.3787 106.88 49.408V45.488H105.52V44.064H106.88L107.088 42.048H108.576V44.064H110.816V45.488H108.576V49.408C108.576 49.8453 108.667 50.1493 108.848 50.32C109.04 50.48 109.366 50.56 109.824 50.56H110.736V52H109.424ZM115.754 52.192C114.997 52.192 114.314 52.0213 113.706 51.68C113.109 51.328 112.634 50.8427 112.282 50.224C111.93 49.5947 111.754 48.864 111.754 48.032C111.754 47.2 111.93 46.4747 112.282 45.856C112.645 45.2267 113.13 44.7413 113.738 44.4C114.346 44.048 115.023 43.872 115.77 43.872C116.527 43.872 117.205 44.048 117.802 44.4C118.41 44.7413 118.89 45.2267 119.242 45.856C119.605 46.4747 119.786 47.2 119.786 48.032C119.786 48.864 119.605 49.5947 119.242 50.224C118.89 50.8427 118.41 51.328 117.802 51.68C117.194 52.0213 116.511 52.192 115.754 52.192ZM115.754 50.736C116.159 50.736 116.533 50.6347 116.874 50.432C117.226 50.2293 117.509 49.9307 117.722 49.536C117.935 49.1307 118.042 48.6293 118.042 48.032C118.042 47.4347 117.935 46.9387 117.722 46.544C117.519 46.1387 117.242 45.8347 116.89 45.632C116.549 45.4293 116.175 45.328 115.77 45.328C115.365 45.328 114.986 45.4293 114.634 45.632C114.293 45.8347 114.015 46.1387 113.802 46.544C113.589 46.9387 113.482 47.4347 113.482 48.032C113.482 48.6293 113.589 49.1307 113.802 49.536C114.015 49.9307 114.293 50.2293 114.634 50.432C114.975 50.6347 115.349 50.736 115.754 50.736ZM121.3 52V44.064H122.804L122.948 45.184C123.204 44.7787 123.54 44.4587 123.956 44.224C124.383 43.9893 124.873 43.872 125.428 43.872C126.687 43.872 127.561 44.368 128.052 45.36C128.34 44.9013 128.724 44.5387 129.204 44.272C129.695 44.0053 130.223 43.872 130.788 43.872C131.78 43.872 132.559 44.1707 133.124 44.768C133.689 45.3653 133.972 46.256 133.972 47.44V52H132.276V47.616C132.276 46.08 131.689 45.312 130.516 45.312C129.919 45.312 129.428 45.536 129.044 45.984C128.671 46.432 128.484 47.072 128.484 47.904V52H126.788V47.616C126.788 46.08 126.196 45.312 125.012 45.312C124.425 45.312 123.94 45.536 123.556 45.984C123.183 46.432 122.996 47.072 122.996 47.904V52H121.3ZM139.348 52.192C138.57 52.192 137.876 52.0213 137.268 51.68C136.671 51.328 136.202 50.8427 135.86 50.224C135.519 49.6053 135.348 48.8853 135.348 48.064C135.348 47.232 135.514 46.5013 135.844 45.872C136.186 45.2427 136.655 44.752 137.252 44.4C137.86 44.048 138.564 43.872 139.364 43.872C140.143 43.872 140.82 44.048 141.396 44.4C141.972 44.7413 142.42 45.2 142.74 45.776C143.06 46.352 143.22 46.9867 143.22 47.68C143.22 47.7867 143.215 47.904 143.204 48.032C143.204 48.1493 143.199 48.2827 143.188 48.432H137.012C137.066 49.2 137.316 49.7867 137.764 50.192C138.223 50.5867 138.751 50.784 139.348 50.784C139.828 50.784 140.228 50.6773 140.548 50.464C140.879 50.24 141.124 49.9413 141.284 49.568H142.98C142.767 50.3147 142.34 50.9387 141.7 51.44C141.071 51.9413 140.287 52.192 139.348 52.192ZM139.348 45.264C138.783 45.264 138.282 45.4347 137.844 45.776C137.407 46.1067 137.14 46.608 137.044 47.28H141.524C141.492 46.6613 141.274 46.1707 140.868 45.808C140.463 45.4453 139.956 45.264 139.348 45.264ZM144.66 52V44.064H146.18L146.324 45.568C146.601 45.0453 146.985 44.6347 147.476 44.336C147.977 44.0267 148.58 43.872 149.284 43.872V45.648H148.82C148.351 45.648 147.929 45.728 147.556 45.888C147.193 46.0373 146.9 46.2987 146.676 46.672C146.463 47.0347 146.356 47.5413 146.356 48.192V52H144.66ZM153.586 52.192C152.584 52.192 151.757 51.9467 151.106 51.456C150.456 50.9653 150.082 50.3147 149.986 49.504H151.698C151.784 49.8667 151.986 50.1813 152.306 50.448C152.626 50.704 153.048 50.832 153.57 50.832C154.082 50.832 154.456 50.7253 154.69 50.512C154.925 50.2987 155.042 50.0533 155.042 49.776C155.042 49.3707 154.877 49.0987 154.546 48.96C154.226 48.8107 153.778 48.6773 153.202 48.56C152.754 48.464 152.306 48.336 151.858 48.176C151.421 48.016 151.053 47.792 150.754 47.504C150.466 47.2053 150.322 46.8053 150.322 46.304C150.322 45.6107 150.589 45.0347 151.122 44.576C151.656 44.1067 152.402 43.872 153.362 43.872C154.248 43.872 154.962 44.0853 155.506 44.512C156.061 44.9387 156.386 45.5413 156.482 46.32H154.85C154.797 45.9787 154.637 45.712 154.37 45.52C154.114 45.328 153.768 45.232 153.33 45.232C152.904 45.232 152.573 45.3227 152.338 45.504C152.104 45.6747 151.986 45.8987 151.986 46.176C151.986 46.4533 152.146 46.672 152.466 46.832C152.797 46.992 153.229 47.136 153.762 47.264C154.296 47.3813 154.786 47.52 155.234 47.68C155.693 47.8293 156.061 48.0533 156.338 48.352C156.616 48.6507 156.754 49.088 156.754 49.664C156.765 50.3893 156.482 50.992 155.906 51.472C155.341 51.952 154.568 52.192 153.586 52.192Z" fill="black"/>
<rect x="256.5" y="32.5" width="88" height="28" rx="14" fill="white" stroke="#D3D7DB"/>
<path d="M274.25 51L270.568 41.2H271.842L274.936 49.754L278.058 41.2H279.304L275.622 51H274.25ZM281.012 42.516C280.779 42.516 280.583 42.4413 280.424 42.292C280.275 42.1333 280.2 41.9373 280.2 41.704C280.2 41.48 280.275 41.2933 280.424 41.144C280.583 40.9947 280.779 40.92 281.012 40.92C281.236 40.92 281.427 40.9947 281.586 41.144C281.745 41.2933 281.824 41.48 281.824 41.704C281.824 41.9373 281.745 42.1333 281.586 42.292C281.427 42.4413 281.236 42.516 281.012 42.516ZM280.424 51V44.056H281.6V51H280.424ZM286.489 51.168C285.827 51.168 285.239 51.0187 284.725 50.72C284.212 50.412 283.806 49.9873 283.507 49.446C283.218 48.9047 283.073 48.2653 283.073 47.528C283.073 46.8 283.218 46.1653 283.507 45.624C283.797 45.0733 284.198 44.6487 284.711 44.35C285.234 44.042 285.836 43.888 286.517 43.888C287.189 43.888 287.768 44.042 288.253 44.35C288.748 44.6487 289.126 45.0453 289.387 45.54C289.649 46.0347 289.779 46.5667 289.779 47.136C289.779 47.2387 289.775 47.3413 289.765 47.444C289.765 47.5467 289.765 47.6633 289.765 47.794H284.235C284.263 48.326 284.385 48.7693 284.599 49.124C284.823 49.4693 285.099 49.7307 285.425 49.908C285.761 50.0853 286.116 50.174 286.489 50.174C286.975 50.174 287.381 50.062 287.707 49.838C288.034 49.614 288.272 49.3107 288.421 48.928H289.583C289.397 49.572 289.037 50.1087 288.505 50.538C287.983 50.958 287.311 51.168 286.489 51.168ZM286.489 44.882C285.929 44.882 285.43 45.0547 284.991 45.4C284.562 45.736 284.315 46.2307 284.249 46.884H288.617C288.589 46.2587 288.375 45.7687 287.973 45.414C287.572 45.0593 287.077 44.882 286.489 44.882ZM292.185 51L290.155 44.056H291.331L292.801 49.502L294.425 44.056H295.755L297.393 49.502L298.849 44.056H300.039L298.009 51H296.805L295.097 45.274L293.389 51H292.185ZM306.794 51.168C306.216 51.168 305.735 51.07 305.352 50.874C304.97 50.678 304.685 50.4167 304.498 50.09C304.312 49.7633 304.218 49.4087 304.218 49.026C304.218 48.3167 304.489 47.7707 305.03 47.388C305.572 47.0053 306.309 46.814 307.242 46.814H309.118V46.73C309.118 46.1233 308.96 45.666 308.642 45.358C308.325 45.0407 307.9 44.882 307.368 44.882C306.911 44.882 306.514 44.9987 306.178 45.232C305.852 45.456 305.646 45.7873 305.562 46.226H304.358C304.405 45.722 304.573 45.2973 304.862 44.952C305.161 44.6067 305.53 44.3453 305.968 44.168C306.407 43.9813 306.874 43.888 307.368 43.888C308.339 43.888 309.067 44.1493 309.552 44.672C310.047 45.1853 310.294 45.8713 310.294 46.73V51H309.244L309.174 49.754C308.978 50.146 308.689 50.482 308.306 50.762C307.933 51.0327 307.429 51.168 306.794 51.168ZM306.976 50.174C307.424 50.174 307.807 50.0573 308.124 49.824C308.451 49.5907 308.698 49.2873 308.866 48.914C309.034 48.5407 309.118 48.1487 309.118 47.738V47.724H307.34C306.65 47.724 306.16 47.8453 305.87 48.088C305.59 48.3213 305.45 48.6153 305.45 48.97C305.45 49.334 305.581 49.628 305.842 49.852C306.113 50.0667 306.491 50.174 306.976 50.174ZM311.779 51V40.92H312.955V51H311.779ZM314.602 51V40.92H315.778V51H314.602Z" fill="black"/>
<path d="M324.708 46.5H332.291" stroke="black" stroke-linecap="round" stroke-linejoin="round"/>
<path d="M328.5 42.709L332.292 46.5007L328.5 50.2923" stroke="black" stroke-linecap="round" stroke-linejoin="round"/>
<rect x="278" y="155" width="67" height="29" rx="14.5" fill="#FFF0DE"/>
<path d="M297.261 174V164.2H298.437V173.062H303.001V174H297.261ZM307.087 174.168C306.425 174.168 305.837 174.019 305.323 173.72C304.81 173.412 304.404 172.987 304.105 172.446C303.816 171.905 303.671 171.265 303.671 170.528C303.671 169.8 303.816 169.165 304.105 168.624C304.395 168.073 304.796 167.649 305.309 167.35C305.832 167.042 306.434 166.888 307.115 166.888C307.787 166.888 308.366 167.042 308.851 167.35C309.346 167.649 309.724 168.045 309.985 168.54C310.247 169.035 310.377 169.567 310.377 170.136C310.377 170.239 310.373 170.341 310.363 170.444C310.363 170.547 310.363 170.663 310.363 170.794H304.833C304.861 171.326 304.983 171.769 305.197 172.124C305.421 172.469 305.697 172.731 306.023 172.908C306.359 173.085 306.714 173.174 307.087 173.174C307.573 173.174 307.979 173.062 308.305 172.838C308.632 172.614 308.87 172.311 309.019 171.928H310.181C309.995 172.572 309.635 173.109 309.103 173.538C308.581 173.958 307.909 174.168 307.087 174.168ZM307.087 167.882C306.527 167.882 306.028 168.055 305.589 168.4C305.16 168.736 304.913 169.231 304.847 169.884H309.215C309.187 169.259 308.973 168.769 308.571 168.414C308.17 168.059 307.675 167.882 307.087 167.882ZM313.966 174.168C313.387 174.168 312.907 174.07 312.524 173.874C312.141 173.678 311.857 173.417 311.67 173.09C311.483 172.763 311.39 172.409 311.39 172.026C311.39 171.317 311.661 170.771 312.202 170.388C312.743 170.005 313.481 169.814 314.414 169.814H316.29V169.73C316.29 169.123 316.131 168.666 315.814 168.358C315.497 168.041 315.072 167.882 314.54 167.882C314.083 167.882 313.686 167.999 313.35 168.232C313.023 168.456 312.818 168.787 312.734 169.226H311.53C311.577 168.722 311.745 168.297 312.034 167.952C312.333 167.607 312.701 167.345 313.14 167.168C313.579 166.981 314.045 166.888 314.54 166.888C315.511 166.888 316.239 167.149 316.724 167.672C317.219 168.185 317.466 168.871 317.466 169.73V174H316.416L316.346 172.754C316.15 173.146 315.861 173.482 315.478 173.762C315.105 174.033 314.601 174.168 313.966 174.168ZM314.148 173.174C314.596 173.174 314.979 173.057 315.296 172.824C315.623 172.591 315.87 172.287 316.038 171.914C316.206 171.541 316.29 171.149 316.29 170.738V170.724H314.512C313.821 170.724 313.331 170.845 313.042 171.088C312.762 171.321 312.622 171.615 312.622 171.97C312.622 172.334 312.753 172.628 313.014 172.852C313.285 173.067 313.663 173.174 314.148 173.174ZM322.1 174.168C321.41 174.168 320.803 174.009 320.28 173.692C319.767 173.375 319.366 172.941 319.076 172.39C318.796 171.839 318.656 171.214 318.656 170.514C318.656 169.814 318.801 169.193 319.09 168.652C319.38 168.101 319.781 167.672 320.294 167.364C320.808 167.047 321.414 166.888 322.114 166.888C322.684 166.888 323.188 167.005 323.626 167.238C324.065 167.471 324.406 167.798 324.648 168.218V163.92H325.824V174H324.76L324.648 172.852C324.424 173.188 324.102 173.491 323.682 173.762C323.262 174.033 322.735 174.168 322.1 174.168ZM322.226 173.146C322.693 173.146 323.104 173.039 323.458 172.824C323.822 172.6 324.102 172.292 324.298 171.9C324.504 171.508 324.606 171.051 324.606 170.528C324.606 170.005 324.504 169.548 324.298 169.156C324.102 168.764 323.822 168.461 323.458 168.246C323.104 168.022 322.693 167.91 322.226 167.91C321.769 167.91 321.358 168.022 320.994 168.246C320.64 168.461 320.36 168.764 320.154 169.156C319.958 169.548 319.86 170.005 319.86 170.528C319.86 171.051 319.958 171.508 320.154 171.9C320.36 172.292 320.64 172.6 320.994 172.824C321.358 173.039 321.769 173.146 322.226 173.146Z" fill="#965F1C"/>
<rect x="255" y="275" width="90" height="29" rx="14.5" fill="#DEEBFF"/>
<path d="M274.383 294.168C273.422 294.168 272.591 293.958 271.891 293.538C271.201 293.109 270.664 292.516 270.281 291.76C269.899 290.995 269.707 290.108 269.707 289.1C269.707 288.101 269.899 287.224 270.281 286.468C270.664 285.703 271.201 285.105 271.891 284.676C272.591 284.247 273.422 284.032 274.383 284.032C275.503 284.032 276.413 284.303 277.113 284.844C277.823 285.376 278.275 286.123 278.471 287.084H277.169C277.02 286.477 276.712 285.992 276.245 285.628C275.788 285.255 275.167 285.068 274.383 285.068C273.683 285.068 273.072 285.231 272.549 285.558C272.027 285.875 271.621 286.337 271.331 286.944C271.051 287.541 270.911 288.26 270.911 289.1C270.911 289.94 271.051 290.663 271.331 291.27C271.621 291.867 272.027 292.329 272.549 292.656C273.072 292.973 273.683 293.132 274.383 293.132C275.167 293.132 275.788 292.955 276.245 292.6C276.712 292.236 277.02 291.755 277.169 291.158H278.471C278.275 292.101 277.823 292.838 277.113 293.37C276.413 293.902 275.503 294.168 274.383 294.168ZM282.346 294.168C281.524 294.168 280.871 293.921 280.386 293.426C279.9 292.922 279.658 292.152 279.658 291.116V287.056H280.834V290.99C280.834 292.437 281.426 293.16 282.612 293.16C283.218 293.16 283.718 292.945 284.11 292.516C284.511 292.077 284.712 291.457 284.712 290.654V287.056H285.888V294H284.824L284.74 292.754C284.525 293.193 284.203 293.538 283.774 293.79C283.354 294.042 282.878 294.168 282.346 294.168ZM290.203 294.168C289.373 294.168 288.682 293.958 288.131 293.538C287.581 293.118 287.259 292.549 287.165 291.83H288.369C288.444 292.194 288.635 292.511 288.943 292.782C289.261 293.043 289.685 293.174 290.217 293.174C290.712 293.174 291.076 293.071 291.309 292.866C291.543 292.651 291.659 292.399 291.659 292.11C291.659 291.69 291.505 291.41 291.197 291.27C290.899 291.13 290.474 291.004 289.923 290.892C289.55 290.817 289.177 290.71 288.803 290.57C288.43 290.43 288.117 290.234 287.865 289.982C287.613 289.721 287.487 289.38 287.487 288.96C287.487 288.353 287.711 287.859 288.159 287.476C288.617 287.084 289.233 286.888 290.007 286.888C290.745 286.888 291.347 287.075 291.813 287.448C292.289 287.812 292.565 288.335 292.639 289.016H291.477C291.431 288.661 291.277 288.386 291.015 288.19C290.763 287.985 290.423 287.882 289.993 287.882C289.573 287.882 289.247 287.971 289.013 288.148C288.789 288.325 288.677 288.559 288.677 288.848C288.677 289.128 288.822 289.347 289.111 289.506C289.41 289.665 289.811 289.8 290.315 289.912C290.745 290.005 291.151 290.122 291.533 290.262C291.925 290.393 292.243 290.593 292.485 290.864C292.737 291.125 292.863 291.508 292.863 292.012C292.873 292.637 292.635 293.155 292.149 293.566C291.673 293.967 291.025 294.168 290.203 294.168ZM296.693 294C296.058 294 295.559 293.846 295.195 293.538C294.831 293.23 294.649 292.675 294.649 291.872V288.05H293.445V287.056H294.649L294.803 285.39H295.825V287.056H297.869V288.05H295.825V291.872C295.825 292.311 295.913 292.609 296.091 292.768C296.268 292.917 296.581 292.992 297.029 292.992H297.757V294H296.693ZM302.055 294.168C301.402 294.168 300.814 294.019 300.291 293.72C299.769 293.421 299.353 293.001 299.045 292.46C298.747 291.909 298.597 291.265 298.597 290.528C298.597 289.791 298.751 289.151 299.059 288.61C299.367 288.059 299.783 287.635 300.305 287.336C300.837 287.037 301.43 286.888 302.083 286.888C302.737 286.888 303.325 287.037 303.847 287.336C304.37 287.635 304.781 288.059 305.079 288.61C305.387 289.151 305.541 289.791 305.541 290.528C305.541 291.265 305.387 291.909 305.079 292.46C304.771 293.001 304.351 293.421 303.819 293.72C303.297 294.019 302.709 294.168 302.055 294.168ZM302.055 293.16C302.457 293.16 302.83 293.062 303.175 292.866C303.521 292.67 303.801 292.376 304.015 291.984C304.23 291.592 304.337 291.107 304.337 290.528C304.337 289.949 304.23 289.464 304.015 289.072C303.81 288.68 303.535 288.386 303.189 288.19C302.844 287.994 302.475 287.896 302.083 287.896C301.682 287.896 301.309 287.994 300.963 288.19C300.618 288.386 300.338 288.68 300.123 289.072C299.909 289.464 299.801 289.949 299.801 290.528C299.801 291.107 299.909 291.592 300.123 291.984C300.338 292.376 300.613 292.67 300.949 292.866C301.295 293.062 301.663 293.16 302.055 293.16ZM306.897 294V287.056H307.961L308.045 288.064C308.269 287.691 308.567 287.401 308.941 287.196C309.314 286.991 309.734 286.888 310.201 286.888C310.751 286.888 311.223 287 311.615 287.224C312.016 287.448 312.324 287.789 312.539 288.246C312.781 287.826 313.113 287.495 313.533 287.252C313.962 287.009 314.424 286.888 314.919 286.888C315.749 286.888 316.412 287.14 316.907 287.644C317.401 288.139 317.649 288.904 317.649 289.94V294H316.487V290.066C316.487 289.347 316.342 288.806 316.053 288.442C315.763 288.078 315.348 287.896 314.807 287.896C314.247 287.896 313.78 288.115 313.407 288.554C313.043 288.983 312.861 289.599 312.861 290.402V294H311.685V290.066C311.685 289.347 311.54 288.806 311.251 288.442C310.961 288.078 310.546 287.896 310.005 287.896C309.454 287.896 308.992 288.115 308.619 288.554C308.255 288.983 308.073 289.599 308.073 290.402V294H306.897ZM322.262 294.168C321.599 294.168 321.011 294.019 320.498 293.72C319.985 293.412 319.579 292.987 319.28 292.446C318.991 291.905 318.846 291.265 318.846 290.528C318.846 289.8 318.991 289.165 319.28 288.624C319.569 288.073 319.971 287.649 320.484 287.35C321.007 287.042 321.609 286.888 322.29 286.888C322.962 286.888 323.541 287.042 324.026 287.35C324.521 287.649 324.899 288.045 325.16 288.54C325.421 289.035 325.552 289.567 325.552 290.136C325.552 290.239 325.547 290.341 325.538 290.444C325.538 290.547 325.538 290.663 325.538 290.794H320.008C320.036 291.326 320.157 291.769 320.372 292.124C320.596 292.469 320.871 292.731 321.198 292.908C321.534 293.085 321.889 293.174 322.262 293.174C322.747 293.174 323.153 293.062 323.48 292.838C323.807 292.614 324.045 292.311 324.194 291.928H325.356C325.169 292.572 324.81 293.109 324.278 293.538C323.755 293.958 323.083 294.168 322.262 294.168ZM322.262 287.882C321.702 287.882 321.203 288.055 320.764 288.4C320.335 288.736 320.087 289.231 320.022 289.884H324.39C324.362 289.259 324.147 288.769 323.746 288.414C323.345 288.059 322.85 287.882 322.262 287.882ZM326.831 294V287.056H327.895L327.993 288.386C328.207 287.929 328.534 287.565 328.973 287.294C329.411 287.023 329.953 286.888 330.597 286.888V288.12H330.275C329.864 288.12 329.486 288.195 329.141 288.344C328.795 288.484 328.52 288.727 328.315 289.072C328.109 289.417 328.007 289.893 328.007 290.5V294H326.831Z" fill="#3862A0"/>
<rect x="278" y="95" width="67" height="29" rx="14.5" fill="#FFF0DE"/>
<path d="M297.261 114V104.2H298.437V113.062H303.001V114H297.261ZM307.087 114.168C306.425 114.168 305.837 114.019 305.323 113.72C304.81 113.412 304.404 112.987 304.105 112.446C303.816 111.905 303.671 111.265 303.671 110.528C303.671 109.8 303.816 109.165 304.105 108.624C304.395 108.073 304.796 107.649 305.309 107.35C305.832 107.042 306.434 106.888 307.115 106.888C307.787 106.888 308.366 107.042 308.851 107.35C309.346 107.649 309.724 108.045 309.985 108.54C310.247 109.035 310.377 109.567 310.377 110.136C310.377 110.239 310.373 110.341 310.363 110.444C310.363 110.547 310.363 110.663 310.363 110.794H304.833C304.861 111.326 304.983 111.769 305.197 112.124C305.421 112.469 305.697 112.731 306.023 112.908C306.359 113.085 306.714 113.174 307.087 113.174C307.573 113.174 307.979 113.062 308.305 112.838C308.632 112.614 308.87 112.311 309.019 111.928H310.181C309.995 112.572 309.635 113.109 309.103 113.538C308.581 113.958 307.909 114.168 307.087 114.168ZM307.087 107.882C306.527 107.882 306.028 108.055 305.589 108.4C305.16 108.736 304.913 109.231 304.847 109.884H309.215C309.187 109.259 308.973 108.769 308.571 108.414C308.17 108.059 307.675 107.882 307.087 107.882ZM313.966 114.168C313.387 114.168 312.907 114.07 312.524 113.874C312.141 113.678 311.857 113.417 311.67 113.09C311.483 112.763 311.39 112.409 311.39 112.026C311.39 111.317 311.661 110.771 312.202 110.388C312.743 110.005 313.481 109.814 314.414 109.814H316.29V109.73C316.29 109.123 316.131 108.666 315.814 108.358C315.497 108.041 315.072 107.882 314.54 107.882C314.083 107.882 313.686 107.999 313.35 108.232C313.023 108.456 312.818 108.787 312.734 109.226H311.53C311.577 108.722 311.745 108.297 312.034 107.952C312.333 107.607 312.701 107.345 313.14 107.168C313.579 106.981 314.045 106.888 314.54 106.888C315.511 106.888 316.239 107.149 316.724 107.672C317.219 108.185 317.466 108.871 317.466 109.73V114H316.416L316.346 112.754C316.15 113.146 315.861 113.482 315.478 113.762C315.105 114.033 314.601 114.168 313.966 114.168ZM314.148 113.174C314.596 113.174 314.979 113.057 315.296 112.824C315.623 112.591 315.87 112.287 316.038 111.914C316.206 111.541 316.29 111.149 316.29 110.738V110.724H314.512C313.821 110.724 313.331 110.845 313.042 111.088C312.762 111.321 312.622 111.615 312.622 111.97C312.622 112.334 312.753 112.628 313.014 112.852C313.285 113.067 313.663 113.174 314.148 113.174ZM322.1 114.168C321.41 114.168 320.803 114.009 320.28 113.692C319.767 113.375 319.366 112.941 319.076 112.39C318.796 111.839 318.656 111.214 318.656 110.514C318.656 109.814 318.801 109.193 319.09 108.652C319.38 108.101 319.781 107.672 320.294 107.364C320.808 107.047 321.414 106.888 322.114 106.888C322.684 106.888 323.188 107.005 323.626 107.238C324.065 107.471 324.406 107.798 324.648 108.218V103.92H325.824V114H324.76L324.648 112.852C324.424 113.188 324.102 113.491 323.682 113.762C323.262 114.033 322.735 114.168 322.1 114.168ZM322.226 113.146C322.693 113.146 323.104 113.039 323.458 112.824C323.822 112.6 324.102 112.292 324.298 111.9C324.504 111.508 324.606 111.051 324.606 110.528C324.606 110.005 324.504 109.548 324.298 109.156C324.102 108.764 323.822 108.461 323.458 108.246C323.104 108.022 322.693 107.91 322.226 107.91C321.769 107.91 321.358 108.022 320.994 108.246C320.64 108.461 320.36 108.764 320.154 109.156C319.958 109.548 319.86 110.005 319.86 110.528C319.86 111.051 319.958 111.508 320.154 111.9C320.36 112.292 320.64 112.6 320.994 112.824C321.358 113.039 321.769 113.146 322.226 113.146Z" fill="#965F1C"/>
<path d="M36.128 115.192C35.0187 115.192 34.0587 114.952 33.248 114.472C32.448 113.981 31.8293 113.304 31.392 112.44C30.9547 111.565 30.736 110.557 30.736 109.416C30.736 108.264 30.9547 107.256 31.392 106.392C31.8293 105.517 32.448 104.835 33.248 104.344C34.0587 103.853 35.0187 103.608 36.128 103.608C37.44 103.608 38.512 103.928 39.344 104.568C40.176 105.208 40.704 106.104 40.928 107.256H39.04C38.8907 106.605 38.5707 106.088 38.08 105.704C37.5893 105.32 36.9333 105.128 36.112 105.128C34.992 105.128 34.1067 105.512 33.456 106.28C32.8053 107.037 32.48 108.083 32.48 109.416C32.48 110.739 32.8053 111.779 33.456 112.536C34.1067 113.293 34.992 113.672 36.112 113.672C36.9333 113.672 37.5893 113.491 38.08 113.128C38.5707 112.765 38.8907 112.269 39.04 111.64H40.928C40.704 112.749 40.176 113.619 39.344 114.248C38.512 114.877 37.44 115.192 36.128 115.192ZM42.4083 115V103.48H44.1043V108.344C44.3709 107.885 44.7389 107.528 45.2083 107.272C45.6883 107.005 46.2163 106.872 46.7923 106.872C47.7416 106.872 48.4883 107.171 49.0323 107.768C49.5763 108.365 49.8483 109.256 49.8483 110.44V115H48.1683V110.616C48.1683 109.08 47.5549 108.312 46.3283 108.312C45.6883 108.312 45.1549 108.536 44.7283 108.984C44.3123 109.432 44.1043 110.072 44.1043 110.904V115H42.4083ZM54.2138 115.192C53.5418 115.192 52.9871 115.08 52.5498 114.856C52.1124 114.632 51.7871 114.339 51.5738 113.976C51.3604 113.603 51.2538 113.197 51.2538 112.76C51.2538 111.992 51.5524 111.384 52.1498 110.936C52.7471 110.488 53.6004 110.264 54.7098 110.264H56.7898V110.12C56.7898 109.501 56.6191 109.037 56.2778 108.728C55.9471 108.419 55.5151 108.264 54.9818 108.264C54.5124 108.264 54.1018 108.381 53.7498 108.616C53.4084 108.84 53.2004 109.176 53.1258 109.624H51.4298C51.4831 109.048 51.6751 108.557 52.0058 108.152C52.3471 107.736 52.7738 107.421 53.2858 107.208C53.8084 106.984 54.3791 106.872 54.9978 106.872C56.1071 106.872 56.9658 107.165 57.5738 107.752C58.1818 108.328 58.4858 109.117 58.4858 110.12V115H57.0138L56.8698 113.64C56.6458 114.077 56.3204 114.445 55.8938 114.744C55.4671 115.043 54.9071 115.192 54.2138 115.192ZM54.5498 113.816C55.0084 113.816 55.3924 113.709 55.7018 113.496C56.0218 113.272 56.2671 112.979 56.4378 112.616C56.6191 112.253 56.7311 111.853 56.7738 111.416H54.8858C54.2138 111.416 53.7338 111.533 53.4458 111.768C53.1684 112.003 53.0298 112.296 53.0298 112.648C53.0298 113.011 53.1631 113.299 53.4298 113.512C53.7071 113.715 54.0804 113.816 54.5498 113.816ZM60.1433 115V107.064H61.6633L61.8073 108.568C62.0846 108.045 62.4686 107.635 62.9593 107.336C63.4606 107.027 64.0633 106.872 64.7673 106.872V108.648H64.3033C63.8339 108.648 63.4126 108.728 63.0393 108.888C62.6766 109.037 62.3833 109.299 62.1593 109.672C61.9459 110.035 61.8393 110.541 61.8393 111.192V115H60.1433ZM65.9014 115V103.48H67.5974V115H65.9014ZM70.3851 105.56C70.0651 105.56 69.7985 105.464 69.5851 105.272C69.3825 105.069 69.2811 104.819 69.2811 104.52C69.2811 104.221 69.3825 103.976 69.5851 103.784C69.7985 103.581 70.0651 103.48 70.3851 103.48C70.7051 103.48 70.9665 103.581 71.1691 103.784C71.3825 103.976 71.4891 104.221 71.4891 104.52C71.4891 104.819 71.3825 105.069 71.1691 105.272C70.9665 105.464 70.7051 105.56 70.3851 105.56ZM69.5371 115V107.064H71.2331V115H69.5371ZM76.864 115.192C76.0853 115.192 75.392 115.021 74.784 114.68C74.1867 114.328 73.7173 113.843 73.376 113.224C73.0347 112.605 72.864 111.885 72.864 111.064C72.864 110.232 73.0293 109.501 73.36 108.872C73.7013 108.243 74.1707 107.752 74.768 107.4C75.376 107.048 76.08 106.872 76.88 106.872C77.6587 106.872 78.336 107.048 78.912 107.4C79.488 107.741 79.936 108.2 80.256 108.776C80.576 109.352 80.736 109.987 80.736 110.68C80.736 110.787 80.7307 110.904 80.72 111.032C80.72 111.149 80.7147 111.283 80.704 111.432H74.528C74.5813 112.2 74.832 112.787 75.28 113.192C75.7387 113.587 76.2667 113.784 76.864 113.784C77.344 113.784 77.744 113.677 78.064 113.464C78.3947 113.24 78.64 112.941 78.8 112.568H80.496C80.2827 113.315 79.856 113.939 79.216 114.44C78.5867 114.941 77.8027 115.192 76.864 115.192ZM76.864 108.264C76.2987 108.264 75.7973 108.435 75.36 108.776C74.9227 109.107 74.656 109.608 74.56 110.28H79.04C79.008 109.661 78.7893 109.171 78.384 108.808C77.9787 108.445 77.472 108.264 76.864 108.264ZM88.239 115.016L85.215 103.8H87.039L89.263 113.08L91.823 103.8H93.695L96.175 113.08L98.399 103.8H100.223L97.151 115H95.167L92.719 106.216L90.191 115L88.239 115.016ZM102.355 105.56C102.035 105.56 101.768 105.464 101.555 105.272C101.352 105.069 101.251 104.819 101.251 104.52C101.251 104.221 101.352 103.976 101.555 103.784C101.768 103.581 102.035 103.48 102.355 103.48C102.675 103.48 102.936 103.581 103.139 103.784C103.352 103.976 103.459 104.221 103.459 104.52C103.459 104.819 103.352 105.069 103.139 105.272C102.936 105.464 102.675 105.56 102.355 105.56ZM101.507 115V107.064H103.203V115H101.507ZM105.122 115V103.48H106.818V115H105.122ZM108.646 115V103.48H110.342V115H108.646ZM113.13 105.56C112.81 105.56 112.543 105.464 112.33 105.272C112.127 105.069 112.026 104.819 112.026 104.52C112.026 104.221 112.127 103.976 112.33 103.784C112.543 103.581 112.81 103.48 113.13 103.48C113.45 103.48 113.711 103.581 113.914 103.784C114.127 103.976 114.234 104.221 114.234 104.52C114.234 104.819 114.127 105.069 113.914 105.272C113.711 105.464 113.45 105.56 113.13 105.56ZM112.282 115V107.064H113.978V115H112.282ZM118.584 115.192C117.912 115.192 117.358 115.08 116.92 114.856C116.483 114.632 116.158 114.339 115.944 113.976C115.731 113.603 115.624 113.197 115.624 112.76C115.624 111.992 115.923 111.384 116.52 110.936C117.118 110.488 117.971 110.264 119.08 110.264H121.16V110.12C121.16 109.501 120.99 109.037 120.648 108.728C120.318 108.419 119.886 108.264 119.352 108.264C118.883 108.264 118.472 108.381 118.12 108.616C117.779 108.84 117.571 109.176 117.496 109.624H115.8C115.854 109.048 116.046 108.557 116.376 108.152C116.718 107.736 117.144 107.421 117.656 107.208C118.179 106.984 118.75 106.872 119.368 106.872C120.478 106.872 121.336 107.165 121.944 107.752C122.552 108.328 122.856 109.117 122.856 110.12V115H121.384L121.24 113.64C121.016 114.077 120.691 114.445 120.264 114.744C119.838 115.043 119.278 115.192 118.584 115.192ZM118.92 113.816C119.379 113.816 119.763 113.709 120.072 113.496C120.392 113.272 120.638 112.979 120.808 112.616C120.99 112.253 121.102 111.853 121.144 111.416H119.256C118.584 111.416 118.104 111.533 117.816 111.768C117.539 112.003 117.4 112.296 117.4 112.648C117.4 113.011 117.534 113.299 117.8 113.512C118.078 113.715 118.451 113.816 118.92 113.816ZM124.514 115V107.064H126.018L126.162 108.184C126.418 107.779 126.754 107.459 127.17 107.224C127.597 106.989 128.087 106.872 128.642 106.872C129.901 106.872 130.775 107.368 131.266 108.36C131.554 107.901 131.938 107.539 132.418 107.272C132.909 107.005 133.437 106.872 134.002 106.872C134.994 106.872 135.773 107.171 136.338 107.768C136.903 108.365 137.186 109.256 137.186 110.44V115H135.49V110.616C135.49 109.08 134.903 108.312 133.73 108.312C133.133 108.312 132.642 108.536 132.258 108.984C131.885 109.432 131.698 110.072 131.698 110.904V115H130.002V110.616C130.002 109.08 129.41 108.312 128.226 108.312C127.639 108.312 127.154 108.536 126.77 108.984C126.397 109.432 126.21 110.072 126.21 110.904V115H124.514ZM142.018 115.192C141.015 115.192 140.189 114.947 139.538 114.456C138.887 113.965 138.514 113.315 138.418 112.504H140.13C140.215 112.867 140.418 113.181 140.738 113.448C141.058 113.704 141.479 113.832 142.002 113.832C142.514 113.832 142.887 113.725 143.122 113.512C143.357 113.299 143.474 113.053 143.474 112.776C143.474 112.371 143.309 112.099 142.978 111.96C142.658 111.811 142.21 111.677 141.634 111.56C141.186 111.464 140.738 111.336 140.29 111.176C139.853 111.016 139.485 110.792 139.186 110.504C138.898 110.205 138.754 109.805 138.754 109.304C138.754 108.611 139.021 108.035 139.554 107.576C140.087 107.107 140.834 106.872 141.794 106.872C142.679 106.872 143.394 107.085 143.938 107.512C144.493 107.939 144.818 108.541 144.914 109.32H143.282C143.229 108.979 143.069 108.712 142.802 108.52C142.546 108.328 142.199 108.232 141.762 108.232C141.335 108.232 141.005 108.323 140.77 108.504C140.535 108.675 140.418 108.899 140.418 109.176C140.418 109.453 140.578 109.672 140.898 109.832C141.229 109.992 141.661 110.136 142.194 110.264C142.727 110.381 143.218 110.52 143.666 110.68C144.125 110.829 144.493 111.053 144.77 111.352C145.047 111.651 145.186 112.088 145.186 112.664C145.197 113.389 144.914 113.992 144.338 114.472C143.773 114.952 142.999 115.192 142.018 115.192Z" fill="black"/>
<path d="M31.136 175V163.8H34.768C36.08 163.8 37.1573 164.029 38 164.488C38.8533 164.947 39.4827 165.597 39.888 166.44C40.304 167.272 40.512 168.264 40.512 169.416C40.512 170.557 40.304 171.549 39.888 172.392C39.4827 173.224 38.8533 173.869 38 174.328C37.1573 174.776 36.08 175 34.768 175H31.136ZM32.832 173.56H34.704C35.7173 173.56 36.5173 173.395 37.104 173.064C37.7013 172.733 38.128 172.259 38.384 171.64C38.6507 171.021 38.784 170.28 38.784 169.416C38.784 168.552 38.6507 167.805 38.384 167.176C38.128 166.547 37.7013 166.067 37.104 165.736C36.5173 165.395 35.7173 165.224 34.704 165.224H32.832V173.56ZM42.962 165.56C42.642 165.56 42.3753 165.464 42.162 165.272C41.9593 165.069 41.858 164.819 41.858 164.52C41.858 164.221 41.9593 163.976 42.162 163.784C42.3753 163.581 42.642 163.48 42.962 163.48C43.282 163.48 43.5433 163.581 43.746 163.784C43.9593 163.976 44.066 164.221 44.066 164.52C44.066 164.819 43.9593 165.069 43.746 165.272C43.5433 165.464 43.282 165.56 42.962 165.56ZM42.114 175V167.064H43.81V175H42.114ZM48.4169 175.192C47.7449 175.192 47.1902 175.08 46.7529 174.856C46.3155 174.632 45.9902 174.339 45.7769 173.976C45.5635 173.603 45.4569 173.197 45.4569 172.76C45.4569 171.992 45.7555 171.384 46.3529 170.936C46.9502 170.488 47.8035 170.264 48.9129 170.264H50.9929V170.12C50.9929 169.501 50.8222 169.037 50.4809 168.728C50.1502 168.419 49.7182 168.264 49.1849 168.264C48.7155 168.264 48.3049 168.381 47.9529 168.616C47.6115 168.84 47.4035 169.176 47.3289 169.624H45.6329C45.6862 169.048 45.8782 168.557 46.2089 168.152C46.5502 167.736 46.9769 167.421 47.4889 167.208C48.0115 166.984 48.5822 166.872 49.2009 166.872C50.3102 166.872 51.1689 167.165 51.7769 167.752C52.3849 168.328 52.6889 169.117 52.6889 170.12V175H51.2169L51.0729 173.64C50.8489 174.077 50.5235 174.445 50.0969 174.744C49.6702 175.043 49.1102 175.192 48.4169 175.192ZM48.7529 173.816C49.2115 173.816 49.5955 173.709 49.9049 173.496C50.2249 173.272 50.4702 172.979 50.6409 172.616C50.8222 172.253 50.9342 171.853 50.9769 171.416H49.0889C48.4169 171.416 47.9369 171.533 47.6489 171.768C47.3715 172.003 47.2329 172.296 47.2329 172.648C47.2329 173.011 47.3662 173.299 47.6329 173.512C47.9102 173.715 48.2835 173.816 48.7529 173.816ZM54.3464 175V167.064H55.8504L55.9784 168.456C56.2237 167.965 56.581 167.581 57.0504 167.304C57.5304 167.016 58.0797 166.872 58.6984 166.872C59.6584 166.872 60.4104 167.171 60.9544 167.768C61.509 168.365 61.7864 169.256 61.7864 170.44V175H60.1064V170.616C60.1064 169.08 59.477 168.312 58.2184 168.312C57.589 168.312 57.0664 168.536 56.6504 168.984C56.245 169.432 56.0424 170.072 56.0424 170.904V175H54.3464ZM63.4639 175V167.064H64.9679L65.0959 168.456C65.3412 167.965 65.6985 167.581 66.1679 167.304C66.6479 167.016 67.1972 166.872 67.8159 166.872C68.7759 166.872 69.5279 167.171 70.0719 167.768C70.6265 168.365 70.9039 169.256 70.9039 170.44V175H69.2239V170.616C69.2239 169.08 68.5945 168.312 67.3359 168.312C66.7065 168.312 66.1839 168.536 65.7679 168.984C65.3625 169.432 65.1599 170.072 65.1599 170.904V175H63.4639ZM76.2934 175.192C75.5147 175.192 74.8214 175.021 74.2134 174.68C73.616 174.328 73.1467 173.843 72.8054 173.224C72.464 172.605 72.2934 171.885 72.2934 171.064C72.2934 170.232 72.4587 169.501 72.7894 168.872C73.1307 168.243 73.6 167.752 74.1974 167.4C74.8054 167.048 75.5094 166.872 76.3094 166.872C77.088 166.872 77.7654 167.048 78.3414 167.4C78.9174 167.741 79.3654 168.2 79.6854 168.776C80.0054 169.352 80.1654 169.987 80.1654 170.68C80.1654 170.787 80.16 170.904 80.1494 171.032C80.1494 171.149 80.144 171.283 80.1334 171.432H73.9574C74.0107 172.2 74.2614 172.787 74.7094 173.192C75.168 173.587 75.696 173.784 76.2934 173.784C76.7734 173.784 77.1734 173.677 77.4934 173.464C77.824 173.24 78.0694 172.941 78.2294 172.568H79.9254C79.712 173.315 79.2854 173.939 78.6454 174.44C78.016 174.941 77.232 175.192 76.2934 175.192ZM76.2934 168.264C75.728 168.264 75.2267 168.435 74.7894 168.776C74.352 169.107 74.0854 169.608 73.9894 170.28H78.4694C78.4374 169.661 78.2187 169.171 77.8134 168.808C77.408 168.445 76.9014 168.264 76.2934 168.264ZM85.3804 175V163.8H89.2364C90.1217 163.8 90.847 163.949 91.4124 164.248C91.9884 164.547 92.415 164.952 92.6924 165.464C92.9697 165.965 93.1084 166.525 93.1084 167.144C93.1084 167.837 92.9217 168.467 92.5484 169.032C92.1857 169.597 91.615 170.003 90.8364 170.248L93.2204 175H91.2524L89.0764 170.488H87.0764V175H85.3804ZM87.0764 169.208H89.1404C89.9084 169.208 90.4684 169.021 90.8204 168.648C91.183 168.275 91.3644 167.789 91.3644 167.192C91.3644 166.595 91.1884 166.12 90.8364 165.768C90.4844 165.405 89.9137 165.224 89.1244 165.224H87.0764V169.208ZM97.6587 175.192C96.6987 175.192 95.9414 174.893 95.3867 174.296C94.8427 173.699 94.5707 172.808 94.5707 171.624V167.064H96.2667V171.448C96.2667 172.984 96.8961 173.752 98.1547 173.752C98.7841 173.752 99.3014 173.528 99.7067 173.08C100.112 172.632 100.315 171.992 100.315 171.16V167.064H102.011V175H100.507L100.379 173.608C100.133 174.099 99.7707 174.488 99.2907 174.776C98.8214 175.053 98.2774 175.192 97.6587 175.192ZM107.016 175.192C106.014 175.192 105.187 174.947 104.536 174.456C103.886 173.965 103.512 173.315 103.416 172.504H105.128C105.214 172.867 105.416 173.181 105.736 173.448C106.056 173.704 106.478 173.832 107 173.832C107.512 173.832 107.886 173.725 108.12 173.512C108.355 173.299 108.472 173.053 108.472 172.776C108.472 172.371 108.307 172.099 107.976 171.96C107.656 171.811 107.208 171.677 106.632 171.56C106.184 171.464 105.736 171.336 105.288 171.176C104.851 171.016 104.483 170.792 104.184 170.504C103.896 170.205 103.752 169.805 103.752 169.304C103.752 168.611 104.019 168.035 104.552 167.576C105.086 167.107 105.832 166.872 106.792 166.872C107.678 166.872 108.392 167.085 108.936 167.512C109.491 167.939 109.816 168.541 109.912 169.32H108.28C108.227 168.979 108.067 168.712 107.8 168.52C107.544 168.328 107.198 168.232 106.76 168.232C106.334 168.232 106.003 168.323 105.768 168.504C105.534 168.675 105.416 168.899 105.416 169.176C105.416 169.453 105.576 169.672 105.896 169.832C106.227 169.992 106.659 170.136 107.192 170.264C107.726 170.381 108.216 170.52 108.664 170.68C109.123 170.829 109.491 171.053 109.768 171.352C110.046 171.651 110.184 172.088 110.184 172.664C110.195 173.389 109.912 173.992 109.336 174.472C108.771 174.952 107.998 175.192 107.016 175.192ZM114.884 175.192C113.881 175.192 113.054 174.947 112.404 174.456C111.753 173.965 111.38 173.315 111.284 172.504H112.996C113.081 172.867 113.284 173.181 113.604 173.448C113.924 173.704 114.345 173.832 114.868 173.832C115.38 173.832 115.753 173.725 115.988 173.512C116.222 173.299 116.34 173.053 116.34 172.776C116.34 172.371 116.174 172.099 115.844 171.96C115.524 171.811 115.076 171.677 114.5 171.56C114.052 171.464 113.604 171.336 113.156 171.176C112.718 171.016 112.35 170.792 112.052 170.504C111.764 170.205 111.62 169.805 111.62 169.304C111.62 168.611 111.886 168.035 112.42 167.576C112.953 167.107 113.7 166.872 114.66 166.872C115.545 166.872 116.26 167.085 116.804 167.512C117.358 167.939 117.684 168.541 117.78 169.32H116.148C116.094 168.979 115.934 168.712 115.668 168.52C115.412 168.328 115.065 168.232 114.628 168.232C114.201 168.232 113.87 168.323 113.636 168.504C113.401 168.675 113.284 168.899 113.284 169.176C113.284 169.453 113.444 169.672 113.764 169.832C114.094 169.992 114.526 170.136 115.06 170.264C115.593 170.381 116.084 170.52 116.532 170.68C116.99 170.829 117.358 171.053 117.636 171.352C117.913 171.651 118.052 172.088 118.052 172.664C118.062 173.389 117.78 173.992 117.204 174.472C116.638 174.952 115.865 175.192 114.884 175.192ZM123.295 175.192C122.517 175.192 121.823 175.021 121.215 174.68C120.618 174.328 120.149 173.843 119.807 173.224C119.466 172.605 119.295 171.885 119.295 171.064C119.295 170.232 119.461 169.501 119.791 168.872C120.133 168.243 120.602 167.752 121.199 167.4C121.807 167.048 122.511 166.872 123.311 166.872C124.09 166.872 124.767 167.048 125.343 167.4C125.919 167.741 126.367 168.2 126.687 168.776C127.007 169.352 127.167 169.987 127.167 170.68C127.167 170.787 127.162 170.904 127.151 171.032C127.151 171.149 127.146 171.283 127.135 171.432H120.959C121.013 172.2 121.263 172.787 121.711 173.192C122.17 173.587 122.698 173.784 123.295 173.784C123.775 173.784 124.175 173.677 124.495 173.464C124.826 173.24 125.071 172.941 125.231 172.568H126.927C126.714 173.315 126.287 173.939 125.647 174.44C125.018 174.941 124.234 175.192 123.295 175.192ZM123.295 168.264C122.73 168.264 122.229 168.435 121.791 168.776C121.354 169.107 121.087 169.608 120.991 170.28H125.471C125.439 169.661 125.221 169.171 124.815 168.808C124.41 168.445 123.903 168.264 123.295 168.264ZM128.607 175V163.48H130.303V175H128.607ZM132.131 175V163.48H133.827V175H132.131Z" fill="black"/>
<path d="M34.832 235.192C34.0107 235.192 33.2907 235.048 32.672 234.76C32.0533 234.472 31.568 234.061 31.216 233.528C30.8747 232.995 30.6987 232.36 30.688 231.624H32.48C32.4907 232.221 32.6987 232.728 33.104 233.144C33.5093 233.56 34.08 233.768 34.816 233.768C35.4667 233.768 35.9733 233.613 36.336 233.304C36.7093 232.984 36.896 232.579 36.896 232.088C36.896 231.693 36.8053 231.373 36.624 231.128C36.4533 230.883 36.2133 230.68 35.904 230.52C35.6053 230.36 35.2587 230.216 34.864 230.088C34.4693 229.96 34.0533 229.821 33.616 229.672C32.752 229.384 32.1013 229.011 31.664 228.552C31.2373 228.093 31.024 227.491 31.024 226.744C31.0133 226.115 31.1573 225.565 31.456 225.096C31.7653 224.627 32.192 224.264 32.736 224.008C33.2907 223.741 33.936 223.608 34.672 223.608C35.3973 223.608 36.032 223.741 36.576 224.008C37.1307 224.275 37.5627 224.648 37.872 225.128C38.1813 225.597 38.3413 226.147 38.352 226.776H36.56C36.56 226.488 36.4853 226.216 36.336 225.96C36.1867 225.693 35.968 225.475 35.68 225.304C35.392 225.133 35.04 225.048 34.624 225.048C34.0907 225.037 33.648 225.171 33.296 225.448C32.9547 225.725 32.784 226.109 32.784 226.6C32.784 227.037 32.912 227.373 33.168 227.608C33.424 227.843 33.776 228.04 34.224 228.2C34.672 228.349 35.184 228.525 35.76 228.728C36.3147 228.909 36.8107 229.128 37.248 229.384C37.6853 229.64 38.032 229.976 38.288 230.392C38.5547 230.808 38.688 231.336 38.688 231.976C38.688 232.541 38.544 233.069 38.256 233.56C37.968 234.04 37.536 234.435 36.96 234.744C36.384 235.043 35.6747 235.192 34.832 235.192ZM41.1183 225.56C40.7983 225.56 40.5316 225.464 40.3183 225.272C40.1156 225.069 40.0143 224.819 40.0143 224.52C40.0143 224.221 40.1156 223.976 40.3183 223.784C40.5316 223.581 40.7983 223.48 41.1183 223.48C41.4383 223.48 41.6996 223.581 41.9023 223.784C42.1156 223.976 42.2223 224.221 42.2223 224.52C42.2223 224.819 42.1156 225.069 41.9023 225.272C41.6996 225.464 41.4383 225.56 41.1183 225.56ZM40.2703 235V227.064H41.9663V235H40.2703ZM43.8851 235V227.064H45.4051L45.5491 228.568C45.8265 228.045 46.2105 227.635 46.7011 227.336C47.2025 227.027 47.8051 226.872 48.5091 226.872V228.648H48.0451C47.5758 228.648 47.1545 228.728 46.7811 228.888C46.4185 229.037 46.1251 229.299 45.9011 229.672C45.6878 230.035 45.5811 230.541 45.5811 231.192V235H43.8851ZM52.3313 235.192C51.6593 235.192 51.1046 235.08 50.6673 234.856C50.2299 234.632 49.9046 234.339 49.6913 233.976C49.4779 233.603 49.3713 233.197 49.3713 232.76C49.3713 231.992 49.6699 231.384 50.2673 230.936C50.8646 230.488 51.7179 230.264 52.8273 230.264H54.9073V230.12C54.9073 229.501 54.7366 229.037 54.3953 228.728C54.0646 228.419 53.6326 228.264 53.0993 228.264C52.6299 228.264 52.2193 228.381 51.8673 228.616C51.5259 228.84 51.3179 229.176 51.2433 229.624H49.5473C49.6006 229.048 49.7926 228.557 50.1233 228.152C50.4646 227.736 50.8913 227.421 51.4033 227.208C51.9259 226.984 52.4966 226.872 53.1153 226.872C54.2246 226.872 55.0833 227.165 55.6913 227.752C56.2993 228.328 56.6033 229.117 56.6033 230.12V235H55.1313L54.9873 233.64C54.7633 234.077 54.4379 234.445 54.0113 234.744C53.5846 235.043 53.0246 235.192 52.3313 235.192ZM52.6673 233.816C53.1259 233.816 53.5099 233.709 53.8193 233.496C54.1393 233.272 54.3846 232.979 54.5553 232.616C54.7366 232.253 54.8486 231.853 54.8913 231.416H53.0033C52.3313 231.416 51.8513 231.533 51.5633 231.768C51.2859 232.003 51.1473 232.296 51.1473 232.648C51.1473 233.011 51.2806 233.299 51.5473 233.512C51.8246 233.715 52.1979 233.816 52.6673 233.816ZM58.2607 235V227.064H59.7647L59.8927 228.456C60.1381 227.965 60.4954 227.581 60.9647 227.304C61.4447 227.016 61.9941 226.872 62.6127 226.872C63.5727 226.872 64.3247 227.171 64.8687 227.768C65.4234 228.365 65.7007 229.256 65.7007 230.44V235H64.0207V230.616C64.0207 229.08 63.3914 228.312 62.1327 228.312C61.5034 228.312 60.9807 228.536 60.5647 228.984C60.1594 229.432 59.9567 230.072 59.9567 230.904V235H58.2607ZM71.1535 235V223.8H72.8495L78.4655 232.232V223.8H80.1615V235H78.4655L72.8495 226.568V235H71.1535ZM83.0107 225.56C82.6907 225.56 82.4241 225.464 82.2107 225.272C82.0081 225.069 81.9067 224.819 81.9067 224.52C81.9067 224.221 82.0081 223.976 82.2107 223.784C82.4241 223.581 82.6907 223.48 83.0107 223.48C83.3307 223.48 83.5921 223.581 83.7947 223.784C84.0081 223.976 84.1147 224.221 84.1147 224.52C84.1147 224.819 84.0081 225.069 83.7947 225.272C83.5921 225.464 83.3307 225.56 83.0107 225.56ZM82.1627 235V227.064H83.8587V235H82.1627ZM89.0256 232.568C88.6096 232.568 88.2256 232.52 87.8736 232.424L87.1856 233.096C87.303 233.171 87.447 233.235 87.6176 233.288C87.7883 233.341 88.0283 233.389 88.3376 233.432C88.647 233.475 89.0683 233.517 89.6016 233.56C90.6576 233.656 91.4203 233.912 91.8896 234.328C92.359 234.733 92.5936 235.277 92.5936 235.96C92.5936 236.429 92.4656 236.872 92.2096 237.288C91.9643 237.715 91.575 238.056 91.0416 238.312C90.519 238.579 89.847 238.712 89.0256 238.712C87.9163 238.712 87.015 238.499 86.3216 238.072C85.639 237.656 85.2976 237.021 85.2976 236.168C85.2976 235.837 85.383 235.507 85.5536 235.176C85.735 234.856 86.0176 234.552 86.4016 234.264C86.1776 234.168 85.9803 234.067 85.8096 233.96C85.6496 233.843 85.5056 233.725 85.3776 233.608V233.224L86.7536 231.816C86.135 231.283 85.8256 230.584 85.8256 229.72C85.8256 229.197 85.9483 228.723 86.1936 228.296C86.4496 227.859 86.8176 227.512 87.2976 227.256C87.7776 227 88.3536 226.872 89.0256 226.872C89.4736 226.872 89.8896 226.936 90.2736 227.064H93.2336V228.184L91.8256 228.264C92.0816 228.701 92.2096 229.187 92.2096 229.72C92.2096 230.253 92.0816 230.733 91.8256 231.16C91.5803 231.587 91.2176 231.928 90.7376 232.184C90.2683 232.44 89.6976 232.568 89.0256 232.568ZM89.0256 231.24C89.5163 231.24 89.911 231.112 90.2096 230.856C90.519 230.589 90.6736 230.216 90.6736 229.736C90.6736 229.245 90.519 228.872 90.2096 228.616C89.911 228.36 89.5163 228.232 89.0256 228.232C88.5243 228.232 88.119 228.36 87.8096 228.616C87.511 228.872 87.3616 229.245 87.3616 229.736C87.3616 230.216 87.511 230.589 87.8096 230.856C88.119 231.112 88.5243 231.24 89.0256 231.24ZM86.8976 236.008C86.8976 236.467 87.1003 236.808 87.5056 237.032C87.911 237.267 88.4176 237.384 89.0256 237.384C89.6123 237.384 90.087 237.256 90.4496 237C90.8123 236.755 90.9936 236.424 90.9936 236.008C90.9936 235.699 90.871 235.432 90.6256 235.208C90.3803 234.995 89.9163 234.861 89.2336 234.808C88.7216 234.776 88.2683 234.728 87.8736 234.664C87.5003 234.867 87.2443 235.085 87.1056 235.32C86.967 235.555 86.8976 235.784 86.8976 236.008ZM97.1144 235.192C96.4424 235.192 95.8877 235.08 95.4504 234.856C95.013 234.632 94.6877 234.339 94.4744 233.976C94.261 233.603 94.1544 233.197 94.1544 232.76C94.1544 231.992 94.453 231.384 95.0504 230.936C95.6477 230.488 96.501 230.264 97.6104 230.264H99.6904V230.12C99.6904 229.501 99.5197 229.037 99.1784 228.728C98.8477 228.419 98.4157 228.264 97.8824 228.264C97.413 228.264 97.0024 228.381 96.6504 228.616C96.309 228.84 96.101 229.176 96.0264 229.624H94.3304C94.3837 229.048 94.5757 228.557 94.9064 228.152C95.2477 227.736 95.6744 227.421 96.1864 227.208C96.709 226.984 97.2797 226.872 97.8984 226.872C99.0077 226.872 99.8664 227.165 100.474 227.752C101.082 228.328 101.386 229.117 101.386 230.12V235H99.9144L99.7704 233.64C99.5464 234.077 99.221 234.445 98.7944 234.744C98.3677 235.043 97.8077 235.192 97.1144 235.192ZM97.4504 233.816C97.909 233.816 98.293 233.709 98.6024 233.496C98.9224 233.272 99.1677 232.979 99.3384 232.616C99.5197 232.253 99.6317 231.853 99.6744 231.416H97.7864C97.1144 231.416 96.6344 231.533 96.3464 231.768C96.069 232.003 95.9304 232.296 95.9304 232.648C95.9304 233.011 96.0637 233.299 96.3304 233.512C96.6077 233.715 96.981 233.816 97.4504 233.816ZM103.044 235V227.064H104.564L104.708 228.568C104.985 228.045 105.369 227.635 105.86 227.336C106.361 227.027 106.964 226.872 107.668 226.872V228.648H107.204C106.735 228.648 106.313 228.728 105.94 228.888C105.577 229.037 105.284 229.299 105.06 229.672C104.847 230.035 104.74 230.541 104.74 231.192V235H103.044ZM109.73 238.52L111.634 234.344H111.17L108.034 227.064H109.874L112.306 232.936L114.85 227.064H116.642L111.522 238.52H109.73ZM119.842 235.192C119.17 235.192 118.615 235.08 118.178 234.856C117.741 234.632 117.415 234.339 117.202 233.976C116.989 233.603 116.882 233.197 116.882 232.76C116.882 231.992 117.181 231.384 117.778 230.936C118.375 230.488 119.229 230.264 120.338 230.264H122.418V230.12C122.418 229.501 122.247 229.037 121.906 228.728C121.575 228.419 121.143 228.264 120.61 228.264C120.141 228.264 119.73 228.381 119.378 228.616C119.037 228.84 118.829 229.176 118.754 229.624H117.058C117.111 229.048 117.303 228.557 117.634 228.152C117.975 227.736 118.402 227.421 118.914 227.208C119.437 226.984 120.007 226.872 120.626 226.872C121.735 226.872 122.594 227.165 123.202 227.752C123.81 228.328 124.114 229.117 124.114 230.12V235H122.642L122.498 233.64C122.274 234.077 121.949 234.445 121.522 234.744C121.095 235.043 120.535 235.192 119.842 235.192ZM120.178 233.816C120.637 233.816 121.021 233.709 121.33 233.496C121.65 233.272 121.895 232.979 122.066 232.616C122.247 232.253 122.359 231.853 122.402 231.416H120.514C119.842 231.416 119.362 231.533 119.074 231.768C118.797 232.003 118.658 232.296 118.658 232.648C118.658 233.011 118.791 233.299 119.058 233.512C119.335 233.715 119.709 233.816 120.178 233.816ZM125.771 235V227.064H127.275L127.403 228.456C127.649 227.965 128.006 227.581 128.475 227.304C128.955 227.016 129.505 226.872 130.123 226.872C131.083 226.872 131.835 227.171 132.379 227.768C132.934 228.365 133.211 229.256 133.211 230.44V235H131.531V230.616C131.531 229.08 130.902 228.312 129.643 228.312C129.014 228.312 128.491 228.536 128.075 228.984C127.67 229.432 127.467 230.072 127.467 230.904V235H125.771Z" fill="black"/>
<path d="M30.416 295L34.544 283.8H36.4L40.496 295H38.704L37.744 292.264H33.168L32.208 295H30.416ZM33.648 290.92H37.264L35.456 285.816L33.648 290.92ZM46.1379 295.192C45.5192 295.192 44.9699 295.069 44.4899 294.824C44.0205 294.579 43.6472 294.232 43.3699 293.784L43.1939 295H41.6739V283.48H43.3699V288.296C43.6259 287.923 43.9779 287.592 44.4259 287.304C44.8739 287.016 45.4499 286.872 46.1539 286.872C46.9219 286.872 47.5992 287.053 48.1859 287.416C48.7725 287.779 49.2312 288.275 49.5619 288.904C49.9032 289.533 50.0739 290.248 50.0739 291.048C50.0739 291.848 49.9032 292.563 49.5619 293.192C49.2312 293.811 48.7725 294.301 48.1859 294.664C47.5992 295.016 46.9165 295.192 46.1379 295.192ZM45.8499 293.72C46.5752 293.72 47.1725 293.475 47.6419 292.984C48.1112 292.483 48.3459 291.832 48.3459 291.032C48.3459 290.509 48.2392 290.045 48.0259 289.64C47.8125 289.235 47.5192 288.92 47.1459 288.696C46.7725 288.461 46.3405 288.344 45.8499 288.344C45.1245 288.344 44.5272 288.595 44.0579 289.096C43.5992 289.597 43.3699 290.243 43.3699 291.032C43.3699 291.832 43.5992 292.483 44.0579 292.984C44.5272 293.475 45.1245 293.72 45.8499 293.72ZM55.2043 295.192C54.4363 295.192 53.7589 295.011 53.1723 294.648C52.5856 294.285 52.1269 293.789 51.7963 293.16C51.4656 292.531 51.3003 291.816 51.3003 291.016C51.3003 290.216 51.4656 289.507 51.7963 288.888C52.1269 288.259 52.5856 287.768 53.1723 287.416C53.7696 287.053 54.4523 286.872 55.2203 286.872C55.8496 286.872 56.3989 286.995 56.8683 287.24C57.3483 287.485 57.7216 287.832 57.9883 288.28V283.48H59.6843V295H58.1643L57.9883 293.768C57.7323 294.141 57.3803 294.472 56.9323 294.76C56.4843 295.048 55.9083 295.192 55.2043 295.192ZM55.5083 293.72C56.2336 293.72 56.8256 293.469 57.2843 292.968C57.7536 292.467 57.9883 291.821 57.9883 291.032C57.9883 290.232 57.7536 289.587 57.2843 289.096C56.8256 288.595 56.2336 288.344 55.5083 288.344C54.7829 288.344 54.1856 288.595 53.7163 289.096C53.2469 289.587 53.0123 290.232 53.0123 291.032C53.0123 291.555 53.1189 292.019 53.3323 292.424C53.5456 292.829 53.8389 293.149 54.2123 293.384C54.5963 293.608 55.0283 293.72 55.5083 293.72ZM64.4306 295.192C63.4706 295.192 62.7133 294.893 62.1586 294.296C61.6146 293.699 61.3426 292.808 61.3426 291.624V287.064H63.0386V291.448C63.0386 292.984 63.668 293.752 64.9266 293.752C65.556 293.752 66.0733 293.528 66.4786 293.08C66.884 292.632 67.0866 291.992 67.0866 291.16V287.064H68.7826V295H67.2786L67.1506 293.608C66.9053 294.099 66.5426 294.488 66.0626 294.776C65.5933 295.053 65.0493 295.192 64.4306 295.192ZM70.6201 295V283.48H72.3161V295H70.6201ZM81.6151 295.192C80.7938 295.192 80.0738 295.048 79.4551 294.76C78.8365 294.472 78.3511 294.061 77.9991 293.528C77.6578 292.995 77.4818 292.36 77.4711 291.624H79.2631C79.2738 292.221 79.4818 292.728 79.8871 293.144C80.2925 293.56 80.8631 293.768 81.5991 293.768C82.2498 293.768 82.7565 293.613 83.1191 293.304C83.4925 292.984 83.6791 292.579 83.6791 292.088C83.6791 291.693 83.5885 291.373 83.4071 291.128C83.2365 290.883 82.9965 290.68 82.6871 290.52C82.3885 290.36 82.0418 290.216 81.6471 290.088C81.2525 289.96 80.8365 289.821 80.3991 289.672C79.5351 289.384 78.8845 289.011 78.4471 288.552C78.0205 288.093 77.8071 287.491 77.8071 286.744C77.7965 286.115 77.9405 285.565 78.2391 285.096C78.5485 284.627 78.9751 284.264 79.5191 284.008C80.0738 283.741 80.7191 283.608 81.4551 283.608C82.1805 283.608 82.8151 283.741 83.3591 284.008C83.9138 284.275 84.3458 284.648 84.6551 285.128C84.9645 285.597 85.1245 286.147 85.1351 286.776H83.3431C83.3431 286.488 83.2685 286.216 83.1191 285.96C82.9698 285.693 82.7511 285.475 82.4631 285.304C82.1751 285.133 81.8231 285.048 81.4071 285.048C80.8738 285.037 80.4311 285.171 80.0791 285.448C79.7378 285.725 79.5671 286.109 79.5671 286.6C79.5671 287.037 79.6951 287.373 79.9511 287.608C80.2071 287.843 80.5591 288.04 81.0071 288.2C81.4551 288.349 81.9671 288.525 82.5431 288.728C83.0978 288.909 83.5938 289.128 84.0311 289.384C84.4685 289.64 84.8151 289.976 85.0711 290.392C85.3378 290.808 85.4711 291.336 85.4711 291.976C85.4711 292.541 85.3271 293.069 85.0391 293.56C84.7511 294.04 84.3191 294.435 83.7431 294.744C83.1671 295.043 82.4578 295.192 81.6151 295.192ZM89.6294 295.192C88.9574 295.192 88.4027 295.08 87.9654 294.856C87.528 294.632 87.2027 294.339 86.9894 293.976C86.776 293.603 86.6694 293.197 86.6694 292.76C86.6694 291.992 86.968 291.384 87.5654 290.936C88.1627 290.488 89.016 290.264 90.1254 290.264H92.2054V290.12C92.2054 289.501 92.0347 289.037 91.6934 288.728C91.3627 288.419 90.9307 288.264 90.3974 288.264C89.928 288.264 89.5174 288.381 89.1654 288.616C88.824 288.84 88.616 289.176 88.5414 289.624H86.8454C86.8987 289.048 87.0907 288.557 87.4214 288.152C87.7627 287.736 88.1894 287.421 88.7014 287.208C89.224 286.984 89.7947 286.872 90.4134 286.872C91.5227 286.872 92.3814 287.165 92.9894 287.752C93.5974 288.328 93.9014 289.117 93.9014 290.12V295H92.4294L92.2854 293.64C92.0614 294.077 91.736 294.445 91.3094 294.744C90.8827 295.043 90.3227 295.192 89.6294 295.192ZM89.9654 293.816C90.424 293.816 90.808 293.709 91.1174 293.496C91.4374 293.272 91.6827 292.979 91.8534 292.616C92.0347 292.253 92.1467 291.853 92.1894 291.416H90.3014C89.6294 291.416 89.1494 291.533 88.8614 291.768C88.584 292.003 88.4454 292.296 88.4454 292.648C88.4454 293.011 88.5787 293.299 88.8454 293.512C89.1227 293.715 89.496 293.816 89.9654 293.816ZM96.2369 298.52L98.1409 294.344H97.6769L94.5409 287.064H96.3809L98.8129 292.936L101.357 287.064H103.149L98.0289 298.52H96.2369ZM107.217 295.192C106.438 295.192 105.745 295.021 105.137 294.68C104.539 294.328 104.07 293.843 103.729 293.224C103.387 292.605 103.217 291.885 103.217 291.064C103.217 290.232 103.382 289.501 103.713 288.872C104.054 288.243 104.523 287.752 105.121 287.4C105.729 287.048 106.433 286.872 107.233 286.872C108.011 286.872 108.689 287.048 109.265 287.4C109.841 287.741 110.289 288.2 110.609 288.776C110.929 289.352 111.089 289.987 111.089 290.68C111.089 290.787 111.083 290.904 111.073 291.032C111.073 291.149 111.067 291.283 111.057 291.432H104.881C104.934 292.2 105.185 292.787 105.633 293.192C106.091 293.587 106.619 293.784 107.217 293.784C107.697 293.784 108.097 293.677 108.417 293.464C108.747 293.24 108.993 292.941 109.153 292.568H110.849C110.635 293.315 110.209 293.939 109.569 294.44C108.939 294.941 108.155 295.192 107.217 295.192ZM107.217 288.264C106.651 288.264 106.15 288.435 105.713 288.776C105.275 289.107 105.009 289.608 104.913 290.28H109.393C109.361 289.661 109.142 289.171 108.737 288.808C108.331 288.445 107.825 288.264 107.217 288.264ZM116.144 295.192C115.376 295.192 114.699 295.011 114.112 294.648C113.526 294.285 113.067 293.789 112.736 293.16C112.406 292.531 112.24 291.816 112.24 291.016C112.24 290.216 112.406 289.507 112.736 288.888C113.067 288.259 113.526 287.768 114.112 287.416C114.71 287.053 115.392 286.872 116.16 286.872C116.79 286.872 117.339 286.995 117.808 287.24C118.288 287.485 118.662 287.832 118.928 288.28V283.48H120.624V295H119.104L118.928 293.768C118.672 294.141 118.32 294.472 117.872 294.76C117.424 295.048 116.848 295.192 116.144 295.192ZM116.448 293.72C117.174 293.72 117.766 293.469 118.224 292.968C118.694 292.467 118.928 291.821 118.928 291.032C118.928 290.232 118.694 289.587 118.224 289.096C117.766 288.595 117.174 288.344 116.448 288.344C115.723 288.344 115.126 288.595 114.656 289.096C114.187 289.587 113.952 290.232 113.952 291.032C113.952 291.555 114.059 292.019 114.272 292.424C114.486 292.829 114.779 293.149 115.152 293.384C115.536 293.608 115.968 293.72 116.448 293.72Z" fill="black"/>
<path d="M32.4511 29.3707C29.0915 31.4327 27.0506 33.2997 27.7387 38.1154C28.4341 42.9835 29.1351 42.0579 31.4826 46.3762C33.8301 50.6946 30.1838 50.5572 32.4224 58.3399C34.5874 65.8668 41.6046 67.8759 52.7918 64.972C63.979 62.0681 64.8319 52.7817 60.1004 44.7866C56.5518 38.7903 56.9446 38.6379 49.7352 33.2518C40.9462 26.6857 37.2573 26.4208 32.4511 29.3707Z" fill="#EAE0FF"/>
<path d="M39.8322 63.6321C39.1807 62.2532 39.2275 60.163 40.0052 58.8509C40.6353 57.7888 42.1093 58.4598 42.1407 57.2252C42.1688 56.1163 41.2012 55.9773 41.4217 54.8904C41.5146 54.4339 41.9276 53.6385 41.9276 52.9995C41.9276 52.0276 40.9286 51.1546 40.8465 50.1861C40.8211 49.888 41.1478 49.1614 41.1478 48.8626C41.1478 48.0418 39.5596 47.219 39.2215 45.9303C38.9535 44.9082 38.6856 43.3836 39.7032 42.3275C40.3333 41.6737 41.683 41.4044 42.4708 40.9532C43.0674 40.6116 44.0022 40.4198 44.2661 39.7848C44.8875 38.2922 42.7374 36.7749 42.4581 35.182C42.2543 34.0197 42.1708 33.1808 43.2124 31.8386C43.9735 30.8587 45.4375 30.7718 46.6742 30.8681C47.5963 30.9402 48.9594 31.5612 49.0696 31.8266C49.2367 32.2276 49.0817 32.64 47.7487 32.6922C47.315 32.7096 45.7161 32.4856 45.243 33.5758C45.0546 34.011 45.6165 34.6025 45.5611 35.0062C45.4602 35.7368 45.245 35.9447 45.1374 36.7081C44.6049 36.5075 44.0877 35.1867 43.5753 35.4354C42.573 35.922 44.367 38.0569 44.2194 39.1618C44.1232 39.8831 43.4309 40.3804 42.7374 40.6009C42.0438 40.8215 38.707 41.8616 38.0014 42.8729C37.1094 44.1523 36.6584 45.723 36.3082 47.243C35.8004 49.4495 35.6381 52.2421 36.3811 54.3811C36.9089 55.9011 37.0619 56.1652 37.6553 57.6604C37.9419 58.383 38.8052 59.395 39.5562 59.5942C39.7186 59.637 40.4589 57.9158 42.1046 58.7627C42.5376 58.9859 42.9993 59.2713 43.2098 59.7112C43.3908 60.0901 43.5766 60.7352 43.157 60.7419C42.9686 60.7445 42.2416 59.925 42.0665 59.8549C41.1338 59.4785 41.7231 61.417 40.4349 61.417M40.4349 61.417C39.5562 61.417 39.18 60.7044 39.4266 60.302C39.6731 59.8996 41.2935 58.276 41.1972 58.0862C39.5221 54.7802 38.4998 54.0957 38.7517 50.4708C38.7791 50.0738 38.9442 49.3238 39.1874 48.745C39.3417 48.378 39.7025 48.0077 39.7025 48.0077C39.7025 48.0077 40.189 49.785 40.209 50.1025C40.3427 52.2315 40.6106 52.9634 40.5605 55.0956C40.5104 57.2279 40.3961 58.2386 41.9342 59.7158C42.0244 59.8027 42.124 59.897 42.1394 60.0213C42.1728 60.2907 41.8247 60.4224 41.5554 60.4585C40.8692 60.5507 40.1823 60.6436 39.4961 60.7358C39.5976 61.1302 40.038 61.3247 40.4349 61.417ZM40.4349 61.417C42.8897 61.9898 49.2026 61.5513 50.3879 61.0293C51.6862 60.4578 53.6499 59.1229 53.8497 57.7186C54.5593 52.7355 55.3745 48.7182 53.6172 44.0019C52.6337 41.3609 51.4323 41.1136 50.7227 40.9418C50.108 40.7934 49.2948 40.3349 48.7148 40.5862C48.1188 40.8442 48.2952 41.145 47.8041 41.5701C46.8927 42.3589 45.4562 42.4658 44.4385 41.8201C44.0911 41.5996 43.7831 41.2861 43.6675 40.891C43.3855 39.9278 44.3176 38.9399 44.1018 37.96C43.9494 37.2702 43.2853 36.8317 42.8951 36.2428C42.3365 35.3993 42.3819 34.2543 42.8216 33.3432C43.2612 32.4322 43.8579 31.6474 44.8054 31.2932C45.3646 31.084 46.8787 31.0031 47.9371 31.467C49.3777 32.0986 49.7846 33.7911 49.7846 34.7335C49.7846 34.9595 49.252 35.531 49.381 35.7161C49.4779 35.8551 50.0438 36.7515 50.0472 36.8965C50.0545 37.2027 49.6389 37.1278 49.5641 37.4527C49.4064 38.1385 49.7258 38.9947 49.3469 39.5435C49.1812 39.7828 48.5638 39.7768 48.2852 39.7327C47.3584 39.5869 47.2415 39.466 46.6609 39.2534C46.5192 39.9338 46.8005 40.119 47.3972 40.4746C47.7961 40.7126 48.5612 41.8856 49.2554 41.8856C52.4065 41.8856 53.4281 43.9724 53.4622 45.8962C53.4742 46.5933 53.0867 47.9215 53.3212 48.5779C53.5069 49.0966 53.956 49.8305 53.956 50.9488C53.956 52.4587 52.8936 52.5857 52.8936 54.0315C52.8936 55.9131 54.0842 53.5764 53.1862 57.9926C53.1167 58.3335 52.3109 59.5641 52.2581 59.9083C51.8111 59.524 51.1737 58.4184 51.1035 57.5963C51.0474 56.9359 51.7644 57.5106 51.626 55.3436C51.4924 53.2475 50.7741 49.4348 51.2839 47.5913C51.8967 45.3735 51.7704 47.5378 51.7704 47.7357C51.7704 48.8894 50.863 50.1052 50.7401 50.8151C50.5069 52.1599 50.5069 53.6405 50.8403 55.1632C51 55.8931 50.8142 56.7213 50.6772 57.4566C50.4354 58.7566 49.4304 59.0949 48.771 60.2412C48.6761 60.407 48.8117 60.6396 49.1264 60.5193C49.54 60.3602 49.7645 59.5855 50.2523 59.5855C50.5029 59.5855 50.869 60.8555 51.3174 60.5474C53.2571 59.2172 51.475 61.5974 51.3922 61.8735C51.2245 62.431 51.1376 62.8527 51.3922 63.4797" stroke="#1F3758" stroke-width="0.75" stroke-miterlimit="10" stroke-linecap="round"/>
<rect x="221.5" y="32.5" width="28" height="28" rx="14" fill="white" stroke="#D3D7DB"/>
<path d="M235.5 42.125V50.875" stroke="black" stroke-linecap="round" stroke-linejoin="round"/>
<path d="M231.125 46.5H239.875" stroke="black" stroke-linecap="round" stroke-linejoin="round"/>
<rect x="255" y="215" width="90" height="29" rx="14.5" fill="#DEEBFF"/>
<path d="M274.383 234.168C273.422 234.168 272.591 233.958 271.891 233.538C271.201 233.109 270.664 232.516 270.281 231.76C269.899 230.995 269.707 230.108 269.707 229.1C269.707 228.101 269.899 227.224 270.281 226.468C270.664 225.703 271.201 225.105 271.891 224.676C272.591 224.247 273.422 224.032 274.383 224.032C275.503 224.032 276.413 224.303 277.113 224.844C277.823 225.376 278.275 226.123 278.471 227.084H277.169C277.02 226.477 276.712 225.992 276.245 225.628C275.788 225.255 275.167 225.068 274.383 225.068C273.683 225.068 273.072 225.231 272.549 225.558C272.027 225.875 271.621 226.337 271.331 226.944C271.051 227.541 270.911 228.26 270.911 229.1C270.911 229.94 271.051 230.663 271.331 231.27C271.621 231.867 272.027 232.329 272.549 232.656C273.072 232.973 273.683 233.132 274.383 233.132C275.167 233.132 275.788 232.955 276.245 232.6C276.712 232.236 277.02 231.755 277.169 231.158H278.471C278.275 232.101 277.823 232.838 277.113 233.37C276.413 233.902 275.503 234.168 274.383 234.168ZM282.346 234.168C281.524 234.168 280.871 233.921 280.386 233.426C279.9 232.922 279.658 232.152 279.658 231.116V227.056H280.834V230.99C280.834 232.437 281.426 233.16 282.612 233.16C283.218 233.16 283.718 232.945 284.11 232.516C284.511 232.077 284.712 231.457 284.712 230.654V227.056H285.888V234H284.824L284.74 232.754C284.525 233.193 284.203 233.538 283.774 233.79C283.354 234.042 282.878 234.168 282.346 234.168ZM290.203 234.168C289.373 234.168 288.682 233.958 288.131 233.538C287.581 233.118 287.259 232.549 287.165 231.83H288.369C288.444 232.194 288.635 232.511 288.943 232.782C289.261 233.043 289.685 233.174 290.217 233.174C290.712 233.174 291.076 233.071 291.309 232.866C291.543 232.651 291.659 232.399 291.659 232.11C291.659 231.69 291.505 231.41 291.197 231.27C290.899 231.13 290.474 231.004 289.923 230.892C289.55 230.817 289.177 230.71 288.803 230.57C288.43 230.43 288.117 230.234 287.865 229.982C287.613 229.721 287.487 229.38 287.487 228.96C287.487 228.353 287.711 227.859 288.159 227.476C288.617 227.084 289.233 226.888 290.007 226.888C290.745 226.888 291.347 227.075 291.813 227.448C292.289 227.812 292.565 228.335 292.639 229.016H291.477C291.431 228.661 291.277 228.386 291.015 228.19C290.763 227.985 290.423 227.882 289.993 227.882C289.573 227.882 289.247 227.971 289.013 228.148C288.789 228.325 288.677 228.559 288.677 228.848C288.677 229.128 288.822 229.347 289.111 229.506C289.41 229.665 289.811 229.8 290.315 229.912C290.745 230.005 291.151 230.122 291.533 230.262C291.925 230.393 292.243 230.593 292.485 230.864C292.737 231.125 292.863 231.508 292.863 232.012C292.873 232.637 292.635 233.155 292.149 233.566C291.673 233.967 291.025 234.168 290.203 234.168ZM296.693 234C296.058 234 295.559 233.846 295.195 233.538C294.831 233.23 294.649 232.675 294.649 231.872V228.05H293.445V227.056H294.649L294.803 225.39H295.825V227.056H297.869V228.05H295.825V231.872C295.825 232.311 295.913 232.609 296.091 232.768C296.268 232.917 296.581 232.992 297.029 232.992H297.757V234H296.693ZM302.055 234.168C301.402 234.168 300.814 234.019 300.291 233.72C299.769 233.421 299.353 233.001 299.045 232.46C298.747 231.909 298.597 231.265 298.597 230.528C298.597 229.791 298.751 229.151 299.059 228.61C299.367 228.059 299.783 227.635 300.305 227.336C300.837 227.037 301.43 226.888 302.083 226.888C302.737 226.888 303.325 227.037 303.847 227.336C304.37 227.635 304.781 228.059 305.079 228.61C305.387 229.151 305.541 229.791 305.541 230.528C305.541 231.265 305.387 231.909 305.079 232.46C304.771 233.001 304.351 233.421 303.819 233.72C303.297 234.019 302.709 234.168 302.055 234.168ZM302.055 233.16C302.457 233.16 302.83 233.062 303.175 232.866C303.521 232.67 303.801 232.376 304.015 231.984C304.23 231.592 304.337 231.107 304.337 230.528C304.337 229.949 304.23 229.464 304.015 229.072C303.81 228.68 303.535 228.386 303.189 228.19C302.844 227.994 302.475 227.896 302.083 227.896C301.682 227.896 301.309 227.994 300.963 228.19C300.618 228.386 300.338 228.68 300.123 229.072C299.909 229.464 299.801 229.949 299.801 230.528C299.801 231.107 299.909 231.592 300.123 231.984C300.338 232.376 300.613 232.67 300.949 232.866C301.295 233.062 301.663 233.16 302.055 233.16ZM306.897 234V227.056H307.961L308.045 228.064C308.269 227.691 308.567 227.401 308.941 227.196C309.314 226.991 309.734 226.888 310.201 226.888C310.751 226.888 311.223 227 311.615 227.224C312.016 227.448 312.324 227.789 312.539 228.246C312.781 227.826 313.113 227.495 313.533 227.252C313.962 227.009 314.424 226.888 314.919 226.888C315.749 226.888 316.412 227.14 316.907 227.644C317.401 228.139 317.649 228.904 317.649 229.94V234H316.487V230.066C316.487 229.347 316.342 228.806 316.053 228.442C315.763 228.078 315.348 227.896 314.807 227.896C314.247 227.896 313.78 228.115 313.407 228.554C313.043 228.983 312.861 229.599 312.861 230.402V234H311.685V230.066C311.685 229.347 311.54 228.806 311.251 228.442C310.961 228.078 310.546 227.896 310.005 227.896C309.454 227.896 308.992 228.115 308.619 228.554C308.255 228.983 308.073 229.599 308.073 230.402V234H306.897ZM322.262 234.168C321.599 234.168 321.011 234.019 320.498 233.72C319.985 233.412 319.579 232.987 319.28 232.446C318.991 231.905 318.846 231.265 318.846 230.528C318.846 229.8 318.991 229.165 319.28 228.624C319.569 228.073 319.971 227.649 320.484 227.35C321.007 227.042 321.609 226.888 322.29 226.888C322.962 226.888 323.541 227.042 324.026 227.35C324.521 227.649 324.899 228.045 325.16 228.54C325.421 229.035 325.552 229.567 325.552 230.136C325.552 230.239 325.547 230.341 325.538 230.444C325.538 230.547 325.538 230.663 325.538 230.794H320.008C320.036 231.326 320.157 231.769 320.372 232.124C320.596 232.469 320.871 232.731 321.198 232.908C321.534 233.085 321.889 233.174 322.262 233.174C322.747 233.174 323.153 233.062 323.48 232.838C323.807 232.614 324.045 232.311 324.194 231.928H325.356C325.169 232.572 324.81 233.109 324.278 233.538C323.755 233.958 323.083 234.168 322.262 234.168ZM322.262 227.882C321.702 227.882 321.203 228.055 320.764 228.4C320.335 228.736 320.087 229.231 320.022 229.884H324.39C324.362 229.259 324.147 228.769 323.746 228.414C323.345 228.059 322.85 227.882 322.262 227.882ZM326.831 234V227.056H327.895L327.993 228.386C328.207 227.929 328.534 227.565 328.973 227.294C329.411 227.023 329.953 226.888 330.597 226.888V228.12H330.275C329.864 228.12 329.486 228.195 329.141 228.344C328.795 228.484 328.52 228.727 328.315 229.072C328.109 229.417 328.007 229.893 328.007 230.5V234H326.831Z" fill="#3862A0"/>
<defs>
<filter id="filter0_d_152_4034" x="-2" y="0" width="379" height="334" filterUnits="userSpaceOnUse" color-interpolation-filters="sRGB">
<feFlood flood-opacity="0" result="BackgroundImageFix"/>
<feColorMatrix in="SourceAlpha" type="matrix" values="0 0 0 0 0 0 0 0 0 0 0 0 0 0 0 0 0 0 127 0" result="hardAlpha"/>
<feOffset/>
<feGaussianBlur stdDeviation="7"/>
<feComposite in2="hardAlpha" operator="out"/>
<feColorMatrix type="matrix" values="0 0 0 0 0.27106 0 0 0 0 0.291722 0 0 0 0 0.320993 0 0 0 0.12 0"/>
<feBlend mode="normal" in2="BackgroundImageFix" result="effect1_dropShadow_152_4034"/>
<feBlend mode="normal" in="SourceGraphic" in2="effect1_dropShadow_152_4034" result="shape"/>
</filter>
</defs>
</svg>
