<svg width="351" height="44" viewBox="0 0 351 44" fill="none" xmlns="http://www.w3.org/2000/svg">
<rect width="351" height="44" rx="14" fill="#E21C14"/>
<path d="M119.26 27V16.5H122.665C123.895 16.5 124.905 16.715 125.695 17.145C126.495 17.575 127.085 18.185 127.465 18.975C127.855 19.755 128.05 20.685 128.05 21.765C128.05 22.835 127.855 23.765 127.465 24.555C127.085 25.335 126.495 25.94 125.695 26.37C124.905 26.79 123.895 27 122.665 27H119.26ZM120.85 25.65H122.605C123.555 25.65 124.305 25.495 124.855 25.185C125.415 24.875 125.815 24.43 126.055 23.85C126.305 23.27 126.43 22.575 126.43 21.765C126.43 20.955 126.305 20.255 126.055 19.665C125.815 19.075 125.415 18.625 124.855 18.315C124.305 17.995 123.555 17.835 122.605 17.835H120.85V25.65ZM132.927 27.18C132.197 27.18 131.547 27.02 130.977 26.7C130.417 26.37 129.977 25.915 129.657 25.335C129.337 24.755 129.177 24.08 129.177 23.31C129.177 22.53 129.332 21.845 129.642 21.255C129.962 20.665 130.402 20.205 130.962 19.875C131.532 19.545 132.192 19.38 132.942 19.38C133.672 19.38 134.307 19.545 134.847 19.875C135.387 20.195 135.807 20.625 136.107 21.165C136.407 21.705 136.557 22.3 136.557 22.95C136.557 23.05 136.552 23.16 136.542 23.28C136.542 23.39 136.537 23.515 136.527 23.655H130.737C130.787 24.375 131.022 24.925 131.442 25.305C131.872 25.675 132.367 25.86 132.927 25.86C133.377 25.86 133.752 25.76 134.052 25.56C134.362 25.35 134.592 25.07 134.742 24.72H136.332C136.132 25.42 135.732 26.005 135.132 26.475C134.542 26.945 133.807 27.18 132.927 27.18ZM132.927 20.685C132.397 20.685 131.927 20.845 131.517 21.165C131.107 21.475 130.857 21.945 130.767 22.575H134.967C134.937 21.995 134.732 21.535 134.352 21.195C133.972 20.855 133.497 20.685 132.927 20.685ZM137.907 27V16.2H139.497V27H137.907ZM144.69 27.18C143.96 27.18 143.31 27.02 142.74 26.7C142.18 26.37 141.74 25.915 141.42 25.335C141.1 24.755 140.94 24.08 140.94 23.31C140.94 22.53 141.095 21.845 141.405 21.255C141.725 20.665 142.165 20.205 142.725 19.875C143.295 19.545 143.955 19.38 144.705 19.38C145.435 19.38 146.07 19.545 146.61 19.875C147.15 20.195 147.57 20.625 147.87 21.165C148.17 21.705 148.32 22.3 148.32 22.95C148.32 23.05 148.315 23.16 148.305 23.28C148.305 23.39 148.3 23.515 148.29 23.655H142.5C142.55 24.375 142.785 24.925 143.205 25.305C143.635 25.675 144.13 25.86 144.69 25.86C145.14 25.86 145.515 25.76 145.815 25.56C146.125 25.35 146.355 25.07 146.505 24.72H148.095C147.895 25.42 147.495 26.005 146.895 26.475C146.305 26.945 145.57 27.18 144.69 27.18ZM144.69 20.685C144.16 20.685 143.69 20.845 143.28 21.165C142.87 21.475 142.62 21.945 142.53 22.575H146.73C146.7 21.995 146.495 21.535 146.115 21.195C145.735 20.855 145.26 20.685 144.69 20.685ZM152.6 27C151.87 27 151.29 26.825 150.86 26.475C150.43 26.115 150.215 25.48 150.215 24.57V20.895H148.94V19.56H150.215L150.41 17.67H151.805V19.56H153.905V20.895H151.805V24.57C151.805 24.98 151.89 25.265 152.06 25.425C152.24 25.575 152.545 25.65 152.975 25.65H153.83V27H152.6ZM158.534 27.18C157.804 27.18 157.154 27.02 156.584 26.7C156.024 26.37 155.584 25.915 155.264 25.335C154.944 24.755 154.784 24.08 154.784 23.31C154.784 22.53 154.939 21.845 155.249 21.255C155.569 20.665 156.009 20.205 156.569 19.875C157.139 19.545 157.799 19.38 158.549 19.38C159.279 19.38 159.914 19.545 160.454 19.875C160.994 20.195 161.414 20.625 161.714 21.165C162.014 21.705 162.164 22.3 162.164 22.95C162.164 23.05 162.159 23.16 162.149 23.28C162.149 23.39 162.144 23.515 162.134 23.655H156.344C156.394 24.375 156.629 24.925 157.049 25.305C157.479 25.675 157.974 25.86 158.534 25.86C158.984 25.86 159.359 25.76 159.659 25.56C159.969 25.35 160.199 25.07 160.349 24.72H161.939C161.739 25.42 161.339 26.005 160.739 26.475C160.149 26.945 159.414 27.18 158.534 27.18ZM158.534 20.685C158.004 20.685 157.534 20.845 157.124 21.165C156.714 21.475 156.464 21.945 156.374 22.575H160.574C160.544 21.995 160.339 21.535 159.959 21.195C159.579 20.855 159.104 20.685 158.534 20.685ZM170.518 27.18C169.788 27.18 169.133 27.015 168.553 26.685C167.983 26.355 167.533 25.9 167.203 25.32C166.883 24.73 166.723 24.05 166.723 23.28C166.723 22.51 166.883 21.835 167.203 21.255C167.533 20.665 167.983 20.205 168.553 19.875C169.133 19.545 169.788 19.38 170.518 19.38C171.438 19.38 172.208 19.62 172.828 20.1C173.458 20.58 173.863 21.23 174.043 22.05H172.378C172.278 21.64 172.058 21.32 171.718 21.09C171.378 20.86 170.978 20.745 170.518 20.745C170.128 20.745 169.768 20.845 169.438 21.045C169.108 21.235 168.843 21.52 168.643 21.9C168.443 22.27 168.343 22.73 168.343 23.28C168.343 23.83 168.443 24.295 168.643 24.675C168.843 25.045 169.108 25.33 169.438 25.53C169.768 25.73 170.128 25.83 170.518 25.83C170.978 25.83 171.378 25.715 171.718 25.485C172.058 25.255 172.278 24.93 172.378 24.51H174.043C173.873 25.31 173.473 25.955 172.843 26.445C172.213 26.935 171.438 27.18 170.518 27.18ZM177.987 27.18C177.357 27.18 176.837 27.075 176.427 26.865C176.017 26.655 175.712 26.38 175.512 26.04C175.312 25.69 175.212 25.31 175.212 24.9C175.212 24.18 175.492 23.61 176.052 23.19C176.612 22.77 177.412 22.56 178.452 22.56H180.402V22.425C180.402 21.845 180.242 21.41 179.922 21.12C179.612 20.83 179.207 20.685 178.707 20.685C178.267 20.685 177.882 20.795 177.552 21.015C177.232 21.225 177.037 21.54 176.967 21.96H175.377C175.427 21.42 175.607 20.96 175.917 20.58C176.237 20.19 176.637 19.895 177.117 19.695C177.607 19.485 178.142 19.38 178.722 19.38C179.762 19.38 180.567 19.655 181.137 20.205C181.707 20.745 181.992 21.485 181.992 22.425V27H180.612L180.477 25.725C180.267 26.135 179.962 26.48 179.562 26.76C179.162 27.04 178.637 27.18 177.987 27.18ZM178.302 25.89C178.732 25.89 179.092 25.79 179.382 25.59C179.682 25.38 179.912 25.105 180.072 24.765C180.242 24.425 180.347 24.05 180.387 23.64H178.617C177.987 23.64 177.537 23.75 177.267 23.97C177.007 24.19 176.877 24.465 176.877 24.795C176.877 25.135 177.002 25.405 177.252 25.605C177.512 25.795 177.862 25.89 178.302 25.89ZM183.546 27V19.56H184.956L185.091 20.61C185.331 20.23 185.646 19.93 186.036 19.71C186.436 19.49 186.896 19.38 187.416 19.38C188.596 19.38 189.416 19.845 189.876 20.775C190.146 20.345 190.506 20.005 190.956 19.755C191.416 19.505 191.911 19.38 192.441 19.38C193.371 19.38 194.101 19.66 194.631 20.22C195.161 20.78 195.426 21.615 195.426 22.725V27H193.836V22.89C193.836 21.45 193.286 20.73 192.186 20.73C191.626 20.73 191.166 20.94 190.806 21.36C190.456 21.78 190.281 22.38 190.281 23.16V27H188.691V22.89C188.691 21.45 188.136 20.73 187.026 20.73C186.476 20.73 186.021 20.94 185.661 21.36C185.311 21.78 185.136 22.38 185.136 23.16V27H183.546ZM196.986 30.3V19.56H198.411L198.576 20.715C198.816 20.365 199.146 20.055 199.566 19.785C199.986 19.515 200.526 19.38 201.186 19.38C201.906 19.38 202.541 19.55 203.091 19.89C203.641 20.23 204.071 20.695 204.381 21.285C204.701 21.875 204.861 22.545 204.861 23.295C204.861 24.045 204.701 24.715 204.381 25.305C204.071 25.885 203.641 26.345 203.091 26.685C202.541 27.015 201.901 27.18 201.171 27.18C200.591 27.18 200.076 27.065 199.626 26.835C199.186 26.605 198.836 26.28 198.576 25.86V30.3H196.986ZM200.901 25.8C201.581 25.8 202.141 25.57 202.581 25.11C203.021 24.64 203.241 24.03 203.241 23.28C203.241 22.79 203.141 22.355 202.941 21.975C202.741 21.595 202.466 21.3 202.116 21.09C201.766 20.87 201.361 20.76 200.901 20.76C200.221 20.76 199.661 20.995 199.221 21.465C198.791 21.935 198.576 22.54 198.576 23.28C198.576 24.03 198.791 24.64 199.221 25.11C199.661 25.57 200.221 25.8 200.901 25.8ZM208.801 27.18C208.171 27.18 207.651 27.075 207.241 26.865C206.831 26.655 206.526 26.38 206.326 26.04C206.126 25.69 206.026 25.31 206.026 24.9C206.026 24.18 206.306 23.61 206.866 23.19C207.426 22.77 208.226 22.56 209.266 22.56H211.216V22.425C211.216 21.845 211.056 21.41 210.736 21.12C210.426 20.83 210.021 20.685 209.521 20.685C209.081 20.685 208.696 20.795 208.366 21.015C208.046 21.225 207.851 21.54 207.781 21.96H206.191C206.241 21.42 206.421 20.96 206.731 20.58C207.051 20.19 207.451 19.895 207.931 19.695C208.421 19.485 208.956 19.38 209.536 19.38C210.576 19.38 211.381 19.655 211.951 20.205C212.521 20.745 212.806 21.485 212.806 22.425V27H211.426L211.291 25.725C211.081 26.135 210.776 26.48 210.376 26.76C209.976 27.04 209.451 27.18 208.801 27.18ZM209.116 25.89C209.546 25.89 209.906 25.79 210.196 25.59C210.496 25.38 210.726 25.105 210.886 24.765C211.056 24.425 211.161 24.05 211.201 23.64H209.431C208.801 23.64 208.351 23.75 208.081 23.97C207.821 24.19 207.691 24.465 207.691 24.795C207.691 25.135 207.816 25.405 208.066 25.605C208.326 25.795 208.676 25.89 209.116 25.89ZM215.26 18.15C214.96 18.15 214.71 18.06 214.51 17.88C214.32 17.69 214.225 17.455 214.225 17.175C214.225 16.895 214.32 16.665 214.51 16.485C214.71 16.295 214.96 16.2 215.26 16.2C215.56 16.2 215.805 16.295 215.995 16.485C216.195 16.665 216.295 16.895 216.295 17.175C216.295 17.455 216.195 17.69 215.995 17.88C215.805 18.06 215.56 18.15 215.26 18.15ZM214.465 27V19.56H216.055V27H214.465ZM220.899 24.72C220.509 24.72 220.149 24.675 219.819 24.585L219.174 25.215C219.284 25.285 219.419 25.345 219.579 25.395C219.739 25.445 219.964 25.49 220.254 25.53C220.544 25.57 220.939 25.61 221.439 25.65C222.429 25.74 223.144 25.98 223.584 26.37C224.024 26.75 224.244 27.26 224.244 27.9C224.244 28.34 224.124 28.755 223.884 29.145C223.654 29.545 223.289 29.865 222.789 30.105C222.299 30.355 221.669 30.48 220.899 30.48C219.859 30.48 219.014 30.28 218.364 29.88C217.724 29.49 217.404 28.895 217.404 28.095C217.404 27.785 217.484 27.475 217.644 27.165C217.814 26.865 218.079 26.58 218.439 26.31C218.229 26.22 218.044 26.125 217.884 26.025C217.734 25.915 217.599 25.805 217.479 25.695V25.335L218.769 24.015C218.189 23.515 217.899 22.86 217.899 22.05C217.899 21.56 218.014 21.115 218.244 20.715C218.484 20.305 218.829 19.98 219.279 19.74C219.729 19.5 220.269 19.38 220.899 19.38C221.319 19.38 221.709 19.44 222.069 19.56H224.844V20.61L223.524 20.685C223.764 21.095 223.884 21.55 223.884 22.05C223.884 22.55 223.764 23 223.524 23.4C223.294 23.8 222.954 24.12 222.504 24.36C222.064 24.6 221.529 24.72 220.899 24.72ZM220.899 23.475C221.359 23.475 221.729 23.355 222.009 23.115C222.299 22.865 222.444 22.515 222.444 22.065C222.444 21.605 222.299 21.255 222.009 21.015C221.729 20.775 221.359 20.655 220.899 20.655C220.429 20.655 220.049 20.775 219.759 21.015C219.479 21.255 219.339 21.605 219.339 22.065C219.339 22.515 219.479 22.865 219.759 23.115C220.049 23.355 220.429 23.475 220.899 23.475ZM218.904 27.945C218.904 28.375 219.094 28.695 219.474 28.905C219.854 29.125 220.329 29.235 220.899 29.235C221.449 29.235 221.894 29.115 222.234 28.875C222.574 28.645 222.744 28.335 222.744 27.945C222.744 27.655 222.629 27.405 222.399 27.195C222.169 26.995 221.734 26.87 221.094 26.82C220.614 26.79 220.189 26.745 219.819 26.685C219.469 26.875 219.229 27.08 219.099 27.3C218.969 27.52 218.904 27.735 218.904 27.945ZM225.962 27V19.56H227.372L227.492 20.865C227.722 20.405 228.057 20.045 228.497 19.785C228.947 19.515 229.462 19.38 230.042 19.38C230.942 19.38 231.647 19.66 232.157 20.22C232.677 20.78 232.937 21.615 232.937 22.725V27H231.362V22.89C231.362 21.45 230.772 20.73 229.592 20.73C229.002 20.73 228.512 20.94 228.122 21.36C227.742 21.78 227.552 22.38 227.552 23.16V27H225.962Z" fill="white"/>
</svg>
