<svg width="375" height="337" viewBox="0 0 375 337" fill="none" xmlns="http://www.w3.org/2000/svg">
<path d="M13.136 20V8.8H14.832V18.656H19.92V20H13.136ZM22.3214 10.56C22.0014 10.56 21.7347 10.464 21.5214 10.272C21.3187 10.0693 21.2174 9.81867 21.2174 9.52C21.2174 9.22133 21.3187 8.976 21.5214 8.784C21.7347 8.58133 22.0014 8.48 22.3214 8.48C22.6414 8.48 22.9027 8.58133 23.1054 8.784C23.3187 8.976 23.4254 9.22133 23.4254 9.52C23.4254 9.81867 23.3187 10.0693 23.1054 10.272C22.9027 10.464 22.6414 10.56 22.3214 10.56ZM21.4734 20V12.064H23.1694V20H21.4734ZM25.0882 20V12.064H26.5922L26.7202 13.456C26.9656 12.9653 27.3229 12.5813 27.7922 12.304C28.2722 12.016 28.8216 11.872 29.4402 11.872C30.4002 11.872 31.1522 12.1707 31.6962 12.768C32.2509 13.3653 32.5282 14.256 32.5282 15.44V20H30.8482V15.616C30.8482 14.08 30.2189 13.312 28.9602 13.312C28.3309 13.312 27.8082 13.536 27.3922 13.984C26.9869 14.432 26.7842 15.072 26.7842 15.904V20H25.0882ZM34.2058 20V8.48H35.9018V15.344L38.9418 12.064H40.9738L37.5978 15.664L41.4698 20H39.3258L35.9018 15.936V20H34.2058ZM45.5665 20.192C44.7878 20.192 44.0945 20.0213 43.4865 19.68C42.8892 19.328 42.4198 18.8427 42.0785 18.224C41.7372 17.6053 41.5665 16.8853 41.5665 16.064C41.5665 15.232 41.7318 14.5013 42.0625 13.872C42.4038 13.2427 42.8732 12.752 43.4705 12.4C44.0785 12.048 44.7825 11.872 45.5825 11.872C46.3612 11.872 47.0385 12.048 47.6145 12.4C48.1905 12.7413 48.6385 13.2 48.9585 13.776C49.2785 14.352 49.4385 14.9867 49.4385 15.68C49.4385 15.7867 49.4332 15.904 49.4225 16.032C49.4225 16.1493 49.4172 16.2827 49.4065 16.432H43.2305C43.2838 17.2 43.5345 17.7867 43.9825 18.192C44.4412 18.5867 44.9692 18.784 45.5665 18.784C46.0465 18.784 46.4465 18.6773 46.7665 18.464C47.0972 18.24 47.3425 17.9413 47.5025 17.568H49.1985C48.9852 18.3147 48.5585 18.9387 47.9185 19.44C47.2892 19.9413 46.5052 20.192 45.5665 20.192ZM45.5665 13.264C45.0012 13.264 44.4998 13.4347 44.0625 13.776C43.6252 14.1067 43.3585 14.608 43.2625 15.28H47.7425C47.7105 14.6613 47.4918 14.1707 47.0865 13.808C46.6812 13.4453 46.1745 13.264 45.5665 13.264ZM54.4943 20.192C53.7263 20.192 53.0489 20.0107 52.4623 19.648C51.8756 19.2853 51.4169 18.7893 51.0863 18.16C50.7556 17.5307 50.5903 16.816 50.5903 16.016C50.5903 15.216 50.7556 14.5067 51.0863 13.888C51.4169 13.2587 51.8756 12.768 52.4623 12.416C53.0596 12.0533 53.7423 11.872 54.5103 11.872C55.1396 11.872 55.6889 11.9947 56.1583 12.24C56.6383 12.4853 57.0116 12.832 57.2783 13.28V8.48H58.9743V20H57.4543L57.2783 18.768C57.0223 19.1413 56.6703 19.472 56.2223 19.76C55.7743 20.048 55.1983 20.192 54.4943 20.192ZM54.7983 18.72C55.5236 18.72 56.1156 18.4693 56.5743 17.968C57.0436 17.4667 57.2783 16.8213 57.2783 16.032C57.2783 15.232 57.0436 14.5867 56.5743 14.096C56.1156 13.5947 55.5236 13.344 54.7983 13.344C54.0729 13.344 53.4756 13.5947 53.0063 14.096C52.5369 14.5867 52.3023 15.232 52.3023 16.032C52.3023 16.5547 52.4089 17.0187 52.6223 17.424C52.8356 17.8293 53.1289 18.1493 53.5023 18.384C53.8863 18.608 54.3183 18.72 54.7983 18.72ZM68.2639 20.192C67.4852 20.192 66.7865 20.016 66.1679 19.664C65.5599 19.312 65.0799 18.8267 64.7279 18.208C64.3865 17.5787 64.2159 16.8533 64.2159 16.032C64.2159 15.2107 64.3865 14.4907 64.7279 13.872C65.0799 13.2427 65.5599 12.752 66.1679 12.4C66.7865 12.048 67.4852 11.872 68.2639 11.872C69.2452 11.872 70.0665 12.128 70.7279 12.64C71.3999 13.152 71.8319 13.8453 72.0239 14.72H70.2479C70.1412 14.2827 69.9065 13.9413 69.5439 13.696C69.1812 13.4507 68.7545 13.328 68.2639 13.328C67.8479 13.328 67.4639 13.4347 67.1119 13.648C66.7599 13.8507 66.4772 14.1547 66.2639 14.56C66.0505 14.9547 65.9439 15.4453 65.9439 16.032C65.9439 16.6187 66.0505 17.1147 66.2639 17.52C66.4772 17.9147 66.7599 18.2187 67.1119 18.432C67.4639 18.6453 67.8479 18.752 68.2639 18.752C68.7545 18.752 69.1812 18.6293 69.5439 18.384C69.9065 18.1387 70.1412 17.792 70.2479 17.344H72.0239C71.8425 18.1973 71.4159 18.8853 70.7439 19.408C70.0719 19.9307 69.2452 20.192 68.2639 20.192ZM76.2312 20.192C75.5592 20.192 75.0046 20.08 74.5672 19.856C74.1299 19.632 73.8046 19.3387 73.5912 18.976C73.3779 18.6027 73.2712 18.1973 73.2712 17.76C73.2712 16.992 73.5699 16.384 74.1672 15.936C74.7646 15.488 75.6179 15.264 76.7272 15.264H78.8072V15.12C78.8072 14.5013 78.6366 14.0373 78.2952 13.728C77.9646 13.4187 77.5326 13.264 76.9992 13.264C76.5299 13.264 76.1192 13.3813 75.7672 13.616C75.4259 13.84 75.2179 14.176 75.1432 14.624H73.4472C73.5006 14.048 73.6926 13.5573 74.0232 13.152C74.3646 12.736 74.7912 12.4213 75.3032 12.208C75.8259 11.984 76.3966 11.872 77.0152 11.872C78.1246 11.872 78.9832 12.1653 79.5912 12.752C80.1992 13.328 80.5032 14.1173 80.5032 15.12V20H79.0312L78.8872 18.64C78.6632 19.0773 78.3379 19.4453 77.9112 19.744C77.4846 20.0427 76.9246 20.192 76.2312 20.192ZM76.5672 18.816C77.0259 18.816 77.4099 18.7093 77.7192 18.496C78.0392 18.272 78.2846 17.9787 78.4552 17.616C78.6366 17.2533 78.7486 16.8533 78.7912 16.416H76.9032C76.2312 16.416 75.7512 16.5333 75.4632 16.768C75.1859 17.0027 75.0472 17.296 75.0472 17.648C75.0472 18.0107 75.1806 18.2987 75.4472 18.512C75.7246 18.7147 76.0979 18.816 76.5672 18.816ZM82.1608 20V12.064H83.6648L83.8088 13.184C84.0648 12.7787 84.4008 12.4587 84.8168 12.224C85.2434 11.9893 85.7341 11.872 86.2888 11.872C87.5474 11.872 88.4221 12.368 88.9128 13.36C89.2008 12.9013 89.5848 12.5387 90.0648 12.272C90.5554 12.0053 91.0834 11.872 91.6488 11.872C92.6408 11.872 93.4194 12.1707 93.9848 12.768C94.5501 13.3653 94.8328 14.256 94.8328 15.44V20H93.1368V15.616C93.1368 14.08 92.5501 13.312 91.3768 13.312C90.7794 13.312 90.2888 13.536 89.9048 13.984C89.5314 14.432 89.3448 15.072 89.3448 15.904V20H87.6488V15.616C87.6488 14.08 87.0568 13.312 85.8728 13.312C85.2861 13.312 84.8008 13.536 84.4168 13.984C84.0434 14.432 83.8568 15.072 83.8568 15.904V20H82.1608ZM96.497 23.52V12.064H98.017L98.193 13.296C98.449 12.9227 98.801 12.592 99.249 12.304C99.697 12.016 100.273 11.872 100.977 11.872C101.745 11.872 102.422 12.0533 103.009 12.416C103.596 12.7787 104.054 13.2747 104.385 13.904C104.726 14.5333 104.897 15.248 104.897 16.048C104.897 16.848 104.726 17.5627 104.385 18.192C104.054 18.8107 103.596 19.3013 103.009 19.664C102.422 20.016 101.74 20.192 100.961 20.192C100.342 20.192 99.793 20.0693 99.313 19.824C98.8437 19.5787 98.4703 19.232 98.193 18.784V23.52H96.497ZM100.673 18.72C101.398 18.72 101.996 18.4747 102.465 17.984C102.934 17.4827 103.169 16.832 103.169 16.032C103.169 15.5093 103.062 15.0453 102.849 14.64C102.636 14.2347 102.342 13.92 101.969 13.696C101.596 13.4613 101.164 13.344 100.673 13.344C99.9477 13.344 99.3503 13.5947 98.881 14.096C98.4223 14.5973 98.193 15.2427 98.193 16.032C98.193 16.832 98.4223 17.4827 98.881 17.984C99.3503 18.4747 99.9477 18.72 100.673 18.72ZM109.099 20.192C108.427 20.192 107.873 20.08 107.435 19.856C106.998 19.632 106.673 19.3387 106.459 18.976C106.246 18.6027 106.139 18.1973 106.139 17.76C106.139 16.992 106.438 16.384 107.035 15.936C107.633 15.488 108.486 15.264 109.595 15.264H111.675V15.12C111.675 14.5013 111.505 14.0373 111.163 13.728C110.833 13.4187 110.401 13.264 109.867 13.264C109.398 13.264 108.987 13.3813 108.635 13.616C108.294 13.84 108.086 14.176 108.011 14.624H106.315C106.369 14.048 106.561 13.5573 106.891 13.152C107.233 12.736 107.659 12.4213 108.171 12.208C108.694 11.984 109.265 11.872 109.883 11.872C110.993 11.872 111.851 12.1653 112.459 12.752C113.067 13.328 113.371 14.1173 113.371 15.12V20H111.899L111.755 18.64C111.531 19.0773 111.206 19.4453 110.779 19.744C110.353 20.0427 109.793 20.192 109.099 20.192ZM109.435 18.816C109.894 18.816 110.278 18.7093 110.587 18.496C110.907 18.272 111.153 17.9787 111.323 17.616C111.505 17.2533 111.617 16.8533 111.659 16.416H109.771C109.099 16.416 108.619 16.5333 108.331 16.768C108.054 17.0027 107.915 17.296 107.915 17.648C107.915 18.0107 108.049 18.2987 108.315 18.512C108.593 18.7147 108.966 18.816 109.435 18.816ZM115.989 10.56C115.669 10.56 115.402 10.464 115.189 10.272C114.986 10.0693 114.885 9.81867 114.885 9.52C114.885 9.22133 114.986 8.976 115.189 8.784C115.402 8.58133 115.669 8.48 115.989 8.48C116.309 8.48 116.57 8.58133 116.773 8.784C116.986 8.976 117.093 9.22133 117.093 9.52C117.093 9.81867 116.986 10.0693 116.773 10.272C116.57 10.464 116.309 10.56 115.989 10.56ZM115.141 20V12.064H116.837V20H115.141ZM122.004 17.568C121.588 17.568 121.204 17.52 120.852 17.424L120.164 18.096C120.281 18.1707 120.425 18.2347 120.596 18.288C120.766 18.3413 121.006 18.3893 121.316 18.432C121.625 18.4747 122.046 18.5173 122.58 18.56C123.636 18.656 124.398 18.912 124.868 19.328C125.337 19.7333 125.572 20.2773 125.572 20.96C125.572 21.4293 125.444 21.872 125.188 22.288C124.942 22.7147 124.553 23.056 124.02 23.312C123.497 23.5787 122.825 23.712 122.004 23.712C120.894 23.712 119.993 23.4987 119.3 23.072C118.617 22.656 118.276 22.0213 118.276 21.168C118.276 20.8373 118.361 20.5067 118.532 20.176C118.713 19.856 118.996 19.552 119.38 19.264C119.156 19.168 118.958 19.0667 118.788 18.96C118.628 18.8427 118.484 18.7253 118.356 18.608V18.224L119.732 16.816C119.113 16.2827 118.804 15.584 118.804 14.72C118.804 14.1973 118.926 13.7227 119.172 13.296C119.428 12.8587 119.796 12.512 120.276 12.256C120.756 12 121.332 11.872 122.004 11.872C122.452 11.872 122.868 11.936 123.252 12.064H126.212V13.184L124.804 13.264C125.06 13.7013 125.188 14.1867 125.188 14.72C125.188 15.2533 125.06 15.7333 124.804 16.16C124.558 16.5867 124.196 16.928 123.716 17.184C123.246 17.44 122.676 17.568 122.004 17.568ZM122.004 16.24C122.494 16.24 122.889 16.112 123.188 15.856C123.497 15.5893 123.652 15.216 123.652 14.736C123.652 14.2453 123.497 13.872 123.188 13.616C122.889 13.36 122.494 13.232 122.004 13.232C121.502 13.232 121.097 13.36 120.788 13.616C120.489 13.872 120.34 14.2453 120.34 14.736C120.34 15.216 120.489 15.5893 120.788 15.856C121.097 16.112 121.502 16.24 122.004 16.24ZM119.876 21.008C119.876 21.4667 120.078 21.808 120.484 22.032C120.889 22.2667 121.396 22.384 122.004 22.384C122.59 22.384 123.065 22.256 123.428 22C123.79 21.7547 123.972 21.424 123.972 21.008C123.972 20.6987 123.849 20.432 123.604 20.208C123.358 19.9947 122.894 19.8613 122.212 19.808C121.7 19.776 121.246 19.728 120.852 19.664C120.478 19.8667 120.222 20.0853 120.084 20.32C119.945 20.5547 119.876 20.784 119.876 21.008ZM127.404 20V12.064H128.908L129.036 13.456C129.282 12.9653 129.639 12.5813 130.108 12.304C130.588 12.016 131.138 11.872 131.756 11.872C132.716 11.872 133.468 12.1707 134.012 12.768C134.567 13.3653 134.844 14.256 134.844 15.44V20H133.164V15.616C133.164 14.08 132.535 13.312 131.276 13.312C130.647 13.312 130.124 13.536 129.708 13.984C129.303 14.432 129.1 15.072 129.1 15.904V20H127.404ZM139.354 22.32C138.757 21.744 138.218 21.0667 137.738 20.288C137.269 19.52 136.89 18.6667 136.602 17.728C136.325 16.7787 136.186 15.76 136.186 14.672C136.186 13.584 136.325 12.5707 136.602 11.632C136.89 10.6827 137.269 9.824 137.738 9.056C138.218 8.27733 138.757 7.6 139.354 7.024H141.05V7.184C140.09 8.176 139.317 9.312 138.73 10.592C138.154 11.872 137.866 13.232 137.866 14.672C137.866 16.112 138.154 17.472 138.73 18.752C139.317 20.032 140.095 21.168 141.066 22.16V22.32H139.354ZM145.229 20.192C144.227 20.192 143.4 19.9467 142.749 19.456C142.099 18.9653 141.725 18.3147 141.629 17.504H143.341C143.427 17.8667 143.629 18.1813 143.949 18.448C144.269 18.704 144.691 18.832 145.213 18.832C145.725 18.832 146.099 18.7253 146.333 18.512C146.568 18.2987 146.685 18.0533 146.685 17.776C146.685 17.3707 146.52 17.0987 146.189 16.96C145.869 16.8107 145.421 16.6773 144.845 16.56C144.397 16.464 143.949 16.336 143.501 16.176C143.064 16.016 142.696 15.792 142.397 15.504C142.109 15.2053 141.965 14.8053 141.965 14.304C141.965 13.6107 142.232 13.0347 142.765 12.576C143.299 12.1067 144.045 11.872 145.005 11.872C145.891 11.872 146.605 12.0853 147.149 12.512C147.704 12.9387 148.029 13.5413 148.125 14.32H146.493C146.44 13.9787 146.28 13.712 146.013 13.52C145.757 13.328 145.411 13.232 144.973 13.232C144.547 13.232 144.216 13.3227 143.981 13.504C143.747 13.6747 143.629 13.8987 143.629 14.176C143.629 14.4533 143.789 14.672 144.109 14.832C144.44 14.992 144.872 15.136 145.405 15.264C145.939 15.3813 146.429 15.52 146.877 15.68C147.336 15.8293 147.704 16.0533 147.981 16.352C148.259 16.6507 148.397 17.088 148.397 17.664C148.408 18.3893 148.125 18.992 147.549 19.472C146.984 19.952 146.211 20.192 145.229 20.192ZM149.307 22.32V22.16C150.267 21.168 151.041 20.032 151.627 18.752C152.214 17.472 152.507 16.112 152.507 14.672C152.507 13.232 152.214 11.872 151.627 10.592C151.051 9.312 150.283 8.176 149.323 7.184V7.024H151.019C151.606 7.6 152.139 8.27733 152.619 9.056C153.099 9.824 153.478 10.6827 153.755 11.632C154.043 12.5707 154.187 13.584 154.187 14.672C154.187 15.76 154.043 16.7787 153.755 17.728C153.478 18.6667 153.099 19.52 152.619 20.288C152.139 21.0667 151.606 21.744 151.019 22.32H149.307Z" fill="black"/>
<rect y="43" width="375" height="1" fill="#D3D7DB"/>
<rect y="336" width="375" height="1" fill="#D3D7DB"/>
<g filter="url(#filter0_d_801_2706)">
<rect x="12" y="200" width="351" height="116" rx="14" fill="white"/>
<rect x="12.5" y="200.5" width="350" height="115" rx="13.5" stroke="#D3D7DB"/>
</g>
<path d="M332 239L338 233L332 227" stroke="#1F3758" stroke-width="2" stroke-linecap="round" stroke-linejoin="round"/>
<path d="M79 238.192C77.944 238.192 77.0213 237.952 76.232 237.472C75.4427 236.992 74.8293 236.32 74.392 235.456C73.9547 234.592 73.736 233.584 73.736 232.432C73.736 231.291 73.96 230.283 74.408 229.408C74.856 228.533 75.4907 227.851 76.312 227.36C77.144 226.859 78.1253 226.608 79.256 226.608C80.536 226.608 81.6027 226.917 82.456 227.536C83.3093 228.155 83.864 229.008 84.12 230.096H82.2C82.0293 229.499 81.6933 229.029 81.192 228.688C80.6907 228.347 80.0453 228.176 79.256 228.176C78.0827 228.176 77.16 228.555 76.488 229.312C75.816 230.069 75.48 231.115 75.48 232.448C75.48 233.781 75.8107 234.821 76.472 235.568C77.1333 236.315 78.0133 236.688 79.112 236.688C80.2213 236.688 81.0533 236.373 81.608 235.744C82.1733 235.115 82.504 234.277 82.6 233.232H79.56V231.92H84.312V238H82.76L82.616 236.352C82.2427 236.939 81.7733 237.392 81.208 237.712C80.6427 238.032 79.9067 238.192 79 238.192ZM85.9864 238V230.064H87.5064L87.6504 231.568C87.9277 231.045 88.3117 230.635 88.8024 230.336C89.3037 230.027 89.9064 229.872 90.6104 229.872V231.648H90.1464C89.677 231.648 89.2557 231.728 88.8824 231.888C88.5197 232.037 88.2264 232.299 88.0024 232.672C87.789 233.035 87.6824 233.541 87.6824 234.192V238H85.9864ZM95.2378 238.192C94.4591 238.192 93.7658 238.021 93.1578 237.68C92.5604 237.328 92.0911 236.843 91.7498 236.224C91.4084 235.605 91.2378 234.885 91.2378 234.064C91.2378 233.232 91.4031 232.501 91.7338 231.872C92.0751 231.243 92.5444 230.752 93.1418 230.4C93.7498 230.048 94.4538 229.872 95.2538 229.872C96.0324 229.872 96.7098 230.048 97.2858 230.4C97.8618 230.741 98.3098 231.2 98.6298 231.776C98.9498 232.352 99.1098 232.987 99.1098 233.68C99.1098 233.787 99.1044 233.904 99.0938 234.032C99.0938 234.149 99.0884 234.283 99.0778 234.432H92.9018C92.9551 235.2 93.2058 235.787 93.6538 236.192C94.1124 236.587 94.6404 236.784 95.2378 236.784C95.7178 236.784 96.1178 236.677 96.4378 236.464C96.7684 236.24 97.0138 235.941 97.1738 235.568H98.8698C98.6564 236.315 98.2298 236.939 97.5898 237.44C96.9604 237.941 96.1764 238.192 95.2378 238.192ZM95.2378 231.264C94.6724 231.264 94.1711 231.435 93.7338 231.776C93.2964 232.107 93.0298 232.608 92.9338 233.28H97.4138C97.3818 232.661 97.1631 232.171 96.7578 231.808C96.3524 231.445 95.8458 231.264 95.2378 231.264ZM104.262 238.192C103.483 238.192 102.79 238.021 102.182 237.68C101.584 237.328 101.115 236.843 100.774 236.224C100.432 235.605 100.262 234.885 100.262 234.064C100.262 233.232 100.427 232.501 100.758 231.872C101.099 231.243 101.568 230.752 102.166 230.4C102.774 230.048 103.478 229.872 104.278 229.872C105.056 229.872 105.734 230.048 106.31 230.4C106.886 230.741 107.334 231.2 107.654 231.776C107.974 232.352 108.134 232.987 108.134 233.68C108.134 233.787 108.128 233.904 108.118 234.032C108.118 234.149 108.112 234.283 108.102 234.432H101.926C101.979 235.2 102.23 235.787 102.678 236.192C103.136 236.587 103.664 236.784 104.262 236.784C104.742 236.784 105.142 236.677 105.462 236.464C105.792 236.24 106.038 235.941 106.198 235.568H107.894C107.68 236.315 107.254 236.939 106.614 237.44C105.984 237.941 105.2 238.192 104.262 238.192ZM104.262 231.264C103.696 231.264 103.195 231.435 102.758 231.776C102.32 232.107 102.054 232.608 101.958 233.28H106.438C106.406 232.661 106.187 232.171 105.782 231.808C105.376 231.445 104.87 231.264 104.262 231.264ZM112.698 238C111.919 238 111.301 237.813 110.842 237.44C110.383 237.056 110.154 236.379 110.154 235.408V231.488H108.794V230.064H110.154L110.362 228.048H111.85V230.064H114.09V231.488H111.85V235.408C111.85 235.845 111.941 236.149 112.122 236.32C112.314 236.48 112.639 236.56 113.098 236.56H114.01V238H112.698ZM116.479 228.56C116.159 228.56 115.892 228.464 115.679 228.272C115.476 228.069 115.375 227.819 115.375 227.52C115.375 227.221 115.476 226.976 115.679 226.784C115.892 226.581 116.159 226.48 116.479 226.48C116.799 226.48 117.06 226.581 117.263 226.784C117.476 226.976 117.583 227.221 117.583 227.52C117.583 227.819 117.476 228.069 117.263 228.272C117.06 228.464 116.799 228.56 116.479 228.56ZM115.631 238V230.064H117.327V238H115.631ZM119.246 238V230.064H120.75L120.878 231.456C121.123 230.965 121.48 230.581 121.95 230.304C122.43 230.016 122.979 229.872 123.598 229.872C124.558 229.872 125.31 230.171 125.854 230.768C126.408 231.365 126.686 232.256 126.686 233.44V238H125.006V233.616C125.006 232.08 124.376 231.312 123.118 231.312C122.488 231.312 121.966 231.536 121.55 231.984C121.144 232.432 120.942 233.072 120.942 233.904V238H119.246ZM131.611 235.568C131.195 235.568 130.811 235.52 130.459 235.424L129.771 236.096C129.889 236.171 130.033 236.235 130.203 236.288C130.374 236.341 130.614 236.389 130.923 236.432C131.233 236.475 131.654 236.517 132.187 236.56C133.243 236.656 134.006 236.912 134.475 237.328C134.945 237.733 135.179 238.277 135.179 238.96C135.179 239.429 135.051 239.872 134.795 240.288C134.55 240.715 134.161 241.056 133.627 241.312C133.105 241.579 132.433 241.712 131.611 241.712C130.502 241.712 129.601 241.499 128.907 241.072C128.225 240.656 127.883 240.021 127.883 239.168C127.883 238.837 127.969 238.507 128.139 238.176C128.321 237.856 128.603 237.552 128.987 237.264C128.763 237.168 128.566 237.067 128.395 236.96C128.235 236.843 128.091 236.725 127.963 236.608V236.224L129.339 234.816C128.721 234.283 128.411 233.584 128.411 232.72C128.411 232.197 128.534 231.723 128.779 231.296C129.035 230.859 129.403 230.512 129.883 230.256C130.363 230 130.939 229.872 131.611 229.872C132.059 229.872 132.475 229.936 132.859 230.064H135.819V231.184L134.411 231.264C134.667 231.701 134.795 232.187 134.795 232.72C134.795 233.253 134.667 233.733 134.411 234.16C134.166 234.587 133.803 234.928 133.323 235.184C132.854 235.44 132.283 235.568 131.611 235.568ZM131.611 234.24C132.102 234.24 132.497 234.112 132.795 233.856C133.105 233.589 133.259 233.216 133.259 232.736C133.259 232.245 133.105 231.872 132.795 231.616C132.497 231.36 132.102 231.232 131.611 231.232C131.11 231.232 130.705 231.36 130.395 231.616C130.097 231.872 129.947 232.245 129.947 232.736C129.947 233.216 130.097 233.589 130.395 233.856C130.705 234.112 131.11 234.24 131.611 234.24ZM129.483 239.008C129.483 239.467 129.686 239.808 130.091 240.032C130.497 240.267 131.003 240.384 131.611 240.384C132.198 240.384 132.673 240.256 133.035 240C133.398 239.755 133.579 239.424 133.579 239.008C133.579 238.699 133.457 238.432 133.211 238.208C132.966 237.995 132.502 237.861 131.819 237.808C131.307 237.776 130.854 237.728 130.459 237.664C130.086 237.867 129.83 238.085 129.691 238.32C129.553 238.555 129.483 238.784 129.483 239.008ZM144.483 238.192C143.705 238.192 143.006 238.016 142.387 237.664C141.779 237.312 141.299 236.827 140.947 236.208C140.606 235.579 140.435 234.853 140.435 234.032C140.435 233.211 140.606 232.491 140.947 231.872C141.299 231.243 141.779 230.752 142.387 230.4C143.006 230.048 143.705 229.872 144.483 229.872C145.465 229.872 146.286 230.128 146.947 230.64C147.619 231.152 148.051 231.845 148.243 232.72H146.467C146.361 232.283 146.126 231.941 145.763 231.696C145.401 231.451 144.974 231.328 144.483 231.328C144.067 231.328 143.683 231.435 143.331 231.648C142.979 231.851 142.697 232.155 142.483 232.56C142.27 232.955 142.163 233.445 142.163 234.032C142.163 234.619 142.27 235.115 142.483 235.52C142.697 235.915 142.979 236.219 143.331 236.432C143.683 236.645 144.067 236.752 144.483 236.752C144.974 236.752 145.401 236.629 145.763 236.384C146.126 236.139 146.361 235.792 146.467 235.344H148.243C148.062 236.197 147.635 236.885 146.963 237.408C146.291 237.931 145.465 238.192 144.483 238.192ZM152.451 238.192C151.779 238.192 151.224 238.08 150.787 237.856C150.349 237.632 150.024 237.339 149.811 236.976C149.597 236.603 149.491 236.197 149.491 235.76C149.491 234.992 149.789 234.384 150.387 233.936C150.984 233.488 151.837 233.264 152.947 233.264H155.027V233.12C155.027 232.501 154.856 232.037 154.515 231.728C154.184 231.419 153.752 231.264 153.219 231.264C152.749 231.264 152.339 231.381 151.987 231.616C151.645 231.84 151.437 232.176 151.363 232.624H149.667C149.72 232.048 149.912 231.557 150.243 231.152C150.584 230.736 151.011 230.421 151.523 230.208C152.045 229.984 152.616 229.872 153.235 229.872C154.344 229.872 155.203 230.165 155.811 230.752C156.419 231.328 156.723 232.117 156.723 233.12V238H155.251L155.107 236.64C154.883 237.077 154.557 237.445 154.131 237.744C153.704 238.043 153.144 238.192 152.451 238.192ZM152.787 236.816C153.245 236.816 153.629 236.709 153.939 236.496C154.259 236.272 154.504 235.979 154.675 235.616C154.856 235.253 154.968 234.853 155.011 234.416H153.123C152.451 234.416 151.971 234.533 151.683 234.768C151.405 235.003 151.267 235.296 151.267 235.648C151.267 236.011 151.4 236.299 151.667 236.512C151.944 236.715 152.317 236.816 152.787 236.816ZM158.38 238V230.064H159.884L160.028 231.184C160.284 230.779 160.62 230.459 161.036 230.224C161.463 229.989 161.953 229.872 162.508 229.872C163.767 229.872 164.641 230.368 165.132 231.36C165.42 230.901 165.804 230.539 166.284 230.272C166.775 230.005 167.303 229.872 167.868 229.872C168.86 229.872 169.639 230.171 170.204 230.768C170.769 231.365 171.052 232.256 171.052 233.44V238H169.356V233.616C169.356 232.08 168.769 231.312 167.596 231.312C166.999 231.312 166.508 231.536 166.124 231.984C165.751 232.432 165.564 233.072 165.564 233.904V238H163.868V233.616C163.868 232.08 163.276 231.312 162.092 231.312C161.505 231.312 161.02 231.536 160.636 231.984C160.263 232.432 160.076 233.072 160.076 233.904V238H158.38ZM172.716 241.52V230.064H174.236L174.412 231.296C174.668 230.923 175.02 230.592 175.468 230.304C175.916 230.016 176.492 229.872 177.196 229.872C177.964 229.872 178.642 230.053 179.228 230.416C179.815 230.779 180.274 231.275 180.604 231.904C180.946 232.533 181.116 233.248 181.116 234.048C181.116 234.848 180.946 235.563 180.604 236.192C180.274 236.811 179.815 237.301 179.228 237.664C178.642 238.016 177.959 238.192 177.18 238.192C176.562 238.192 176.012 238.069 175.532 237.824C175.063 237.579 174.69 237.232 174.412 236.784V241.52H172.716ZM176.892 236.72C177.618 236.72 178.215 236.475 178.684 235.984C179.154 235.483 179.388 234.832 179.388 234.032C179.388 233.509 179.282 233.045 179.068 232.64C178.855 232.235 178.562 231.92 178.188 231.696C177.815 231.461 177.383 231.344 176.892 231.344C176.167 231.344 175.57 231.595 175.1 232.096C174.642 232.597 174.412 233.243 174.412 234.032C174.412 234.832 174.642 235.483 175.1 235.984C175.57 236.475 176.167 236.72 176.892 236.72ZM185.319 238.192C184.647 238.192 184.092 238.08 183.655 237.856C183.217 237.632 182.892 237.339 182.679 236.976C182.465 236.603 182.359 236.197 182.359 235.76C182.359 234.992 182.657 234.384 183.255 233.936C183.852 233.488 184.705 233.264 185.815 233.264H187.895V233.12C187.895 232.501 187.724 232.037 187.383 231.728C187.052 231.419 186.62 231.264 186.087 231.264C185.617 231.264 185.207 231.381 184.855 231.616C184.513 231.84 184.305 232.176 184.231 232.624H182.535C182.588 232.048 182.78 231.557 183.111 231.152C183.452 230.736 183.879 230.421 184.391 230.208C184.913 229.984 185.484 229.872 186.103 229.872C187.212 229.872 188.071 230.165 188.679 230.752C189.287 231.328 189.591 232.117 189.591 233.12V238H188.119L187.975 236.64C187.751 237.077 187.425 237.445 186.999 237.744C186.572 238.043 186.012 238.192 185.319 238.192ZM185.655 236.816C186.113 236.816 186.497 236.709 186.807 236.496C187.127 236.272 187.372 235.979 187.543 235.616C187.724 235.253 187.836 234.853 187.879 234.416H185.991C185.319 234.416 184.839 234.533 184.551 234.768C184.273 235.003 184.135 235.296 184.135 235.648C184.135 236.011 184.268 236.299 184.535 236.512C184.812 236.715 185.185 236.816 185.655 236.816ZM192.208 228.56C191.888 228.56 191.622 228.464 191.408 228.272C191.206 228.069 191.104 227.819 191.104 227.52C191.104 227.221 191.206 226.976 191.408 226.784C191.622 226.581 191.888 226.48 192.208 226.48C192.528 226.48 192.79 226.581 192.992 226.784C193.206 226.976 193.312 227.221 193.312 227.52C193.312 227.819 193.206 228.069 192.992 228.272C192.79 228.464 192.528 228.56 192.208 228.56ZM191.36 238V230.064H193.056V238H191.36ZM198.223 235.568C197.807 235.568 197.423 235.52 197.071 235.424L196.383 236.096C196.5 236.171 196.644 236.235 196.815 236.288C196.986 236.341 197.226 236.389 197.535 236.432C197.844 236.475 198.266 236.517 198.799 236.56C199.855 236.656 200.618 236.912 201.087 237.328C201.556 237.733 201.791 238.277 201.791 238.96C201.791 239.429 201.663 239.872 201.407 240.288C201.162 240.715 200.772 241.056 200.239 241.312C199.716 241.579 199.044 241.712 198.223 241.712C197.114 241.712 196.212 241.499 195.519 241.072C194.836 240.656 194.495 240.021 194.495 239.168C194.495 238.837 194.58 238.507 194.751 238.176C194.932 237.856 195.215 237.552 195.599 237.264C195.375 237.168 195.178 237.067 195.007 236.96C194.847 236.843 194.703 236.725 194.575 236.608V236.224L195.951 234.816C195.332 234.283 195.023 233.584 195.023 232.72C195.023 232.197 195.146 231.723 195.391 231.296C195.647 230.859 196.015 230.512 196.495 230.256C196.975 230 197.551 229.872 198.223 229.872C198.671 229.872 199.087 229.936 199.471 230.064H202.431V231.184L201.023 231.264C201.279 231.701 201.407 232.187 201.407 232.72C201.407 233.253 201.279 233.733 201.023 234.16C200.778 234.587 200.415 234.928 199.935 235.184C199.466 235.44 198.895 235.568 198.223 235.568ZM198.223 234.24C198.714 234.24 199.108 234.112 199.407 233.856C199.716 233.589 199.871 233.216 199.871 232.736C199.871 232.245 199.716 231.872 199.407 231.616C199.108 231.36 198.714 231.232 198.223 231.232C197.722 231.232 197.316 231.36 197.007 231.616C196.708 231.872 196.559 232.245 196.559 232.736C196.559 233.216 196.708 233.589 197.007 233.856C197.316 234.112 197.722 234.24 198.223 234.24ZM196.095 239.008C196.095 239.467 196.298 239.808 196.703 240.032C197.108 240.267 197.615 240.384 198.223 240.384C198.81 240.384 199.284 240.256 199.647 240C200.01 239.755 200.191 239.424 200.191 239.008C200.191 238.699 200.068 238.432 199.823 238.208C199.578 237.995 199.114 237.861 198.431 237.808C197.919 237.776 197.466 237.728 197.071 237.664C196.698 237.867 196.442 238.085 196.303 238.32C196.164 238.555 196.095 238.784 196.095 239.008ZM203.624 238V230.064H205.128L205.256 231.456C205.501 230.965 205.859 230.581 206.328 230.304C206.808 230.016 207.357 229.872 207.976 229.872C208.936 229.872 209.688 230.171 210.232 230.768C210.787 231.365 211.064 232.256 211.064 233.44V238H209.384V233.616C209.384 232.08 208.755 231.312 207.496 231.312C206.867 231.312 206.344 231.536 205.928 231.984C205.523 232.432 205.32 233.072 205.32 233.904V238H203.624Z" fill="black"/>
<path d="M30.6304 214.416C27.2059 216.518 25.1256 218.421 25.8269 223.33C26.5358 228.292 27.2503 227.349 29.6431 231.75C32.0359 236.152 28.3193 236.012 30.6011 243.945C32.8078 251.617 39.9605 253.665 51.3636 250.705C62.7668 247.745 63.6362 238.279 58.8133 230.13C55.1962 224.018 55.5966 223.863 48.2481 218.373C39.2895 211.68 35.5293 211.41 30.6304 214.416Z" fill="#FFF0DE"/>
<path d="M52.3392 239.549C52.2445 241.862 52.5582 242.558 51.8392 242.517C51.0758 242.472 50.558 241.747 50.1763 241.086C48.6377 238.429 47.3787 235.618 46.2603 232.758C45.9333 231.923 45.6123 231.04 45.7321 230.151C45.8504 229.262 46.6405 228.766 47.4645 228.405C48.401 227.993 48.8019 228.462 49.1422 229.905C49.4247 231.101 49.3952 231.381 48.475 231.692C47.1109 232.152 46.5206 230.705 45.9762 229.67C44.1654 226.228 43.8754 222.023 45.198 218.368C45.3844 217.851 45.6788 217.279 46.2188 217.173C46.9334 217.03 47.4793 217.781 47.8018 218.431C51.0861 225.042 52.6588 232.49 52.3274 239.859C52.3067 240.312 52.2504 240.822 51.8895 241.098C51.5492 241.357 51.0684 241.304 50.6512 241.204C48.4468 240.679 45.67 238.365 43.5218 237.647C41.9655 237.126 37.3038 236.044 34.6882 236.044C34.1926 236.044 33.0061 230.963 33.7236 230.617C34.9737 230.015 43.0647 225.157 45.5694 220.055C45.6034 224.762 46.4896 231.412 49.5046 238.404C49.5845 238.588 49.6511 238.793 49.5993 238.988C49.5179 239.3 49.1318 239.449 48.8137 239.39C48.4957 239.331 48.2264 239.125 47.9646 238.936C44.516 236.451 40.0289 236.056 35.7859 235.746C35.7327 237.121 36.4709 239.365 37.2372 240.508C36.604 241.139 35.2119 240.93 34.5757 240.302C34.3597 240.088 34.2739 239.781 34.197 239.487L32.0252 231.292C30.7736 231.593 28.6743 231.957 27.7378 232.838C26.8028 233.718 28.5205 236.656 29.022 236.694C30.1375 236.778 30.497 235.936 30.3742 235.506C30.2514 235.075 30.0324 234.656 30.0591 234.209C30.0857 233.763 30.5236 233.301 30.9393 233.469C31.4542 233.677 31.2914 234.426 31.1464 234.96C30.6567 236.762 31.4763 238.632 32.2752 240.321C32.4202 240.626 32.5859 240.955 32.8892 241.105C33.1925 241.256 33.7709 241.088 33.6733 240.762C33.3863 239.799 31.6613 240.891 30.6553 240.955" stroke="#1F3758" stroke-miterlimit="10" stroke-linecap="round" stroke-linejoin="round"/>
<rect x="124" y="269" width="69" height="29" rx="14.5" fill="#E9EBED"/>
<path d="M156.368 288.168C155.696 288.168 155.113 288.047 154.618 287.804C154.123 287.561 153.727 287.23 153.428 286.81C153.139 286.381 152.961 285.895 152.896 285.354H154.044C154.156 285.895 154.417 286.334 154.828 286.67C155.239 286.997 155.757 287.16 156.382 287.16C156.849 287.16 157.25 287.053 157.586 286.838C157.922 286.614 158.179 286.315 158.356 285.942C158.543 285.569 158.636 285.153 158.636 284.696C158.636 283.968 158.431 283.38 158.02 282.932C157.609 282.484 157.077 282.26 156.424 282.26C155.883 282.26 155.421 282.381 155.038 282.624C154.655 282.867 154.375 283.184 154.198 283.576H153.078L153.918 278.2H159.056V279.222H154.828L154.254 282.204C154.478 281.933 154.786 281.709 155.178 281.532C155.579 281.355 156.037 281.266 156.55 281.266C157.194 281.266 157.754 281.415 158.23 281.714C158.715 282.013 159.093 282.419 159.364 282.932C159.635 283.445 159.77 284.029 159.77 284.682C159.77 285.307 159.635 285.886 159.364 286.418C159.103 286.95 158.715 287.375 158.202 287.692C157.698 288.009 157.087 288.168 156.368 288.168ZM165.15 288.168C164.282 288.168 163.531 287.958 162.896 287.538C162.271 287.109 161.79 286.516 161.454 285.76C161.118 284.995 160.95 284.108 160.95 283.1C160.95 282.092 161.118 281.21 161.454 280.454C161.79 279.689 162.271 279.096 162.896 278.676C163.531 278.247 164.282 278.032 165.15 278.032C166.018 278.032 166.765 278.247 167.39 278.676C168.016 279.096 168.496 279.689 168.832 280.454C169.168 281.21 169.336 282.092 169.336 283.1C169.336 284.108 169.168 284.995 168.832 285.76C168.496 286.516 168.016 287.109 167.39 287.538C166.765 287.958 166.018 288.168 165.15 288.168ZM165.15 287.132C165.72 287.132 166.228 286.973 166.676 286.656C167.134 286.329 167.488 285.867 167.74 285.27C168.002 284.663 168.132 283.94 168.132 283.1C168.132 282.26 168.002 281.541 167.74 280.944C167.488 280.347 167.134 279.889 166.676 279.572C166.228 279.245 165.72 279.082 165.15 279.082C164.572 279.082 164.058 279.245 163.61 279.572C163.162 279.889 162.808 280.347 162.546 280.944C162.285 281.541 162.154 282.26 162.154 283.1C162.154 283.94 162.285 284.663 162.546 285.27C162.808 285.867 163.162 286.329 163.61 286.656C164.058 286.973 164.572 287.132 165.15 287.132ZM175.193 288V285.9H170.223V284.99L174.983 278.2H176.355V284.864H177.811V285.9H176.355V288H175.193ZM171.525 284.864H175.249V279.502L171.525 284.864Z" fill="black"/>
<path d="M145.781 279.834C145.781 279.827 145.78 279.819 145.78 279.812C145.779 279.805 145.779 279.799 145.778 279.793C145.777 279.786 145.776 279.779 145.775 279.772C145.773 279.766 145.772 279.76 145.771 279.754C145.769 279.747 145.768 279.74 145.766 279.734C145.764 279.728 145.762 279.721 145.76 279.715C145.758 279.709 145.756 279.703 145.753 279.696C145.751 279.69 145.748 279.684 145.746 279.678C145.743 279.672 145.74 279.666 145.737 279.66C145.734 279.654 145.731 279.649 145.728 279.643C145.725 279.637 145.721 279.632 145.718 279.626C145.714 279.62 145.71 279.615 145.706 279.609C145.703 279.604 145.699 279.599 145.695 279.594C145.69 279.588 145.686 279.582 145.681 279.577C145.679 279.574 145.677 279.572 145.674 279.569C145.673 279.567 145.67 279.565 145.668 279.563C145.663 279.558 145.658 279.553 145.653 279.548C145.648 279.544 145.644 279.539 145.639 279.535C145.634 279.531 145.629 279.527 145.624 279.523C145.618 279.519 145.613 279.514 145.607 279.51C145.602 279.507 145.597 279.504 145.591 279.5C145.585 279.497 145.58 279.493 145.574 279.489C145.568 279.486 145.562 279.484 145.557 279.481C145.551 279.478 145.545 279.475 145.539 279.472C145.532 279.469 145.526 279.467 145.519 279.464C145.514 279.462 145.508 279.46 145.502 279.458C145.495 279.456 145.488 279.454 145.481 279.452C145.476 279.451 145.47 279.449 145.464 279.448C145.457 279.446 145.45 279.445 145.443 279.444C145.437 279.443 145.431 279.442 145.425 279.441C145.418 279.44 145.411 279.439 145.404 279.439C145.398 279.438 145.391 279.438 145.384 279.438C145.381 279.438 145.378 279.438 145.375 279.438H135.625C135.622 279.438 135.62 279.438 135.617 279.438C135.609 279.438 135.602 279.438 135.595 279.439C135.588 279.439 135.582 279.44 135.576 279.441C135.569 279.442 135.563 279.443 135.556 279.444C135.549 279.445 135.543 279.446 135.536 279.448C135.53 279.449 135.524 279.451 135.518 279.452C135.511 279.454 135.505 279.456 135.498 279.458C135.492 279.46 135.486 279.462 135.48 279.465C135.474 279.467 135.468 279.469 135.462 279.472C135.455 279.475 135.449 279.478 135.443 279.481C135.437 279.484 135.432 279.486 135.427 279.489C135.42 279.493 135.414 279.497 135.408 279.501C135.403 279.504 135.398 279.507 135.393 279.51C135.387 279.514 135.382 279.519 135.376 279.523C135.371 279.527 135.366 279.531 135.361 279.535C135.356 279.539 135.352 279.544 135.347 279.548C135.342 279.553 135.337 279.558 135.332 279.563C135.33 279.565 135.327 279.567 135.326 279.569C135.323 279.572 135.321 279.574 135.319 279.577C135.314 279.582 135.31 279.588 135.305 279.594C135.301 279.599 135.297 279.604 135.294 279.609C135.29 279.615 135.286 279.62 135.282 279.626C135.279 279.632 135.275 279.637 135.272 279.643C135.269 279.649 135.266 279.654 135.263 279.66C135.26 279.666 135.257 279.672 135.254 279.678C135.251 279.684 135.249 279.69 135.247 279.696C135.244 279.703 135.242 279.709 135.24 279.715C135.238 279.721 135.236 279.728 135.234 279.734C135.232 279.74 135.231 279.747 135.229 279.754C135.228 279.76 135.227 279.766 135.225 279.772C135.224 279.779 135.223 279.786 135.222 279.793C135.221 279.799 135.221 279.805 135.22 279.812C135.22 279.819 135.219 279.827 135.219 279.834C135.219 279.837 135.219 279.84 135.219 279.844V286.75C135.219 286.965 135.305 287.172 135.457 287.324C135.609 287.477 135.816 287.562 136.031 287.562H144.969C145.184 287.562 145.391 287.477 145.543 287.324C145.695 287.172 145.781 286.965 145.781 286.75V279.844C145.781 279.84 145.781 279.837 145.781 279.834ZM144.331 280.25L140.5 283.761L136.669 280.25H144.331ZM144.969 286.75H136.031V280.767L140.225 284.612C140.3 284.681 140.398 284.719 140.5 284.719C140.602 284.719 140.7 284.681 140.775 284.612L144.969 280.767L144.969 286.75L144.969 286.75Z" fill="black"/>
<rect x="196" y="269" width="63" height="29" rx="14.5" fill="#E9EBED"/>
<path d="M215.209 288.375V287.292C215.209 286.717 214.98 286.166 214.574 285.76C214.168 285.353 213.617 285.125 213.042 285.125H208.709C208.134 285.125 207.583 285.353 207.177 285.76C206.77 286.166 206.542 286.717 206.542 287.292V288.375" stroke="black" stroke-linecap="round" stroke-linejoin="round"/>
<path d="M210.875 282.958C212.071 282.958 213.041 281.988 213.041 280.792C213.041 279.595 212.071 278.625 210.875 278.625C209.678 278.625 208.708 279.595 208.708 280.792C208.708 281.988 209.678 282.958 210.875 282.958Z" stroke="black" stroke-linecap="round" stroke-linejoin="round"/>
<path d="M218.459 288.375V287.292C218.459 286.811 218.299 286.345 218.005 285.966C217.711 285.586 217.299 285.315 216.834 285.195" stroke="black" stroke-linecap="round" stroke-linejoin="round"/>
<path d="M214.666 278.695C215.132 278.815 215.545 279.086 215.84 279.466C216.135 279.846 216.295 280.313 216.295 280.794C216.295 281.275 216.135 281.743 215.84 282.123C215.545 282.503 215.132 282.774 214.666 282.893" stroke="black" stroke-linecap="round" stroke-linejoin="round"/>
<path d="M226.002 288V279.516L224.42 279.866V279.054L226.394 278.2H227.192V288H226.002ZM233.419 288V285.9H228.449V284.99L233.209 278.2H234.581V284.864H236.037V285.9H234.581V288H233.419ZM229.751 284.864H233.475V279.502L229.751 284.864ZM240.229 288.168C239.604 288.168 239.039 288.056 238.535 287.832C238.031 287.599 237.625 287.253 237.317 286.796C237.019 286.339 236.86 285.769 236.841 285.088H238.031C238.041 285.648 238.237 286.133 238.619 286.544C239.002 286.945 239.539 287.146 240.229 287.146C240.92 287.146 241.438 286.955 241.783 286.572C242.138 286.189 242.315 285.727 242.315 285.186C242.315 284.729 242.203 284.355 241.979 284.066C241.765 283.777 241.471 283.562 241.097 283.422C240.733 283.282 240.332 283.212 239.893 283.212H239.165V282.218H239.893C240.528 282.218 241.023 282.073 241.377 281.784C241.741 281.495 241.923 281.089 241.923 280.566C241.923 280.127 241.779 279.768 241.489 279.488C241.209 279.199 240.789 279.054 240.229 279.054C239.688 279.054 239.254 279.217 238.927 279.544C238.601 279.861 238.419 280.263 238.381 280.748H237.191C237.219 280.216 237.359 279.745 237.611 279.334C237.873 278.923 238.227 278.606 238.675 278.382C239.123 278.149 239.641 278.032 240.229 278.032C240.864 278.032 241.391 278.144 241.811 278.368C242.241 278.592 242.563 278.891 242.777 279.264C243.001 279.637 243.113 280.048 243.113 280.496C243.113 280.991 242.978 281.443 242.707 281.854C242.437 282.255 242.031 282.526 241.489 282.666C242.068 282.787 242.549 283.063 242.931 283.492C243.314 283.921 243.505 284.486 243.505 285.186C243.505 285.727 243.379 286.227 243.127 286.684C242.885 287.132 242.521 287.491 242.035 287.762C241.55 288.033 240.948 288.168 240.229 288.168Z" fill="black"/>
<rect x="24" y="269" width="97" height="29" rx="14.5" fill="#E9EBED"/>
<path d="M54.002 288V279.516L52.42 279.866V279.054L54.394 278.2H55.192V288H54.002ZM60.3126 288.168C59.6406 288.168 59.0573 288.047 58.5626 287.804C58.0679 287.561 57.6713 287.23 57.3726 286.81C57.0833 286.381 56.9059 285.895 56.8406 285.354H57.9886C58.1006 285.895 58.3619 286.334 58.7726 286.67C59.1833 286.997 59.7013 287.16 60.3266 287.16C60.7933 287.16 61.1946 287.053 61.5306 286.838C61.8666 286.614 62.1233 286.315 62.3006 285.942C62.4873 285.569 62.5806 285.153 62.5806 284.696C62.5806 283.968 62.3753 283.38 61.9646 282.932C61.5539 282.484 61.0219 282.26 60.3686 282.26C59.8273 282.26 59.3653 282.381 58.9826 282.624C58.5999 282.867 58.3199 283.184 58.1426 283.576H57.0226L57.8626 278.2H63.0006V279.222H58.7726L58.1986 282.204C58.4226 281.933 58.7306 281.709 59.1226 281.532C59.5239 281.355 59.9813 281.266 60.4946 281.266C61.1386 281.266 61.6986 281.415 62.1746 281.714C62.6599 282.013 63.0379 282.419 63.3086 282.932C63.5793 283.445 63.7146 284.029 63.7146 284.682C63.7146 285.307 63.5793 285.886 63.3086 286.418C63.0473 286.95 62.6599 287.375 62.1466 287.692C61.6426 288.009 61.0313 288.168 60.3126 288.168ZM64.205 289.33L67.719 277.304H68.881L65.367 289.33H64.205ZM73.5864 288.168C72.7184 288.168 71.967 287.958 71.3324 287.538C70.707 287.109 70.2264 286.516 69.8904 285.76C69.5544 284.995 69.3864 284.108 69.3864 283.1C69.3864 282.092 69.5544 281.21 69.8904 280.454C70.2264 279.689 70.707 279.096 71.3324 278.676C71.967 278.247 72.7184 278.032 73.5864 278.032C74.4544 278.032 75.201 278.247 75.8264 278.676C76.4517 279.096 76.9324 279.689 77.2684 280.454C77.6044 281.21 77.7724 282.092 77.7724 283.1C77.7724 284.108 77.6044 284.995 77.2684 285.76C76.9324 286.516 76.4517 287.109 75.8264 287.538C75.201 287.958 74.4544 288.168 73.5864 288.168ZM73.5864 287.132C74.1557 287.132 74.6644 286.973 75.1124 286.656C75.5697 286.329 75.9244 285.867 76.1764 285.27C76.4377 284.663 76.5684 283.94 76.5684 283.1C76.5684 282.26 76.4377 281.541 76.1764 280.944C75.9244 280.347 75.5697 279.889 75.1124 279.572C74.6644 279.245 74.1557 279.082 73.5864 279.082C73.0077 279.082 72.4944 279.245 72.0464 279.572C71.5984 279.889 71.2437 280.347 70.9824 280.944C70.721 281.541 70.5904 282.26 70.5904 283.1C70.5904 283.94 70.721 284.663 70.9824 285.27C71.2437 285.867 71.5984 286.329 72.0464 286.656C72.4944 286.973 73.0077 287.132 73.5864 287.132ZM82.4254 288.168C81.8094 288.168 81.2821 288.047 80.8434 287.804C80.4047 287.561 80.0547 287.239 79.7934 286.838C79.5414 286.427 79.3874 285.975 79.3314 285.48H80.4234C80.5167 286.012 80.7407 286.423 81.0954 286.712C81.4501 287.001 81.8981 287.146 82.4394 287.146C83.1861 287.146 83.8067 286.801 84.3014 286.11C84.7961 285.41 85.0621 284.323 85.0994 282.848C84.8754 283.287 84.5161 283.669 84.0214 283.996C83.5361 284.313 82.9481 284.472 82.2574 284.472C81.7067 284.472 81.1841 284.341 80.6894 284.08C80.1947 283.819 79.7934 283.455 79.4854 282.988C79.1774 282.512 79.0234 281.957 79.0234 281.322C79.0234 280.771 79.1587 280.244 79.4294 279.74C79.7094 279.236 80.1014 278.825 80.6054 278.508C81.1094 278.191 81.7114 278.032 82.4114 278.032C83.1207 278.032 83.7181 278.167 84.2034 278.438C84.6887 278.699 85.0761 279.054 85.3654 279.502C85.6641 279.95 85.8787 280.454 86.0094 281.014C86.1494 281.565 86.2194 282.129 86.2194 282.708C86.2194 283.791 86.0701 284.743 85.7714 285.564C85.4727 286.376 85.0387 287.015 84.4694 287.482C83.9094 287.939 83.2281 288.168 82.4254 288.168ZM82.4954 283.45C82.9341 283.45 83.3261 283.352 83.6714 283.156C84.0167 282.951 84.2921 282.68 84.4974 282.344C84.7027 282.008 84.8054 281.644 84.8054 281.252C84.8054 280.832 84.7027 280.459 84.4974 280.132C84.2921 279.796 84.0167 279.535 83.6714 279.348C83.3261 279.161 82.9341 279.068 82.4954 279.068C82.0567 279.068 81.6647 279.161 81.3194 279.348C80.9741 279.535 80.7034 279.796 80.5074 280.132C80.3114 280.459 80.2134 280.837 80.2134 281.266C80.2134 281.929 80.4281 282.461 80.8574 282.862C81.2961 283.254 81.8421 283.45 82.4954 283.45ZM86.3885 289.33L89.9025 277.304H91.0645L87.5505 289.33H86.3885ZM92.0672 288V287.174C92.7299 286.651 93.3552 286.124 93.9432 285.592C94.5406 285.051 95.0679 284.519 95.5252 283.996C95.9919 283.473 96.3559 282.96 96.6172 282.456C96.8879 281.952 97.0232 281.467 97.0232 281C97.0232 280.655 96.9626 280.333 96.8412 280.034C96.7292 279.735 96.5426 279.497 96.2812 279.32C96.0199 279.133 95.6652 279.04 95.2172 279.04C94.7879 279.04 94.4286 279.138 94.1392 279.334C93.8499 279.521 93.6306 279.773 93.4812 280.09C93.3412 280.407 93.2712 280.748 93.2712 281.112H92.1372C92.1372 280.468 92.2726 279.917 92.5432 279.46C92.8139 278.993 93.1826 278.639 93.6492 278.396C94.1159 278.153 94.6432 278.032 95.2312 278.032C96.0992 278.032 96.8086 278.279 97.3592 278.774C97.9192 279.259 98.1992 279.987 98.1992 280.958C98.1992 281.537 98.0546 282.111 97.7652 282.68C97.4759 283.24 97.1072 283.786 96.6592 284.318C96.2112 284.841 95.7306 285.331 95.2172 285.788C94.7132 286.245 94.2419 286.656 93.8032 287.02H98.5352V288H92.0672ZM99.799 288V287.174C100.462 286.651 101.087 286.124 101.675 285.592C102.272 285.051 102.8 284.519 103.257 283.996C103.724 283.473 104.088 282.96 104.349 282.456C104.62 281.952 104.755 281.467 104.755 281C104.755 280.655 104.694 280.333 104.573 280.034C104.461 279.735 104.274 279.497 104.013 279.32C103.752 279.133 103.397 279.04 102.949 279.04C102.52 279.04 102.16 279.138 101.871 279.334C101.582 279.521 101.362 279.773 101.213 280.09C101.073 280.407 101.003 280.748 101.003 281.112H99.869C99.869 280.468 100.004 279.917 100.275 279.46C100.546 278.993 100.914 278.639 101.381 278.396C101.848 278.153 102.375 278.032 102.963 278.032C103.831 278.032 104.54 278.279 105.091 278.774C105.651 279.259 105.931 279.987 105.931 280.958C105.931 281.537 105.786 282.111 105.497 282.68C105.208 283.24 104.839 283.786 104.391 284.318C103.943 284.841 103.462 285.331 102.949 285.788C102.445 286.245 101.974 286.656 101.535 287.02H106.267V288H99.799Z" fill="black"/>
<path d="M44.2917 279.167H36.7083C36.11 279.167 35.625 279.652 35.625 280.25V287.834C35.625 288.432 36.11 288.917 36.7083 288.917H44.2917C44.89 288.917 45.375 288.432 45.375 287.834V280.25C45.375 279.652 44.89 279.167 44.2917 279.167Z" stroke="black" stroke-linecap="round" stroke-linejoin="round"/>
<path d="M42.666 278.083V280.25" stroke="black" stroke-linecap="round" stroke-linejoin="round"/>
<path d="M38.334 278.083V280.25" stroke="black" stroke-linecap="round" stroke-linejoin="round"/>
<path d="M35.625 282.417H45.375" stroke="black" stroke-linecap="round" stroke-linejoin="round"/>
<rect x="262" y="269" width="65" height="29" rx="14.5" fill="#E9EBED"/>
<rect x="262" y="269" width="65" height="29" rx="14.5" stroke="#D3D7DB"/>
<path fill-rule="evenodd" clip-rule="evenodd" d="M281.955 280.048C281.037 279.131 279.819 278.625 278.521 278.625C275.845 278.625 273.666 280.802 273.666 283.478C273.665 284.333 273.888 285.168 274.314 285.904L273.625 288.419L276.199 287.743C276.907 288.131 277.707 288.334 278.519 288.335H278.521C281.196 288.335 283.373 286.158 283.375 283.481C283.375 282.184 282.87 280.966 281.955 280.048ZM278.521 287.515H278.519C277.795 287.515 277.084 287.32 276.466 286.953L276.318 286.866L274.79 287.266L275.198 285.777L275.102 285.625C274.698 284.982 274.485 284.24 274.485 283.478C274.485 281.255 276.296 279.445 278.522 279.445C279.6 279.445 280.612 279.866 281.374 280.628C282.136 281.391 282.555 282.403 282.555 283.481C282.555 285.706 280.744 287.515 278.521 287.515ZM280.733 284.493C280.612 284.433 280.016 284.14 279.904 284.1C279.793 284.059 279.712 284.04 279.631 284.16C279.551 284.282 279.319 284.555 279.247 284.636C279.178 284.716 279.106 284.727 278.986 284.666C278.863 284.606 278.473 284.478 278.01 284.063C277.649 283.743 277.405 283.344 277.335 283.224C277.264 283.102 277.327 283.037 277.388 282.976C277.443 282.922 277.51 282.835 277.57 282.764C277.63 282.694 277.651 282.643 277.692 282.562C277.732 282.481 277.711 282.41 277.681 282.349C277.651 282.289 277.408 281.691 277.307 281.448C277.208 281.212 277.108 281.245 277.034 281.24C276.964 281.237 276.883 281.237 276.802 281.237C276.721 281.237 276.589 281.267 276.478 281.389C276.367 281.51 276.055 281.804 276.055 282.4C276.055 282.997 276.489 283.575 276.55 283.656C276.61 283.735 277.405 284.96 278.622 285.485C278.911 285.611 279.136 285.685 279.312 285.741C279.603 285.833 279.868 285.82 280.077 285.79C280.311 285.755 280.795 285.496 280.896 285.212C280.996 284.93 280.996 284.687 280.966 284.636C280.936 284.585 280.855 284.555 280.733 284.493Z" fill="black"/>
<path d="M299.375 283.229C299.377 283.944 299.21 284.649 298.887 285.288C298.505 286.052 297.918 286.695 297.191 287.145C296.464 287.595 295.626 287.833 294.771 287.833C294.056 287.835 293.351 287.668 292.712 287.346L289.625 288.375L290.654 285.288C290.332 284.649 290.165 283.944 290.167 283.229C290.167 282.374 290.405 281.536 290.855 280.809C291.305 280.082 291.948 279.495 292.712 279.113C293.351 278.79 294.056 278.623 294.771 278.625H295.042C296.171 278.687 297.237 279.164 298.037 279.963C298.836 280.763 299.313 281.829 299.375 282.958V283.229Z" stroke="black" stroke-width="0.845" stroke-linecap="round" stroke-linejoin="round"/>
<path d="M310.5 278.219C309.583 278.219 308.681 278.458 307.884 278.913C307.088 279.367 306.423 280.021 305.956 280.81C305.488 281.6 305.235 282.497 305.219 283.414C305.204 284.332 305.428 285.237 305.869 286.041L305.435 287.56C305.395 287.7 305.394 287.847 305.43 287.987C305.466 288.128 305.54 288.256 305.642 288.358C305.744 288.46 305.872 288.534 306.013 288.57C306.153 288.606 306.3 288.605 306.44 288.565L307.959 288.131C308.665 288.518 309.45 288.739 310.254 288.776C311.059 288.814 311.861 288.667 312.6 288.346C313.339 288.026 313.995 287.541 314.517 286.929C315.04 286.316 315.416 285.592 315.616 284.812C315.816 284.032 315.835 283.217 315.671 282.428C315.508 281.64 315.166 280.899 314.672 280.263C314.179 279.626 313.546 279.111 312.823 278.757C312.1 278.403 311.305 278.219 310.5 278.219ZM310.5 287.969C309.697 287.969 308.91 287.753 308.22 287.344C308.172 287.316 308.119 287.297 308.064 287.29C308.009 287.283 307.953 287.287 307.9 287.302L306.217 287.783L306.698 286.1C306.713 286.047 306.717 285.991 306.71 285.936C306.703 285.881 306.684 285.828 306.656 285.781C306.153 284.933 305.944 283.942 306.062 282.963C306.181 281.984 306.62 281.072 307.311 280.368C308.002 279.664 308.906 279.209 309.883 279.073C310.859 278.937 311.854 279.128 312.711 279.615C313.568 280.103 314.239 280.861 314.621 281.77C315.002 282.679 315.072 283.689 314.82 284.643C314.568 285.596 314.007 286.439 313.226 287.041C312.445 287.642 311.486 287.969 310.5 287.969ZM313.225 282.4C313.262 282.438 313.292 282.483 313.313 282.532C313.333 282.581 313.344 282.634 313.344 282.688C313.344 282.741 313.333 282.794 313.313 282.843C313.292 282.892 313.262 282.937 313.225 282.975L311.6 284.6C311.562 284.637 311.517 284.667 311.468 284.688C311.419 284.708 311.366 284.719 311.313 284.719C311.259 284.719 311.206 284.708 311.157 284.688C311.108 284.667 311.063 284.637 311.025 284.6L309.688 283.262L308.35 284.6C308.312 284.638 308.267 284.667 308.218 284.688C308.169 284.708 308.116 284.719 308.062 284.719C308.009 284.719 307.956 284.708 307.907 284.688C307.858 284.668 307.813 284.638 307.775 284.6C307.737 284.562 307.707 284.517 307.687 284.468C307.667 284.419 307.656 284.366 307.656 284.313C307.656 284.259 307.667 284.206 307.687 284.157C307.708 284.108 307.737 284.063 307.775 284.025L309.4 282.4C309.476 282.324 309.58 282.281 309.688 282.281C309.795 282.281 309.899 282.324 309.975 282.4L311.313 283.738L312.65 282.4C312.726 282.324 312.83 282.281 312.938 282.281C313.045 282.281 313.149 282.324 313.225 282.4V282.4Z" fill="black"/>
<g filter="url(#filter1_d_801_2706)">
<rect x="13" y="64" width="351" height="116" rx="14" fill="white"/>
<rect x="13.5" y="64.5" width="350" height="115" rx="13.5" stroke="#D3D7DB"/>
</g>
<path d="M333 103L339 97L333 91" stroke="#1F3758" stroke-width="2" stroke-linecap="round" stroke-linejoin="round"/>
<path d="M74.912 102V100.784C75.6373 100.208 76.3307 99.6267 76.992 99.04C77.6533 98.4533 78.24 97.8773 78.752 97.312C79.2747 96.736 79.6853 96.176 79.984 95.632C80.2827 95.0773 80.432 94.544 80.432 94.032C80.432 93.6907 80.3733 93.3707 80.256 93.072C80.1387 92.7627 79.9467 92.5173 79.68 92.336C79.4133 92.144 79.056 92.048 78.608 92.048C77.936 92.048 77.4293 92.2613 77.088 92.688C76.7573 93.1147 76.5973 93.6267 76.608 94.224H74.96C74.9707 93.4347 75.136 92.7733 75.456 92.24C75.7867 91.7067 76.224 91.3013 76.768 91.024C77.3227 90.7467 77.9467 90.608 78.64 90.608C79.696 90.608 80.5387 90.9067 81.168 91.504C81.808 92.0907 82.128 92.912 82.128 93.968C82.128 94.5973 81.9733 95.2213 81.664 95.84C81.3653 96.4587 80.9707 97.056 80.48 97.632C80 98.1973 79.4827 98.7307 78.928 99.232C78.3733 99.7333 77.8453 100.187 77.344 100.592H82.464V102H74.912ZM88.3273 102.192C87.3139 102.192 86.4393 101.952 85.7033 101.472C84.9779 100.981 84.4179 100.304 84.0233 99.44C83.6393 98.5653 83.4473 97.552 83.4473 96.4C83.4473 95.248 83.6393 94.24 84.0233 93.376C84.4179 92.5013 84.9779 91.824 85.7033 91.344C86.4393 90.8533 87.3139 90.608 88.3273 90.608C89.3406 90.608 90.2099 90.8533 90.9353 91.344C91.6606 91.824 92.2153 92.5013 92.5993 93.376C92.9939 94.24 93.1913 95.248 93.1913 96.4C93.1913 97.552 92.9939 98.5653 92.5993 99.44C92.2153 100.304 91.6606 100.981 90.9353 101.472C90.2099 101.952 89.3406 102.192 88.3273 102.192ZM88.3273 100.672C88.9353 100.672 89.4739 100.501 89.9433 100.16C90.4233 99.8187 90.7966 99.328 91.0633 98.688C91.3299 98.048 91.4633 97.2853 91.4633 96.4C91.4633 95.5147 91.3299 94.752 91.0633 94.112C90.7966 93.472 90.4233 92.9813 89.9433 92.64C89.4739 92.2987 88.9353 92.128 88.3273 92.128C87.7086 92.128 87.1646 92.2987 86.6953 92.64C86.2259 92.9813 85.8579 93.472 85.5913 94.112C85.3246 94.752 85.1913 95.5147 85.1913 96.4C85.1913 97.2853 85.3246 98.048 85.5913 98.688C85.8579 99.328 86.2259 99.8187 86.6953 100.16C87.1646 100.501 87.7086 100.672 88.3273 100.672ZM94.4126 102V100.784C95.138 100.208 95.8313 99.6267 96.4926 99.04C97.154 98.4533 97.7406 97.8773 98.2526 97.312C98.7753 96.736 99.186 96.176 99.4846 95.632C99.7833 95.0773 99.9326 94.544 99.9326 94.032C99.9326 93.6907 99.874 93.3707 99.7566 93.072C99.6393 92.7627 99.4473 92.5173 99.1806 92.336C98.914 92.144 98.5566 92.048 98.1086 92.048C97.4366 92.048 96.93 92.2613 96.5886 92.688C96.258 93.1147 96.098 93.6267 96.1086 94.224H94.4606C94.4713 93.4347 94.6366 92.7733 94.9566 92.24C95.2873 91.7067 95.7246 91.3013 96.2686 91.024C96.8233 90.7467 97.4473 90.608 98.1406 90.608C99.1966 90.608 100.039 90.9067 100.669 91.504C101.309 92.0907 101.629 92.912 101.629 93.968C101.629 94.5973 101.474 95.2213 101.165 95.84C100.866 96.4587 100.471 97.056 99.9806 97.632C99.5006 98.1973 98.9833 98.7307 98.4286 99.232C97.874 99.7333 97.346 100.187 96.8446 100.592H101.965V102H94.4126ZM103.249 102V100.784C103.974 100.208 104.668 99.6267 105.329 99.04C105.99 98.4533 106.577 97.8773 107.089 97.312C107.612 96.736 108.022 96.176 108.321 95.632C108.62 95.0773 108.769 94.544 108.769 94.032C108.769 93.6907 108.71 93.3707 108.593 93.072C108.476 92.7627 108.284 92.5173 108.017 92.336C107.75 92.144 107.393 92.048 106.945 92.048C106.273 92.048 105.766 92.2613 105.425 92.688C105.094 93.1147 104.934 93.6267 104.945 94.224H103.297C103.308 93.4347 103.473 92.7733 103.793 92.24C104.124 91.7067 104.561 91.3013 105.105 91.024C105.66 90.7467 106.284 90.608 106.977 90.608C108.033 90.608 108.876 90.9067 109.505 91.504C110.145 92.0907 110.465 92.912 110.465 93.968C110.465 94.5973 110.31 95.2213 110.001 95.84C109.702 96.4587 109.308 97.056 108.817 97.632C108.337 98.1973 107.82 98.7307 107.265 99.232C106.71 99.7333 106.182 100.187 105.681 100.592H110.801V102H103.249ZM119.124 102.192C118.122 102.192 117.295 101.947 116.644 101.456C115.994 100.965 115.62 100.315 115.524 99.504H117.236C117.322 99.8667 117.524 100.181 117.844 100.448C118.164 100.704 118.586 100.832 119.108 100.832C119.62 100.832 119.994 100.725 120.228 100.512C120.463 100.299 120.58 100.053 120.58 99.776C120.58 99.3707 120.415 99.0987 120.084 98.96C119.764 98.8107 119.316 98.6773 118.74 98.56C118.292 98.464 117.844 98.336 117.396 98.176C116.959 98.016 116.591 97.792 116.292 97.504C116.004 97.2053 115.86 96.8053 115.86 96.304C115.86 95.6107 116.127 95.0347 116.66 94.576C117.194 94.1067 117.94 93.872 118.9 93.872C119.786 93.872 120.5 94.0853 121.044 94.512C121.599 94.9387 121.924 95.5413 122.02 96.32H120.388C120.335 95.9787 120.175 95.712 119.908 95.52C119.652 95.328 119.306 95.232 118.868 95.232C118.442 95.232 118.111 95.3227 117.876 95.504C117.642 95.6747 117.524 95.8987 117.524 96.176C117.524 96.4533 117.684 96.672 118.004 96.832C118.335 96.992 118.767 97.136 119.3 97.264C119.834 97.3813 120.324 97.52 120.772 97.68C121.231 97.8293 121.599 98.0533 121.876 98.352C122.154 98.6507 122.292 99.088 122.292 99.664C122.303 100.389 122.02 100.992 121.444 101.472C120.879 101.952 120.106 102.192 119.124 102.192ZM126.512 102.192C125.84 102.192 125.285 102.08 124.848 101.856C124.411 101.632 124.085 101.339 123.872 100.976C123.659 100.603 123.552 100.197 123.552 99.76C123.552 98.992 123.851 98.384 124.448 97.936C125.045 97.488 125.899 97.264 127.008 97.264H129.088V97.12C129.088 96.5013 128.917 96.0373 128.576 95.728C128.245 95.4187 127.813 95.264 127.28 95.264C126.811 95.264 126.4 95.3813 126.048 95.616C125.707 95.84 125.499 96.176 125.424 96.624H123.728C123.781 96.048 123.973 95.5573 124.304 95.152C124.645 94.736 125.072 94.4213 125.584 94.208C126.107 93.984 126.677 93.872 127.296 93.872C128.405 93.872 129.264 94.1653 129.872 94.752C130.48 95.328 130.784 96.1173 130.784 97.12V102H129.312L129.168 100.64C128.944 101.077 128.619 101.445 128.192 101.744C127.765 102.043 127.205 102.192 126.512 102.192ZM126.848 100.816C127.307 100.816 127.691 100.709 128 100.496C128.32 100.272 128.565 99.9787 128.736 99.616C128.917 99.2533 129.029 98.8533 129.072 98.416H127.184C126.512 98.416 126.032 98.5333 125.744 98.768C125.467 99.0027 125.328 99.296 125.328 99.648C125.328 100.011 125.461 100.299 125.728 100.512C126.005 100.715 126.379 100.816 126.848 100.816ZM132.441 102V90.48H134.137V102H132.441ZM139.677 102.192C138.898 102.192 138.205 102.021 137.597 101.68C137 101.328 136.53 100.843 136.189 100.224C135.848 99.6053 135.677 98.8853 135.677 98.064C135.677 97.232 135.842 96.5013 136.173 95.872C136.514 95.2427 136.984 94.752 137.581 94.4C138.189 94.048 138.893 93.872 139.693 93.872C140.472 93.872 141.149 94.048 141.725 94.4C142.301 94.7413 142.749 95.2 143.069 95.776C143.389 96.352 143.549 96.9867 143.549 97.68C143.549 97.7867 143.544 97.904 143.533 98.032C143.533 98.1493 143.528 98.2827 143.517 98.432H137.341C137.394 99.2 137.645 99.7867 138.093 100.192C138.552 100.587 139.08 100.784 139.677 100.784C140.157 100.784 140.557 100.677 140.877 100.464C141.208 100.24 141.453 99.9413 141.613 99.568H143.309C143.096 100.315 142.669 100.939 142.029 101.44C141.4 101.941 140.616 102.192 139.677 102.192ZM139.677 95.264C139.112 95.264 138.61 95.4347 138.173 95.776C137.736 96.1067 137.469 96.608 137.373 97.28H141.853C141.821 96.6613 141.602 96.1707 141.197 95.808C140.792 95.4453 140.285 95.264 139.677 95.264ZM152.46 102.192C151.681 102.192 150.983 102.016 150.364 101.664C149.756 101.312 149.276 100.827 148.924 100.208C148.583 99.5787 148.412 98.8533 148.412 98.032C148.412 97.2107 148.583 96.4907 148.924 95.872C149.276 95.2427 149.756 94.752 150.364 94.4C150.983 94.048 151.681 93.872 152.46 93.872C153.441 93.872 154.263 94.128 154.924 94.64C155.596 95.152 156.028 95.8453 156.22 96.72H154.444C154.337 96.2827 154.103 95.9413 153.74 95.696C153.377 95.4507 152.951 95.328 152.46 95.328C152.044 95.328 151.66 95.4347 151.308 95.648C150.956 95.8507 150.673 96.1547 150.46 96.56C150.247 96.9547 150.14 97.4453 150.14 98.032C150.14 98.6187 150.247 99.1147 150.46 99.52C150.673 99.9147 150.956 100.219 151.308 100.432C151.66 100.645 152.044 100.752 152.46 100.752C152.951 100.752 153.377 100.629 153.74 100.384C154.103 100.139 154.337 99.792 154.444 99.344H156.22C156.039 100.197 155.612 100.885 154.94 101.408C154.268 101.931 153.441 102.192 152.46 102.192ZM160.428 102.192C159.756 102.192 159.201 102.08 158.764 101.856C158.326 101.632 158.001 101.339 157.788 100.976C157.574 100.603 157.468 100.197 157.468 99.76C157.468 98.992 157.766 98.384 158.364 97.936C158.961 97.488 159.814 97.264 160.924 97.264H163.004V97.12C163.004 96.5013 162.833 96.0373 162.492 95.728C162.161 95.4187 161.729 95.264 161.196 95.264C160.726 95.264 160.316 95.3813 159.964 95.616C159.622 95.84 159.414 96.176 159.34 96.624H157.644C157.697 96.048 157.889 95.5573 158.22 95.152C158.561 94.736 158.988 94.4213 159.5 94.208C160.022 93.984 160.593 93.872 161.212 93.872C162.321 93.872 163.18 94.1653 163.788 94.752C164.396 95.328 164.7 96.1173 164.7 97.12V102H163.228L163.084 100.64C162.86 101.077 162.534 101.445 162.108 101.744C161.681 102.043 161.121 102.192 160.428 102.192ZM160.764 100.816C161.222 100.816 161.606 100.709 161.916 100.496C162.236 100.272 162.481 99.9787 162.652 99.616C162.833 99.2533 162.945 98.8533 162.988 98.416H161.1C160.428 98.416 159.948 98.5333 159.66 98.768C159.382 99.0027 159.244 99.296 159.244 99.648C159.244 100.011 159.377 100.299 159.644 100.512C159.921 100.715 160.294 100.816 160.764 100.816ZM166.357 102V94.064H167.861L168.005 95.184C168.261 94.7787 168.597 94.4587 169.013 94.224C169.44 93.9893 169.93 93.872 170.485 93.872C171.744 93.872 172.618 94.368 173.109 95.36C173.397 94.9013 173.781 94.5387 174.261 94.272C174.752 94.0053 175.28 93.872 175.845 93.872C176.837 93.872 177.616 94.1707 178.181 94.768C178.746 95.3653 179.029 96.256 179.029 97.44V102H177.333V97.616C177.333 96.08 176.746 95.312 175.573 95.312C174.976 95.312 174.485 95.536 174.101 95.984C173.728 96.432 173.541 97.072 173.541 97.904V102H171.845V97.616C171.845 96.08 171.253 95.312 170.069 95.312C169.482 95.312 168.997 95.536 168.613 95.984C168.24 96.432 168.053 97.072 168.053 97.904V102H166.357ZM180.693 105.52V94.064H182.213L182.389 95.296C182.645 94.9227 182.997 94.592 183.445 94.304C183.893 94.016 184.469 93.872 185.173 93.872C185.941 93.872 186.619 94.0533 187.205 94.416C187.792 94.7787 188.251 95.2747 188.581 95.904C188.923 96.5333 189.093 97.248 189.093 98.048C189.093 98.848 188.923 99.5627 188.581 100.192C188.251 100.811 187.792 101.301 187.205 101.664C186.619 102.016 185.936 102.192 185.157 102.192C184.539 102.192 183.989 102.069 183.509 101.824C183.04 101.579 182.667 101.232 182.389 100.784V105.52H180.693ZM184.869 100.72C185.595 100.72 186.192 100.475 186.661 99.984C187.131 99.4827 187.365 98.832 187.365 98.032C187.365 97.5093 187.259 97.0453 187.045 96.64C186.832 96.2347 186.539 95.92 186.165 95.696C185.792 95.4613 185.36 95.344 184.869 95.344C184.144 95.344 183.547 95.5947 183.077 96.096C182.619 96.5973 182.389 97.2427 182.389 98.032C182.389 98.832 182.619 99.4827 183.077 99.984C183.547 100.475 184.144 100.72 184.869 100.72ZM193.296 102.192C192.624 102.192 192.069 102.08 191.632 101.856C191.194 101.632 190.869 101.339 190.656 100.976C190.442 100.603 190.336 100.197 190.336 99.76C190.336 98.992 190.634 98.384 191.232 97.936C191.829 97.488 192.682 97.264 193.792 97.264H195.872V97.12C195.872 96.5013 195.701 96.0373 195.36 95.728C195.029 95.4187 194.597 95.264 194.064 95.264C193.594 95.264 193.184 95.3813 192.832 95.616C192.49 95.84 192.282 96.176 192.208 96.624H190.512C190.565 96.048 190.757 95.5573 191.088 95.152C191.429 94.736 191.856 94.4213 192.368 94.208C192.89 93.984 193.461 93.872 194.08 93.872C195.189 93.872 196.048 94.1653 196.656 94.752C197.264 95.328 197.568 96.1173 197.568 97.12V102H196.096L195.952 100.64C195.728 101.077 195.402 101.445 194.976 101.744C194.549 102.043 193.989 102.192 193.296 102.192ZM193.632 100.816C194.09 100.816 194.474 100.709 194.784 100.496C195.104 100.272 195.349 99.9787 195.52 99.616C195.701 99.2533 195.813 98.8533 195.856 98.416H193.968C193.296 98.416 192.816 98.5333 192.528 98.768C192.25 99.0027 192.112 99.296 192.112 99.648C192.112 100.011 192.245 100.299 192.512 100.512C192.789 100.715 193.162 100.816 193.632 100.816ZM200.185 92.56C199.865 92.56 199.598 92.464 199.385 92.272C199.182 92.0693 199.081 91.8187 199.081 91.52C199.081 91.2213 199.182 90.976 199.385 90.784C199.598 90.5813 199.865 90.48 200.185 90.48C200.505 90.48 200.766 90.5813 200.969 90.784C201.182 90.976 201.289 91.2213 201.289 91.52C201.289 91.8187 201.182 92.0693 200.969 92.272C200.766 92.464 200.505 92.56 200.185 92.56ZM199.337 102V94.064H201.033V102H199.337ZM206.2 99.568C205.784 99.568 205.4 99.52 205.048 99.424L204.36 100.096C204.477 100.171 204.621 100.235 204.792 100.288C204.963 100.341 205.203 100.389 205.512 100.432C205.821 100.475 206.243 100.517 206.776 100.56C207.832 100.656 208.595 100.912 209.064 101.328C209.533 101.733 209.768 102.277 209.768 102.96C209.768 103.429 209.64 103.872 209.384 104.288C209.139 104.715 208.749 105.056 208.216 105.312C207.693 105.579 207.021 105.712 206.2 105.712C205.091 105.712 204.189 105.499 203.496 105.072C202.813 104.656 202.472 104.021 202.472 103.168C202.472 102.837 202.557 102.507 202.728 102.176C202.909 101.856 203.192 101.552 203.576 101.264C203.352 101.168 203.155 101.067 202.984 100.96C202.824 100.843 202.68 100.725 202.552 100.608V100.224L203.928 98.816C203.309 98.2827 203 97.584 203 96.72C203 96.1973 203.123 95.7227 203.368 95.296C203.624 94.8587 203.992 94.512 204.472 94.256C204.952 94 205.528 93.872 206.2 93.872C206.648 93.872 207.064 93.936 207.448 94.064H210.408V95.184L209 95.264C209.256 95.7013 209.384 96.1867 209.384 96.72C209.384 97.2533 209.256 97.7333 209 98.16C208.755 98.5867 208.392 98.928 207.912 99.184C207.443 99.44 206.872 99.568 206.2 99.568ZM206.2 98.24C206.691 98.24 207.085 98.112 207.384 97.856C207.693 97.5893 207.848 97.216 207.848 96.736C207.848 96.2453 207.693 95.872 207.384 95.616C207.085 95.36 206.691 95.232 206.2 95.232C205.699 95.232 205.293 95.36 204.984 95.616C204.685 95.872 204.536 96.2453 204.536 96.736C204.536 97.216 204.685 97.5893 204.984 97.856C205.293 98.112 205.699 98.24 206.2 98.24ZM204.072 103.008C204.072 103.467 204.275 103.808 204.68 104.032C205.085 104.267 205.592 104.384 206.2 104.384C206.787 104.384 207.261 104.256 207.624 104C207.987 103.755 208.168 103.424 208.168 103.008C208.168 102.699 208.045 102.432 207.8 102.208C207.555 101.995 207.091 101.861 206.408 101.808C205.896 101.776 205.443 101.728 205.048 101.664C204.675 101.867 204.419 102.085 204.28 102.32C204.141 102.555 204.072 102.784 204.072 103.008ZM211.601 102V94.064H213.105L213.233 95.456C213.478 94.9653 213.835 94.5813 214.305 94.304C214.785 94.016 215.334 93.872 215.953 93.872C216.913 93.872 217.665 94.1707 218.209 94.768C218.763 95.3653 219.041 96.256 219.041 97.44V102H217.361V97.616C217.361 96.08 216.731 95.312 215.473 95.312C214.843 95.312 214.321 95.536 213.905 95.984C213.499 96.432 213.297 97.072 213.297 97.904V102H211.601Z" fill="black"/>
<path d="M31.6304 78.4164C28.2059 80.5182 26.1256 82.4213 26.8269 87.33C27.5358 92.292 28.2503 91.3485 30.6431 95.7502C33.0359 100.152 29.3193 100.012 31.6011 107.945C33.8078 115.617 40.9605 117.665 52.3636 114.705C63.7668 111.745 64.6362 102.279 59.8133 94.1299C56.1962 88.0179 56.5966 87.8625 49.2481 82.3725C40.2895 75.6797 36.5293 75.4097 31.6304 78.4164Z" fill="#EAE0FF"/>
<path d="M53.3392 103.549C53.2445 105.862 53.5582 106.558 52.8392 106.517C52.0758 106.472 51.558 105.747 51.1763 105.086C49.6377 102.429 48.3787 99.6177 47.2603 96.7582C46.9333 95.9235 46.6123 95.0401 46.7321 94.1508C46.8504 93.2616 47.6405 92.766 48.4645 92.4047C49.401 91.9933 49.8019 92.4622 50.1422 93.9045C50.4247 95.1006 50.3952 95.3808 49.475 95.6919C48.1109 96.1521 47.5206 94.7053 46.9762 93.6701C45.1654 90.228 44.8754 86.0235 46.198 82.3675C46.3844 81.8514 46.6788 81.2792 47.2188 81.173C47.9334 81.0299 48.4793 81.7806 48.8018 82.431C52.0861 89.0423 53.6588 96.4898 53.3274 103.859C53.3067 104.312 53.2504 104.822 52.8895 105.098C52.5492 105.357 52.0684 105.304 51.6512 105.204C49.4468 104.679 46.67 102.365 44.5218 101.647C42.9655 101.126 38.3038 100.044 35.6882 100.044C35.1926 100.044 34.0061 94.9634 34.7236 94.6169C35.9737 94.0152 44.0647 89.1573 46.5694 84.0547C46.6034 88.7621 47.4896 95.4117 50.5046 102.404C50.5845 102.588 50.6511 102.793 50.5993 102.988C50.5179 103.3 50.1318 103.449 49.8137 103.39C49.4957 103.331 49.2264 103.125 48.9646 102.936C45.516 100.451 41.0289 100.056 36.7859 99.746C36.7327 101.121 37.4709 103.365 38.2372 104.508C37.604 105.139 36.2119 104.93 35.5757 104.302C35.3597 104.088 35.2739 103.781 35.197 103.487L33.0252 95.2923C31.7736 95.5931 29.6743 95.9574 28.7378 96.8378C27.8028 97.7183 29.5205 100.656 30.022 100.694C31.1375 100.778 31.497 99.9363 31.3742 99.5057C31.2514 99.075 31.0324 98.6562 31.0591 98.2094C31.0857 97.7625 31.5236 97.3009 31.9393 97.469C32.4542 97.677 32.2914 98.4261 32.1464 98.96C31.6567 100.762 32.4763 102.632 33.2752 104.321C33.4202 104.626 33.5859 104.955 33.8892 105.105C34.1925 105.256 34.7709 105.088 34.6733 104.762C34.3863 103.799 32.6613 104.891 31.6553 104.955" stroke="#1F3758" stroke-miterlimit="10" stroke-linecap="round" stroke-linejoin="round"/>
<rect x="125" y="133" width="59" height="29" rx="14.5" fill="#E9EBED"/>
<rect x="125" y="133" width="59" height="29" rx="14.5" stroke="#D3D7DB"/>
<path d="M155.002 152V143.516L153.42 143.866V143.054L155.394 142.2H156.192V152H155.002ZM158.947 152V143.516L157.365 143.866V143.054L159.339 142.2H160.137V152H158.947ZM165.159 152.168C164.515 152.168 163.937 152.051 163.423 151.818C162.91 151.575 162.504 151.244 162.205 150.824C161.916 150.395 161.771 149.9 161.771 149.34C161.771 148.743 161.944 148.206 162.289 147.73C162.644 147.254 163.111 146.937 163.689 146.778C163.157 146.601 162.747 146.316 162.457 145.924C162.168 145.532 162.023 145.103 162.023 144.636C162.023 144.16 162.149 143.726 162.401 143.334C162.653 142.933 163.013 142.615 163.479 142.382C163.946 142.149 164.506 142.032 165.159 142.032C165.813 142.032 166.373 142.149 166.839 142.382C167.306 142.615 167.665 142.933 167.917 143.334C168.169 143.726 168.295 144.16 168.295 144.636C168.295 145.093 168.151 145.523 167.861 145.924C167.572 146.316 167.161 146.601 166.629 146.778C167.208 146.937 167.67 147.254 168.015 147.73C168.37 148.206 168.547 148.743 168.547 149.34C168.547 149.9 168.398 150.395 168.099 150.824C167.81 151.244 167.409 151.575 166.895 151.818C166.382 152.051 165.803 152.168 165.159 152.168ZM165.159 146.358C165.757 146.358 166.228 146.209 166.573 145.91C166.928 145.602 167.105 145.201 167.105 144.706C167.105 144.155 166.933 143.74 166.587 143.46C166.242 143.18 165.766 143.04 165.159 143.04C164.553 143.04 164.077 143.18 163.731 143.46C163.395 143.74 163.227 144.155 163.227 144.706C163.227 145.201 163.4 145.602 163.745 145.91C164.091 146.209 164.562 146.358 165.159 146.358ZM165.159 151.132C165.897 151.132 166.447 150.964 166.811 150.628C167.185 150.283 167.371 149.83 167.371 149.27C167.371 148.635 167.171 148.155 166.769 147.828C166.368 147.501 165.831 147.338 165.159 147.338C164.487 147.338 163.951 147.501 163.549 147.828C163.148 148.155 162.947 148.635 162.947 149.27C162.947 149.83 163.129 150.283 163.493 150.628C163.867 150.964 164.422 151.132 165.159 151.132Z" fill="black"/>
<path d="M146.781 143.834C146.781 143.827 146.78 143.819 146.78 143.812C146.779 143.805 146.779 143.799 146.778 143.793C146.777 143.786 146.776 143.779 146.775 143.772C146.773 143.766 146.772 143.76 146.771 143.754C146.769 143.747 146.768 143.74 146.766 143.734C146.764 143.728 146.762 143.721 146.76 143.715C146.758 143.709 146.756 143.703 146.753 143.696C146.751 143.69 146.748 143.684 146.746 143.678C146.743 143.672 146.74 143.666 146.737 143.66C146.734 143.654 146.731 143.649 146.728 143.643C146.725 143.637 146.721 143.632 146.718 143.626C146.714 143.62 146.71 143.615 146.706 143.609C146.703 143.604 146.699 143.599 146.695 143.594C146.69 143.588 146.686 143.582 146.681 143.577C146.679 143.574 146.677 143.572 146.674 143.569C146.673 143.567 146.67 143.565 146.668 143.563C146.663 143.558 146.658 143.553 146.653 143.548C146.648 143.544 146.644 143.539 146.639 143.535C146.634 143.531 146.629 143.527 146.624 143.523C146.618 143.519 146.613 143.514 146.607 143.51C146.602 143.507 146.597 143.504 146.591 143.5C146.585 143.497 146.58 143.493 146.574 143.489C146.568 143.486 146.562 143.484 146.557 143.481C146.551 143.478 146.545 143.475 146.539 143.472C146.532 143.469 146.526 143.467 146.519 143.464C146.514 143.462 146.508 143.46 146.502 143.458C146.495 143.456 146.488 143.454 146.481 143.452C146.476 143.451 146.47 143.449 146.464 143.448C146.457 143.446 146.45 143.445 146.443 143.444C146.437 143.443 146.431 143.442 146.425 143.441C146.418 143.44 146.411 143.439 146.404 143.439C146.398 143.438 146.391 143.438 146.384 143.438C146.381 143.438 146.378 143.438 146.375 143.438H136.625C136.622 143.438 136.62 143.438 136.617 143.438C136.609 143.438 136.602 143.438 136.595 143.439C136.588 143.439 136.582 143.44 136.576 143.441C136.569 143.442 136.563 143.443 136.556 143.444C136.549 143.445 136.543 143.446 136.536 143.448C136.53 143.449 136.524 143.451 136.518 143.452C136.511 143.454 136.505 143.456 136.498 143.458C136.492 143.46 136.486 143.462 136.48 143.465C136.474 143.467 136.468 143.469 136.462 143.472C136.455 143.475 136.449 143.478 136.443 143.481C136.437 143.484 136.432 143.486 136.427 143.489C136.42 143.493 136.414 143.497 136.408 143.501C136.403 143.504 136.398 143.507 136.393 143.51C136.387 143.514 136.382 143.519 136.376 143.523C136.371 143.527 136.366 143.531 136.361 143.535C136.356 143.539 136.352 143.544 136.347 143.548C136.342 143.553 136.337 143.558 136.332 143.563C136.33 143.565 136.327 143.567 136.326 143.569C136.323 143.572 136.321 143.574 136.319 143.577C136.314 143.582 136.31 143.588 136.305 143.594C136.301 143.599 136.297 143.604 136.294 143.609C136.29 143.615 136.286 143.62 136.282 143.626C136.279 143.632 136.275 143.637 136.272 143.643C136.269 143.649 136.266 143.654 136.263 143.66C136.26 143.666 136.257 143.672 136.254 143.678C136.251 143.684 136.249 143.69 136.247 143.696C136.244 143.703 136.242 143.709 136.24 143.715C136.238 143.721 136.236 143.728 136.234 143.734C136.232 143.74 136.231 143.747 136.229 143.754C136.228 143.76 136.227 143.766 136.225 143.772C136.224 143.779 136.223 143.786 136.222 143.793C136.221 143.799 136.221 143.805 136.22 143.812C136.22 143.819 136.219 143.827 136.219 143.834C136.219 143.837 136.219 143.84 136.219 143.844V150.75C136.219 150.965 136.305 151.172 136.457 151.324C136.609 151.477 136.816 151.562 137.031 151.562H145.969C146.184 151.562 146.391 151.477 146.543 151.324C146.695 151.172 146.781 150.965 146.781 150.75V143.844C146.781 143.84 146.781 143.837 146.781 143.834ZM145.331 144.25L141.5 147.761L137.669 144.25H145.331ZM145.969 150.75H137.031V144.767L141.225 148.612C141.3 148.681 141.398 148.719 141.5 148.719C141.602 148.719 141.7 148.681 141.775 148.612L145.969 144.767L145.969 150.75L145.969 150.75Z" fill="black"/>
<rect x="187" y="133" width="59" height="29" rx="14.5" fill="#E9EBED"/>
<rect x="187" y="133" width="59" height="29" rx="14.5" stroke="#D3D7DB"/>
<path d="M206.209 152.375V151.292C206.209 150.717 205.98 150.166 205.574 149.76C205.168 149.353 204.617 149.125 204.042 149.125H199.709C199.134 149.125 198.583 149.353 198.177 149.76C197.77 150.166 197.542 150.717 197.542 151.292V152.375" stroke="black" stroke-linecap="round" stroke-linejoin="round"/>
<path d="M201.875 146.958C203.071 146.958 204.041 145.988 204.041 144.792C204.041 143.595 203.071 142.625 201.875 142.625C200.678 142.625 199.708 143.595 199.708 144.792C199.708 145.988 200.678 146.958 201.875 146.958Z" stroke="black" stroke-linecap="round" stroke-linejoin="round"/>
<path d="M209.459 152.375V151.292C209.459 150.811 209.299 150.345 209.005 149.966C208.711 149.586 208.299 149.315 207.834 149.195" stroke="black" stroke-linecap="round" stroke-linejoin="round"/>
<path d="M205.666 142.695C206.132 142.815 206.545 143.086 206.84 143.466C207.135 143.846 207.295 144.313 207.295 144.794C207.295 145.275 207.135 145.743 206.84 146.123C206.545 146.503 206.132 146.774 205.666 146.893" stroke="black" stroke-linecap="round" stroke-linejoin="round"/>
<path d="M219.27 152.168C218.626 152.168 218.047 152.051 217.534 151.818C217.021 151.575 216.615 151.244 216.316 150.824C216.027 150.395 215.882 149.9 215.882 149.34C215.882 148.743 216.055 148.206 216.4 147.73C216.755 147.254 217.221 146.937 217.8 146.778C217.268 146.601 216.857 146.316 216.568 145.924C216.279 145.532 216.134 145.103 216.134 144.636C216.134 144.16 216.26 143.726 216.512 143.334C216.764 142.933 217.123 142.615 217.59 142.382C218.057 142.149 218.617 142.032 219.27 142.032C219.923 142.032 220.483 142.149 220.95 142.382C221.417 142.615 221.776 142.933 222.028 143.334C222.28 143.726 222.406 144.16 222.406 144.636C222.406 145.093 222.261 145.523 221.972 145.924C221.683 146.316 221.272 146.601 220.74 146.778C221.319 146.937 221.781 147.254 222.126 147.73C222.481 148.206 222.658 148.743 222.658 149.34C222.658 149.9 222.509 150.395 222.21 150.824C221.921 151.244 221.519 151.575 221.006 151.818C220.493 152.051 219.914 152.168 219.27 152.168ZM219.27 146.358C219.867 146.358 220.339 146.209 220.684 145.91C221.039 145.602 221.216 145.201 221.216 144.706C221.216 144.155 221.043 143.74 220.698 143.46C220.353 143.18 219.877 143.04 219.27 143.04C218.663 143.04 218.187 143.18 217.842 143.46C217.506 143.74 217.338 144.155 217.338 144.706C217.338 145.201 217.511 145.602 217.856 145.91C218.201 146.209 218.673 146.358 219.27 146.358ZM219.27 151.132C220.007 151.132 220.558 150.964 220.922 150.628C221.295 150.283 221.482 149.83 221.482 149.27C221.482 148.635 221.281 148.155 220.88 147.828C220.479 147.501 219.942 147.338 219.27 147.338C218.598 147.338 218.061 147.501 217.66 147.828C217.259 148.155 217.058 148.635 217.058 149.27C217.058 149.83 217.24 150.283 217.604 150.628C217.977 150.964 218.533 151.132 219.27 151.132ZM223.915 152V151.174C224.577 150.651 225.203 150.124 225.791 149.592C226.388 149.051 226.915 148.519 227.373 147.996C227.839 147.473 228.203 146.96 228.465 146.456C228.735 145.952 228.871 145.467 228.871 145C228.871 144.655 228.81 144.333 228.689 144.034C228.577 143.735 228.39 143.497 228.129 143.32C227.867 143.133 227.513 143.04 227.065 143.04C226.635 143.04 226.276 143.138 225.987 143.334C225.697 143.521 225.478 143.773 225.329 144.09C225.189 144.407 225.119 144.748 225.119 145.112H223.985C223.985 144.468 224.12 143.917 224.391 143.46C224.661 142.993 225.03 142.639 225.497 142.396C225.963 142.153 226.491 142.032 227.079 142.032C227.947 142.032 228.656 142.279 229.207 142.774C229.767 143.259 230.047 143.987 230.047 144.958C230.047 145.537 229.902 146.111 229.613 146.68C229.323 147.24 228.955 147.786 228.507 148.318C228.059 148.841 227.578 149.331 227.065 149.788C226.561 150.245 226.089 150.656 225.651 151.02H230.383V152H223.915Z" fill="black"/>
<rect x="249" y="133" width="81" height="29" rx="14.5" fill="#E9EBED"/>
<rect x="249" y="133" width="81" height="29" rx="14.5" stroke="#D3D7DB"/>
<path fill-rule="evenodd" clip-rule="evenodd" d="M268.955 144.048C268.037 143.131 266.819 142.625 265.521 142.625C262.845 142.625 260.666 144.802 260.666 147.478C260.665 148.333 260.888 149.168 261.314 149.904L260.625 152.419L263.199 151.743C263.907 152.131 264.707 152.334 265.519 152.335H265.521C268.196 152.335 270.373 150.158 270.375 147.481C270.375 146.184 269.87 144.966 268.955 144.048ZM265.521 151.515H265.519C264.795 151.515 264.084 151.32 263.466 150.953L263.318 150.866L261.79 151.266L262.198 149.777L262.102 149.625C261.698 148.982 261.485 148.24 261.485 147.478C261.485 145.255 263.296 143.445 265.522 143.445C266.6 143.445 267.612 143.866 268.374 144.628C269.136 145.391 269.555 146.403 269.555 147.481C269.555 149.706 267.744 151.515 265.521 151.515ZM267.733 148.493C267.612 148.433 267.016 148.14 266.904 148.1C266.793 148.059 266.712 148.04 266.631 148.16C266.551 148.282 266.319 148.555 266.247 148.636C266.178 148.716 266.106 148.727 265.986 148.666C265.863 148.606 265.473 148.478 265.01 148.063C264.649 147.743 264.405 147.344 264.335 147.224C264.264 147.102 264.327 147.037 264.388 146.976C264.443 146.922 264.51 146.835 264.57 146.764C264.63 146.694 264.651 146.643 264.692 146.562C264.732 146.481 264.711 146.41 264.681 146.349C264.651 146.289 264.408 145.691 264.307 145.448C264.208 145.212 264.108 145.245 264.034 145.24C263.964 145.237 263.883 145.237 263.802 145.237C263.721 145.237 263.589 145.267 263.478 145.389C263.367 145.51 263.055 145.804 263.055 146.4C263.055 146.997 263.489 147.575 263.55 147.656C263.61 147.735 264.405 148.96 265.622 149.485C265.911 149.611 266.136 149.685 266.312 149.741C266.603 149.833 266.868 149.82 267.077 149.79C267.311 149.755 267.795 149.496 267.896 149.212C267.996 148.93 267.996 148.687 267.966 148.636C267.936 148.585 267.855 148.555 267.733 148.493Z" fill="black"/>
<path d="M302.375 147.229C302.377 147.944 302.21 148.649 301.887 149.288C301.505 150.052 300.918 150.695 300.191 151.145C299.464 151.595 298.626 151.833 297.771 151.833C297.056 151.835 296.351 151.668 295.712 151.346L292.625 152.375L293.654 149.288C293.332 148.649 293.165 147.944 293.167 147.229C293.167 146.374 293.405 145.536 293.855 144.809C294.305 144.082 294.948 143.495 295.712 143.113C296.351 142.79 297.056 142.623 297.771 142.625H298.042C299.171 142.687 300.237 143.164 301.037 143.963C301.836 144.763 302.313 145.829 302.375 146.958V147.229Z" stroke="black" stroke-width="0.845" stroke-linecap="round" stroke-linejoin="round"/>
<path d="M286.781 143.834C286.781 143.827 286.78 143.819 286.78 143.812C286.779 143.805 286.779 143.799 286.778 143.793C286.777 143.786 286.776 143.779 286.775 143.772C286.773 143.766 286.772 143.76 286.771 143.754C286.769 143.747 286.768 143.74 286.766 143.734C286.764 143.728 286.762 143.721 286.76 143.715C286.758 143.709 286.756 143.703 286.753 143.696C286.751 143.69 286.748 143.684 286.746 143.678C286.743 143.672 286.74 143.666 286.737 143.66C286.734 143.654 286.731 143.649 286.728 143.643C286.725 143.637 286.721 143.632 286.718 143.626C286.714 143.62 286.71 143.615 286.706 143.609C286.703 143.604 286.699 143.599 286.695 143.594C286.69 143.588 286.686 143.582 286.681 143.577C286.679 143.574 286.677 143.572 286.674 143.569C286.673 143.567 286.67 143.565 286.668 143.563C286.663 143.558 286.658 143.553 286.653 143.548C286.648 143.544 286.644 143.539 286.639 143.535C286.634 143.531 286.629 143.527 286.624 143.523C286.618 143.519 286.613 143.514 286.607 143.51C286.602 143.507 286.597 143.504 286.591 143.5C286.585 143.497 286.58 143.493 286.574 143.489C286.568 143.486 286.562 143.484 286.557 143.481C286.551 143.478 286.545 143.475 286.539 143.472C286.532 143.469 286.526 143.467 286.519 143.464C286.514 143.462 286.508 143.46 286.502 143.458C286.495 143.456 286.488 143.454 286.481 143.452C286.476 143.451 286.47 143.449 286.464 143.448C286.457 143.446 286.45 143.445 286.443 143.444C286.437 143.443 286.431 143.442 286.425 143.441C286.418 143.44 286.411 143.439 286.404 143.439C286.398 143.438 286.391 143.438 286.384 143.438C286.381 143.438 286.378 143.438 286.375 143.438H276.625C276.622 143.438 276.62 143.438 276.617 143.438C276.609 143.438 276.602 143.438 276.595 143.439C276.588 143.439 276.582 143.44 276.576 143.441C276.569 143.442 276.563 143.443 276.556 143.444C276.549 143.445 276.543 143.446 276.536 143.448C276.53 143.449 276.524 143.451 276.518 143.452C276.511 143.454 276.505 143.456 276.498 143.458C276.492 143.46 276.486 143.462 276.48 143.465C276.474 143.467 276.468 143.469 276.462 143.472C276.455 143.475 276.449 143.478 276.443 143.481C276.437 143.484 276.432 143.486 276.427 143.489C276.42 143.493 276.414 143.497 276.408 143.501C276.403 143.504 276.398 143.507 276.393 143.51C276.387 143.514 276.382 143.519 276.376 143.523C276.371 143.527 276.366 143.531 276.361 143.535C276.356 143.539 276.352 143.544 276.347 143.548C276.342 143.553 276.337 143.558 276.332 143.563C276.33 143.565 276.327 143.567 276.326 143.569C276.323 143.572 276.321 143.574 276.319 143.577C276.314 143.582 276.31 143.588 276.305 143.594C276.301 143.599 276.297 143.604 276.294 143.609C276.29 143.615 276.286 143.62 276.282 143.626C276.279 143.632 276.275 143.637 276.272 143.643C276.269 143.649 276.266 143.654 276.263 143.66C276.26 143.666 276.257 143.672 276.254 143.678C276.251 143.684 276.249 143.69 276.247 143.696C276.244 143.703 276.242 143.709 276.24 143.715C276.238 143.721 276.236 143.728 276.234 143.734C276.232 143.74 276.231 143.747 276.229 143.754C276.228 143.76 276.227 143.766 276.225 143.772C276.224 143.779 276.223 143.786 276.222 143.793C276.221 143.799 276.221 143.805 276.22 143.812C276.22 143.819 276.219 143.827 276.219 143.834C276.219 143.837 276.219 143.84 276.219 143.844V150.75C276.219 150.965 276.305 151.172 276.457 151.324C276.609 151.477 276.816 151.562 277.031 151.562H285.969C286.184 151.562 286.391 151.477 286.543 151.324C286.695 151.172 286.781 150.965 286.781 150.75V143.844C286.781 143.84 286.781 143.837 286.781 143.834ZM285.331 144.25L281.5 147.761L277.669 144.25H285.331ZM285.969 150.75H277.031V144.767L281.225 148.612C281.3 148.681 281.398 148.719 281.5 148.719C281.602 148.719 281.7 148.681 281.775 148.612L285.969 144.767L285.969 150.75L285.969 150.75Z" fill="black"/>
<path d="M313.5 142.219C312.583 142.219 311.681 142.458 310.884 142.913C310.088 143.367 309.423 144.021 308.956 144.81C308.488 145.6 308.235 146.497 308.219 147.414C308.204 148.332 308.428 149.237 308.869 150.041L308.435 151.56C308.395 151.7 308.394 151.847 308.43 151.987C308.466 152.128 308.54 152.256 308.642 152.358C308.744 152.46 308.872 152.534 309.013 152.57C309.153 152.606 309.3 152.605 309.44 152.565L310.959 152.131C311.665 152.518 312.45 152.739 313.254 152.776C314.059 152.814 314.861 152.667 315.6 152.346C316.339 152.026 316.995 151.541 317.517 150.929C318.04 150.316 318.416 149.592 318.616 148.812C318.816 148.032 318.835 147.217 318.671 146.428C318.508 145.64 318.166 144.899 317.672 144.263C317.179 143.626 316.546 143.111 315.823 142.757C315.1 142.403 314.305 142.219 313.5 142.219ZM313.5 151.969C312.697 151.969 311.91 151.753 311.22 151.344C311.172 151.316 311.119 151.297 311.064 151.29C311.009 151.283 310.953 151.287 310.9 151.302L309.217 151.783L309.698 150.1C309.713 150.047 309.717 149.991 309.71 149.936C309.703 149.881 309.684 149.828 309.656 149.781C309.153 148.933 308.944 147.942 309.062 146.963C309.181 145.984 309.62 145.072 310.311 144.368C311.002 143.664 311.906 143.209 312.883 143.073C313.859 142.937 314.854 143.128 315.711 143.615C316.568 144.103 317.239 144.861 317.621 145.77C318.002 146.679 318.072 147.689 317.82 148.643C317.568 149.596 317.007 150.439 316.226 151.041C315.445 151.642 314.486 151.969 313.5 151.969ZM316.225 146.4C316.262 146.438 316.292 146.483 316.313 146.532C316.333 146.581 316.344 146.634 316.344 146.688C316.344 146.741 316.333 146.794 316.313 146.843C316.292 146.892 316.262 146.937 316.225 146.975L314.6 148.6C314.562 148.637 314.517 148.667 314.468 148.688C314.419 148.708 314.366 148.719 314.313 148.719C314.259 148.719 314.206 148.708 314.157 148.688C314.108 148.667 314.063 148.637 314.025 148.6L312.688 147.262L311.35 148.6C311.312 148.638 311.267 148.667 311.218 148.688C311.169 148.708 311.116 148.719 311.062 148.719C311.009 148.719 310.956 148.708 310.907 148.688C310.858 148.668 310.813 148.638 310.775 148.6C310.737 148.562 310.707 148.517 310.687 148.468C310.667 148.419 310.656 148.366 310.656 148.313C310.656 148.259 310.667 148.206 310.687 148.157C310.708 148.108 310.737 148.063 310.775 148.025L312.4 146.4C312.476 146.324 312.58 146.281 312.688 146.281C312.795 146.281 312.899 146.324 312.975 146.4L314.313 147.738L315.65 146.4C315.726 146.324 315.83 146.281 315.938 146.281C316.045 146.281 316.149 146.324 316.225 146.4V146.4Z" fill="black"/>
<rect x="25" y="133" width="97" height="29" rx="14.5" fill="#E9EBED"/>
<rect x="25" y="133" width="97" height="29" rx="14.5" stroke="#D3D7DB"/>
<path d="M55.002 152V143.516L53.42 143.866V143.054L55.394 142.2H56.192V152H55.002ZM61.2146 152.168C60.5706 152.168 59.9919 152.051 59.4786 151.818C58.9653 151.575 58.5593 151.244 58.2606 150.824C57.9713 150.395 57.8266 149.9 57.8266 149.34C57.8266 148.743 57.9993 148.206 58.3446 147.73C58.6993 147.254 59.1659 146.937 59.7446 146.778C59.2126 146.601 58.8019 146.316 58.5126 145.924C58.2233 145.532 58.0786 145.103 58.0786 144.636C58.0786 144.16 58.2046 143.726 58.4566 143.334C58.7086 142.933 59.0679 142.615 59.5346 142.382C60.0013 142.149 60.5613 142.032 61.2146 142.032C61.8679 142.032 62.4279 142.149 62.8946 142.382C63.3613 142.615 63.7206 142.933 63.9726 143.334C64.2246 143.726 64.3506 144.16 64.3506 144.636C64.3506 145.093 64.2059 145.523 63.9166 145.924C63.6273 146.316 63.2166 146.601 62.6846 146.778C63.2633 146.937 63.7253 147.254 64.0706 147.73C64.4253 148.206 64.6026 148.743 64.6026 149.34C64.6026 149.9 64.4533 150.395 64.1546 150.824C63.8653 151.244 63.4639 151.575 62.9506 151.818C62.4373 152.051 61.8586 152.168 61.2146 152.168ZM61.2146 146.358C61.8119 146.358 62.2833 146.209 62.6286 145.91C62.9833 145.602 63.1606 145.201 63.1606 144.706C63.1606 144.155 62.9879 143.74 62.6426 143.46C62.2973 143.18 61.8213 143.04 61.2146 143.04C60.6079 143.04 60.1319 143.18 59.7866 143.46C59.4506 143.74 59.2826 144.155 59.2826 144.706C59.2826 145.201 59.4553 145.602 59.8006 145.91C60.1459 146.209 60.6173 146.358 61.2146 146.358ZM61.2146 151.132C61.9519 151.132 62.5026 150.964 62.8666 150.628C63.2399 150.283 63.4266 149.83 63.4266 149.27C63.4266 148.635 63.2259 148.155 62.8246 147.828C62.4233 147.501 61.8866 147.338 61.2146 147.338C60.5426 147.338 60.0059 147.501 59.6046 147.828C59.2033 148.155 59.0026 148.635 59.0026 149.27C59.0026 149.83 59.1846 150.283 59.5486 150.628C59.9219 150.964 60.4773 151.132 61.2146 151.132ZM65.123 153.33L68.637 141.304H69.799L66.285 153.33H65.123ZM74.5043 152.168C73.6363 152.168 72.885 151.958 72.2503 151.538C71.625 151.109 71.1443 150.516 70.8083 149.76C70.4723 148.995 70.3043 148.108 70.3043 147.1C70.3043 146.092 70.4723 145.21 70.8083 144.454C71.1443 143.689 71.625 143.096 72.2503 142.676C72.885 142.247 73.6363 142.032 74.5043 142.032C75.3723 142.032 76.119 142.247 76.7443 142.676C77.3697 143.096 77.8503 143.689 78.1863 144.454C78.5223 145.21 78.6903 146.092 78.6903 147.1C78.6903 148.108 78.5223 148.995 78.1863 149.76C77.8503 150.516 77.3697 151.109 76.7443 151.538C76.119 151.958 75.3723 152.168 74.5043 152.168ZM74.5043 151.132C75.0737 151.132 75.5823 150.973 76.0303 150.656C76.4877 150.329 76.8423 149.867 77.0943 149.27C77.3557 148.663 77.4863 147.94 77.4863 147.1C77.4863 146.26 77.3557 145.541 77.0943 144.944C76.8423 144.347 76.4877 143.889 76.0303 143.572C75.5823 143.245 75.0737 143.082 74.5043 143.082C73.9257 143.082 73.4123 143.245 72.9643 143.572C72.5163 143.889 72.1617 144.347 71.9003 144.944C71.639 145.541 71.5083 146.26 71.5083 147.1C71.5083 147.94 71.639 148.663 71.9003 149.27C72.1617 149.867 72.5163 150.329 72.9643 150.656C73.4123 150.973 73.9257 151.132 74.5043 151.132ZM83.3434 152.168C82.7274 152.168 82.2 152.047 81.7614 151.804C81.3227 151.561 80.9727 151.239 80.7114 150.838C80.4594 150.427 80.3054 149.975 80.2494 149.48H81.3414C81.4347 150.012 81.6587 150.423 82.0134 150.712C82.368 151.001 82.816 151.146 83.3574 151.146C84.104 151.146 84.7247 150.801 85.2194 150.11C85.714 149.41 85.98 148.323 86.0174 146.848C85.7934 147.287 85.434 147.669 84.9394 147.996C84.454 148.313 83.866 148.472 83.1754 148.472C82.6247 148.472 82.102 148.341 81.6074 148.08C81.1127 147.819 80.7114 147.455 80.4034 146.988C80.0954 146.512 79.9414 145.957 79.9414 145.322C79.9414 144.771 80.0767 144.244 80.3474 143.74C80.6274 143.236 81.0194 142.825 81.5234 142.508C82.0274 142.191 82.6294 142.032 83.3294 142.032C84.0387 142.032 84.636 142.167 85.1214 142.438C85.6067 142.699 85.994 143.054 86.2834 143.502C86.582 143.95 86.7967 144.454 86.9274 145.014C87.0674 145.565 87.1374 146.129 87.1374 146.708C87.1374 147.791 86.988 148.743 86.6894 149.564C86.3907 150.376 85.9567 151.015 85.3874 151.482C84.8274 151.939 84.146 152.168 83.3434 152.168ZM83.4134 147.45C83.852 147.45 84.244 147.352 84.5894 147.156C84.9347 146.951 85.21 146.68 85.4154 146.344C85.6207 146.008 85.7234 145.644 85.7234 145.252C85.7234 144.832 85.6207 144.459 85.4154 144.132C85.21 143.796 84.9347 143.535 84.5894 143.348C84.244 143.161 83.852 143.068 83.4134 143.068C82.9747 143.068 82.5827 143.161 82.2374 143.348C81.892 143.535 81.6214 143.796 81.4254 144.132C81.2294 144.459 81.1314 144.837 81.1314 145.266C81.1314 145.929 81.346 146.461 81.7754 146.862C82.214 147.254 82.76 147.45 83.4134 147.45ZM87.3065 153.33L90.8205 141.304H91.9825L88.4685 153.33H87.3065ZM92.9852 152V151.174C93.6479 150.651 94.2732 150.124 94.8612 149.592C95.4585 149.051 95.9859 148.519 96.4432 147.996C96.9099 147.473 97.2739 146.96 97.5352 146.456C97.8059 145.952 97.9412 145.467 97.9412 145C97.9412 144.655 97.8805 144.333 97.7592 144.034C97.6472 143.735 97.4605 143.497 97.1992 143.32C96.9379 143.133 96.5832 143.04 96.1352 143.04C95.7059 143.04 95.3465 143.138 95.0572 143.334C94.7679 143.521 94.5485 143.773 94.3992 144.09C94.2592 144.407 94.1892 144.748 94.1892 145.112H93.0552C93.0552 144.468 93.1905 143.917 93.4612 143.46C93.7319 142.993 94.1005 142.639 94.5672 142.396C95.0339 142.153 95.5612 142.032 96.1492 142.032C97.0172 142.032 97.7265 142.279 98.2772 142.774C98.8372 143.259 99.1172 143.987 99.1172 144.958C99.1172 145.537 98.9725 146.111 98.6832 146.68C98.3939 147.24 98.0252 147.786 97.5772 148.318C97.1292 148.841 96.6485 149.331 96.1352 149.788C95.6312 150.245 95.1599 150.656 94.7212 151.02H99.4532V152H92.9852ZM100.717 152V151.174C101.38 150.651 102.005 150.124 102.593 149.592C103.19 149.051 103.718 148.519 104.175 147.996C104.642 147.473 105.006 146.96 105.267 146.456C105.538 145.952 105.673 145.467 105.673 145C105.673 144.655 105.612 144.333 105.491 144.034C105.379 143.735 105.192 143.497 104.931 143.32C104.67 143.133 104.315 143.04 103.867 143.04C103.438 143.04 103.078 143.138 102.789 143.334C102.5 143.521 102.28 143.773 102.131 144.09C101.991 144.407 101.921 144.748 101.921 145.112H100.787C100.787 144.468 100.922 143.917 101.193 143.46C101.464 142.993 101.832 142.639 102.299 142.396C102.766 142.153 103.293 142.032 103.881 142.032C104.749 142.032 105.458 142.279 106.009 142.774C106.569 143.259 106.849 143.987 106.849 144.958C106.849 145.537 106.704 146.111 106.415 146.68C106.126 147.24 105.757 147.786 105.309 148.318C104.861 148.841 104.38 149.331 103.867 149.788C103.363 150.245 102.892 150.656 102.453 151.02H107.185V152H100.717Z" fill="black"/>
<path d="M45.2917 143.167H37.7083C37.11 143.167 36.625 143.652 36.625 144.25V151.834C36.625 152.432 37.11 152.917 37.7083 152.917H45.2917C45.89 152.917 46.375 152.432 46.375 151.834V144.25C46.375 143.652 45.89 143.167 45.2917 143.167Z" stroke="black" stroke-linecap="round" stroke-linejoin="round"/>
<path d="M43.666 142.083V144.25" stroke="black" stroke-linecap="round" stroke-linejoin="round"/>
<path d="M39.334 142.083V144.25" stroke="black" stroke-linecap="round" stroke-linejoin="round"/>
<path d="M36.625 146.417H46.375" stroke="black" stroke-linecap="round" stroke-linejoin="round"/>
<rect x="289.5" y="0.5" width="73" height="28" rx="14" fill="white" stroke="#D3D7DB"/>
<path d="M306.5 10.125V18.875" stroke="black" stroke-linecap="round" stroke-linejoin="round"/>
<path d="M302.125 14.5H310.875" stroke="black" stroke-linecap="round" stroke-linejoin="round"/>
<path d="M320.364 19V9.2H321.54L326.762 17.054V9.2H327.938V19H326.762L321.54 11.146V19H320.364ZM332.788 19.168C332.126 19.168 331.538 19.0187 331.024 18.72C330.511 18.412 330.105 17.9873 329.806 17.446C329.517 16.9047 329.372 16.2653 329.372 15.528C329.372 14.8 329.517 14.1653 329.806 13.624C330.096 13.0733 330.497 12.6487 331.01 12.35C331.533 12.042 332.135 11.888 332.816 11.888C333.488 11.888 334.067 12.042 334.552 12.35C335.047 12.6487 335.425 13.0453 335.686 13.54C335.948 14.0347 336.078 14.5667 336.078 15.136C336.078 15.2387 336.074 15.3413 336.064 15.444C336.064 15.5467 336.064 15.6633 336.064 15.794H330.534C330.562 16.326 330.684 16.7693 330.898 17.124C331.122 17.4693 331.398 17.7307 331.724 17.908C332.06 18.0853 332.415 18.174 332.788 18.174C333.274 18.174 333.68 18.062 334.006 17.838C334.333 17.614 334.571 17.3107 334.72 16.928H335.882C335.696 17.572 335.336 18.1087 334.804 18.538C334.282 18.958 333.61 19.168 332.788 19.168ZM332.788 12.882C332.228 12.882 331.729 13.0547 331.29 13.4C330.861 13.736 330.614 14.2307 330.548 14.884H334.916C334.888 14.2587 334.674 13.7687 334.272 13.414C333.871 13.0593 333.376 12.882 332.788 12.882ZM338.483 19L336.453 12.056H337.629L339.099 17.502L340.723 12.056H342.053L343.691 17.502L345.147 12.056H346.337L344.307 19H343.103L341.395 13.274L339.687 19H338.483Z" fill="black"/>
<defs>
<filter id="filter0_d_801_2706" x="-2" y="186" width="379" height="144" filterUnits="userSpaceOnUse" color-interpolation-filters="sRGB">
<feFlood flood-opacity="0" result="BackgroundImageFix"/>
<feColorMatrix in="SourceAlpha" type="matrix" values="0 0 0 0 0 0 0 0 0 0 0 0 0 0 0 0 0 0 127 0" result="hardAlpha"/>
<feOffset/>
<feGaussianBlur stdDeviation="7"/>
<feComposite in2="hardAlpha" operator="out"/>
<feColorMatrix type="matrix" values="0 0 0 0 0.27106 0 0 0 0 0.291722 0 0 0 0 0.320993 0 0 0 0.12 0"/>
<feBlend mode="normal" in2="BackgroundImageFix" result="effect1_dropShadow_801_2706"/>
<feBlend mode="normal" in="SourceGraphic" in2="effect1_dropShadow_801_2706" result="shape"/>
</filter>
<filter id="filter1_d_801_2706" x="-1" y="50" width="379" height="144" filterUnits="userSpaceOnUse" color-interpolation-filters="sRGB">
<feFlood flood-opacity="0" result="BackgroundImageFix"/>
<feColorMatrix in="SourceAlpha" type="matrix" values="0 0 0 0 0 0 0 0 0 0 0 0 0 0 0 0 0 0 127 0" result="hardAlpha"/>
<feOffset/>
<feGaussianBlur stdDeviation="7"/>
<feComposite in2="hardAlpha" operator="out"/>
<feColorMatrix type="matrix" values="0 0 0 0 0.27106 0 0 0 0 0.291722 0 0 0 0 0.320993 0 0 0 0.12 0"/>
<feBlend mode="normal" in2="BackgroundImageFix" result="effect1_dropShadow_801_2706"/>
<feBlend mode="normal" in="SourceGraphic" in2="effect1_dropShadow_801_2706" result="shape"/>
</filter>
</defs>
</svg>
