<svg width="65" height="29" viewBox="0 0 65 29" fill="none" xmlns="http://www.w3.org/2000/svg">
<rect width="65" height="29" rx="14.5" fill="#E9EBED"/>
<rect width="65" height="29" rx="14.5" stroke="#D3D7DB"/>
<path fill-rule="evenodd" clip-rule="evenodd" d="M19.9547 11.0485C19.0375 10.1312 17.8187 9.625 16.5206 9.625C13.8451 9.625 11.6663 11.8022 11.6663 14.4778C11.6647 15.3331 11.8884 16.1678 12.3137 16.9042L11.625 19.4194L14.199 18.7434C14.9067 19.1306 15.7065 19.3337 16.519 19.3353H16.5206C19.1962 19.3353 21.3734 17.1581 21.375 14.481C21.375 13.1844 20.8704 11.9657 19.9547 11.0485ZM16.5206 18.5149H16.519C15.7954 18.5149 15.0845 18.3197 14.4656 17.9531L14.318 17.8658L12.7898 18.2657L13.1976 16.7772L13.1024 16.6249C12.6978 15.9822 12.4851 15.2395 12.4851 14.4778C12.4851 12.2545 14.2958 10.4454 16.5222 10.4454C17.5997 10.4454 18.6122 10.866 19.3739 11.6277C20.1356 12.391 20.5546 13.4034 20.5546 14.481C20.5546 16.7058 18.7439 18.5149 16.5206 18.5149ZM18.7328 15.4934C18.6122 15.4331 18.0155 15.1395 17.9044 15.0999C17.7933 15.0586 17.7124 15.0396 17.6315 15.1602C17.5505 15.2823 17.3188 15.5553 17.2474 15.6362C17.1776 15.7156 17.1062 15.7267 16.9856 15.6664C16.8634 15.6061 16.473 15.4775 16.0096 15.0634C15.6494 14.7428 15.405 14.3445 15.3352 14.2239C15.2638 14.1017 15.3273 14.0366 15.3876 13.9763C15.4431 13.9224 15.5098 13.8351 15.5701 13.7637C15.6304 13.6938 15.651 13.6431 15.6923 13.5621C15.7319 13.4812 15.7113 13.4098 15.6812 13.3495C15.651 13.2892 15.4082 12.6909 15.3066 12.4481C15.2083 12.2117 15.1083 12.245 15.0337 12.2402C14.9639 12.2371 14.8829 12.2371 14.802 12.2371C14.7211 12.2371 14.5894 12.2672 14.4783 12.3894C14.3672 12.51 14.0546 12.8036 14.0546 13.4003C14.0546 13.9969 14.4894 14.5746 14.5497 14.6555C14.61 14.7349 15.405 15.96 16.6222 16.4852C16.911 16.6106 17.1364 16.6852 17.3125 16.7407C17.6029 16.8328 17.8679 16.8201 18.0774 16.7899C18.3107 16.755 18.7947 16.4963 18.8962 16.2123C18.9962 15.9298 18.9962 15.687 18.9661 15.6362C18.9359 15.5854 18.855 15.5553 18.7328 15.4934Z" fill="black"/>
<path d="M37.375 14.2292C37.3769 14.9441 37.2098 15.6494 36.8875 16.2875C36.5053 17.0522 35.9178 17.6954 35.1907 18.145C34.4636 18.5947 33.6257 18.833 32.7708 18.8333C32.0559 18.8352 31.3506 18.6682 30.7125 18.3458L27.625 19.375L28.6542 16.2875C28.3318 15.6494 28.1648 14.9441 28.1667 14.2292C28.167 13.3743 28.4053 12.5364 28.855 11.8093C29.3046 11.0822 29.9478 10.4947 30.7125 10.1125C31.3506 9.79019 32.0559 9.62315 32.7708 9.62502H33.0417C34.1707 9.6873 35.2371 10.1638 36.0366 10.9634C36.8362 11.763 37.3127 12.8293 37.375 13.9583V14.2292Z" stroke="black" stroke-width="0.845" stroke-linecap="round" stroke-linejoin="round"/>
<path d="M48.5 9.21875C47.5827 9.219 46.6813 9.4581 45.8844 9.91252C45.0876 10.3669 44.4228 11.021 43.9556 11.8104C43.4883 12.5997 43.2346 13.4972 43.2195 14.4143C43.2043 15.3315 43.4283 16.2368 43.8693 17.0411L43.4353 18.5603C43.3955 18.6996 43.3936 18.847 43.43 18.9873C43.4663 19.1276 43.5395 19.2555 43.642 19.358C43.7444 19.4605 43.8724 19.5337 44.0127 19.57C44.153 19.6064 44.3004 19.6045 44.4397 19.5647L45.9589 19.1307C46.6649 19.5181 47.4501 19.7389 48.2545 19.7763C49.0589 19.8137 49.8612 19.6666 50.6 19.3464C51.3389 19.0262 51.9947 18.5412 52.5174 17.9286C53.0401 17.316 53.4158 16.5921 53.6158 15.812C53.8158 15.032 53.8347 14.2165 53.6712 13.428C53.5077 12.6395 53.1661 11.8988 52.6725 11.2626C52.1788 10.6264 51.5462 10.1115 50.823 9.75724C50.0999 9.403 49.3053 9.21881 48.5 9.21875ZM48.5 18.9688C47.6975 18.9693 46.9097 18.7535 46.2195 18.3439C46.1719 18.3156 46.1191 18.2973 46.0642 18.2902C46.0093 18.2831 45.9535 18.2872 45.9002 18.3024L44.2165 18.7835L44.6976 17.0998C44.7128 17.0466 44.7169 16.9908 44.7098 16.9359C44.7027 16.881 44.6844 16.8281 44.6561 16.7805C44.1528 15.9325 43.9441 14.9419 44.0625 13.9629C44.1809 12.9839 44.6197 12.0715 45.3107 11.3679C46.0016 10.6643 46.9059 10.209 47.8825 10.0729C48.8592 9.9368 49.8535 10.1275 50.7105 10.6154C51.5675 11.1032 52.2391 11.8608 52.6206 12.7702C53.0022 13.6795 53.0723 14.6895 52.82 15.6428C52.5678 16.5961 52.0073 17.4392 51.2259 18.0408C50.4445 18.6424 49.4861 18.9686 48.5 18.9688ZM51.2248 13.4002C51.2625 13.438 51.2924 13.4827 51.3128 13.532C51.3332 13.5813 51.3438 13.6342 51.3438 13.6875C51.3438 13.7408 51.3332 13.7937 51.3128 13.843C51.2924 13.8923 51.2625 13.937 51.2248 13.9748L49.5998 15.5998C49.562 15.6375 49.5173 15.6674 49.468 15.6878C49.4187 15.7082 49.3659 15.7188 49.3125 15.7188C49.2592 15.7188 49.2063 15.7082 49.157 15.6878C49.1078 15.6674 49.063 15.6375 49.0252 15.5998L47.6875 14.262L46.3498 15.5998C46.312 15.6375 46.2673 15.6675 46.218 15.6879C46.1687 15.7084 46.1158 15.7189 46.0624 15.7189C46.0091 15.7189 45.9562 15.7084 45.9069 15.688C45.8576 15.6676 45.8128 15.6377 45.7751 15.5999C45.7373 15.5622 45.7074 15.5174 45.687 15.4681C45.6666 15.4188 45.6561 15.3659 45.6561 15.3126C45.6561 15.2592 45.6666 15.2063 45.6871 15.157C45.7075 15.1077 45.7375 15.063 45.7752 15.0252L47.4002 13.4002C47.4764 13.3241 47.5798 13.2813 47.6875 13.2813C47.7952 13.2813 47.8986 13.3241 47.9748 13.4002L49.3125 14.738L50.6502 13.4002C50.7264 13.3241 50.8298 13.2813 50.9375 13.2813C51.0452 13.2813 51.1486 13.3241 51.2248 13.4002V13.4002Z" fill="black"/>
</svg>
