<svg width="118" height="29" viewBox="0 0 118 29" fill="none" xmlns="http://www.w3.org/2000/svg">
<rect width="118" height="29" rx="14.5" fill="#E9EBED"/>
<path d="M15.5083 19V9.2H16.6843V13.638L20.7723 9.2H22.2563L18.6163 13.106L22.3123 19H20.8843L17.7763 14.016L16.6843 15.178V19H15.5083ZM23.3068 19V12.056H24.3708L24.4688 13.386C24.6834 12.9287 25.0101 12.5647 25.4488 12.294C25.8874 12.0233 26.4288 11.888 27.0728 11.888V13.12H26.7508C26.3401 13.12 25.9621 13.1947 25.6168 13.344C25.2714 13.484 24.9961 13.7267 24.7908 14.072C24.5854 14.4173 24.4828 14.8933 24.4828 15.5V19H23.3068ZM28.8267 10.516C28.5934 10.516 28.3974 10.4413 28.2387 10.292C28.0894 10.1333 28.0147 9.93733 28.0147 9.704C28.0147 9.48 28.0894 9.29333 28.2387 9.144C28.3974 8.99467 28.5934 8.92 28.8267 8.92C29.0507 8.92 29.2421 8.99467 29.4007 9.144C29.5594 9.29333 29.6387 9.48 29.6387 9.704C29.6387 9.93733 29.5594 10.1333 29.4007 10.292C29.2421 10.4413 29.0507 10.516 28.8267 10.516ZM28.2387 19V12.056H29.4147V19H28.2387ZM33.8423 19.168C33.0117 19.168 32.321 18.958 31.7703 18.538C31.2197 18.118 30.8977 17.5487 30.8043 16.83H32.0083C32.083 17.194 32.2743 17.5113 32.5823 17.782C32.8997 18.0433 33.3243 18.174 33.8563 18.174C34.351 18.174 34.715 18.0713 34.9483 17.866C35.1817 17.6513 35.2983 17.3993 35.2983 17.11C35.2983 16.69 35.1443 16.41 34.8363 16.27C34.5377 16.13 34.113 16.004 33.5623 15.892C33.189 15.8173 32.8157 15.71 32.4423 15.57C32.069 15.43 31.7563 15.234 31.5043 14.982C31.2523 14.7207 31.1263 14.38 31.1263 13.96C31.1263 13.3533 31.3503 12.8587 31.7983 12.476C32.2557 12.084 32.8717 11.888 33.6463 11.888C34.3837 11.888 34.9857 12.0747 35.4523 12.448C35.9283 12.812 36.2037 13.3347 36.2783 14.016H35.1163C35.0697 13.6613 34.9157 13.386 34.6543 13.19C34.4023 12.9847 34.0617 12.882 33.6323 12.882C33.2123 12.882 32.8857 12.9707 32.6523 13.148C32.4283 13.3253 32.3163 13.5587 32.3163 13.848C32.3163 14.128 32.461 14.3473 32.7503 14.506C33.049 14.6647 33.4503 14.8 33.9543 14.912C34.3837 15.0053 34.7897 15.122 35.1723 15.262C35.5643 15.3927 35.8817 15.5933 36.1243 15.864C36.3763 16.1253 36.5023 16.508 36.5023 17.012C36.5117 17.6373 36.2737 18.1553 35.7883 18.566C35.3123 18.9673 34.6637 19.168 33.8423 19.168ZM40.3319 19C39.6972 19 39.1979 18.846 38.8339 18.538C38.4699 18.23 38.2879 17.6747 38.2879 16.872V13.05H37.0839V12.056H38.2879L38.4419 10.39H39.4639V12.056H41.5079V13.05H39.4639V16.872C39.4639 17.3107 39.5525 17.6093 39.7299 17.768C39.9072 17.9173 40.2199 17.992 40.6679 17.992H41.3959V19H40.3319ZM43.4359 10.516C43.2026 10.516 43.0066 10.4413 42.8479 10.292C42.6986 10.1333 42.6239 9.93733 42.6239 9.704C42.6239 9.48 42.6986 9.29333 42.8479 9.144C43.0066 8.99467 43.2026 8.92 43.4359 8.92C43.6599 8.92 43.8513 8.99467 44.0099 9.144C44.1686 9.29333 44.2479 9.48 44.2479 9.704C44.2479 9.93733 44.1686 10.1333 44.0099 10.292C43.8513 10.4413 43.6599 10.516 43.4359 10.516ZM42.8479 19V12.056H44.0239V19H42.8479ZM45.7915 19V12.056H46.8555L46.9255 13.302C47.1495 12.8633 47.4715 12.518 47.8915 12.266C48.3115 12.014 48.7875 11.888 49.3195 11.888C50.1409 11.888 50.7942 12.14 51.2795 12.644C51.7742 13.1387 52.0215 13.904 52.0215 14.94V19H50.8455V15.066C50.8455 13.6193 50.2482 12.896 49.0535 12.896C48.4562 12.896 47.9569 13.1153 47.5555 13.554C47.1635 13.9833 46.9675 14.5993 46.9675 15.402V19H45.7915ZM59.0343 19.014L56.3463 9.2H57.6063L59.7203 17.614L62.1283 9.2H63.4303L65.7683 17.614L67.9103 9.2H69.1703L66.4263 19H65.0823L62.7443 10.908L60.3503 19L59.0343 19.014ZM71.8299 19.168C71.2512 19.168 70.7706 19.07 70.3879 18.874C70.0052 18.678 69.7206 18.4167 69.5339 18.09C69.3472 17.7633 69.2539 17.4087 69.2539 17.026C69.2539 16.3167 69.5246 15.7707 70.0659 15.388C70.6072 15.0053 71.3446 14.814 72.2779 14.814H74.1539V14.73C74.1539 14.1233 73.9952 13.666 73.6779 13.358C73.3606 13.0407 72.9359 12.882 72.4039 12.882C71.9466 12.882 71.5499 12.9987 71.2139 13.232C70.8872 13.456 70.6819 13.7873 70.5979 14.226H69.3939C69.4406 13.722 69.6086 13.2973 69.8979 12.952C70.1966 12.6067 70.5652 12.3453 71.0039 12.168C71.4426 11.9813 71.9092 11.888 72.4039 11.888C73.3746 11.888 74.1026 12.1493 74.5879 12.672C75.0826 13.1853 75.3299 13.8713 75.3299 14.73V19H74.2799L74.2099 17.754C74.0139 18.146 73.7246 18.482 73.3419 18.762C72.9686 19.0327 72.4646 19.168 71.8299 19.168ZM72.0119 18.174C72.4599 18.174 72.8426 18.0573 73.1599 17.824C73.4866 17.5907 73.7339 17.2873 73.9019 16.914C74.0699 16.5407 74.1539 16.1487 74.1539 15.738V15.724H72.3759C71.6852 15.724 71.1952 15.8453 70.9059 16.088C70.6259 16.3213 70.4859 16.6153 70.4859 16.97C70.4859 17.334 70.6166 17.628 70.8779 17.852C71.1486 18.0667 71.5266 18.174 72.0119 18.174ZM79.3667 19C78.7321 19 78.2327 18.846 77.8687 18.538C77.5047 18.23 77.3227 17.6747 77.3227 16.872V13.05H76.1187V12.056H77.3227L77.4767 10.39H78.4987V12.056H80.5427V13.05H78.4987V16.872C78.4987 17.3107 78.5874 17.6093 78.7647 17.768C78.9421 17.9173 79.2547 17.992 79.7027 17.992H80.4307V19H79.3667ZM84.4168 19.168C83.5861 19.168 82.8954 18.958 82.3448 18.538C81.7941 18.118 81.4721 17.5487 81.3788 16.83H82.5828C82.6574 17.194 82.8488 17.5113 83.1568 17.782C83.4741 18.0433 83.8988 18.174 84.4308 18.174C84.9254 18.174 85.2894 18.0713 85.5228 17.866C85.7561 17.6513 85.8728 17.3993 85.8728 17.11C85.8728 16.69 85.7188 16.41 85.4108 16.27C85.1121 16.13 84.6874 16.004 84.1368 15.892C83.7634 15.8173 83.3901 15.71 83.0168 15.57C82.6434 15.43 82.3308 15.234 82.0788 14.982C81.8268 14.7207 81.7008 14.38 81.7008 13.96C81.7008 13.3533 81.9248 12.8587 82.3728 12.476C82.8301 12.084 83.4461 11.888 84.2208 11.888C84.9581 11.888 85.5601 12.0747 86.0268 12.448C86.5028 12.812 86.7781 13.3347 86.8528 14.016H85.6908C85.6441 13.6613 85.4901 13.386 85.2288 13.19C84.9768 12.9847 84.6361 12.882 84.2068 12.882C83.7868 12.882 83.4601 12.9707 83.2268 13.148C83.0028 13.3253 82.8908 13.5587 82.8908 13.848C82.8908 14.128 83.0354 14.3473 83.3248 14.506C83.6234 14.6647 84.0248 14.8 84.5288 14.912C84.9581 15.0053 85.3641 15.122 85.7468 15.262C86.1388 15.3927 86.4561 15.5933 86.6988 15.864C86.9508 16.1253 87.0768 16.508 87.0768 17.012C87.0861 17.6373 86.8481 18.1553 86.3628 18.566C85.8868 18.9673 85.2381 19.168 84.4168 19.168ZM91.6408 19.168C90.9874 19.168 90.3994 19.0187 89.8768 18.72C89.3541 18.4213 88.9388 18.0013 88.6308 17.46C88.3321 16.9093 88.1828 16.2653 88.1828 15.528C88.1828 14.7907 88.3368 14.1513 88.6448 13.61C88.9528 13.0593 89.3681 12.6347 89.8908 12.336C90.4228 12.0373 91.0154 11.888 91.6688 11.888C92.3221 11.888 92.9101 12.0373 93.4328 12.336C93.9554 12.6347 94.3661 13.0593 94.6648 13.61C94.9728 14.1513 95.1268 14.7907 95.1268 15.528C95.1268 16.2653 94.9728 16.9093 94.6648 17.46C94.3568 18.0013 93.9368 18.4213 93.4048 18.72C92.8821 19.0187 92.2941 19.168 91.6408 19.168ZM91.6408 18.16C92.0421 18.16 92.4154 18.062 92.7608 17.866C93.1061 17.67 93.3861 17.376 93.6008 16.984C93.8154 16.592 93.9228 16.1067 93.9228 15.528C93.9228 14.9493 93.8154 14.464 93.6008 14.072C93.3954 13.68 93.1201 13.386 92.7748 13.19C92.4294 12.994 92.0608 12.896 91.6688 12.896C91.2674 12.896 90.8941 12.994 90.5488 13.19C90.2034 13.386 89.9234 13.68 89.7088 14.072C89.4941 14.464 89.3868 14.9493 89.3868 15.528C89.3868 16.1067 89.4941 16.592 89.7088 16.984C89.9234 17.376 90.1988 17.67 90.5348 17.866C90.8801 18.062 91.2488 18.16 91.6408 18.16ZM96.4819 19V12.056H97.5459L97.6159 13.302C97.8399 12.8633 98.1619 12.518 98.5819 12.266C99.0019 12.014 99.4779 11.888 100.01 11.888C100.831 11.888 101.485 12.14 101.97 12.644C102.465 13.1387 102.712 13.904 102.712 14.94V19H101.536V15.066C101.536 13.6193 100.939 12.896 99.7439 12.896C99.1466 12.896 98.6473 13.1153 98.2459 13.554C97.8539 13.9833 97.6579 14.5993 97.6579 15.402V19H96.4819Z" fill="black"/>
</svg>
