<svg width="115" height="29" viewBox="0 0 115 29" fill="none" xmlns="http://www.w3.org/2000/svg">
<rect width="115" height="29" rx="14.5" fill="#E9EBED"/>
<path d="M14.8451 19L18.4571 9.2H19.7031L23.3011 19H22.0551L21.1591 16.48H16.9871L16.0771 19H14.8451ZM17.3371 15.528H20.8091L19.0731 10.684L17.3371 15.528ZM24.408 19V12.056H25.472L25.542 13.302C25.766 12.8633 26.088 12.518 26.508 12.266C26.928 12.014 27.404 11.888 27.936 11.888C28.7573 11.888 29.4107 12.14 29.896 12.644C30.3907 13.1387 30.638 13.904 30.638 14.94V19H29.462V15.066C29.462 13.6193 28.8647 12.896 27.67 12.896C27.0727 12.896 26.5733 13.1153 26.172 13.554C25.78 13.9833 25.584 14.5993 25.584 15.402V19H24.408ZM32.1397 19V12.056H33.2037L33.2737 13.302C33.4977 12.8633 33.8197 12.518 34.2397 12.266C34.6597 12.014 35.1357 11.888 35.6677 11.888C36.489 11.888 37.1424 12.14 37.6277 12.644C38.1224 13.1387 38.3697 13.904 38.3697 14.94V19H37.1937V15.066C37.1937 13.6193 36.5964 12.896 35.4017 12.896C34.8044 12.896 34.305 13.1153 33.9037 13.554C33.5117 13.9833 33.3157 14.5993 33.3157 15.402V19H32.1397ZM42.9934 19.168C42.3308 19.168 41.7428 19.0187 41.2294 18.72C40.7161 18.412 40.3101 17.9873 40.0114 17.446C39.7221 16.9047 39.5774 16.2653 39.5774 15.528C39.5774 14.8 39.7221 14.1653 40.0114 13.624C40.3008 13.0733 40.7021 12.6487 41.2154 12.35C41.7381 12.042 42.3401 11.888 43.0214 11.888C43.6934 11.888 44.2721 12.042 44.7574 12.35C45.2521 12.6487 45.6301 13.0453 45.8914 13.54C46.1528 14.0347 46.2834 14.5667 46.2834 15.136C46.2834 15.2387 46.2788 15.3413 46.2694 15.444C46.2694 15.5467 46.2694 15.6633 46.2694 15.794H40.7394C40.7674 16.326 40.8888 16.7693 41.1034 17.124C41.3274 17.4693 41.6028 17.7307 41.9294 17.908C42.2654 18.0853 42.6201 18.174 42.9934 18.174C43.4788 18.174 43.8848 18.062 44.2114 17.838C44.5381 17.614 44.7761 17.3107 44.9254 16.928H46.0874C45.9008 17.572 45.5414 18.1087 45.0094 18.538C44.4868 18.958 43.8148 19.168 42.9934 19.168ZM42.9934 12.882C42.4334 12.882 41.9341 13.0547 41.4954 13.4C41.0661 13.736 40.8188 14.2307 40.7534 14.884H45.1214C45.0934 14.2587 44.8788 13.7687 44.4774 13.414C44.0761 13.0593 43.5814 12.882 42.9934 12.882ZM50.0737 19C49.439 19 48.9397 18.846 48.5757 18.538C48.2117 18.23 48.0297 17.6747 48.0297 16.872V13.05H46.8257V12.056H48.0297L48.1837 10.39H49.2057V12.056H51.2497V13.05H49.2057V16.872C49.2057 17.3107 49.2944 17.6093 49.4717 17.768C49.649 17.9173 49.9617 17.992 50.4097 17.992H51.1377V19H50.0737ZM55.2078 19C54.5731 19 54.0738 18.846 53.7098 18.538C53.3458 18.23 53.1638 17.6747 53.1638 16.872V13.05H51.9598V12.056H53.1638L53.3178 10.39H54.3398V12.056H56.3838V13.05H54.3398V16.872C54.3398 17.3107 54.4284 17.6093 54.6058 17.768C54.7831 17.9173 55.0958 17.992 55.5438 17.992H56.2718V19H55.2078ZM60.5284 19.168C59.8658 19.168 59.2778 19.0187 58.7644 18.72C58.2511 18.412 57.8451 17.9873 57.5464 17.446C57.2571 16.9047 57.1124 16.2653 57.1124 15.528C57.1124 14.8 57.2571 14.1653 57.5464 13.624C57.8358 13.0733 58.2371 12.6487 58.7504 12.35C59.2731 12.042 59.8751 11.888 60.5564 11.888C61.2284 11.888 61.8071 12.042 62.2924 12.35C62.7871 12.6487 63.1651 13.0453 63.4264 13.54C63.6878 14.0347 63.8184 14.5667 63.8184 15.136C63.8184 15.2387 63.8138 15.3413 63.8044 15.444C63.8044 15.5467 63.8044 15.6633 63.8044 15.794H58.2744C58.3024 16.326 58.4238 16.7693 58.6384 17.124C58.8624 17.4693 59.1378 17.7307 59.4644 17.908C59.8004 18.0853 60.1551 18.174 60.5284 18.174C61.0138 18.174 61.4198 18.062 61.7464 17.838C62.0731 17.614 62.3111 17.3107 62.4604 16.928H63.6224C63.4358 17.572 63.0764 18.1087 62.5444 18.538C62.0218 18.958 61.3498 19.168 60.5284 19.168ZM60.5284 12.882C59.9684 12.882 59.4691 13.0547 59.0304 13.4C58.6011 13.736 58.3538 14.2307 58.2884 14.884H62.6564C62.6284 14.2587 62.4138 13.7687 62.0124 13.414C61.6111 13.0593 61.1164 12.882 60.5284 12.882ZM68.5922 19V9.2H72.0362C72.7269 9.2 73.2962 9.312 73.7442 9.536C74.2015 9.75067 74.5422 10.0493 74.7662 10.432C74.9902 10.8053 75.1022 11.2253 75.1022 11.692C75.1022 12.3267 74.9295 12.826 74.5842 13.19C74.2482 13.554 73.8422 13.806 73.3662 13.946C73.7302 14.0113 74.0615 14.156 74.3602 14.38C74.6589 14.604 74.8922 14.884 75.0602 15.22C75.2375 15.556 75.3262 15.9247 75.3262 16.326C75.3262 16.8207 75.2049 17.2733 74.9622 17.684C74.7195 18.0853 74.3602 18.4073 73.8842 18.65C73.4082 18.8833 72.8295 19 72.1482 19H68.5922ZM69.7682 13.484H71.9522C72.5775 13.484 73.0582 13.3393 73.3942 13.05C73.7302 12.7513 73.8982 12.3407 73.8982 11.818C73.8982 11.3233 73.7302 10.9267 73.3942 10.628C73.0675 10.3293 72.5729 10.18 71.9102 10.18H69.7682V13.484ZM69.7682 18.02H72.0222C72.6942 18.02 73.2122 17.866 73.5762 17.558C73.9402 17.2407 74.1222 16.802 74.1222 16.242C74.1222 15.6913 73.9309 15.2527 73.5482 14.926C73.1655 14.59 72.6475 14.422 71.9942 14.422H69.7682V18.02ZM76.6641 19V8.92H77.8401V19H76.6641ZM81.7976 19.168C81.2189 19.168 80.7383 19.07 80.3556 18.874C79.9729 18.678 79.6883 18.4167 79.5016 18.09C79.3149 17.7633 79.2216 17.4087 79.2216 17.026C79.2216 16.3167 79.4923 15.7707 80.0336 15.388C80.5749 15.0053 81.3123 14.814 82.2456 14.814H84.1216V14.73C84.1216 14.1233 83.9629 13.666 83.6456 13.358C83.3283 13.0407 82.9036 12.882 82.3716 12.882C81.9143 12.882 81.5176 12.9987 81.1816 13.232C80.8549 13.456 80.6496 13.7873 80.5656 14.226H79.3616C79.4083 13.722 79.5763 13.2973 79.8656 12.952C80.1643 12.6067 80.5329 12.3453 80.9716 12.168C81.4103 11.9813 81.8769 11.888 82.3716 11.888C83.3423 11.888 84.0703 12.1493 84.5556 12.672C85.0503 13.1853 85.2976 13.8713 85.2976 14.73V19H84.2476L84.1776 17.754C83.9816 18.146 83.6923 18.482 83.3096 18.762C82.9363 19.0327 82.4323 19.168 81.7976 19.168ZM81.9796 18.174C82.4276 18.174 82.8103 18.0573 83.1276 17.824C83.4543 17.5907 83.7016 17.2873 83.8696 16.914C84.0376 16.5407 84.1216 16.1487 84.1216 15.738V15.724H82.3436C81.6529 15.724 81.1629 15.8453 80.8736 16.088C80.5936 16.3213 80.4536 16.6153 80.4536 16.97C80.4536 17.334 80.5843 17.628 80.8456 17.852C81.1163 18.0667 81.4943 18.174 81.9796 18.174ZM89.9738 19.168C89.3112 19.168 88.7138 19.0187 88.1818 18.72C87.6592 18.412 87.2438 17.9873 86.9358 17.446C86.6372 16.8953 86.4878 16.256 86.4878 15.528C86.4878 14.8 86.6372 14.1653 86.9358 13.624C87.2438 13.0733 87.6592 12.6487 88.1818 12.35C88.7138 12.042 89.3112 11.888 89.9738 11.888C90.7952 11.888 91.4858 12.1027 92.0458 12.532C92.6152 12.9613 92.9745 13.5353 93.1238 14.254H91.9198C91.8265 13.8247 91.5978 13.4933 91.2338 13.26C90.8698 13.0173 90.4452 12.896 89.9598 12.896C89.5678 12.896 89.1992 12.994 88.8538 13.19C88.5085 13.386 88.2285 13.68 88.0138 14.072C87.7992 14.464 87.6918 14.9493 87.6918 15.528C87.6918 16.1067 87.7992 16.592 88.0138 16.984C88.2285 17.376 88.5085 17.6747 88.8538 17.88C89.1992 18.076 89.5678 18.174 89.9598 18.174C90.4452 18.174 90.8698 18.0573 91.2338 17.824C91.5978 17.5813 91.8265 17.2407 91.9198 16.802H93.1238C92.9838 17.502 92.6292 18.0713 92.0598 18.51C91.4905 18.9487 90.7952 19.168 89.9738 19.168ZM94.4862 19V8.92H95.6622V14.982L98.5042 12.056H99.9462L96.8662 15.192L100.338 19H98.8402L95.6622 15.402V19H94.4862Z" fill="black"/>
</svg>
