<svg width="110" height="29" viewBox="0 0 110 29" fill="none" xmlns="http://www.w3.org/2000/svg">
<rect width="110" height="29" rx="14.5" fill="#E9EBED"/>
<path d="M18.6332 19.168C17.9145 19.168 17.2892 19.0373 16.7572 18.776C16.2252 18.5147 15.8145 18.1507 15.5252 17.684C15.2359 17.2173 15.0912 16.676 15.0912 16.06H16.3232C16.3232 16.4427 16.4119 16.7973 16.5892 17.124C16.7665 17.4413 17.0232 17.698 17.3592 17.894C17.7045 18.0807 18.1292 18.174 18.6332 18.174C19.2959 18.174 19.8092 18.0153 20.1732 17.698C20.5372 17.3807 20.7192 16.984 20.7192 16.508C20.7192 16.116 20.6352 15.8033 20.4672 15.57C20.2992 15.3273 20.0705 15.1313 19.7812 14.982C19.5012 14.8327 19.1745 14.702 18.8012 14.59C18.4372 14.478 18.0545 14.352 17.6532 14.212C16.8972 13.9507 16.3372 13.6287 15.9732 13.246C15.6092 12.854 15.4272 12.3453 15.4272 11.72C15.4179 11.1973 15.5392 10.7353 15.7912 10.334C16.0432 9.92333 16.3979 9.606 16.8552 9.382C17.3219 9.14867 17.8725 9.032 18.5072 9.032C19.1325 9.032 19.6739 9.14867 20.1312 9.382C20.5979 9.61533 20.9572 9.93733 21.2092 10.348C21.4705 10.7587 21.6059 11.2253 21.6152 11.748H20.3832C20.3832 11.4773 20.3132 11.2113 20.1732 10.95C20.0332 10.6793 19.8185 10.46 19.5292 10.292C19.2492 10.124 18.8945 10.04 18.4652 10.04C17.9332 10.0307 17.4945 10.166 17.1492 10.446C16.8132 10.726 16.6452 11.1133 16.6452 11.608C16.6452 12.028 16.7619 12.35 16.9952 12.574C17.2379 12.798 17.5739 12.9847 18.0032 13.134C18.4325 13.274 18.9272 13.4373 19.4872 13.624C19.9539 13.792 20.3739 13.988 20.7472 14.212C21.1205 14.436 21.4099 14.7253 21.6152 15.08C21.8299 15.4347 21.9372 15.8873 21.9372 16.438C21.9372 16.9047 21.8159 17.348 21.5732 17.768C21.3305 18.1787 20.9619 18.5147 20.4672 18.776C19.9819 19.0373 19.3705 19.168 18.6332 19.168ZM26.3769 19.168C25.7143 19.168 25.1263 19.0187 24.6129 18.72C24.0996 18.412 23.6936 17.9873 23.3949 17.446C23.1056 16.9047 22.9609 16.2653 22.9609 15.528C22.9609 14.8 23.1056 14.1653 23.3949 13.624C23.6843 13.0733 24.0856 12.6487 24.5989 12.35C25.1216 12.042 25.7236 11.888 26.4049 11.888C27.0769 11.888 27.6556 12.042 28.1409 12.35C28.6356 12.6487 29.0136 13.0453 29.2749 13.54C29.5363 14.0347 29.6669 14.5667 29.6669 15.136C29.6669 15.2387 29.6623 15.3413 29.6529 15.444C29.6529 15.5467 29.6529 15.6633 29.6529 15.794H24.1229C24.1509 16.326 24.2723 16.7693 24.4869 17.124C24.7109 17.4693 24.9863 17.7307 25.3129 17.908C25.6489 18.0853 26.0036 18.174 26.3769 18.174C26.8623 18.174 27.2683 18.062 27.5949 17.838C27.9216 17.614 28.1596 17.3107 28.3089 16.928H29.4709C29.2843 17.572 28.9249 18.1087 28.3929 18.538C27.8703 18.958 27.1983 19.168 26.3769 19.168ZM26.3769 12.882C25.8169 12.882 25.3176 13.0547 24.8789 13.4C24.4496 13.736 24.2023 14.2307 24.1369 14.884H28.5049C28.4769 14.2587 28.2623 13.7687 27.8609 13.414C27.4596 13.0593 26.9649 12.882 26.3769 12.882ZM33.2556 19.168C32.677 19.168 32.1963 19.07 31.8136 18.874C31.431 18.678 31.1463 18.4167 30.9596 18.09C30.773 17.7633 30.6796 17.4087 30.6796 17.026C30.6796 16.3167 30.9503 15.7707 31.4916 15.388C32.033 15.0053 32.7703 14.814 33.7036 14.814H35.5796V14.73C35.5796 14.1233 35.421 13.666 35.1036 13.358C34.7863 13.0407 34.3616 12.882 33.8296 12.882C33.3723 12.882 32.9756 12.9987 32.6396 13.232C32.313 13.456 32.1076 13.7873 32.0236 14.226H30.8196C30.8663 13.722 31.0343 13.2973 31.3236 12.952C31.6223 12.6067 31.991 12.3453 32.4296 12.168C32.8683 11.9813 33.335 11.888 33.8296 11.888C34.8003 11.888 35.5283 12.1493 36.0136 12.672C36.5083 13.1853 36.7556 13.8713 36.7556 14.73V19H35.7056L35.6356 17.754C35.4396 18.146 35.1503 18.482 34.7676 18.762C34.3943 19.0327 33.8903 19.168 33.2556 19.168ZM33.4376 18.174C33.8856 18.174 34.2683 18.0573 34.5856 17.824C34.9123 17.5907 35.1596 17.2873 35.3276 16.914C35.4956 16.5407 35.5796 16.1487 35.5796 15.738V15.724H33.8016C33.111 15.724 32.621 15.8453 32.3316 16.088C32.0516 16.3213 31.9116 16.6153 31.9116 16.97C31.9116 17.334 32.0423 17.628 32.3036 17.852C32.5743 18.0667 32.9523 18.174 33.4376 18.174ZM38.2399 19V12.056H39.3039L39.3739 13.302C39.5979 12.8633 39.9199 12.518 40.3399 12.266C40.7599 12.014 41.2359 11.888 41.7679 11.888C42.5892 11.888 43.2425 12.14 43.7279 12.644C44.2225 13.1387 44.4699 13.904 44.4699 14.94V19H43.2939V15.066C43.2939 13.6193 42.6965 12.896 41.5019 12.896C40.9045 12.896 40.4052 13.1153 40.0039 13.554C39.6119 13.9833 39.4159 14.5993 39.4159 15.402V19H38.2399ZM53.7647 19.168C52.8033 19.168 51.9727 18.958 51.2727 18.538C50.582 18.1087 50.0453 17.516 49.6627 16.76C49.28 15.9947 49.0887 15.108 49.0887 14.1C49.0887 13.1013 49.28 12.224 49.6627 11.468C50.0453 10.7027 50.582 10.1053 51.2727 9.676C51.9727 9.24667 52.8033 9.032 53.7647 9.032C54.8847 9.032 55.7947 9.30267 56.4947 9.844C57.204 10.376 57.6567 11.1227 57.8527 12.084H56.5507C56.4013 11.4773 56.0933 10.992 55.6267 10.628C55.1693 10.2547 54.5487 10.068 53.7647 10.068C53.0647 10.068 52.4533 10.2313 51.9307 10.558C51.408 10.8753 51.002 11.3373 50.7127 11.944C50.4327 12.5413 50.2927 13.26 50.2927 14.1C50.2927 14.94 50.4327 15.6633 50.7127 16.27C51.002 16.8673 51.408 17.3293 51.9307 17.656C52.4533 17.9733 53.0647 18.132 53.7647 18.132C54.5487 18.132 55.1693 17.9547 55.6267 17.6C56.0933 17.236 56.4013 16.7553 56.5507 16.158H57.8527C57.6567 17.1007 57.204 17.838 56.4947 18.37C55.7947 18.902 54.8847 19.168 53.7647 19.168ZM62.3568 19.168C61.7035 19.168 61.1155 19.0187 60.5928 18.72C60.0702 18.4213 59.6548 18.0013 59.3468 17.46C59.0482 16.9093 58.8988 16.2653 58.8988 15.528C58.8988 14.7907 59.0528 14.1513 59.3608 13.61C59.6688 13.0593 60.0842 12.6347 60.6068 12.336C61.1388 12.0373 61.7315 11.888 62.3848 11.888C63.0382 11.888 63.6262 12.0373 64.1488 12.336C64.6715 12.6347 65.0822 13.0593 65.3808 13.61C65.6888 14.1513 65.8428 14.7907 65.8428 15.528C65.8428 16.2653 65.6888 16.9093 65.3808 17.46C65.0728 18.0013 64.6528 18.4213 64.1208 18.72C63.5982 19.0187 63.0102 19.168 62.3568 19.168ZM62.3568 18.16C62.7582 18.16 63.1315 18.062 63.4768 17.866C63.8222 17.67 64.1022 17.376 64.3168 16.984C64.5315 16.592 64.6388 16.1067 64.6388 15.528C64.6388 14.9493 64.5315 14.464 64.3168 14.072C64.1115 13.68 63.8362 13.386 63.4908 13.19C63.1455 12.994 62.7768 12.896 62.3848 12.896C61.9835 12.896 61.6102 12.994 61.2648 13.19C60.9195 13.386 60.6395 13.68 60.4248 14.072C60.2102 14.464 60.1028 14.9493 60.1028 15.528C60.1028 16.1067 60.2102 16.592 60.4248 16.984C60.6395 17.376 60.9148 17.67 61.2508 17.866C61.5962 18.062 61.9648 18.16 62.3568 18.16ZM70.362 19.168C69.7087 19.168 69.1207 19.0187 68.598 18.72C68.0753 18.4213 67.66 18.0013 67.352 17.46C67.0533 16.9093 66.904 16.2653 66.904 15.528C66.904 14.7907 67.058 14.1513 67.366 13.61C67.674 13.0593 68.0893 12.6347 68.612 12.336C69.144 12.0373 69.7367 11.888 70.39 11.888C71.0433 11.888 71.6313 12.0373 72.154 12.336C72.6767 12.6347 73.0873 13.0593 73.386 13.61C73.694 14.1513 73.848 14.7907 73.848 15.528C73.848 16.2653 73.694 16.9093 73.386 17.46C73.078 18.0013 72.658 18.4213 72.126 18.72C71.6033 19.0187 71.0153 19.168 70.362 19.168ZM70.362 18.16C70.7633 18.16 71.1367 18.062 71.482 17.866C71.8273 17.67 72.1073 17.376 72.322 16.984C72.5367 16.592 72.644 16.1067 72.644 15.528C72.644 14.9493 72.5367 14.464 72.322 14.072C72.1167 13.68 71.8413 13.386 71.496 13.19C71.1507 12.994 70.782 12.896 70.39 12.896C69.9887 12.896 69.6153 12.994 69.27 13.19C68.9247 13.386 68.6447 13.68 68.43 14.072C68.2153 14.464 68.108 14.9493 68.108 15.528C68.108 16.1067 68.2153 16.592 68.43 16.984C68.6447 17.376 68.92 17.67 69.256 17.866C69.6013 18.062 69.97 18.16 70.362 18.16ZM75.2031 22.08V12.056H76.2671L76.3791 13.204C76.6031 12.868 76.9205 12.5647 77.3311 12.294C77.7511 12.0233 78.2831 11.888 78.9271 11.888C79.6178 11.888 80.2198 12.0467 80.7331 12.364C81.2465 12.6813 81.6431 13.1153 81.9231 13.666C82.2125 14.2167 82.3571 14.842 82.3571 15.542C82.3571 16.242 82.2125 16.8673 81.9231 17.418C81.6431 17.9593 81.2418 18.3887 80.7191 18.706C80.2058 19.014 79.6038 19.168 78.9131 19.168C78.3438 19.168 77.8351 19.0513 77.3871 18.818C76.9485 18.5847 76.6125 18.258 76.3791 17.838V22.08H75.2031ZM78.7871 18.146C79.2538 18.146 79.6645 18.0387 80.0191 17.824C80.3738 17.6 80.6538 17.292 80.8591 16.9C81.0645 16.508 81.1671 16.0507 81.1671 15.528C81.1671 15.0053 81.0645 14.548 80.8591 14.156C80.6538 13.764 80.3738 13.4607 80.0191 13.246C79.6645 13.022 79.2538 12.91 78.7871 12.91C78.3205 12.91 77.9098 13.022 77.5551 13.246C77.2005 13.4607 76.9205 13.764 76.7151 14.156C76.5098 14.548 76.4071 15.0053 76.4071 15.528C76.4071 16.0507 76.5098 16.508 76.7151 16.9C76.9205 17.292 77.2005 17.6 77.5551 17.824C77.9098 18.0387 78.3205 18.146 78.7871 18.146ZM86.8362 19.168C86.1735 19.168 85.5855 19.0187 85.0722 18.72C84.5588 18.412 84.1528 17.9873 83.8542 17.446C83.5648 16.9047 83.4202 16.2653 83.4202 15.528C83.4202 14.8 83.5648 14.1653 83.8542 13.624C84.1435 13.0733 84.5448 12.6487 85.0582 12.35C85.5808 12.042 86.1828 11.888 86.8642 11.888C87.5362 11.888 88.1148 12.042 88.6002 12.35C89.0948 12.6487 89.4728 13.0453 89.7342 13.54C89.9955 14.0347 90.1262 14.5667 90.1262 15.136C90.1262 15.2387 90.1215 15.3413 90.1122 15.444C90.1122 15.5467 90.1122 15.6633 90.1122 15.794H84.5822C84.6102 16.326 84.7315 16.7693 84.9462 17.124C85.1702 17.4693 85.4455 17.7307 85.7722 17.908C86.1082 18.0853 86.4628 18.174 86.8362 18.174C87.3215 18.174 87.7275 18.062 88.0542 17.838C88.3808 17.614 88.6188 17.3107 88.7682 16.928H89.9302C89.7435 17.572 89.3842 18.1087 88.8522 18.538C88.3295 18.958 87.6575 19.168 86.8362 19.168ZM86.8362 12.882C86.2762 12.882 85.7768 13.0547 85.3382 13.4C84.9088 13.736 84.6615 14.2307 84.5962 14.884H88.9642C88.9362 14.2587 88.7215 13.7687 88.3202 13.414C87.9188 13.0593 87.4242 12.882 86.8362 12.882ZM91.4049 19V12.056H92.4689L92.5669 13.386C92.7815 12.9287 93.1082 12.5647 93.5469 12.294C93.9855 12.0233 94.5269 11.888 95.1709 11.888V13.12H94.8489C94.4382 13.12 94.0602 13.1947 93.7149 13.344C93.3695 13.484 93.0942 13.7267 92.8889 14.072C92.6835 14.4173 92.5809 14.8933 92.5809 15.5V19H91.4049Z" fill="black"/>
</svg>
