<svg width="97" height="29" viewBox="0 0 97 29" fill="none" xmlns="http://www.w3.org/2000/svg">
<rect width="97" height="29" rx="14.5" fill="#E9EBED"/>
<path d="M15.3344 19V9.2H21.2984V10.166H16.5104V13.61H20.5844V14.562H16.5104V19H15.3344ZM22.463 19V8.92H23.639V19H22.463ZM28.4505 19.168C27.7971 19.168 27.2091 19.0187 26.6865 18.72C26.1638 18.4213 25.7485 18.0013 25.4405 17.46C25.1418 16.9093 24.9925 16.2653 24.9925 15.528C24.9925 14.7907 25.1465 14.1513 25.4545 13.61C25.7625 13.0593 26.1778 12.6347 26.7005 12.336C27.2325 12.0373 27.8251 11.888 28.4785 11.888C29.1318 11.888 29.7198 12.0373 30.2425 12.336C30.7651 12.6347 31.1758 13.0593 31.4745 13.61C31.7825 14.1513 31.9365 14.7907 31.9365 15.528C31.9365 16.2653 31.7825 16.9093 31.4745 17.46C31.1665 18.0013 30.7465 18.4213 30.2145 18.72C29.6918 19.0187 29.1038 19.168 28.4505 19.168ZM28.4505 18.16C28.8518 18.16 29.2251 18.062 29.5705 17.866C29.9158 17.67 30.1958 17.376 30.4105 16.984C30.6251 16.592 30.7325 16.1067 30.7325 15.528C30.7325 14.9493 30.6251 14.464 30.4105 14.072C30.2051 13.68 29.9298 13.386 29.5845 13.19C29.2391 12.994 28.8705 12.896 28.4785 12.896C28.0771 12.896 27.7038 12.994 27.3585 13.19C27.0131 13.386 26.7331 13.68 26.5185 14.072C26.3038 14.464 26.1965 14.9493 26.1965 15.528C26.1965 16.1067 26.3038 16.592 26.5185 16.984C26.7331 17.376 27.0085 17.67 27.3445 17.866C27.6898 18.062 28.0585 18.16 28.4505 18.16ZM33.4871 22.08L35.2091 18.328H34.8031L32.0451 12.056H33.3191L35.6151 17.46L38.0511 12.056H39.2691L34.7191 22.08H33.4871ZM42.7241 19.168C42.0335 19.168 41.4268 19.0093 40.9041 18.692C40.3908 18.3747 39.9895 17.9407 39.7001 17.39C39.4201 16.8393 39.2801 16.214 39.2801 15.514C39.2801 14.814 39.4248 14.1933 39.7141 13.652C40.0035 13.1013 40.4048 12.672 40.9181 12.364C41.4315 12.0467 42.0381 11.888 42.7381 11.888C43.3075 11.888 43.8115 12.0047 44.2501 12.238C44.6888 12.4713 45.0295 12.798 45.2721 13.218V8.92H46.4481V19H45.3841L45.2721 17.852C45.0481 18.188 44.7261 18.4913 44.3061 18.762C43.8861 19.0327 43.3588 19.168 42.7241 19.168ZM42.8501 18.146C43.3168 18.146 43.7275 18.0387 44.0821 17.824C44.4461 17.6 44.7261 17.292 44.9221 16.9C45.1275 16.508 45.2301 16.0507 45.2301 15.528C45.2301 15.0053 45.1275 14.548 44.9221 14.156C44.7261 13.764 44.4461 13.4607 44.0821 13.246C43.7275 13.022 43.3168 12.91 42.8501 12.91C42.3928 12.91 41.9821 13.022 41.6181 13.246C41.2635 13.4607 40.9835 13.764 40.7781 14.156C40.5821 14.548 40.4841 15.0053 40.4841 15.528C40.4841 16.0507 40.5821 16.508 40.7781 16.9C40.9835 17.292 41.2635 17.6 41.6181 17.824C41.9821 18.0387 42.3928 18.146 42.8501 18.146ZM51.5802 19V9.2H52.9522L56.4802 16.032L59.9802 9.2H61.3662V19H60.1902V11.3L56.9142 17.6H56.0322L52.7562 11.314V19H51.5802ZM63.7977 10.516C63.5644 10.516 63.3684 10.4413 63.2097 10.292C63.0604 10.1333 62.9857 9.93733 62.9857 9.704C62.9857 9.48 63.0604 9.29333 63.2097 9.144C63.3684 8.99467 63.5644 8.92 63.7977 8.92C64.0217 8.92 64.2131 8.99467 64.3717 9.144C64.5304 9.29333 64.6097 9.48 64.6097 9.704C64.6097 9.93733 64.5304 10.1333 64.3717 10.292C64.2131 10.4413 64.0217 10.516 63.7977 10.516ZM63.2097 19V12.056H64.3857V19H63.2097ZM66.1533 19V8.92H67.3293V19H66.1533ZM72.0989 19.168C71.4362 19.168 70.8482 19.0187 70.3349 18.72C69.8215 18.412 69.4155 17.9873 69.1169 17.446C68.8275 16.9047 68.6829 16.2653 68.6829 15.528C68.6829 14.8 68.8275 14.1653 69.1169 13.624C69.4062 13.0733 69.8075 12.6487 70.3209 12.35C70.8435 12.042 71.4455 11.888 72.1269 11.888C72.7989 11.888 73.3775 12.042 73.8629 12.35C74.3575 12.6487 74.7355 13.0453 74.9969 13.54C75.2582 14.0347 75.3889 14.5667 75.3889 15.136C75.3889 15.2387 75.3842 15.3413 75.3749 15.444C75.3749 15.5467 75.3749 15.6633 75.3749 15.794H69.8449C69.8729 16.326 69.9942 16.7693 70.2089 17.124C70.4329 17.4693 70.7082 17.7307 71.0349 17.908C71.3709 18.0853 71.7255 18.174 72.0989 18.174C72.5842 18.174 72.9902 18.062 73.3169 17.838C73.6435 17.614 73.8815 17.3107 74.0309 16.928H75.1929C75.0062 17.572 74.6469 18.1087 74.1149 18.538C73.5922 18.958 72.9202 19.168 72.0989 19.168ZM72.0989 12.882C71.5389 12.882 71.0395 13.0547 70.6009 13.4C70.1715 13.736 69.9242 14.2307 69.8589 14.884H74.2269C74.1989 14.2587 73.9842 13.7687 73.5829 13.414C73.1815 13.0593 72.6869 12.882 72.0989 12.882ZM79.3276 19.168C78.4969 19.168 77.8062 18.958 77.2556 18.538C76.7049 18.118 76.3829 17.5487 76.2896 16.83H77.4936C77.5682 17.194 77.7596 17.5113 78.0676 17.782C78.3849 18.0433 78.8096 18.174 79.3416 18.174C79.8362 18.174 80.2002 18.0713 80.4336 17.866C80.6669 17.6513 80.7836 17.3993 80.7836 17.11C80.7836 16.69 80.6296 16.41 80.3216 16.27C80.0229 16.13 79.5982 16.004 79.0476 15.892C78.6742 15.8173 78.3009 15.71 77.9276 15.57C77.5542 15.43 77.2416 15.234 76.9896 14.982C76.7376 14.7207 76.6116 14.38 76.6116 13.96C76.6116 13.3533 76.8356 12.8587 77.2836 12.476C77.7409 12.084 78.3569 11.888 79.1316 11.888C79.8689 11.888 80.4709 12.0747 80.9376 12.448C81.4136 12.812 81.6889 13.3347 81.7636 14.016H80.6016C80.5549 13.6613 80.4009 13.386 80.1396 13.19C79.8876 12.9847 79.5469 12.882 79.1176 12.882C78.6976 12.882 78.3709 12.9707 78.1376 13.148C77.9136 13.3253 77.8016 13.5587 77.8016 13.848C77.8016 14.128 77.9462 14.3473 78.2356 14.506C78.5342 14.6647 78.9356 14.8 79.4396 14.912C79.8689 15.0053 80.2749 15.122 80.6576 15.262C81.0496 15.3927 81.3669 15.5933 81.6096 15.864C81.8616 16.1253 81.9876 16.508 81.9876 17.012C81.9969 17.6373 81.7589 18.1553 81.2736 18.566C80.7976 18.9673 80.1489 19.168 79.3276 19.168Z" fill="black"/>
</svg>
