<svg width="138" height="29" viewBox="0 0 138 29" fill="none" xmlns="http://www.w3.org/2000/svg">
<rect width="138" height="29" rx="14.5" fill="#E9EBED"/>
<path d="M18.2498 19.168C17.5312 19.168 16.9058 19.0373 16.3738 18.776C15.8418 18.5147 15.4312 18.1507 15.1418 17.684C14.8525 17.2173 14.7078 16.676 14.7078 16.06H15.9398C15.9398 16.4427 16.0285 16.7973 16.2058 17.124C16.3832 17.4413 16.6398 17.698 16.9758 17.894C17.3212 18.0807 17.7458 18.174 18.2498 18.174C18.9125 18.174 19.4258 18.0153 19.7898 17.698C20.1538 17.3807 20.3358 16.984 20.3358 16.508C20.3358 16.116 20.2518 15.8033 20.0838 15.57C19.9158 15.3273 19.6872 15.1313 19.3978 14.982C19.1178 14.8327 18.7912 14.702 18.4178 14.59C18.0538 14.478 17.6712 14.352 17.2698 14.212C16.5138 13.9507 15.9538 13.6287 15.5898 13.246C15.2258 12.854 15.0438 12.3453 15.0438 11.72C15.0345 11.1973 15.1558 10.7353 15.4078 10.334C15.6598 9.92333 16.0145 9.606 16.4718 9.382C16.9385 9.14867 17.4892 9.032 18.1238 9.032C18.7492 9.032 19.2905 9.14867 19.7478 9.382C20.2145 9.61533 20.5738 9.93733 20.8258 10.348C21.0872 10.7587 21.2225 11.2253 21.2318 11.748H19.9998C19.9998 11.4773 19.9298 11.2113 19.7898 10.95C19.6498 10.6793 19.4352 10.46 19.1458 10.292C18.8658 10.124 18.5112 10.04 18.0818 10.04C17.5498 10.0307 17.1112 10.166 16.7658 10.446C16.4298 10.726 16.2618 11.1133 16.2618 11.608C16.2618 12.028 16.3785 12.35 16.6118 12.574C16.8545 12.798 17.1905 12.9847 17.6198 13.134C18.0492 13.274 18.5438 13.4373 19.1038 13.624C19.5705 13.792 19.9905 13.988 20.3638 14.212C20.7372 14.436 21.0265 14.7253 21.2318 15.08C21.4465 15.4347 21.5538 15.8873 21.5538 16.438C21.5538 16.9047 21.4325 17.348 21.1898 17.768C20.9472 18.1787 20.5785 18.5147 20.0838 18.776C19.5985 19.0373 18.9872 19.168 18.2498 19.168ZM25.1816 19.168C24.6029 19.168 24.1223 19.07 23.7396 18.874C23.3569 18.678 23.0723 18.4167 22.8856 18.09C22.6989 17.7633 22.6056 17.4087 22.6056 17.026C22.6056 16.3167 22.8763 15.7707 23.4176 15.388C23.9589 15.0053 24.6963 14.814 25.6296 14.814H27.5056V14.73C27.5056 14.1233 27.3469 13.666 27.0296 13.358C26.7123 13.0407 26.2876 12.882 25.7556 12.882C25.2983 12.882 24.9016 12.9987 24.5656 13.232C24.2389 13.456 24.0336 13.7873 23.9496 14.226H22.7456C22.7923 13.722 22.9603 13.2973 23.2496 12.952C23.5483 12.6067 23.9169 12.3453 24.3556 12.168C24.7943 11.9813 25.2609 11.888 25.7556 11.888C26.7263 11.888 27.4543 12.1493 27.9396 12.672C28.4343 13.1853 28.6816 13.8713 28.6816 14.73V19H27.6316L27.5616 17.754C27.3656 18.146 27.0763 18.482 26.6936 18.762C26.3203 19.0327 25.8163 19.168 25.1816 19.168ZM25.3636 18.174C25.8116 18.174 26.1943 18.0573 26.5116 17.824C26.8383 17.5907 27.0856 17.2873 27.2536 16.914C27.4216 16.5407 27.5056 16.1487 27.5056 15.738V15.724H25.7276C25.0369 15.724 24.5469 15.8453 24.2576 16.088C23.9776 16.3213 23.8376 16.6153 23.8376 16.97C23.8376 17.334 23.9683 17.628 24.2296 17.852C24.5003 18.0667 24.8783 18.174 25.3636 18.174ZM31.908 19L29.276 12.056H30.508L32.594 17.866L34.694 12.056H35.898L33.266 19H31.908ZM38.8814 19.168C38.3027 19.168 37.822 19.07 37.4394 18.874C37.0567 18.678 36.772 18.4167 36.5854 18.09C36.3987 17.7633 36.3054 17.4087 36.3054 17.026C36.3054 16.3167 36.576 15.7707 37.1174 15.388C37.6587 15.0053 38.396 14.814 39.3294 14.814H41.2054V14.73C41.2054 14.1233 41.0467 13.666 40.7294 13.358C40.412 13.0407 39.9874 12.882 39.4554 12.882C38.998 12.882 38.6014 12.9987 38.2654 13.232C37.9387 13.456 37.7334 13.7873 37.6494 14.226H36.4454C36.492 13.722 36.66 13.2973 36.9494 12.952C37.248 12.6067 37.6167 12.3453 38.0554 12.168C38.494 11.9813 38.9607 11.888 39.4554 11.888C40.426 11.888 41.154 12.1493 41.6394 12.672C42.134 13.1853 42.3814 13.8713 42.3814 14.73V19H41.3314L41.2614 17.754C41.0654 18.146 40.776 18.482 40.3934 18.762C40.02 19.0327 39.516 19.168 38.8814 19.168ZM39.0634 18.174C39.5114 18.174 39.894 18.0573 40.2114 17.824C40.538 17.5907 40.7854 17.2873 40.9534 16.914C41.1214 16.5407 41.2054 16.1487 41.2054 15.738V15.724H39.4274C38.7367 15.724 38.2467 15.8453 37.9574 16.088C37.6774 16.3213 37.5374 16.6153 37.5374 16.97C37.5374 17.334 37.668 17.628 37.9294 17.852C38.2 18.0667 38.578 18.174 39.0634 18.174ZM43.8656 19V12.056H44.9296L44.9996 13.302C45.2236 12.8633 45.5456 12.518 45.9656 12.266C46.3856 12.014 46.8616 11.888 47.3936 11.888C48.2149 11.888 48.8682 12.14 49.3536 12.644C49.8482 13.1387 50.0956 13.904 50.0956 14.94V19H48.9196V15.066C48.9196 13.6193 48.3222 12.896 47.1276 12.896C46.5302 12.896 46.0309 13.1153 45.6296 13.554C45.2376 13.9833 45.0416 14.5993 45.0416 15.402V19H43.8656ZM51.5973 19V12.056H52.6613L52.7313 13.302C52.9553 12.8633 53.2773 12.518 53.6973 12.266C54.1173 12.014 54.5933 11.888 55.1253 11.888C55.9466 11.888 56.6 12.14 57.0853 12.644C57.58 13.1387 57.8273 13.904 57.8273 14.94V19H56.6513V15.066C56.6513 13.6193 56.054 12.896 54.8593 12.896C54.262 12.896 53.7626 13.1153 53.3613 13.554C52.9693 13.9833 52.7733 14.5993 52.7733 15.402V19H51.5973ZM61.639 19.168C61.0603 19.168 60.5797 19.07 60.197 18.874C59.8143 18.678 59.5297 18.4167 59.343 18.09C59.1563 17.7633 59.063 17.4087 59.063 17.026C59.063 16.3167 59.3337 15.7707 59.875 15.388C60.4163 15.0053 61.1537 14.814 62.087 14.814H63.963V14.73C63.963 14.1233 63.8043 13.666 63.487 13.358C63.1697 13.0407 62.745 12.882 62.213 12.882C61.7557 12.882 61.359 12.9987 61.023 13.232C60.6963 13.456 60.491 13.7873 60.407 14.226H59.203C59.2497 13.722 59.4177 13.2973 59.707 12.952C60.0057 12.6067 60.3743 12.3453 60.813 12.168C61.2517 11.9813 61.7183 11.888 62.213 11.888C63.1837 11.888 63.9117 12.1493 64.397 12.672C64.8917 13.1853 65.139 13.8713 65.139 14.73V19H64.089L64.019 17.754C63.823 18.146 63.5337 18.482 63.151 18.762C62.7777 19.0327 62.2737 19.168 61.639 19.168ZM61.821 18.174C62.269 18.174 62.6517 18.0573 62.969 17.824C63.2957 17.5907 63.543 17.2873 63.711 16.914C63.879 16.5407 63.963 16.1487 63.963 15.738V15.724H62.185C61.4943 15.724 61.0043 15.8453 60.715 16.088C60.435 16.3213 60.295 16.6153 60.295 16.97C60.295 17.334 60.4257 17.628 60.687 17.852C60.9577 18.0667 61.3357 18.174 61.821 18.174ZM66.6232 19V8.92H67.7992V13.246C68.0326 12.8167 68.3639 12.4853 68.7932 12.252C69.2226 12.0093 69.6892 11.888 70.1932 11.888C70.9959 11.888 71.6399 12.14 72.1252 12.644C72.6106 13.1387 72.8532 13.904 72.8532 14.94V19H71.6912V15.066C71.6912 13.6193 71.1079 12.896 69.9412 12.896C69.3346 12.896 68.8259 13.1153 68.4152 13.554C68.0046 13.9833 67.7992 14.5993 67.7992 15.402V19H66.6232ZM77.85 19V9.2H79.026L84.248 17.054V9.2H85.424V19H84.248L79.026 11.146V19H77.85ZM89.8964 16.816C89.5044 16.816 89.145 16.7647 88.8184 16.662L88.1184 17.32C88.221 17.3947 88.347 17.46 88.4964 17.516C88.655 17.5627 88.879 17.6093 89.1684 17.656C89.4577 17.6933 89.8637 17.7353 90.3864 17.782C91.3197 17.8473 91.987 18.062 92.3884 18.426C92.7897 18.79 92.9904 19.266 92.9904 19.854C92.9904 20.2553 92.8784 20.638 92.6544 21.002C92.4397 21.366 92.1037 21.6647 91.6464 21.898C91.1984 22.1313 90.6197 22.248 89.9104 22.248C89.285 22.248 88.7297 22.164 88.2444 21.996C87.759 21.8373 87.381 21.59 87.1104 21.254C86.8397 20.9273 86.7044 20.512 86.7044 20.008C86.7044 19.7467 86.7744 19.462 86.9144 19.154C87.0544 18.8553 87.3157 18.5707 87.6984 18.3C87.493 18.216 87.3157 18.1273 87.1664 18.034C87.0264 17.9313 86.8957 17.8193 86.7744 17.698V17.376L87.9644 16.2C87.4137 15.7333 87.1384 15.1173 87.1384 14.352C87.1384 13.8947 87.2457 13.4793 87.4604 13.106C87.675 12.7327 87.9877 12.4387 88.3984 12.224C88.809 12 89.3084 11.888 89.8964 11.888C90.2977 11.888 90.6617 11.944 90.9884 12.056H93.5504V12.938L92.2484 12.994C92.519 13.386 92.6544 13.8387 92.6544 14.352C92.6544 14.8093 92.5424 15.2247 92.3184 15.598C92.1037 15.9713 91.791 16.27 91.3804 16.494C90.979 16.7087 90.4844 16.816 89.8964 16.816ZM89.8964 15.85C90.391 15.85 90.783 15.724 91.0724 15.472C91.371 15.2107 91.5204 14.8373 91.5204 14.352C91.5204 13.876 91.371 13.512 91.0724 13.26C90.783 12.9987 90.391 12.868 89.8964 12.868C89.3924 12.868 88.991 12.9987 88.6924 13.26C88.403 13.512 88.2584 13.876 88.2584 14.352C88.2584 14.8373 88.403 15.2107 88.6924 15.472C88.991 15.724 89.3924 15.85 89.8964 15.85ZM87.8524 19.896C87.8524 20.3627 88.0484 20.708 88.4404 20.932C88.8324 21.1653 89.3224 21.282 89.9104 21.282C90.489 21.282 90.951 21.156 91.2964 20.904C91.651 20.652 91.8284 20.316 91.8284 19.896C91.8284 19.5973 91.707 19.336 91.4644 19.112C91.2217 18.8973 90.7737 18.7713 90.1204 18.734C89.607 18.6967 89.1637 18.65 88.7904 18.594C88.4077 18.7993 88.1557 19.0187 88.0344 19.252C87.913 19.4947 87.8524 19.7093 87.8524 19.896ZM97.131 19.168C96.3096 19.168 95.6563 18.9207 95.171 18.426C94.6856 17.922 94.443 17.152 94.443 16.116V12.056H95.619V15.99C95.619 17.4367 96.2116 18.16 97.397 18.16C98.0036 18.16 98.503 17.9453 98.895 17.516C99.2963 17.0773 99.497 16.4567 99.497 15.654V12.056H100.673V19H99.609L99.525 17.754C99.3103 18.1927 98.9883 18.538 98.559 18.79C98.139 19.042 97.663 19.168 97.131 19.168ZM103.085 22.08L104.807 18.328H104.401L101.643 12.056H102.917L105.213 17.46L107.649 12.056H108.867L104.317 22.08H103.085ZM112.294 19.168C111.631 19.168 111.043 19.0187 110.53 18.72C110.016 18.412 109.61 17.9873 109.312 17.446C109.022 16.9047 108.878 16.2653 108.878 15.528C108.878 14.8 109.022 14.1653 109.312 13.624C109.601 13.0733 110.002 12.6487 110.516 12.35C111.038 12.042 111.64 11.888 112.322 11.888C112.994 11.888 113.572 12.042 114.058 12.35C114.552 12.6487 114.93 13.0453 115.192 13.54C115.453 14.0347 115.584 14.5667 115.584 15.136C115.584 15.2387 115.579 15.3413 115.57 15.444C115.57 15.5467 115.57 15.6633 115.57 15.794H110.04C110.068 16.326 110.189 16.7693 110.404 17.124C110.628 17.4693 110.903 17.7307 111.23 17.908C111.566 18.0853 111.92 18.174 112.294 18.174C112.779 18.174 113.185 18.062 113.512 17.838C113.838 17.614 114.076 17.3107 114.226 16.928H115.388C115.201 17.572 114.842 18.1087 114.31 18.538C113.787 18.958 113.115 19.168 112.294 19.168ZM112.294 12.882C111.734 12.882 111.234 13.0547 110.796 13.4C110.366 13.736 110.119 14.2307 110.054 14.884H114.422C114.394 14.2587 114.179 13.7687 113.778 13.414C113.376 13.0593 112.882 12.882 112.294 12.882ZM116.862 19V12.056H117.926L117.996 13.302C118.22 12.8633 118.542 12.518 118.962 12.266C119.382 12.014 119.858 11.888 120.39 11.888C121.212 11.888 121.865 12.14 122.35 12.644C122.845 13.1387 123.092 13.904 123.092 14.94V19H121.916V15.066C121.916 13.6193 121.319 12.896 120.124 12.896C119.527 12.896 119.028 13.1153 118.626 13.554C118.234 13.9833 118.038 14.5993 118.038 15.402V19H116.862Z" fill="black"/>
</svg>
