<svg width="60" height="29" viewBox="0 0 60 29" fill="none" xmlns="http://www.w3.org/2000/svg">
<rect width="60" height="29" rx="14.5" fill="#E9EBED"/>
<path d="M15.1217 19V9.2H16.4937L20.0217 16.032L23.5217 9.2H24.9077V19H23.7317V11.3L20.4557 17.6H19.5737L16.2977 11.314V19H15.1217ZM29.1592 19.168C28.3378 19.168 27.6845 18.9207 27.1992 18.426C26.7138 17.922 26.4712 17.152 26.4712 16.116V12.056H27.6472V15.99C27.6472 17.4367 28.2398 18.16 29.4252 18.16C30.0318 18.16 30.5312 17.9453 30.9232 17.516C31.3245 17.0773 31.5252 16.4567 31.5252 15.654V12.056H32.7012V19H31.6372L31.5532 17.754C31.3385 18.1927 31.0165 18.538 30.5872 18.79C30.1672 19.042 29.6912 19.168 29.1592 19.168ZM34.3569 19V12.056H35.4209L35.5049 13.064C35.7289 12.6907 36.0276 12.4013 36.4009 12.196C36.7742 11.9907 37.1942 11.888 37.6609 11.888C38.2116 11.888 38.6829 12 39.0749 12.224C39.4762 12.448 39.7842 12.7887 39.9989 13.246C40.2416 12.826 40.5729 12.4947 40.9929 12.252C41.4222 12.0093 41.8842 11.888 42.3789 11.888C43.2096 11.888 43.8722 12.14 44.3669 12.644C44.8616 13.1387 45.1089 13.904 45.1089 14.94V19H43.9469V15.066C43.9469 14.3473 43.8022 13.806 43.5129 13.442C43.2236 13.078 42.8082 12.896 42.2669 12.896C41.7069 12.896 41.2402 13.1153 40.8669 13.554C40.5029 13.9833 40.3209 14.5993 40.3209 15.402V19H39.1449V15.066C39.1449 14.3473 39.0002 13.806 38.7109 13.442C38.4216 13.078 38.0062 12.896 37.4649 12.896C36.9142 12.896 36.4522 13.1153 36.0789 13.554C35.7149 13.9833 35.5329 14.5993 35.5329 15.402V19H34.3569Z" fill="black"/>
</svg>
