<svg width="119" height="29" viewBox="0 0 119 29" fill="none" xmlns="http://www.w3.org/2000/svg">
<rect width="119" height="29" rx="14.5" fill="#E9EBED"/>
<path d="M15.3146 19V9.2H21.3766V10.166H16.4906V13.582H20.9566V14.534H16.4906V18.034H21.3766V19H15.3146ZM25.527 19.168C24.6963 19.168 24.0056 18.958 23.455 18.538C22.9043 18.118 22.5823 17.5487 22.489 16.83H23.693C23.7676 17.194 23.959 17.5113 24.267 17.782C24.5843 18.0433 25.009 18.174 25.541 18.174C26.0356 18.174 26.3996 18.0713 26.633 17.866C26.8663 17.6513 26.983 17.3993 26.983 17.11C26.983 16.69 26.829 16.41 26.521 16.27C26.2223 16.13 25.7976 16.004 25.247 15.892C24.8736 15.8173 24.5003 15.71 24.127 15.57C23.7536 15.43 23.441 15.234 23.189 14.982C22.937 14.7207 22.811 14.38 22.811 13.96C22.811 13.3533 23.035 12.8587 23.483 12.476C23.9403 12.084 24.5563 11.888 25.331 11.888C26.0683 11.888 26.6703 12.0747 27.137 12.448C27.613 12.812 27.8883 13.3347 27.963 14.016H26.801C26.7543 13.6613 26.6003 13.386 26.339 13.19C26.087 12.9847 25.7463 12.882 25.317 12.882C24.897 12.882 24.5703 12.9707 24.337 13.148C24.113 13.3253 24.001 13.5587 24.001 13.848C24.001 14.128 24.1456 14.3473 24.435 14.506C24.7336 14.6647 25.135 14.8 25.639 14.912C26.0683 15.0053 26.4743 15.122 26.857 15.262C27.249 15.3927 27.5663 15.5933 27.809 15.864C28.061 16.1253 28.187 16.508 28.187 17.012C28.1963 17.6373 27.9583 18.1553 27.473 18.566C26.997 18.9673 26.3483 19.168 25.527 19.168ZM32.0165 19C31.3819 19 30.8825 18.846 30.5185 18.538C30.1545 18.23 29.9725 17.6747 29.9725 16.872V13.05H28.7685V12.056H29.9725L30.1265 10.39H31.1485V12.056H33.1925V13.05H31.1485V16.872C31.1485 17.3107 31.2372 17.6093 31.4145 17.768C31.5919 17.9173 31.9045 17.992 32.3525 17.992H33.0805V19H32.0165ZM34.4066 19V8.92H35.5826V13.246C35.8159 12.8167 36.1473 12.4853 36.5766 12.252C37.0059 12.0093 37.4726 11.888 37.9766 11.888C38.7793 11.888 39.4233 12.14 39.9086 12.644C40.3939 13.1387 40.6366 13.904 40.6366 14.94V19H39.4746V15.066C39.4746 13.6193 38.8913 12.896 37.7246 12.896C37.1179 12.896 36.6093 13.1153 36.1986 13.554C35.7879 13.9833 35.5826 14.5993 35.5826 15.402V19H34.4066ZM45.2603 19.168C44.5976 19.168 44.0096 19.0187 43.4963 18.72C42.983 18.412 42.577 17.9873 42.2783 17.446C41.989 16.9047 41.8443 16.2653 41.8443 15.528C41.8443 14.8 41.989 14.1653 42.2783 13.624C42.5676 13.0733 42.969 12.6487 43.4823 12.35C44.005 12.042 44.607 11.888 45.2883 11.888C45.9603 11.888 46.539 12.042 47.0243 12.35C47.519 12.6487 47.897 13.0453 48.1583 13.54C48.4196 14.0347 48.5503 14.5667 48.5503 15.136C48.5503 15.2387 48.5456 15.3413 48.5363 15.444C48.5363 15.5467 48.5363 15.6633 48.5363 15.794H43.0063C43.0343 16.326 43.1556 16.7693 43.3703 17.124C43.5943 17.4693 43.8696 17.7307 44.1963 17.908C44.5323 18.0853 44.887 18.174 45.2603 18.174C45.7456 18.174 46.1516 18.062 46.4783 17.838C46.805 17.614 47.043 17.3107 47.1923 16.928H48.3543C48.1676 17.572 47.8083 18.1087 47.2763 18.538C46.7536 18.958 46.0816 19.168 45.2603 19.168ZM45.2603 12.882C44.7003 12.882 44.201 13.0547 43.7623 13.4C43.333 13.736 43.0856 14.2307 43.0203 14.884H47.3883C47.3603 14.2587 47.1456 13.7687 46.7443 13.414C46.343 13.0593 45.8483 12.882 45.2603 12.882ZM49.829 19V12.056H50.893L50.991 13.386C51.2057 12.9287 51.5323 12.5647 51.971 12.294C52.4097 12.0233 52.951 11.888 53.595 11.888V13.12H53.273C52.8623 13.12 52.4843 13.1947 52.139 13.344C51.7937 13.484 51.5183 13.7267 51.313 14.072C51.1077 14.4173 51.005 14.8933 51.005 15.5V19H49.829ZM58.13 19V9.2H59.306V13.526H64.388V9.2H65.564V19H64.388V14.492H59.306V19H58.13ZM70.446 19.168C69.7926 19.168 69.2046 19.0187 68.682 18.72C68.1593 18.4213 67.744 18.0013 67.436 17.46C67.1373 16.9093 66.988 16.2653 66.988 15.528C66.988 14.7907 67.142 14.1513 67.45 13.61C67.758 13.0593 68.1733 12.6347 68.696 12.336C69.228 12.0373 69.8206 11.888 70.474 11.888C71.1273 11.888 71.7153 12.0373 72.238 12.336C72.7606 12.6347 73.1713 13.0593 73.47 13.61C73.778 14.1513 73.932 14.7907 73.932 15.528C73.932 16.2653 73.778 16.9093 73.47 17.46C73.162 18.0013 72.742 18.4213 72.21 18.72C71.6873 19.0187 71.0993 19.168 70.446 19.168ZM70.446 18.16C70.8473 18.16 71.2206 18.062 71.566 17.866C71.9113 17.67 72.1913 17.376 72.406 16.984C72.6206 16.592 72.728 16.1067 72.728 15.528C72.728 14.9493 72.6206 14.464 72.406 14.072C72.2006 13.68 71.9253 13.386 71.58 13.19C71.2346 12.994 70.866 12.896 70.474 12.896C70.0726 12.896 69.6993 12.994 69.354 13.19C69.0086 13.386 68.7286 13.68 68.514 14.072C68.2993 14.464 68.192 14.9493 68.192 15.528C68.192 16.1067 68.2993 16.592 68.514 16.984C68.7286 17.376 69.004 17.67 69.34 17.866C69.6853 18.062 70.054 18.16 70.446 18.16ZM76.4274 19L74.3974 12.056H75.5734L77.0434 17.502L78.6674 12.056H79.9974L81.6354 17.502L83.0914 12.056H84.2814L82.2514 19H81.0474L79.3394 13.274L77.6314 19H76.4274ZM87.366 19.168C86.7873 19.168 86.3066 19.07 85.924 18.874C85.5413 18.678 85.2566 18.4167 85.07 18.09C84.8833 17.7633 84.79 17.4087 84.79 17.026C84.79 16.3167 85.0606 15.7707 85.602 15.388C86.1433 15.0053 86.8806 14.814 87.814 14.814H89.69V14.73C89.69 14.1233 89.5313 13.666 89.214 13.358C88.8966 13.0407 88.472 12.882 87.94 12.882C87.4826 12.882 87.086 12.9987 86.75 13.232C86.4233 13.456 86.218 13.7873 86.134 14.226H84.93C84.9766 13.722 85.1446 13.2973 85.434 12.952C85.7326 12.6067 86.1013 12.3453 86.54 12.168C86.9786 11.9813 87.4453 11.888 87.94 11.888C88.9106 11.888 89.6386 12.1493 90.124 12.672C90.6186 13.1853 90.866 13.8713 90.866 14.73V19H89.816L89.746 17.754C89.55 18.146 89.2606 18.482 88.878 18.762C88.5046 19.0327 88.0006 19.168 87.366 19.168ZM87.548 18.174C87.996 18.174 88.3786 18.0573 88.696 17.824C89.0226 17.5907 89.27 17.2873 89.438 16.914C89.606 16.5407 89.69 16.1487 89.69 15.738V15.724H87.912C87.2213 15.724 86.7313 15.8453 86.442 16.088C86.162 16.3213 86.022 16.6153 86.022 16.97C86.022 17.334 86.1526 17.628 86.414 17.852C86.6846 18.0667 87.0626 18.174 87.548 18.174ZM92.3502 19V12.056H93.4142L93.5122 13.386C93.7268 12.9287 94.0535 12.5647 94.4922 12.294C94.9308 12.0233 95.4722 11.888 96.1162 11.888V13.12H95.7942C95.3835 13.12 95.0055 13.1947 94.6602 13.344C94.3148 13.484 94.0395 13.7267 93.8342 14.072C93.6288 14.4173 93.5262 14.8933 93.5262 15.5V19H92.3502ZM100.046 19.168C99.3557 19.168 98.749 19.0093 98.2264 18.692C97.713 18.3747 97.3117 17.9407 97.0224 17.39C96.7424 16.8393 96.6024 16.214 96.6024 15.514C96.6024 14.814 96.747 14.1933 97.0364 13.652C97.3257 13.1013 97.727 12.672 98.2404 12.364C98.7537 12.0467 99.3604 11.888 100.06 11.888C100.63 11.888 101.134 12.0047 101.572 12.238C102.011 12.4713 102.352 12.798 102.594 13.218V8.92H103.77V19H102.706L102.594 17.852C102.37 18.188 102.048 18.4913 101.628 18.762C101.208 19.0327 100.681 19.168 100.046 19.168ZM100.172 18.146C100.639 18.146 101.05 18.0387 101.404 17.824C101.768 17.6 102.048 17.292 102.244 16.9C102.45 16.508 102.552 16.0507 102.552 15.528C102.552 15.0053 102.45 14.548 102.244 14.156C102.048 13.764 101.768 13.4607 101.404 13.246C101.05 13.022 100.639 12.91 100.172 12.91C99.715 12.91 99.3044 13.022 98.9404 13.246C98.5857 13.4607 98.3057 13.764 98.1004 14.156C97.9044 14.548 97.8064 15.0053 97.8064 15.528C97.8064 16.0507 97.9044 16.508 98.1004 16.9C98.3057 17.292 98.5857 17.6 98.9404 17.824C99.3044 18.0387 99.715 18.146 100.172 18.146Z" fill="black"/>
</svg>
