<svg width="60" height="60" viewBox="0 0 60 60" fill="none" xmlns="http://www.w3.org/2000/svg">
<rect x="0.5" y="0.5" width="59" height="59" rx="13.5" fill="white" stroke="#D3D7DB"/>
<path d="M17.4431 9.95061C13.8 12.1866 11.5869 14.2112 12.333 19.4333C13.0872 24.7122 13.8472 23.7085 16.3928 28.3913C18.9384 33.0741 14.9845 32.925 17.412 41.3646C19.7596 49.5266 27.369 51.7054 39.5003 48.5564C51.6316 45.4074 52.5566 35.3373 47.4257 26.6675C43.5777 20.1652 44.0036 19.9999 36.1858 14.1593C26.6552 7.03909 22.6549 6.75185 17.4431 9.95061Z" fill="#EBECEE"/>
<path d="M0.769531 13.7693C0.769531 6.58958 6.58983 0.769287 13.7695 0.769287H49.2311V59.2308H13.7695C6.58983 59.2308 0.769531 53.4105 0.769531 46.2308V13.7693Z" fill="url(#paint0_linear_152_1534)"/>
<path d="M30 22.5C30 22.2239 30.2239 22 30.5 22C30.7761 22 31 22.2239 31 22.5V36.5C31 36.7761 30.7761 37 30.5 37C30.2239 37 30 36.7761 30 36.5V22.5Z" fill="#1F3758"/>
<path d="M37.5 29C37.7761 29 38 29.2239 38 29.5C38 29.7761 37.7761 30 37.5 30L23.5 30C23.2239 30 23 29.7761 23 29.5C23 29.2239 23.2239 29 23.5 29L37.5 29Z" fill="#1F3758"/>
<defs>
<linearGradient id="paint0_linear_152_1534" x1="0.769533" y1="59.2308" x2="24.8996" y2="41.2518" gradientUnits="userSpaceOnUse">
<stop offset="0.788105" stop-color="white"/>
<stop offset="1" stop-color="white" stop-opacity="0"/>
</linearGradient>
</defs>
</svg>
