<svg width="60" height="60" viewBox="0 0 60 60" fill="none" xmlns="http://www.w3.org/2000/svg">
<rect x="0.5" y="0.5" width="59" height="59" rx="13.5" fill="white" stroke="#D3D7DB"/>
<path d="M17.4431 9.95061C13.8 12.1866 11.5869 14.2112 12.333 19.4333C13.0872 24.7122 13.8472 23.7085 16.3928 28.3913C18.9384 33.0741 14.9845 32.925 17.412 41.3646C19.7596 49.5266 27.369 51.7054 39.5003 48.5564C51.6316 45.4074 52.5566 35.3373 47.4257 26.6675C43.5777 20.1652 44.0036 19.9999 36.1858 14.1593C26.6552 7.03909 22.6549 6.75185 17.4431 9.95061Z" fill="#DEFFDF"/>
<path d="M40.5385 36.6889C40.4377 39.149 40.7714 39.8895 40.0065 39.8456C39.1944 39.7985 38.6435 39.0266 38.2374 38.3237C36.6006 35.4965 35.2612 32.5061 34.0713 29.464C33.7235 28.576 33.382 27.6362 33.5095 26.6901C33.6354 25.7441 34.4758 25.2169 35.3525 24.8325C36.3488 24.3948 36.7753 24.8937 37.1373 26.4281C37.4379 27.7005 37.4064 27.9986 36.4275 28.3297C34.9763 28.8192 34.3483 27.28 33.7692 26.1787C31.8427 22.5168 31.5342 18.0438 32.9413 14.1544C33.1396 13.6053 33.4528 12.9966 34.0273 12.8836C34.7875 12.7314 35.3682 13.53 35.7113 14.2219C39.2054 21.2554 40.8784 29.1784 40.5259 37.0184C40.5038 37.5 40.444 38.0429 40.06 38.3363C39.698 38.6124 39.1865 38.5559 38.7427 38.4492C36.3976 37.8907 33.4434 35.429 31.1581 34.665C29.5023 34.1111 24.543 32.9596 21.7603 32.9596C21.2331 32.9596 19.9708 27.5546 20.7342 27.1859C22.0641 26.5458 30.6717 21.3778 33.3363 15.9493C33.3725 20.9573 34.3153 28.0316 37.5229 35.4698C37.6079 35.6659 37.6787 35.884 37.6236 36.0911C37.5371 36.4237 37.1263 36.5822 36.7879 36.5194C36.4495 36.4567 36.1631 36.237 35.8845 36.0362C32.2157 33.3926 27.4421 32.9721 22.9282 32.6426C22.8715 34.1049 23.6569 36.4928 24.4722 37.7087C23.7985 38.3802 22.3175 38.1574 21.6407 37.489C21.4109 37.2615 21.3196 36.9352 21.2378 36.623L18.9273 27.9045C17.5958 28.2245 15.3624 28.6121 14.3662 29.5487C13.3715 30.4854 15.1988 33.6107 15.7323 33.6515C16.919 33.7409 17.3015 32.845 17.1709 32.3869C17.0402 31.9288 16.8073 31.4832 16.8356 31.0078C16.8639 30.5324 17.3298 30.0414 17.7721 30.2202C18.3198 30.4414 18.1467 31.2384 17.9924 31.8064C17.4715 33.7236 18.3434 35.713 19.1933 37.5094C19.3476 37.8342 19.5238 38.1841 19.8465 38.3441C20.1691 38.5041 20.7845 38.3253 20.6806 37.9785C20.3753 36.954 18.5401 38.1166 17.4699 38.1841C13.0111 38.4712 8.49083 45.2592 4.07605 44.5657" stroke="#1F3758" stroke-miterlimit="10" stroke-linecap="round" stroke-linejoin="round"/>
<path d="M0.769531 13.7693C0.769531 6.58958 6.58983 0.769287 13.7695 0.769287H49.2311V59.2308H13.7695C6.58983 59.2308 0.769531 53.4105 0.769531 46.2308V13.7693Z" fill="url(#paint0_linear_152_1554)"/>
<defs>
<linearGradient id="paint0_linear_152_1554" x1="0.769533" y1="59.2308" x2="24.8996" y2="41.2518" gradientUnits="userSpaceOnUse">
<stop offset="0.788105" stop-color="white"/>
<stop offset="1" stop-color="white" stop-opacity="0"/>
</linearGradient>
</defs>
</svg>
