<svg width="351" height="137" viewBox="0 0 351 137" fill="none" xmlns="http://www.w3.org/2000/svg">
<mask id="mask0_152_1507" style="mask-type:alpha" maskUnits="userSpaceOnUse" x="0" y="0" width="351" height="137">
<rect width="351" height="137" rx="14" fill="white"/>
</mask>
<g mask="url(#mask0_152_1507)">
<rect width="351" height="137" rx="14" fill="#FFE8EF"/>
<path d="M21.224 38V25.4H25.526C27.002 25.4 28.214 25.664 29.162 26.192C30.122 26.708 30.83 27.44 31.286 28.388C31.754 29.324 31.988 30.428 31.988 31.7C31.988 32.972 31.754 34.082 31.286 35.03C30.83 35.966 30.122 36.698 29.162 37.226C28.214 37.742 27.002 38 25.526 38H21.224ZM23.528 36.02H25.418C26.474 36.02 27.308 35.852 27.92 35.516C28.532 35.168 28.97 34.676 29.234 34.04C29.498 33.392 29.63 32.612 29.63 31.7C29.63 30.8 29.498 30.026 29.234 29.378C28.97 28.73 28.532 28.232 27.92 27.884C27.308 27.536 26.474 27.362 25.418 27.362H23.528V36.02ZM34.8489 27.686C34.4289 27.686 34.0809 27.56 33.8049 27.308C33.5409 27.056 33.4089 26.738 33.4089 26.354C33.4089 25.97 33.5409 25.658 33.8049 25.418C34.0809 25.166 34.4289 25.04 34.8489 25.04C35.2689 25.04 35.6109 25.166 35.8749 25.418C36.1509 25.658 36.2889 25.97 36.2889 26.354C36.2889 26.738 36.1509 27.056 35.8749 27.308C35.6109 27.56 35.2689 27.686 34.8489 27.686ZM33.6969 38V29.072H36.0009V38H33.6969ZM41.7357 38.216C40.9437 38.216 40.2477 38.09 39.6477 37.838C39.0477 37.574 38.5677 37.214 38.2077 36.758C37.8477 36.302 37.6317 35.774 37.5597 35.174H39.8817C39.9537 35.522 40.1457 35.822 40.4577 36.074C40.7817 36.314 41.1957 36.434 41.6997 36.434C42.2037 36.434 42.5697 36.332 42.7977 36.128C43.0377 35.924 43.1577 35.69 43.1577 35.426C43.1577 35.042 42.9897 34.784 42.6537 34.652C42.3177 34.508 41.8497 34.37 41.2497 34.238C40.8657 34.154 40.4757 34.052 40.0797 33.932C39.6837 33.812 39.3177 33.662 38.9817 33.482C38.6577 33.29 38.3937 33.05 38.1897 32.762C37.9857 32.462 37.8837 32.096 37.8837 31.664C37.8837 30.872 38.1957 30.206 38.8197 29.666C39.4557 29.126 40.3437 28.856 41.4837 28.856C42.5397 28.856 43.3797 29.102 44.0037 29.594C44.6397 30.086 45.0177 30.764 45.1377 31.628H42.9597C42.8277 30.968 42.3297 30.638 41.4657 30.638C41.0337 30.638 40.6977 30.722 40.4577 30.89C40.2297 31.058 40.1157 31.268 40.1157 31.52C40.1157 31.784 40.2897 31.994 40.6377 32.15C40.9857 32.306 41.4477 32.45 42.0237 32.582C42.6477 32.726 43.2177 32.888 43.7337 33.068C44.2617 33.236 44.6817 33.494 44.9937 33.842C45.3057 34.178 45.4617 34.664 45.4617 35.3C45.4737 35.852 45.3297 36.35 45.0297 36.794C44.7297 37.238 44.2977 37.586 43.7337 37.838C43.1697 38.09 42.5037 38.216 41.7357 38.216ZM51.5167 38.216C50.6047 38.216 49.8007 38.018 49.1047 37.622C48.4087 37.226 47.8567 36.674 47.4487 35.966C47.0527 35.258 46.8547 34.448 46.8547 33.536C46.8547 32.624 47.0527 31.814 47.4487 31.106C47.8567 30.398 48.4087 29.846 49.1047 29.45C49.8007 29.054 50.6047 28.856 51.5167 28.856C52.6567 28.856 53.6167 29.156 54.3967 29.756C55.1767 30.344 55.6747 31.16 55.8907 32.204H53.4607C53.3407 31.772 53.1007 31.436 52.7407 31.196C52.3927 30.944 51.9787 30.818 51.4987 30.818C50.8627 30.818 50.3227 31.058 49.8787 31.538C49.4347 32.018 49.2127 32.684 49.2127 33.536C49.2127 34.388 49.4347 35.054 49.8787 35.534C50.3227 36.014 50.8627 36.254 51.4987 36.254C51.9787 36.254 52.3927 36.134 52.7407 35.894C53.1007 35.654 53.3407 35.312 53.4607 34.868H55.8907C55.6747 35.876 55.1767 36.686 54.3967 37.298C53.6167 37.91 52.6567 38.216 51.5167 38.216ZM61.8597 38.216C60.9957 38.216 60.2157 38.018 59.5197 37.622C58.8357 37.226 58.2897 36.68 57.8817 35.984C57.4857 35.276 57.2877 34.46 57.2877 33.536C57.2877 32.612 57.4917 31.802 57.8997 31.106C58.3077 30.398 58.8537 29.846 59.5377 29.45C60.2337 29.054 61.0137 28.856 61.8777 28.856C62.7297 28.856 63.4977 29.054 64.1817 29.45C64.8777 29.846 65.4237 30.398 65.8197 31.106C66.2277 31.802 66.4317 32.612 66.4317 33.536C66.4317 34.46 66.2277 35.276 65.8197 35.984C65.4237 36.68 64.8777 37.226 64.1817 37.622C63.4857 38.018 62.7117 38.216 61.8597 38.216ZM61.8597 36.218C62.4597 36.218 62.9817 35.996 63.4257 35.552C63.8697 35.096 64.0917 34.424 64.0917 33.536C64.0917 32.648 63.8697 31.982 63.4257 31.538C62.9817 31.082 62.4657 30.854 61.8777 30.854C61.2657 30.854 60.7377 31.082 60.2937 31.538C59.8617 31.982 59.6457 32.648 59.6457 33.536C59.6457 34.424 59.8617 35.096 60.2937 35.552C60.7377 35.996 61.2597 36.218 61.8597 36.218ZM71.4797 38.216C70.3637 38.216 69.4997 37.868 68.8877 37.172C68.2877 36.476 67.9877 35.456 67.9877 34.112V29.072H70.2737V33.896C70.2737 34.664 70.4297 35.252 70.7417 35.66C71.0537 36.068 71.5457 36.272 72.2177 36.272C72.8537 36.272 73.3757 36.044 73.7837 35.588C74.2037 35.132 74.4137 34.496 74.4137 33.68V29.072H76.7177V38H74.6837L74.5037 36.488C74.2277 37.016 73.8257 37.436 73.2977 37.748C72.7817 38.06 72.1757 38.216 71.4797 38.216ZM78.7229 38V29.072H80.7569L80.9369 30.584C81.2129 30.056 81.6089 29.636 82.1249 29.324C82.6529 29.012 83.2709 28.856 83.9789 28.856C85.0829 28.856 85.9409 29.204 86.5529 29.9C87.1649 30.596 87.4709 31.616 87.4709 32.96V38H85.1669V33.176C85.1669 32.408 85.0109 31.82 84.6989 31.412C84.3869 31.004 83.9009 30.8 83.2409 30.8C82.5929 30.8 82.0589 31.028 81.6389 31.484C81.2309 31.94 81.0269 32.576 81.0269 33.392V38H78.7229ZM93.2921 38C92.3561 38 91.6061 37.772 91.0421 37.316C90.4781 36.86 90.1961 36.05 90.1961 34.886V30.998H88.6661V29.072H90.1961L90.4661 26.678H92.5001V29.072H94.9121V30.998H92.5001V34.904C92.5001 35.336 92.5901 35.636 92.7701 35.804C92.9621 35.96 93.2861 36.038 93.7421 36.038H94.8581V38H93.2921ZM104.833 38.216C103.921 38.216 103.117 38.018 102.421 37.622C101.725 37.226 101.173 36.674 100.765 35.966C100.369 35.258 100.171 34.448 100.171 33.536C100.171 32.624 100.369 31.814 100.765 31.106C101.173 30.398 101.725 29.846 102.421 29.45C103.117 29.054 103.921 28.856 104.833 28.856C105.973 28.856 106.933 29.156 107.713 29.756C108.493 30.344 108.991 31.16 109.207 32.204H106.777C106.657 31.772 106.417 31.436 106.057 31.196C105.709 30.944 105.295 30.818 104.815 30.818C104.179 30.818 103.639 31.058 103.195 31.538C102.751 32.018 102.529 32.684 102.529 33.536C102.529 34.388 102.751 35.054 103.195 35.534C103.639 36.014 104.179 36.254 104.815 36.254C105.295 36.254 105.709 36.134 106.057 35.894C106.417 35.654 106.657 35.312 106.777 34.868H109.207C108.991 35.876 108.493 36.686 107.713 37.298C106.933 37.91 105.973 38.216 104.833 38.216ZM113.97 38.216C113.202 38.216 112.572 38.096 112.08 37.856C111.588 37.604 111.222 37.274 110.982 36.866C110.742 36.458 110.622 36.008 110.622 35.516C110.622 34.688 110.946 34.016 111.594 33.5C112.242 32.984 113.214 32.726 114.51 32.726H116.778V32.51C116.778 31.898 116.604 31.448 116.256 31.16C115.908 30.872 115.476 30.728 114.96 30.728C114.492 30.728 114.084 30.842 113.736 31.07C113.388 31.286 113.172 31.61 113.088 32.042H110.838C110.898 31.394 111.114 30.83 111.486 30.35C111.87 29.87 112.362 29.504 112.962 29.252C113.562 28.988 114.234 28.856 114.978 28.856C116.25 28.856 117.252 29.174 117.984 29.81C118.716 30.446 119.082 31.346 119.082 32.51V38H117.12L116.904 36.56C116.64 37.04 116.268 37.436 115.788 37.748C115.32 38.06 114.714 38.216 113.97 38.216ZM114.492 36.416C115.152 36.416 115.662 36.2 116.022 35.768C116.394 35.336 116.628 34.802 116.724 34.166H114.762C114.15 34.166 113.712 34.28 113.448 34.508C113.184 34.724 113.052 34.994 113.052 35.318C113.052 35.666 113.184 35.936 113.448 36.128C113.712 36.32 114.06 36.416 114.492 36.416ZM120.921 38V29.072H122.955L123.153 30.278C123.441 29.846 123.819 29.504 124.287 29.252C124.767 28.988 125.319 28.856 125.943 28.856C127.323 28.856 128.301 29.39 128.877 30.458C129.201 29.966 129.633 29.576 130.173 29.288C130.725 29 131.325 28.856 131.973 28.856C133.137 28.856 134.031 29.204 134.655 29.9C135.279 30.596 135.591 31.616 135.591 32.96V38H133.287V33.176C133.287 32.408 133.137 31.82 132.837 31.412C132.549 31.004 132.099 30.8 131.487 30.8C130.863 30.8 130.359 31.028 129.975 31.484C129.603 31.94 129.417 32.576 129.417 33.392V38H127.113V33.176C127.113 32.408 126.963 31.82 126.663 31.412C126.363 31.004 125.901 30.8 125.277 30.8C124.665 30.8 124.167 31.028 123.783 31.484C123.411 31.94 123.225 32.576 123.225 33.392V38H120.921ZM137.418 41.96V29.072H139.47L139.722 30.35C140.01 29.954 140.388 29.606 140.856 29.306C141.336 29.006 141.954 28.856 142.71 28.856C143.55 28.856 144.3 29.06 144.96 29.468C145.62 29.876 146.142 30.434 146.526 31.142C146.91 31.85 147.102 32.654 147.102 33.554C147.102 34.454 146.91 35.258 146.526 35.966C146.142 36.662 145.62 37.214 144.96 37.622C144.3 38.018 143.55 38.216 142.71 38.216C142.038 38.216 141.45 38.09 140.946 37.838C140.442 37.586 140.034 37.232 139.722 36.776V41.96H137.418ZM142.224 36.2C142.956 36.2 143.562 35.954 144.042 35.462C144.522 34.97 144.762 34.334 144.762 33.554C144.762 32.774 144.522 32.132 144.042 31.628C143.562 31.124 142.956 30.872 142.224 30.872C141.48 30.872 140.868 31.124 140.388 31.628C139.92 32.12 139.686 32.756 139.686 33.536C139.686 34.316 139.92 34.958 140.388 35.462C140.868 35.954 141.48 36.2 142.224 36.2ZM151.879 38.216C151.111 38.216 150.481 38.096 149.989 37.856C149.497 37.604 149.131 37.274 148.891 36.866C148.651 36.458 148.531 36.008 148.531 35.516C148.531 34.688 148.855 34.016 149.503 33.5C150.151 32.984 151.123 32.726 152.419 32.726H154.687V32.51C154.687 31.898 154.513 31.448 154.165 31.16C153.817 30.872 153.385 30.728 152.869 30.728C152.401 30.728 151.993 30.842 151.645 31.07C151.297 31.286 151.081 31.61 150.997 32.042H148.747C148.807 31.394 149.023 30.83 149.395 30.35C149.779 29.87 150.271 29.504 150.871 29.252C151.471 28.988 152.143 28.856 152.887 28.856C154.159 28.856 155.161 29.174 155.893 29.81C156.625 30.446 156.991 31.346 156.991 32.51V38H155.029L154.813 36.56C154.549 37.04 154.177 37.436 153.697 37.748C153.229 38.06 152.623 38.216 151.879 38.216ZM152.401 36.416C153.061 36.416 153.571 36.2 153.931 35.768C154.303 35.336 154.537 34.802 154.633 34.166H152.671C152.059 34.166 151.621 34.28 151.357 34.508C151.093 34.724 150.961 34.994 150.961 35.318C150.961 35.666 151.093 35.936 151.357 36.128C151.621 36.32 151.969 36.416 152.401 36.416ZM160.071 27.686C159.651 27.686 159.303 27.56 159.027 27.308C158.763 27.056 158.631 26.738 158.631 26.354C158.631 25.97 158.763 25.658 159.027 25.418C159.303 25.166 159.651 25.04 160.071 25.04C160.491 25.04 160.833 25.166 161.097 25.418C161.373 25.658 161.511 25.97 161.511 26.354C161.511 26.738 161.373 27.056 161.097 27.308C160.833 27.56 160.491 27.686 160.071 27.686ZM158.919 38V29.072H161.223V38H158.919ZM167.048 35.336C166.616 35.336 166.214 35.288 165.842 35.192L165.176 35.858C165.38 35.966 165.656 36.056 166.004 36.128C166.352 36.2 166.916 36.272 167.696 36.344C168.884 36.452 169.748 36.734 170.288 37.19C170.828 37.646 171.098 38.276 171.098 39.08C171.098 39.608 170.954 40.106 170.666 40.574C170.378 41.054 169.934 41.438 169.334 41.726C168.734 42.026 167.966 42.176 167.03 42.176C165.758 42.176 164.732 41.936 163.952 41.456C163.172 40.988 162.782 40.28 162.782 39.332C162.782 38.528 163.172 37.832 163.952 37.244C163.712 37.136 163.502 37.022 163.322 36.902C163.154 36.782 163.004 36.656 162.872 36.524V36.11L164.438 34.454C163.742 33.842 163.394 33.056 163.394 32.096C163.394 31.496 163.538 30.95 163.826 30.458C164.126 29.966 164.546 29.576 165.086 29.288C165.626 29 166.28 28.856 167.048 28.856C167.552 28.856 168.02 28.928 168.452 29.072H171.836V30.476L170.306 30.584C170.546 31.04 170.666 31.544 170.666 32.096C170.666 32.696 170.522 33.242 170.234 33.734C169.946 34.226 169.526 34.616 168.974 34.904C168.434 35.192 167.792 35.336 167.048 35.336ZM167.048 33.572C167.516 33.572 167.9 33.446 168.2 33.194C168.512 32.942 168.668 32.582 168.668 32.114C168.668 31.646 168.512 31.286 168.2 31.034C167.9 30.782 167.516 30.656 167.048 30.656C166.556 30.656 166.16 30.782 165.86 31.034C165.56 31.286 165.41 31.646 165.41 32.114C165.41 32.582 165.56 32.942 165.86 33.194C166.16 33.446 166.556 33.572 167.048 33.572ZM164.888 39.098C164.888 39.542 165.092 39.872 165.5 40.088C165.92 40.316 166.43 40.43 167.03 40.43C167.606 40.43 168.074 40.31 168.434 40.07C168.794 39.842 168.974 39.53 168.974 39.134C168.974 38.81 168.854 38.54 168.614 38.324C168.386 38.108 167.924 37.976 167.228 37.928C166.736 37.892 166.28 37.838 165.86 37.766C165.512 37.958 165.26 38.168 165.104 38.396C164.96 38.624 164.888 38.858 164.888 39.098ZM173.156 38V29.072H175.19L175.37 30.584C175.646 30.056 176.042 29.636 176.558 29.324C177.086 29.012 177.704 28.856 178.412 28.856C179.516 28.856 180.374 29.204 180.986 29.9C181.598 30.596 181.904 31.616 181.904 32.96V38H179.6V33.176C179.6 32.408 179.444 31.82 179.132 31.412C178.82 31.004 178.334 30.8 177.674 30.8C177.026 30.8 176.492 31.028 176.072 31.484C175.664 31.94 175.46 32.576 175.46 33.392V38H173.156Z" fill="#1F3758"/>
<path d="M20.42 68L24.032 58.2H25.278L28.876 68H27.63L26.734 65.48H22.562L21.652 68H20.42ZM22.912 64.528H26.384L24.648 59.684L22.912 64.528ZM36.712 65.816C36.32 65.816 35.9606 65.7647 35.634 65.662L34.934 66.32C35.0366 66.3947 35.1626 66.46 35.312 66.516C35.4706 66.5627 35.6946 66.6093 35.984 66.656C36.2733 66.6933 36.6793 66.7353 37.202 66.782C38.1353 66.8473 38.8026 67.062 39.204 67.426C39.6053 67.79 39.806 68.266 39.806 68.854C39.806 69.2553 39.694 69.638 39.47 70.002C39.2553 70.366 38.9193 70.6647 38.462 70.898C38.014 71.1313 37.4353 71.248 36.726 71.248C36.1006 71.248 35.5453 71.164 35.06 70.996C34.5746 70.8373 34.1966 70.59 33.926 70.254C33.6553 69.9273 33.52 69.512 33.52 69.008C33.52 68.7467 33.59 68.462 33.73 68.154C33.87 67.8553 34.1313 67.5707 34.514 67.3C34.3086 67.216 34.1313 67.1273 33.982 67.034C33.842 66.9313 33.7113 66.8193 33.59 66.698V66.376L34.78 65.2C34.2293 64.7333 33.954 64.1173 33.954 63.352C33.954 62.8947 34.0613 62.4793 34.276 62.106C34.4906 61.7327 34.8033 61.4387 35.214 61.224C35.6246 61 36.124 60.888 36.712 60.888C37.1133 60.888 37.4773 60.944 37.804 61.056H40.366V61.938L39.064 61.994C39.3346 62.386 39.47 62.8387 39.47 63.352C39.47 63.8093 39.358 64.2247 39.134 64.598C38.9193 64.9713 38.6066 65.27 38.196 65.494C37.7946 65.7087 37.3 65.816 36.712 65.816ZM36.712 64.85C37.2066 64.85 37.5986 64.724 37.888 64.472C38.1866 64.2107 38.336 63.8373 38.336 63.352C38.336 62.876 38.1866 62.512 37.888 62.26C37.5986 61.9987 37.2066 61.868 36.712 61.868C36.208 61.868 35.8066 61.9987 35.508 62.26C35.2186 62.512 35.074 62.876 35.074 63.352C35.074 63.8373 35.2186 64.2107 35.508 64.472C35.8066 64.724 36.208 64.85 36.712 64.85ZM34.668 68.896C34.668 69.3627 34.864 69.708 35.256 69.932C35.648 70.1653 36.138 70.282 36.726 70.282C37.3046 70.282 37.7666 70.156 38.112 69.904C38.4666 69.652 38.644 69.316 38.644 68.896C38.644 68.5973 38.5226 68.336 38.28 68.112C38.0373 67.8973 37.5893 67.7713 36.936 67.734C36.4226 67.6967 35.9793 67.65 35.606 67.594C35.2233 67.7993 34.9713 68.0187 34.85 68.252C34.7286 68.4947 34.668 68.7093 34.668 68.896ZM41.6926 68V61.056H42.7566L42.8546 62.386C43.0692 61.9287 43.3959 61.5647 43.8346 61.294C44.2732 61.0233 44.8146 60.888 45.4586 60.888V62.12H45.1366C44.7259 62.12 44.3479 62.1947 44.0026 62.344C43.6572 62.484 43.3819 62.7267 43.1766 63.072C42.9712 63.4173 42.8686 63.8933 42.8686 64.5V68H41.6926ZM49.6407 68.168C48.9781 68.168 48.3901 68.0187 47.8767 67.72C47.3634 67.412 46.9574 66.9873 46.6587 66.446C46.3694 65.9047 46.2247 65.2653 46.2247 64.528C46.2247 63.8 46.3694 63.1653 46.6587 62.624C46.9481 62.0733 47.3494 61.6487 47.8627 61.35C48.3854 61.042 48.9874 60.888 49.6687 60.888C50.3407 60.888 50.9194 61.042 51.4047 61.35C51.8994 61.6487 52.2774 62.0453 52.5387 62.54C52.8001 63.0347 52.9307 63.5667 52.9307 64.136C52.9307 64.2387 52.9261 64.3413 52.9167 64.444C52.9167 64.5467 52.9167 64.6633 52.9167 64.794H47.3867C47.4147 65.326 47.5361 65.7693 47.7507 66.124C47.9747 66.4693 48.2501 66.7307 48.5767 66.908C48.9127 67.0853 49.2674 67.174 49.6407 67.174C50.1261 67.174 50.5321 67.062 50.8587 66.838C51.1854 66.614 51.4234 66.3107 51.5727 65.928H52.7347C52.5481 66.572 52.1887 67.1087 51.6567 67.538C51.1341 67.958 50.4621 68.168 49.6407 68.168ZM49.6407 61.882C49.0807 61.882 48.5814 62.0547 48.1427 62.4C47.7134 62.736 47.4661 63.2307 47.4007 63.884H51.7687C51.7407 63.2587 51.5261 62.7687 51.1247 62.414C50.7234 62.0593 50.2287 61.882 49.6407 61.882ZM56.7994 68.168C56.2208 68.168 55.7401 68.07 55.3574 67.874C54.9748 67.678 54.6901 67.4167 54.5034 67.09C54.3168 66.7633 54.2234 66.4087 54.2234 66.026C54.2234 65.3167 54.4941 64.7707 55.0354 64.388C55.5768 64.0053 56.3141 63.814 57.2474 63.814H59.1234V63.73C59.1234 63.1233 58.9648 62.666 58.6474 62.358C58.3301 62.0407 57.9054 61.882 57.3734 61.882C56.9161 61.882 56.5194 61.9987 56.1834 62.232C55.8568 62.456 55.6514 62.7873 55.5674 63.226H54.3634C54.4101 62.722 54.5781 62.2973 54.8674 61.952C55.1661 61.6067 55.5348 61.3453 55.9734 61.168C56.4121 60.9813 56.8788 60.888 57.3734 60.888C58.3441 60.888 59.0721 61.1493 59.5574 61.672C60.0521 62.1853 60.2994 62.8713 60.2994 63.73V68H59.2494L59.1794 66.754C58.9834 67.146 58.6941 67.482 58.3114 67.762C57.9381 68.0327 57.4341 68.168 56.7994 68.168ZM56.9814 67.174C57.4294 67.174 57.8121 67.0573 58.1294 66.824C58.4561 66.5907 58.7034 66.2873 58.8714 65.914C59.0394 65.5407 59.1234 65.1487 59.1234 64.738V64.724H57.3454C56.6548 64.724 56.1648 64.8453 55.8754 65.088C55.5954 65.3213 55.4554 65.6153 55.4554 65.97C55.4554 66.334 55.5861 66.628 55.8474 66.852C56.1181 67.0667 56.4961 67.174 56.9814 67.174ZM64.6163 68C63.9816 68 63.4823 67.846 63.1183 67.538C62.7543 67.23 62.5723 66.6747 62.5723 65.872V62.05H61.3682V61.056H62.5723L62.7263 59.39H63.7483V61.056H65.7923V62.05H63.7483V65.872C63.7483 66.3107 63.8369 66.6093 64.0143 66.768C64.1916 66.9173 64.5043 66.992 64.9523 66.992H65.6803V68H64.6163ZM72.3914 68L70.3614 61.056H71.5374L73.0074 66.502L74.6314 61.056H75.9614L77.5994 66.502L79.0554 61.056H80.2454L78.2154 68H77.0114L75.3034 62.274L73.5954 68H72.3914ZM83.61 68.168C83.0313 68.168 82.5507 68.07 82.168 67.874C81.7853 67.678 81.5007 67.4167 81.314 67.09C81.1273 66.7633 81.034 66.4087 81.034 66.026C81.034 65.3167 81.3047 64.7707 81.846 64.388C82.3873 64.0053 83.1247 63.814 84.058 63.814H85.934V63.73C85.934 63.1233 85.7753 62.666 85.458 62.358C85.1407 62.0407 84.716 61.882 84.184 61.882C83.7267 61.882 83.33 61.9987 82.994 62.232C82.6673 62.456 82.462 62.7873 82.378 63.226H81.174C81.2207 62.722 81.3887 62.2973 81.678 61.952C81.9767 61.6067 82.3453 61.3453 82.784 61.168C83.2227 60.9813 83.6893 60.888 84.184 60.888C85.1547 60.888 85.8827 61.1493 86.368 61.672C86.8627 62.1853 87.11 62.8713 87.11 63.73V68H86.06L85.99 66.754C85.794 67.146 85.5047 67.482 85.122 67.762C84.7487 68.0327 84.2447 68.168 83.61 68.168ZM83.792 67.174C84.24 67.174 84.6227 67.0573 84.94 66.824C85.2667 66.5907 85.514 66.2873 85.682 65.914C85.85 65.5407 85.934 65.1487 85.934 64.738V64.724H84.156C83.4653 64.724 82.9753 64.8453 82.686 65.088C82.406 65.3213 82.266 65.6153 82.266 65.97C82.266 66.334 82.3967 66.628 82.658 66.852C82.9287 67.0667 83.3067 67.174 83.792 67.174ZM89.4251 71.08L91.1471 67.328H90.7411L87.9831 61.056H89.2571L91.5531 66.46L93.9891 61.056H95.2071L90.6571 71.08H89.4251ZM102.898 68C102.263 68 101.764 67.846 101.4 67.538C101.036 67.23 100.854 66.6747 100.854 65.872V62.05H99.6495V61.056H100.854L101.008 59.39H102.03V61.056H104.074V62.05H102.03V65.872C102.03 66.3107 102.118 66.6093 102.296 66.768C102.473 66.9173 102.786 66.992 103.234 66.992H103.962V68H102.898ZM108.54 68.168C107.887 68.168 107.299 68.0187 106.776 67.72C106.253 67.4213 105.838 67.0013 105.53 66.46C105.231 65.9093 105.082 65.2653 105.082 64.528C105.082 63.7907 105.236 63.1513 105.544 62.61C105.852 62.0593 106.267 61.6347 106.79 61.336C107.322 61.0373 107.915 60.888 108.568 60.888C109.221 60.888 109.809 61.0373 110.332 61.336C110.855 61.6347 111.265 62.0593 111.564 62.61C111.872 63.1513 112.026 63.7907 112.026 64.528C112.026 65.2653 111.872 65.9093 111.564 66.46C111.256 67.0013 110.836 67.4213 110.304 67.72C109.781 68.0187 109.193 68.168 108.54 68.168ZM108.54 67.16C108.941 67.16 109.315 67.062 109.66 66.866C110.005 66.67 110.285 66.376 110.5 65.984C110.715 65.592 110.822 65.1067 110.822 64.528C110.822 63.9493 110.715 63.464 110.5 63.072C110.295 62.68 110.019 62.386 109.674 62.19C109.329 61.994 108.96 61.896 108.568 61.896C108.167 61.896 107.793 61.994 107.448 62.19C107.103 62.386 106.823 62.68 106.608 63.072C106.393 63.464 106.286 63.9493 106.286 64.528C106.286 65.1067 106.393 65.592 106.608 65.984C106.823 66.376 107.098 66.67 107.434 66.866C107.779 67.062 108.148 67.16 108.54 67.16ZM118.08 59.516C117.847 59.516 117.651 59.4413 117.492 59.292C117.343 59.1333 117.268 58.9373 117.268 58.704C117.268 58.48 117.343 58.2933 117.492 58.144C117.651 57.9947 117.847 57.92 118.08 57.92C118.304 57.92 118.496 57.9947 118.654 58.144C118.813 58.2933 118.892 58.48 118.892 58.704C118.892 58.9373 118.813 59.1333 118.654 59.292C118.496 59.4413 118.304 59.516 118.08 59.516ZM117.492 68V61.056H118.668V68H117.492ZM120.716 68V61.056H121.78L121.85 62.302C122.074 61.8633 122.396 61.518 122.816 61.266C123.236 61.014 123.712 60.888 124.244 60.888C125.065 60.888 125.719 61.14 126.204 61.644C126.699 62.1387 126.946 62.904 126.946 63.94V68H125.77V64.066C125.77 62.6193 125.173 61.896 123.978 61.896C123.381 61.896 122.881 62.1153 122.48 62.554C122.088 62.9833 121.892 63.5993 121.892 64.402V68H120.716ZM131.92 68.168C131.257 68.168 130.66 68.0187 130.128 67.72C129.605 67.412 129.19 66.9873 128.882 66.446C128.583 65.8953 128.434 65.256 128.434 64.528C128.434 63.8 128.583 63.1653 128.882 62.624C129.19 62.0733 129.605 61.6487 130.128 61.35C130.66 61.042 131.257 60.888 131.92 60.888C132.741 60.888 133.432 61.1027 133.992 61.532C134.561 61.9613 134.92 62.5353 135.07 63.254H133.866C133.772 62.8247 133.544 62.4933 133.18 62.26C132.816 62.0173 132.391 61.896 131.906 61.896C131.514 61.896 131.145 61.994 130.8 62.19C130.454 62.386 130.174 62.68 129.96 63.072C129.745 63.464 129.638 63.9493 129.638 64.528C129.638 65.1067 129.745 65.592 129.96 65.984C130.174 66.376 130.454 66.6747 130.8 66.88C131.145 67.076 131.514 67.174 131.906 67.174C132.391 67.174 132.816 67.0573 133.18 66.824C133.544 66.5813 133.772 66.2407 133.866 65.802H135.07C134.93 66.502 134.575 67.0713 134.006 67.51C133.436 67.9487 132.741 68.168 131.92 68.168ZM136.712 68V61.056H137.776L137.874 62.386C138.089 61.9287 138.415 61.5647 138.854 61.294C139.293 61.0233 139.834 60.888 140.478 60.888V62.12H140.156C139.745 62.12 139.367 62.1947 139.022 62.344C138.677 62.484 138.401 62.7267 138.196 63.072C137.991 63.4173 137.888 63.8933 137.888 64.5V68H136.712ZM144.66 68.168C143.998 68.168 143.41 68.0187 142.896 67.72C142.383 67.412 141.977 66.9873 141.678 66.446C141.389 65.9047 141.244 65.2653 141.244 64.528C141.244 63.8 141.389 63.1653 141.678 62.624C141.968 62.0733 142.369 61.6487 142.882 61.35C143.405 61.042 144.007 60.888 144.688 60.888C145.36 60.888 145.939 61.042 146.424 61.35C146.919 61.6487 147.297 62.0453 147.558 62.54C147.82 63.0347 147.95 63.5667 147.95 64.136C147.95 64.2387 147.946 64.3413 147.936 64.444C147.936 64.5467 147.936 64.6633 147.936 64.794H142.406C142.434 65.326 142.556 65.7693 142.77 66.124C142.994 66.4693 143.27 66.7307 143.596 66.908C143.932 67.0853 144.287 67.174 144.66 67.174C145.146 67.174 145.552 67.062 145.878 66.838C146.205 66.614 146.443 66.3107 146.592 65.928H147.754C147.568 66.572 147.208 67.1087 146.676 67.538C146.154 67.958 145.482 68.168 144.66 68.168ZM144.66 61.882C144.1 61.882 143.601 62.0547 143.162 62.4C142.733 62.736 142.486 63.2307 142.42 63.884H146.788C146.76 63.2587 146.546 62.7687 146.144 62.414C145.743 62.0593 145.248 61.882 144.66 61.882ZM151.819 68.168C151.24 68.168 150.76 68.07 150.377 67.874C149.994 67.678 149.71 67.4167 149.523 67.09C149.336 66.7633 149.243 66.4087 149.243 66.026C149.243 65.3167 149.514 64.7707 150.055 64.388C150.596 64.0053 151.334 63.814 152.267 63.814H154.143V63.73C154.143 63.1233 153.984 62.666 153.667 62.358C153.35 62.0407 152.925 61.882 152.393 61.882C151.936 61.882 151.539 61.9987 151.203 62.232C150.876 62.456 150.671 62.7873 150.587 63.226H149.383C149.43 62.722 149.598 62.2973 149.887 61.952C150.186 61.6067 150.554 61.3453 150.993 61.168C151.432 60.9813 151.898 60.888 152.393 60.888C153.364 60.888 154.092 61.1493 154.577 61.672C155.072 62.1853 155.319 62.8713 155.319 63.73V68H154.269L154.199 66.754C154.003 67.146 153.714 67.482 153.331 67.762C152.958 68.0327 152.454 68.168 151.819 68.168ZM152.001 67.174C152.449 67.174 152.832 67.0573 153.149 66.824C153.476 66.5907 153.723 66.2873 153.891 65.914C154.059 65.5407 154.143 65.1487 154.143 64.738V64.724H152.365C151.674 64.724 151.184 64.8453 150.895 65.088C150.615 65.3213 150.475 65.6153 150.475 65.97C150.475 66.334 150.606 66.628 150.867 66.852C151.138 67.0667 151.516 67.174 152.001 67.174ZM159.743 68.168C158.913 68.168 158.222 67.958 157.671 67.538C157.121 67.118 156.799 66.5487 156.705 65.83H157.909C157.984 66.194 158.175 66.5113 158.483 66.782C158.801 67.0433 159.225 67.174 159.757 67.174C160.252 67.174 160.616 67.0713 160.849 66.866C161.083 66.6513 161.199 66.3993 161.199 66.11C161.199 65.69 161.045 65.41 160.737 65.27C160.439 65.13 160.014 65.004 159.463 64.892C159.09 64.8173 158.717 64.71 158.343 64.57C157.97 64.43 157.657 64.234 157.405 63.982C157.153 63.7207 157.027 63.38 157.027 62.96C157.027 62.3533 157.251 61.8587 157.699 61.476C158.157 61.084 158.773 60.888 159.547 60.888C160.285 60.888 160.887 61.0747 161.353 61.448C161.829 61.812 162.105 62.3347 162.179 63.016H161.017C160.971 62.6613 160.817 62.386 160.555 62.19C160.303 61.9847 159.963 61.882 159.533 61.882C159.113 61.882 158.787 61.9707 158.553 62.148C158.329 62.3253 158.217 62.5587 158.217 62.848C158.217 63.128 158.362 63.3473 158.651 63.506C158.95 63.6647 159.351 63.8 159.855 63.912C160.285 64.0053 160.691 64.122 161.073 64.262C161.465 64.3927 161.783 64.5933 162.025 64.864C162.277 65.1253 162.403 65.508 162.403 66.012C162.413 66.6373 162.175 67.1553 161.689 67.566C161.213 67.9673 160.565 68.168 159.743 68.168ZM167.205 68.168C166.543 68.168 165.955 68.0187 165.441 67.72C164.928 67.412 164.522 66.9873 164.223 66.446C163.934 65.9047 163.789 65.2653 163.789 64.528C163.789 63.8 163.934 63.1653 164.223 62.624C164.513 62.0733 164.914 61.6487 165.427 61.35C165.95 61.042 166.552 60.888 167.233 60.888C167.905 60.888 168.484 61.042 168.969 61.35C169.464 61.6487 169.842 62.0453 170.103 62.54C170.365 63.0347 170.495 63.5667 170.495 64.136C170.495 64.2387 170.491 64.3413 170.481 64.444C170.481 64.5467 170.481 64.6633 170.481 64.794H164.951C164.979 65.326 165.101 65.7693 165.315 66.124C165.539 66.4693 165.815 66.7307 166.141 66.908C166.477 67.0853 166.832 67.174 167.205 67.174C167.691 67.174 168.097 67.062 168.423 66.838C168.75 66.614 168.988 66.3107 169.137 65.928H170.299C170.113 66.572 169.753 67.1087 169.221 67.538C168.699 67.958 168.027 68.168 167.205 68.168ZM167.205 61.882C166.645 61.882 166.146 62.0547 165.707 62.4C165.278 62.736 165.031 63.2307 164.965 63.884H169.333C169.305 63.2587 169.091 62.7687 168.689 62.414C168.288 62.0593 167.793 61.882 167.205 61.882ZM24.158 88.168C23.4953 88.168 22.898 88.0187 22.366 87.72C21.8433 87.412 21.428 86.9873 21.12 86.446C20.8213 85.8953 20.672 85.256 20.672 84.528C20.672 83.8 20.8213 83.1653 21.12 82.624C21.428 82.0733 21.8433 81.6487 22.366 81.35C22.898 81.042 23.4953 80.888 24.158 80.888C24.9793 80.888 25.67 81.1027 26.23 81.532C26.7993 81.9613 27.1587 82.5353 27.308 83.254H26.104C26.0107 82.8247 25.782 82.4933 25.418 82.26C25.054 82.0173 24.6293 81.896 24.144 81.896C23.752 81.896 23.3833 81.994 23.038 82.19C22.6927 82.386 22.4127 82.68 22.198 83.072C21.9833 83.464 21.876 83.9493 21.876 84.528C21.876 85.1067 21.9833 85.592 22.198 85.984C22.4127 86.376 22.6927 86.6747 23.038 86.88C23.3833 87.076 23.752 87.174 24.144 87.174C24.6293 87.174 25.054 87.0573 25.418 86.824C25.782 86.5813 26.0107 86.2407 26.104 85.802H27.308C27.168 86.502 26.8133 87.0713 26.244 87.51C25.6747 87.9487 24.9793 88.168 24.158 88.168ZM32.1144 88.168C31.461 88.168 30.873 88.0187 30.3504 87.72C29.8277 87.4213 29.4124 87.0013 29.1044 86.46C28.8057 85.9093 28.6564 85.2653 28.6564 84.528C28.6564 83.7907 28.8104 83.1513 29.1184 82.61C29.4264 82.0593 29.8417 81.6347 30.3644 81.336C30.8964 81.0373 31.489 80.888 32.1424 80.888C32.7957 80.888 33.3837 81.0373 33.9064 81.336C34.429 81.6347 34.8397 82.0593 35.1384 82.61C35.4464 83.1513 35.6004 83.7907 35.6004 84.528C35.6004 85.2653 35.4464 85.9093 35.1384 86.46C34.8304 87.0013 34.4104 87.4213 33.8784 87.72C33.3557 88.0187 32.7677 88.168 32.1144 88.168ZM32.1144 87.16C32.5157 87.16 32.889 87.062 33.2344 86.866C33.5797 86.67 33.8597 86.376 34.0744 85.984C34.289 85.592 34.3964 85.1067 34.3964 84.528C34.3964 83.9493 34.289 83.464 34.0744 83.072C33.869 82.68 33.5937 82.386 33.2484 82.19C32.903 81.994 32.5344 81.896 32.1424 81.896C31.741 81.896 31.3677 81.994 31.0224 82.19C30.677 82.386 30.397 82.68 30.1824 83.072C29.9677 83.464 29.8604 83.9493 29.8604 84.528C29.8604 85.1067 29.9677 85.592 30.1824 85.984C30.397 86.376 30.6724 86.67 31.0084 86.866C31.3537 87.062 31.7224 87.16 32.1144 87.16ZM37.2355 88V81.056H38.2995L38.3695 82.302C38.5935 81.8633 38.9155 81.518 39.3355 81.266C39.7555 81.014 40.2315 80.888 40.7635 80.888C41.5849 80.888 42.2382 81.14 42.7235 81.644C43.2182 82.1387 43.4655 82.904 43.4655 83.94V88H42.2895V84.066C42.2895 82.6193 41.6922 81.896 40.4975 81.896C39.9002 81.896 39.4009 82.1153 38.9995 82.554C38.6075 82.9833 38.4115 83.5993 38.4115 84.402V88H37.2355ZM47.1125 88L44.4805 81.056H45.7125L47.7985 86.866L49.8985 81.056H51.1025L48.4705 88H47.1125ZM55.1778 88.168C54.5152 88.168 53.9272 88.0187 53.4138 87.72C52.9005 87.412 52.4945 86.9873 52.1958 86.446C51.9065 85.9047 51.7618 85.2653 51.7618 84.528C51.7618 83.8 51.9065 83.1653 52.1958 82.624C52.4852 82.0733 52.8865 81.6487 53.3998 81.35C53.9225 81.042 54.5245 80.888 55.2058 80.888C55.8778 80.888 56.4565 81.042 56.9418 81.35C57.4365 81.6487 57.8145 82.0453 58.0758 82.54C58.3372 83.0347 58.4678 83.5667 58.4678 84.136C58.4678 84.2387 58.4632 84.3413 58.4538 84.444C58.4538 84.5467 58.4538 84.6633 58.4538 84.794H52.9238C52.9518 85.326 53.0732 85.7693 53.2878 86.124C53.5118 86.4693 53.7872 86.7307 54.1138 86.908C54.4498 87.0853 54.8045 87.174 55.1778 87.174C55.6632 87.174 56.0692 87.062 56.3958 86.838C56.7225 86.614 56.9605 86.3107 57.1098 85.928H58.2718C58.0852 86.572 57.7258 87.1087 57.1938 87.538C56.6712 87.958 55.9992 88.168 55.1778 88.168ZM55.1778 81.882C54.6178 81.882 54.1185 82.0547 53.6798 82.4C53.2505 82.736 53.0032 83.2307 52.9378 83.884H57.3058C57.2778 83.2587 57.0632 82.7687 56.6618 82.414C56.2605 82.0593 55.7658 81.882 55.1778 81.882ZM60.0265 88V81.056H61.0905L61.1885 82.386C61.4032 81.9287 61.7299 81.5647 62.1685 81.294C62.6072 81.0233 63.1485 80.888 63.7925 80.888V82.12H63.4705C63.0599 82.12 62.6819 82.1947 62.3365 82.344C61.9912 82.484 61.7159 82.7267 61.5105 83.072C61.3052 83.4173 61.2025 83.8933 61.2025 84.5V88H60.0265ZM67.7725 88.168C66.9418 88.168 66.2512 87.958 65.7005 87.538C65.1498 87.118 64.8278 86.5487 64.7345 85.83H65.9385C66.0132 86.194 66.2045 86.5113 66.5125 86.782C66.8298 87.0433 67.2545 87.174 67.7865 87.174C68.2812 87.174 68.6452 87.0713 68.8785 86.866C69.1118 86.6513 69.2285 86.3993 69.2285 86.11C69.2285 85.69 69.0745 85.41 68.7665 85.27C68.4678 85.13 68.0432 85.004 67.4925 84.892C67.1192 84.8173 66.7458 84.71 66.3725 84.57C65.9992 84.43 65.6865 84.234 65.4345 83.982C65.1825 83.7207 65.0565 83.38 65.0565 82.96C65.0565 82.3533 65.2805 81.8587 65.7285 81.476C66.1858 81.084 66.8018 80.888 67.5765 80.888C68.3138 80.888 68.9158 81.0747 69.3825 81.448C69.8585 81.812 70.1338 82.3347 70.2085 83.016H69.0465C68.9998 82.6613 68.8458 82.386 68.5845 82.19C68.3325 81.9847 67.9918 81.882 67.5625 81.882C67.1425 81.882 66.8158 81.9707 66.5825 82.148C66.3585 82.3253 66.2465 82.5587 66.2465 82.848C66.2465 83.128 66.3912 83.3473 66.6805 83.506C66.9792 83.6647 67.3805 83.8 67.8845 83.912C68.3138 84.0053 68.7198 84.122 69.1025 84.262C69.4945 84.3927 69.8118 84.5933 70.0545 84.864C70.3065 85.1253 70.4325 85.508 70.4325 86.012C70.4418 86.6373 70.2038 87.1553 69.7185 87.566C69.2425 87.9673 68.5938 88.168 67.7725 88.168ZM72.8265 79.516C72.5932 79.516 72.3972 79.4413 72.2385 79.292C72.0892 79.1333 72.0145 78.9373 72.0145 78.704C72.0145 78.48 72.0892 78.2933 72.2385 78.144C72.3972 77.9947 72.5932 77.92 72.8265 77.92C73.0505 77.92 73.2418 77.9947 73.4005 78.144C73.5592 78.2933 73.6385 78.48 73.6385 78.704C73.6385 78.9373 73.5592 79.1333 73.4005 79.292C73.2418 79.4413 73.0505 79.516 72.8265 79.516ZM72.2385 88V81.056H73.4145V88H72.2385ZM78.6261 88.168C77.9728 88.168 77.3848 88.0187 76.8621 87.72C76.3394 87.4213 75.9241 87.0013 75.6161 86.46C75.3174 85.9093 75.1681 85.2653 75.1681 84.528C75.1681 83.7907 75.3221 83.1513 75.6301 82.61C75.9381 82.0593 76.3534 81.6347 76.8761 81.336C77.4081 81.0373 78.0008 80.888 78.6541 80.888C79.3074 80.888 79.8954 81.0373 80.4181 81.336C80.9408 81.6347 81.3514 82.0593 81.6501 82.61C81.9581 83.1513 82.1121 83.7907 82.1121 84.528C82.1121 85.2653 81.9581 85.9093 81.6501 86.46C81.3421 87.0013 80.9221 87.4213 80.3901 87.72C79.8674 88.0187 79.2794 88.168 78.6261 88.168ZM78.6261 87.16C79.0274 87.16 79.4008 87.062 79.7461 86.866C80.0914 86.67 80.3714 86.376 80.5861 85.984C80.8008 85.592 80.9081 85.1067 80.9081 84.528C80.9081 83.9493 80.8008 83.464 80.5861 83.072C80.3808 82.68 80.1054 82.386 79.7601 82.19C79.4148 81.994 79.0461 81.896 78.6541 81.896C78.2528 81.896 77.8794 81.994 77.5341 82.19C77.1888 82.386 76.9088 82.68 76.6941 83.072C76.4794 83.464 76.3721 83.9493 76.3721 84.528C76.3721 85.1067 76.4794 85.592 76.6941 85.984C76.9088 86.376 77.1841 86.67 77.5201 86.866C77.8654 87.062 78.2341 87.16 78.6261 87.16ZM83.7473 88V81.056H84.8113L84.8813 82.302C85.1053 81.8633 85.4273 81.518 85.8473 81.266C86.2673 81.014 86.7433 80.888 87.2753 80.888C88.0966 80.888 88.7499 81.14 89.2353 81.644C89.7299 82.1387 89.9772 82.904 89.9772 83.94V88H88.8013V84.066C88.8013 82.6193 88.2039 81.896 87.0093 81.896C86.4119 81.896 85.9126 82.1153 85.5113 82.554C85.1193 82.9833 84.9233 83.5993 84.9233 84.402V88H83.7473ZM95.464 88V81.056H96.528L96.626 82.386C96.8407 81.9287 97.1674 81.5647 97.606 81.294C98.0447 81.0233 98.586 80.888 99.23 80.888V82.12H98.908C98.4974 82.12 98.1194 82.1947 97.774 82.344C97.4287 82.484 97.1534 82.7267 96.948 83.072C96.7427 83.4173 96.64 83.8933 96.64 84.5V88H95.464ZM102.86 88.168C102.281 88.168 101.801 88.07 101.418 87.874C101.035 87.678 100.751 87.4167 100.564 87.09C100.377 86.7633 100.284 86.4087 100.284 86.026C100.284 85.3167 100.555 84.7707 101.096 84.388C101.637 84.0053 102.375 83.814 103.308 83.814H105.184V83.73C105.184 83.1233 105.025 82.666 104.708 82.358C104.391 82.0407 103.966 81.882 103.434 81.882C102.977 81.882 102.58 81.9987 102.244 82.232C101.917 82.456 101.712 82.7873 101.628 83.226H100.424C100.471 82.722 100.639 82.2973 100.928 81.952C101.227 81.6067 101.595 81.3453 102.034 81.168C102.473 80.9813 102.939 80.888 103.434 80.888C104.405 80.888 105.133 81.1493 105.618 81.672C106.113 82.1853 106.36 82.8713 106.36 83.73V88H105.31L105.24 86.754C105.044 87.146 104.755 87.482 104.372 87.762C103.999 88.0327 103.495 88.168 102.86 88.168ZM103.042 87.174C103.49 87.174 103.873 87.0573 104.19 86.824C104.517 86.5907 104.764 86.2873 104.932 85.914C105.1 85.5407 105.184 85.1487 105.184 84.738V84.724H103.406C102.715 84.724 102.225 84.8453 101.936 85.088C101.656 85.3213 101.516 85.6153 101.516 85.97C101.516 86.334 101.647 86.628 101.908 86.852C102.179 87.0667 102.557 87.174 103.042 87.174ZM110.677 88C110.042 88 109.543 87.846 109.179 87.538C108.815 87.23 108.633 86.6747 108.633 85.872V82.05H107.429V81.056H108.633L108.787 79.39H109.809V81.056H111.853V82.05H109.809V85.872C109.809 86.3107 109.897 86.6093 110.075 86.768C110.252 86.9173 110.565 86.992 111.013 86.992H111.741V88H110.677ZM116.277 88.168C115.615 88.168 115.027 88.0187 114.513 87.72C114 87.412 113.594 86.9873 113.295 86.446C113.006 85.9047 112.861 85.2653 112.861 84.528C112.861 83.8 113.006 83.1653 113.295 82.624C113.585 82.0733 113.986 81.6487 114.499 81.35C115.022 81.042 115.624 80.888 116.305 80.888C116.977 80.888 117.556 81.042 118.041 81.35C118.536 81.6487 118.914 82.0453 119.175 82.54C119.437 83.0347 119.567 83.5667 119.567 84.136C119.567 84.2387 119.563 84.3413 119.553 84.444C119.553 84.5467 119.553 84.6633 119.553 84.794H114.023C114.051 85.326 114.173 85.7693 114.387 86.124C114.611 86.4693 114.887 86.7307 115.213 86.908C115.549 87.0853 115.904 87.174 116.277 87.174C116.763 87.174 117.169 87.062 117.495 86.838C117.822 86.614 118.06 86.3107 118.209 85.928H119.371C119.185 86.572 118.825 87.1087 118.293 87.538C117.771 87.958 117.099 88.168 116.277 88.168ZM116.277 81.882C115.717 81.882 115.218 82.0547 114.779 82.4C114.35 82.736 114.103 83.2307 114.037 83.884H118.405C118.377 83.2587 118.163 82.7687 117.761 82.414C117.36 82.0593 116.865 81.882 116.277 81.882ZM123.786 88.168C122.955 88.168 122.265 87.958 121.714 87.538C121.163 87.118 120.841 86.5487 120.748 85.83H121.952C122.027 86.194 122.218 86.5113 122.526 86.782C122.843 87.0433 123.268 87.174 123.8 87.174C124.295 87.174 124.659 87.0713 124.892 86.866C125.125 86.6513 125.242 86.3993 125.242 86.11C125.242 85.69 125.088 85.41 124.78 85.27C124.481 85.13 124.057 85.004 123.506 84.892C123.133 84.8173 122.759 84.71 122.386 84.57C122.013 84.43 121.7 84.234 121.448 83.982C121.196 83.7207 121.07 83.38 121.07 82.96C121.07 82.3533 121.294 81.8587 121.742 81.476C122.199 81.084 122.815 80.888 123.59 80.888C124.327 80.888 124.929 81.0747 125.396 81.448C125.872 81.812 126.147 82.3347 126.222 83.016H125.06C125.013 82.6613 124.859 82.386 124.598 82.19C124.346 81.9847 124.005 81.882 123.576 81.882C123.156 81.882 122.829 81.9707 122.596 82.148C122.372 82.3253 122.26 82.5587 122.26 82.848C122.26 83.128 122.405 83.3473 122.694 83.506C122.993 83.6647 123.394 83.8 123.898 83.912C124.327 84.0053 124.733 84.122 125.116 84.262C125.508 84.3927 125.825 84.5933 126.068 84.864C126.32 85.1253 126.446 85.508 126.446 86.012C126.455 86.6373 126.217 87.1553 125.732 87.566C125.256 87.9673 124.607 88.168 123.786 88.168ZM132.545 79.516C132.312 79.516 132.116 79.4413 131.957 79.292C131.808 79.1333 131.733 78.9373 131.733 78.704C131.733 78.48 131.808 78.2933 131.957 78.144C132.116 77.9947 132.312 77.92 132.545 77.92C132.769 77.92 132.961 77.9947 133.119 78.144C133.278 78.2933 133.357 78.48 133.357 78.704C133.357 78.9373 133.278 79.1333 133.119 79.292C132.961 79.4413 132.769 79.516 132.545 79.516ZM131.957 88V81.056H133.133V88H131.957ZM137.841 88.168C137.01 88.168 136.32 87.958 135.769 87.538C135.218 87.118 134.896 86.5487 134.803 85.83H136.007C136.082 86.194 136.273 86.5113 136.581 86.782C136.898 87.0433 137.323 87.174 137.855 87.174C138.35 87.174 138.714 87.0713 138.947 86.866C139.18 86.6513 139.297 86.3993 139.297 86.11C139.297 85.69 139.143 85.41 138.835 85.27C138.536 85.13 138.112 85.004 137.561 84.892C137.188 84.8173 136.814 84.71 136.441 84.57C136.068 84.43 135.755 84.234 135.503 83.982C135.251 83.7207 135.125 83.38 135.125 82.96C135.125 82.3533 135.349 81.8587 135.797 81.476C136.254 81.084 136.87 80.888 137.645 80.888C138.382 80.888 138.984 81.0747 139.451 81.448C139.927 81.812 140.202 82.3347 140.277 83.016H139.115C139.068 82.6613 138.914 82.386 138.653 82.19C138.401 81.9847 138.06 81.882 137.631 81.882C137.211 81.882 136.884 81.9707 136.651 82.148C136.427 82.3253 136.315 82.5587 136.315 82.848C136.315 83.128 136.46 83.3473 136.749 83.506C137.048 83.6647 137.449 83.8 137.953 83.912C138.382 84.0053 138.788 84.122 139.171 84.262C139.563 84.3927 139.88 84.5933 140.123 84.864C140.375 85.1253 140.501 85.508 140.501 86.012C140.51 86.6373 140.272 87.1553 139.787 87.566C139.311 87.9673 138.662 88.168 137.841 88.168ZM148.63 88C147.995 88 147.496 87.846 147.132 87.538C146.768 87.23 146.586 86.6747 146.586 85.872V82.05H145.382V81.056H146.586L146.74 79.39H147.762V81.056H149.806V82.05H147.762V85.872C147.762 86.3107 147.851 86.6093 148.028 86.768C148.205 86.9173 148.518 86.992 148.966 86.992H149.694V88H148.63ZM154.273 88.168C153.619 88.168 153.031 88.0187 152.509 87.72C151.986 87.4213 151.571 87.0013 151.263 86.46C150.964 85.9093 150.815 85.2653 150.815 84.528C150.815 83.7907 150.969 83.1513 151.277 82.61C151.585 82.0593 152 81.6347 152.523 81.336C153.055 81.0373 153.647 80.888 154.301 80.888C154.954 80.888 155.542 81.0373 156.065 81.336C156.587 81.6347 156.998 82.0593 157.297 82.61C157.605 83.1513 157.759 83.7907 157.759 84.528C157.759 85.2653 157.605 85.9093 157.297 86.46C156.989 87.0013 156.569 87.4213 156.037 87.72C155.514 88.0187 154.926 88.168 154.273 88.168ZM154.273 87.16C154.674 87.16 155.047 87.062 155.393 86.866C155.738 86.67 156.018 86.376 156.233 85.984C156.447 85.592 156.555 85.1067 156.555 84.528C156.555 83.9493 156.447 83.464 156.233 83.072C156.027 82.68 155.752 82.386 155.407 82.19C155.061 81.994 154.693 81.896 154.301 81.896C153.899 81.896 153.526 81.994 153.181 82.19C152.835 82.386 152.555 82.68 152.341 83.072C152.126 83.464 152.019 83.9493 152.019 84.528C152.019 85.1067 152.126 85.592 152.341 85.984C152.555 86.376 152.831 86.67 153.167 86.866C153.512 87.062 153.881 87.16 154.273 87.16ZM166.263 88.168C165.609 88.168 165.021 88.0187 164.499 87.72C163.976 87.4213 163.561 87.0013 163.253 86.46C162.954 85.9093 162.805 85.2653 162.805 84.528C162.805 83.7907 162.959 83.1513 163.267 82.61C163.575 82.0593 163.99 81.6347 164.513 81.336C165.045 81.0373 165.637 80.888 166.291 80.888C166.944 80.888 167.532 81.0373 168.055 81.336C168.577 81.6347 168.988 82.0593 169.287 82.61C169.595 83.1513 169.749 83.7907 169.749 84.528C169.749 85.2653 169.595 85.9093 169.287 86.46C168.979 87.0013 168.559 87.4213 168.027 87.72C167.504 88.0187 166.916 88.168 166.263 88.168ZM166.263 87.16C166.664 87.16 167.037 87.062 167.383 86.866C167.728 86.67 168.008 86.376 168.223 85.984C168.437 85.592 168.545 85.1067 168.545 84.528C168.545 83.9493 168.437 83.464 168.223 83.072C168.017 82.68 167.742 82.386 167.397 82.19C167.051 81.994 166.683 81.896 166.291 81.896C165.889 81.896 165.516 81.994 165.171 82.19C164.825 82.386 164.545 82.68 164.331 83.072C164.116 83.464 164.009 83.9493 164.009 84.528C164.009 85.1067 164.116 85.592 164.331 85.984C164.545 86.376 164.821 86.67 165.157 86.866C165.502 87.062 165.871 87.16 166.263 87.16ZM171.762 88V82.05H170.712V81.056H171.762V79.852C171.762 79.18 171.93 78.69 172.266 78.382C172.602 78.074 173.092 77.92 173.736 77.92H174.436V78.928H173.918C173.563 78.928 173.311 79.0027 173.162 79.152C173.013 79.292 172.938 79.5347 172.938 79.88V81.056H174.646V82.05H172.938V88H171.762ZM176.424 88V82.05H175.374V81.056H176.424V79.852C176.424 79.18 176.592 78.69 176.928 78.382C177.264 78.074 177.754 77.92 178.398 77.92H179.098V78.928H178.58C178.225 78.928 177.973 79.0027 177.824 79.152C177.675 79.292 177.6 79.5347 177.6 79.88V81.056H179.308V82.05H177.6V88H176.424ZM183.557 88.168C182.894 88.168 182.306 88.0187 181.793 87.72C181.279 87.412 180.873 86.9873 180.575 86.446C180.285 85.9047 180.141 85.2653 180.141 84.528C180.141 83.8 180.285 83.1653 180.575 82.624C180.864 82.0733 181.265 81.6487 181.779 81.35C182.301 81.042 182.903 80.888 183.585 80.888C184.257 80.888 184.835 81.042 185.321 81.35C185.815 81.6487 186.193 82.0453 186.455 82.54C186.716 83.0347 186.847 83.5667 186.847 84.136C186.847 84.2387 186.842 84.3413 186.833 84.444C186.833 84.5467 186.833 84.6633 186.833 84.794H181.303C181.331 85.326 181.452 85.7693 181.667 86.124C181.891 86.4693 182.166 86.7307 182.493 86.908C182.829 87.0853 183.183 87.174 183.557 87.174C184.042 87.174 184.448 87.062 184.775 86.838C185.101 86.614 185.339 86.3107 185.489 85.928H186.651C186.464 86.572 186.105 87.1087 185.573 87.538C185.05 87.958 184.378 88.168 183.557 88.168ZM183.557 81.882C182.997 81.882 182.497 82.0547 182.059 82.4C181.629 82.736 181.382 83.2307 181.317 83.884H185.685C185.657 83.2587 185.442 82.7687 185.041 82.414C184.639 82.0593 184.145 81.882 183.557 81.882ZM188.405 88V81.056H189.469L189.567 82.386C189.782 81.9287 190.109 81.5647 190.547 81.294C190.986 81.0233 191.527 80.888 192.171 80.888V82.12H191.849C191.439 82.12 191.061 82.1947 190.715 82.344C190.37 82.484 190.095 82.7267 189.889 83.072C189.684 83.4173 189.581 83.8933 189.581 84.5V88H188.405ZM24.158 108.168C23.4953 108.168 22.898 108.019 22.366 107.72C21.8433 107.412 21.428 106.987 21.12 106.446C20.8213 105.895 20.672 105.256 20.672 104.528C20.672 103.8 20.8213 103.165 21.12 102.624C21.428 102.073 21.8433 101.649 22.366 101.35C22.898 101.042 23.4953 100.888 24.158 100.888C24.9793 100.888 25.67 101.103 26.23 101.532C26.7993 101.961 27.1587 102.535 27.308 103.254H26.104C26.0107 102.825 25.782 102.493 25.418 102.26C25.054 102.017 24.6293 101.896 24.144 101.896C23.752 101.896 23.3833 101.994 23.038 102.19C22.6927 102.386 22.4127 102.68 22.198 103.072C21.9833 103.464 21.876 103.949 21.876 104.528C21.876 105.107 21.9833 105.592 22.198 105.984C22.4127 106.376 22.6927 106.675 23.038 106.88C23.3833 107.076 23.752 107.174 24.144 107.174C24.6293 107.174 25.054 107.057 25.418 106.824C25.782 106.581 26.0107 106.241 26.104 105.802H27.308C27.168 106.502 26.8133 107.071 26.244 107.51C25.6747 107.949 24.9793 108.168 24.158 108.168ZM28.9504 108V97.92H30.1264V108H28.9504ZM32.7679 99.516C32.5346 99.516 32.3386 99.4413 32.1799 99.292C32.0306 99.1333 31.9559 98.9373 31.9559 98.704C31.9559 98.48 32.0306 98.2933 32.1799 98.144C32.3386 97.9947 32.5346 97.92 32.7679 97.92C32.9919 97.92 33.1832 97.9947 33.3419 98.144C33.5006 98.2933 33.5799 98.48 33.5799 98.704C33.5799 98.9373 33.5006 99.1333 33.3419 99.292C33.1832 99.4413 32.9919 99.516 32.7679 99.516ZM32.1799 108V101.056H33.3559V108H32.1799ZM38.5255 108.168C37.8628 108.168 37.2748 108.019 36.7615 107.72C36.2482 107.412 35.8422 106.987 35.5435 106.446C35.2542 105.905 35.1095 105.265 35.1095 104.528C35.1095 103.8 35.2542 103.165 35.5435 102.624C35.8328 102.073 36.2342 101.649 36.7475 101.35C37.2702 101.042 37.8722 100.888 38.5535 100.888C39.2255 100.888 39.8042 101.042 40.2895 101.35C40.7842 101.649 41.1622 102.045 41.4235 102.54C41.6848 103.035 41.8155 103.567 41.8155 104.136C41.8155 104.239 41.8108 104.341 41.8015 104.444C41.8015 104.547 41.8015 104.663 41.8015 104.794H36.2715C36.2995 105.326 36.4208 105.769 36.6355 106.124C36.8595 106.469 37.1348 106.731 37.4615 106.908C37.7975 107.085 38.1522 107.174 38.5255 107.174C39.0108 107.174 39.4168 107.062 39.7435 106.838C40.0702 106.614 40.3082 106.311 40.4575 105.928H41.6195C41.4328 106.572 41.0735 107.109 40.5415 107.538C40.0188 107.958 39.3468 108.168 38.5255 108.168ZM38.5255 101.882C37.9655 101.882 37.4662 102.055 37.0275 102.4C36.5982 102.736 36.3508 103.231 36.2855 103.884H40.6535C40.6255 103.259 40.4108 102.769 40.0095 102.414C39.6082 102.059 39.1135 101.882 38.5255 101.882ZM43.3742 108V101.056H44.4382L44.5082 102.302C44.7322 101.863 45.0542 101.518 45.4742 101.266C45.8942 101.014 46.3702 100.888 46.9022 100.888C47.7235 100.888 48.3769 101.14 48.8622 101.644C49.3569 102.139 49.6042 102.904 49.6042 103.94V108H48.4282V104.066C48.4282 102.619 47.8309 101.896 46.6362 101.896C46.0389 101.896 45.5395 102.115 45.1382 102.554C44.7462 102.983 44.5502 103.599 44.5502 104.402V108H43.3742ZM54.1299 108C53.4953 108 52.9959 107.846 52.6319 107.538C52.2679 107.23 52.0859 106.675 52.0859 105.872V102.05H50.8819V101.056H52.0859L52.2399 99.39H53.2619V101.056H55.3059V102.05H53.2619V105.872C53.2619 106.311 53.3506 106.609 53.5279 106.768C53.7053 106.917 54.0179 106.992 54.4659 106.992H55.1939V108H54.1299ZM59.46 108.168C58.6293 108.168 57.9387 107.958 57.388 107.538C56.8373 107.118 56.5153 106.549 56.422 105.83H57.626C57.7007 106.194 57.892 106.511 58.2 106.782C58.5173 107.043 58.942 107.174 59.474 107.174C59.9687 107.174 60.3327 107.071 60.566 106.866C60.7993 106.651 60.916 106.399 60.916 106.11C60.916 105.69 60.762 105.41 60.454 105.27C60.1553 105.13 59.7307 105.004 59.18 104.892C58.8067 104.817 58.4333 104.71 58.06 104.57C57.6867 104.43 57.374 104.234 57.122 103.982C56.87 103.721 56.744 103.38 56.744 102.96C56.744 102.353 56.968 101.859 57.416 101.476C57.8733 101.084 58.4893 100.888 59.264 100.888C60.0013 100.888 60.6033 101.075 61.07 101.448C61.546 101.812 61.8213 102.335 61.896 103.016H60.734C60.6873 102.661 60.5333 102.386 60.272 102.19C60.02 101.985 59.6793 101.882 59.25 101.882C58.83 101.882 58.5033 101.971 58.27 102.148C58.046 102.325 57.934 102.559 57.934 102.848C57.934 103.128 58.0787 103.347 58.368 103.506C58.6667 103.665 59.068 103.8 59.572 103.912C60.0013 104.005 60.4073 104.122 60.79 104.262C61.182 104.393 61.4993 104.593 61.742 104.864C61.994 105.125 62.12 105.508 62.12 106.012C62.1293 106.637 61.8913 107.155 61.406 107.566C60.93 107.967 60.2813 108.168 59.46 108.168ZM70.6551 108.168C69.9644 108.168 69.3577 108.009 68.8351 107.692C68.3217 107.375 67.9204 106.941 67.6311 106.39C67.3511 105.839 67.2111 105.214 67.2111 104.514C67.2111 103.814 67.3557 103.193 67.6451 102.652C67.9344 102.101 68.3357 101.672 68.8491 101.364C69.3624 101.047 69.9691 100.888 70.6691 100.888C71.2384 100.888 71.7424 101.005 72.1811 101.238C72.6197 101.471 72.9604 101.798 73.2031 102.218V97.92H74.3791V108H73.3151L73.2031 106.852C72.9791 107.188 72.6571 107.491 72.2371 107.762C71.8171 108.033 71.2897 108.168 70.6551 108.168ZM70.7811 107.146C71.2477 107.146 71.6584 107.039 72.0131 106.824C72.3771 106.6 72.6571 106.292 72.8531 105.9C73.0584 105.508 73.1611 105.051 73.1611 104.528C73.1611 104.005 73.0584 103.548 72.8531 103.156C72.6571 102.764 72.3771 102.461 72.0131 102.246C71.6584 102.022 71.2477 101.91 70.7811 101.91C70.3237 101.91 69.9131 102.022 69.5491 102.246C69.1944 102.461 68.9144 102.764 68.7091 103.156C68.5131 103.548 68.4151 104.005 68.4151 104.528C68.4151 105.051 68.5131 105.508 68.7091 105.9C68.9144 106.292 69.1944 106.6 69.5491 106.824C69.9131 107.039 70.3237 107.146 70.7811 107.146ZM77.0101 99.516C76.7767 99.516 76.5807 99.4413 76.4221 99.292C76.2727 99.1333 76.1981 98.9373 76.1981 98.704C76.1981 98.48 76.2727 98.2933 76.4221 98.144C76.5807 97.9947 76.7767 97.92 77.0101 97.92C77.2341 97.92 77.4254 97.9947 77.5841 98.144C77.7427 98.2933 77.8221 98.48 77.8221 98.704C77.8221 98.9373 77.7427 99.1333 77.5841 99.292C77.4254 99.4413 77.2341 99.516 77.0101 99.516ZM76.4221 108V101.056H77.5981V108H76.4221ZM82.3057 108.168C81.475 108.168 80.7844 107.958 80.2337 107.538C79.683 107.118 79.361 106.549 79.2677 105.83H80.4717C80.5464 106.194 80.7377 106.511 81.0457 106.782C81.363 107.043 81.7877 107.174 82.3197 107.174C82.8144 107.174 83.1784 107.071 83.4117 106.866C83.645 106.651 83.7617 106.399 83.7617 106.11C83.7617 105.69 83.6077 105.41 83.2997 105.27C83.001 105.13 82.5764 105.004 82.0257 104.892C81.6524 104.817 81.279 104.71 80.9057 104.57C80.5324 104.43 80.2197 104.234 79.9677 103.982C79.7157 103.721 79.5897 103.38 79.5897 102.96C79.5897 102.353 79.8137 101.859 80.2617 101.476C80.719 101.084 81.335 100.888 82.1097 100.888C82.847 100.888 83.449 101.075 83.9157 101.448C84.3917 101.812 84.667 102.335 84.7417 103.016H83.5797C83.533 102.661 83.379 102.386 83.1177 102.19C82.8657 101.985 82.525 101.882 82.0957 101.882C81.6757 101.882 81.349 101.971 81.1157 102.148C80.8917 102.325 80.7797 102.559 80.7797 102.848C80.7797 103.128 80.9244 103.347 81.2137 103.506C81.5124 103.665 81.9137 103.8 82.4177 103.912C82.847 104.005 83.253 104.122 83.6357 104.262C84.0277 104.393 84.345 104.593 84.5877 104.864C84.8397 105.125 84.9657 105.508 84.9657 106.012C84.975 106.637 84.737 107.155 84.2517 107.566C83.7757 107.967 83.127 108.168 82.3057 108.168ZM89.8377 108.168C89.175 108.168 88.5777 108.019 88.0457 107.72C87.523 107.412 87.1077 106.987 86.7997 106.446C86.501 105.895 86.3517 105.256 86.3517 104.528C86.3517 103.8 86.501 103.165 86.7997 102.624C87.1077 102.073 87.523 101.649 88.0457 101.35C88.5777 101.042 89.175 100.888 89.8377 100.888C90.659 100.888 91.3497 101.103 91.9097 101.532C92.479 101.961 92.8384 102.535 92.9877 103.254H91.7837C91.6904 102.825 91.4617 102.493 91.0977 102.26C90.7337 102.017 90.309 101.896 89.8237 101.896C89.4317 101.896 89.063 101.994 88.7177 102.19C88.3724 102.386 88.0924 102.68 87.8777 103.072C87.663 103.464 87.5557 103.949 87.5557 104.528C87.5557 105.107 87.663 105.592 87.8777 105.984C88.0924 106.376 88.3724 106.675 88.7177 106.88C89.063 107.076 89.4317 107.174 89.8237 107.174C90.309 107.174 90.7337 107.057 91.0977 106.824C91.4617 106.581 91.6904 106.241 91.7837 105.802H92.9877C92.8477 106.502 92.493 107.071 91.9237 107.51C91.3544 107.949 90.659 108.168 89.8377 108.168ZM97.7941 108.168C97.1407 108.168 96.5527 108.019 96.0301 107.72C95.5074 107.421 95.0921 107.001 94.7841 106.46C94.4854 105.909 94.3361 105.265 94.3361 104.528C94.3361 103.791 94.4901 103.151 94.7981 102.61C95.1061 102.059 95.5214 101.635 96.0441 101.336C96.5761 101.037 97.1687 100.888 97.8221 100.888C98.4754 100.888 99.0634 101.037 99.5861 101.336C100.109 101.635 100.519 102.059 100.818 102.61C101.126 103.151 101.28 103.791 101.28 104.528C101.28 105.265 101.126 105.909 100.818 106.46C100.51 107.001 100.09 107.421 99.5581 107.72C99.0354 108.019 98.4474 108.168 97.7941 108.168ZM97.7941 107.16C98.1954 107.16 98.5687 107.062 98.9141 106.866C99.2594 106.67 99.5394 106.376 99.7541 105.984C99.9687 105.592 100.076 105.107 100.076 104.528C100.076 103.949 99.9687 103.464 99.7541 103.072C99.5487 102.68 99.2734 102.386 98.9281 102.19C98.5827 101.994 98.2141 101.896 97.8221 101.896C97.4207 101.896 97.0474 101.994 96.7021 102.19C96.3567 102.386 96.0767 102.68 95.8621 103.072C95.6474 103.464 95.5401 103.949 95.5401 104.528C95.5401 105.107 95.6474 105.592 95.8621 105.984C96.0767 106.376 96.3521 106.67 96.6881 106.866C97.0334 107.062 97.4021 107.16 97.7941 107.16ZM105.449 108.168C104.628 108.168 103.975 107.921 103.489 107.426C103.004 106.922 102.761 106.152 102.761 105.116V101.056H103.937V104.99C103.937 106.437 104.53 107.16 105.715 107.16C106.322 107.16 106.821 106.945 107.213 106.516C107.615 106.077 107.815 105.457 107.815 104.654V101.056H108.991V108H107.927L107.843 106.754C107.629 107.193 107.307 107.538 106.877 107.79C106.457 108.042 105.981 108.168 105.449 108.168ZM110.927 108V101.056H111.991L112.061 102.302C112.285 101.863 112.607 101.518 113.027 101.266C113.447 101.014 113.923 100.888 114.455 100.888C115.276 100.888 115.93 101.14 116.415 101.644C116.91 102.139 117.157 102.904 117.157 103.94V108H115.981V104.066C115.981 102.619 115.384 101.896 114.189 101.896C113.592 101.896 113.092 102.115 112.691 102.554C112.299 102.983 112.103 103.599 112.103 104.402V108H110.927ZM121.683 108C121.048 108 120.549 107.846 120.185 107.538C119.821 107.23 119.639 106.675 119.639 105.872V102.05H118.435V101.056H119.639L119.793 99.39H120.815V101.056H122.859V102.05H120.815V105.872C120.815 106.311 120.903 106.609 121.081 106.768C121.258 106.917 121.571 106.992 122.019 106.992H122.747V108H121.683ZM127.283 108.168C126.621 108.168 126.033 108.019 125.519 107.72C125.006 107.412 124.6 106.987 124.301 106.446C124.012 105.905 123.867 105.265 123.867 104.528C123.867 103.8 124.012 103.165 124.301 102.624C124.591 102.073 124.992 101.649 125.505 101.35C126.028 101.042 126.63 100.888 127.311 100.888C127.983 100.888 128.562 101.042 129.047 101.35C129.542 101.649 129.92 102.045 130.181 102.54C130.443 103.035 130.573 103.567 130.573 104.136C130.573 104.239 130.569 104.341 130.559 104.444C130.559 104.547 130.559 104.663 130.559 104.794H125.029C125.057 105.326 125.179 105.769 125.393 106.124C125.617 106.469 125.893 106.731 126.219 106.908C126.555 107.085 126.91 107.174 127.283 107.174C127.769 107.174 128.175 107.062 128.501 106.838C128.828 106.614 129.066 106.311 129.215 105.928H130.377C130.191 106.572 129.831 107.109 129.299 107.538C128.777 107.958 128.105 108.168 127.283 108.168ZM127.283 101.882C126.723 101.882 126.224 102.055 125.785 102.4C125.356 102.736 125.109 103.231 125.043 103.884H129.411C129.383 103.259 129.169 102.769 128.767 102.414C128.366 102.059 127.871 101.882 127.283 101.882ZM135.282 108.168C134.591 108.168 133.985 108.009 133.462 107.692C132.949 107.375 132.547 106.941 132.258 106.39C131.978 105.839 131.838 105.214 131.838 104.514C131.838 103.814 131.983 103.193 132.272 102.652C132.561 102.101 132.963 101.672 133.476 101.364C133.989 101.047 134.596 100.888 135.296 100.888C135.865 100.888 136.369 101.005 136.808 101.238C137.247 101.471 137.587 101.798 137.83 102.218V97.92H139.006V108H137.942L137.83 106.852C137.606 107.188 137.284 107.491 136.864 107.762C136.444 108.033 135.917 108.168 135.282 108.168ZM135.408 107.146C135.875 107.146 136.285 107.039 136.64 106.824C137.004 106.6 137.284 106.292 137.48 105.9C137.685 105.508 137.788 105.051 137.788 104.528C137.788 104.005 137.685 103.548 137.48 103.156C137.284 102.764 137.004 102.461 136.64 102.246C136.285 102.022 135.875 101.91 135.408 101.91C134.951 101.91 134.54 102.022 134.176 102.246C133.821 102.461 133.541 102.764 133.336 103.156C133.14 103.548 133.042 104.005 133.042 104.528C133.042 105.051 133.14 105.508 133.336 105.9C133.541 106.292 133.821 106.6 134.176 106.824C134.54 107.039 134.951 107.146 135.408 107.146ZM147.288 108.168C146.457 108.168 145.767 107.958 145.216 107.538C144.665 107.118 144.343 106.549 144.25 105.83H145.454C145.529 106.194 145.72 106.511 146.028 106.782C146.345 107.043 146.77 107.174 147.302 107.174C147.797 107.174 148.161 107.071 148.394 106.866C148.627 106.651 148.744 106.399 148.744 106.11C148.744 105.69 148.59 105.41 148.282 105.27C147.983 105.13 147.559 105.004 147.008 104.892C146.635 104.817 146.261 104.71 145.888 104.57C145.515 104.43 145.202 104.234 144.95 103.982C144.698 103.721 144.572 103.38 144.572 102.96C144.572 102.353 144.796 101.859 145.244 101.476C145.701 101.084 146.317 100.888 147.092 100.888C147.829 100.888 148.431 101.075 148.898 101.448C149.374 101.812 149.649 102.335 149.724 103.016H148.562C148.515 102.661 148.361 102.386 148.1 102.19C147.848 101.985 147.507 101.882 147.078 101.882C146.658 101.882 146.331 101.971 146.098 102.148C145.874 102.325 145.762 102.559 145.762 102.848C145.762 103.128 145.907 103.347 146.196 103.506C146.495 103.665 146.896 103.8 147.4 103.912C147.829 104.005 148.235 104.122 148.618 104.262C149.01 104.393 149.327 104.593 149.57 104.864C149.822 105.125 149.948 105.508 149.948 106.012C149.957 106.637 149.719 107.155 149.234 107.566C148.758 107.967 148.109 108.168 147.288 108.168ZM154.75 108.168C154.087 108.168 153.499 108.019 152.986 107.72C152.473 107.412 152.067 106.987 151.768 106.446C151.479 105.905 151.334 105.265 151.334 104.528C151.334 103.8 151.479 103.165 151.768 102.624C152.057 102.073 152.459 101.649 152.972 101.35C153.495 101.042 154.097 100.888 154.778 100.888C155.45 100.888 156.029 101.042 156.514 101.35C157.009 101.649 157.387 102.045 157.648 102.54C157.909 103.035 158.04 103.567 158.04 104.136C158.04 104.239 158.035 104.341 158.026 104.444C158.026 104.547 158.026 104.663 158.026 104.794H152.496C152.524 105.326 152.645 105.769 152.86 106.124C153.084 106.469 153.359 106.731 153.686 106.908C154.022 107.085 154.377 107.174 154.75 107.174C155.235 107.174 155.641 107.062 155.968 106.838C156.295 106.614 156.533 106.311 156.682 105.928H157.844C157.657 106.572 157.298 107.109 156.766 107.538C156.243 107.958 155.571 108.168 154.75 108.168ZM154.75 101.882C154.19 101.882 153.691 102.055 153.252 102.4C152.823 102.736 152.575 103.231 152.51 103.884H156.878C156.85 103.259 156.635 102.769 156.234 102.414C155.833 102.059 155.338 101.882 154.75 101.882ZM159.599 108V101.056H160.663L160.761 102.386C160.975 101.929 161.302 101.565 161.741 101.294C162.179 101.023 162.721 100.888 163.365 100.888V102.12H163.043C162.632 102.12 162.254 102.195 161.909 102.344C161.563 102.484 161.288 102.727 161.083 103.072C160.877 103.417 160.775 103.893 160.775 104.5V108H159.599ZM166.687 108L164.055 101.056H165.287L167.373 106.866L169.473 101.056H170.677L168.045 108H166.687ZM172.7 99.516C172.466 99.516 172.27 99.4413 172.112 99.292C171.962 99.1333 171.888 98.9373 171.888 98.704C171.888 98.48 171.962 98.2933 172.112 98.144C172.27 97.9947 172.466 97.92 172.7 97.92C172.924 97.92 173.115 97.9947 173.274 98.144C173.432 98.2933 173.512 98.48 173.512 98.704C173.512 98.9373 173.432 99.1333 173.274 99.292C173.115 99.4413 172.924 99.516 172.7 99.516ZM172.112 108V101.056H173.288V108H172.112ZM178.527 108.168C177.864 108.168 177.267 108.019 176.735 107.72C176.212 107.412 175.797 106.987 175.489 106.446C175.19 105.895 175.041 105.256 175.041 104.528C175.041 103.8 175.19 103.165 175.489 102.624C175.797 102.073 176.212 101.649 176.735 101.35C177.267 101.042 177.864 100.888 178.527 100.888C179.348 100.888 180.039 101.103 180.599 101.532C181.168 101.961 181.528 102.535 181.677 103.254H180.473C180.38 102.825 180.151 102.493 179.787 102.26C179.423 102.017 178.998 101.896 178.513 101.896C178.121 101.896 177.752 101.994 177.407 102.19C177.062 102.386 176.782 102.68 176.567 103.072C176.352 103.464 176.245 103.949 176.245 104.528C176.245 105.107 176.352 105.592 176.567 105.984C176.782 106.376 177.062 106.675 177.407 106.88C177.752 107.076 178.121 107.174 178.513 107.174C178.998 107.174 179.423 107.057 179.787 106.824C180.151 106.581 180.38 106.241 180.473 105.802H181.677C181.537 106.502 181.182 107.071 180.613 107.51C180.044 107.949 179.348 108.168 178.527 108.168ZM186.442 108.168C185.779 108.168 185.191 108.019 184.678 107.72C184.164 107.412 183.758 106.987 183.46 106.446C183.17 105.905 183.026 105.265 183.026 104.528C183.026 103.8 183.17 103.165 183.46 102.624C183.749 102.073 184.15 101.649 184.664 101.35C185.186 101.042 185.788 100.888 186.47 100.888C187.142 100.888 187.72 101.042 188.206 101.35C188.7 101.649 189.078 102.045 189.34 102.54C189.601 103.035 189.732 103.567 189.732 104.136C189.732 104.239 189.727 104.341 189.718 104.444C189.718 104.547 189.718 104.663 189.718 104.794H184.188C184.216 105.326 184.337 105.769 184.552 106.124C184.776 106.469 185.051 106.731 185.378 106.908C185.714 107.085 186.068 107.174 186.442 107.174C186.927 107.174 187.333 107.062 187.66 106.838C187.986 106.614 188.224 106.311 188.374 105.928H189.536C189.349 106.572 188.99 107.109 188.458 107.538C187.935 107.958 187.263 108.168 186.442 108.168ZM186.442 101.882C185.882 101.882 185.382 102.055 184.944 102.4C184.514 102.736 184.267 103.231 184.202 103.884H188.57C188.542 103.259 188.327 102.769 187.926 102.414C187.524 102.059 187.03 101.882 186.442 101.882ZM193.95 108.168C193.12 108.168 192.429 107.958 191.878 107.538C191.328 107.118 191.006 106.549 190.912 105.83H192.116C192.191 106.194 192.382 106.511 192.69 106.782C193.008 107.043 193.432 107.174 193.964 107.174C194.459 107.174 194.823 107.071 195.056 106.866C195.29 106.651 195.406 106.399 195.406 106.11C195.406 105.69 195.252 105.41 194.944 105.27C194.646 105.13 194.221 105.004 193.67 104.892C193.297 104.817 192.924 104.71 192.55 104.57C192.177 104.43 191.864 104.234 191.612 103.982C191.36 103.721 191.234 103.38 191.234 102.96C191.234 102.353 191.458 101.859 191.906 101.476C192.364 101.084 192.98 100.888 193.754 100.888C194.492 100.888 195.094 101.075 195.56 101.448C196.036 101.812 196.312 102.335 196.386 103.016H195.224C195.178 102.661 195.024 102.386 194.762 102.19C194.51 101.985 194.17 101.882 193.74 101.882C193.32 101.882 192.994 101.971 192.76 102.148C192.536 102.325 192.424 102.559 192.424 102.848C192.424 103.128 192.569 103.347 192.858 103.506C193.157 103.665 193.558 103.8 194.062 103.912C194.492 104.005 194.898 104.122 195.28 104.262C195.672 104.393 195.99 104.593 196.232 104.864C196.484 105.125 196.61 105.508 196.61 106.012C196.62 106.637 196.382 107.155 195.896 107.566C195.42 107.967 194.772 108.168 193.95 108.168Z" fill="#1F3758"/>
<path d="M275.212 -34C275.212 20.0682 230.189 17.545 228.018 56.1217C227.669 62.3213 232.36 71.568 238.569 71.6493C239.415 69.912 241.282 68.8491 243.182 68.4848C245.082 68.1205 247.039 68.3493 248.957 68.5811C250.601 68.7799 252.726 69.5266 252.588 71.1766C252.483 72.4442 251.025 73.1006 249.77 73.3174C245.816 74.0039 241.592 72.9109 238.466 70.3968C237.425 71.1616 237.385 72.8116 238.093 73.8955C238.801 74.9795 240.038 75.5907 241.267 75.9972C244.91 77.2016 249.005 76.9727 252.492 75.3709C253.452 74.9283 254.419 74.3351 254.885 73.3867C255.349 72.4352 255.078 71.0682 254.096 70.6708C257.613 69.2616 261.512 68.819 265.255 69.4001C266.426 69.5808 267.772 70.0294 268.116 71.1646C268.636 72.8899 266.411 74.1454 264.617 74.299C260.868 74.6212 257.008 73.3325 254.208 70.8243C255.283 72.7574 253.53 75.669 255.126 77.2016C255.578 77.6352 256.204 77.8279 256.809 77.9844C259.775 78.7553 262.873 79.0142 265.924 78.7462C267.309 78.6228 268.76 78.3608 269.82 77.4575C270.88 76.5572 271.349 74.8319 270.482 73.745C266.598 76.6596 261.061 77.1895 256.695 75.0638C255.457 74.4616 254.151 73.2 254.662 71.9203C259.224 75.2294 265.719 75.6208 270.645 72.8868L270.025 64.4952C269.943 63.3932 269.877 62.222 270.401 61.2494C270.877 60.3702 271.768 59.7951 272.674 59.3706C276.471 57.5971 281.186 57.9765 284.649 60.3341C280.641 63.327 274.749 63.5016 270.573 60.7496C268.414 61.7884 269.224 65.4286 271.395 66.4403C273.565 67.452 276.113 66.7173 278.389 65.9706L284.077 64.1068C284.724 64.697 284.619 65.808 284.065 66.4855C283.511 67.163 282.65 67.5002 281.809 67.7471C278.07 68.8401 273.972 68.6624 270.341 67.2503L269.832 70.7159C274.583 72.2696 279.994 71.6614 284.278 69.09C285.119 69.9271 284.878 71.4386 284.05 72.2847C283.222 73.1307 281.999 73.4559 280.825 73.6185C277.305 74.1033 273.635 73.4318 270.512 71.7306C269.711 72.9109 270.154 74.6182 271.187 75.6028C272.22 76.5874 273.677 76.9758 275.092 77.1444C277.323 77.4093 279.608 77.2076 281.758 76.5512C282.475 76.3314 283.219 76.0363 283.664 75.4311C284.107 74.8259 284.17 74.034 284.209 73.2843C284.562 66.624 284.414 59.9366 283.773 53.3004C283.417 49.6421 283.252 45.1949 286.302 43.1414C289.174 41.2083 293.149 42.765 295.75 45.0503C291.908 47.3989 286.772 47.4471 282.884 45.1738C282.219 48.4949 285.965 51.3433 289.346 51.1325C292.727 50.9217 295.606 48.7207 298.255 46.613C299.132 49.7836 296.229 53.0174 293.001 53.6497C289.774 54.282 286.492 53.0355 283.535 51.5992C282.785 54.6734 286.124 57.5007 289.289 57.4977C292.453 57.4947 295.275 55.6219 297.876 53.8243C298.861 56.7781 296 59.8824 292.926 60.3702C289.852 60.858 286.802 59.5572 283.959 58.2866C283.309 59.5904 283.938 61.2645 285.091 62.1557C286.245 63.047 287.774 63.2878 289.232 63.2577C292.246 63.1945 295.226 62.0624 297.521 60.1082C297.894 62.7699 295.534 65.2119 292.92 65.8411C290.306 66.4735 287.57 65.7508 285.016 64.9077L284.574 67.726C286.543 69.1201 288.946 70.0234 291.348 69.8066C293.751 69.5868 296.103 68.0934 296.943 65.8321C297.31 64.8445 297.382 63.7786 297.449 62.7278L298.277 49.9552C298.364 48.6093 298.442 47.2092 297.918 45.9657C296.735 43.1685 293.194 42.4217 290.18 42.0484C288.566 41.8496 286.838 41.669 285.39 42.4097C282.656 43.8098 282.373 47.5525 282.55 50.6206C282.842 55.7393 283.384 60.8429 284.17 65.9104C284.357 67.1178 284.574 68.3613 285.236 69.3881C286.696 71.6433 289.882 72.1281 292.486 71.4777C295.094 70.8243 297.391 69.3068 299.89 68.3252C301.775 67.5845 303.781 67.1509 305.804 67.0455C307.418 66.9612 309.125 67.1148 310.474 68.0061C311.823 68.8973 312.669 70.7069 312.031 72.1943C311.462 73.5192 309.959 74.1816 308.541 74.4435C304.407 75.1993 299.912 73.3807 297.467 69.9632C296.584 71.3332 297.295 73.2692 298.578 74.2719C299.86 75.2746 301.54 75.5817 303.145 75.8557C305.617 76.2772 308.246 76.6867 310.561 75.7232C312.877 74.7597 314.569 71.8631 313.34 69.6771C319.844 72.923 324.039 76.8132 324.039 89.1492C324.039 114.902 271.825 174.05 271.825 174.05" stroke="#3B79D8" stroke-width="1.29" stroke-miterlimit="10" stroke-linecap="round"/>
</g>
</svg>
