<svg width="331" height="110" viewBox="0 0 331 110" fill="none" xmlns="http://www.w3.org/2000/svg">
<rect x="0.5" y="0.5" width="330" height="109" rx="7.5" fill="#F7F8F9" stroke="#D3D7DB"/>
<path d="M15.036 28V18.2H16.212V28H15.036ZM18.2199 28V21.056H19.2839L19.3539 22.302C19.5779 21.8633 19.8999 21.518 20.3199 21.266C20.7399 21.014 21.2159 20.888 21.7479 20.888C22.5692 20.888 23.2226 21.14 23.7079 21.644C24.2026 22.1387 24.4499 22.904 24.4499 23.94V28H23.2739V24.066C23.2739 22.6193 22.6766 21.896 21.4819 21.896C20.8846 21.896 20.3852 22.1153 19.9839 22.554C19.5919 22.9833 19.3959 23.5993 19.3959 24.402V28H18.2199ZM30.0067 30.114V16.646H32.4427V17.612H31.1127V29.134H32.4427V30.114H30.0067ZM36.9737 28C36.339 28 35.8397 27.846 35.4757 27.538C35.1117 27.23 34.9297 26.6747 34.9297 25.872V22.05H33.7257V21.056H34.9297L35.0837 19.39H36.1057V21.056H38.1497V22.05H36.1057V25.872C36.1057 26.3107 36.1943 26.6093 36.3717 26.768C36.549 26.9173 36.8617 26.992 37.3097 26.992H38.0377V28H36.9737ZM41.9537 28.168C41.3751 28.168 40.8944 28.07 40.5117 27.874C40.1291 27.678 39.8444 27.4167 39.6577 27.09C39.4711 26.7633 39.3777 26.4087 39.3777 26.026C39.3777 25.3167 39.6484 24.7707 40.1897 24.388C40.7311 24.0053 41.4684 23.814 42.4017 23.814H44.2777V23.73C44.2777 23.1233 44.1191 22.666 43.8017 22.358C43.4844 22.0407 43.0597 21.882 42.5277 21.882C42.0704 21.882 41.6737 21.9987 41.3377 22.232C41.0111 22.456 40.8057 22.7873 40.7217 23.226H39.5177C39.5644 22.722 39.7324 22.2973 40.0217 21.952C40.3204 21.6067 40.6891 21.3453 41.1277 21.168C41.5664 20.9813 42.0331 20.888 42.5277 20.888C43.4984 20.888 44.2264 21.1493 44.7117 21.672C45.2064 22.1853 45.4537 22.8713 45.4537 23.73V28H44.4037L44.3337 26.754C44.1377 27.146 43.8484 27.482 43.4657 27.762C43.0924 28.0327 42.5884 28.168 41.9537 28.168ZM42.1357 27.174C42.5837 27.174 42.9664 27.0573 43.2837 26.824C43.6104 26.5907 43.8577 26.2873 44.0257 25.914C44.1937 25.5407 44.2777 25.1487 44.2777 24.738V24.724H42.4997C41.8091 24.724 41.3191 24.8453 41.0297 25.088C40.7497 25.3213 40.6097 25.6153 40.6097 25.97C40.6097 26.334 40.7404 26.628 41.0017 26.852C41.2724 27.0667 41.6504 27.174 42.1357 27.174ZM47.218 28V21.056H48.282L48.38 22.386C48.5946 21.9287 48.9213 21.5647 49.36 21.294C49.7986 21.0233 50.34 20.888 50.984 20.888V22.12H50.662C50.2513 22.12 49.8733 22.1947 49.528 22.344C49.1826 22.484 48.9073 22.7267 48.702 23.072C48.4966 23.4173 48.394 23.8933 48.394 24.5V28H47.218ZM54.8838 25.816C54.4918 25.816 54.1325 25.7647 53.8058 25.662L53.1058 26.32C53.2085 26.3947 53.3345 26.46 53.4838 26.516C53.6425 26.5627 53.8665 26.6093 54.1558 26.656C54.4452 26.6933 54.8512 26.7353 55.3738 26.782C56.3072 26.8473 56.9745 27.062 57.3758 27.426C57.7772 27.79 57.9778 28.266 57.9778 28.854C57.9778 29.2553 57.8658 29.638 57.6418 30.002C57.4272 30.366 57.0912 30.6647 56.6338 30.898C56.1858 31.1313 55.6072 31.248 54.8978 31.248C54.2725 31.248 53.7172 31.164 53.2318 30.996C52.7465 30.8373 52.3685 30.59 52.0978 30.254C51.8272 29.9273 51.6918 29.512 51.6918 29.008C51.6918 28.7467 51.7618 28.462 51.9018 28.154C52.0418 27.8553 52.3032 27.5707 52.6858 27.3C52.4805 27.216 52.3032 27.1273 52.1538 27.034C52.0138 26.9313 51.8832 26.8193 51.7618 26.698V26.376L52.9518 25.2C52.4012 24.7333 52.1258 24.1173 52.1258 23.352C52.1258 22.8947 52.2332 22.4793 52.4478 22.106C52.6625 21.7327 52.9752 21.4387 53.3858 21.224C53.7965 21 54.2958 20.888 54.8838 20.888C55.2852 20.888 55.6492 20.944 55.9758 21.056H58.5378V21.938L57.2358 21.994C57.5065 22.386 57.6418 22.8387 57.6418 23.352C57.6418 23.8093 57.5298 24.2247 57.3058 24.598C57.0912 24.9713 56.7785 25.27 56.3678 25.494C55.9665 25.7087 55.4718 25.816 54.8838 25.816ZM54.8838 24.85C55.3785 24.85 55.7705 24.724 56.0598 24.472C56.3585 24.2107 56.5078 23.8373 56.5078 23.352C56.5078 22.876 56.3585 22.512 56.0598 22.26C55.7705 21.9987 55.3785 21.868 54.8838 21.868C54.3798 21.868 53.9785 21.9987 53.6798 22.26C53.3905 22.512 53.2458 22.876 53.2458 23.352C53.2458 23.8373 53.3905 24.2107 53.6798 24.472C53.9785 24.724 54.3798 24.85 54.8838 24.85ZM52.8398 28.896C52.8398 29.3627 53.0358 29.708 53.4278 29.932C53.8198 30.1653 54.3098 30.282 54.8978 30.282C55.4765 30.282 55.9385 30.156 56.2838 29.904C56.6385 29.652 56.8158 29.316 56.8158 28.896C56.8158 28.5973 56.6945 28.336 56.4518 28.112C56.2092 27.8973 55.7612 27.7713 55.1078 27.734C54.5945 27.6967 54.1512 27.65 53.7778 27.594C53.3952 27.7993 53.1432 28.0187 53.0218 28.252C52.9005 28.4947 52.8398 28.7093 52.8398 28.896ZM62.713 28.168C62.0503 28.168 61.4623 28.0187 60.949 27.72C60.4357 27.412 60.0297 26.9873 59.731 26.446C59.4417 25.9047 59.297 25.2653 59.297 24.528C59.297 23.8 59.4417 23.1653 59.731 22.624C60.0203 22.0733 60.4217 21.6487 60.935 21.35C61.4577 21.042 62.0597 20.888 62.741 20.888C63.413 20.888 63.9917 21.042 64.477 21.35C64.9717 21.6487 65.3497 22.0453 65.611 22.54C65.8723 23.0347 66.003 23.5667 66.003 24.136C66.003 24.2387 65.9983 24.3413 65.989 24.444C65.989 24.5467 65.989 24.6633 65.989 24.794H60.459C60.487 25.326 60.6083 25.7693 60.823 26.124C61.047 26.4693 61.3223 26.7307 61.649 26.908C61.985 27.0853 62.3397 27.174 62.713 27.174C63.1983 27.174 63.6043 27.062 63.931 26.838C64.2577 26.614 64.4957 26.3107 64.645 25.928H65.807C65.6203 26.572 65.261 27.1087 64.729 27.538C64.2063 27.958 63.5343 28.168 62.713 28.168ZM62.713 21.882C62.153 21.882 61.6537 22.0547 61.215 22.4C60.7857 22.736 60.5383 23.2307 60.473 23.884H64.841C64.813 23.2587 64.5983 22.7687 64.197 22.414C63.7957 22.0593 63.301 21.882 62.713 21.882ZM70.0733 28C69.4386 28 68.9393 27.846 68.5753 27.538C68.2113 27.23 68.0293 26.6747 68.0293 25.872V22.05H66.8253V21.056H68.0293L68.1833 19.39H69.2053V21.056H71.2493V22.05H69.2053V25.872C69.2053 26.3107 69.2939 26.6093 69.4713 26.768C69.6486 26.9173 69.9613 26.992 70.4093 26.992H71.1373V28H70.0733ZM76.4484 28V17.92H77.6244V28H76.4484ZM82.7159 28.168C82.0626 28.168 81.4746 28.0187 80.9519 27.72C80.4293 27.4213 80.0139 27.0013 79.7059 26.46C79.4073 25.9093 79.2579 25.2653 79.2579 24.528C79.2579 23.7907 79.4119 23.1513 79.7199 22.61C80.0279 22.0593 80.4433 21.6347 80.9659 21.336C81.4979 21.0373 82.0906 20.888 82.7439 20.888C83.3973 20.888 83.9853 21.0373 84.5079 21.336C85.0306 21.6347 85.4413 22.0593 85.7399 22.61C86.0479 23.1513 86.2019 23.7907 86.2019 24.528C86.2019 25.2653 86.0479 25.9093 85.7399 26.46C85.4319 27.0013 85.0119 27.4213 84.4799 27.72C83.9573 28.0187 83.3693 28.168 82.7159 28.168ZM82.7159 27.16C83.1173 27.16 83.4906 27.062 83.8359 26.866C84.1813 26.67 84.4613 26.376 84.6759 25.984C84.8906 25.592 84.9979 25.1067 84.9979 24.528C84.9979 23.9493 84.8906 23.464 84.6759 23.072C84.4706 22.68 84.1953 22.386 83.8499 22.19C83.5046 21.994 83.1359 21.896 82.7439 21.896C82.3426 21.896 81.9693 21.994 81.6239 22.19C81.2786 22.386 80.9986 22.68 80.7839 23.072C80.5693 23.464 80.4619 23.9493 80.4619 24.528C80.4619 25.1067 80.5693 25.592 80.7839 25.984C80.9986 26.376 81.2739 26.67 81.6099 26.866C81.9553 27.062 82.3239 27.16 82.7159 27.16ZM91.0291 28.168C90.3664 28.168 89.7691 28.0187 89.2371 27.72C88.7144 27.412 88.2991 26.9873 87.9911 26.446C87.6924 25.8953 87.5431 25.256 87.5431 24.528C87.5431 23.8 87.6924 23.1653 87.9911 22.624C88.2991 22.0733 88.7144 21.6487 89.2371 21.35C89.7691 21.042 90.3664 20.888 91.0291 20.888C91.8504 20.888 92.5411 21.1027 93.1011 21.532C93.6704 21.9613 94.0298 22.5353 94.1791 23.254H92.9751C92.8818 22.8247 92.6531 22.4933 92.2891 22.26C91.9251 22.0173 91.5004 21.896 91.0151 21.896C90.6231 21.896 90.2544 21.994 89.9091 22.19C89.5638 22.386 89.2838 22.68 89.0691 23.072C88.8544 23.464 88.7471 23.9493 88.7471 24.528C88.7471 25.1067 88.8544 25.592 89.0691 25.984C89.2838 26.376 89.5638 26.6747 89.9091 26.88C90.2544 27.076 90.6231 27.174 91.0151 27.174C91.5004 27.174 91.9251 27.0573 92.2891 26.824C92.6531 26.5813 92.8818 26.2407 92.9751 25.802H94.1791C94.0391 26.502 93.6844 27.0713 93.1151 27.51C92.5458 27.9487 91.8504 28.168 91.0291 28.168ZM98.1315 28.168C97.5528 28.168 97.0721 28.07 96.6895 27.874C96.3068 27.678 96.0221 27.4167 95.8355 27.09C95.6488 26.7633 95.5555 26.4087 95.5555 26.026C95.5555 25.3167 95.8261 24.7707 96.3675 24.388C96.9088 24.0053 97.6461 23.814 98.5795 23.814H100.455V23.73C100.455 23.1233 100.297 22.666 99.9795 22.358C99.6621 22.0407 99.2375 21.882 98.7055 21.882C98.2481 21.882 97.8515 21.9987 97.5155 22.232C97.1888 22.456 96.9835 22.7873 96.8995 23.226H95.6955C95.7421 22.722 95.9101 22.2973 96.1995 21.952C96.4981 21.6067 96.8668 21.3453 97.3055 21.168C97.7441 20.9813 98.2108 20.888 98.7055 20.888C99.6761 20.888 100.404 21.1493 100.889 21.672C101.384 22.1853 101.631 22.8713 101.631 23.73V28H100.581L100.511 26.754C100.315 27.146 100.026 27.482 99.6435 27.762C99.2701 28.0327 98.7661 28.168 98.1315 28.168ZM98.3135 27.174C98.7615 27.174 99.1441 27.0573 99.4615 26.824C99.7881 26.5907 100.035 26.2873 100.203 25.914C100.371 25.5407 100.455 25.1487 100.455 24.738V24.724H98.6775C97.9868 24.724 97.4968 24.8453 97.2075 25.088C96.9275 25.3213 96.7875 25.6153 96.7875 25.97C96.7875 26.334 96.9181 26.628 97.1795 26.852C97.4501 27.0667 97.8281 27.174 98.3135 27.174ZM105.948 28C105.314 28 104.814 27.846 104.45 27.538C104.086 27.23 103.904 26.6747 103.904 25.872V22.05H102.7V21.056H103.904L104.058 19.39H105.08V21.056H107.124V22.05H105.08V25.872C105.08 26.3107 105.169 26.6093 105.346 26.768C105.524 26.9173 105.836 26.992 106.284 26.992H107.012V28H105.948ZM109.332 19.516C109.099 19.516 108.903 19.4413 108.744 19.292C108.595 19.1333 108.52 18.9373 108.52 18.704C108.52 18.48 108.595 18.2933 108.744 18.144C108.903 17.9947 109.099 17.92 109.332 17.92C109.556 17.92 109.748 17.9947 109.906 18.144C110.065 18.2933 110.144 18.48 110.144 18.704C110.144 18.9373 110.065 19.1333 109.906 19.292C109.748 19.4413 109.556 19.516 109.332 19.516ZM108.744 28V21.056H109.92V28H108.744ZM115.132 28.168C114.479 28.168 113.891 28.0187 113.368 27.72C112.845 27.4213 112.43 27.0013 112.122 26.46C111.823 25.9093 111.674 25.2653 111.674 24.528C111.674 23.7907 111.828 23.1513 112.136 22.61C112.444 22.0593 112.859 21.6347 113.382 21.336C113.914 21.0373 114.507 20.888 115.16 20.888C115.813 20.888 116.401 21.0373 116.924 21.336C117.447 21.6347 117.857 22.0593 118.156 22.61C118.464 23.1513 118.618 23.7907 118.618 24.528C118.618 25.2653 118.464 25.9093 118.156 26.46C117.848 27.0013 117.428 27.4213 116.896 27.72C116.373 28.0187 115.785 28.168 115.132 28.168ZM115.132 27.16C115.533 27.16 115.907 27.062 116.252 26.866C116.597 26.67 116.877 26.376 117.092 25.984C117.307 25.592 117.414 25.1067 117.414 24.528C117.414 23.9493 117.307 23.464 117.092 23.072C116.887 22.68 116.611 22.386 116.266 22.19C115.921 21.994 115.552 21.896 115.16 21.896C114.759 21.896 114.385 21.994 114.04 22.19C113.695 22.386 113.415 22.68 113.2 23.072C112.985 23.464 112.878 23.9493 112.878 24.528C112.878 25.1067 112.985 25.592 113.2 25.984C113.415 26.376 113.69 26.67 114.026 26.866C114.371 27.062 114.74 27.16 115.132 27.16ZM120.253 28V21.056H121.317L121.387 22.302C121.611 21.8633 121.933 21.518 122.353 21.266C122.773 21.014 123.249 20.888 123.781 20.888C124.602 20.888 125.256 21.14 125.741 21.644C126.236 22.1387 126.483 22.904 126.483 23.94V28H125.307V24.066C125.307 22.6193 124.71 21.896 123.515 21.896C122.918 21.896 122.418 22.1153 122.017 22.554C121.625 22.9833 121.429 23.5993 121.429 24.402V28H120.253ZM128.125 30.114V29.134H129.455V17.612H128.125V16.646H130.561V30.114H128.125ZM133.706 25.256L133.65 23.002H134.084C134.606 23.002 135.092 22.9507 135.54 22.848C135.997 22.7453 136.366 22.5447 136.646 22.246C136.926 21.9473 137.066 21.4993 137.066 20.902C137.066 20.3233 136.884 19.866 136.52 19.53C136.165 19.194 135.694 19.026 135.106 19.026C134.508 19.026 134.037 19.1893 133.692 19.516C133.346 19.8427 133.174 20.2813 133.174 20.832H132.054C132.054 20.272 132.18 19.782 132.432 19.362C132.693 18.942 133.052 18.6153 133.51 18.382C133.967 18.1487 134.499 18.032 135.106 18.032C135.712 18.032 136.249 18.1487 136.716 18.382C137.182 18.6153 137.546 18.9467 137.808 19.376C138.069 19.8053 138.2 20.314 138.2 20.902C138.2 21.5927 138.05 22.1527 137.752 22.582C137.462 23.0113 137.056 23.324 136.534 23.52C136.02 23.716 135.432 23.814 134.77 23.814L134.728 25.256H133.706ZM134.21 28.07C133.976 28.07 133.78 27.9953 133.622 27.846C133.472 27.6873 133.398 27.496 133.398 27.272C133.398 27.048 133.472 26.8613 133.622 26.712C133.78 26.5533 133.976 26.474 134.21 26.474C134.443 26.474 134.634 26.5533 134.784 26.712C134.933 26.8613 135.008 27.048 135.008 27.272C135.008 27.496 134.933 27.6873 134.784 27.846C134.634 27.9953 134.443 28.07 134.21 28.07ZM15.036 53V43.2H16.212L21.434 51.054V43.2H22.61V53H21.434L16.212 45.146V53H15.036ZM27.7403 53.168C27.0777 53.168 26.4897 53.0187 25.9763 52.72C25.463 52.412 25.057 51.9873 24.7583 51.446C24.469 50.9047 24.3243 50.2653 24.3243 49.528C24.3243 48.8 24.469 48.1653 24.7583 47.624C25.0477 47.0733 25.449 46.6487 25.9623 46.35C26.485 46.042 27.087 45.888 27.7683 45.888C28.4403 45.888 29.019 46.042 29.5043 46.35C29.999 46.6487 30.377 47.0453 30.6383 47.54C30.8997 48.0347 31.0303 48.5667 31.0303 49.136C31.0303 49.2387 31.0257 49.3413 31.0163 49.444C31.0163 49.5467 31.0163 49.6633 31.0163 49.794H25.4863C25.5143 50.326 25.6357 50.7693 25.8503 51.124C26.0743 51.4693 26.3497 51.7307 26.6763 51.908C27.0123 52.0853 27.367 52.174 27.7403 52.174C28.2257 52.174 28.6317 52.062 28.9583 51.838C29.285 51.614 29.523 51.3107 29.6723 50.928H30.8343C30.6477 51.572 30.2883 52.1087 29.7563 52.538C29.2337 52.958 28.5617 53.168 27.7403 53.168ZM27.7403 46.882C27.1803 46.882 26.681 47.0547 26.2423 47.4C25.813 47.736 25.5657 48.2307 25.5003 48.884H29.8683C29.8403 48.2587 29.6257 47.7687 29.2243 47.414C28.823 47.0593 28.3283 46.882 27.7403 46.882ZM35.711 53.168C35.0484 53.168 34.4604 53.0187 33.947 52.72C33.4337 52.412 33.0277 51.9873 32.729 51.446C32.4397 50.9047 32.295 50.2653 32.295 49.528C32.295 48.8 32.4397 48.1653 32.729 47.624C33.0184 47.0733 33.4197 46.6487 33.933 46.35C34.4557 46.042 35.0577 45.888 35.739 45.888C36.411 45.888 36.9897 46.042 37.475 46.35C37.9697 46.6487 38.3477 47.0453 38.609 47.54C38.8704 48.0347 39.001 48.5667 39.001 49.136C39.001 49.2387 38.9964 49.3413 38.987 49.444C38.987 49.5467 38.987 49.6633 38.987 49.794H33.457C33.485 50.326 33.6064 50.7693 33.821 51.124C34.045 51.4693 34.3204 51.7307 34.647 51.908C34.983 52.0853 35.3377 52.174 35.711 52.174C36.1964 52.174 36.6024 52.062 36.929 51.838C37.2557 51.614 37.4937 51.3107 37.643 50.928H38.805C38.6184 51.572 38.259 52.1087 37.727 52.538C37.2044 52.958 36.5324 53.168 35.711 53.168ZM35.711 46.882C35.151 46.882 34.6517 47.0547 34.213 47.4C33.7837 47.736 33.5364 48.2307 33.471 48.884H37.839C37.811 48.2587 37.5964 47.7687 37.195 47.414C36.7937 47.0593 36.299 46.882 35.711 46.882ZM43.7097 53.168C43.0191 53.168 42.4124 53.0093 41.8898 52.692C41.3764 52.3747 40.9751 51.9407 40.6858 51.39C40.4058 50.8393 40.2658 50.214 40.2658 49.514C40.2658 48.814 40.4104 48.1933 40.6998 47.652C40.9891 47.1013 41.3904 46.672 41.9038 46.364C42.4171 46.0467 43.0238 45.888 43.7238 45.888C44.2931 45.888 44.7971 46.0047 45.2358 46.238C45.6744 46.4713 46.0151 46.798 46.2578 47.218V42.92H47.4338V53H46.3698L46.2578 51.852C46.0338 52.188 45.7118 52.4913 45.2918 52.762C44.8718 53.0327 44.3444 53.168 43.7097 53.168ZM43.8358 52.146C44.3024 52.146 44.7131 52.0387 45.0678 51.824C45.4318 51.6 45.7118 51.292 45.9078 50.9C46.1131 50.508 46.2158 50.0507 46.2158 49.528C46.2158 49.0053 46.1131 48.548 45.9078 48.156C45.7118 47.764 45.4318 47.4607 45.0678 47.246C44.7131 47.022 44.3024 46.91 43.8358 46.91C43.3784 46.91 42.9678 47.022 42.6038 47.246C42.2491 47.4607 41.9691 47.764 41.7638 48.156C41.5678 48.548 41.4698 49.0053 41.4698 49.528C41.4698 50.0507 41.5678 50.508 41.7638 50.9C41.9691 51.292 42.2491 51.6 42.6038 51.824C42.9678 52.0387 43.3784 52.146 43.8358 52.146ZM55.7998 53C55.1652 53 54.6658 52.846 54.3018 52.538C53.9378 52.23 53.7558 51.6747 53.7558 50.872V47.05H52.5518V46.056H53.7558L53.9098 44.39H54.9318V46.056H56.9758V47.05H54.9318V50.872C54.9318 51.3107 55.0205 51.6093 55.1978 51.768C55.3752 51.9173 55.6878 51.992 56.1358 51.992H56.8638V53H55.7998ZM61.4425 53.168C60.7892 53.168 60.2012 53.0187 59.6785 52.72C59.1558 52.4213 58.7405 52.0013 58.4325 51.46C58.1338 50.9093 57.9845 50.2653 57.9845 49.528C57.9845 48.7907 58.1385 48.1513 58.4465 47.61C58.7545 47.0593 59.1698 46.6347 59.6925 46.336C60.2245 46.0373 60.8172 45.888 61.4705 45.888C62.1238 45.888 62.7118 46.0373 63.2345 46.336C63.7572 46.6347 64.1678 47.0593 64.4665 47.61C64.7745 48.1513 64.9285 48.7907 64.9285 49.528C64.9285 50.2653 64.7745 50.9093 64.4665 51.46C64.1585 52.0013 63.7385 52.4213 63.2065 52.72C62.6838 53.0187 62.0958 53.168 61.4425 53.168ZM61.4425 52.16C61.8438 52.16 62.2172 52.062 62.5625 51.866C62.9078 51.67 63.1878 51.376 63.4025 50.984C63.6172 50.592 63.7245 50.1067 63.7245 49.528C63.7245 48.9493 63.6172 48.464 63.4025 48.072C63.1972 47.68 62.9218 47.386 62.5765 47.19C62.2312 46.994 61.8625 46.896 61.4705 46.896C61.0692 46.896 60.6958 46.994 60.3505 47.19C60.0052 47.386 59.7252 47.68 59.5105 48.072C59.2958 48.464 59.1885 48.9493 59.1885 49.528C59.1885 50.1067 59.2958 50.592 59.5105 50.984C59.7252 51.376 60.0005 51.67 60.3365 51.866C60.6818 52.062 61.0505 52.16 61.4425 52.16ZM70.3387 55.114V41.646H72.7747V42.612H71.4447V54.134H72.7747V55.114H70.3387ZM74.6317 53V43.2H78.0757C78.7664 43.2 79.3357 43.312 79.7837 43.536C80.241 43.7507 80.5817 44.0493 80.8057 44.432C81.0297 44.8053 81.1417 45.2253 81.1417 45.692C81.1417 46.3267 80.969 46.826 80.6237 47.19C80.2877 47.554 79.8817 47.806 79.4057 47.946C79.7697 48.0113 80.101 48.156 80.3997 48.38C80.6984 48.604 80.9317 48.884 81.0997 49.22C81.277 49.556 81.3657 49.9247 81.3657 50.326C81.3657 50.8207 81.2444 51.2733 81.0017 51.684C80.759 52.0853 80.3997 52.4073 79.9237 52.65C79.4477 52.8833 78.869 53 78.1877 53H74.6317ZM75.8077 47.484H77.9917C78.617 47.484 79.0977 47.3393 79.4337 47.05C79.7697 46.7513 79.9377 46.3407 79.9377 45.818C79.9377 45.3233 79.7697 44.9267 79.4337 44.628C79.107 44.3293 78.6124 44.18 77.9497 44.18H75.8077V47.484ZM75.8077 52.02H78.0617C78.7337 52.02 79.2517 51.866 79.6157 51.558C79.9797 51.2407 80.1617 50.802 80.1617 50.242C80.1617 49.6913 79.9704 49.2527 79.5877 48.926C79.205 48.59 78.687 48.422 78.0337 48.422H75.8077V52.02ZM86.1056 53.168C85.4429 53.168 84.8549 53.0187 84.3416 52.72C83.8282 52.412 83.4222 51.9873 83.1236 51.446C82.8342 50.9047 82.6896 50.2653 82.6896 49.528C82.6896 48.8 82.8342 48.1653 83.1236 47.624C83.4129 47.0733 83.8142 46.6487 84.3276 46.35C84.8502 46.042 85.4522 45.888 86.1336 45.888C86.8056 45.888 87.3842 46.042 87.8696 46.35C88.3642 46.6487 88.7422 47.0453 89.0036 47.54C89.2649 48.0347 89.3956 48.5667 89.3956 49.136C89.3956 49.2387 89.3909 49.3413 89.3816 49.444C89.3816 49.5467 89.3816 49.6633 89.3816 49.794H83.8516C83.8796 50.326 84.0009 50.7693 84.2156 51.124C84.4396 51.4693 84.7149 51.7307 85.0416 51.908C85.3776 52.0853 85.7322 52.174 86.1056 52.174C86.5909 52.174 86.9969 52.062 87.3236 51.838C87.6502 51.614 87.8882 51.3107 88.0376 50.928H89.1996C89.0129 51.572 88.6536 52.1087 88.1216 52.538C87.5989 52.958 86.9269 53.168 86.1056 53.168ZM86.1056 46.882C85.5456 46.882 85.0462 47.0547 84.6076 47.4C84.1782 47.736 83.9309 48.2307 83.8656 48.884H88.2336C88.2056 48.2587 87.9909 47.7687 87.5896 47.414C87.1882 47.0593 86.6936 46.882 86.1056 46.882ZM90.9543 53V46.056H92.0183L92.0883 47.302C92.3123 46.8633 92.6343 46.518 93.0543 46.266C93.4743 46.014 93.9503 45.888 94.4823 45.888C95.3036 45.888 95.9569 46.14 96.4423 46.644C96.9369 47.1387 97.1843 47.904 97.1843 48.94V53H96.0083V49.066C96.0083 47.6193 95.4109 46.896 94.2163 46.896C93.6189 46.896 93.1196 47.1153 92.7183 47.554C92.3263 47.9833 92.1303 48.5993 92.1303 49.402V53H90.9543ZM102.088 53.168C101.425 53.168 100.837 53.0187 100.324 52.72C99.8107 52.412 99.4047 51.9873 99.106 51.446C98.8167 50.9047 98.672 50.2653 98.672 49.528C98.672 48.8 98.8167 48.1653 99.106 47.624C99.3953 47.0733 99.7967 46.6487 100.31 46.35C100.833 46.042 101.435 45.888 102.116 45.888C102.788 45.888 103.367 46.042 103.852 46.35C104.347 46.6487 104.725 47.0453 104.986 47.54C105.247 48.0347 105.378 48.5667 105.378 49.136C105.378 49.2387 105.373 49.3413 105.364 49.444C105.364 49.5467 105.364 49.6633 105.364 49.794H99.834C99.862 50.326 99.9833 50.7693 100.198 51.124C100.422 51.4693 100.697 51.7307 101.024 51.908C101.36 52.0853 101.715 52.174 102.088 52.174C102.573 52.174 102.979 52.062 103.306 51.838C103.633 51.614 103.871 51.3107 104.02 50.928H105.182C104.995 51.572 104.636 52.1087 104.104 52.538C103.581 52.958 102.909 53.168 102.088 53.168ZM102.088 46.882C101.528 46.882 101.029 47.0547 100.59 47.4C100.161 47.736 99.9133 48.2307 99.848 48.884H104.216C104.188 48.2587 103.973 47.7687 103.572 47.414C103.171 47.0593 102.676 46.882 102.088 46.882ZM107.315 53V47.05H106.265V46.056H107.315V44.852C107.315 44.18 107.483 43.69 107.819 43.382C108.155 43.074 108.645 42.92 109.289 42.92H109.989V43.928H109.471C109.116 43.928 108.864 44.0027 108.715 44.152C108.565 44.292 108.491 44.5347 108.491 44.88V46.056H112.803V53H111.627V47.05H108.491V53H107.315ZM112.229 44.726C112.005 44.726 111.813 44.6513 111.655 44.502C111.496 44.3433 111.417 44.1473 111.417 43.914C111.417 43.69 111.496 43.5033 111.655 43.354C111.813 43.2047 112.005 43.13 112.229 43.13C112.462 43.13 112.653 43.2047 112.803 43.354C112.961 43.5033 113.041 43.69 113.041 43.914C113.041 44.1473 112.961 44.3433 112.803 44.502C112.653 44.6513 112.462 44.726 112.229 44.726ZM117.624 53C116.989 53 116.49 52.846 116.126 52.538C115.762 52.23 115.58 51.6747 115.58 50.872V47.05H114.376V46.056H115.58L115.734 44.39H116.756V46.056H118.8V47.05H116.756V50.872C116.756 51.3107 116.845 51.6093 117.022 51.768C117.199 51.9173 117.512 51.992 117.96 51.992H118.688V53H117.624ZM125.035 53V44.516L123.453 44.866V44.054L125.427 43.2H126.225V53H125.035ZM128.084 55.114V54.134H129.414V42.612H128.084V41.646H130.52V55.114H128.084ZM138.966 53C138.331 53 137.832 52.846 137.468 52.538C137.104 52.23 136.922 51.6747 136.922 50.872V47.05H135.718V46.056H136.922L137.076 44.39H138.098V46.056H140.142V47.05H138.098V50.872C138.098 51.3107 138.187 51.6093 138.364 51.768C138.541 51.9173 138.854 51.992 139.302 51.992H140.03V53H138.966ZM144.609 53.168C143.955 53.168 143.367 53.0187 142.845 52.72C142.322 52.4213 141.907 52.0013 141.599 51.46C141.3 50.9093 141.151 50.2653 141.151 49.528C141.151 48.7907 141.305 48.1513 141.613 47.61C141.921 47.0593 142.336 46.6347 142.859 46.336C143.391 46.0373 143.983 45.888 144.637 45.888C145.29 45.888 145.878 46.0373 146.401 46.336C146.923 46.6347 147.334 47.0593 147.633 47.61C147.941 48.1513 148.095 48.7907 148.095 49.528C148.095 50.2653 147.941 50.9093 147.633 51.46C147.325 52.0013 146.905 52.4213 146.373 52.72C145.85 53.0187 145.262 53.168 144.609 53.168ZM144.609 52.16C145.01 52.16 145.383 52.062 145.729 51.866C146.074 51.67 146.354 51.376 146.569 50.984C146.783 50.592 146.891 50.1067 146.891 49.528C146.891 48.9493 146.783 48.464 146.569 48.072C146.363 47.68 146.088 47.386 145.743 47.19C145.397 46.994 145.029 46.896 144.637 46.896C144.235 46.896 143.862 46.994 143.517 47.19C143.171 47.386 142.891 47.68 142.677 48.072C142.462 48.464 142.355 48.9493 142.355 49.528C142.355 50.1067 142.462 50.592 142.677 50.984C142.891 51.376 143.167 51.67 143.503 51.866C143.848 52.062 144.217 52.16 144.609 52.16ZM152.88 53.168C152.189 53.168 151.582 53.0093 151.06 52.692C150.546 52.3747 150.145 51.9407 149.856 51.39C149.576 50.8393 149.436 50.214 149.436 49.514C149.436 48.814 149.58 48.1933 149.87 47.652C150.159 47.1013 150.56 46.672 151.074 46.364C151.587 46.0467 152.194 45.888 152.894 45.888C153.463 45.888 153.967 46.0047 154.406 46.238C154.844 46.4713 155.185 46.798 155.428 47.218V42.92H156.604V53H155.54L155.428 51.852C155.204 52.188 154.882 52.4913 154.462 52.762C154.042 53.0327 153.514 53.168 152.88 53.168ZM153.006 52.146C153.472 52.146 153.883 52.0387 154.238 51.824C154.602 51.6 154.882 51.292 155.078 50.9C155.283 50.508 155.386 50.0507 155.386 49.528C155.386 49.0053 155.283 48.548 155.078 48.156C154.882 47.764 154.602 47.4607 154.238 47.246C153.883 47.022 153.472 46.91 153.006 46.91C152.548 46.91 152.138 47.022 151.774 47.246C151.419 47.4607 151.139 47.764 150.934 48.156C150.738 48.548 150.64 49.0053 150.64 49.528C150.64 50.0507 150.738 50.508 150.934 50.9C151.139 51.292 151.419 51.6 151.774 51.824C152.138 52.0387 152.548 52.146 153.006 52.146ZM160.831 53.168C160.252 53.168 159.771 53.07 159.389 52.874C159.006 52.678 158.721 52.4167 158.535 52.09C158.348 51.7633 158.255 51.4087 158.255 51.026C158.255 50.3167 158.525 49.7707 159.067 49.388C159.608 49.0053 160.345 48.814 161.279 48.814H163.155V48.73C163.155 48.1233 162.996 47.666 162.679 47.358C162.361 47.0407 161.937 46.882 161.405 46.882C160.947 46.882 160.551 46.9987 160.215 47.232C159.888 47.456 159.683 47.7873 159.599 48.226H158.395C158.441 47.722 158.609 47.2973 158.899 46.952C159.197 46.6067 159.566 46.3453 160.005 46.168C160.443 45.9813 160.91 45.888 161.405 45.888C162.375 45.888 163.103 46.1493 163.589 46.672C164.083 47.1853 164.331 47.8713 164.331 48.73V53H163.281L163.211 51.754C163.015 52.146 162.725 52.482 162.343 52.762C161.969 53.0327 161.465 53.168 160.831 53.168ZM161.013 52.174C161.461 52.174 161.843 52.0573 162.161 51.824C162.487 51.5907 162.735 51.2873 162.903 50.914C163.071 50.5407 163.155 50.1487 163.155 49.738V49.724H161.377C160.686 49.724 160.196 49.8453 159.907 50.088C159.627 50.3213 159.487 50.6153 159.487 50.97C159.487 51.334 159.617 51.628 159.879 51.852C160.149 52.0667 160.527 52.174 161.013 52.174ZM166.646 56.08L168.368 52.328H167.962L165.204 46.056H166.478L168.774 51.46L171.21 46.056H172.428L167.878 56.08H166.646ZM174.817 50.256L174.761 48.002H175.195C175.718 48.002 176.203 47.9507 176.651 47.848C177.108 47.7453 177.477 47.5447 177.757 47.246C178.037 46.9473 178.177 46.4993 178.177 45.902C178.177 45.3233 177.995 44.866 177.631 44.53C177.276 44.194 176.805 44.026 176.217 44.026C175.62 44.026 175.148 44.1893 174.803 44.516C174.458 44.8427 174.285 45.2813 174.285 45.832H173.165C173.165 45.272 173.291 44.782 173.543 44.362C173.804 43.942 174.164 43.6153 174.621 43.382C175.078 43.1487 175.61 43.032 176.217 43.032C176.824 43.032 177.36 43.1487 177.827 43.382C178.294 43.6153 178.658 43.9467 178.919 44.376C179.18 44.8053 179.311 45.314 179.311 45.902C179.311 46.5927 179.162 47.1527 178.863 47.582C178.574 48.0113 178.168 48.324 177.645 48.52C177.132 48.716 176.544 48.814 175.881 48.814L175.839 50.256H174.817ZM175.321 53.07C175.088 53.07 174.892 52.9953 174.733 52.846C174.584 52.6873 174.509 52.496 174.509 52.272C174.509 52.048 174.584 51.8613 174.733 51.712C174.892 51.5533 175.088 51.474 175.321 51.474C175.554 51.474 175.746 51.5533 175.895 51.712C176.044 51.8613 176.119 52.048 176.119 52.272C176.119 52.496 176.044 52.6873 175.895 52.846C175.746 52.9953 175.554 53.07 175.321 53.07Z" fill="black"/>
</svg>
