<svg width="331" height="110" viewBox="0 0 331 110" fill="none" xmlns="http://www.w3.org/2000/svg">
<rect x="0.5" y="0.5" width="330" height="109" rx="7.5" fill="#F7F8F9" stroke="#D3D7DB"/>
<path d="M15.036 28V18.2H16.212V28H15.036ZM18.2199 28V21.056H19.2839L19.3539 22.302C19.5779 21.8633 19.8999 21.518 20.3199 21.266C20.7399 21.014 21.2159 20.888 21.7479 20.888C22.5692 20.888 23.2226 21.14 23.7079 21.644C24.2026 22.1387 24.4499 22.904 24.4499 23.94V28H23.2739V24.066C23.2739 22.6193 22.6766 21.896 21.4819 21.896C20.8846 21.896 20.3852 22.1153 19.9839 22.554C19.5919 22.9833 19.3959 23.5993 19.3959 24.402V28H18.2199ZM30.0067 28V18.2H31.1827V27.062H35.7467V28H30.0067ZM40.1554 28.168C39.5021 28.168 38.9141 28.0187 38.3914 27.72C37.8687 27.4213 37.4534 27.0013 37.1454 26.46C36.8467 25.9093 36.6974 25.2653 36.6974 24.528C36.6974 23.7907 36.8514 23.1513 37.1594 22.61C37.4674 22.0593 37.8827 21.6347 38.4054 21.336C38.9374 21.0373 39.5301 20.888 40.1834 20.888C40.8367 20.888 41.4247 21.0373 41.9474 21.336C42.4701 21.6347 42.8807 22.0593 43.1794 22.61C43.4874 23.1513 43.6414 23.7907 43.6414 24.528C43.6414 25.2653 43.4874 25.9093 43.1794 26.46C42.8714 27.0013 42.4514 27.4213 41.9194 27.72C41.3967 28.0187 40.8087 28.168 40.1554 28.168ZM40.1554 27.16C40.5567 27.16 40.9301 27.062 41.2754 26.866C41.6207 26.67 41.9007 26.376 42.1154 25.984C42.3301 25.592 42.4374 25.1067 42.4374 24.528C42.4374 23.9493 42.3301 23.464 42.1154 23.072C41.9101 22.68 41.6347 22.386 41.2894 22.19C40.9441 21.994 40.5754 21.896 40.1834 21.896C39.7821 21.896 39.4087 21.994 39.0634 22.19C38.7181 22.386 38.4381 22.68 38.2234 23.072C38.0087 23.464 37.9014 23.9493 37.9014 24.528C37.9014 25.1067 38.0087 25.592 38.2234 25.984C38.4381 26.376 38.7134 26.67 39.0494 26.866C39.3947 27.062 39.7634 27.16 40.1554 27.16ZM45.2765 28V21.056H46.3405L46.4105 22.302C46.6345 21.8633 46.9565 21.518 47.3765 21.266C47.7965 21.014 48.2725 20.888 48.8045 20.888C49.6259 20.888 50.2792 21.14 50.7645 21.644C51.2592 22.1387 51.5065 22.904 51.5065 23.94V28H50.3305V24.066C50.3305 22.6193 49.7332 21.896 48.5385 21.896C47.9412 21.896 47.4419 22.1153 47.0405 22.554C46.6485 22.9833 46.4525 23.5993 46.4525 24.402V28H45.2765ZM56.4383 28.168C55.7476 28.168 55.1409 28.0093 54.6183 27.692C54.1049 27.3747 53.7036 26.9407 53.4143 26.39C53.1343 25.8393 52.9943 25.214 52.9943 24.514C52.9943 23.814 53.1389 23.1933 53.4283 22.652C53.7176 22.1013 54.1189 21.672 54.6323 21.364C55.1456 21.0467 55.7523 20.888 56.4523 20.888C57.0216 20.888 57.5256 21.0047 57.9643 21.238C58.4029 21.4713 58.7436 21.798 58.9863 22.218V17.92H60.1623V28H59.0983L58.9863 26.852C58.7623 27.188 58.4403 27.4913 58.0203 27.762C57.6003 28.0327 57.0729 28.168 56.4383 28.168ZM56.5643 27.146C57.0309 27.146 57.4416 27.0387 57.7963 26.824C58.1603 26.6 58.4403 26.292 58.6363 25.9C58.8416 25.508 58.9443 25.0507 58.9443 24.528C58.9443 24.0053 58.8416 23.548 58.6363 23.156C58.4403 22.764 58.1603 22.4607 57.7963 22.246C57.4416 22.022 57.0309 21.91 56.5643 21.91C56.1069 21.91 55.6963 22.022 55.3323 22.246C54.9776 22.4607 54.6976 22.764 54.4923 23.156C54.2963 23.548 54.1983 24.0053 54.1983 24.528C54.1983 25.0507 54.2963 25.508 54.4923 25.9C54.6976 26.292 54.9776 26.6 55.3323 26.824C55.6963 27.0387 56.1069 27.146 56.5643 27.146ZM65.2433 28.168C64.5899 28.168 64.0019 28.0187 63.4793 27.72C62.9566 27.4213 62.5413 27.0013 62.2333 26.46C61.9346 25.9093 61.7853 25.2653 61.7853 24.528C61.7853 23.7907 61.9393 23.1513 62.2473 22.61C62.5553 22.0593 62.9706 21.6347 63.4933 21.336C64.0253 21.0373 64.6179 20.888 65.2713 20.888C65.9246 20.888 66.5126 21.0373 67.0353 21.336C67.5579 21.6347 67.9686 22.0593 68.2673 22.61C68.5753 23.1513 68.7293 23.7907 68.7293 24.528C68.7293 25.2653 68.5753 25.9093 68.2673 26.46C67.9593 27.0013 67.5393 27.4213 67.0073 27.72C66.4846 28.0187 65.8966 28.168 65.2433 28.168ZM65.2433 27.16C65.6446 27.16 66.0179 27.062 66.3633 26.866C66.7086 26.67 66.9886 26.376 67.2033 25.984C67.4179 25.592 67.5253 25.1067 67.5253 24.528C67.5253 23.9493 67.4179 23.464 67.2033 23.072C66.9979 22.68 66.7226 22.386 66.3773 22.19C66.0319 21.994 65.6633 21.896 65.2713 21.896C64.8699 21.896 64.4966 21.994 64.1513 22.19C63.8059 22.386 63.5259 22.68 63.3113 23.072C63.0966 23.464 62.9893 23.9493 62.9893 24.528C62.9893 25.1067 63.0966 25.592 63.3113 25.984C63.5259 26.376 63.8013 26.67 64.1373 26.866C64.4826 27.062 64.8513 27.16 65.2433 27.16ZM70.3644 28V21.056H71.4284L71.4984 22.302C71.7224 21.8633 72.0444 21.518 72.4644 21.266C72.8844 21.014 73.3604 20.888 73.8924 20.888C74.7138 20.888 75.3671 21.14 75.8524 21.644C76.3471 22.1387 76.5944 22.904 76.5944 23.94V28H75.4184V24.066C75.4184 22.6193 74.8211 21.896 73.6264 21.896C73.0291 21.896 72.5298 22.1153 72.1284 22.554C71.7364 22.9833 71.5404 23.5993 71.5404 24.402V28H70.3644ZM79.5242 25.256L79.4682 23.002H79.9022C80.4248 23.002 80.9102 22.9507 81.3582 22.848C81.8155 22.7453 82.1842 22.5447 82.4642 22.246C82.7442 21.9473 82.8842 21.4993 82.8842 20.902C82.8842 20.3233 82.7022 19.866 82.3382 19.53C81.9835 19.194 81.5122 19.026 80.9242 19.026C80.3268 19.026 79.8555 19.1893 79.5102 19.516C79.1648 19.8427 78.9922 20.2813 78.9922 20.832H77.8722C77.8722 20.272 77.9982 19.782 78.2502 19.362C78.5115 18.942 78.8708 18.6153 79.3282 18.382C79.7855 18.1487 80.3175 18.032 80.9242 18.032C81.5308 18.032 82.0675 18.1487 82.5342 18.382C83.0008 18.6153 83.3648 18.9467 83.6262 19.376C83.8875 19.8053 84.0182 20.314 84.0182 20.902C84.0182 21.5927 83.8688 22.1527 83.5702 22.582C83.2808 23.0113 82.8748 23.324 82.3522 23.52C81.8388 23.716 81.2508 23.814 80.5882 23.814L80.5462 25.256H79.5242ZM80.0282 28.07C79.7948 28.07 79.5988 27.9953 79.4402 27.846C79.2908 27.6873 79.2162 27.496 79.2162 27.272C79.2162 27.048 79.2908 26.8613 79.4402 26.712C79.5988 26.5533 79.7948 26.474 80.0282 26.474C80.2615 26.474 80.4528 26.5533 80.6022 26.712C80.7515 26.8613 80.8262 27.048 80.8262 27.272C80.8262 27.496 80.7515 27.6873 80.6022 27.846C80.4528 27.9953 80.2615 28.07 80.0282 28.07ZM15.036 53V43.2H16.212L21.434 51.054V43.2H22.61V53H21.434L16.212 45.146V53H15.036ZM27.7403 53.168C27.0777 53.168 26.4897 53.0187 25.9763 52.72C25.463 52.412 25.057 51.9873 24.7583 51.446C24.469 50.9047 24.3243 50.2653 24.3243 49.528C24.3243 48.8 24.469 48.1653 24.7583 47.624C25.0477 47.0733 25.449 46.6487 25.9623 46.35C26.485 46.042 27.087 45.888 27.7683 45.888C28.4403 45.888 29.019 46.042 29.5043 46.35C29.999 46.6487 30.377 47.0453 30.6383 47.54C30.8997 48.0347 31.0303 48.5667 31.0303 49.136C31.0303 49.2387 31.0257 49.3413 31.0163 49.444C31.0163 49.5467 31.0163 49.6633 31.0163 49.794H25.4863C25.5143 50.326 25.6357 50.7693 25.8503 51.124C26.0743 51.4693 26.3497 51.7307 26.6763 51.908C27.0123 52.0853 27.367 52.174 27.7403 52.174C28.2257 52.174 28.6317 52.062 28.9583 51.838C29.285 51.614 29.523 51.3107 29.6723 50.928H30.8343C30.6477 51.572 30.2883 52.1087 29.7563 52.538C29.2337 52.958 28.5617 53.168 27.7403 53.168ZM27.7403 46.882C27.1803 46.882 26.681 47.0547 26.2423 47.4C25.813 47.736 25.5657 48.2307 25.5003 48.884H29.8683C29.8403 48.2587 29.6257 47.7687 29.2243 47.414C28.823 47.0593 28.3283 46.882 27.7403 46.882ZM35.711 53.168C35.0484 53.168 34.4604 53.0187 33.947 52.72C33.4337 52.412 33.0277 51.9873 32.729 51.446C32.4397 50.9047 32.295 50.2653 32.295 49.528C32.295 48.8 32.4397 48.1653 32.729 47.624C33.0184 47.0733 33.4197 46.6487 33.933 46.35C34.4557 46.042 35.0577 45.888 35.739 45.888C36.411 45.888 36.9897 46.042 37.475 46.35C37.9697 46.6487 38.3477 47.0453 38.609 47.54C38.8704 48.0347 39.001 48.5667 39.001 49.136C39.001 49.2387 38.9964 49.3413 38.987 49.444C38.987 49.5467 38.987 49.6633 38.987 49.794H33.457C33.485 50.326 33.6064 50.7693 33.821 51.124C34.045 51.4693 34.3204 51.7307 34.647 51.908C34.983 52.0853 35.3377 52.174 35.711 52.174C36.1964 52.174 36.6024 52.062 36.929 51.838C37.2557 51.614 37.4937 51.3107 37.643 50.928H38.805C38.6184 51.572 38.259 52.1087 37.727 52.538C37.2044 52.958 36.5324 53.168 35.711 53.168ZM35.711 46.882C35.151 46.882 34.6517 47.0547 34.213 47.4C33.7837 47.736 33.5364 48.2307 33.471 48.884H37.839C37.811 48.2587 37.5964 47.7687 37.195 47.414C36.7937 47.0593 36.299 46.882 35.711 46.882ZM43.7097 53.168C43.0191 53.168 42.4124 53.0093 41.8898 52.692C41.3764 52.3747 40.9751 51.9407 40.6858 51.39C40.4058 50.8393 40.2658 50.214 40.2658 49.514C40.2658 48.814 40.4104 48.1933 40.6998 47.652C40.9891 47.1013 41.3904 46.672 41.9038 46.364C42.4171 46.0467 43.0238 45.888 43.7238 45.888C44.2931 45.888 44.7971 46.0047 45.2358 46.238C45.6744 46.4713 46.0151 46.798 46.2578 47.218V42.92H47.4338V53H46.3698L46.2578 51.852C46.0338 52.188 45.7118 52.4913 45.2918 52.762C44.8718 53.0327 44.3444 53.168 43.7097 53.168ZM43.8358 52.146C44.3024 52.146 44.7131 52.0387 45.0678 51.824C45.4318 51.6 45.7118 51.292 45.9078 50.9C46.1131 50.508 46.2158 50.0507 46.2158 49.528C46.2158 49.0053 46.1131 48.548 45.9078 48.156C45.7118 47.764 45.4318 47.4607 45.0678 47.246C44.7131 47.022 44.3024 46.91 43.8358 46.91C43.3784 46.91 42.9678 47.022 42.6038 47.246C42.2491 47.4607 41.9691 47.764 41.7638 48.156C41.5678 48.548 41.4698 49.0053 41.4698 49.528C41.4698 50.0507 41.5678 50.508 41.7638 50.9C41.9691 51.292 42.2491 51.6 42.6038 51.824C42.9678 52.0387 43.3784 52.146 43.8358 52.146ZM55.7998 53C55.1652 53 54.6658 52.846 54.3018 52.538C53.9378 52.23 53.7558 51.6747 53.7558 50.872V47.05H52.5518V46.056H53.7558L53.9098 44.39H54.9318V46.056H56.9758V47.05H54.9318V50.872C54.9318 51.3107 55.0205 51.6093 55.1978 51.768C55.3752 51.9173 55.6878 51.992 56.1358 51.992H56.8638V53H55.7998ZM61.4425 53.168C60.7892 53.168 60.2012 53.0187 59.6785 52.72C59.1558 52.4213 58.7405 52.0013 58.4325 51.46C58.1338 50.9093 57.9845 50.2653 57.9845 49.528C57.9845 48.7907 58.1385 48.1513 58.4465 47.61C58.7545 47.0593 59.1698 46.6347 59.6925 46.336C60.2245 46.0373 60.8172 45.888 61.4705 45.888C62.1238 45.888 62.7118 46.0373 63.2345 46.336C63.7572 46.6347 64.1678 47.0593 64.4665 47.61C64.7745 48.1513 64.9285 48.7907 64.9285 49.528C64.9285 50.2653 64.7745 50.9093 64.4665 51.46C64.1585 52.0013 63.7385 52.4213 63.2065 52.72C62.6838 53.0187 62.0958 53.168 61.4425 53.168ZM61.4425 52.16C61.8438 52.16 62.2172 52.062 62.5625 51.866C62.9078 51.67 63.1878 51.376 63.4025 50.984C63.6172 50.592 63.7245 50.1067 63.7245 49.528C63.7245 48.9493 63.6172 48.464 63.4025 48.072C63.1972 47.68 62.9218 47.386 62.5765 47.19C62.2312 46.994 61.8625 46.896 61.4705 46.896C61.0692 46.896 60.6958 46.994 60.3505 47.19C60.0052 47.386 59.7252 47.68 59.5105 48.072C59.2958 48.464 59.1885 48.9493 59.1885 49.528C59.1885 50.1067 59.2958 50.592 59.5105 50.984C59.7252 51.376 60.0005 51.67 60.3365 51.866C60.6818 52.062 61.0505 52.16 61.4425 52.16ZM70.2687 53V42.92H71.4447V53H70.2687ZM76.5363 53.168C75.8829 53.168 75.2949 53.0187 74.7723 52.72C74.2496 52.4213 73.8343 52.0013 73.5263 51.46C73.2276 50.9093 73.0783 50.2653 73.0783 49.528C73.0783 48.7907 73.2323 48.1513 73.5403 47.61C73.8483 47.0593 74.2636 46.6347 74.7863 46.336C75.3183 46.0373 75.9109 45.888 76.5643 45.888C77.2176 45.888 77.8056 46.0373 78.3283 46.336C78.8509 46.6347 79.2616 47.0593 79.5603 47.61C79.8683 48.1513 80.0223 48.7907 80.0223 49.528C80.0223 50.2653 79.8683 50.9093 79.5603 51.46C79.2523 52.0013 78.8323 52.4213 78.3003 52.72C77.7776 53.0187 77.1896 53.168 76.5363 53.168ZM76.5363 52.16C76.9376 52.16 77.3109 52.062 77.6563 51.866C78.0016 51.67 78.2816 51.376 78.4963 50.984C78.7109 50.592 78.8183 50.1067 78.8183 49.528C78.8183 48.9493 78.7109 48.464 78.4963 48.072C78.2909 47.68 78.0156 47.386 77.6703 47.19C77.3249 46.994 76.9563 46.896 76.5643 46.896C76.1629 46.896 75.7896 46.994 75.4443 47.19C75.0989 47.386 74.8189 47.68 74.6043 48.072C74.3896 48.464 74.2823 48.9493 74.2823 49.528C74.2823 50.1067 74.3896 50.592 74.6043 50.984C74.8189 51.376 75.0943 51.67 75.4303 51.866C75.7756 52.062 76.1443 52.16 76.5363 52.16ZM84.3174 53.168C83.4867 53.168 82.7961 52.958 82.2454 52.538C81.6947 52.118 81.3727 51.5487 81.2794 50.83H82.4834C82.5581 51.194 82.7494 51.5113 83.0574 51.782C83.3747 52.0433 83.7994 52.174 84.3314 52.174C84.8261 52.174 85.1901 52.0713 85.4234 51.866C85.6567 51.6513 85.7734 51.3993 85.7734 51.11C85.7734 50.69 85.6194 50.41 85.3114 50.27C85.0127 50.13 84.5881 50.004 84.0374 49.892C83.6641 49.8173 83.2907 49.71 82.9174 49.57C82.5441 49.43 82.2314 49.234 81.9794 48.982C81.7274 48.7207 81.6014 48.38 81.6014 47.96C81.6014 47.3533 81.8254 46.8587 82.2734 46.476C82.7307 46.084 83.3467 45.888 84.1214 45.888C84.8587 45.888 85.4607 46.0747 85.9274 46.448C86.4034 46.812 86.6787 47.3347 86.7534 48.016H85.5914C85.5447 47.6613 85.3907 47.386 85.1294 47.19C84.8774 46.9847 84.5367 46.882 84.1074 46.882C83.6874 46.882 83.3607 46.9707 83.1274 47.148C82.9034 47.3253 82.7914 47.5587 82.7914 47.848C82.7914 48.128 82.9361 48.3473 83.2254 48.506C83.5241 48.6647 83.9254 48.8 84.4294 48.912C84.8587 49.0053 85.2647 49.122 85.6474 49.262C86.0394 49.3927 86.3567 49.5933 86.5994 49.864C86.8514 50.1253 86.9774 50.508 86.9774 51.012C86.9867 51.6373 86.7487 52.1553 86.2634 52.566C85.7874 52.9673 85.1387 53.168 84.3174 53.168ZM91.7794 53.168C91.1167 53.168 90.5287 53.0187 90.0154 52.72C89.5021 52.412 89.0961 51.9873 88.7974 51.446C88.5081 50.9047 88.3634 50.2653 88.3634 49.528C88.3634 48.8 88.5081 48.1653 88.7974 47.624C89.0867 47.0733 89.4881 46.6487 90.0014 46.35C90.5241 46.042 91.1261 45.888 91.8074 45.888C92.4794 45.888 93.0581 46.042 93.5434 46.35C94.0381 46.6487 94.4161 47.0453 94.6774 47.54C94.9387 48.0347 95.0694 48.5667 95.0694 49.136C95.0694 49.2387 95.0647 49.3413 95.0554 49.444C95.0554 49.5467 95.0554 49.6633 95.0554 49.794H89.5254C89.5534 50.326 89.6747 50.7693 89.8894 51.124C90.1134 51.4693 90.3887 51.7307 90.7154 51.908C91.0514 52.0853 91.4061 52.174 91.7794 52.174C92.2647 52.174 92.6707 52.062 92.9974 51.838C93.3241 51.614 93.5621 51.3107 93.7114 50.928H94.8734C94.6867 51.572 94.3274 52.1087 93.7954 52.538C93.2727 52.958 92.6007 53.168 91.7794 53.168ZM91.7794 46.882C91.2194 46.882 90.7201 47.0547 90.2814 47.4C89.8521 47.736 89.6047 48.2307 89.5394 48.884H93.9074C93.8794 48.2587 93.6647 47.7687 93.2634 47.414C92.8621 47.0593 92.3674 46.882 91.7794 46.882ZM101.733 53L99.7032 46.056H100.879L102.349 51.502L103.973 46.056H105.303L106.941 51.502L108.397 46.056H109.587L107.557 53H106.353L104.645 47.274L102.937 53H101.733ZM113.75 53.168C113.087 53.168 112.499 53.0187 111.986 52.72C111.473 52.412 111.067 51.9873 110.768 51.446C110.479 50.9047 110.334 50.2653 110.334 49.528C110.334 48.8 110.479 48.1653 110.768 47.624C111.057 47.0733 111.459 46.6487 111.972 46.35C112.495 46.042 113.097 45.888 113.778 45.888C114.45 45.888 115.029 46.042 115.514 46.35C116.009 46.6487 116.387 47.0453 116.648 47.54C116.909 48.0347 117.04 48.5667 117.04 49.136C117.04 49.2387 117.035 49.3413 117.026 49.444C117.026 49.5467 117.026 49.6633 117.026 49.794H111.496C111.524 50.326 111.645 50.7693 111.86 51.124C112.084 51.4693 112.359 51.7307 112.686 51.908C113.022 52.0853 113.377 52.174 113.75 52.174C114.235 52.174 114.641 52.062 114.968 51.838C115.295 51.614 115.533 51.3107 115.682 50.928H116.844C116.657 51.572 116.298 52.1087 115.766 52.538C115.243 52.958 114.571 53.168 113.75 53.168ZM113.75 46.882C113.19 46.882 112.691 47.0547 112.252 47.4C111.823 47.736 111.575 48.2307 111.51 48.884H115.878C115.85 48.2587 115.635 47.7687 115.234 47.414C114.833 47.0593 114.338 46.882 113.75 46.882ZM119.313 44.516C119.079 44.516 118.883 44.4413 118.725 44.292C118.575 44.1333 118.501 43.9373 118.501 43.704C118.501 43.48 118.575 43.2933 118.725 43.144C118.883 42.9947 119.079 42.92 119.313 42.92C119.537 42.92 119.728 42.9947 119.887 43.144C120.045 43.2933 120.125 43.48 120.125 43.704C120.125 43.9373 120.045 44.1333 119.887 44.292C119.728 44.4413 119.537 44.516 119.313 44.516ZM118.725 53V46.056H119.901V53H118.725ZM124.692 50.816C124.3 50.816 123.941 50.7647 123.614 50.662L122.914 51.32C123.017 51.3947 123.143 51.46 123.292 51.516C123.451 51.5627 123.675 51.6093 123.964 51.656C124.254 51.6933 124.66 51.7353 125.182 51.782C126.116 51.8473 126.783 52.062 127.184 52.426C127.586 52.79 127.786 53.266 127.786 53.854C127.786 54.2553 127.674 54.638 127.45 55.002C127.236 55.366 126.9 55.6647 126.442 55.898C125.994 56.1313 125.416 56.248 124.706 56.248C124.081 56.248 123.526 56.164 123.04 55.996C122.555 55.8373 122.177 55.59 121.906 55.254C121.636 54.9273 121.5 54.512 121.5 54.008C121.5 53.7467 121.57 53.462 121.71 53.154C121.85 52.8553 122.112 52.5707 122.494 52.3C122.289 52.216 122.112 52.1273 121.962 52.034C121.822 51.9313 121.692 51.8193 121.57 51.698V51.376L122.76 50.2C122.21 49.7333 121.934 49.1173 121.934 48.352C121.934 47.8947 122.042 47.4793 122.256 47.106C122.471 46.7327 122.784 46.4387 123.194 46.224C123.605 46 124.104 45.888 124.692 45.888C125.094 45.888 125.458 45.944 125.784 46.056H128.346V46.938L127.044 46.994C127.315 47.386 127.45 47.8387 127.45 48.352C127.45 48.8093 127.338 49.2247 127.114 49.598C126.9 49.9713 126.587 50.27 126.176 50.494C125.775 50.7087 125.28 50.816 124.692 50.816ZM124.692 49.85C125.187 49.85 125.579 49.724 125.868 49.472C126.167 49.2107 126.316 48.8373 126.316 48.352C126.316 47.876 126.167 47.512 125.868 47.26C125.579 46.9987 125.187 46.868 124.692 46.868C124.188 46.868 123.787 46.9987 123.488 47.26C123.199 47.512 123.054 47.876 123.054 48.352C123.054 48.8373 123.199 49.2107 123.488 49.472C123.787 49.724 124.188 49.85 124.692 49.85ZM122.648 53.896C122.648 54.3627 122.844 54.708 123.236 54.932C123.628 55.1653 124.118 55.282 124.706 55.282C125.285 55.282 125.747 55.156 126.092 54.904C126.447 54.652 126.624 54.316 126.624 53.896C126.624 53.5973 126.503 53.336 126.26 53.112C126.018 52.8973 125.57 52.7713 124.916 52.734C124.403 52.6967 123.96 52.65 123.586 52.594C123.204 52.7993 122.952 53.0187 122.83 53.252C122.709 53.4947 122.648 53.7093 122.648 53.896ZM129.673 53V42.92H130.849V47.246C131.082 46.8167 131.414 46.4853 131.843 46.252C132.272 46.0093 132.739 45.888 133.243 45.888C134.046 45.888 134.69 46.14 135.175 46.644C135.66 47.1387 135.903 47.904 135.903 48.94V53H134.741V49.066C134.741 47.6193 134.158 46.896 132.991 46.896C132.384 46.896 131.876 47.1153 131.465 47.554C131.054 47.9833 130.849 48.5993 130.849 49.402V53H129.673ZM140.429 53C139.794 53 139.295 52.846 138.931 52.538C138.567 52.23 138.385 51.6747 138.385 50.872V47.05H137.181V46.056H138.385L138.539 44.39H139.561V46.056H141.605V47.05H139.561V50.872C139.561 51.3107 139.649 51.6093 139.827 51.768C140.004 51.9173 140.317 51.992 140.765 51.992H141.493V53H140.429ZM149.548 53C148.913 53 148.414 52.846 148.05 52.538C147.686 52.23 147.504 51.6747 147.504 50.872V47.05H146.3V46.056H147.504L147.658 44.39H148.68V46.056H150.724V47.05H148.68V50.872C148.68 51.3107 148.769 51.6093 148.946 51.768C149.123 51.9173 149.436 51.992 149.884 51.992H150.612V53H149.548ZM155.191 53.168C154.537 53.168 153.949 53.0187 153.427 52.72C152.904 52.4213 152.489 52.0013 152.181 51.46C151.882 50.9093 151.733 50.2653 151.733 49.528C151.733 48.7907 151.887 48.1513 152.195 47.61C152.503 47.0593 152.918 46.6347 153.441 46.336C153.973 46.0373 154.565 45.888 155.219 45.888C155.872 45.888 156.46 46.0373 156.983 46.336C157.505 46.6347 157.916 47.0593 158.215 47.61C158.523 48.1513 158.677 48.7907 158.677 49.528C158.677 50.2653 158.523 50.9093 158.215 51.46C157.907 52.0013 157.487 52.4213 156.955 52.72C156.432 53.0187 155.844 53.168 155.191 53.168ZM155.191 52.16C155.592 52.16 155.965 52.062 156.311 51.866C156.656 51.67 156.936 51.376 157.151 50.984C157.365 50.592 157.473 50.1067 157.473 49.528C157.473 48.9493 157.365 48.464 157.151 48.072C156.945 47.68 156.67 47.386 156.325 47.19C155.979 46.994 155.611 46.896 155.219 46.896C154.817 46.896 154.444 46.994 154.099 47.19C153.753 47.386 153.473 47.68 153.259 48.072C153.044 48.464 152.937 48.9493 152.937 49.528C152.937 50.1067 153.044 50.592 153.259 50.984C153.473 51.376 153.749 51.67 154.085 51.866C154.43 52.062 154.799 52.16 155.191 52.16ZM163.462 53.168C162.771 53.168 162.164 53.0093 161.642 52.692C161.128 52.3747 160.727 51.9407 160.438 51.39C160.158 50.8393 160.018 50.214 160.018 49.514C160.018 48.814 160.162 48.1933 160.452 47.652C160.741 47.1013 161.142 46.672 161.656 46.364C162.169 46.0467 162.776 45.888 163.476 45.888C164.045 45.888 164.549 46.0047 164.988 46.238C165.426 46.4713 165.767 46.798 166.01 47.218V42.92H167.186V53H166.122L166.01 51.852C165.786 52.188 165.464 52.4913 165.044 52.762C164.624 53.0327 164.096 53.168 163.462 53.168ZM163.588 52.146C164.054 52.146 164.465 52.0387 164.82 51.824C165.184 51.6 165.464 51.292 165.66 50.9C165.865 50.508 165.968 50.0507 165.968 49.528C165.968 49.0053 165.865 48.548 165.66 48.156C165.464 47.764 165.184 47.4607 164.82 47.246C164.465 47.022 164.054 46.91 163.588 46.91C163.13 46.91 162.72 47.022 162.356 47.246C162.001 47.4607 161.721 47.764 161.516 48.156C161.32 48.548 161.222 49.0053 161.222 49.528C161.222 50.0507 161.32 50.508 161.516 50.9C161.721 51.292 162.001 51.6 162.356 51.824C162.72 52.0387 163.13 52.146 163.588 52.146ZM171.413 53.168C170.834 53.168 170.353 53.07 169.971 52.874C169.588 52.678 169.303 52.4167 169.117 52.09C168.93 51.7633 168.837 51.4087 168.837 51.026C168.837 50.3167 169.107 49.7707 169.649 49.388C170.19 49.0053 170.927 48.814 171.861 48.814H173.737V48.73C173.737 48.1233 173.578 47.666 173.261 47.358C172.943 47.0407 172.519 46.882 171.987 46.882C171.529 46.882 171.133 46.9987 170.797 47.232C170.47 47.456 170.265 47.7873 170.181 48.226H168.977C169.023 47.722 169.191 47.2973 169.481 46.952C169.779 46.6067 170.148 46.3453 170.587 46.168C171.025 45.9813 171.492 45.888 171.987 45.888C172.957 45.888 173.685 46.1493 174.171 46.672C174.665 47.1853 174.913 47.8713 174.913 48.73V53H173.863L173.793 51.754C173.597 52.146 173.307 52.482 172.925 52.762C172.551 53.0327 172.047 53.168 171.413 53.168ZM171.595 52.174C172.043 52.174 172.425 52.0573 172.743 51.824C173.069 51.5907 173.317 51.2873 173.485 50.914C173.653 50.5407 173.737 50.1487 173.737 49.738V49.724H171.959C171.268 49.724 170.778 49.8453 170.489 50.088C170.209 50.3213 170.069 50.6153 170.069 50.97C170.069 51.334 170.199 51.628 170.461 51.852C170.731 52.0667 171.109 52.174 171.595 52.174ZM177.228 56.08L178.95 52.328H178.544L175.786 46.056H177.06L179.356 51.46L181.792 46.056H183.01L178.46 56.08H177.228ZM185.399 50.256L185.343 48.002H185.777C186.3 48.002 186.785 47.9507 187.233 47.848C187.69 47.7453 188.059 47.5447 188.339 47.246C188.619 46.9473 188.759 46.4993 188.759 45.902C188.759 45.3233 188.577 44.866 188.213 44.53C187.858 44.194 187.387 44.026 186.799 44.026C186.202 44.026 185.73 44.1893 185.385 44.516C185.04 44.8427 184.867 45.2813 184.867 45.832H183.747C183.747 45.272 183.873 44.782 184.125 44.362C184.386 43.942 184.746 43.6153 185.203 43.382C185.66 43.1487 186.192 43.032 186.799 43.032C187.406 43.032 187.942 43.1487 188.409 43.382C188.876 43.6153 189.24 43.9467 189.501 44.376C189.762 44.8053 189.893 45.314 189.893 45.902C189.893 46.5927 189.744 47.1527 189.445 47.582C189.156 48.0113 188.75 48.324 188.227 48.52C187.714 48.716 187.126 48.814 186.463 48.814L186.421 50.256H185.399ZM185.903 53.07C185.67 53.07 185.474 52.9953 185.315 52.846C185.166 52.6873 185.091 52.496 185.091 52.272C185.091 52.048 185.166 51.8613 185.315 51.712C185.474 51.5533 185.67 51.474 185.903 51.474C186.136 51.474 186.328 51.5533 186.477 51.712C186.626 51.8613 186.701 52.048 186.701 52.272C186.701 52.496 186.626 52.6873 186.477 52.846C186.328 52.9953 186.136 53.07 185.903 53.07Z" fill="black"/>
</svg>
