<svg width="18" height="18" viewBox="0 0 18 18" fill="none" xmlns="http://www.w3.org/2000/svg">
<path d="M4.19002 5.79061H0.576486C0.416112 5.79061 0.286163 5.92062 0.286163 6.08093V17.6897C0.286163 17.85 0.416112 17.98 0.576486 17.98H4.19002C4.35039 17.98 4.48034 17.85 4.48034 17.6897V6.08093C4.48034 5.92062 4.35039 5.79061 4.19002 5.79061Z" fill="white"/>
<path d="M2.38448 0.0198174C1.06966 0.0198174 0 1.08832 0 2.40168C0 3.71562 1.06966 4.78453 2.38448 4.78453C3.69825 4.78453 4.76704 3.71557 4.76704 2.40168C4.7671 1.08832 3.69825 0.0198174 2.38448 0.0198174Z" fill="white"/>
<path d="M13.3811 5.50212C11.9298 5.50212 10.857 6.12603 10.2062 6.83494V6.08097C10.2062 5.92065 10.0763 5.79065 9.91592 5.79065H6.45533C6.29496 5.79065 6.16501 5.92065 6.16501 6.08097V17.6897C6.16501 17.8501 6.29496 17.98 6.45533 17.98H10.061C10.2213 17.98 10.3513 17.8501 10.3513 17.6897V11.9461C10.3513 10.0106 10.877 9.25658 12.2262 9.25658C13.6956 9.25658 13.8123 10.4654 13.8123 12.0456V17.6898C13.8123 17.8501 13.9423 17.9801 14.1027 17.9801H17.7096C17.87 17.9801 18 17.8501 18 17.6898V11.3222C18 8.4442 17.4512 5.50212 13.3811 5.50212Z" fill="white"/>
</svg>
