<svg width="113" height="15" viewBox="0 0 113 15" fill="none" xmlns="http://www.w3.org/2000/svg">
<path d="M3.27 11.015L0.39 0.499999H1.74L4.005 9.515L6.585 0.499999H7.98L10.485 9.515L12.78 0.499999H14.13L11.19 11H9.75L7.245 2.33L4.68 11L3.27 11.015ZM17.8652 11.18C17.1652 11.18 16.5352 11.02 15.9752 10.7C15.4152 10.38 14.9702 9.93 14.6402 9.35C14.3202 8.76 14.1602 8.07 14.1602 7.28C14.1602 6.49 14.3252 5.805 14.6552 5.225C14.9852 4.635 15.4302 4.18 15.9902 3.86C16.5602 3.54 17.1952 3.38 17.8952 3.38C18.5952 3.38 19.2252 3.54 19.7852 3.86C20.3452 4.18 20.7852 4.635 21.1052 5.225C21.4352 5.805 21.6002 6.49 21.6002 7.28C21.6002 8.07 21.4352 8.76 21.1052 9.35C20.7752 9.93 20.3252 10.38 19.7552 10.7C19.1952 11.02 18.5652 11.18 17.8652 11.18ZM17.8652 10.1C18.2952 10.1 18.6952 9.995 19.0652 9.785C19.4352 9.575 19.7352 9.26 19.9652 8.84C20.1952 8.42 20.3102 7.9 20.3102 7.28C20.3102 6.66 20.1952 6.14 19.9652 5.72C19.7452 5.3 19.4502 4.985 19.0802 4.775C18.7102 4.565 18.3152 4.46 17.8952 4.46C17.4652 4.46 17.0652 4.565 16.6952 4.775C16.3252 4.985 16.0252 5.3 15.7952 5.72C15.5652 6.14 15.4502 6.66 15.4502 7.28C15.4502 7.9 15.5652 8.42 15.7952 8.84C16.0252 9.26 16.3202 9.575 16.6802 9.785C17.0502 9.995 17.4452 10.1 17.8652 10.1ZM23.0522 11V3.56H24.1922L24.2972 4.985C24.5272 4.495 24.8772 4.105 25.3472 3.815C25.8172 3.525 26.3972 3.38 27.0872 3.38V4.7H26.7422C26.3022 4.7 25.8972 4.78 25.5272 4.94C25.1572 5.09 24.8622 5.35 24.6422 5.72C24.4222 6.09 24.3122 6.6 24.3122 7.25V11H23.0522ZM28.2014 11V0.2H29.4614V6.695L32.5064 3.56H34.0514L30.7514 6.92L34.4714 11H32.8664L29.4614 7.145V11H28.2014ZM39.5347 11V4.625H38.4097V3.56H39.5347V2.27C39.5347 1.55 39.7147 1.025 40.0747 0.694999C40.4347 0.365 40.9597 0.2 41.6497 0.2H42.3997V1.28H41.8447C41.4647 1.28 41.1947 1.36 41.0347 1.52C40.8747 1.67 40.7947 1.93 40.7947 2.3V3.56H42.6247V4.625H40.7947V11H39.5347ZM46.9219 11.18C46.2219 11.18 45.5919 11.02 45.0319 10.7C44.4719 10.38 44.0269 9.93 43.6969 9.35C43.3769 8.76 43.2169 8.07 43.2169 7.28C43.2169 6.49 43.3819 5.805 43.7119 5.225C44.0419 4.635 44.4869 4.18 45.0469 3.86C45.6169 3.54 46.2519 3.38 46.9519 3.38C47.6519 3.38 48.2819 3.54 48.8419 3.86C49.4019 4.18 49.8419 4.635 50.1619 5.225C50.4919 5.805 50.6569 6.49 50.6569 7.28C50.6569 8.07 50.4919 8.76 50.1619 9.35C49.8319 9.93 49.3819 10.38 48.8119 10.7C48.2519 11.02 47.6219 11.18 46.9219 11.18ZM46.9219 10.1C47.3519 10.1 47.7519 9.995 48.1219 9.785C48.4919 9.575 48.7919 9.26 49.0219 8.84C49.2519 8.42 49.3669 7.9 49.3669 7.28C49.3669 6.66 49.2519 6.14 49.0219 5.72C48.8019 5.3 48.5069 4.985 48.1369 4.775C47.7669 4.565 47.3719 4.46 46.9519 4.46C46.5219 4.46 46.1219 4.565 45.7519 4.775C45.3819 4.985 45.0819 5.3 44.8519 5.72C44.6219 6.14 44.5069 6.66 44.5069 7.28C44.5069 7.9 44.6219 8.42 44.8519 8.84C45.0819 9.26 45.3769 9.575 45.7369 9.785C46.1069 9.995 46.5019 10.1 46.9219 10.1ZM52.1088 11V3.56H53.2488L53.3538 4.985C53.5838 4.495 53.9338 4.105 54.4038 3.815C54.8738 3.525 55.4538 3.38 56.1438 3.38V4.7H55.7988C55.3588 4.7 54.9538 4.78 54.5838 4.94C54.2138 5.09 53.9188 5.35 53.6988 5.72C53.4788 6.09 53.3688 6.6 53.3688 7.25V11H52.1088ZM61.7378 14.3L63.5828 10.28H63.1478L60.1928 3.56H61.5578L64.0178 9.35L66.6278 3.56H67.9328L63.0578 14.3H61.7378ZM71.6496 11.18C70.9496 11.18 70.3196 11.02 69.7596 10.7C69.1996 10.38 68.7546 9.93 68.4246 9.35C68.1046 8.76 67.9446 8.07 67.9446 7.28C67.9446 6.49 68.1096 5.805 68.4396 5.225C68.7696 4.635 69.2146 4.18 69.7746 3.86C70.3446 3.54 70.9796 3.38 71.6796 3.38C72.3796 3.38 73.0096 3.54 73.5696 3.86C74.1296 4.18 74.5696 4.635 74.8896 5.225C75.2196 5.805 75.3846 6.49 75.3846 7.28C75.3846 8.07 75.2196 8.76 74.8896 9.35C74.5596 9.93 74.1096 10.38 73.5396 10.7C72.9796 11.02 72.3496 11.18 71.6496 11.18ZM71.6496 10.1C72.0796 10.1 72.4796 9.995 72.8496 9.785C73.2196 9.575 73.5196 9.26 73.7496 8.84C73.9796 8.42 74.0946 7.9 74.0946 7.28C74.0946 6.66 73.9796 6.14 73.7496 5.72C73.5296 5.3 73.2346 4.985 72.8646 4.775C72.4946 4.565 72.0996 4.46 71.6796 4.46C71.2496 4.46 70.8496 4.565 70.4796 4.775C70.1096 4.985 69.8096 5.3 69.5796 5.72C69.3496 6.14 69.2346 6.66 69.2346 7.28C69.2346 7.9 69.3496 8.42 69.5796 8.84C69.8096 9.26 70.1046 9.575 70.4646 9.785C70.8346 9.995 71.2296 10.1 71.6496 10.1ZM79.5516 11.18C78.6716 11.18 77.9716 10.915 77.4516 10.385C76.9316 9.845 76.6716 9.02 76.6716 7.91V3.56H77.9316V7.775C77.9316 9.325 78.5666 10.1 79.8366 10.1C80.4866 10.1 81.0216 9.87 81.4416 9.41C81.8716 8.94 82.0866 8.275 82.0866 7.415V3.56H83.3466V11H82.2066L82.1166 9.665C81.8866 10.135 81.5416 10.505 81.0816 10.775C80.6316 11.045 80.1216 11.18 79.5516 11.18ZM85.1205 11V3.56H86.2605L86.3655 4.985C86.5955 4.495 86.9455 4.105 87.4155 3.815C87.8855 3.525 88.4655 3.38 89.1555 3.38V4.7H88.8105C88.3705 4.7 87.9655 4.78 87.5955 4.94C87.2255 5.09 86.9305 5.35 86.7105 5.72C86.4905 6.09 86.3805 6.6 86.3805 7.25V11H85.1205ZM93.1198 11.18C92.2298 11.18 91.4898 10.955 90.8998 10.505C90.3098 10.055 89.9648 9.445 89.8648 8.675H91.1548C91.2348 9.065 91.4398 9.405 91.7698 9.695C92.1098 9.975 92.5648 10.115 93.1348 10.115C93.6648 10.115 94.0548 10.005 94.3048 9.785C94.5548 9.555 94.6798 9.285 94.6798 8.975C94.6798 8.525 94.5148 8.225 94.1848 8.075C93.8648 7.925 93.4098 7.79 92.8198 7.67C92.4198 7.59 92.0198 7.475 91.6198 7.325C91.2198 7.175 90.8848 6.965 90.6148 6.695C90.3448 6.415 90.2098 6.05 90.2098 5.6C90.2098 4.95 90.4498 4.42 90.9298 4.01C91.4198 3.59 92.0798 3.38 92.9098 3.38C93.6998 3.38 94.3448 3.58 94.8448 3.98C95.3548 4.37 95.6498 4.93 95.7298 5.66H94.4848C94.4348 5.28 94.2698 4.985 93.9898 4.775C93.7198 4.555 93.3548 4.445 92.8948 4.445C92.4448 4.445 92.0948 4.54 91.8448 4.73C91.6048 4.92 91.4848 5.17 91.4848 5.48C91.4848 5.78 91.6398 6.015 91.9498 6.185C92.2698 6.355 92.6998 6.5 93.2398 6.62C93.6998 6.72 94.1348 6.845 94.5448 6.995C94.9648 7.135 95.3048 7.35 95.5648 7.64C95.8348 7.92 95.9698 8.33 95.9698 8.87C95.9798 9.54 95.7248 10.095 95.2048 10.535C94.6948 10.965 93.9998 11.18 93.1198 11.18ZM100.815 11.18C100.105 11.18 99.4748 11.02 98.9248 10.7C98.3748 10.37 97.9398 9.915 97.6198 9.335C97.3098 8.755 97.1548 8.07 97.1548 7.28C97.1548 6.5 97.3098 5.82 97.6198 5.24C97.9298 4.65 98.3598 4.195 98.9098 3.875C99.4698 3.545 100.115 3.38 100.845 3.38C101.565 3.38 102.185 3.545 102.705 3.875C103.235 4.195 103.64 4.62 103.92 5.15C104.2 5.68 104.34 6.25 104.34 6.86C104.34 6.97 104.335 7.08 104.325 7.19C104.325 7.3 104.325 7.425 104.325 7.565H98.3998C98.4298 8.135 98.5598 8.61 98.7898 8.99C99.0298 9.36 99.3248 9.64 99.6748 9.83C100.035 10.02 100.415 10.115 100.815 10.115C101.335 10.115 101.77 9.995 102.12 9.755C102.47 9.515 102.725 9.19 102.885 8.78H104.13C103.93 9.47 103.545 10.045 102.975 10.505C102.415 10.955 101.695 11.18 100.815 11.18ZM100.815 4.445C100.215 4.445 99.6798 4.63 99.2098 5C98.7498 5.36 98.4848 5.89 98.4148 6.59H103.095C103.065 5.92 102.835 5.395 102.405 5.015C101.975 4.635 101.445 4.445 100.815 4.445ZM105.71 11V0.2H106.97V11H105.71ZM109.14 11V4.625H108.015V3.56H109.14V2.27C109.14 1.55 109.32 1.025 109.68 0.694999C110.04 0.365 110.565 0.2 111.255 0.2H112.005V1.28H111.45C111.07 1.28 110.8 1.36 110.64 1.52C110.48 1.67 110.4 1.93 110.4 2.3V3.56H112.23V4.625H110.4V11H109.14Z" fill="white"/>
</svg>
