<svg width="351" height="337" viewBox="0 0 351 337" fill="none" xmlns="http://www.w3.org/2000/svg">
<rect width="351" height="337" rx="14" fill="#FFF0DE"/>
<line x1="23.5" y1="231" x2="23.5" y2="51" stroke="#DCD0C2" stroke-dasharray="4 6"/>
<line x1="84.5" y1="231" x2="84.5" y2="51" stroke="#DCD0C2" stroke-dasharray="4 6"/>
<line x1="145.5" y1="231" x2="145.5" y2="51" stroke="#DCD0C2" stroke-dasharray="4 6"/>
<line x1="206.5" y1="231" x2="206.5" y2="51" stroke="#DCD0C2" stroke-dasharray="4 6"/>
<line x1="266.5" y1="231" x2="266.5" y2="51" stroke="#DCD0C2" stroke-dasharray="4 6"/>
<line x1="326.5" y1="231" x2="326.5" y2="51" stroke="#DCD0C2" stroke-dasharray="4 6"/>
<path d="M312.839 255.144C312.015 255.144 311.291 254.964 310.667 254.604C310.051 254.236 309.567 253.724 309.215 253.068C308.871 252.412 308.699 251.656 308.699 250.8C308.699 249.944 308.871 249.192 309.215 248.544C309.567 247.888 310.051 247.376 310.667 247.008C311.291 246.64 312.015 246.456 312.839 246.456C313.671 246.456 314.395 246.64 315.011 247.008C315.635 247.376 316.119 247.888 316.463 248.544C316.807 249.192 316.979 249.944 316.979 250.8C316.979 251.656 316.807 252.412 316.463 253.068C316.119 253.724 315.635 254.236 315.011 254.604C314.395 254.964 313.671 255.144 312.839 255.144ZM312.839 254.256C313.455 254.256 313.995 254.12 314.459 253.848C314.931 253.568 315.295 253.172 315.551 252.66C315.815 252.14 315.947 251.52 315.947 250.8C315.947 250.08 315.815 249.464 315.551 248.952C315.295 248.44 314.931 248.048 314.459 247.776C313.995 247.496 313.455 247.356 312.839 247.356C312.223 247.356 311.679 247.496 311.207 247.776C310.743 248.048 310.379 248.44 310.115 248.952C309.859 249.464 309.731 250.08 309.731 250.8C309.731 251.52 309.859 252.14 310.115 252.66C310.379 253.172 310.743 253.568 311.207 253.848C311.679 254.12 312.223 254.256 312.839 254.256ZM321.109 255.144C320.541 255.144 320.029 255.016 319.573 254.76C319.125 254.496 318.769 254.132 318.505 253.668C318.249 253.196 318.121 252.648 318.121 252.024C318.121 251.4 318.249 250.856 318.505 250.392C318.769 249.92 319.125 249.556 319.573 249.3C320.029 249.036 320.541 248.904 321.109 248.904C321.813 248.904 322.405 249.088 322.885 249.456C323.373 249.824 323.681 250.316 323.809 250.932H322.777C322.697 250.564 322.501 250.28 322.189 250.08C321.877 249.872 321.513 249.768 321.097 249.768C320.761 249.768 320.445 249.852 320.149 250.02C319.853 250.188 319.613 250.44 319.429 250.776C319.245 251.112 319.153 251.528 319.153 252.024C319.153 252.52 319.245 252.936 319.429 253.272C319.613 253.608 319.853 253.864 320.149 254.04C320.445 254.208 320.761 254.292 321.097 254.292C321.513 254.292 321.877 254.192 322.189 253.992C322.501 253.784 322.697 253.492 322.777 253.116H323.809C323.689 253.716 323.385 254.204 322.897 254.58C322.409 254.956 321.813 255.144 321.109 255.144ZM327.405 255C326.861 255 326.433 254.868 326.121 254.604C325.809 254.34 325.653 253.864 325.653 253.176V249.9H324.621V249.048H325.653L325.785 247.62H326.661V249.048H328.413V249.9H326.661V253.176C326.661 253.552 326.737 253.808 326.889 253.944C327.041 254.072 327.309 254.136 327.693 254.136H328.317V255H327.405Z" fill="#727578"/>
<path d="M252.912 255.144C252.296 255.144 251.76 255.032 251.304 254.808C250.848 254.584 250.496 254.272 250.248 253.872C250 253.472 249.876 253.008 249.876 252.48H250.932C250.932 252.808 251.008 253.112 251.16 253.392C251.312 253.664 251.532 253.884 251.82 254.052C252.116 254.212 252.48 254.292 252.912 254.292C253.48 254.292 253.92 254.156 254.232 253.884C254.544 253.612 254.7 253.272 254.7 252.864C254.7 252.528 254.628 252.26 254.484 252.06C254.34 251.852 254.144 251.684 253.896 251.556C253.656 251.428 253.376 251.316 253.056 251.22C252.744 251.124 252.416 251.016 252.072 250.896C251.424 250.672 250.944 250.396 250.632 250.068C250.32 249.732 250.164 249.296 250.164 248.76C250.156 248.312 250.26 247.916 250.476 247.572C250.692 247.22 250.996 246.948 251.388 246.756C251.788 246.556 252.26 246.456 252.804 246.456C253.34 246.456 253.804 246.556 254.196 246.756C254.596 246.956 254.904 247.232 255.12 247.584C255.344 247.936 255.46 248.336 255.468 248.784H254.412C254.412 248.552 254.352 248.324 254.232 248.1C254.112 247.868 253.928 247.68 253.68 247.536C253.44 247.392 253.136 247.32 252.768 247.32C252.312 247.312 251.936 247.428 251.64 247.668C251.352 247.908 251.208 248.24 251.208 248.664C251.208 249.024 251.308 249.3 251.508 249.492C251.716 249.684 252.004 249.844 252.372 249.972C252.74 250.092 253.164 250.232 253.644 250.392C254.044 250.536 254.404 250.704 254.724 250.896C255.044 251.088 255.292 251.336 255.468 251.64C255.652 251.944 255.744 252.332 255.744 252.804C255.744 253.204 255.64 253.584 255.432 253.944C255.224 254.296 254.908 254.584 254.484 254.808C254.068 255.032 253.544 255.144 252.912 255.144ZM259.789 255.144C259.221 255.144 258.717 255.016 258.277 254.76C257.837 254.496 257.489 254.132 257.233 253.668C256.985 253.204 256.861 252.656 256.861 252.024C256.861 251.4 256.985 250.856 257.233 250.392C257.481 249.92 257.825 249.556 258.265 249.3C258.713 249.036 259.229 248.904 259.813 248.904C260.389 248.904 260.885 249.036 261.301 249.3C261.725 249.556 262.049 249.896 262.273 250.32C262.497 250.744 262.609 251.2 262.609 251.688C262.609 251.776 262.605 251.864 262.597 251.952C262.597 252.04 262.597 252.14 262.597 252.252H257.857C257.881 252.708 257.985 253.088 258.169 253.392C258.361 253.688 258.597 253.912 258.877 254.064C259.165 254.216 259.469 254.292 259.789 254.292C260.205 254.292 260.553 254.196 260.833 254.004C261.113 253.812 261.317 253.552 261.445 253.224H262.441C262.281 253.776 261.973 254.236 261.517 254.604C261.069 254.964 260.493 255.144 259.789 255.144ZM259.789 249.756C259.309 249.756 258.881 249.904 258.505 250.2C258.137 250.488 257.925 250.912 257.869 251.472H261.613C261.589 250.936 261.405 250.516 261.061 250.212C260.717 249.908 260.293 249.756 259.789 249.756ZM263.945 257.64V249.048H264.857L264.953 250.032C265.145 249.744 265.417 249.484 265.769 249.252C266.129 249.02 266.585 248.904 267.137 248.904C267.729 248.904 268.245 249.04 268.685 249.312C269.125 249.584 269.465 249.956 269.705 250.428C269.953 250.9 270.077 251.436 270.077 252.036C270.077 252.636 269.953 253.172 269.705 253.644C269.465 254.108 269.121 254.476 268.673 254.748C268.233 255.012 267.717 255.144 267.125 255.144C266.637 255.144 266.201 255.044 265.817 254.844C265.441 254.644 265.153 254.364 264.953 254.004V257.64H263.945ZM267.017 254.268C267.417 254.268 267.769 254.176 268.073 253.992C268.377 253.8 268.617 253.536 268.793 253.2C268.969 252.864 269.057 252.472 269.057 252.024C269.057 251.576 268.969 251.184 268.793 250.848C268.617 250.512 268.377 250.252 268.073 250.068C267.769 249.876 267.417 249.78 267.017 249.78C266.617 249.78 266.265 249.876 265.961 250.068C265.657 250.252 265.417 250.512 265.241 250.848C265.065 251.184 264.977 251.576 264.977 252.024C264.977 252.472 265.065 252.864 265.241 253.2C265.417 253.536 265.657 253.8 265.961 253.992C266.265 254.176 266.617 254.268 267.017 254.268Z" fill="#727578"/>
<path d="M191.696 255L194.792 246.6H195.86L198.944 255H197.876L197.108 252.84H193.532L192.752 255H191.696ZM193.832 252.024H196.808L195.32 247.872L193.832 252.024ZM202.176 255.144C201.472 255.144 200.912 254.932 200.496 254.508C200.08 254.076 199.872 253.416 199.872 252.528V249.048H200.88V252.42C200.88 253.66 201.388 254.28 202.404 254.28C202.924 254.28 203.352 254.096 203.688 253.728C204.032 253.352 204.204 252.82 204.204 252.132V249.048H205.212V255H204.3L204.228 253.932C204.044 254.308 203.768 254.604 203.4 254.82C203.04 255.036 202.632 255.144 202.176 255.144ZM209.223 253.128C208.887 253.128 208.579 253.084 208.299 252.996L207.699 253.56C207.787 253.624 207.895 253.68 208.023 253.728C208.159 253.768 208.351 253.808 208.599 253.848C208.847 253.88 209.195 253.916 209.643 253.956C210.443 254.012 211.015 254.196 211.359 254.508C211.703 254.82 211.875 255.228 211.875 255.732C211.875 256.076 211.779 256.404 211.587 256.716C211.403 257.028 211.115 257.284 210.723 257.484C210.339 257.684 209.843 257.784 209.235 257.784C208.699 257.784 208.223 257.712 207.807 257.568C207.391 257.432 207.067 257.22 206.835 256.932C206.603 256.652 206.487 256.296 206.487 255.864C206.487 255.64 206.547 255.396 206.667 255.132C206.787 254.876 207.011 254.632 207.339 254.4C207.163 254.328 207.011 254.252 206.883 254.172C206.763 254.084 206.651 253.988 206.547 253.884V253.608L207.567 252.6C207.095 252.2 206.859 251.672 206.859 251.016C206.859 250.624 206.951 250.268 207.135 249.948C207.319 249.628 207.587 249.376 207.939 249.192C208.291 249 208.719 248.904 209.223 248.904C209.567 248.904 209.879 248.952 210.159 249.048H212.355V249.804L211.239 249.852C211.471 250.188 211.587 250.576 211.587 251.016C211.587 251.408 211.491 251.764 211.299 252.084C211.115 252.404 210.847 252.66 210.495 252.852C210.151 253.036 209.727 253.128 209.223 253.128ZM209.223 252.3C209.647 252.3 209.983 252.192 210.231 251.976C210.487 251.752 210.615 251.432 210.615 251.016C210.615 250.608 210.487 250.296 210.231 250.08C209.983 249.856 209.647 249.744 209.223 249.744C208.791 249.744 208.447 249.856 208.191 250.08C207.943 250.296 207.819 250.608 207.819 251.016C207.819 251.432 207.943 251.752 208.191 251.976C208.447 252.192 208.791 252.3 209.223 252.3ZM207.471 255.768C207.471 256.168 207.639 256.464 207.975 256.656C208.311 256.856 208.731 256.956 209.235 256.956C209.731 256.956 210.127 256.848 210.423 256.632C210.727 256.416 210.879 256.128 210.879 255.768C210.879 255.512 210.775 255.288 210.567 255.096C210.359 254.912 209.975 254.804 209.415 254.772C208.975 254.74 208.595 254.7 208.275 254.652C207.947 254.828 207.731 255.016 207.627 255.216C207.523 255.424 207.471 255.608 207.471 255.768Z" fill="#727578"/>
<path d="M140.002 255.144C139.242 255.144 138.646 254.932 138.214 254.508C137.782 254.084 137.566 253.496 137.566 252.744H138.586C138.586 253.168 138.69 253.524 138.898 253.812C139.106 254.1 139.47 254.244 139.99 254.244C140.494 254.244 140.842 254.104 141.034 253.824C141.234 253.544 141.334 253.196 141.334 252.78V246.6H142.342V252.78C142.342 253.524 142.134 254.104 141.718 254.52C141.31 254.936 140.738 255.144 140.002 255.144ZM146.23 255.144C145.526 255.144 144.966 254.932 144.55 254.508C144.134 254.076 143.926 253.416 143.926 252.528V249.048H144.934V252.42C144.934 253.66 145.442 254.28 146.458 254.28C146.978 254.28 147.406 254.096 147.742 253.728C148.086 253.352 148.258 252.82 148.258 252.132V249.048H149.266V255H148.354L148.282 253.932C148.098 254.308 147.822 254.604 147.454 254.82C147.094 255.036 146.686 255.144 146.23 255.144ZM150.926 255V246.36H151.934V255H150.926Z" fill="#727578"/>
<path d="M80.8987 255.144C80.1387 255.144 79.5427 254.932 79.1107 254.508C78.6787 254.084 78.4627 253.496 78.4627 252.744H79.4827C79.4827 253.168 79.5867 253.524 79.7947 253.812C80.0027 254.1 80.3667 254.244 80.8867 254.244C81.3907 254.244 81.7387 254.104 81.9307 253.824C82.1307 253.544 82.2307 253.196 82.2307 252.78V246.6H83.2387V252.78C83.2387 253.524 83.0307 254.104 82.6147 254.52C82.2067 254.936 81.6347 255.144 80.8987 255.144ZM87.127 255.144C86.423 255.144 85.863 254.932 85.447 254.508C85.031 254.076 84.823 253.416 84.823 252.528V249.048H85.831V252.42C85.831 253.66 86.339 254.28 87.355 254.28C87.875 254.28 88.303 254.096 88.639 253.728C88.983 253.352 89.155 252.82 89.155 252.132V249.048H90.163V255H89.251L89.179 253.932C88.995 254.308 88.719 254.604 88.351 254.82C87.991 255.036 87.583 255.144 87.127 255.144ZM91.8221 255V249.048H92.7341L92.7941 250.116C92.9861 249.74 93.2621 249.444 93.6221 249.228C93.9821 249.012 94.3901 248.904 94.8461 248.904C95.5501 248.904 96.1101 249.12 96.5261 249.552C96.9501 249.976 97.1621 250.632 97.1621 251.52V255H96.1541V251.628C96.1541 250.388 95.6421 249.768 94.6181 249.768C94.1061 249.768 93.6781 249.956 93.3341 250.332C92.9981 250.7 92.8301 251.228 92.8301 251.916V255H91.8221Z" fill="#727578"/>
<path d="M20.3157 255V246.6H21.4917L24.5157 252.456L27.5157 246.6H28.7037V255H27.6957V248.4L24.8877 253.8H24.1317L21.3237 248.412V255H20.3157ZM32.3959 255.144C31.8999 255.144 31.4879 255.06 31.1599 254.892C30.8319 254.724 30.5879 254.5 30.4279 254.22C30.2679 253.94 30.1879 253.636 30.1879 253.308C30.1879 252.7 30.4199 252.232 30.8839 251.904C31.3479 251.576 31.9799 251.412 32.7799 251.412H34.3879V251.34C34.3879 250.82 34.2519 250.428 33.9799 250.164C33.7079 249.892 33.3439 249.756 32.8879 249.756C32.4959 249.756 32.1559 249.856 31.8679 250.056C31.5879 250.248 31.4119 250.532 31.3399 250.908H30.3079C30.3479 250.476 30.4919 250.112 30.7399 249.816C30.9959 249.52 31.3119 249.296 31.6879 249.144C32.0639 248.984 32.4639 248.904 32.8879 248.904C33.7199 248.904 34.3439 249.128 34.7599 249.576C35.1839 250.016 35.3959 250.604 35.3959 251.34V255H34.4959L34.4359 253.932C34.2679 254.268 34.0199 254.556 33.6919 254.796C33.3719 255.028 32.9399 255.144 32.3959 255.144ZM32.5519 254.292C32.9359 254.292 33.2639 254.192 33.5359 253.992C33.8159 253.792 34.0279 253.532 34.1719 253.212C34.3159 252.892 34.3879 252.556 34.3879 252.204V252.192H32.8639C32.2719 252.192 31.8519 252.296 31.6039 252.504C31.3639 252.704 31.2439 252.956 31.2439 253.26C31.2439 253.572 31.3559 253.824 31.5799 254.016C31.8119 254.2 32.1359 254.292 32.5519 254.292ZM37.3803 257.64L38.8563 254.424H38.5083L36.1443 249.048H37.2363L39.2043 253.68L41.2923 249.048H42.3363L38.4363 257.64H37.3803Z" fill="#727578"/>
<path d="M84.2827 149.854C69.2548 166.065 39.3351 179 24 179V230.999H327V107.639C308 101 284.5 99.4992 266.717 107.092C237.71 119.476 234.007 152.869 204.319 152.869C169.948 152.869 165.717 137.104 144.565 129.752C119.625 121.083 103.848 128.749 84.2827 149.854Z" fill="url(#paint0_linear_152_3507)" fill-opacity="0.36"/>
<path d="M24 179C39.3351 179 69.2548 166.066 84.2827 149.855C103.848 128.75 119.625 121.084 144.565 129.753C165.717 137.105 169.948 152.87 204.319 152.87C234.007 152.87 237.71 119.477 266.717 107.092C284.5 99.5 308 101 327 107.64" stroke="#3B79D8" stroke-width="1.3"/>
<path d="M84.2827 203.294C60 203.294 51.5 190 24 190V231H327L327 133.626C295.5 135 302 158.5 266.717 161C233 163.39 236.323 186.696 206.819 190C184.5 192.5 167.479 167.5 145.565 167.5C121.5 167.5 100.5 203.294 84.2827 203.294Z" fill="url(#paint1_linear_152_3507)" fill-opacity="0.36"/>
<path d="M24 190C51.5 190 61.5 203.294 84.2827 203.294C100.5 203.294 121.5 167.5 145.565 167.5C167.479 167.5 184.5 192.5 206.819 190C236.323 186.696 233 163.389 266.717 161C302 158.5 295.5 135 327 133.626" stroke="#FF874E" stroke-width="1.3"/>
<g filter="url(#filter0_d_152_3507)">
<circle cx="266.5" cy="160.5" r="4.5" fill="white"/>
<circle cx="266.5" cy="160.5" r="3.85" stroke="#AAACAE" stroke-width="1.3"/>
</g>
<path d="M55.136 32V20.8H62.256V22.176H56.832V25.664H61.776V27.008H56.832V30.624H62.256V32H55.136ZM63.8926 32V24.064H65.3966L65.5406 25.184C65.7966 24.7787 66.1326 24.4587 66.5486 24.224C66.9753 23.9893 67.466 23.872 68.0206 23.872C69.2793 23.872 70.154 24.368 70.6446 25.36C70.9326 24.9013 71.3166 24.5387 71.7966 24.272C72.2873 24.0053 72.8153 23.872 73.3806 23.872C74.3726 23.872 75.1513 24.1707 75.7166 24.768C76.282 25.3653 76.5646 26.256 76.5646 27.44V32H74.8686V27.616C74.8686 26.08 74.282 25.312 73.1086 25.312C72.5113 25.312 72.0206 25.536 71.6366 25.984C71.2633 26.432 71.0766 27.072 71.0766 27.904V32H69.3806V27.616C69.3806 26.08 68.7886 25.312 67.6046 25.312C67.018 25.312 66.5326 25.536 66.1486 25.984C65.7753 26.432 65.5886 27.072 65.5886 27.904V32H63.8926ZM80.9169 32.192C80.2449 32.192 79.6902 32.08 79.2529 31.856C78.8155 31.632 78.4902 31.3387 78.2769 30.976C78.0635 30.6027 77.9569 30.1973 77.9569 29.76C77.9569 28.992 78.2555 28.384 78.8529 27.936C79.4502 27.488 80.3035 27.264 81.4129 27.264H83.4929V27.12C83.4929 26.5013 83.3222 26.0373 82.9809 25.728C82.6502 25.4187 82.2182 25.264 81.6849 25.264C81.2155 25.264 80.8049 25.3813 80.4529 25.616C80.1115 25.84 79.9035 26.176 79.8289 26.624H78.1329C78.1862 26.048 78.3782 25.5573 78.7089 25.152C79.0502 24.736 79.4769 24.4213 79.9889 24.208C80.5115 23.984 81.0822 23.872 81.7009 23.872C82.8102 23.872 83.6689 24.1653 84.2769 24.752C84.8849 25.328 85.1889 26.1173 85.1889 27.12V32H83.7169L83.5729 30.64C83.3489 31.0773 83.0235 31.4453 82.5969 31.744C82.1702 32.0427 81.6102 32.192 80.9169 32.192ZM81.2529 30.816C81.7115 30.816 82.0955 30.7093 82.4049 30.496C82.7249 30.272 82.9702 29.9787 83.1409 29.616C83.3222 29.2533 83.4342 28.8533 83.4769 28.416H81.5889C80.9169 28.416 80.4369 28.5333 80.1489 28.768C79.8715 29.0027 79.7329 29.296 79.7329 29.648C79.7329 30.0107 79.8662 30.2987 80.1329 30.512C80.4102 30.7147 80.7835 30.816 81.2529 30.816ZM87.8064 22.56C87.4864 22.56 87.2197 22.464 87.0064 22.272C86.8037 22.0693 86.7024 21.8187 86.7024 21.52C86.7024 21.2213 86.8037 20.976 87.0064 20.784C87.2197 20.5813 87.4864 20.48 87.8064 20.48C88.1264 20.48 88.3877 20.5813 88.5904 20.784C88.8037 20.976 88.9104 21.2213 88.9104 21.52C88.9104 21.8187 88.8037 22.0693 88.5904 22.272C88.3877 22.464 88.1264 22.56 87.8064 22.56ZM86.9584 32V24.064H88.6544V32H86.9584ZM90.5733 32V20.48H92.2693V32H90.5733ZM97.8723 32V20.8H101.728C102.614 20.8 103.339 20.9493 103.904 21.248C104.48 21.5467 104.907 21.952 105.184 22.464C105.462 22.9653 105.6 23.5253 105.6 24.144C105.6 24.8373 105.414 25.4667 105.04 26.032C104.678 26.5973 104.107 27.0027 103.328 27.248L105.712 32H103.744L101.568 27.488H99.5683V32H97.8723ZM99.5683 26.208H101.632C102.4 26.208 102.96 26.0213 103.312 25.648C103.675 25.2747 103.856 24.7893 103.856 24.192C103.856 23.5947 103.68 23.12 103.328 22.768C102.976 22.4053 102.406 22.224 101.616 22.224H99.5683V26.208ZM109.661 32.192C108.989 32.192 108.434 32.08 107.997 31.856C107.559 31.632 107.234 31.3387 107.021 30.976C106.807 30.6027 106.701 30.1973 106.701 29.76C106.701 28.992 106.999 28.384 107.597 27.936C108.194 27.488 109.047 27.264 110.157 27.264H112.237V27.12C112.237 26.5013 112.066 26.0373 111.725 25.728C111.394 25.4187 110.962 25.264 110.429 25.264C109.959 25.264 109.549 25.3813 109.197 25.616C108.855 25.84 108.647 26.176 108.573 26.624H106.877C106.93 26.048 107.122 25.5573 107.453 25.152C107.794 24.736 108.221 24.4213 108.733 24.208C109.255 23.984 109.826 23.872 110.445 23.872C111.554 23.872 112.413 24.1653 113.021 24.752C113.629 25.328 113.933 26.1173 113.933 27.12V32H112.461L112.317 30.64C112.093 31.0773 111.767 31.4453 111.341 31.744C110.914 32.0427 110.354 32.192 109.661 32.192ZM109.997 30.816C110.455 30.816 110.839 30.7093 111.149 30.496C111.469 30.272 111.714 29.9787 111.885 29.616C112.066 29.2533 112.178 28.8533 112.221 28.416H110.333C109.661 28.416 109.181 28.5333 108.893 28.768C108.615 29.0027 108.477 29.296 108.477 29.648C108.477 30.0107 108.61 30.2987 108.877 30.512C109.154 30.7147 109.527 30.816 109.997 30.816ZM118.762 32C117.983 32 117.365 31.8133 116.906 31.44C116.447 31.056 116.218 30.3787 116.218 29.408V25.488H114.858V24.064H116.218L116.426 22.048H117.914V24.064H120.154V25.488H117.914V29.408C117.914 29.8453 118.005 30.1493 118.186 30.32C118.378 30.48 118.703 30.56 119.162 30.56H120.074V32H118.762ZM125.092 32.192C124.313 32.192 123.62 32.0213 123.012 31.68C122.414 31.328 121.945 30.8427 121.604 30.224C121.262 29.6053 121.092 28.8853 121.092 28.064C121.092 27.232 121.257 26.5013 121.588 25.872C121.929 25.2427 122.398 24.752 122.996 24.4C123.604 24.048 124.308 23.872 125.108 23.872C125.886 23.872 126.564 24.048 127.14 24.4C127.716 24.7413 128.164 25.2 128.484 25.776C128.804 26.352 128.964 26.9867 128.964 27.68C128.964 27.7867 128.958 27.904 128.948 28.032C128.948 28.1493 128.942 28.2827 128.932 28.432H122.756C122.809 29.2 123.06 29.7867 123.508 30.192C123.966 30.5867 124.494 30.784 125.092 30.784C125.572 30.784 125.972 30.6773 126.292 30.464C126.622 30.24 126.868 29.9413 127.028 29.568H128.724C128.51 30.3147 128.084 30.9387 127.444 31.44C126.814 31.9413 126.03 32.192 125.092 32.192ZM125.092 25.264C124.526 25.264 124.025 25.4347 123.588 25.776C123.15 26.1067 122.884 26.608 122.788 27.28H127.268C127.236 26.6613 127.017 26.1707 126.612 25.808C126.206 25.4453 125.7 25.264 125.092 25.264ZM133.571 32.192C132.569 32.192 131.742 31.9467 131.091 31.456C130.441 30.9653 130.067 30.3147 129.971 29.504H131.683C131.769 29.8667 131.971 30.1813 132.291 30.448C132.611 30.704 133.033 30.832 133.555 30.832C134.067 30.832 134.441 30.7253 134.675 30.512C134.91 30.2987 135.027 30.0533 135.027 29.776C135.027 29.3707 134.862 29.0987 134.531 28.96C134.211 28.8107 133.763 28.6773 133.187 28.56C132.739 28.464 132.291 28.336 131.843 28.176C131.406 28.016 131.038 27.792 130.739 27.504C130.451 27.2053 130.307 26.8053 130.307 26.304C130.307 25.6107 130.574 25.0347 131.107 24.576C131.641 24.1067 132.387 23.872 133.347 23.872C134.233 23.872 134.947 24.0853 135.491 24.512C136.046 24.9387 136.371 25.5413 136.467 26.32H134.835C134.782 25.9787 134.622 25.712 134.355 25.52C134.099 25.328 133.753 25.232 133.315 25.232C132.889 25.232 132.558 25.3227 132.323 25.504C132.089 25.6747 131.971 25.8987 131.971 26.176C131.971 26.4533 132.131 26.672 132.451 26.832C132.782 26.992 133.214 27.136 133.747 27.264C134.281 27.3813 134.771 27.52 135.219 27.68C135.678 27.8293 136.046 28.0533 136.323 28.352C136.601 28.6507 136.739 29.088 136.739 29.664C136.75 30.3893 136.467 30.992 135.891 31.472C135.326 31.952 134.553 32.192 133.571 32.192Z" fill="black"/>
<path d="M43.9367 20.7961C43.9364 20.7834 43.9357 20.7707 43.9347 20.758C43.9339 20.7477 43.9329 20.7374 43.9317 20.7272C43.9302 20.7153 43.9284 20.7035 43.9263 20.6917C43.9244 20.6811 43.9223 20.6705 43.92 20.66C43.9174 20.6488 43.9145 20.6378 43.9114 20.6267C43.9084 20.6161 43.9053 20.6055 43.9018 20.5951C43.8983 20.5843 43.8943 20.5737 43.8901 20.5631C43.8861 20.5529 43.8821 20.5427 43.8776 20.5328C43.873 20.5223 43.8679 20.5121 43.8627 20.5018C43.8577 20.492 43.8527 20.4823 43.8472 20.4728C43.8417 20.463 43.8358 20.4535 43.8297 20.444C43.8235 20.4342 43.8172 20.4246 43.8105 20.4152C43.8043 20.4065 43.7978 20.398 43.7912 20.3894C43.7836 20.3798 43.7758 20.3704 43.7677 20.3611C43.7639 20.3568 43.7607 20.3522 43.7568 20.3479C43.7535 20.3444 43.7499 20.3413 43.7465 20.3378C43.7381 20.3291 43.7295 20.3206 43.7207 20.3123C43.7127 20.3048 43.7046 20.2973 43.6963 20.2902C43.6879 20.283 43.6793 20.2763 43.6706 20.2695C43.6613 20.2623 43.6521 20.2552 43.6425 20.2485C43.6339 20.2425 43.6251 20.237 43.6162 20.2314C43.6062 20.2251 43.5962 20.2187 43.5859 20.213C43.5765 20.2077 43.5669 20.203 43.5572 20.1981C43.5472 20.1931 43.5371 20.188 43.5269 20.1835C43.5162 20.1788 43.5054 20.1747 43.4945 20.1706C43.4848 20.1669 43.4751 20.1631 43.4653 20.1599C43.4537 20.1561 43.4418 20.1528 43.43 20.1496C43.4203 20.147 43.4107 20.1443 43.4009 20.1421C43.3891 20.1395 43.3772 20.1374 43.3652 20.1354C43.3548 20.1336 43.3444 20.1319 43.3339 20.1306C43.3226 20.1293 43.3112 20.1283 43.2998 20.1275C43.2882 20.1267 43.2767 20.126 43.2651 20.1258C43.26 20.1257 43.2551 20.125 43.25 20.125H26.75C26.7453 20.125 26.7408 20.1256 26.7361 20.1257C26.7236 20.126 26.7111 20.1267 26.6987 20.1276C26.6881 20.1284 26.6775 20.1292 26.6671 20.1305C26.6557 20.1319 26.6444 20.1337 26.6331 20.1357C26.6219 20.1376 26.6109 20.1395 26.5999 20.1419C26.5893 20.1443 26.5789 20.1472 26.5684 20.1501C26.5573 20.1531 26.5462 20.1561 26.5354 20.1596C26.5248 20.1631 26.5145 20.1671 26.5041 20.1711C26.4939 20.175 26.4836 20.1789 26.4736 20.1833C26.4629 20.188 26.4523 20.1933 26.4417 20.1986C26.4326 20.2032 26.4234 20.2077 26.4144 20.2128C26.4038 20.2187 26.3935 20.2252 26.3832 20.2317C26.3746 20.2372 26.366 20.2426 26.3577 20.2483C26.348 20.2551 26.3385 20.2624 26.3291 20.2697C26.3206 20.2764 26.312 20.283 26.3038 20.2901C26.2954 20.2972 26.2872 20.3048 26.2791 20.3125C26.2704 20.3207 26.2618 20.3291 26.2535 20.3378C26.2502 20.3413 26.2465 20.3443 26.2432 20.3479C26.2393 20.3522 26.2361 20.3568 26.2323 20.3611C26.2242 20.3704 26.2164 20.3798 26.2088 20.3894C26.2021 20.398 26.1957 20.4065 26.1895 20.4152C26.1828 20.4246 26.1765 20.4342 26.1703 20.4439C26.1642 20.4535 26.1583 20.463 26.1528 20.4728C26.1473 20.4823 26.1423 20.492 26.1373 20.5018C26.1321 20.5121 26.127 20.5223 26.1224 20.5328C26.1179 20.5427 26.1139 20.5529 26.1099 20.5631C26.1057 20.5737 26.1017 20.5843 26.0982 20.5951C26.0947 20.6055 26.0916 20.6161 26.0886 20.6267C26.0855 20.6377 26.0826 20.6488 26.08 20.66C26.0777 20.6705 26.0756 20.6811 26.0737 20.6917C26.0716 20.7035 26.0698 20.7153 26.0683 20.7272C26.0671 20.7374 26.066 20.7477 26.0653 20.758C26.0643 20.7707 26.0636 20.7834 26.0633 20.7961C26.0632 20.8016 26.0625 20.807 26.0625 20.8125V32.5C26.0629 32.8645 26.2079 33.214 26.4657 33.4718C26.7235 33.7296 27.073 33.8746 27.4375 33.875H42.5625C42.927 33.8746 43.2765 33.7296 43.5343 33.4718C43.7921 33.214 43.9371 32.8645 43.9375 32.5V20.8125C43.9375 20.807 43.9368 20.8016 43.9367 20.7961ZM41.4825 21.5L35 27.4424L28.5175 21.5H41.4825ZM42.5625 32.5H27.4375V22.3754L34.5354 28.8818C34.6622 28.998 34.828 29.0625 35 29.0625C35.172 29.0625 35.3378 28.998 35.4646 28.8818L42.5626 22.3753L42.5633 32.5L42.5625 32.5Z" fill="black"/>
<g filter="url(#filter1_d_152_3507)">
<circle cx="266.5" cy="107.5" r="4.5" fill="white"/>
<circle cx="266.5" cy="107.5" r="3.85" stroke="#3B78D5" stroke-width="1.3"/>
</g>
<g opacity="0.8" filter="url(#filter2_d_152_3507)">
<path d="M240 61C240 56.5817 243.582 53 248 53H286C290.418 53 294 56.5817 294 61V89C294 93.4183 290.418 97 286 97H271.891C271.324 97 270.783 97.2406 270.404 97.6621L267.243 101.174C266.846 101.615 266.154 101.615 265.757 101.174L262.596 97.6621C262.217 97.2406 261.676 97 261.109 97H248C243.582 97 240 93.4183 240 89V61Z" fill="black"/>
</g>
<path d="M265.54 88.144C264.996 88.144 264.5 88.048 264.052 87.856C263.612 87.656 263.26 87.356 262.996 86.956C262.732 86.556 262.592 86.056 262.576 85.456H263.836C263.852 85.904 264.004 86.284 264.292 86.596C264.588 86.9 265.004 87.052 265.54 87.052C266.052 87.052 266.444 86.912 266.716 86.632C266.988 86.344 267.124 85.988 267.124 85.564C267.124 85.052 266.94 84.672 266.572 84.424C266.212 84.176 265.768 84.052 265.24 84.052H264.616V82.996H265.252C265.724 82.996 266.104 82.884 266.392 82.66C266.688 82.436 266.836 82.12 266.836 81.712C266.836 81.368 266.72 81.088 266.488 80.872C266.264 80.656 265.944 80.548 265.528 80.548C265.096 80.548 264.756 80.676 264.508 80.932C264.26 81.18 264.124 81.492 264.1 81.868H262.84C262.856 81.38 262.976 80.956 263.2 80.596C263.432 80.236 263.748 79.956 264.148 79.756C264.548 79.556 265.008 79.456 265.528 79.456C266.088 79.456 266.556 79.556 266.932 79.756C267.316 79.948 267.604 80.212 267.796 80.548C267.996 80.876 268.096 81.236 268.096 81.628C268.096 82.076 267.972 82.468 267.724 82.804C267.476 83.14 267.144 83.364 266.728 83.476C267.208 83.58 267.604 83.816 267.916 84.184C268.228 84.544 268.384 85.012 268.384 85.588C268.384 86.052 268.276 86.48 268.06 86.872C267.844 87.256 267.524 87.564 267.1 87.796C266.676 88.028 266.156 88.144 265.54 88.144ZM272.582 88.144C272.022 88.144 271.514 88.044 271.058 87.844C270.61 87.636 270.25 87.348 269.978 86.98C269.714 86.612 269.582 86.18 269.582 85.684C269.582 85.18 269.722 84.728 270.002 84.328C270.29 83.928 270.67 83.656 271.142 83.512C270.718 83.344 270.39 83.1 270.158 82.78C269.926 82.452 269.81 82.092 269.81 81.7C269.81 81.292 269.918 80.92 270.134 80.584C270.35 80.24 270.662 79.968 271.07 79.768C271.486 79.56 271.99 79.456 272.582 79.456C273.174 79.456 273.674 79.56 274.082 79.768C274.498 79.968 274.814 80.24 275.03 80.584C275.246 80.92 275.354 81.292 275.354 81.7C275.354 82.084 275.234 82.444 274.994 82.78C274.762 83.108 274.434 83.352 274.01 83.512C274.482 83.664 274.858 83.94 275.138 84.34C275.426 84.732 275.57 85.18 275.57 85.684C275.57 86.18 275.438 86.612 275.174 86.98C274.91 87.348 274.55 87.636 274.094 87.844C273.646 88.044 273.142 88.144 272.582 88.144ZM272.582 83.104C273.046 83.104 273.41 82.984 273.674 82.744C273.946 82.504 274.082 82.196 274.082 81.82C274.082 81.396 273.95 81.072 273.686 80.848C273.422 80.624 273.054 80.512 272.582 80.512C272.11 80.512 271.742 80.624 271.478 80.848C271.214 81.072 271.082 81.396 271.082 81.82C271.082 82.196 271.214 82.504 271.478 82.744C271.742 82.984 272.11 83.104 272.582 83.104ZM272.582 87.064C273.158 87.064 273.59 86.928 273.878 86.656C274.166 86.376 274.31 86.02 274.31 85.588C274.31 85.108 274.154 84.74 273.842 84.484C273.538 84.22 273.118 84.088 272.582 84.088C272.046 84.088 271.622 84.22 271.31 84.484C270.998 84.74 270.842 85.108 270.842 85.588C270.842 86.02 270.986 86.376 271.274 86.656C271.57 86.928 272.006 87.064 272.582 87.064ZM278.535 83.608C278.159 83.608 277.819 83.524 277.515 83.356C277.219 83.188 276.983 82.952 276.807 82.648C276.631 82.336 276.543 81.964 276.543 81.532C276.543 81.108 276.631 80.744 276.807 80.44C276.983 80.128 277.223 79.888 277.527 79.72C277.831 79.552 278.171 79.468 278.547 79.468C278.915 79.468 279.247 79.552 279.543 79.72C279.847 79.888 280.087 80.128 280.263 80.44C280.439 80.744 280.527 81.108 280.527 81.532C280.527 81.964 280.439 82.336 280.263 82.648C280.087 82.952 279.847 83.188 279.543 83.356C279.247 83.524 278.911 83.608 278.535 83.608ZM277.935 88L282.747 79.6H283.995L279.195 88H277.935ZM278.535 82.696C278.791 82.696 279.011 82.6 279.195 82.408C279.387 82.208 279.483 81.916 279.483 81.532C279.483 81.148 279.391 80.86 279.207 80.668C279.023 80.468 278.799 80.368 278.535 80.368C278.279 80.368 278.055 80.468 277.863 80.668C277.671 80.86 277.575 81.148 277.575 81.532C277.575 81.916 277.667 82.208 277.851 82.408C278.043 82.6 278.271 82.696 278.535 82.696ZM283.467 88.144C283.091 88.144 282.751 88.06 282.447 87.892C282.151 87.724 281.915 87.488 281.739 87.184C281.563 86.872 281.475 86.5 281.475 86.068C281.475 85.644 281.563 85.276 281.739 84.964C281.915 84.652 282.155 84.412 282.459 84.244C282.763 84.076 283.103 83.992 283.479 83.992C283.847 83.992 284.179 84.076 284.475 84.244C284.779 84.412 285.019 84.652 285.195 84.964C285.371 85.276 285.459 85.644 285.459 86.068C285.459 86.5 285.371 86.872 285.195 87.184C285.019 87.488 284.779 87.724 284.475 87.892C284.179 88.06 283.843 88.144 283.467 88.144ZM283.467 87.22C283.723 87.22 283.943 87.124 284.127 86.932C284.319 86.74 284.415 86.452 284.415 86.068C284.415 85.684 284.323 85.396 284.139 85.204C283.955 85.004 283.731 84.904 283.467 84.904C283.211 84.904 282.987 85.004 282.795 85.204C282.603 85.396 282.507 85.684 282.507 86.068C282.507 86.452 282.599 86.74 282.783 86.932C282.975 87.124 283.203 87.22 283.467 87.22Z" fill="white"/>
<path d="M263.44 70L266.692 62.692H262.324V61.6H268V62.524L264.772 70H263.44ZM272.182 70V68.32H267.97V67.312L271.978 61.6H273.442V67.216H274.618V68.32H273.442V70H272.182ZM269.35 67.216H272.254V63.004L269.35 67.216ZM277.082 65.608C276.706 65.608 276.366 65.524 276.062 65.356C275.766 65.188 275.53 64.952 275.354 64.648C275.178 64.336 275.09 63.964 275.09 63.532C275.09 63.108 275.178 62.744 275.354 62.44C275.53 62.128 275.77 61.888 276.074 61.72C276.378 61.552 276.718 61.468 277.094 61.468C277.462 61.468 277.794 61.552 278.09 61.72C278.394 61.888 278.634 62.128 278.81 62.44C278.986 62.744 279.074 63.108 279.074 63.532C279.074 63.964 278.986 64.336 278.81 64.648C278.634 64.952 278.394 65.188 278.09 65.356C277.794 65.524 277.458 65.608 277.082 65.608ZM276.482 70L281.294 61.6H282.542L277.742 70H276.482ZM277.082 64.696C277.338 64.696 277.558 64.6 277.742 64.408C277.934 64.208 278.03 63.916 278.03 63.532C278.03 63.148 277.938 62.86 277.754 62.668C277.57 62.468 277.346 62.368 277.082 62.368C276.826 62.368 276.602 62.468 276.41 62.668C276.218 62.86 276.122 63.148 276.122 63.532C276.122 63.916 276.214 64.208 276.398 64.408C276.59 64.6 276.818 64.696 277.082 64.696ZM282.014 70.144C281.638 70.144 281.298 70.06 280.994 69.892C280.698 69.724 280.462 69.488 280.286 69.184C280.11 68.872 280.022 68.5 280.022 68.068C280.022 67.644 280.11 67.276 280.286 66.964C280.462 66.652 280.702 66.412 281.006 66.244C281.31 66.076 281.65 65.992 282.026 65.992C282.394 65.992 282.726 66.076 283.022 66.244C283.326 66.412 283.566 66.652 283.742 66.964C283.918 67.276 284.006 67.644 284.006 68.068C284.006 68.5 283.918 68.872 283.742 69.184C283.566 69.488 283.326 69.724 283.022 69.892C282.726 70.06 282.39 70.144 282.014 70.144ZM282.014 69.22C282.27 69.22 282.49 69.124 282.674 68.932C282.866 68.74 282.962 68.452 282.962 68.068C282.962 67.684 282.87 67.396 282.686 67.204C282.502 67.004 282.278 66.904 282.014 66.904C281.758 66.904 281.534 67.004 281.342 67.204C281.15 67.396 281.054 67.684 281.054 68.068C281.054 68.452 281.146 68.74 281.33 68.932C281.522 69.124 281.75 69.22 282.014 69.22Z" fill="white"/>
<circle cx="252" cy="66" r="5" fill="#3B78D4"/>
<circle cx="252" cy="84" r="5" fill="#FF874E"/>
<g filter="url(#filter3_d_152_3507)">
<rect x="115" y="283" width="116" height="30" rx="15" fill="white"/>
</g>
<path d="M145.572 302.144C144.748 302.144 144.036 301.964 143.436 301.604C142.844 301.236 142.384 300.728 142.056 300.08C141.728 299.424 141.564 298.664 141.564 297.8C141.564 296.944 141.728 296.192 142.056 295.544C142.384 294.888 142.844 294.376 143.436 294.008C144.036 293.64 144.748 293.456 145.572 293.456C146.532 293.456 147.312 293.688 147.912 294.152C148.52 294.608 148.908 295.248 149.076 296.072H147.96C147.832 295.552 147.568 295.136 147.168 294.824C146.776 294.504 146.244 294.344 145.572 294.344C144.972 294.344 144.448 294.484 144 294.764C143.552 295.036 143.204 295.432 142.956 295.952C142.716 296.464 142.596 297.08 142.596 297.8C142.596 298.52 142.716 299.14 142.956 299.66C143.204 300.172 143.552 300.568 144 300.848C144.448 301.12 144.972 301.256 145.572 301.256C146.244 301.256 146.776 301.104 147.168 300.8C147.568 300.488 147.832 300.076 147.96 299.564H149.076C148.908 300.372 148.52 301.004 147.912 301.46C147.312 301.916 146.532 302.144 145.572 302.144ZM150.465 302V293.36H151.473V302H150.465ZM153.737 294.728C153.537 294.728 153.369 294.664 153.233 294.536C153.105 294.4 153.041 294.232 153.041 294.032C153.041 293.84 153.105 293.68 153.233 293.552C153.369 293.424 153.537 293.36 153.737 293.36C153.929 293.36 154.093 293.424 154.229 293.552C154.365 293.68 154.433 293.84 154.433 294.032C154.433 294.232 154.365 294.4 154.229 294.536C154.093 294.664 153.929 294.728 153.737 294.728ZM153.233 302V296.048H154.241V302H153.233ZM158.732 302.144C158.164 302.144 157.652 302.016 157.196 301.76C156.748 301.496 156.392 301.132 156.128 300.668C155.872 300.196 155.744 299.648 155.744 299.024C155.744 298.4 155.872 297.856 156.128 297.392C156.392 296.92 156.748 296.556 157.196 296.3C157.652 296.036 158.164 295.904 158.732 295.904C159.436 295.904 160.028 296.088 160.508 296.456C160.996 296.824 161.304 297.316 161.432 297.932H160.4C160.32 297.564 160.124 297.28 159.812 297.08C159.5 296.872 159.136 296.768 158.72 296.768C158.384 296.768 158.068 296.852 157.772 297.02C157.476 297.188 157.236 297.44 157.052 297.776C156.868 298.112 156.776 298.528 156.776 299.024C156.776 299.52 156.868 299.936 157.052 300.272C157.236 300.608 157.476 300.864 157.772 301.04C158.068 301.208 158.384 301.292 158.72 301.292C159.136 301.292 159.5 301.192 159.812 300.992C160.124 300.784 160.32 300.492 160.4 300.116H161.432C161.312 300.716 161.008 301.204 160.52 301.58C160.032 301.956 159.436 302.144 158.732 302.144ZM162.84 302V293.36H163.848V298.556L166.284 296.048H167.52L164.88 298.736L167.856 302H166.572L163.848 298.916V302H162.84ZM174.414 302C173.87 302 173.442 301.868 173.13 301.604C172.818 301.34 172.662 300.864 172.662 300.176V296.9H171.63V296.048H172.662L172.794 294.62H173.67V296.048H175.422V296.9H173.67V300.176C173.67 300.552 173.746 300.808 173.898 300.944C174.05 301.072 174.318 301.136 174.702 301.136H175.326V302H174.414ZM176.703 302V293.36H177.711V297.068C177.911 296.7 178.195 296.416 178.563 296.216C178.931 296.008 179.331 295.904 179.763 295.904C180.451 295.904 181.003 296.12 181.419 296.552C181.835 296.976 182.043 297.632 182.043 298.52V302H181.047V298.628C181.047 297.388 180.547 296.768 179.547 296.768C179.027 296.768 178.591 296.956 178.239 297.332C177.887 297.7 177.711 298.228 177.711 298.916V302H176.703ZM183.57 302V296.048H184.482L184.566 297.188C184.75 296.796 185.03 296.484 185.406 296.252C185.782 296.02 186.246 295.904 186.798 295.904V296.96H186.522C186.17 296.96 185.846 297.024 185.55 297.152C185.254 297.272 185.018 297.48 184.842 297.776C184.666 298.072 184.578 298.48 184.578 299V302H183.57ZM190.419 302.144C189.859 302.144 189.355 302.016 188.907 301.76C188.459 301.504 188.103 301.144 187.839 300.68C187.583 300.208 187.455 299.656 187.455 299.024C187.455 298.392 187.587 297.844 187.851 297.38C188.115 296.908 188.471 296.544 188.919 296.288C189.375 296.032 189.883 295.904 190.443 295.904C191.003 295.904 191.507 296.032 191.955 296.288C192.403 296.544 192.755 296.908 193.011 297.38C193.275 297.844 193.407 298.392 193.407 299.024C193.407 299.656 193.275 300.208 193.011 300.68C192.747 301.144 192.387 301.504 191.931 301.76C191.483 302.016 190.979 302.144 190.419 302.144ZM190.419 301.28C190.763 301.28 191.083 301.196 191.379 301.028C191.675 300.86 191.915 300.608 192.099 300.272C192.283 299.936 192.375 299.52 192.375 299.024C192.375 298.528 192.283 298.112 192.099 297.776C191.923 297.44 191.687 297.188 191.391 297.02C191.095 296.852 190.779 296.768 190.443 296.768C190.099 296.768 189.779 296.852 189.483 297.02C189.187 297.188 188.947 297.44 188.763 297.776C188.579 298.112 188.487 298.528 188.487 299.024C188.487 299.52 188.579 299.936 188.763 300.272C188.947 300.608 189.183 300.86 189.471 301.028C189.767 301.196 190.083 301.28 190.419 301.28ZM196.98 302.144C196.276 302.144 195.716 301.932 195.3 301.508C194.884 301.076 194.676 300.416 194.676 299.528V296.048H195.684V299.42C195.684 300.66 196.192 301.28 197.208 301.28C197.728 301.28 198.156 301.096 198.492 300.728C198.836 300.352 199.008 299.82 199.008 299.132V296.048H200.016V302H199.104L199.032 300.932C198.848 301.308 198.572 301.604 198.204 301.82C197.844 302.036 197.436 302.144 196.98 302.144ZM204.028 300.128C203.692 300.128 203.384 300.084 203.104 299.996L202.504 300.56C202.592 300.624 202.7 300.68 202.828 300.728C202.964 300.768 203.156 300.808 203.404 300.848C203.652 300.88 204 300.916 204.448 300.956C205.248 301.012 205.82 301.196 206.164 301.508C206.508 301.82 206.68 302.228 206.68 302.732C206.68 303.076 206.584 303.404 206.392 303.716C206.208 304.028 205.92 304.284 205.528 304.484C205.144 304.684 204.648 304.784 204.04 304.784C203.504 304.784 203.028 304.712 202.612 304.568C202.196 304.432 201.872 304.22 201.64 303.932C201.408 303.652 201.292 303.296 201.292 302.864C201.292 302.64 201.352 302.396 201.472 302.132C201.592 301.876 201.816 301.632 202.144 301.4C201.968 301.328 201.816 301.252 201.688 301.172C201.568 301.084 201.456 300.988 201.352 300.884V300.608L202.372 299.6C201.9 299.2 201.664 298.672 201.664 298.016C201.664 297.624 201.756 297.268 201.94 296.948C202.124 296.628 202.392 296.376 202.744 296.192C203.096 296 203.524 295.904 204.028 295.904C204.372 295.904 204.684 295.952 204.964 296.048H207.16V296.804L206.044 296.852C206.276 297.188 206.392 297.576 206.392 298.016C206.392 298.408 206.296 298.764 206.104 299.084C205.92 299.404 205.652 299.66 205.3 299.852C204.956 300.036 204.532 300.128 204.028 300.128ZM204.028 299.3C204.452 299.3 204.788 299.192 205.036 298.976C205.292 298.752 205.42 298.432 205.42 298.016C205.42 297.608 205.292 297.296 205.036 297.08C204.788 296.856 204.452 296.744 204.028 296.744C203.596 296.744 203.252 296.856 202.996 297.08C202.748 297.296 202.624 297.608 202.624 298.016C202.624 298.432 202.748 298.752 202.996 298.976C203.252 299.192 203.596 299.3 204.028 299.3ZM202.276 302.768C202.276 303.168 202.444 303.464 202.78 303.656C203.116 303.856 203.536 303.956 204.04 303.956C204.536 303.956 204.932 303.848 205.228 303.632C205.532 303.416 205.684 303.128 205.684 302.768C205.684 302.512 205.58 302.288 205.372 302.096C205.164 301.912 204.78 301.804 204.22 301.772C203.78 301.74 203.4 301.7 203.08 301.652C202.752 301.828 202.536 302.016 202.432 302.216C202.328 302.424 202.276 302.608 202.276 302.768ZM208.297 302V293.36H209.305V297.068C209.505 296.7 209.789 296.416 210.157 296.216C210.525 296.008 210.925 295.904 211.357 295.904C212.045 295.904 212.597 296.12 213.013 296.552C213.429 296.976 213.637 297.632 213.637 298.52V302H212.641V298.628C212.641 297.388 212.141 296.768 211.141 296.768C210.621 296.768 210.185 296.956 209.833 297.332C209.481 297.7 209.305 298.228 209.305 298.916V302H208.297Z" fill="black"/>
<circle cx="130" cy="298" r="5" fill="#FF874E"/>
<g filter="url(#filter4_d_152_3507)">
<rect x="24" y="283" width="88" height="30" rx="15" fill="white"/>
</g>
<path d="M54.704 302.144C53.88 302.144 53.156 301.964 52.532 301.604C51.916 301.236 51.432 300.724 51.08 300.068C50.736 299.412 50.564 298.656 50.564 297.8C50.564 296.944 50.736 296.192 51.08 295.544C51.432 294.888 51.916 294.376 52.532 294.008C53.156 293.64 53.88 293.456 54.704 293.456C55.536 293.456 56.26 293.64 56.876 294.008C57.5 294.376 57.984 294.888 58.328 295.544C58.672 296.192 58.844 296.944 58.844 297.8C58.844 298.656 58.672 299.412 58.328 300.068C57.984 300.724 57.5 301.236 56.876 301.604C56.26 301.964 55.536 302.144 54.704 302.144ZM54.704 301.256C55.32 301.256 55.86 301.12 56.324 300.848C56.796 300.568 57.16 300.172 57.416 299.66C57.68 299.14 57.812 298.52 57.812 297.8C57.812 297.08 57.68 296.464 57.416 295.952C57.16 295.44 56.796 295.048 56.324 294.776C55.86 294.496 55.32 294.356 54.704 294.356C54.088 294.356 53.544 294.496 53.072 294.776C52.608 295.048 52.244 295.44 51.98 295.952C51.724 296.464 51.596 297.08 51.596 297.8C51.596 298.52 51.724 299.14 51.98 299.66C52.244 300.172 52.608 300.568 53.072 300.848C53.544 301.12 54.088 301.256 54.704 301.256ZM60.2382 304.64V296.048H61.1502L61.2462 297.032C61.4382 296.744 61.7102 296.484 62.0622 296.252C62.4222 296.02 62.8782 295.904 63.4302 295.904C64.0222 295.904 64.5382 296.04 64.9782 296.312C65.4182 296.584 65.7582 296.956 65.9982 297.428C66.2462 297.9 66.3702 298.436 66.3702 299.036C66.3702 299.636 66.2462 300.172 65.9982 300.644C65.7582 301.108 65.4142 301.476 64.9662 301.748C64.5262 302.012 64.0102 302.144 63.4182 302.144C62.9302 302.144 62.4942 302.044 62.1102 301.844C61.7342 301.644 61.4462 301.364 61.2462 301.004V304.64H60.2382ZM63.3102 301.268C63.7102 301.268 64.0622 301.176 64.3662 300.992C64.6702 300.8 64.9102 300.536 65.0862 300.2C65.2622 299.864 65.3502 299.472 65.3502 299.024C65.3502 298.576 65.2622 298.184 65.0862 297.848C64.9102 297.512 64.6702 297.252 64.3662 297.068C64.0622 296.876 63.7102 296.78 63.3102 296.78C62.9102 296.78 62.5582 296.876 62.2542 297.068C61.9502 297.252 61.7102 297.512 61.5342 297.848C61.3582 298.184 61.2702 298.576 61.2702 299.024C61.2702 299.472 61.3582 299.864 61.5342 300.2C61.7102 300.536 61.9502 300.8 62.2542 300.992C62.5582 301.176 62.9102 301.268 63.3102 301.268ZM70.4493 302.144C69.8813 302.144 69.3773 302.016 68.9373 301.76C68.4973 301.496 68.1493 301.132 67.8933 300.668C67.6453 300.204 67.5213 299.656 67.5213 299.024C67.5213 298.4 67.6453 297.856 67.8933 297.392C68.1413 296.92 68.4853 296.556 68.9253 296.3C69.3733 296.036 69.8893 295.904 70.4733 295.904C71.0493 295.904 71.5453 296.036 71.9613 296.3C72.3853 296.556 72.7093 296.896 72.9333 297.32C73.1573 297.744 73.2693 298.2 73.2693 298.688C73.2693 298.776 73.2653 298.864 73.2573 298.952C73.2573 299.04 73.2573 299.14 73.2573 299.252H68.5173C68.5413 299.708 68.6453 300.088 68.8293 300.392C69.0213 300.688 69.2573 300.912 69.5373 301.064C69.8253 301.216 70.1293 301.292 70.4493 301.292C70.8653 301.292 71.2133 301.196 71.4933 301.004C71.7733 300.812 71.9773 300.552 72.1053 300.224H73.1013C72.9413 300.776 72.6333 301.236 72.1773 301.604C71.7293 301.964 71.1533 302.144 70.4493 302.144ZM70.4493 296.756C69.9693 296.756 69.5413 296.904 69.1653 297.2C68.7973 297.488 68.5853 297.912 68.5293 298.472H72.2733C72.2493 297.936 72.0653 297.516 71.7213 297.212C71.3773 296.908 70.9533 296.756 70.4493 296.756ZM74.6053 302V296.048H75.5173L75.5773 297.116C75.7693 296.74 76.0453 296.444 76.4053 296.228C76.7653 296.012 77.1733 295.904 77.6293 295.904C78.3333 295.904 78.8933 296.12 79.3093 296.552C79.7333 296.976 79.9453 297.632 79.9453 298.52V302H78.9373V298.628C78.9373 297.388 78.4253 296.768 77.4013 296.768C76.8893 296.768 76.4613 296.956 76.1173 297.332C75.7813 297.7 75.6133 298.228 75.6133 298.916V302H74.6053ZM84.1485 302.144C83.5805 302.144 83.0765 302.016 82.6365 301.76C82.1965 301.496 81.8485 301.132 81.5925 300.668C81.3445 300.204 81.2205 299.656 81.2205 299.024C81.2205 298.4 81.3445 297.856 81.5925 297.392C81.8405 296.92 82.1845 296.556 82.6245 296.3C83.0725 296.036 83.5885 295.904 84.1725 295.904C84.7485 295.904 85.2445 296.036 85.6605 296.3C86.0845 296.556 86.4085 296.896 86.6325 297.32C86.8565 297.744 86.9685 298.2 86.9685 298.688C86.9685 298.776 86.9645 298.864 86.9565 298.952C86.9565 299.04 86.9565 299.14 86.9565 299.252H82.2165C82.2405 299.708 82.3445 300.088 82.5285 300.392C82.7205 300.688 82.9565 300.912 83.2365 301.064C83.5245 301.216 83.8285 301.292 84.1485 301.292C84.5645 301.292 84.9125 301.196 85.1925 301.004C85.4725 300.812 85.6765 300.552 85.8045 300.224H86.8005C86.6405 300.776 86.3325 301.236 85.8765 301.604C85.4285 301.964 84.8525 302.144 84.1485 302.144ZM84.1485 296.756C83.6685 296.756 83.2405 296.904 82.8645 297.2C82.4965 297.488 82.2845 297.912 82.2285 298.472H85.9725C85.9485 297.936 85.7645 297.516 85.4205 297.212C85.0765 296.908 84.6525 296.756 84.1485 296.756ZM91.0046 302.144C90.4126 302.144 89.8926 302.008 89.4446 301.736C89.0046 301.464 88.6606 301.092 88.4126 300.62C88.1726 300.148 88.0526 299.612 88.0526 299.012C88.0526 298.412 88.1766 297.88 88.4246 297.416C88.6726 296.944 89.0166 296.576 89.4566 296.312C89.8966 296.04 90.4166 295.904 91.0166 295.904C91.5046 295.904 91.9366 296.004 92.3126 296.204C92.6886 296.404 92.9806 296.684 93.1886 297.044V293.36H94.1966V302H93.2846L93.1886 301.016C92.9966 301.304 92.7206 301.564 92.3606 301.796C92.0006 302.028 91.5486 302.144 91.0046 302.144ZM91.1126 301.268C91.5126 301.268 91.8646 301.176 92.1686 300.992C92.4806 300.8 92.7206 300.536 92.8886 300.2C93.0646 299.864 93.1526 299.472 93.1526 299.024C93.1526 298.576 93.0646 298.184 92.8886 297.848C92.7206 297.512 92.4806 297.252 92.1686 297.068C91.8646 296.876 91.5126 296.78 91.1126 296.78C90.7206 296.78 90.3686 296.876 90.0566 297.068C89.7526 297.252 89.5126 297.512 89.3366 297.848C89.1686 298.184 89.0846 298.576 89.0846 299.024C89.0846 299.472 89.1686 299.864 89.3366 300.2C89.5126 300.536 89.7526 300.8 90.0566 300.992C90.3686 301.176 90.7206 301.268 91.1126 301.268Z" fill="black"/>
<circle cx="39" cy="298" r="5" fill="#3B79D8"/>
<defs>
<filter id="filter0_d_152_3507" x="256" y="150" width="21" height="21" filterUnits="userSpaceOnUse" color-interpolation-filters="sRGB">
<feFlood flood-opacity="0" result="BackgroundImageFix"/>
<feColorMatrix in="SourceAlpha" type="matrix" values="0 0 0 0 0 0 0 0 0 0 0 0 0 0 0 0 0 0 127 0" result="hardAlpha"/>
<feOffset/>
<feGaussianBlur stdDeviation="3"/>
<feComposite in2="hardAlpha" operator="out"/>
<feColorMatrix type="matrix" values="0 0 0 0 0.708478 0 0 0 0 0.320599 0 0 0 0 0.134808 0 0 0 0.12 0"/>
<feBlend mode="normal" in2="BackgroundImageFix" result="effect1_dropShadow_152_3507"/>
<feBlend mode="normal" in="SourceGraphic" in2="effect1_dropShadow_152_3507" result="shape"/>
</filter>
<filter id="filter1_d_152_3507" x="256" y="97" width="21" height="21" filterUnits="userSpaceOnUse" color-interpolation-filters="sRGB">
<feFlood flood-opacity="0" result="BackgroundImageFix"/>
<feColorMatrix in="SourceAlpha" type="matrix" values="0 0 0 0 0 0 0 0 0 0 0 0 0 0 0 0 0 0 127 0" result="hardAlpha"/>
<feOffset/>
<feGaussianBlur stdDeviation="3"/>
<feComposite in2="hardAlpha" operator="out"/>
<feColorMatrix type="matrix" values="0 0 0 0 0.107603 0 0 0 0 0.340931 0 0 0 0 0.704311 0 0 0 0.12 0"/>
<feBlend mode="normal" in2="BackgroundImageFix" result="effect1_dropShadow_152_3507"/>
<feBlend mode="normal" in="SourceGraphic" in2="effect1_dropShadow_152_3507" result="shape"/>
</filter>
<filter id="filter2_d_152_3507" x="226" y="39" width="82" height="76.5051" filterUnits="userSpaceOnUse" color-interpolation-filters="sRGB">
<feFlood flood-opacity="0" result="BackgroundImageFix"/>
<feColorMatrix in="SourceAlpha" type="matrix" values="0 0 0 0 0 0 0 0 0 0 0 0 0 0 0 0 0 0 127 0" result="hardAlpha"/>
<feOffset/>
<feGaussianBlur stdDeviation="7"/>
<feComposite in2="hardAlpha" operator="out"/>
<feColorMatrix type="matrix" values="0 0 0 0 0.27106 0 0 0 0 0.291722 0 0 0 0 0.320993 0 0 0 0.08 0"/>
<feBlend mode="normal" in2="BackgroundImageFix" result="effect1_dropShadow_152_3507"/>
<feBlend mode="normal" in="SourceGraphic" in2="effect1_dropShadow_152_3507" result="shape"/>
</filter>
<filter id="filter3_d_152_3507" x="101" y="269" width="144" height="58" filterUnits="userSpaceOnUse" color-interpolation-filters="sRGB">
<feFlood flood-opacity="0" result="BackgroundImageFix"/>
<feColorMatrix in="SourceAlpha" type="matrix" values="0 0 0 0 0 0 0 0 0 0 0 0 0 0 0 0 0 0 127 0" result="hardAlpha"/>
<feOffset/>
<feGaussianBlur stdDeviation="7"/>
<feComposite in2="hardAlpha" operator="out"/>
<feColorMatrix type="matrix" values="0 0 0 0 0.27106 0 0 0 0 0.291722 0 0 0 0 0.320993 0 0 0 0.12 0"/>
<feBlend mode="normal" in2="BackgroundImageFix" result="effect1_dropShadow_152_3507"/>
<feBlend mode="normal" in="SourceGraphic" in2="effect1_dropShadow_152_3507" result="shape"/>
</filter>
<filter id="filter4_d_152_3507" x="10" y="269" width="116" height="58" filterUnits="userSpaceOnUse" color-interpolation-filters="sRGB">
<feFlood flood-opacity="0" result="BackgroundImageFix"/>
<feColorMatrix in="SourceAlpha" type="matrix" values="0 0 0 0 0 0 0 0 0 0 0 0 0 0 0 0 0 0 127 0" result="hardAlpha"/>
<feOffset/>
<feGaussianBlur stdDeviation="7"/>
<feComposite in2="hardAlpha" operator="out"/>
<feColorMatrix type="matrix" values="0 0 0 0 0.27106 0 0 0 0 0.291722 0 0 0 0 0.320993 0 0 0 0.12 0"/>
<feBlend mode="normal" in2="BackgroundImageFix" result="effect1_dropShadow_152_3507"/>
<feBlend mode="normal" in="SourceGraphic" in2="effect1_dropShadow_152_3507" result="shape"/>
</filter>
<linearGradient id="paint0_linear_152_3507" x1="175.764" y1="61.0842" x2="175.527" y2="219.014" gradientUnits="userSpaceOnUse">
<stop offset="0.205475" stop-color="#3B79D8" stop-opacity="0.9"/>
<stop offset="1" stop-color="#3B79D8" stop-opacity="0"/>
</linearGradient>
<linearGradient id="paint1_linear_152_3507" x1="175.764" y1="112.257" x2="175.659" y2="217.662" gradientUnits="userSpaceOnUse">
<stop offset="0.205475" stop-color="#FF874E" stop-opacity="0.9"/>
<stop offset="1" stop-color="#FF874E" stop-opacity="0"/>
</linearGradient>
</defs>
</svg>
