<svg width="375" height="334" viewBox="0 0 375 334" fill="none" xmlns="http://www.w3.org/2000/svg">
<g filter="url(#filter0_d_152_3469)">
<rect x="12" y="14" width="351" height="306" rx="14" fill="white"/>
<rect x="12.5" y="14.5" width="350" height="305" rx="13.5" stroke="#D3D7DB"/>
</g>
<rect x="13" y="79" width="349" height="1" fill="#D3D7DB"/>
<rect x="13" y="139" width="349" height="1" fill="#D3D7DB"/>
<rect x="13" y="199" width="349" height="1" fill="#D3D7DB"/>
<rect x="13" y="259" width="349" height="1" fill="#D3D7DB"/>
<path d="M83.128 52.192C82.0187 52.192 81.0587 51.952 80.248 51.472C79.448 50.9813 78.8293 50.304 78.392 49.44C77.9547 48.5653 77.736 47.5573 77.736 46.416C77.736 45.264 77.9547 44.256 78.392 43.392C78.8293 42.5173 79.448 41.8347 80.248 41.344C81.0587 40.8533 82.0187 40.608 83.128 40.608C84.44 40.608 85.512 40.928 86.344 41.568C87.176 42.208 87.704 43.104 87.928 44.256H86.04C85.8907 43.6053 85.5707 43.088 85.08 42.704C84.5893 42.32 83.9333 42.128 83.112 42.128C81.992 42.128 81.1067 42.512 80.456 43.28C79.8053 44.0373 79.48 45.0827 79.48 46.416C79.48 47.7387 79.8053 48.7787 80.456 49.536C81.1067 50.2933 81.992 50.672 83.112 50.672C83.9333 50.672 84.5893 50.4907 85.08 50.128C85.5707 49.7653 85.8907 49.2693 86.04 48.64H87.928C87.704 49.7493 87.176 50.6187 86.344 51.248C85.512 51.8773 84.44 52.192 83.128 52.192ZM92.3363 52.192C91.3763 52.192 90.6189 51.8933 90.0643 51.296C89.5203 50.6987 89.2483 49.808 89.2483 48.624V44.064H90.9443V48.448C90.9443 49.984 91.5736 50.752 92.8323 50.752C93.4616 50.752 93.9789 50.528 94.3843 50.08C94.7896 49.632 94.9923 48.992 94.9923 48.16V44.064H96.6883V52H95.1843L95.0563 50.608C94.8109 51.0987 94.4483 51.488 93.9683 51.776C93.4989 52.0533 92.9549 52.192 92.3363 52.192ZM101.694 52.192C100.691 52.192 99.8644 51.9467 99.2138 51.456C98.5631 50.9653 98.1898 50.3147 98.0938 49.504H99.8058C99.8911 49.8667 100.094 50.1813 100.414 50.448C100.734 50.704 101.155 50.832 101.678 50.832C102.19 50.832 102.563 50.7253 102.798 50.512C103.032 50.2987 103.15 50.0533 103.15 49.776C103.15 49.3707 102.984 49.0987 102.654 48.96C102.334 48.8107 101.886 48.6773 101.31 48.56C100.862 48.464 100.414 48.336 99.9658 48.176C99.5284 48.016 99.1604 47.792 98.8618 47.504C98.5738 47.2053 98.4298 46.8053 98.4298 46.304C98.4298 45.6107 98.6964 45.0347 99.2298 44.576C99.7631 44.1067 100.51 43.872 101.47 43.872C102.355 43.872 103.07 44.0853 103.614 44.512C104.168 44.9387 104.494 45.5413 104.59 46.32H102.958C102.904 45.9787 102.744 45.712 102.478 45.52C102.222 45.328 101.875 45.232 101.438 45.232C101.011 45.232 100.68 45.3227 100.446 45.504C100.211 45.6747 100.094 45.8987 100.094 46.176C100.094 46.4533 100.254 46.672 100.574 46.832C100.904 46.992 101.336 47.136 101.87 47.264C102.403 47.3813 102.894 47.52 103.342 47.68C103.8 47.8293 104.168 48.0533 104.446 48.352C104.723 48.6507 104.862 49.088 104.862 49.664C104.872 50.3893 104.59 50.992 104.014 51.472C103.448 51.952 102.675 52.192 101.694 52.192ZM109.424 52C108.646 52 108.027 51.8133 107.568 51.44C107.11 51.056 106.88 50.3787 106.88 49.408V45.488H105.52V44.064H106.88L107.088 42.048H108.576V44.064H110.816V45.488H108.576V49.408C108.576 49.8453 108.667 50.1493 108.848 50.32C109.04 50.48 109.366 50.56 109.824 50.56H110.736V52H109.424ZM115.754 52.192C114.997 52.192 114.314 52.0213 113.706 51.68C113.109 51.328 112.634 50.8427 112.282 50.224C111.93 49.5947 111.754 48.864 111.754 48.032C111.754 47.2 111.93 46.4747 112.282 45.856C112.645 45.2267 113.13 44.7413 113.738 44.4C114.346 44.048 115.023 43.872 115.77 43.872C116.527 43.872 117.205 44.048 117.802 44.4C118.41 44.7413 118.89 45.2267 119.242 45.856C119.605 46.4747 119.786 47.2 119.786 48.032C119.786 48.864 119.605 49.5947 119.242 50.224C118.89 50.8427 118.41 51.328 117.802 51.68C117.194 52.0213 116.511 52.192 115.754 52.192ZM115.754 50.736C116.159 50.736 116.533 50.6347 116.874 50.432C117.226 50.2293 117.509 49.9307 117.722 49.536C117.935 49.1307 118.042 48.6293 118.042 48.032C118.042 47.4347 117.935 46.9387 117.722 46.544C117.519 46.1387 117.242 45.8347 116.89 45.632C116.549 45.4293 116.175 45.328 115.77 45.328C115.365 45.328 114.986 45.4293 114.634 45.632C114.293 45.8347 114.015 46.1387 113.802 46.544C113.589 46.9387 113.482 47.4347 113.482 48.032C113.482 48.6293 113.589 49.1307 113.802 49.536C114.015 49.9307 114.293 50.2293 114.634 50.432C114.975 50.6347 115.349 50.736 115.754 50.736ZM121.3 52V44.064H122.804L122.948 45.184C123.204 44.7787 123.54 44.4587 123.956 44.224C124.383 43.9893 124.873 43.872 125.428 43.872C126.687 43.872 127.561 44.368 128.052 45.36C128.34 44.9013 128.724 44.5387 129.204 44.272C129.695 44.0053 130.223 43.872 130.788 43.872C131.78 43.872 132.559 44.1707 133.124 44.768C133.689 45.3653 133.972 46.256 133.972 47.44V52H132.276V47.616C132.276 46.08 131.689 45.312 130.516 45.312C129.919 45.312 129.428 45.536 129.044 45.984C128.671 46.432 128.484 47.072 128.484 47.904V52H126.788V47.616C126.788 46.08 126.196 45.312 125.012 45.312C124.425 45.312 123.94 45.536 123.556 45.984C123.183 46.432 122.996 47.072 122.996 47.904V52H121.3ZM139.348 52.192C138.57 52.192 137.876 52.0213 137.268 51.68C136.671 51.328 136.202 50.8427 135.86 50.224C135.519 49.6053 135.348 48.8853 135.348 48.064C135.348 47.232 135.514 46.5013 135.844 45.872C136.186 45.2427 136.655 44.752 137.252 44.4C137.86 44.048 138.564 43.872 139.364 43.872C140.143 43.872 140.82 44.048 141.396 44.4C141.972 44.7413 142.42 45.2 142.74 45.776C143.06 46.352 143.22 46.9867 143.22 47.68C143.22 47.7867 143.215 47.904 143.204 48.032C143.204 48.1493 143.199 48.2827 143.188 48.432H137.012C137.066 49.2 137.316 49.7867 137.764 50.192C138.223 50.5867 138.751 50.784 139.348 50.784C139.828 50.784 140.228 50.6773 140.548 50.464C140.879 50.24 141.124 49.9413 141.284 49.568H142.98C142.767 50.3147 142.34 50.9387 141.7 51.44C141.071 51.9413 140.287 52.192 139.348 52.192ZM139.348 45.264C138.783 45.264 138.282 45.4347 137.844 45.776C137.407 46.1067 137.14 46.608 137.044 47.28H141.524C141.492 46.6613 141.274 46.1707 140.868 45.808C140.463 45.4453 139.956 45.264 139.348 45.264ZM144.66 52V44.064H146.18L146.324 45.568C146.601 45.0453 146.985 44.6347 147.476 44.336C147.977 44.0267 148.58 43.872 149.284 43.872V45.648H148.82C148.351 45.648 147.929 45.728 147.556 45.888C147.193 46.0373 146.9 46.2987 146.676 46.672C146.463 47.0347 146.356 47.5413 146.356 48.192V52H144.66ZM153.586 52.192C152.584 52.192 151.757 51.9467 151.106 51.456C150.456 50.9653 150.082 50.3147 149.986 49.504H151.698C151.784 49.8667 151.986 50.1813 152.306 50.448C152.626 50.704 153.048 50.832 153.57 50.832C154.082 50.832 154.456 50.7253 154.69 50.512C154.925 50.2987 155.042 50.0533 155.042 49.776C155.042 49.3707 154.877 49.0987 154.546 48.96C154.226 48.8107 153.778 48.6773 153.202 48.56C152.754 48.464 152.306 48.336 151.858 48.176C151.421 48.016 151.053 47.792 150.754 47.504C150.466 47.2053 150.322 46.8053 150.322 46.304C150.322 45.6107 150.589 45.0347 151.122 44.576C151.656 44.1067 152.402 43.872 153.362 43.872C154.248 43.872 154.962 44.0853 155.506 44.512C156.061 44.9387 156.386 45.5413 156.482 46.32H154.85C154.797 45.9787 154.637 45.712 154.37 45.52C154.114 45.328 153.768 45.232 153.33 45.232C152.904 45.232 152.573 45.3227 152.338 45.504C152.104 45.6747 151.986 45.8987 151.986 46.176C151.986 46.4533 152.146 46.672 152.466 46.832C152.797 46.992 153.229 47.136 153.762 47.264C154.296 47.3813 154.786 47.52 155.234 47.68C155.693 47.8293 156.061 48.0533 156.338 48.352C156.616 48.6507 156.754 49.088 156.754 49.664C156.765 50.3893 156.482 50.992 155.906 51.472C155.341 51.952 154.568 52.192 153.586 52.192Z" fill="black"/>
<rect x="256.5" y="32.5" width="88" height="28" rx="14" fill="white" stroke="#D3D7DB"/>
<path d="M274.25 51L270.568 41.2H271.842L274.936 49.754L278.058 41.2H279.304L275.622 51H274.25ZM281.012 42.516C280.779 42.516 280.583 42.4413 280.424 42.292C280.275 42.1333 280.2 41.9373 280.2 41.704C280.2 41.48 280.275 41.2933 280.424 41.144C280.583 40.9947 280.779 40.92 281.012 40.92C281.236 40.92 281.427 40.9947 281.586 41.144C281.745 41.2933 281.824 41.48 281.824 41.704C281.824 41.9373 281.745 42.1333 281.586 42.292C281.427 42.4413 281.236 42.516 281.012 42.516ZM280.424 51V44.056H281.6V51H280.424ZM286.489 51.168C285.827 51.168 285.239 51.0187 284.725 50.72C284.212 50.412 283.806 49.9873 283.507 49.446C283.218 48.9047 283.073 48.2653 283.073 47.528C283.073 46.8 283.218 46.1653 283.507 45.624C283.797 45.0733 284.198 44.6487 284.711 44.35C285.234 44.042 285.836 43.888 286.517 43.888C287.189 43.888 287.768 44.042 288.253 44.35C288.748 44.6487 289.126 45.0453 289.387 45.54C289.649 46.0347 289.779 46.5667 289.779 47.136C289.779 47.2387 289.775 47.3413 289.765 47.444C289.765 47.5467 289.765 47.6633 289.765 47.794H284.235C284.263 48.326 284.385 48.7693 284.599 49.124C284.823 49.4693 285.099 49.7307 285.425 49.908C285.761 50.0853 286.116 50.174 286.489 50.174C286.975 50.174 287.381 50.062 287.707 49.838C288.034 49.614 288.272 49.3107 288.421 48.928H289.583C289.397 49.572 289.037 50.1087 288.505 50.538C287.983 50.958 287.311 51.168 286.489 51.168ZM286.489 44.882C285.929 44.882 285.43 45.0547 284.991 45.4C284.562 45.736 284.315 46.2307 284.249 46.884H288.617C288.589 46.2587 288.375 45.7687 287.973 45.414C287.572 45.0593 287.077 44.882 286.489 44.882ZM292.185 51L290.155 44.056H291.331L292.801 49.502L294.425 44.056H295.755L297.393 49.502L298.849 44.056H300.039L298.009 51H296.805L295.097 45.274L293.389 51H292.185ZM306.794 51.168C306.216 51.168 305.735 51.07 305.352 50.874C304.97 50.678 304.685 50.4167 304.498 50.09C304.312 49.7633 304.218 49.4087 304.218 49.026C304.218 48.3167 304.489 47.7707 305.03 47.388C305.572 47.0053 306.309 46.814 307.242 46.814H309.118V46.73C309.118 46.1233 308.96 45.666 308.642 45.358C308.325 45.0407 307.9 44.882 307.368 44.882C306.911 44.882 306.514 44.9987 306.178 45.232C305.852 45.456 305.646 45.7873 305.562 46.226H304.358C304.405 45.722 304.573 45.2973 304.862 44.952C305.161 44.6067 305.53 44.3453 305.968 44.168C306.407 43.9813 306.874 43.888 307.368 43.888C308.339 43.888 309.067 44.1493 309.552 44.672C310.047 45.1853 310.294 45.8713 310.294 46.73V51H309.244L309.174 49.754C308.978 50.146 308.689 50.482 308.306 50.762C307.933 51.0327 307.429 51.168 306.794 51.168ZM306.976 50.174C307.424 50.174 307.807 50.0573 308.124 49.824C308.451 49.5907 308.698 49.2873 308.866 48.914C309.034 48.5407 309.118 48.1487 309.118 47.738V47.724H307.34C306.65 47.724 306.16 47.8453 305.87 48.088C305.59 48.3213 305.45 48.6153 305.45 48.97C305.45 49.334 305.581 49.628 305.842 49.852C306.113 50.0667 306.491 50.174 306.976 50.174ZM311.779 51V40.92H312.955V51H311.779ZM314.602 51V40.92H315.778V51H314.602Z" fill="black"/>
<path d="M324.708 46.5H332.291" stroke="black" stroke-linecap="round" stroke-linejoin="round"/>
<path d="M328.5 42.709L332.292 46.5007L328.5 50.2923" stroke="black" stroke-linecap="round" stroke-linejoin="round"/>
<rect x="278" y="155" width="67" height="29" rx="14.5" fill="#FFF0DE"/>
<path d="M297.261 174V164.2H298.437V173.062H303.001V174H297.261ZM307.087 174.168C306.425 174.168 305.837 174.019 305.323 173.72C304.81 173.412 304.404 172.987 304.105 172.446C303.816 171.905 303.671 171.265 303.671 170.528C303.671 169.8 303.816 169.165 304.105 168.624C304.395 168.073 304.796 167.649 305.309 167.35C305.832 167.042 306.434 166.888 307.115 166.888C307.787 166.888 308.366 167.042 308.851 167.35C309.346 167.649 309.724 168.045 309.985 168.54C310.247 169.035 310.377 169.567 310.377 170.136C310.377 170.239 310.373 170.341 310.363 170.444C310.363 170.547 310.363 170.663 310.363 170.794H304.833C304.861 171.326 304.983 171.769 305.197 172.124C305.421 172.469 305.697 172.731 306.023 172.908C306.359 173.085 306.714 173.174 307.087 173.174C307.573 173.174 307.979 173.062 308.305 172.838C308.632 172.614 308.87 172.311 309.019 171.928H310.181C309.995 172.572 309.635 173.109 309.103 173.538C308.581 173.958 307.909 174.168 307.087 174.168ZM307.087 167.882C306.527 167.882 306.028 168.055 305.589 168.4C305.16 168.736 304.913 169.231 304.847 169.884H309.215C309.187 169.259 308.973 168.769 308.571 168.414C308.17 168.059 307.675 167.882 307.087 167.882ZM313.966 174.168C313.387 174.168 312.907 174.07 312.524 173.874C312.141 173.678 311.857 173.417 311.67 173.09C311.483 172.763 311.39 172.409 311.39 172.026C311.39 171.317 311.661 170.771 312.202 170.388C312.743 170.005 313.481 169.814 314.414 169.814H316.29V169.73C316.29 169.123 316.131 168.666 315.814 168.358C315.497 168.041 315.072 167.882 314.54 167.882C314.083 167.882 313.686 167.999 313.35 168.232C313.023 168.456 312.818 168.787 312.734 169.226H311.53C311.577 168.722 311.745 168.297 312.034 167.952C312.333 167.607 312.701 167.345 313.14 167.168C313.579 166.981 314.045 166.888 314.54 166.888C315.511 166.888 316.239 167.149 316.724 167.672C317.219 168.185 317.466 168.871 317.466 169.73V174H316.416L316.346 172.754C316.15 173.146 315.861 173.482 315.478 173.762C315.105 174.033 314.601 174.168 313.966 174.168ZM314.148 173.174C314.596 173.174 314.979 173.057 315.296 172.824C315.623 172.591 315.87 172.287 316.038 171.914C316.206 171.541 316.29 171.149 316.29 170.738V170.724H314.512C313.821 170.724 313.331 170.845 313.042 171.088C312.762 171.321 312.622 171.615 312.622 171.97C312.622 172.334 312.753 172.628 313.014 172.852C313.285 173.067 313.663 173.174 314.148 173.174ZM322.1 174.168C321.41 174.168 320.803 174.009 320.28 173.692C319.767 173.375 319.366 172.941 319.076 172.39C318.796 171.839 318.656 171.214 318.656 170.514C318.656 169.814 318.801 169.193 319.09 168.652C319.38 168.101 319.781 167.672 320.294 167.364C320.808 167.047 321.414 166.888 322.114 166.888C322.684 166.888 323.188 167.005 323.626 167.238C324.065 167.471 324.406 167.798 324.648 168.218V163.92H325.824V174H324.76L324.648 172.852C324.424 173.188 324.102 173.491 323.682 173.762C323.262 174.033 322.735 174.168 322.1 174.168ZM322.226 173.146C322.693 173.146 323.104 173.039 323.458 172.824C323.822 172.6 324.102 172.292 324.298 171.9C324.504 171.508 324.606 171.051 324.606 170.528C324.606 170.005 324.504 169.548 324.298 169.156C324.102 168.764 323.822 168.461 323.458 168.246C323.104 168.022 322.693 167.91 322.226 167.91C321.769 167.91 321.358 168.022 320.994 168.246C320.64 168.461 320.36 168.764 320.154 169.156C319.958 169.548 319.86 170.005 319.86 170.528C319.86 171.051 319.958 171.508 320.154 171.9C320.36 172.292 320.64 172.6 320.994 172.824C321.358 173.039 321.769 173.146 322.226 173.146Z" fill="#965F1C"/>
<rect x="278" y="95" width="67" height="29" rx="14.5" fill="#E9EBED"/>
<path d="M298.364 114V104.2H299.54L304.762 112.054V104.2H305.938V114H304.762L299.54 106.146V114H298.364ZM310.788 114.168C310.126 114.168 309.538 114.019 309.024 113.72C308.511 113.412 308.105 112.987 307.806 112.446C307.517 111.905 307.372 111.265 307.372 110.528C307.372 109.8 307.517 109.165 307.806 108.624C308.096 108.073 308.497 107.649 309.01 107.35C309.533 107.042 310.135 106.888 310.816 106.888C311.488 106.888 312.067 107.042 312.552 107.35C313.047 107.649 313.425 108.045 313.686 108.54C313.948 109.035 314.078 109.567 314.078 110.136C314.078 110.239 314.074 110.341 314.064 110.444C314.064 110.547 314.064 110.663 314.064 110.794H308.534C308.562 111.326 308.684 111.769 308.898 112.124C309.122 112.469 309.398 112.731 309.724 112.908C310.06 113.085 310.415 113.174 310.788 113.174C311.274 113.174 311.68 113.062 312.006 112.838C312.333 112.614 312.571 112.311 312.72 111.928H313.882C313.696 112.572 313.336 113.109 312.804 113.538C312.282 113.958 311.61 114.168 310.788 114.168ZM310.788 107.882C310.228 107.882 309.729 108.055 309.29 108.4C308.861 108.736 308.614 109.231 308.548 109.884H312.916C312.888 109.259 312.674 108.769 312.272 108.414C311.871 108.059 311.376 107.882 310.788 107.882ZM316.483 114L314.453 107.056H315.629L317.099 112.502L318.723 107.056H320.053L321.691 112.502L323.147 107.056H324.337L322.307 114H321.103L319.395 108.274L317.687 114H316.483Z" fill="#5E6165"/>
<rect x="255" y="215" width="90" height="29" rx="14.5" fill="#DEEBFF"/>
<path d="M274.383 234.168C273.422 234.168 272.591 233.958 271.891 233.538C271.201 233.109 270.664 232.516 270.281 231.76C269.899 230.995 269.707 230.108 269.707 229.1C269.707 228.101 269.899 227.224 270.281 226.468C270.664 225.703 271.201 225.105 271.891 224.676C272.591 224.247 273.422 224.032 274.383 224.032C275.503 224.032 276.413 224.303 277.113 224.844C277.823 225.376 278.275 226.123 278.471 227.084H277.169C277.02 226.477 276.712 225.992 276.245 225.628C275.788 225.255 275.167 225.068 274.383 225.068C273.683 225.068 273.072 225.231 272.549 225.558C272.027 225.875 271.621 226.337 271.331 226.944C271.051 227.541 270.911 228.26 270.911 229.1C270.911 229.94 271.051 230.663 271.331 231.27C271.621 231.867 272.027 232.329 272.549 232.656C273.072 232.973 273.683 233.132 274.383 233.132C275.167 233.132 275.788 232.955 276.245 232.6C276.712 232.236 277.02 231.755 277.169 231.158H278.471C278.275 232.101 277.823 232.838 277.113 233.37C276.413 233.902 275.503 234.168 274.383 234.168ZM282.346 234.168C281.524 234.168 280.871 233.921 280.386 233.426C279.9 232.922 279.658 232.152 279.658 231.116V227.056H280.834V230.99C280.834 232.437 281.426 233.16 282.612 233.16C283.218 233.16 283.718 232.945 284.11 232.516C284.511 232.077 284.712 231.457 284.712 230.654V227.056H285.888V234H284.824L284.74 232.754C284.525 233.193 284.203 233.538 283.774 233.79C283.354 234.042 282.878 234.168 282.346 234.168ZM290.203 234.168C289.373 234.168 288.682 233.958 288.131 233.538C287.581 233.118 287.259 232.549 287.165 231.83H288.369C288.444 232.194 288.635 232.511 288.943 232.782C289.261 233.043 289.685 233.174 290.217 233.174C290.712 233.174 291.076 233.071 291.309 232.866C291.543 232.651 291.659 232.399 291.659 232.11C291.659 231.69 291.505 231.41 291.197 231.27C290.899 231.13 290.474 231.004 289.923 230.892C289.55 230.817 289.177 230.71 288.803 230.57C288.43 230.43 288.117 230.234 287.865 229.982C287.613 229.721 287.487 229.38 287.487 228.96C287.487 228.353 287.711 227.859 288.159 227.476C288.617 227.084 289.233 226.888 290.007 226.888C290.745 226.888 291.347 227.075 291.813 227.448C292.289 227.812 292.565 228.335 292.639 229.016H291.477C291.431 228.661 291.277 228.386 291.015 228.19C290.763 227.985 290.423 227.882 289.993 227.882C289.573 227.882 289.247 227.971 289.013 228.148C288.789 228.325 288.677 228.559 288.677 228.848C288.677 229.128 288.822 229.347 289.111 229.506C289.41 229.665 289.811 229.8 290.315 229.912C290.745 230.005 291.151 230.122 291.533 230.262C291.925 230.393 292.243 230.593 292.485 230.864C292.737 231.125 292.863 231.508 292.863 232.012C292.873 232.637 292.635 233.155 292.149 233.566C291.673 233.967 291.025 234.168 290.203 234.168ZM296.693 234C296.058 234 295.559 233.846 295.195 233.538C294.831 233.23 294.649 232.675 294.649 231.872V228.05H293.445V227.056H294.649L294.803 225.39H295.825V227.056H297.869V228.05H295.825V231.872C295.825 232.311 295.913 232.609 296.091 232.768C296.268 232.917 296.581 232.992 297.029 232.992H297.757V234H296.693ZM302.055 234.168C301.402 234.168 300.814 234.019 300.291 233.72C299.769 233.421 299.353 233.001 299.045 232.46C298.747 231.909 298.597 231.265 298.597 230.528C298.597 229.791 298.751 229.151 299.059 228.61C299.367 228.059 299.783 227.635 300.305 227.336C300.837 227.037 301.43 226.888 302.083 226.888C302.737 226.888 303.325 227.037 303.847 227.336C304.37 227.635 304.781 228.059 305.079 228.61C305.387 229.151 305.541 229.791 305.541 230.528C305.541 231.265 305.387 231.909 305.079 232.46C304.771 233.001 304.351 233.421 303.819 233.72C303.297 234.019 302.709 234.168 302.055 234.168ZM302.055 233.16C302.457 233.16 302.83 233.062 303.175 232.866C303.521 232.67 303.801 232.376 304.015 231.984C304.23 231.592 304.337 231.107 304.337 230.528C304.337 229.949 304.23 229.464 304.015 229.072C303.81 228.68 303.535 228.386 303.189 228.19C302.844 227.994 302.475 227.896 302.083 227.896C301.682 227.896 301.309 227.994 300.963 228.19C300.618 228.386 300.338 228.68 300.123 229.072C299.909 229.464 299.801 229.949 299.801 230.528C299.801 231.107 299.909 231.592 300.123 231.984C300.338 232.376 300.613 232.67 300.949 232.866C301.295 233.062 301.663 233.16 302.055 233.16ZM306.897 234V227.056H307.961L308.045 228.064C308.269 227.691 308.567 227.401 308.941 227.196C309.314 226.991 309.734 226.888 310.201 226.888C310.751 226.888 311.223 227 311.615 227.224C312.016 227.448 312.324 227.789 312.539 228.246C312.781 227.826 313.113 227.495 313.533 227.252C313.962 227.009 314.424 226.888 314.919 226.888C315.749 226.888 316.412 227.14 316.907 227.644C317.401 228.139 317.649 228.904 317.649 229.94V234H316.487V230.066C316.487 229.347 316.342 228.806 316.053 228.442C315.763 228.078 315.348 227.896 314.807 227.896C314.247 227.896 313.78 228.115 313.407 228.554C313.043 228.983 312.861 229.599 312.861 230.402V234H311.685V230.066C311.685 229.347 311.54 228.806 311.251 228.442C310.961 228.078 310.546 227.896 310.005 227.896C309.454 227.896 308.992 228.115 308.619 228.554C308.255 228.983 308.073 229.599 308.073 230.402V234H306.897ZM322.262 234.168C321.599 234.168 321.011 234.019 320.498 233.72C319.985 233.412 319.579 232.987 319.28 232.446C318.991 231.905 318.846 231.265 318.846 230.528C318.846 229.8 318.991 229.165 319.28 228.624C319.569 228.073 319.971 227.649 320.484 227.35C321.007 227.042 321.609 226.888 322.29 226.888C322.962 226.888 323.541 227.042 324.026 227.35C324.521 227.649 324.899 228.045 325.16 228.54C325.421 229.035 325.552 229.567 325.552 230.136C325.552 230.239 325.547 230.341 325.538 230.444C325.538 230.547 325.538 230.663 325.538 230.794H320.008C320.036 231.326 320.157 231.769 320.372 232.124C320.596 232.469 320.871 232.731 321.198 232.908C321.534 233.085 321.889 233.174 322.262 233.174C322.747 233.174 323.153 233.062 323.48 232.838C323.807 232.614 324.045 232.311 324.194 231.928H325.356C325.169 232.572 324.81 233.109 324.278 233.538C323.755 233.958 323.083 234.168 322.262 234.168ZM322.262 227.882C321.702 227.882 321.203 228.055 320.764 228.4C320.335 228.736 320.087 229.231 320.022 229.884H324.39C324.362 229.259 324.147 228.769 323.746 228.414C323.345 228.059 322.85 227.882 322.262 227.882ZM326.831 234V227.056H327.895L327.993 228.386C328.207 227.929 328.534 227.565 328.973 227.294C329.411 227.023 329.953 226.888 330.597 226.888V228.12H330.275C329.864 228.12 329.486 228.195 329.141 228.344C328.795 228.484 328.52 228.727 328.315 229.072C328.109 229.417 328.007 229.893 328.007 230.5V234H326.831Z" fill="#3862A0"/>
<rect x="278" y="275" width="67" height="29" rx="14.5" fill="#FFF0DE"/>
<path d="M297.261 294V284.2H298.437V293.062H303.001V294H297.261ZM307.087 294.168C306.425 294.168 305.837 294.019 305.323 293.72C304.81 293.412 304.404 292.987 304.105 292.446C303.816 291.905 303.671 291.265 303.671 290.528C303.671 289.8 303.816 289.165 304.105 288.624C304.395 288.073 304.796 287.649 305.309 287.35C305.832 287.042 306.434 286.888 307.115 286.888C307.787 286.888 308.366 287.042 308.851 287.35C309.346 287.649 309.724 288.045 309.985 288.54C310.247 289.035 310.377 289.567 310.377 290.136C310.377 290.239 310.373 290.341 310.363 290.444C310.363 290.547 310.363 290.663 310.363 290.794H304.833C304.861 291.326 304.983 291.769 305.197 292.124C305.421 292.469 305.697 292.731 306.023 292.908C306.359 293.085 306.714 293.174 307.087 293.174C307.573 293.174 307.979 293.062 308.305 292.838C308.632 292.614 308.87 292.311 309.019 291.928H310.181C309.995 292.572 309.635 293.109 309.103 293.538C308.581 293.958 307.909 294.168 307.087 294.168ZM307.087 287.882C306.527 287.882 306.028 288.055 305.589 288.4C305.16 288.736 304.913 289.231 304.847 289.884H309.215C309.187 289.259 308.973 288.769 308.571 288.414C308.17 288.059 307.675 287.882 307.087 287.882ZM313.966 294.168C313.387 294.168 312.907 294.07 312.524 293.874C312.141 293.678 311.857 293.417 311.67 293.09C311.483 292.763 311.39 292.409 311.39 292.026C311.39 291.317 311.661 290.771 312.202 290.388C312.743 290.005 313.481 289.814 314.414 289.814H316.29V289.73C316.29 289.123 316.131 288.666 315.814 288.358C315.497 288.041 315.072 287.882 314.54 287.882C314.083 287.882 313.686 287.999 313.35 288.232C313.023 288.456 312.818 288.787 312.734 289.226H311.53C311.577 288.722 311.745 288.297 312.034 287.952C312.333 287.607 312.701 287.345 313.14 287.168C313.579 286.981 314.045 286.888 314.54 286.888C315.511 286.888 316.239 287.149 316.724 287.672C317.219 288.185 317.466 288.871 317.466 289.73V294H316.416L316.346 292.754C316.15 293.146 315.861 293.482 315.478 293.762C315.105 294.033 314.601 294.168 313.966 294.168ZM314.148 293.174C314.596 293.174 314.979 293.057 315.296 292.824C315.623 292.591 315.87 292.287 316.038 291.914C316.206 291.541 316.29 291.149 316.29 290.738V290.724H314.512C313.821 290.724 313.331 290.845 313.042 291.088C312.762 291.321 312.622 291.615 312.622 291.97C312.622 292.334 312.753 292.628 313.014 292.852C313.285 293.067 313.663 293.174 314.148 293.174ZM322.1 294.168C321.41 294.168 320.803 294.009 320.28 293.692C319.767 293.375 319.366 292.941 319.076 292.39C318.796 291.839 318.656 291.214 318.656 290.514C318.656 289.814 318.801 289.193 319.09 288.652C319.38 288.101 319.781 287.672 320.294 287.364C320.808 287.047 321.414 286.888 322.114 286.888C322.684 286.888 323.188 287.005 323.626 287.238C324.065 287.471 324.406 287.798 324.648 288.218V283.92H325.824V294H324.76L324.648 292.852C324.424 293.188 324.102 293.491 323.682 293.762C323.262 294.033 322.735 294.168 322.1 294.168ZM322.226 293.146C322.693 293.146 323.104 293.039 323.458 292.824C323.822 292.6 324.102 292.292 324.298 291.9C324.504 291.508 324.606 291.051 324.606 290.528C324.606 290.005 324.504 289.548 324.298 289.156C324.102 288.764 323.822 288.461 323.458 288.246C323.104 288.022 322.693 287.91 322.226 287.91C321.769 287.91 321.358 288.022 320.994 288.246C320.64 288.461 320.36 288.764 320.154 289.156C319.958 289.548 319.86 290.005 319.86 290.528C319.86 291.051 319.958 291.508 320.154 291.9C320.36 292.292 320.64 292.6 320.994 292.824C321.358 293.039 321.769 293.146 322.226 293.146Z" fill="#965F1C"/>
<path d="M31.136 115V103.8H38.256V105.176H32.832V108.664H37.776V110.008H32.832V113.624H38.256V115H31.136ZM39.8926 115V103.48H41.5886V115H39.8926ZM46.5844 115.192C45.5817 115.192 44.755 114.947 44.1044 114.456C43.4537 113.965 43.0804 113.315 42.9844 112.504H44.6964C44.7817 112.867 44.9844 113.181 45.3044 113.448C45.6244 113.704 46.0457 113.832 46.5684 113.832C47.0804 113.832 47.4537 113.725 47.6884 113.512C47.923 113.299 48.0404 113.053 48.0404 112.776C48.0404 112.371 47.875 112.099 47.5444 111.96C47.2244 111.811 46.7764 111.677 46.2004 111.56C45.7524 111.464 45.3044 111.336 44.8564 111.176C44.419 111.016 44.051 110.792 43.7524 110.504C43.4644 110.205 43.3204 109.805 43.3204 109.304C43.3204 108.611 43.587 108.035 44.1204 107.576C44.6537 107.107 45.4004 106.872 46.3604 106.872C47.2457 106.872 47.9604 107.085 48.5044 107.512C49.059 107.939 49.3844 108.541 49.4804 109.32H47.8484C47.795 108.979 47.635 108.712 47.3684 108.52C47.1124 108.328 46.7657 108.232 46.3284 108.232C45.9017 108.232 45.571 108.323 45.3364 108.504C45.1017 108.675 44.9844 108.899 44.9844 109.176C44.9844 109.453 45.1444 109.672 45.4644 109.832C45.795 109.992 46.227 110.136 46.7604 110.264C47.2937 110.381 47.7844 110.52 48.2324 110.68C48.691 110.829 49.059 111.053 49.3364 111.352C49.6137 111.651 49.7524 112.088 49.7524 112.664C49.763 113.389 49.4804 113.992 48.9044 114.472C48.339 114.952 47.5657 115.192 46.5844 115.192ZM53.9719 115.192C53.2999 115.192 52.7452 115.08 52.3079 114.856C51.8705 114.632 51.5452 114.339 51.3319 113.976C51.1185 113.603 51.0119 113.197 51.0119 112.76C51.0119 111.992 51.3105 111.384 51.9079 110.936C52.5052 110.488 53.3585 110.264 54.4679 110.264H56.5479V110.12C56.5479 109.501 56.3772 109.037 56.0359 108.728C55.7052 108.419 55.2732 108.264 54.7399 108.264C54.2705 108.264 53.8599 108.381 53.5079 108.616C53.1665 108.84 52.9585 109.176 52.8839 109.624H51.1879C51.2412 109.048 51.4332 108.557 51.7639 108.152C52.1052 107.736 52.5319 107.421 53.0439 107.208C53.5665 106.984 54.1372 106.872 54.7559 106.872C55.8652 106.872 56.7239 107.165 57.3319 107.752C57.9399 108.328 58.2439 109.117 58.2439 110.12V115H56.7719L56.6279 113.64C56.4039 114.077 56.0785 114.445 55.6519 114.744C55.2252 115.043 54.6652 115.192 53.9719 115.192ZM54.3079 113.816C54.7665 113.816 55.1505 113.709 55.4599 113.496C55.7799 113.272 56.0252 112.979 56.1959 112.616C56.3772 112.253 56.4892 111.853 56.5319 111.416H54.6439C53.9719 111.416 53.4919 111.533 53.2039 111.768C52.9265 112.003 52.7879 112.296 52.7879 112.648C52.7879 113.011 52.9212 113.299 53.1879 113.512C53.4652 113.715 53.8385 113.816 54.3079 113.816ZM63.6766 115V103.8H67.9006C69.0633 103.8 69.9433 104.072 70.5406 104.616C71.138 105.16 71.4366 105.843 71.4366 106.664C71.4366 107.379 71.2446 107.949 70.8606 108.376C70.4766 108.792 70.0126 109.075 69.4686 109.224C69.8953 109.309 70.274 109.48 70.6046 109.736C70.946 109.992 71.2126 110.312 71.4046 110.696C71.5966 111.08 71.6926 111.496 71.6926 111.944C71.6926 112.52 71.5486 113.043 71.2606 113.512C70.9833 113.971 70.5726 114.333 70.0286 114.6C69.4846 114.867 68.818 115 68.0286 115H63.6766ZM65.3726 108.6H67.6926C68.3433 108.6 68.8393 108.451 69.1806 108.152C69.522 107.843 69.6926 107.421 69.6926 106.888C69.6926 106.365 69.522 105.949 69.1806 105.64C68.85 105.331 68.3433 105.176 67.6606 105.176H65.3726V108.6ZM65.3726 113.608H67.8046C68.4873 113.608 69.0153 113.448 69.3886 113.128C69.7726 112.808 69.9646 112.36 69.9646 111.784C69.9646 111.208 69.7673 110.755 69.3726 110.424C68.978 110.083 68.4446 109.912 67.7726 109.912H65.3726V113.608ZM75.8556 115.192C75.1836 115.192 74.629 115.08 74.1916 114.856C73.7543 114.632 73.429 114.339 73.2156 113.976C73.0023 113.603 72.8956 113.197 72.8956 112.76C72.8956 111.992 73.1943 111.384 73.7916 110.936C74.389 110.488 75.2423 110.264 76.3516 110.264H78.4316V110.12C78.4316 109.501 78.261 109.037 77.9196 108.728C77.589 108.419 77.157 108.264 76.6236 108.264C76.1543 108.264 75.7436 108.381 75.3916 108.616C75.0503 108.84 74.8423 109.176 74.7676 109.624H73.0716C73.125 109.048 73.317 108.557 73.6476 108.152C73.989 107.736 74.4156 107.421 74.9276 107.208C75.4503 106.984 76.021 106.872 76.6396 106.872C77.749 106.872 78.6076 107.165 79.2156 107.752C79.8236 108.328 80.1276 109.117 80.1276 110.12V115H78.6556L78.5116 113.64C78.2876 114.077 77.9623 114.445 77.5356 114.744C77.109 115.043 76.549 115.192 75.8556 115.192ZM76.1916 113.816C76.6503 113.816 77.0343 113.709 77.3436 113.496C77.6636 113.272 77.909 112.979 78.0796 112.616C78.261 112.253 78.373 111.853 78.4156 111.416H76.5276C75.8556 111.416 75.3756 111.533 75.0876 111.768C74.8103 112.003 74.6716 112.296 74.6716 112.648C74.6716 113.011 74.805 113.299 75.0716 113.512C75.349 113.715 75.7223 113.816 76.1916 113.816ZM81.7851 115V103.48H83.4811V115H81.7851ZM84.7809 115V113.624L89.0209 108.472H84.8449V107.064H90.9409V108.44L86.6689 113.592H91.0209V115H84.7809ZM95.13 115.192C94.458 115.192 93.9033 115.08 93.466 114.856C93.0287 114.632 92.7033 114.339 92.49 113.976C92.2767 113.603 92.17 113.197 92.17 112.76C92.17 111.992 92.4687 111.384 93.066 110.936C93.6633 110.488 94.5167 110.264 95.626 110.264H97.706V110.12C97.706 109.501 97.5353 109.037 97.194 108.728C96.8633 108.419 96.4313 108.264 95.898 108.264C95.4287 108.264 95.018 108.381 94.666 108.616C94.3247 108.84 94.1167 109.176 94.042 109.624H92.346C92.3993 109.048 92.5913 108.557 92.922 108.152C93.2633 107.736 93.69 107.421 94.202 107.208C94.7247 106.984 95.2953 106.872 95.914 106.872C97.0233 106.872 97.882 107.165 98.49 107.752C99.098 108.328 99.402 109.117 99.402 110.12V115H97.93L97.786 113.64C97.562 114.077 97.2367 114.445 96.81 114.744C96.3833 115.043 95.8233 115.192 95.13 115.192ZM95.466 113.816C95.9247 113.816 96.3087 113.709 96.618 113.496C96.938 113.272 97.1833 112.979 97.354 112.616C97.5353 112.253 97.6473 111.853 97.69 111.416H95.802C95.13 111.416 94.65 111.533 94.362 111.768C94.0847 112.003 93.946 112.296 93.946 112.648C93.946 113.011 94.0793 113.299 94.346 113.512C94.6233 113.715 94.9967 113.816 95.466 113.816ZM101.06 115V107.064H102.58L102.724 108.568C103.001 108.045 103.385 107.635 103.876 107.336C104.377 107.027 104.98 106.872 105.684 106.872V108.648H105.22C104.75 108.648 104.329 108.728 103.956 108.888C103.593 109.037 103.3 109.299 103.076 109.672C102.862 110.035 102.756 110.541 102.756 111.192V115H101.06ZM107.746 118.52L109.65 114.344H109.186L106.05 107.064H107.89L110.322 112.936L112.866 107.064H114.658L109.538 118.52H107.746Z" fill="black"/>
<path d="M31.136 175V163.8H34.768C36.08 163.8 37.1573 164.029 38 164.488C38.8533 164.947 39.4827 165.597 39.888 166.44C40.304 167.272 40.512 168.264 40.512 169.416C40.512 170.557 40.304 171.549 39.888 172.392C39.4827 173.224 38.8533 173.869 38 174.328C37.1573 174.776 36.08 175 34.768 175H31.136ZM32.832 173.56H34.704C35.7173 173.56 36.5173 173.395 37.104 173.064C37.7013 172.733 38.128 172.259 38.384 171.64C38.6507 171.021 38.784 170.28 38.784 169.416C38.784 168.552 38.6507 167.805 38.384 167.176C38.128 166.547 37.7013 166.067 37.104 165.736C36.5173 165.395 35.7173 165.224 34.704 165.224H32.832V173.56ZM44.69 175.192C44.018 175.192 43.4633 175.08 43.026 174.856C42.5887 174.632 42.2633 174.339 42.05 173.976C41.8367 173.603 41.73 173.197 41.73 172.76C41.73 171.992 42.0287 171.384 42.626 170.936C43.2233 170.488 44.0767 170.264 45.186 170.264H47.266V170.12C47.266 169.501 47.0953 169.037 46.754 168.728C46.4233 168.419 45.9913 168.264 45.458 168.264C44.9887 168.264 44.578 168.381 44.226 168.616C43.8847 168.84 43.6767 169.176 43.602 169.624H41.906C41.9593 169.048 42.1513 168.557 42.482 168.152C42.8233 167.736 43.25 167.421 43.762 167.208C44.2847 166.984 44.8553 166.872 45.474 166.872C46.5833 166.872 47.442 167.165 48.05 167.752C48.658 168.328 48.962 169.117 48.962 170.12V175H47.49L47.346 173.64C47.122 174.077 46.7967 174.445 46.37 174.744C45.9433 175.043 45.3833 175.192 44.69 175.192ZM45.026 173.816C45.4847 173.816 45.8687 173.709 46.178 173.496C46.498 173.272 46.7433 172.979 46.914 172.616C47.0953 172.253 47.2073 171.853 47.25 171.416H45.362C44.69 171.416 44.21 171.533 43.922 171.768C43.6447 172.003 43.506 172.296 43.506 172.648C43.506 173.011 43.6393 173.299 43.906 173.512C44.1833 173.715 44.5567 173.816 45.026 173.816ZM52.5779 175L49.6019 167.064H51.3779L53.5859 173.384L55.7939 167.064H57.5539L54.5939 175H52.5779ZM59.5876 165.56C59.2676 165.56 59.001 165.464 58.7876 165.272C58.585 165.069 58.4836 164.819 58.4836 164.52C58.4836 164.221 58.585 163.976 58.7876 163.784C59.001 163.581 59.2676 163.48 59.5876 163.48C59.9076 163.48 60.169 163.581 60.3716 163.784C60.585 163.976 60.6916 164.221 60.6916 164.52C60.6916 164.819 60.585 165.069 60.3716 165.272C60.169 165.464 59.9076 165.56 59.5876 165.56ZM58.7396 175V167.064H60.4356V175H58.7396ZM65.9705 175.192C65.2025 175.192 64.5252 175.011 63.9385 174.648C63.3518 174.285 62.8932 173.789 62.5625 173.16C62.2318 172.531 62.0665 171.816 62.0665 171.016C62.0665 170.216 62.2318 169.507 62.5625 168.888C62.8932 168.259 63.3518 167.768 63.9385 167.416C64.5358 167.053 65.2185 166.872 65.9865 166.872C66.6158 166.872 67.1652 166.995 67.6345 167.24C68.1145 167.485 68.4878 167.832 68.7545 168.28V163.48H70.4505V175H68.9305L68.7545 173.768C68.4985 174.141 68.1465 174.472 67.6985 174.76C67.2505 175.048 66.6745 175.192 65.9705 175.192ZM66.2745 173.72C66.9998 173.72 67.5918 173.469 68.0505 172.968C68.5198 172.467 68.7545 171.821 68.7545 171.032C68.7545 170.232 68.5198 169.587 68.0505 169.096C67.5918 168.595 66.9998 168.344 66.2745 168.344C65.5492 168.344 64.9518 168.595 64.4825 169.096C64.0132 169.587 63.7785 170.232 63.7785 171.032C63.7785 171.555 63.8852 172.019 64.0985 172.424C64.3118 172.829 64.6052 173.149 64.9785 173.384C65.3625 173.608 65.7945 173.72 66.2745 173.72ZM76.0441 175V163.8H77.7401V173.656H82.8281V175H76.0441ZM86.9575 175.192C86.2855 175.192 85.7308 175.08 85.2935 174.856C84.8562 174.632 84.5308 174.339 84.3175 173.976C84.1042 173.603 83.9975 173.197 83.9975 172.76C83.9975 171.992 84.2962 171.384 84.8935 170.936C85.4908 170.488 86.3442 170.264 87.4535 170.264H89.5335V170.12C89.5335 169.501 89.3628 169.037 89.0215 168.728C88.6908 168.419 88.2588 168.264 87.7255 168.264C87.2562 168.264 86.8455 168.381 86.4935 168.616C86.1522 168.84 85.9442 169.176 85.8695 169.624H84.1735C84.2268 169.048 84.4188 168.557 84.7495 168.152C85.0908 167.736 85.5175 167.421 86.0295 167.208C86.5522 166.984 87.1228 166.872 87.7415 166.872C88.8508 166.872 89.7095 167.165 90.3175 167.752C90.9255 168.328 91.2295 169.117 91.2295 170.12V175H89.7575L89.6135 173.64C89.3895 174.077 89.0642 174.445 88.6375 174.744C88.2108 175.043 87.6508 175.192 86.9575 175.192ZM87.2935 173.816C87.7522 173.816 88.1362 173.709 88.4455 173.496C88.7655 173.272 89.0108 172.979 89.1815 172.616C89.3628 172.253 89.4748 171.853 89.5175 171.416H87.6295C86.9575 171.416 86.4775 171.533 86.1895 171.768C85.9122 172.003 85.7735 172.296 85.7735 172.648C85.7735 173.011 85.9068 173.299 86.1735 173.512C86.4508 173.715 86.8242 173.816 87.2935 173.816ZM92.887 175V167.064H94.391L94.519 168.456C94.7643 167.965 95.1217 167.581 95.591 167.304C96.071 167.016 96.6203 166.872 97.239 166.872C98.199 166.872 98.951 167.171 99.495 167.768C100.05 168.365 100.327 169.256 100.327 170.44V175H98.647V170.616C98.647 169.08 98.0177 168.312 96.759 168.312C96.1297 168.312 95.607 168.536 95.191 168.984C94.7857 169.432 94.583 170.072 94.583 170.904V175H92.887ZM105.717 175.192C104.938 175.192 104.245 175.021 103.637 174.68C103.039 174.328 102.57 173.843 102.229 173.224C101.887 172.605 101.717 171.885 101.717 171.064C101.717 170.232 101.882 169.501 102.213 168.872C102.554 168.243 103.023 167.752 103.621 167.4C104.229 167.048 104.933 166.872 105.733 166.872C106.511 166.872 107.189 167.048 107.765 167.4C108.341 167.741 108.789 168.2 109.109 168.776C109.429 169.352 109.589 169.987 109.589 170.68C109.589 170.787 109.583 170.904 109.573 171.032C109.573 171.149 109.567 171.283 109.557 171.432H103.381C103.434 172.2 103.685 172.787 104.133 173.192C104.591 173.587 105.119 173.784 105.717 173.784C106.197 173.784 106.597 173.677 106.917 173.464C107.247 173.24 107.493 172.941 107.653 172.568H109.349C109.135 173.315 108.709 173.939 108.069 174.44C107.439 174.941 106.655 175.192 105.717 175.192ZM105.717 168.264C105.151 168.264 104.65 168.435 104.213 168.776C103.775 169.107 103.509 169.608 103.413 170.28H107.893C107.861 169.661 107.642 169.171 107.237 168.808C106.831 168.445 106.325 168.264 105.717 168.264Z" fill="black"/>
<path d="M33.84 235.192C32.7947 235.192 31.9627 234.899 31.344 234.312C30.736 233.725 30.432 232.899 30.432 231.832H32.128C32.128 232.365 32.256 232.808 32.512 233.16C32.7787 233.512 33.2107 233.688 33.808 233.688C34.3947 233.688 34.8107 233.523 35.056 233.192C35.3013 232.851 35.424 232.419 35.424 231.896V223.8H37.12V231.896C37.12 232.952 36.8267 233.768 36.24 234.344C35.6533 234.909 34.8533 235.192 33.84 235.192ZM42.714 235.192C41.9353 235.192 41.242 235.021 40.634 234.68C40.0367 234.328 39.5673 233.843 39.226 233.224C38.8847 232.605 38.714 231.885 38.714 231.064C38.714 230.232 38.8793 229.501 39.21 228.872C39.5513 228.243 40.0207 227.752 40.618 227.4C41.226 227.048 41.93 226.872 42.73 226.872C43.5087 226.872 44.186 227.048 44.762 227.4C45.338 227.741 45.786 228.2 46.106 228.776C46.426 229.352 46.586 229.987 46.586 230.68C46.586 230.787 46.5807 230.904 46.57 231.032C46.57 231.149 46.5647 231.283 46.554 231.432H40.378C40.4313 232.2 40.682 232.787 41.13 233.192C41.5887 233.587 42.1167 233.784 42.714 233.784C43.194 233.784 43.594 233.677 43.914 233.464C44.2447 233.24 44.49 232.941 44.65 232.568H46.346C46.1327 233.315 45.706 233.939 45.066 234.44C44.4367 234.941 43.6527 235.192 42.714 235.192ZM42.714 228.264C42.1487 228.264 41.6473 228.435 41.21 228.776C40.7727 229.107 40.506 229.608 40.41 230.28H44.89C44.858 229.661 44.6393 229.171 44.234 228.808C43.8287 228.445 43.322 228.264 42.714 228.264ZM48.0258 235V227.064H49.5298L49.6578 228.456C49.9031 227.965 50.2604 227.581 50.7298 227.304C51.2098 227.016 51.7591 226.872 52.3778 226.872C53.3378 226.872 54.0898 227.171 54.6338 227.768C55.1884 228.365 55.4658 229.256 55.4658 230.44V235H53.7858V230.616C53.7858 229.08 53.1564 228.312 51.8978 228.312C51.2684 228.312 50.7458 228.536 50.3298 228.984C49.9244 229.432 49.7218 230.072 49.7218 230.904V235H48.0258ZM57.1433 235V227.064H58.6473L58.7753 228.456C59.0206 227.965 59.3779 227.581 59.8473 227.304C60.3273 227.016 60.8766 226.872 61.4953 226.872C62.4553 226.872 63.2073 227.171 63.7513 227.768C64.3059 228.365 64.5833 229.256 64.5833 230.44V235H62.9033V230.616C62.9033 229.08 62.2739 228.312 61.0153 228.312C60.3859 228.312 59.8633 228.536 59.4473 228.984C59.0419 229.432 58.8393 230.072 58.8393 230.904V235H57.1433ZM66.9388 238.52L68.8428 234.344H68.3788L65.2428 227.064H67.0828L69.5148 232.936L72.0588 227.064H73.8508L68.7308 238.52H66.9388ZM80.9884 235.016L77.9644 223.8H79.7884L82.0124 233.08L84.5724 223.8H86.4444L88.9244 233.08L91.1484 223.8H92.9724L89.9004 235H87.9164L85.4684 226.216L82.9404 235L80.9884 235.016ZM95.1045 225.56C94.7845 225.56 94.5178 225.464 94.3045 225.272C94.1018 225.069 94.0005 224.819 94.0005 224.52C94.0005 224.221 94.1018 223.976 94.3045 223.784C94.5178 223.581 94.7845 223.48 95.1045 223.48C95.4245 223.48 95.6858 223.581 95.8885 223.784C96.1018 223.976 96.2085 224.221 96.2085 224.52C96.2085 224.819 96.1018 225.069 95.8885 225.272C95.6858 225.464 95.4245 225.56 95.1045 225.56ZM94.2565 235V227.064H95.9525V235H94.2565ZM97.8714 235V223.48H99.5674V235H97.8714ZM104.563 235.192C103.56 235.192 102.734 234.947 102.083 234.456C101.432 233.965 101.059 233.315 100.963 232.504H102.675C102.76 232.867 102.963 233.181 103.283 233.448C103.603 233.704 104.024 233.832 104.547 233.832C105.059 233.832 105.432 233.725 105.667 233.512C105.902 233.299 106.019 233.053 106.019 232.776C106.019 232.371 105.854 232.099 105.523 231.96C105.203 231.811 104.755 231.677 104.179 231.56C103.731 231.464 103.283 231.336 102.835 231.176C102.398 231.016 102.03 230.792 101.731 230.504C101.443 230.205 101.299 229.805 101.299 229.304C101.299 228.611 101.566 228.035 102.099 227.576C102.632 227.107 103.379 226.872 104.339 226.872C105.224 226.872 105.939 227.085 106.483 227.512C107.038 227.939 107.363 228.541 107.459 229.32H105.827C105.774 228.979 105.614 228.712 105.347 228.52C105.091 228.328 104.744 228.232 104.307 228.232C103.88 228.232 103.55 228.323 103.315 228.504C103.08 228.675 102.963 228.899 102.963 229.176C102.963 229.453 103.123 229.672 103.443 229.832C103.774 229.992 104.206 230.136 104.739 230.264C105.272 230.381 105.763 230.52 106.211 230.68C106.67 230.829 107.038 231.053 107.315 231.352C107.592 231.651 107.731 232.088 107.731 232.664C107.742 233.389 107.459 233.992 106.883 234.472C106.318 234.952 105.544 235.192 104.563 235.192ZM112.975 235.192C112.217 235.192 111.535 235.021 110.927 234.68C110.329 234.328 109.855 233.843 109.503 233.224C109.151 232.595 108.975 231.864 108.975 231.032C108.975 230.2 109.151 229.475 109.503 228.856C109.865 228.227 110.351 227.741 110.959 227.4C111.567 227.048 112.244 226.872 112.991 226.872C113.748 226.872 114.425 227.048 115.023 227.4C115.631 227.741 116.111 228.227 116.463 228.856C116.825 229.475 117.007 230.2 117.007 231.032C117.007 231.864 116.825 232.595 116.463 233.224C116.111 233.843 115.631 234.328 115.023 234.68C114.415 235.021 113.732 235.192 112.975 235.192ZM112.975 233.736C113.38 233.736 113.753 233.635 114.095 233.432C114.447 233.229 114.729 232.931 114.943 232.536C115.156 232.131 115.263 231.629 115.263 231.032C115.263 230.435 115.156 229.939 114.943 229.544C114.74 229.139 114.463 228.835 114.111 228.632C113.769 228.429 113.396 228.328 112.991 228.328C112.585 228.328 112.207 228.429 111.855 228.632C111.513 228.835 111.236 229.139 111.023 229.544C110.809 229.939 110.703 230.435 110.703 231.032C110.703 231.629 110.809 232.131 111.023 232.536C111.236 232.931 111.513 233.229 111.855 233.432C112.196 233.635 112.569 233.736 112.975 233.736ZM118.521 235V227.064H120.025L120.153 228.456C120.398 227.965 120.755 227.581 121.225 227.304C121.705 227.016 122.254 226.872 122.873 226.872C123.833 226.872 124.585 227.171 125.129 227.768C125.683 228.365 125.961 229.256 125.961 230.44V235H124.281V230.616C124.281 229.08 123.651 228.312 122.393 228.312C121.763 228.312 121.241 228.536 120.825 228.984C120.419 229.432 120.217 230.072 120.217 230.904V235H118.521Z" fill="black"/>
<path d="M31.136 295V283.8H35.36C36.5227 283.8 37.4027 284.072 38 284.616C38.5973 285.16 38.896 285.843 38.896 286.664C38.896 287.379 38.704 287.949 38.32 288.376C37.936 288.792 37.472 289.075 36.928 289.224C37.3547 289.309 37.7333 289.48 38.064 289.736C38.4053 289.992 38.672 290.312 38.864 290.696C39.056 291.08 39.152 291.496 39.152 291.944C39.152 292.52 39.008 293.043 38.72 293.512C38.4427 293.971 38.032 294.333 37.488 294.6C36.944 294.867 36.2773 295 35.488 295H31.136ZM32.832 288.6H35.152C35.8027 288.6 36.2987 288.451 36.64 288.152C36.9813 287.843 37.152 287.421 37.152 286.888C37.152 286.365 36.9813 285.949 36.64 285.64C36.3093 285.331 35.8027 285.176 35.12 285.176H32.832V288.6ZM32.832 293.608H35.264C35.9467 293.608 36.4747 293.448 36.848 293.128C37.232 292.808 37.424 292.36 37.424 291.784C37.424 291.208 37.2267 290.755 36.832 290.424C36.4373 290.083 35.904 289.912 35.232 289.912H32.832V293.608ZM44.339 295.192C43.5603 295.192 42.867 295.021 42.259 294.68C41.6617 294.328 41.1923 293.843 40.851 293.224C40.5097 292.605 40.339 291.885 40.339 291.064C40.339 290.232 40.5043 289.501 40.835 288.872C41.1763 288.243 41.6457 287.752 42.243 287.4C42.851 287.048 43.555 286.872 44.355 286.872C45.1337 286.872 45.811 287.048 46.387 287.4C46.963 287.741 47.411 288.2 47.731 288.776C48.051 289.352 48.211 289.987 48.211 290.68C48.211 290.787 48.2057 290.904 48.195 291.032C48.195 291.149 48.1897 291.283 48.179 291.432H42.003C42.0563 292.2 42.307 292.787 42.755 293.192C43.2137 293.587 43.7417 293.784 44.339 293.784C44.819 293.784 45.219 293.677 45.539 293.464C45.8697 293.24 46.115 292.941 46.275 292.568H47.971C47.7577 293.315 47.331 293.939 46.691 294.44C46.0617 294.941 45.2777 295.192 44.339 295.192ZM44.339 288.264C43.7737 288.264 43.2723 288.435 42.835 288.776C42.3977 289.107 42.131 289.608 42.035 290.28H46.515C46.483 289.661 46.2643 289.171 45.859 288.808C45.4537 288.445 44.947 288.264 44.339 288.264ZM49.6508 295V287.064H51.1708L51.3148 288.568C51.5921 288.045 51.9761 287.635 52.4668 287.336C52.9681 287.027 53.5708 286.872 54.2748 286.872V288.648H53.8108C53.3414 288.648 52.9201 288.728 52.5468 288.888C52.1841 289.037 51.8908 289.299 51.6668 289.672C51.4534 290.035 51.3468 290.541 51.3468 291.192V295H49.6508ZM58.7369 295C57.9582 295 57.3395 294.813 56.8809 294.44C56.4222 294.056 56.1929 293.379 56.1929 292.408V288.488H54.8329V287.064H56.1929L56.4009 285.048H57.8889V287.064H60.1289V288.488H57.8889V292.408C57.8889 292.845 57.9795 293.149 58.1609 293.32C58.3529 293.48 58.6782 293.56 59.1369 293.56H60.0489V295H58.7369ZM61.5576 295V283.48H63.2536V288.344C63.5203 287.885 63.8883 287.528 64.3576 287.272C64.8376 287.005 65.3656 286.872 65.9416 286.872C66.891 286.872 67.6376 287.171 68.1816 287.768C68.7256 288.365 68.9976 289.256 68.9976 290.44V295H67.3176V290.616C67.3176 289.08 66.7043 288.312 65.4776 288.312C64.8376 288.312 64.3043 288.536 63.8776 288.984C63.4616 289.432 63.2536 290.072 63.2536 290.904V295H61.5576ZM73.3631 295.192C72.6911 295.192 72.1365 295.08 71.6991 294.856C71.2618 294.632 70.9365 294.339 70.7231 293.976C70.5098 293.603 70.4031 293.197 70.4031 292.76C70.4031 291.992 70.7018 291.384 71.2991 290.936C71.8965 290.488 72.7498 290.264 73.8591 290.264H75.9391V290.12C75.9391 289.501 75.7685 289.037 75.4271 288.728C75.0965 288.419 74.6645 288.264 74.1311 288.264C73.6618 288.264 73.2511 288.381 72.8991 288.616C72.5578 288.84 72.3498 289.176 72.2751 289.624H70.5791C70.6325 289.048 70.8245 288.557 71.1551 288.152C71.4965 287.736 71.9231 287.421 72.4351 287.208C72.9578 286.984 73.5285 286.872 74.1471 286.872C75.2565 286.872 76.1151 287.165 76.7231 287.752C77.3311 288.328 77.6351 289.117 77.6351 290.12V295H76.1631L76.0191 293.64C75.7951 294.077 75.4698 294.445 75.0431 294.744C74.6165 295.043 74.0565 295.192 73.3631 295.192ZM73.6991 293.816C74.1578 293.816 74.5418 293.709 74.8511 293.496C75.1711 293.272 75.4165 292.979 75.5871 292.616C75.7685 292.253 75.8805 291.853 75.9231 291.416H74.0351C73.3631 291.416 72.8831 291.533 72.5951 291.768C72.3178 292.003 72.1791 292.296 72.1791 292.648C72.1791 293.011 72.3125 293.299 72.5791 293.512C72.8565 293.715 73.2298 293.816 73.6991 293.816ZM88.0599 295.192C86.9505 295.192 85.9905 294.952 85.1799 294.472C84.3799 293.981 83.7612 293.304 83.3239 292.44C82.8865 291.565 82.6679 290.557 82.6679 289.416C82.6679 288.264 82.8865 287.256 83.3239 286.392C83.7612 285.517 84.3799 284.835 85.1799 284.344C85.9905 283.853 86.9505 283.608 88.0599 283.608C89.3719 283.608 90.4439 283.928 91.2759 284.568C92.1079 285.208 92.6359 286.104 92.8599 287.256H90.9719C90.8225 286.605 90.5025 286.088 90.0119 285.704C89.5212 285.32 88.8652 285.128 88.0439 285.128C86.9239 285.128 86.0385 285.512 85.3879 286.28C84.7372 287.037 84.4119 288.083 84.4119 289.416C84.4119 290.739 84.7372 291.779 85.3879 292.536C86.0385 293.293 86.9239 293.672 88.0439 293.672C88.8652 293.672 89.5212 293.491 90.0119 293.128C90.5025 292.765 90.8225 292.269 90.9719 291.64H92.8599C92.6359 292.749 92.1079 293.619 91.2759 294.248C90.4439 294.877 89.3719 295.192 88.0599 295.192ZM98.0521 295.192C97.2948 295.192 96.6121 295.021 96.0041 294.68C95.4068 294.328 94.9321 293.843 94.5801 293.224C94.2281 292.595 94.0521 291.864 94.0521 291.032C94.0521 290.2 94.2281 289.475 94.5801 288.856C94.9428 288.227 95.4281 287.741 96.0361 287.4C96.6441 287.048 97.3215 286.872 98.0681 286.872C98.8255 286.872 99.5028 287.048 100.1 287.4C100.708 287.741 101.188 288.227 101.54 288.856C101.903 289.475 102.084 290.2 102.084 291.032C102.084 291.864 101.903 292.595 101.54 293.224C101.188 293.843 100.708 294.328 100.1 294.68C99.4921 295.021 98.8095 295.192 98.0521 295.192ZM98.0521 293.736C98.4575 293.736 98.8308 293.635 99.1721 293.432C99.5241 293.229 99.8068 292.931 100.02 292.536C100.233 292.131 100.34 291.629 100.34 291.032C100.34 290.435 100.233 289.939 100.02 289.544C99.8175 289.139 99.5401 288.835 99.1881 288.632C98.8468 288.429 98.4735 288.328 98.0681 288.328C97.6628 288.328 97.2841 288.429 96.9321 288.632C96.5908 288.835 96.3135 289.139 96.1001 289.544C95.8868 289.939 95.7801 290.435 95.7801 291.032C95.7801 291.629 95.8868 292.131 96.1001 292.536C96.3135 292.931 96.5908 293.229 96.9321 293.432C97.2735 293.635 97.6468 293.736 98.0521 293.736ZM107.31 295.192C106.553 295.192 105.87 295.021 105.262 294.68C104.665 294.328 104.19 293.843 103.838 293.224C103.486 292.595 103.31 291.864 103.31 291.032C103.31 290.2 103.486 289.475 103.838 288.856C104.201 288.227 104.686 287.741 105.294 287.4C105.902 287.048 106.58 286.872 107.326 286.872C108.084 286.872 108.761 287.048 109.358 287.4C109.966 287.741 110.446 288.227 110.798 288.856C111.161 289.475 111.342 290.2 111.342 291.032C111.342 291.864 111.161 292.595 110.798 293.224C110.446 293.843 109.966 294.328 109.358 294.68C108.75 295.021 108.068 295.192 107.31 295.192ZM107.31 293.736C107.716 293.736 108.089 293.635 108.43 293.432C108.782 293.229 109.065 292.931 109.278 292.536C109.492 292.131 109.598 291.629 109.598 291.032C109.598 290.435 109.492 289.939 109.278 289.544C109.076 289.139 108.798 288.835 108.446 288.632C108.105 288.429 107.732 288.328 107.326 288.328C106.921 288.328 106.542 288.429 106.19 288.632C105.849 288.835 105.572 289.139 105.358 289.544C105.145 289.939 105.038 290.435 105.038 291.032C105.038 291.629 105.145 292.131 105.358 292.536C105.572 292.931 105.849 293.229 106.19 293.432C106.532 293.635 106.905 293.736 107.31 293.736ZM112.856 298.52V287.064H114.376L114.552 288.296C114.808 287.923 115.16 287.592 115.608 287.304C116.056 287.016 116.632 286.872 117.336 286.872C118.104 286.872 118.782 287.053 119.368 287.416C119.955 287.779 120.414 288.275 120.744 288.904C121.086 289.533 121.256 290.248 121.256 291.048C121.256 291.848 121.086 292.563 120.744 293.192C120.414 293.811 119.955 294.301 119.368 294.664C118.782 295.016 118.099 295.192 117.32 295.192C116.702 295.192 116.152 295.069 115.672 294.824C115.203 294.579 114.83 294.232 114.552 293.784V298.52H112.856ZM117.032 293.72C117.758 293.72 118.355 293.475 118.824 292.984C119.294 292.483 119.528 291.832 119.528 291.032C119.528 290.509 119.422 290.045 119.208 289.64C118.995 289.235 118.702 288.92 118.328 288.696C117.955 288.461 117.523 288.344 117.032 288.344C116.307 288.344 115.71 288.595 115.24 289.096C114.782 289.597 114.552 290.243 114.552 291.032C114.552 291.832 114.782 292.483 115.24 292.984C115.71 293.475 116.307 293.72 117.032 293.72ZM126.483 295.192C125.704 295.192 125.011 295.021 124.403 294.68C123.805 294.328 123.336 293.843 122.995 293.224C122.653 292.605 122.483 291.885 122.483 291.064C122.483 290.232 122.648 289.501 122.979 288.872C123.32 288.243 123.789 287.752 124.387 287.4C124.995 287.048 125.699 286.872 126.499 286.872C127.277 286.872 127.955 287.048 128.531 287.4C129.107 287.741 129.555 288.2 129.875 288.776C130.195 289.352 130.355 289.987 130.355 290.68C130.355 290.787 130.349 290.904 130.339 291.032C130.339 291.149 130.333 291.283 130.323 291.432H124.147C124.2 292.2 124.451 292.787 124.899 293.192C125.357 293.587 125.885 293.784 126.483 293.784C126.963 293.784 127.363 293.677 127.683 293.464C128.013 293.24 128.259 292.941 128.419 292.568H130.115C129.901 293.315 129.475 293.939 128.835 294.44C128.205 294.941 127.421 295.192 126.483 295.192ZM126.483 288.264C125.917 288.264 125.416 288.435 124.979 288.776C124.541 289.107 124.275 289.608 124.179 290.28H128.659C128.627 289.661 128.408 289.171 128.003 288.808C127.597 288.445 127.091 288.264 126.483 288.264ZM131.795 295V287.064H133.315L133.459 288.568C133.736 288.045 134.12 287.635 134.611 287.336C135.112 287.027 135.715 286.872 136.419 286.872V288.648H135.955C135.485 288.648 135.064 288.728 134.691 288.888C134.328 289.037 134.035 289.299 133.811 289.672C133.597 290.035 133.491 290.541 133.491 291.192V295H131.795Z" fill="black"/>
<path d="M32.4516 29.3707C29.092 31.4327 27.0511 33.2997 27.7391 38.1154C28.4346 42.9835 29.1356 42.0579 31.4831 46.3762C33.8306 50.6946 30.1843 50.5572 32.4229 58.3399C34.5879 65.8668 41.6051 67.8759 52.7923 64.972C63.9795 62.0681 64.8324 52.7817 60.1009 44.7866C56.5523 38.7903 56.9451 38.6379 49.7357 33.2518C40.9467 26.6857 37.2578 26.4208 32.4516 29.3707Z" fill="#EAE0FF"/>
<path d="M39.8331 63.6321C39.1817 62.2532 39.2285 60.163 40.0062 58.8509C40.6363 57.7888 42.1103 58.4598 42.1417 57.2252C42.1697 56.1163 41.2022 55.9773 41.4227 54.8904C41.5156 54.4339 41.9285 53.6385 41.9285 52.9995C41.9285 52.0276 40.9296 51.1546 40.8474 50.1861C40.822 49.888 41.1488 49.1614 41.1488 48.8626C41.1488 48.0418 39.5605 47.219 39.2224 45.9303C38.9545 44.9082 38.6866 43.3836 39.7042 42.3275C40.3343 41.6737 41.684 41.4044 42.4717 40.9532C43.0684 40.6116 44.0032 40.4198 44.2671 39.7848C44.8885 38.2922 42.7383 36.7749 42.4591 35.182C42.2553 34.0197 42.1717 33.1808 43.2134 31.8386C43.9745 30.8587 45.4384 30.7718 46.6752 30.8681C47.5973 30.9402 48.9604 31.5612 49.0706 31.8266C49.2376 32.2276 49.0826 32.64 47.7496 32.6922C47.316 32.7096 45.7171 32.4856 45.244 33.5758C45.0556 34.011 45.6175 34.6025 45.562 35.0062C45.4611 35.7368 45.246 35.9447 45.1384 36.7081C44.6059 36.5075 44.0887 35.1867 43.5762 35.4354C42.574 35.922 44.368 38.0569 44.2204 39.1618C44.1241 39.8831 43.4319 40.3804 42.7383 40.6009C42.0448 40.8215 38.7079 41.8616 38.0024 42.8729C37.1103 44.1523 36.6593 45.723 36.3092 47.243C35.8014 49.4495 35.639 52.2421 36.382 54.3811C36.9099 55.9011 37.0629 56.1652 37.6562 57.6604C37.9429 58.383 38.8062 59.395 39.5572 59.5942C39.7196 59.637 40.4599 57.9158 42.1056 58.7627C42.5386 58.9859 43.0003 59.2713 43.2107 59.7112C43.3918 60.0901 43.5776 60.7352 43.158 60.7419C42.9695 60.7445 42.2426 59.925 42.0675 59.8549C41.1347 59.4785 41.7241 61.417 40.4358 61.417M40.4358 61.417C39.5572 61.417 39.181 60.7044 39.4276 60.302C39.6741 59.8996 41.2944 58.276 41.1982 58.0862C39.5231 54.7802 38.5008 54.0957 38.7527 50.4708C38.7801 50.0738 38.9451 49.3238 39.1884 48.745C39.3427 48.378 39.7035 48.0077 39.7035 48.0077C39.7035 48.0077 40.19 49.785 40.21 50.1025C40.3436 52.2315 40.6116 52.9634 40.5615 55.0956C40.5113 57.2279 40.3971 58.2386 41.9352 59.7158C42.0254 59.8027 42.125 59.897 42.1403 60.0213C42.1738 60.2907 41.8256 60.4224 41.5564 60.4585C40.8701 60.5507 40.1833 60.6436 39.4971 60.7358C39.5986 61.1302 40.0389 61.3247 40.4358 61.417ZM40.4358 61.417C42.8907 61.9898 49.2036 61.5513 50.3889 61.0293C51.6872 60.4578 53.6509 59.1229 53.8507 57.7186C54.5603 52.7355 55.3755 48.7182 53.6182 44.0019C52.6346 41.3609 51.4333 41.1136 50.7237 40.9418C50.1089 40.7934 49.2958 40.3349 48.7158 40.5862C48.1198 40.8442 48.2962 41.145 47.8051 41.5701C46.8937 42.3589 45.4571 42.4658 44.4395 41.8201C44.0921 41.5996 43.784 41.2861 43.6684 40.891C43.3865 39.9278 44.3186 38.9399 44.1028 37.96C43.9504 37.2702 43.2863 36.8317 42.896 36.2428C42.3374 35.3993 42.3829 34.2543 42.8225 33.3432C43.2622 32.4322 43.8589 31.6474 44.8063 31.2932C45.3656 31.084 46.8797 31.0031 47.9381 31.467C49.3786 32.0986 49.7855 33.7911 49.7855 34.7335C49.7855 34.9595 49.253 35.531 49.382 35.7161C49.4789 35.8551 50.0448 36.7515 50.0481 36.8965C50.0555 37.2027 49.6399 37.1278 49.5651 37.4527C49.4074 38.1385 49.7268 38.9947 49.3479 39.5435C49.1822 39.7828 48.5648 39.7768 48.2862 39.7327C47.3594 39.5869 47.2425 39.466 46.6618 39.2534C46.5202 39.9338 46.8015 40.119 47.3982 40.4746C47.7971 40.7126 48.5621 41.8856 49.2564 41.8856C52.4075 41.8856 53.4291 43.9724 53.4632 45.8962C53.4752 46.5933 53.0876 47.9215 53.3222 48.5779C53.5079 49.0966 53.9569 49.8305 53.9569 50.9488C53.9569 52.4587 52.8945 52.5857 52.8945 54.0315C52.8945 55.9131 54.0852 53.5764 53.1872 57.9926C53.1177 58.3335 52.3119 59.5641 52.2591 59.9083C51.8121 59.524 51.1747 58.4184 51.1045 57.5963C51.0484 56.9359 51.7653 57.5106 51.627 55.3436C51.4934 53.2475 50.7751 49.4348 51.2849 47.5913C51.8976 45.3735 51.7713 47.5378 51.7713 47.7357C51.7713 48.8894 50.864 50.1052 50.741 50.8151C50.5078 52.1599 50.5078 53.6405 50.8413 55.1632C51.0009 55.8931 50.8152 56.7213 50.6782 57.4566C50.4363 58.7566 49.4314 59.0949 48.7719 60.2412C48.6771 60.407 48.8127 60.6396 49.1274 60.5193C49.541 60.3602 49.7655 59.5855 50.2533 59.5855C50.5038 59.5855 50.87 60.8555 51.3183 60.5474C53.258 59.2172 51.476 61.5974 51.3932 61.8735C51.2255 62.431 51.1386 62.8527 51.3932 63.4797" stroke="#1F3758" stroke-width="0.75" stroke-miterlimit="10" stroke-linecap="round"/>
<rect x="221.5" y="32.5" width="28" height="28" rx="14" fill="white" stroke="#D3D7DB"/>
<path d="M235.5 42.125V50.875" stroke="black" stroke-linecap="round" stroke-linejoin="round"/>
<path d="M231.125 46.5H239.875" stroke="black" stroke-linecap="round" stroke-linejoin="round"/>
<defs>
<filter id="filter0_d_152_3469" x="-2" y="0" width="379" height="334" filterUnits="userSpaceOnUse" color-interpolation-filters="sRGB">
<feFlood flood-opacity="0" result="BackgroundImageFix"/>
<feColorMatrix in="SourceAlpha" type="matrix" values="0 0 0 0 0 0 0 0 0 0 0 0 0 0 0 0 0 0 127 0" result="hardAlpha"/>
<feOffset/>
<feGaussianBlur stdDeviation="7"/>
<feComposite in2="hardAlpha" operator="out"/>
<feColorMatrix type="matrix" values="0 0 0 0 0.27106 0 0 0 0 0.291722 0 0 0 0 0.320993 0 0 0 0.12 0"/>
<feBlend mode="normal" in2="BackgroundImageFix" result="effect1_dropShadow_152_3469"/>
<feBlend mode="normal" in="SourceGraphic" in2="effect1_dropShadow_152_3469" result="shape"/>
</filter>
</defs>
</svg>
