<svg width="363" height="309" viewBox="0 0 363 309" fill="none" xmlns="http://www.w3.org/2000/svg">
<rect width="351" height="309" rx="14" fill="#DCF8F3"/>
<path d="M50.416 32L54.544 20.8H56.4L60.496 32H58.704L57.744 29.264H53.168L52.208 32H50.416ZM53.648 27.92H57.264L55.456 22.816L53.648 27.92ZM61.6739 32V20.48H63.3699V32H61.6739ZM65.1976 32V20.48H66.8936V32H65.1976ZM77.4886 32.192C76.3793 32.192 75.4193 31.952 74.6086 31.472C73.8086 30.9813 73.19 30.304 72.7526 29.44C72.3153 28.5653 72.0966 27.5573 72.0966 26.416C72.0966 25.264 72.3153 24.256 72.7526 23.392C73.19 22.5173 73.8086 21.8347 74.6086 21.344C75.4193 20.8533 76.3793 20.608 77.4886 20.608C78.8006 20.608 79.8726 20.928 80.7046 21.568C81.5366 22.208 82.0646 23.104 82.2886 24.256H80.4006C80.2513 23.6053 79.9313 23.088 79.4406 22.704C78.95 22.32 78.294 22.128 77.4726 22.128C76.3526 22.128 75.4673 22.512 74.8166 23.28C74.166 24.0373 73.8406 25.0827 73.8406 26.416C73.8406 27.7387 74.166 28.7787 74.8166 29.536C75.4673 30.2933 76.3526 30.672 77.4726 30.672C78.294 30.672 78.95 30.4907 79.4406 30.128C79.9313 29.7653 80.2513 29.2693 80.4006 28.64H82.2886C82.0646 29.7493 81.5366 30.6187 80.7046 31.248C79.8726 31.8773 78.8006 32.192 77.4886 32.192ZM86.4569 32.192C85.7849 32.192 85.2302 32.08 84.7929 31.856C84.3555 31.632 84.0302 31.3387 83.8169 30.976C83.6035 30.6027 83.4969 30.1973 83.4969 29.76C83.4969 28.992 83.7955 28.384 84.3929 27.936C84.9902 27.488 85.8435 27.264 86.9529 27.264H89.0329V27.12C89.0329 26.5013 88.8622 26.0373 88.5209 25.728C88.1902 25.4187 87.7582 25.264 87.2249 25.264C86.7555 25.264 86.3449 25.3813 85.9929 25.616C85.6515 25.84 85.4435 26.176 85.3689 26.624H83.6729C83.7262 26.048 83.9182 25.5573 84.2489 25.152C84.5902 24.736 85.0169 24.4213 85.5289 24.208C86.0515 23.984 86.6222 23.872 87.2409 23.872C88.3502 23.872 89.2089 24.1653 89.8169 24.752C90.4249 25.328 90.7289 26.1173 90.7289 27.12V32H89.2569L89.1129 30.64C88.8889 31.0773 88.5635 31.4453 88.1369 31.744C87.7102 32.0427 87.1502 32.192 86.4569 32.192ZM86.7929 30.816C87.2515 30.816 87.6355 30.7093 87.9449 30.496C88.2649 30.272 88.5102 29.9787 88.6809 29.616C88.8622 29.2533 88.9742 28.8533 89.0169 28.416H87.1289C86.4569 28.416 85.9769 28.5333 85.6889 28.768C85.4115 29.0027 85.2729 29.296 85.2729 29.648C85.2729 30.0107 85.4062 30.2987 85.6729 30.512C85.9502 30.7147 86.3235 30.816 86.7929 30.816ZM92.3864 32V24.064H93.8904L94.0344 25.184C94.2904 24.7787 94.6264 24.4587 95.0424 24.224C95.469 23.9893 95.9597 23.872 96.5144 23.872C97.773 23.872 98.6477 24.368 99.1384 25.36C99.4264 24.9013 99.8104 24.5387 100.29 24.272C100.781 24.0053 101.309 23.872 101.874 23.872C102.866 23.872 103.645 24.1707 104.21 24.768C104.776 25.3653 105.058 26.256 105.058 27.44V32H103.362V27.616C103.362 26.08 102.776 25.312 101.602 25.312C101.005 25.312 100.514 25.536 100.13 25.984C99.757 26.432 99.5704 27.072 99.5704 27.904V32H97.8744V27.616C97.8744 26.08 97.2824 25.312 96.0984 25.312C95.5117 25.312 95.0264 25.536 94.6424 25.984C94.269 26.432 94.0824 27.072 94.0824 27.904V32H92.3864ZM106.723 35.52V24.064H108.243L108.419 25.296C108.675 24.9227 109.027 24.592 109.475 24.304C109.923 24.016 110.499 23.872 111.203 23.872C111.971 23.872 112.648 24.0533 113.235 24.416C113.821 24.7787 114.28 25.2747 114.611 25.904C114.952 26.5333 115.123 27.248 115.123 28.048C115.123 28.848 114.952 29.5627 114.611 30.192C114.28 30.8107 113.821 31.3013 113.235 31.664C112.648 32.016 111.965 32.192 111.187 32.192C110.568 32.192 110.019 32.0693 109.539 31.824C109.069 31.5787 108.696 31.232 108.419 30.784V35.52H106.723ZM110.899 30.72C111.624 30.72 112.221 30.4747 112.691 29.984C113.16 29.4827 113.395 28.832 113.395 28.032C113.395 27.5093 113.288 27.0453 113.075 26.64C112.861 26.2347 112.568 25.92 112.195 25.696C111.821 25.4613 111.389 25.344 110.899 25.344C110.173 25.344 109.576 25.5947 109.107 26.096C108.648 26.5973 108.419 27.2427 108.419 28.032C108.419 28.832 108.648 29.4827 109.107 29.984C109.576 30.4747 110.173 30.72 110.899 30.72ZM119.325 32.192C118.653 32.192 118.098 32.08 117.661 31.856C117.224 31.632 116.898 31.3387 116.685 30.976C116.472 30.6027 116.365 30.1973 116.365 29.76C116.365 28.992 116.664 28.384 117.261 27.936C117.858 27.488 118.712 27.264 119.821 27.264H121.901V27.12C121.901 26.5013 121.73 26.0373 121.389 25.728C121.058 25.4187 120.626 25.264 120.093 25.264C119.624 25.264 119.213 25.3813 118.861 25.616C118.52 25.84 118.312 26.176 118.237 26.624H116.541C116.594 26.048 116.786 25.5573 117.117 25.152C117.458 24.736 117.885 24.4213 118.397 24.208C118.92 23.984 119.49 23.872 120.109 23.872C121.218 23.872 122.077 24.1653 122.685 24.752C123.293 25.328 123.597 26.1173 123.597 27.12V32H122.125L121.981 30.64C121.757 31.0773 121.432 31.4453 121.005 31.744C120.578 32.0427 120.018 32.192 119.325 32.192ZM119.661 30.816C120.12 30.816 120.504 30.7093 120.813 30.496C121.133 30.272 121.378 29.9787 121.549 29.616C121.73 29.2533 121.842 28.8533 121.885 28.416H119.997C119.325 28.416 118.845 28.5333 118.557 28.768C118.28 29.0027 118.141 29.296 118.141 29.648C118.141 30.0107 118.274 30.2987 118.541 30.512C118.818 30.7147 119.192 30.816 119.661 30.816ZM126.215 22.56C125.895 22.56 125.628 22.464 125.415 22.272C125.212 22.0693 125.111 21.8187 125.111 21.52C125.111 21.2213 125.212 20.976 125.415 20.784C125.628 20.5813 125.895 20.48 126.215 20.48C126.535 20.48 126.796 20.5813 126.999 20.784C127.212 20.976 127.319 21.2213 127.319 21.52C127.319 21.8187 127.212 22.0693 126.999 22.272C126.796 22.464 126.535 22.56 126.215 22.56ZM125.367 32V24.064H127.063V32H125.367ZM132.229 29.568C131.813 29.568 131.429 29.52 131.077 29.424L130.389 30.096C130.507 30.1707 130.651 30.2347 130.821 30.288C130.992 30.3413 131.232 30.3893 131.541 30.432C131.851 30.4747 132.272 30.5173 132.805 30.56C133.861 30.656 134.624 30.912 135.093 31.328C135.563 31.7333 135.797 32.2773 135.797 32.96C135.797 33.4293 135.669 33.872 135.413 34.288C135.168 34.7147 134.779 35.056 134.245 35.312C133.723 35.5787 133.051 35.712 132.229 35.712C131.12 35.712 130.219 35.4987 129.525 35.072C128.843 34.656 128.501 34.0213 128.501 33.168C128.501 32.8373 128.587 32.5067 128.757 32.176C128.939 31.856 129.221 31.552 129.605 31.264C129.381 31.168 129.184 31.0667 129.013 30.96C128.853 30.8427 128.709 30.7253 128.581 30.608V30.224L129.957 28.816C129.339 28.2827 129.029 27.584 129.029 26.72C129.029 26.1973 129.152 25.7227 129.397 25.296C129.653 24.8587 130.021 24.512 130.501 24.256C130.981 24 131.557 23.872 132.229 23.872C132.677 23.872 133.093 23.936 133.477 24.064H136.437V25.184L135.029 25.264C135.285 25.7013 135.413 26.1867 135.413 26.72C135.413 27.2533 135.285 27.7333 135.029 28.16C134.784 28.5867 134.421 28.928 133.941 29.184C133.472 29.44 132.901 29.568 132.229 29.568ZM132.229 28.24C132.72 28.24 133.115 28.112 133.413 27.856C133.723 27.5893 133.877 27.216 133.877 26.736C133.877 26.2453 133.723 25.872 133.413 25.616C133.115 25.36 132.72 25.232 132.229 25.232C131.728 25.232 131.323 25.36 131.013 25.616C130.715 25.872 130.565 26.2453 130.565 26.736C130.565 27.216 130.715 27.5893 131.013 27.856C131.323 28.112 131.728 28.24 132.229 28.24ZM130.101 33.008C130.101 33.4667 130.304 33.808 130.709 34.032C131.115 34.2667 131.621 34.384 132.229 34.384C132.816 34.384 133.291 34.256 133.653 34C134.016 33.7547 134.197 33.424 134.197 33.008C134.197 32.6987 134.075 32.432 133.829 32.208C133.584 31.9947 133.12 31.8613 132.437 31.808C131.925 31.776 131.472 31.728 131.077 31.664C130.704 31.8667 130.448 32.0853 130.309 32.32C130.171 32.5547 130.101 32.784 130.101 33.008ZM137.63 32V24.064H139.134L139.262 25.456C139.507 24.9653 139.865 24.5813 140.334 24.304C140.814 24.016 141.363 23.872 141.982 23.872C142.942 23.872 143.694 24.1707 144.238 24.768C144.793 25.3653 145.07 26.256 145.07 27.44V32H143.39V27.616C143.39 26.08 142.761 25.312 141.502 25.312C140.873 25.312 140.35 25.536 139.934 25.984C139.529 26.432 139.326 27.072 139.326 27.904V32H137.63ZM149.916 32.192C148.913 32.192 148.086 31.9467 147.436 31.456C146.785 30.9653 146.412 30.3147 146.316 29.504H148.028C148.113 29.8667 148.316 30.1813 148.636 30.448C148.956 30.704 149.377 30.832 149.9 30.832C150.412 30.832 150.785 30.7253 151.02 30.512C151.254 30.2987 151.372 30.0533 151.372 29.776C151.372 29.3707 151.206 29.0987 150.876 28.96C150.556 28.8107 150.108 28.6773 149.532 28.56C149.084 28.464 148.636 28.336 148.188 28.176C147.75 28.016 147.382 27.792 147.084 27.504C146.796 27.2053 146.652 26.8053 146.652 26.304C146.652 25.6107 146.918 25.0347 147.452 24.576C147.985 24.1067 148.732 23.872 149.692 23.872C150.577 23.872 151.292 24.0853 151.836 24.512C152.39 24.9387 152.716 25.5413 152.812 26.32H151.18C151.126 25.9787 150.966 25.712 150.7 25.52C150.444 25.328 150.097 25.232 149.66 25.232C149.233 25.232 148.902 25.3227 148.668 25.504C148.433 25.6747 148.316 25.8987 148.316 26.176C148.316 26.4533 148.476 26.672 148.796 26.832C149.126 26.992 149.558 27.136 150.092 27.264C150.625 27.3813 151.116 27.52 151.564 27.68C152.022 27.8293 152.39 28.0533 152.668 28.352C152.945 28.6507 153.084 29.088 153.084 29.664C153.094 30.3893 152.812 30.992 152.236 31.472C151.67 31.952 150.897 32.192 149.916 32.192Z" fill="black"/>
<path d="M275.185 59V50.6H276.361L279.385 56.456L282.385 50.6H283.573V59H282.565V52.4L279.757 57.8H279.001L276.193 52.412V59H275.185ZM287.961 59.144C287.393 59.144 286.889 59.016 286.449 58.76C286.009 58.496 285.661 58.132 285.405 57.668C285.157 57.204 285.033 56.656 285.033 56.024C285.033 55.4 285.157 54.856 285.405 54.392C285.653 53.92 285.997 53.556 286.437 53.3C286.885 53.036 287.401 52.904 287.985 52.904C288.561 52.904 289.057 53.036 289.473 53.3C289.897 53.556 290.221 53.896 290.445 54.32C290.669 54.744 290.781 55.2 290.781 55.688C290.781 55.776 290.777 55.864 290.769 55.952C290.769 56.04 290.769 56.14 290.769 56.252H286.029C286.053 56.708 286.157 57.088 286.341 57.392C286.533 57.688 286.769 57.912 287.049 58.064C287.337 58.216 287.641 58.292 287.961 58.292C288.377 58.292 288.725 58.196 289.005 58.004C289.285 57.812 289.489 57.552 289.617 57.224H290.613C290.453 57.776 290.145 58.236 289.689 58.604C289.241 58.964 288.665 59.144 287.961 59.144ZM287.961 53.756C287.481 53.756 287.053 53.904 286.677 54.2C286.309 54.488 286.097 54.912 286.041 55.472H289.785C289.761 54.936 289.577 54.516 289.233 54.212C288.889 53.908 288.465 53.756 287.961 53.756ZM294.397 59.144C293.685 59.144 293.093 58.964 292.621 58.604C292.149 58.244 291.873 57.756 291.793 57.14H292.825C292.889 57.452 293.053 57.724 293.317 57.956C293.589 58.18 293.953 58.292 294.409 58.292C294.833 58.292 295.145 58.204 295.345 58.028C295.545 57.844 295.645 57.628 295.645 57.38C295.645 57.02 295.513 56.78 295.249 56.66C294.993 56.54 294.629 56.432 294.157 56.336C293.837 56.272 293.517 56.18 293.197 56.06C292.877 55.94 292.609 55.772 292.393 55.556C292.177 55.332 292.069 55.04 292.069 54.68C292.069 54.16 292.261 53.736 292.645 53.408C293.037 53.072 293.565 52.904 294.229 52.904C294.861 52.904 295.377 53.064 295.777 53.384C296.185 53.696 296.421 54.144 296.485 54.728H295.489C295.449 54.424 295.317 54.188 295.093 54.02C294.877 53.844 294.585 53.756 294.217 53.756C293.857 53.756 293.577 53.832 293.377 53.984C293.185 54.136 293.089 54.336 293.089 54.584C293.089 54.824 293.213 55.012 293.461 55.148C293.717 55.284 294.061 55.4 294.493 55.496C294.861 55.576 295.209 55.676 295.537 55.796C295.873 55.908 296.145 56.08 296.353 56.312C296.569 56.536 296.677 56.864 296.677 57.296C296.685 57.832 296.481 58.276 296.065 58.628C295.657 58.972 295.101 59.144 294.397 59.144ZM300.397 59.144C299.685 59.144 299.093 58.964 298.621 58.604C298.149 58.244 297.873 57.756 297.793 57.14H298.825C298.889 57.452 299.053 57.724 299.317 57.956C299.589 58.18 299.953 58.292 300.409 58.292C300.833 58.292 301.145 58.204 301.345 58.028C301.545 57.844 301.645 57.628 301.645 57.38C301.645 57.02 301.513 56.78 301.249 56.66C300.993 56.54 300.629 56.432 300.157 56.336C299.837 56.272 299.517 56.18 299.197 56.06C298.877 55.94 298.609 55.772 298.393 55.556C298.177 55.332 298.069 55.04 298.069 54.68C298.069 54.16 298.261 53.736 298.645 53.408C299.037 53.072 299.565 52.904 300.229 52.904C300.861 52.904 301.377 53.064 301.777 53.384C302.185 53.696 302.421 54.144 302.485 54.728H301.489C301.449 54.424 301.317 54.188 301.093 54.02C300.877 53.844 300.585 53.756 300.217 53.756C299.857 53.756 299.577 53.832 299.377 53.984C299.185 54.136 299.089 54.336 299.089 54.584C299.089 54.824 299.213 55.012 299.461 55.148C299.717 55.284 300.061 55.4 300.493 55.496C300.861 55.576 301.209 55.676 301.537 55.796C301.873 55.908 302.145 56.08 302.353 56.312C302.569 56.536 302.677 56.864 302.677 57.296C302.685 57.832 302.481 58.276 302.065 58.628C301.657 58.972 301.101 59.144 300.397 59.144ZM306.097 59.144C305.601 59.144 305.189 59.06 304.861 58.892C304.533 58.724 304.289 58.5 304.129 58.22C303.969 57.94 303.889 57.636 303.889 57.308C303.889 56.7 304.121 56.232 304.585 55.904C305.049 55.576 305.681 55.412 306.481 55.412H308.089V55.34C308.089 54.82 307.953 54.428 307.681 54.164C307.409 53.892 307.045 53.756 306.589 53.756C306.197 53.756 305.857 53.856 305.569 54.056C305.289 54.248 305.113 54.532 305.041 54.908H304.009C304.049 54.476 304.193 54.112 304.441 53.816C304.697 53.52 305.013 53.296 305.389 53.144C305.765 52.984 306.165 52.904 306.589 52.904C307.421 52.904 308.045 53.128 308.461 53.576C308.885 54.016 309.097 54.604 309.097 55.34V59H308.197L308.137 57.932C307.969 58.268 307.721 58.556 307.393 58.796C307.073 59.028 306.641 59.144 306.097 59.144ZM306.253 58.292C306.637 58.292 306.965 58.192 307.237 57.992C307.517 57.792 307.729 57.532 307.873 57.212C308.017 56.892 308.089 56.556 308.089 56.204V56.192H306.565C305.973 56.192 305.553 56.296 305.305 56.504C305.065 56.704 304.945 56.956 304.945 57.26C304.945 57.572 305.057 57.824 305.281 58.016C305.513 58.2 305.837 58.292 306.253 58.292ZM312.961 57.128C312.625 57.128 312.317 57.084 312.037 56.996L311.437 57.56C311.525 57.624 311.633 57.68 311.761 57.728C311.897 57.768 312.089 57.808 312.337 57.848C312.585 57.88 312.933 57.916 313.381 57.956C314.181 58.012 314.753 58.196 315.097 58.508C315.441 58.82 315.613 59.228 315.613 59.732C315.613 60.076 315.517 60.404 315.325 60.716C315.141 61.028 314.853 61.284 314.461 61.484C314.077 61.684 313.581 61.784 312.973 61.784C312.437 61.784 311.961 61.712 311.545 61.568C311.129 61.432 310.805 61.22 310.573 60.932C310.341 60.652 310.225 60.296 310.225 59.864C310.225 59.64 310.285 59.396 310.405 59.132C310.525 58.876 310.749 58.632 311.077 58.4C310.901 58.328 310.749 58.252 310.621 58.172C310.501 58.084 310.389 57.988 310.285 57.884V57.608L311.305 56.6C310.833 56.2 310.597 55.672 310.597 55.016C310.597 54.624 310.689 54.268 310.873 53.948C311.057 53.628 311.325 53.376 311.677 53.192C312.029 53 312.457 52.904 312.961 52.904C313.305 52.904 313.617 52.952 313.897 53.048H316.093V53.804L314.977 53.852C315.209 54.188 315.325 54.576 315.325 55.016C315.325 55.408 315.229 55.764 315.037 56.084C314.853 56.404 314.585 56.66 314.233 56.852C313.889 57.036 313.465 57.128 312.961 57.128ZM312.961 56.3C313.385 56.3 313.721 56.192 313.969 55.976C314.225 55.752 314.353 55.432 314.353 55.016C314.353 54.608 314.225 54.296 313.969 54.08C313.721 53.856 313.385 53.744 312.961 53.744C312.529 53.744 312.185 53.856 311.929 54.08C311.681 54.296 311.557 54.608 311.557 55.016C311.557 55.432 311.681 55.752 311.929 55.976C312.185 56.192 312.529 56.3 312.961 56.3ZM311.209 59.768C311.209 60.168 311.377 60.464 311.713 60.656C312.049 60.856 312.469 60.956 312.973 60.956C313.469 60.956 313.865 60.848 314.161 60.632C314.465 60.416 314.617 60.128 314.617 59.768C314.617 59.512 314.513 59.288 314.305 59.096C314.097 58.912 313.713 58.804 313.153 58.772C312.713 58.74 312.333 58.7 312.013 58.652C311.685 58.828 311.469 59.016 311.365 59.216C311.261 59.424 311.209 59.608 311.209 59.768ZM319.672 59.144C319.104 59.144 318.6 59.016 318.16 58.76C317.72 58.496 317.372 58.132 317.116 57.668C316.868 57.204 316.744 56.656 316.744 56.024C316.744 55.4 316.868 54.856 317.116 54.392C317.364 53.92 317.708 53.556 318.148 53.3C318.596 53.036 319.112 52.904 319.696 52.904C320.272 52.904 320.768 53.036 321.184 53.3C321.608 53.556 321.932 53.896 322.156 54.32C322.38 54.744 322.492 55.2 322.492 55.688C322.492 55.776 322.488 55.864 322.48 55.952C322.48 56.04 322.48 56.14 322.48 56.252H317.74C317.764 56.708 317.868 57.088 318.052 57.392C318.244 57.688 318.48 57.912 318.76 58.064C319.048 58.216 319.352 58.292 319.672 58.292C320.088 58.292 320.436 58.196 320.716 58.004C320.996 57.812 321.2 57.552 321.328 57.224H322.324C322.164 57.776 321.856 58.236 321.4 58.604C320.952 58.964 320.376 59.144 319.672 59.144ZM319.672 53.756C319.192 53.756 318.764 53.904 318.388 54.2C318.02 54.488 317.808 54.912 317.752 55.472H321.496C321.472 54.936 321.288 54.516 320.944 54.212C320.6 53.908 320.176 53.756 319.672 53.756ZM326.108 59.144C325.396 59.144 324.804 58.964 324.332 58.604C323.86 58.244 323.584 57.756 323.504 57.14H324.536C324.6 57.452 324.764 57.724 325.028 57.956C325.3 58.18 325.664 58.292 326.12 58.292C326.544 58.292 326.856 58.204 327.056 58.028C327.256 57.844 327.356 57.628 327.356 57.38C327.356 57.02 327.224 56.78 326.96 56.66C326.704 56.54 326.34 56.432 325.868 56.336C325.548 56.272 325.228 56.18 324.908 56.06C324.588 55.94 324.32 55.772 324.104 55.556C323.888 55.332 323.78 55.04 323.78 54.68C323.78 54.16 323.972 53.736 324.356 53.408C324.748 53.072 325.276 52.904 325.94 52.904C326.572 52.904 327.088 53.064 327.488 53.384C327.896 53.696 328.132 54.144 328.196 54.728H327.2C327.16 54.424 327.028 54.188 326.804 54.02C326.588 53.844 326.296 53.756 325.928 53.756C325.568 53.756 325.288 53.832 325.088 53.984C324.896 54.136 324.8 54.336 324.8 54.584C324.8 54.824 324.924 55.012 325.172 55.148C325.428 55.284 325.772 55.4 326.204 55.496C326.572 55.576 326.92 55.676 327.248 55.796C327.584 55.908 327.856 56.08 328.064 56.312C328.28 56.536 328.388 56.864 328.388 57.296C328.396 57.832 328.192 58.276 327.776 58.628C327.368 58.972 326.812 59.144 326.108 59.144ZM307.768 75.144C307.056 75.144 306.464 74.964 305.992 74.604C305.52 74.244 305.244 73.756 305.164 73.14H306.196C306.26 73.452 306.424 73.724 306.688 73.956C306.96 74.18 307.324 74.292 307.78 74.292C308.204 74.292 308.516 74.204 308.716 74.028C308.916 73.844 309.016 73.628 309.016 73.38C309.016 73.02 308.884 72.78 308.62 72.66C308.364 72.54 308 72.432 307.528 72.336C307.208 72.272 306.888 72.18 306.568 72.06C306.248 71.94 305.98 71.772 305.764 71.556C305.548 71.332 305.44 71.04 305.44 70.68C305.44 70.16 305.632 69.736 306.016 69.408C306.408 69.072 306.936 68.904 307.6 68.904C308.232 68.904 308.748 69.064 309.148 69.384C309.556 69.696 309.792 70.144 309.856 70.728H308.86C308.82 70.424 308.688 70.188 308.464 70.02C308.248 69.844 307.956 69.756 307.588 69.756C307.228 69.756 306.948 69.832 306.748 69.984C306.556 70.136 306.46 70.336 306.46 70.584C306.46 70.824 306.584 71.012 306.832 71.148C307.088 71.284 307.432 71.4 307.864 71.496C308.232 71.576 308.58 71.676 308.908 71.796C309.244 71.908 309.516 72.08 309.724 72.312C309.94 72.536 310.048 72.864 310.048 73.296C310.056 73.832 309.852 74.276 309.436 74.628C309.028 74.972 308.472 75.144 307.768 75.144ZM314.164 75.144C313.596 75.144 313.092 75.016 312.652 74.76C312.212 74.496 311.864 74.132 311.608 73.668C311.36 73.204 311.236 72.656 311.236 72.024C311.236 71.4 311.36 70.856 311.608 70.392C311.856 69.92 312.2 69.556 312.64 69.3C313.088 69.036 313.604 68.904 314.188 68.904C314.764 68.904 315.26 69.036 315.676 69.3C316.1 69.556 316.424 69.896 316.648 70.32C316.872 70.744 316.984 71.2 316.984 71.688C316.984 71.776 316.98 71.864 316.972 71.952C316.972 72.04 316.972 72.14 316.972 72.252H312.232C312.256 72.708 312.36 73.088 312.544 73.392C312.736 73.688 312.972 73.912 313.252 74.064C313.54 74.216 313.844 74.292 314.164 74.292C314.58 74.292 314.928 74.196 315.208 74.004C315.488 73.812 315.692 73.552 315.82 73.224H316.816C316.656 73.776 316.348 74.236 315.892 74.604C315.444 74.964 314.868 75.144 314.164 75.144ZM314.164 69.756C313.684 69.756 313.256 69.904 312.88 70.2C312.512 70.488 312.3 70.912 312.244 71.472H315.988C315.964 70.936 315.78 70.516 315.436 70.212C315.092 69.908 314.668 69.756 314.164 69.756ZM318.32 75V69.048H319.232L319.292 70.116C319.484 69.74 319.76 69.444 320.12 69.228C320.48 69.012 320.888 68.904 321.344 68.904C322.048 68.904 322.608 69.12 323.024 69.552C323.448 69.976 323.66 70.632 323.66 71.52V75H322.652V71.628C322.652 70.388 322.14 69.768 321.116 69.768C320.604 69.768 320.176 69.956 319.832 70.332C319.496 70.7 319.328 71.228 319.328 71.916V75H318.32ZM327.539 75C326.995 75 326.567 74.868 326.255 74.604C325.943 74.34 325.787 73.864 325.787 73.176V69.9H324.755V69.048H325.787L325.919 67.62H326.795V69.048H328.547V69.9H326.795V73.176C326.795 73.552 326.871 73.808 327.023 73.944C327.175 74.072 327.443 74.136 327.827 74.136H328.451V75H327.539Z" fill="#727578"/>
<path d="M271.013 163V154.6H272.021L276.497 161.332V154.6H277.505V163H276.497L272.021 156.268V163H271.013ZM281.398 163.144C280.694 163.144 280.134 162.932 279.718 162.508C279.302 162.076 279.094 161.416 279.094 160.528V157.048H280.102V160.42C280.102 161.66 280.61 162.28 281.626 162.28C282.146 162.28 282.574 162.096 282.91 161.728C283.254 161.352 283.426 160.82 283.426 160.132V157.048H284.434V163H283.522L283.45 161.932C283.266 162.308 282.99 162.604 282.622 162.82C282.262 163.036 281.854 163.144 281.398 163.144ZM286.094 163V157.048H287.006L287.078 157.912C287.27 157.592 287.526 157.344 287.846 157.168C288.166 156.992 288.526 156.904 288.926 156.904C289.398 156.904 289.802 157 290.138 157.192C290.482 157.384 290.746 157.676 290.93 158.068C291.138 157.708 291.422 157.424 291.782 157.216C292.15 157.008 292.546 156.904 292.97 156.904C293.682 156.904 294.25 157.12 294.674 157.552C295.098 157.976 295.31 158.632 295.31 159.52V163H294.314V159.628C294.314 159.012 294.19 158.548 293.942 158.236C293.694 157.924 293.338 157.768 292.874 157.768C292.394 157.768 291.994 157.956 291.674 158.332C291.362 158.7 291.206 159.228 291.206 159.916V163H290.198V159.628C290.198 159.012 290.074 158.548 289.826 158.236C289.578 157.924 289.222 157.768 288.758 157.768C288.286 157.768 287.89 157.956 287.57 158.332C287.258 158.7 287.102 159.228 287.102 159.916V163H286.094ZM300.008 163.144C299.52 163.144 299.084 163.044 298.7 162.844C298.324 162.644 298.036 162.364 297.836 162.004L297.74 163H296.828V154.36H297.836V158.032C298.028 157.744 298.3 157.484 298.652 157.252C299.012 157.02 299.468 156.904 300.02 156.904C300.612 156.904 301.128 157.04 301.568 157.312C302.008 157.584 302.348 157.956 302.588 158.428C302.836 158.9 302.96 159.436 302.96 160.036C302.96 160.636 302.836 161.172 302.588 161.644C302.348 162.108 302.004 162.476 301.556 162.748C301.116 163.012 300.6 163.144 300.008 163.144ZM299.9 162.268C300.3 162.268 300.652 162.176 300.956 161.992C301.26 161.8 301.5 161.536 301.676 161.2C301.852 160.864 301.94 160.472 301.94 160.024C301.94 159.576 301.852 159.184 301.676 158.848C301.5 158.512 301.26 158.252 300.956 158.068C300.652 157.876 300.3 157.78 299.9 157.78C299.5 157.78 299.148 157.876 298.844 158.068C298.54 158.252 298.3 158.512 298.124 158.848C297.948 159.184 297.86 159.576 297.86 160.024C297.86 160.472 297.948 160.864 298.124 161.2C298.3 161.536 298.54 161.8 298.844 161.992C299.148 162.176 299.5 162.268 299.9 162.268ZM307.039 163.144C306.471 163.144 305.967 163.016 305.527 162.76C305.087 162.496 304.739 162.132 304.483 161.668C304.235 161.204 304.111 160.656 304.111 160.024C304.111 159.4 304.235 158.856 304.483 158.392C304.731 157.92 305.075 157.556 305.515 157.3C305.963 157.036 306.479 156.904 307.063 156.904C307.639 156.904 308.135 157.036 308.551 157.3C308.975 157.556 309.299 157.896 309.523 158.32C309.747 158.744 309.859 159.2 309.859 159.688C309.859 159.776 309.855 159.864 309.847 159.952C309.847 160.04 309.847 160.14 309.847 160.252H305.107C305.131 160.708 305.235 161.088 305.419 161.392C305.611 161.688 305.847 161.912 306.127 162.064C306.415 162.216 306.719 162.292 307.039 162.292C307.455 162.292 307.803 162.196 308.083 162.004C308.363 161.812 308.567 161.552 308.695 161.224H309.691C309.531 161.776 309.223 162.236 308.767 162.604C308.319 162.964 307.743 163.144 307.039 163.144ZM307.039 157.756C306.559 157.756 306.131 157.904 305.755 158.2C305.387 158.488 305.175 158.912 305.119 159.472H308.863C308.839 158.936 308.655 158.516 308.311 158.212C307.967 157.908 307.543 157.756 307.039 157.756ZM311.195 163V157.048H312.107L312.191 158.188C312.375 157.796 312.655 157.484 313.031 157.252C313.407 157.02 313.871 156.904 314.423 156.904V157.96H314.147C313.795 157.96 313.471 158.024 313.175 158.152C312.879 158.272 312.643 158.48 312.467 158.776C312.291 159.072 312.203 159.48 312.203 160V163H311.195ZM321.442 163.144C320.882 163.144 320.378 163.016 319.93 162.76C319.482 162.504 319.126 162.144 318.862 161.68C318.606 161.208 318.478 160.656 318.478 160.024C318.478 159.392 318.61 158.844 318.874 158.38C319.138 157.908 319.494 157.544 319.942 157.288C320.398 157.032 320.906 156.904 321.466 156.904C322.026 156.904 322.53 157.032 322.978 157.288C323.426 157.544 323.778 157.908 324.034 158.38C324.298 158.844 324.43 159.392 324.43 160.024C324.43 160.656 324.298 161.208 324.034 161.68C323.77 162.144 323.41 162.504 322.954 162.76C322.506 163.016 322.002 163.144 321.442 163.144ZM321.442 162.28C321.786 162.28 322.106 162.196 322.402 162.028C322.698 161.86 322.938 161.608 323.122 161.272C323.306 160.936 323.398 160.52 323.398 160.024C323.398 159.528 323.306 159.112 323.122 158.776C322.946 158.44 322.71 158.188 322.414 158.02C322.118 157.852 321.802 157.768 321.466 157.768C321.122 157.768 320.802 157.852 320.506 158.02C320.21 158.188 319.97 158.44 319.786 158.776C319.602 159.112 319.51 159.528 319.51 160.024C319.51 160.52 319.602 160.936 319.786 161.272C319.97 161.608 320.206 161.86 320.494 162.028C320.79 162.196 321.106 162.28 321.442 162.28ZM326.156 163V157.9H325.256V157.048H326.156V156.016C326.156 155.44 326.3 155.02 326.588 154.756C326.876 154.492 327.296 154.36 327.848 154.36H328.448V155.224H328.004C327.7 155.224 327.484 155.288 327.356 155.416C327.228 155.536 327.164 155.744 327.164 156.04V157.048H328.628V157.9H327.164V163H326.156ZM283.298 179.144C282.73 179.144 282.218 179.016 281.762 178.76C281.314 178.496 280.958 178.132 280.694 177.668C280.438 177.196 280.31 176.648 280.31 176.024C280.31 175.4 280.438 174.856 280.694 174.392C280.958 173.92 281.314 173.556 281.762 173.3C282.218 173.036 282.73 172.904 283.298 172.904C284.002 172.904 284.594 173.088 285.074 173.456C285.562 173.824 285.87 174.316 285.998 174.932H284.966C284.886 174.564 284.69 174.28 284.378 174.08C284.066 173.872 283.702 173.768 283.286 173.768C282.95 173.768 282.634 173.852 282.338 174.02C282.042 174.188 281.802 174.44 281.618 174.776C281.434 175.112 281.342 175.528 281.342 176.024C281.342 176.52 281.434 176.936 281.618 177.272C281.802 177.608 282.042 177.864 282.338 178.04C282.634 178.208 282.95 178.292 283.286 178.292C283.702 178.292 284.066 178.192 284.378 177.992C284.69 177.784 284.886 177.492 284.966 177.116H285.998C285.878 177.716 285.574 178.204 285.086 178.58C284.598 178.956 284.002 179.144 283.298 179.144ZM290.118 179.144C289.558 179.144 289.054 179.016 288.606 178.76C288.158 178.504 287.802 178.144 287.538 177.68C287.282 177.208 287.154 176.656 287.154 176.024C287.154 175.392 287.286 174.844 287.55 174.38C287.814 173.908 288.17 173.544 288.618 173.288C289.074 173.032 289.582 172.904 290.142 172.904C290.702 172.904 291.206 173.032 291.654 173.288C292.102 173.544 292.454 173.908 292.71 174.38C292.974 174.844 293.106 175.392 293.106 176.024C293.106 176.656 292.974 177.208 292.71 177.68C292.446 178.144 292.086 178.504 291.63 178.76C291.182 179.016 290.678 179.144 290.118 179.144ZM290.118 178.28C290.462 178.28 290.782 178.196 291.078 178.028C291.374 177.86 291.614 177.608 291.798 177.272C291.982 176.936 292.074 176.52 292.074 176.024C292.074 175.528 291.982 175.112 291.798 174.776C291.622 174.44 291.386 174.188 291.09 174.02C290.794 173.852 290.478 173.768 290.142 173.768C289.798 173.768 289.478 173.852 289.182 174.02C288.886 174.188 288.646 174.44 288.462 174.776C288.278 175.112 288.186 175.528 288.186 176.024C288.186 176.52 288.278 176.936 288.462 177.272C288.646 177.608 288.882 177.86 289.17 178.028C289.466 178.196 289.782 178.28 290.118 178.28ZM294.508 179V173.048H295.42L295.48 174.116C295.672 173.74 295.948 173.444 296.308 173.228C296.668 173.012 297.076 172.904 297.532 172.904C298.236 172.904 298.796 173.12 299.212 173.552C299.636 173.976 299.848 174.632 299.848 175.52V179H298.84V175.628C298.84 174.388 298.328 173.768 297.304 173.768C296.792 173.768 296.364 173.956 296.02 174.332C295.684 174.7 295.516 175.228 295.516 175.916V179H294.508ZM303.727 179C303.183 179 302.755 178.868 302.443 178.604C302.131 178.34 301.975 177.864 301.975 177.176V173.9H300.943V173.048H301.975L302.107 171.62H302.983V173.048H304.735V173.9H302.983V177.176C302.983 177.552 303.059 177.808 303.211 177.944C303.363 178.072 303.631 178.136 304.015 178.136H304.639V179H303.727ZM307.996 179.144C307.5 179.144 307.088 179.06 306.76 178.892C306.432 178.724 306.188 178.5 306.028 178.22C305.868 177.94 305.788 177.636 305.788 177.308C305.788 176.7 306.02 176.232 306.484 175.904C306.948 175.576 307.58 175.412 308.38 175.412H309.988V175.34C309.988 174.82 309.852 174.428 309.58 174.164C309.308 173.892 308.944 173.756 308.488 173.756C308.096 173.756 307.756 173.856 307.468 174.056C307.188 174.248 307.012 174.532 306.94 174.908H305.908C305.948 174.476 306.092 174.112 306.34 173.816C306.596 173.52 306.912 173.296 307.288 173.144C307.664 172.984 308.064 172.904 308.488 172.904C309.32 172.904 309.944 173.128 310.36 173.576C310.784 174.016 310.996 174.604 310.996 175.34V179H310.096L310.036 177.932C309.868 178.268 309.62 178.556 309.292 178.796C308.972 179.028 308.54 179.144 307.996 179.144ZM308.152 178.292C308.536 178.292 308.864 178.192 309.136 177.992C309.416 177.792 309.628 177.532 309.772 177.212C309.916 176.892 309.988 176.556 309.988 176.204V176.192H308.464C307.872 176.192 307.452 176.296 307.204 176.504C306.964 176.704 306.844 176.956 306.844 177.26C306.844 177.572 306.956 177.824 307.18 178.016C307.412 178.2 307.736 178.292 308.152 178.292ZM315.244 179.144C314.676 179.144 314.164 179.016 313.708 178.76C313.26 178.496 312.904 178.132 312.64 177.668C312.384 177.196 312.256 176.648 312.256 176.024C312.256 175.4 312.384 174.856 312.64 174.392C312.904 173.92 313.26 173.556 313.708 173.3C314.164 173.036 314.676 172.904 315.244 172.904C315.948 172.904 316.54 173.088 317.02 173.456C317.508 173.824 317.816 174.316 317.944 174.932H316.912C316.832 174.564 316.636 174.28 316.324 174.08C316.012 173.872 315.648 173.768 315.232 173.768C314.896 173.768 314.58 173.852 314.284 174.02C313.988 174.188 313.748 174.44 313.564 174.776C313.38 175.112 313.288 175.528 313.288 176.024C313.288 176.52 313.38 176.936 313.564 177.272C313.748 177.608 313.988 177.864 314.284 178.04C314.58 178.208 314.896 178.292 315.232 178.292C315.648 178.292 316.012 178.192 316.324 177.992C316.636 177.784 316.832 177.492 316.912 177.116H317.944C317.824 177.716 317.52 178.204 317.032 178.58C316.544 178.956 315.948 179.144 315.244 179.144ZM321.539 179C320.995 179 320.567 178.868 320.255 178.604C319.943 178.34 319.787 177.864 319.787 177.176V173.9H318.755V173.048H319.787L319.919 171.62H320.795V173.048H322.547V173.9H320.795V177.176C320.795 177.552 320.871 177.808 321.023 177.944C321.175 178.072 321.443 178.136 321.827 178.136H322.451V179H321.539ZM326.108 179.144C325.396 179.144 324.804 178.964 324.332 178.604C323.86 178.244 323.584 177.756 323.504 177.14H324.536C324.6 177.452 324.764 177.724 325.028 177.956C325.3 178.18 325.664 178.292 326.12 178.292C326.544 178.292 326.856 178.204 327.056 178.028C327.256 177.844 327.356 177.628 327.356 177.38C327.356 177.02 327.224 176.78 326.96 176.66C326.704 176.54 326.34 176.432 325.868 176.336C325.548 176.272 325.228 176.18 324.908 176.06C324.588 175.94 324.32 175.772 324.104 175.556C323.888 175.332 323.78 175.04 323.78 174.68C323.78 174.16 323.972 173.736 324.356 173.408C324.748 173.072 325.276 172.904 325.94 172.904C326.572 172.904 327.088 173.064 327.488 173.384C327.896 173.696 328.132 174.144 328.196 174.728H327.2C327.16 174.424 327.028 174.188 326.804 174.02C326.588 173.844 326.296 173.756 325.928 173.756C325.568 173.756 325.288 173.832 325.088 173.984C324.896 174.136 324.8 174.336 324.8 174.584C324.8 174.824 324.924 175.012 325.172 175.148C325.428 175.284 325.772 175.4 326.204 175.496C326.572 175.576 326.92 175.676 327.248 175.796C327.584 175.908 327.856 176.08 328.064 176.312C328.28 176.536 328.388 176.864 328.388 177.296C328.396 177.832 328.192 178.276 327.776 178.628C327.368 178.972 326.812 179.144 326.108 179.144Z" fill="#727578"/>
<path d="M260.693 115V98.38L257.243 99.19V96.25L262.313 94H264.683V115H260.693ZM267.135 118.48L268.845 111.01H272.565L269.655 118.48H267.135ZM283.228 115.36C281.688 115.36 280.358 115.09 279.238 114.55C278.138 114.01 277.268 113.27 276.628 112.33C276.008 111.37 275.648 110.29 275.548 109.09H279.298C279.478 109.95 279.918 110.67 280.618 111.25C281.318 111.81 282.188 112.09 283.228 112.09C284.348 112.09 285.258 111.68 285.958 110.86C286.678 110.04 287.038 109.02 287.038 107.8C287.038 106.54 286.678 105.54 285.958 104.8C285.258 104.06 284.368 103.69 283.288 103.69C282.388 103.69 281.608 103.91 280.948 104.35C280.288 104.79 279.818 105.34 279.538 106H275.848L277.648 94H289.288V97.36H280.528L279.568 102.22C280.008 101.74 280.608 101.35 281.368 101.05C282.128 100.73 282.978 100.57 283.918 100.57C285.418 100.57 286.668 100.91 287.668 101.59C288.668 102.25 289.428 103.13 289.948 104.23C290.468 105.31 290.728 106.49 290.728 107.77C290.728 109.23 290.408 110.53 289.768 111.67C289.148 112.81 288.268 113.71 287.128 114.37C286.008 115.03 284.708 115.36 283.228 115.36ZM301.172 115.36C299.792 115.36 298.542 115.12 297.422 114.64C296.302 114.14 295.402 113.38 294.722 112.36C294.042 111.34 293.682 110.06 293.642 108.52H297.422C297.442 109.54 297.772 110.4 298.412 111.1C299.072 111.78 299.992 112.12 301.172 112.12C302.292 112.12 303.152 111.81 303.752 111.19C304.352 110.57 304.652 109.79 304.652 108.85C304.652 107.75 304.252 106.92 303.452 106.36C302.672 105.78 301.662 105.49 300.422 105.49H298.862V102.34H300.452C301.472 102.34 302.322 102.1 303.002 101.62C303.682 101.14 304.022 100.43 304.022 99.49C304.022 98.71 303.762 98.09 303.242 97.63C302.742 97.15 302.042 96.91 301.142 96.91C300.162 96.91 299.392 97.2 298.832 97.78C298.292 98.36 297.992 99.07 297.932 99.91H294.182C294.262 97.97 294.932 96.44 296.192 95.32C297.472 94.2 299.122 93.64 301.142 93.64C302.582 93.64 303.792 93.9 304.772 94.42C305.772 94.92 306.522 95.59 307.022 96.43C307.542 97.27 307.802 98.2 307.802 99.22C307.802 100.4 307.472 101.4 306.812 102.22C306.172 103.02 305.372 103.56 304.412 103.84C305.592 104.08 306.552 104.66 307.292 105.58C308.032 106.48 308.402 107.62 308.402 109C308.402 110.16 308.122 111.22 307.562 112.18C307.002 113.14 306.182 113.91 305.102 114.49C304.042 115.07 302.732 115.36 301.172 115.36ZM319.583 115.36C318.143 115.36 316.843 115.11 315.683 114.61C314.523 114.09 313.593 113.36 312.893 112.42C312.213 111.48 311.873 110.39 311.873 109.15C311.873 107.87 312.203 106.75 312.863 105.79C313.543 104.83 314.433 104.14 315.533 103.72C314.573 103.3 313.813 102.7 313.253 101.92C312.693 101.12 312.413 100.23 312.413 99.25C312.413 98.25 312.683 97.33 313.223 96.49C313.763 95.63 314.563 94.94 315.623 94.42C316.703 93.9 318.023 93.64 319.583 93.64C321.143 93.64 322.453 93.9 323.513 94.42C324.573 94.94 325.373 95.63 325.913 96.49C326.453 97.33 326.723 98.25 326.723 99.25C326.723 100.21 326.433 101.1 325.853 101.92C325.293 102.72 324.543 103.32 323.603 103.72C324.723 104.14 325.613 104.83 326.273 105.79C326.933 106.75 327.263 107.87 327.263 109.15C327.263 110.39 326.923 111.48 326.243 112.42C325.563 113.36 324.633 114.09 323.453 114.61C322.293 115.11 321.003 115.36 319.583 115.36ZM319.583 102.58C320.623 102.58 321.443 102.31 322.043 101.77C322.643 101.23 322.943 100.54 322.943 99.7C322.943 98.78 322.643 98.06 322.043 97.54C321.463 97.02 320.643 96.76 319.583 96.76C318.503 96.76 317.673 97.02 317.093 97.54C316.513 98.06 316.223 98.78 316.223 99.7C316.223 100.56 316.513 101.26 317.093 101.8C317.693 102.32 318.523 102.58 319.583 102.58ZM319.583 112.15C320.863 112.15 321.833 111.84 322.493 111.22C323.153 110.58 323.483 109.78 323.483 108.82C323.483 107.76 323.133 106.93 322.433 106.33C321.753 105.73 320.803 105.43 319.583 105.43C318.363 105.43 317.393 105.73 316.673 106.33C315.973 106.93 315.623 107.76 315.623 108.82C315.623 109.78 315.953 110.58 316.613 111.22C317.293 111.84 318.283 112.15 319.583 112.15Z" fill="black"/>
<path d="M278.037 221.408C276.473 221.408 275.057 221.136 273.787 220.592C272.518 220.025 271.498 219.164 270.727 218.008C269.957 216.852 269.549 215.401 269.503 213.656H273.787C273.81 214.812 274.184 215.787 274.909 216.58C275.657 217.351 276.7 217.736 278.037 217.736C279.307 217.736 280.281 217.385 280.961 216.682C281.641 215.979 281.981 215.095 281.981 214.03C281.981 212.783 281.528 211.843 280.621 211.208C279.737 210.551 278.593 210.222 277.187 210.222H275.419V206.652H277.221C278.377 206.652 279.341 206.38 280.111 205.836C280.882 205.292 281.267 204.487 281.267 203.422C281.267 202.538 280.973 201.835 280.383 201.314C279.817 200.77 279.023 200.498 278.003 200.498C276.893 200.498 276.02 200.827 275.385 201.484C274.773 202.141 274.433 202.946 274.365 203.898H270.115C270.206 201.699 270.965 199.965 272.393 198.696C273.844 197.427 275.714 196.792 278.003 196.792C279.635 196.792 281.007 197.087 282.117 197.676C283.251 198.243 284.101 199.002 284.667 199.954C285.257 200.906 285.551 201.96 285.551 203.116C285.551 204.453 285.177 205.587 284.429 206.516C283.704 207.423 282.797 208.035 281.709 208.352C283.047 208.624 284.135 209.281 284.973 210.324C285.812 211.344 286.231 212.636 286.231 214.2C286.231 215.515 285.914 216.716 285.279 217.804C284.645 218.892 283.715 219.765 282.491 220.422C281.29 221.079 279.805 221.408 278.037 221.408ZM289.927 221V217.838C291.378 216.637 292.783 215.447 294.143 214.268C295.526 213.089 296.75 211.922 297.815 210.766C298.903 209.61 299.765 208.488 300.399 207.4C301.057 206.289 301.385 205.213 301.385 204.17C301.385 203.195 301.113 202.334 300.569 201.586C300.048 200.838 299.175 200.464 297.951 200.464C296.705 200.464 295.764 200.872 295.129 201.688C294.495 202.504 294.177 203.49 294.177 204.646H289.961C290.007 202.901 290.392 201.45 291.117 200.294C291.843 199.115 292.806 198.243 294.007 197.676C295.209 197.087 296.557 196.792 298.053 196.792C300.479 196.792 302.36 197.461 303.697 198.798C305.057 200.113 305.737 201.824 305.737 203.932C305.737 205.247 305.431 206.527 304.819 207.774C304.23 209.021 303.448 210.222 302.473 211.378C301.499 212.534 300.445 213.622 299.311 214.642C298.178 215.639 297.079 216.569 296.013 217.43H306.315V221H289.927ZM317.889 221.408C316.235 221.408 314.841 221.091 313.707 220.456C312.574 219.799 311.69 218.949 311.055 217.906C310.421 216.863 310.047 215.741 309.933 214.54H313.979C314.161 215.583 314.591 216.387 315.271 216.954C315.974 217.521 316.858 217.804 317.923 217.804C319.442 217.804 320.666 217.113 321.595 215.73C322.525 214.325 323.023 212.194 323.091 209.338C322.547 210.267 321.72 211.038 320.609 211.65C319.521 212.262 318.32 212.568 317.005 212.568C315.691 212.568 314.455 212.251 313.299 211.616C312.143 210.981 311.203 210.086 310.477 208.93C309.752 207.774 309.389 206.414 309.389 204.85C309.389 203.422 309.741 202.096 310.443 200.872C311.146 199.648 312.121 198.662 313.367 197.914C314.614 197.166 316.076 196.792 317.753 196.792C319.544 196.792 321.051 197.121 322.275 197.778C323.499 198.435 324.474 199.319 325.199 200.43C325.947 201.541 326.48 202.776 326.797 204.136C327.137 205.496 327.307 206.89 327.307 208.318C327.307 210.97 326.933 213.282 326.185 215.254C325.46 217.203 324.383 218.722 322.955 219.81C321.55 220.875 319.861 221.408 317.889 221.408ZM318.025 208.896C318.864 208.896 319.623 208.715 320.303 208.352C320.983 207.967 321.516 207.468 321.901 206.856C322.287 206.221 322.479 205.519 322.479 204.748C322.479 203.524 322.049 202.515 321.187 201.722C320.349 200.929 319.283 200.532 317.991 200.532C316.722 200.532 315.668 200.929 314.829 201.722C313.991 202.493 313.571 203.479 313.571 204.68C313.571 205.949 313.991 206.969 314.829 207.74C315.668 208.511 316.733 208.896 318.025 208.896Z" fill="black"/>
<circle cx="122" cy="140" r="75" transform="rotate(111.796 122 140)" stroke="#3B79D8" stroke-width="30"/>
<path d="M149.848 70.3613C111.387 54.9815 67.7414 73.6918 52.3616 112.152C45.4654 129.397 45.4232 147.685 50.9422 164" stroke="#A8DADC" stroke-width="30"/>
<path d="M52.3613 112.152C45.4651 129.397 45.423 147.685 50.942 164" stroke="#FF874E" stroke-width="30"/>
<g filter="url(#filter0_d_152_3544)">
<rect x="144" y="255" width="137" height="30" rx="15" fill="white"/>
</g>
<path d="M170.888 274V265.6H173.6C174.256 265.6 174.792 265.708 175.208 265.924C175.624 266.14 175.932 266.436 176.132 266.812C176.332 267.188 176.432 267.604 176.432 268.06C176.432 268.588 176.288 269.064 176 269.488C175.72 269.912 175.28 270.212 174.68 270.388L176.516 274H175.328L173.624 270.532H173.552H171.896V274H170.888ZM171.896 269.74H173.528C174.176 269.74 174.648 269.584 174.944 269.272C175.24 268.96 175.388 268.56 175.388 268.072C175.388 267.576 175.24 267.184 174.944 266.896C174.656 266.6 174.18 266.452 173.516 266.452H171.896V269.74ZM180.254 274.144C179.686 274.144 179.182 274.016 178.742 273.76C178.302 273.496 177.954 273.132 177.698 272.668C177.45 272.204 177.326 271.656 177.326 271.024C177.326 270.4 177.45 269.856 177.698 269.392C177.946 268.92 178.29 268.556 178.73 268.3C179.178 268.036 179.694 267.904 180.278 267.904C180.854 267.904 181.35 268.036 181.766 268.3C182.19 268.556 182.514 268.896 182.738 269.32C182.962 269.744 183.074 270.2 183.074 270.688C183.074 270.776 183.07 270.864 183.062 270.952C183.062 271.04 183.062 271.14 183.062 271.252H178.322C178.346 271.708 178.45 272.088 178.634 272.392C178.826 272.688 179.062 272.912 179.342 273.064C179.63 273.216 179.934 273.292 180.254 273.292C180.67 273.292 181.018 273.196 181.298 273.004C181.578 272.812 181.782 272.552 181.91 272.224H182.906C182.746 272.776 182.438 273.236 181.982 273.604C181.534 273.964 180.958 274.144 180.254 274.144ZM180.254 268.756C179.774 268.756 179.346 268.904 178.97 269.2C178.602 269.488 178.39 269.912 178.334 270.472H182.078C182.054 269.936 181.87 269.516 181.526 269.212C181.182 268.908 180.758 268.756 180.254 268.756ZM186.69 274.144C185.978 274.144 185.386 273.964 184.914 273.604C184.442 273.244 184.166 272.756 184.086 272.14H185.118C185.182 272.452 185.346 272.724 185.61 272.956C185.882 273.18 186.246 273.292 186.702 273.292C187.126 273.292 187.438 273.204 187.638 273.028C187.838 272.844 187.938 272.628 187.938 272.38C187.938 272.02 187.806 271.78 187.542 271.66C187.286 271.54 186.922 271.432 186.45 271.336C186.13 271.272 185.81 271.18 185.49 271.06C185.17 270.94 184.902 270.772 184.686 270.556C184.47 270.332 184.362 270.04 184.362 269.68C184.362 269.16 184.554 268.736 184.938 268.408C185.33 268.072 185.858 267.904 186.522 267.904C187.154 267.904 187.67 268.064 188.07 268.384C188.478 268.696 188.714 269.144 188.778 269.728H187.782C187.742 269.424 187.61 269.188 187.386 269.02C187.17 268.844 186.878 268.756 186.51 268.756C186.15 268.756 185.87 268.832 185.67 268.984C185.478 269.136 185.382 269.336 185.382 269.584C185.382 269.824 185.506 270.012 185.754 270.148C186.01 270.284 186.354 270.4 186.786 270.496C187.154 270.576 187.502 270.676 187.83 270.796C188.166 270.908 188.438 271.08 188.646 271.312C188.862 271.536 188.97 271.864 188.97 272.296C188.978 272.832 188.774 273.276 188.358 273.628C187.95 273.972 187.394 274.144 186.69 274.144ZM190.41 276.64V268.048H191.322L191.418 269.032C191.61 268.744 191.882 268.484 192.234 268.252C192.594 268.02 193.05 267.904 193.602 267.904C194.194 267.904 194.71 268.04 195.15 268.312C195.59 268.584 195.93 268.956 196.17 269.428C196.418 269.9 196.542 270.436 196.542 271.036C196.542 271.636 196.418 272.172 196.17 272.644C195.93 273.108 195.586 273.476 195.138 273.748C194.698 274.012 194.182 274.144 193.59 274.144C193.102 274.144 192.666 274.044 192.282 273.844C191.906 273.644 191.618 273.364 191.418 273.004V276.64H190.41ZM193.482 273.268C193.882 273.268 194.234 273.176 194.538 272.992C194.842 272.8 195.082 272.536 195.258 272.2C195.434 271.864 195.522 271.472 195.522 271.024C195.522 270.576 195.434 270.184 195.258 269.848C195.082 269.512 194.842 269.252 194.538 269.068C194.234 268.876 193.882 268.78 193.482 268.78C193.082 268.78 192.73 268.876 192.426 269.068C192.122 269.252 191.882 269.512 191.706 269.848C191.53 270.184 191.442 270.576 191.442 271.024C191.442 271.472 191.53 271.864 191.706 272.2C191.882 272.536 192.122 272.8 192.426 272.992C192.73 273.176 193.082 273.268 193.482 273.268ZM200.657 274.144C200.097 274.144 199.593 274.016 199.145 273.76C198.697 273.504 198.341 273.144 198.077 272.68C197.821 272.208 197.693 271.656 197.693 271.024C197.693 270.392 197.825 269.844 198.089 269.38C198.353 268.908 198.709 268.544 199.157 268.288C199.613 268.032 200.121 267.904 200.681 267.904C201.241 267.904 201.745 268.032 202.193 268.288C202.641 268.544 202.993 268.908 203.249 269.38C203.513 269.844 203.645 270.392 203.645 271.024C203.645 271.656 203.513 272.208 203.249 272.68C202.985 273.144 202.625 273.504 202.169 273.76C201.721 274.016 201.217 274.144 200.657 274.144ZM200.657 273.28C201.001 273.28 201.321 273.196 201.617 273.028C201.913 272.86 202.153 272.608 202.337 272.272C202.521 271.936 202.613 271.52 202.613 271.024C202.613 270.528 202.521 270.112 202.337 269.776C202.161 269.44 201.925 269.188 201.629 269.02C201.333 268.852 201.017 268.768 200.681 268.768C200.337 268.768 200.017 268.852 199.721 269.02C199.425 269.188 199.185 269.44 199.001 269.776C198.817 270.112 198.725 270.528 198.725 271.024C198.725 271.52 198.817 271.936 199.001 272.272C199.185 272.608 199.421 272.86 199.709 273.028C200.005 273.196 200.321 273.28 200.657 273.28ZM205.047 274V268.048H205.959L206.019 269.116C206.211 268.74 206.487 268.444 206.847 268.228C207.207 268.012 207.615 267.904 208.071 267.904C208.775 267.904 209.335 268.12 209.751 268.552C210.175 268.976 210.387 269.632 210.387 270.52V274H209.379V270.628C209.379 269.388 208.867 268.768 207.843 268.768C207.331 268.768 206.903 268.956 206.559 269.332C206.223 269.7 206.055 270.228 206.055 270.916V274H205.047ZM214.614 274.144C214.022 274.144 213.502 274.008 213.054 273.736C212.614 273.464 212.27 273.092 212.022 272.62C211.782 272.148 211.662 271.612 211.662 271.012C211.662 270.412 211.786 269.88 212.034 269.416C212.282 268.944 212.626 268.576 213.066 268.312C213.506 268.04 214.026 267.904 214.626 267.904C215.114 267.904 215.546 268.004 215.922 268.204C216.298 268.404 216.59 268.684 216.798 269.044V265.36H217.806V274H216.894L216.798 273.016C216.606 273.304 216.33 273.564 215.97 273.796C215.61 274.028 215.158 274.144 214.614 274.144ZM214.722 273.268C215.122 273.268 215.474 273.176 215.778 272.992C216.09 272.8 216.33 272.536 216.498 272.2C216.674 271.864 216.762 271.472 216.762 271.024C216.762 270.576 216.674 270.184 216.498 269.848C216.33 269.512 216.09 269.252 215.778 269.068C215.474 268.876 215.122 268.78 214.722 268.78C214.33 268.78 213.978 268.876 213.666 269.068C213.362 269.252 213.122 269.512 212.946 269.848C212.778 270.184 212.694 270.576 212.694 271.024C212.694 271.472 212.778 271.864 212.946 272.2C213.122 272.536 213.362 272.8 213.666 272.992C213.978 273.176 214.33 273.268 214.722 273.268ZM222.125 274.144C221.557 274.144 221.053 274.016 220.613 273.76C220.173 273.496 219.825 273.132 219.569 272.668C219.321 272.204 219.197 271.656 219.197 271.024C219.197 270.4 219.321 269.856 219.569 269.392C219.817 268.92 220.161 268.556 220.601 268.3C221.049 268.036 221.565 267.904 222.149 267.904C222.725 267.904 223.221 268.036 223.637 268.3C224.061 268.556 224.385 268.896 224.609 269.32C224.833 269.744 224.945 270.2 224.945 270.688C224.945 270.776 224.941 270.864 224.933 270.952C224.933 271.04 224.933 271.14 224.933 271.252H220.193C220.217 271.708 220.321 272.088 220.505 272.392C220.697 272.688 220.933 272.912 221.213 273.064C221.501 273.216 221.805 273.292 222.125 273.292C222.541 273.292 222.889 273.196 223.169 273.004C223.449 272.812 223.653 272.552 223.781 272.224H224.777C224.617 272.776 224.309 273.236 223.853 273.604C223.405 273.964 222.829 274.144 222.125 274.144ZM222.125 268.756C221.645 268.756 221.217 268.904 220.841 269.2C220.473 269.488 220.261 269.912 220.205 270.472H223.949C223.925 269.936 223.741 269.516 223.397 269.212C223.053 268.908 222.629 268.756 222.125 268.756ZM228.981 274.144C228.389 274.144 227.869 274.008 227.421 273.736C226.981 273.464 226.637 273.092 226.389 272.62C226.149 272.148 226.029 271.612 226.029 271.012C226.029 270.412 226.153 269.88 226.401 269.416C226.649 268.944 226.993 268.576 227.433 268.312C227.873 268.04 228.393 267.904 228.993 267.904C229.481 267.904 229.913 268.004 230.289 268.204C230.665 268.404 230.957 268.684 231.165 269.044V265.36H232.173V274H231.261L231.165 273.016C230.973 273.304 230.697 273.564 230.337 273.796C229.977 274.028 229.525 274.144 228.981 274.144ZM229.089 273.268C229.489 273.268 229.841 273.176 230.145 272.992C230.457 272.8 230.697 272.536 230.865 272.2C231.041 271.864 231.129 271.472 231.129 271.024C231.129 270.576 231.041 270.184 230.865 269.848C230.697 269.512 230.457 269.252 230.145 269.068C229.841 268.876 229.489 268.78 229.089 268.78C228.697 268.78 228.345 268.876 228.033 269.068C227.729 269.252 227.489 269.512 227.313 269.848C227.145 270.184 227.061 270.576 227.061 271.024C227.061 271.472 227.145 271.864 227.313 272.2C227.489 272.536 227.729 272.8 228.033 272.992C228.345 273.176 228.697 273.268 229.089 273.268ZM236.872 270.94V270.088H241.624V270.94H236.872ZM246.248 274V273.292C246.816 272.844 247.352 272.392 247.856 271.936C248.368 271.472 248.82 271.016 249.212 270.568C249.612 270.12 249.924 269.68 250.148 269.248C250.38 268.816 250.496 268.4 250.496 268C250.496 267.704 250.444 267.428 250.34 267.172C250.244 266.916 250.084 266.712 249.86 266.56C249.636 266.4 249.332 266.32 248.948 266.32C248.58 266.32 248.272 266.404 248.024 266.572C247.776 266.732 247.588 266.948 247.46 267.22C247.34 267.492 247.28 267.784 247.28 268.096H246.308C246.308 267.544 246.424 267.072 246.656 266.68C246.888 266.28 247.204 265.976 247.604 265.768C248.004 265.56 248.456 265.456 248.96 265.456C249.704 265.456 250.312 265.668 250.784 266.092C251.264 266.508 251.504 267.132 251.504 267.964C251.504 268.46 251.38 268.952 251.132 269.44C250.884 269.92 250.568 270.388 250.184 270.844C249.8 271.292 249.388 271.712 248.948 272.104C248.516 272.496 248.112 272.848 247.736 273.16H251.792V274H246.248ZM253.115 274V273.292C253.683 272.844 254.219 272.392 254.723 271.936C255.235 271.472 255.687 271.016 256.079 270.568C256.479 270.12 256.791 269.68 257.015 269.248C257.247 268.816 257.363 268.4 257.363 268C257.363 267.704 257.311 267.428 257.207 267.172C257.111 266.916 256.951 266.712 256.727 266.56C256.503 266.4 256.199 266.32 255.815 266.32C255.447 266.32 255.139 266.404 254.891 266.572C254.643 266.732 254.455 266.948 254.327 267.22C254.207 267.492 254.147 267.784 254.147 268.096H253.175C253.175 267.544 253.291 267.072 253.523 266.68C253.755 266.28 254.071 265.976 254.471 265.768C254.871 265.56 255.323 265.456 255.827 265.456C256.571 265.456 257.179 265.668 257.651 266.092C258.131 266.508 258.371 267.132 258.371 267.964C258.371 268.46 258.247 268.952 257.999 269.44C257.751 269.92 257.435 270.388 257.051 270.844C256.667 271.292 256.255 271.712 255.815 272.104C255.383 272.496 254.979 272.848 254.603 273.16H258.659V274H253.115ZM261.627 269.5C261.267 269.5 260.939 269.42 260.643 269.26C260.355 269.092 260.127 268.86 259.959 268.564C259.791 268.26 259.707 267.9 259.707 267.484C259.707 267.068 259.791 266.712 259.959 266.416C260.135 266.112 260.367 265.88 260.655 265.72C260.951 265.552 261.279 265.468 261.639 265.468C261.999 265.468 262.323 265.552 262.611 265.72C262.899 265.88 263.127 266.112 263.295 266.416C263.463 266.712 263.547 267.068 263.547 267.484C263.547 267.9 263.459 268.26 263.283 268.564C263.115 268.86 262.887 269.092 262.599 269.26C262.311 269.42 261.987 269.5 261.627 269.5ZM260.883 274L265.767 265.6H266.775L261.891 274H260.883ZM261.627 268.72C261.907 268.72 262.151 268.616 262.359 268.408C262.575 268.2 262.683 267.892 262.683 267.484C262.683 267.068 262.579 266.756 262.371 266.548C262.163 266.332 261.919 266.224 261.639 266.224C261.359 266.224 261.107 266.332 260.883 266.548C260.667 266.756 260.559 267.068 260.559 267.484C260.559 267.892 260.667 268.2 260.883 268.408C261.099 268.616 261.347 268.72 261.627 268.72ZM266.115 274.144C265.755 274.144 265.427 274.064 265.131 273.904C264.843 273.736 264.615 273.504 264.447 273.208C264.279 272.904 264.195 272.544 264.195 272.128C264.195 271.712 264.279 271.356 264.447 271.06C264.623 270.756 264.855 270.524 265.143 270.364C265.431 270.196 265.755 270.112 266.115 270.112C266.475 270.112 266.799 270.196 267.087 270.364C267.375 270.524 267.603 270.756 267.771 271.06C267.939 271.356 268.023 271.712 268.023 272.128C268.023 272.544 267.939 272.904 267.771 273.208C267.603 273.504 267.375 273.736 267.087 273.904C266.799 274.064 266.475 274.144 266.115 274.144ZM266.103 273.364C266.391 273.364 266.639 273.26 266.847 273.052C267.063 272.844 267.171 272.536 267.171 272.128C267.171 271.712 267.067 271.4 266.859 271.192C266.651 270.984 266.403 270.88 266.115 270.88C265.835 270.88 265.587 270.984 265.371 271.192C265.155 271.4 265.047 271.712 265.047 272.128C265.047 272.536 265.151 272.844 265.359 273.052C265.575 273.26 265.823 273.364 266.103 273.364Z" fill="black"/>
<circle cx="159" cy="270" r="5" fill="#A8DADC"/>
<g filter="url(#filter1_d_152_3544)">
<rect x="24" y="255" width="117" height="30" rx="15" fill="white"/>
</g>
<path d="M50.888 274V265.6H53.84C54.432 265.6 54.92 265.696 55.304 265.888C55.696 266.072 55.988 266.328 56.18 266.656C56.372 266.976 56.468 267.336 56.468 267.736C56.468 268.28 56.32 268.708 56.024 269.02C55.736 269.332 55.388 269.548 54.98 269.668C55.292 269.724 55.576 269.848 55.832 270.04C56.088 270.232 56.288 270.472 56.432 270.76C56.584 271.048 56.66 271.364 56.66 271.708C56.66 272.132 56.556 272.52 56.348 272.872C56.14 273.216 55.832 273.492 55.424 273.7C55.016 273.9 54.52 274 53.936 274H50.888ZM51.896 269.272H53.768C54.304 269.272 54.716 269.148 55.004 268.9C55.292 268.644 55.436 268.292 55.436 267.844C55.436 267.42 55.292 267.08 55.004 266.824C54.724 266.568 54.3 266.44 53.732 266.44H51.896V269.272ZM51.896 273.16H53.828C54.404 273.16 54.848 273.028 55.16 272.764C55.472 272.492 55.628 272.116 55.628 271.636C55.628 271.164 55.464 270.788 55.136 270.508C54.808 270.22 54.364 270.076 53.804 270.076H51.896V273.16ZM60.7588 274.144C60.1988 274.144 59.6948 274.016 59.2468 273.76C58.7988 273.504 58.4428 273.144 58.1788 272.68C57.9228 272.208 57.7948 271.656 57.7948 271.024C57.7948 270.392 57.9268 269.844 58.1908 269.38C58.4548 268.908 58.8108 268.544 59.2588 268.288C59.7148 268.032 60.2228 267.904 60.7828 267.904C61.3428 267.904 61.8468 268.032 62.2948 268.288C62.7428 268.544 63.0948 268.908 63.3508 269.38C63.6148 269.844 63.7468 270.392 63.7468 271.024C63.7468 271.656 63.6148 272.208 63.3508 272.68C63.0868 273.144 62.7268 273.504 62.2708 273.76C61.8228 274.016 61.3188 274.144 60.7588 274.144ZM60.7588 273.28C61.1028 273.28 61.4228 273.196 61.7188 273.028C62.0148 272.86 62.2548 272.608 62.4388 272.272C62.6228 271.936 62.7148 271.52 62.7148 271.024C62.7148 270.528 62.6228 270.112 62.4388 269.776C62.2628 269.44 62.0268 269.188 61.7308 269.02C61.4348 268.852 61.1188 268.768 60.7828 268.768C60.4388 268.768 60.1188 268.852 59.8228 269.02C59.5268 269.188 59.2868 269.44 59.1028 269.776C58.9188 270.112 58.8268 270.528 58.8268 271.024C58.8268 271.52 58.9188 271.936 59.1028 272.272C59.2868 272.608 59.5228 272.86 59.8108 273.028C60.1068 273.196 60.4228 273.28 60.7588 273.28ZM67.3203 274.144C66.6163 274.144 66.0563 273.932 65.6403 273.508C65.2243 273.076 65.0163 272.416 65.0163 271.528V268.048H66.0243V271.42C66.0243 272.66 66.5323 273.28 67.5483 273.28C68.0683 273.28 68.4963 273.096 68.8323 272.728C69.1763 272.352 69.3483 271.82 69.3483 271.132V268.048H70.3563V274H69.4443L69.3723 272.932C69.1883 273.308 68.9123 273.604 68.5443 273.82C68.1843 274.036 67.7763 274.144 67.3203 274.144ZM72.0155 274V268.048H72.9275L72.9875 269.116C73.1795 268.74 73.4555 268.444 73.8155 268.228C74.1755 268.012 74.5835 267.904 75.0395 267.904C75.7435 267.904 76.3035 268.12 76.7195 268.552C77.1435 268.976 77.3555 269.632 77.3555 270.52V274H76.3475V270.628C76.3475 269.388 75.8355 268.768 74.8115 268.768C74.2995 268.768 73.8715 268.956 73.5275 269.332C73.1915 269.7 73.0235 270.228 73.0235 270.916V274H72.0155ZM81.6187 274.144C81.0507 274.144 80.5387 274.016 80.0827 273.76C79.6347 273.496 79.2787 273.132 79.0147 272.668C78.7587 272.196 78.6307 271.648 78.6307 271.024C78.6307 270.4 78.7587 269.856 79.0147 269.392C79.2787 268.92 79.6347 268.556 80.0827 268.3C80.5387 268.036 81.0507 267.904 81.6187 267.904C82.3227 267.904 82.9147 268.088 83.3947 268.456C83.8827 268.824 84.1907 269.316 84.3187 269.932H83.2867C83.2067 269.564 83.0107 269.28 82.6987 269.08C82.3867 268.872 82.0227 268.768 81.6067 268.768C81.2707 268.768 80.9547 268.852 80.6587 269.02C80.3627 269.188 80.1227 269.44 79.9387 269.776C79.7547 270.112 79.6627 270.528 79.6627 271.024C79.6627 271.52 79.7547 271.936 79.9387 272.272C80.1227 272.608 80.3627 272.864 80.6587 273.04C80.9547 273.208 81.2707 273.292 81.6067 273.292C82.0227 273.292 82.3867 273.192 82.6987 272.992C83.0107 272.784 83.2067 272.492 83.2867 272.116H84.3187C84.1987 272.716 83.8947 273.204 83.4067 273.58C82.9187 273.956 82.3227 274.144 81.6187 274.144ZM88.4024 274.144C87.8344 274.144 87.3304 274.016 86.8904 273.76C86.4504 273.496 86.1024 273.132 85.8464 272.668C85.5984 272.204 85.4744 271.656 85.4744 271.024C85.4744 270.4 85.5984 269.856 85.8464 269.392C86.0944 268.92 86.4384 268.556 86.8784 268.3C87.3264 268.036 87.8424 267.904 88.4264 267.904C89.0024 267.904 89.4984 268.036 89.9144 268.3C90.3384 268.556 90.6624 268.896 90.8864 269.32C91.1104 269.744 91.2224 270.2 91.2224 270.688C91.2224 270.776 91.2184 270.864 91.2104 270.952C91.2104 271.04 91.2104 271.14 91.2104 271.252H86.4704C86.4944 271.708 86.5984 272.088 86.7824 272.392C86.9744 272.688 87.2104 272.912 87.4904 273.064C87.7784 273.216 88.0824 273.292 88.4024 273.292C88.8184 273.292 89.1664 273.196 89.4464 273.004C89.7264 272.812 89.9304 272.552 90.0584 272.224H91.0544C90.8944 272.776 90.5864 273.236 90.1304 273.604C89.6824 273.964 89.1064 274.144 88.4024 274.144ZM88.4024 268.756C87.9224 268.756 87.4944 268.904 87.1184 269.2C86.7504 269.488 86.5384 269.912 86.4824 270.472H90.2264C90.2024 269.936 90.0184 269.516 89.6744 269.212C89.3304 268.908 88.9064 268.756 88.4024 268.756ZM95.2585 274.144C94.6665 274.144 94.1465 274.008 93.6985 273.736C93.2585 273.464 92.9145 273.092 92.6665 272.62C92.4265 272.148 92.3065 271.612 92.3065 271.012C92.3065 270.412 92.4305 269.88 92.6785 269.416C92.9265 268.944 93.2705 268.576 93.7105 268.312C94.1505 268.04 94.6705 267.904 95.2705 267.904C95.7585 267.904 96.1905 268.004 96.5665 268.204C96.9425 268.404 97.2345 268.684 97.4425 269.044V265.36H98.4505V274H97.5385L97.4425 273.016C97.2505 273.304 96.9745 273.564 96.6145 273.796C96.2545 274.028 95.8025 274.144 95.2585 274.144ZM95.3665 273.268C95.7665 273.268 96.1185 273.176 96.4225 272.992C96.7345 272.8 96.9745 272.536 97.1425 272.2C97.3185 271.864 97.4065 271.472 97.4065 271.024C97.4065 270.576 97.3185 270.184 97.1425 269.848C96.9745 269.512 96.7345 269.252 96.4225 269.068C96.1185 268.876 95.7665 268.78 95.3665 268.78C94.9745 268.78 94.6225 268.876 94.3105 269.068C94.0065 269.252 93.7665 269.512 93.5905 269.848C93.4225 270.184 93.3385 270.576 93.3385 271.024C93.3385 271.472 93.4225 271.864 93.5905 272.2C93.7665 272.536 94.0065 272.8 94.3105 272.992C94.6225 273.176 94.9745 273.268 95.3665 273.268ZM103.149 270.94V270.088H107.901V270.94H103.149ZM115.682 274.144C115.074 274.144 114.562 274.032 114.146 273.808C113.73 273.576 113.394 273.268 113.138 272.884C112.89 272.5 112.706 272.072 112.586 271.6C112.474 271.12 112.418 270.632 112.418 270.136C112.418 269.208 112.546 268.396 112.802 267.7C113.058 266.996 113.426 266.448 113.906 266.056C114.394 265.656 114.982 265.456 115.67 265.456C116.198 265.456 116.65 265.56 117.026 265.768C117.402 265.976 117.698 266.256 117.914 266.608C118.138 266.952 118.278 267.336 118.334 267.76H117.398C117.31 267.304 117.114 266.952 116.81 266.704C116.506 266.456 116.122 266.332 115.658 266.332C115.026 266.332 114.494 266.632 114.062 267.232C113.638 267.824 113.41 268.752 113.378 270.016C113.57 269.64 113.874 269.316 114.29 269.044C114.714 268.764 115.222 268.624 115.814 268.624C116.294 268.624 116.742 268.736 117.158 268.96C117.582 269.184 117.926 269.5 118.19 269.908C118.454 270.308 118.586 270.78 118.586 271.324C118.586 271.796 118.47 272.248 118.238 272.68C118.006 273.112 117.67 273.464 117.23 273.736C116.798 274.008 116.282 274.144 115.682 274.144ZM115.61 273.256C115.986 273.256 116.322 273.176 116.618 273.016C116.914 272.856 117.146 272.636 117.314 272.356C117.482 272.068 117.566 271.74 117.566 271.372C117.566 270.804 117.378 270.352 117.002 270.016C116.634 269.672 116.17 269.5 115.61 269.5C115.234 269.5 114.898 269.588 114.602 269.764C114.306 269.932 114.07 270.16 113.894 270.448C113.726 270.736 113.642 271.048 113.642 271.384C113.642 271.744 113.726 272.068 113.894 272.356C114.07 272.636 114.306 272.856 114.602 273.016C114.898 273.176 115.234 273.256 115.61 273.256ZM121.529 269.5C121.169 269.5 120.841 269.42 120.545 269.26C120.257 269.092 120.029 268.86 119.861 268.564C119.693 268.26 119.609 267.9 119.609 267.484C119.609 267.068 119.693 266.712 119.861 266.416C120.037 266.112 120.269 265.88 120.557 265.72C120.853 265.552 121.181 265.468 121.541 265.468C121.901 265.468 122.225 265.552 122.513 265.72C122.801 265.88 123.029 266.112 123.197 266.416C123.365 266.712 123.449 267.068 123.449 267.484C123.449 267.9 123.361 268.26 123.185 268.564C123.017 268.86 122.789 269.092 122.501 269.26C122.213 269.42 121.889 269.5 121.529 269.5ZM120.785 274L125.669 265.6H126.677L121.793 274H120.785ZM121.529 268.72C121.809 268.72 122.053 268.616 122.261 268.408C122.477 268.2 122.585 267.892 122.585 267.484C122.585 267.068 122.481 266.756 122.273 266.548C122.065 266.332 121.821 266.224 121.541 266.224C121.261 266.224 121.009 266.332 120.785 266.548C120.569 266.756 120.461 267.068 120.461 267.484C120.461 267.892 120.569 268.2 120.785 268.408C121.001 268.616 121.249 268.72 121.529 268.72ZM126.017 274.144C125.657 274.144 125.329 274.064 125.033 273.904C124.745 273.736 124.517 273.504 124.349 273.208C124.181 272.904 124.097 272.544 124.097 272.128C124.097 271.712 124.181 271.356 124.349 271.06C124.525 270.756 124.757 270.524 125.045 270.364C125.333 270.196 125.657 270.112 126.017 270.112C126.377 270.112 126.701 270.196 126.989 270.364C127.277 270.524 127.505 270.756 127.673 271.06C127.841 271.356 127.925 271.712 127.925 272.128C127.925 272.544 127.841 272.904 127.673 273.208C127.505 273.504 127.277 273.736 126.989 273.904C126.701 274.064 126.377 274.144 126.017 274.144ZM126.005 273.364C126.293 273.364 126.541 273.26 126.749 273.052C126.965 272.844 127.073 272.536 127.073 272.128C127.073 271.712 126.969 271.4 126.761 271.192C126.553 270.984 126.305 270.88 126.017 270.88C125.737 270.88 125.489 270.984 125.273 271.192C125.057 271.4 124.949 271.712 124.949 272.128C124.949 272.536 125.053 272.844 125.261 273.052C125.477 273.26 125.725 273.364 126.005 273.364Z" fill="black"/>
<circle cx="39" cy="270" r="5" fill="#FF874E"/>
<g filter="url(#filter2_d_152_3544)">
<rect x="284" y="255" width="131" height="30" rx="15" fill="white"/>
</g>
<path d="M310.888 274V265.6H313.6C314.256 265.6 314.792 265.708 315.208 265.924C315.624 266.14 315.932 266.436 316.132 266.812C316.332 267.188 316.432 267.604 316.432 268.06C316.432 268.588 316.288 269.064 316 269.488C315.72 269.912 315.28 270.212 314.68 270.388L316.516 274H315.328L313.624 270.532H313.552H311.896V274H310.888ZM311.896 269.74H313.528C314.176 269.74 314.648 269.584 314.944 269.272C315.24 268.96 315.388 268.56 315.388 268.072C315.388 267.576 315.24 267.184 314.944 266.896C314.656 266.6 314.18 266.452 313.516 266.452H311.896V269.74ZM320.254 274.144C319.686 274.144 319.182 274.016 318.742 273.76C318.302 273.496 317.954 273.132 317.698 272.668C317.45 272.204 317.326 271.656 317.326 271.024C317.326 270.4 317.45 269.856 317.698 269.392C317.946 268.92 318.29 268.556 318.73 268.3C319.178 268.036 319.694 267.904 320.278 267.904C320.854 267.904 321.35 268.036 321.766 268.3C322.19 268.556 322.514 268.896 322.738 269.32C322.962 269.744 323.074 270.2 323.074 270.688C323.074 270.776 323.07 270.864 323.062 270.952C323.062 271.04 323.062 271.14 323.062 271.252H318.322C318.346 271.708 318.45 272.088 318.634 272.392C318.826 272.688 319.062 272.912 319.342 273.064C319.63 273.216 319.934 273.292 320.254 273.292C320.67 273.292 321.018 273.196 321.298 273.004C321.578 272.812 321.782 272.552 321.91 272.224H322.906C322.746 272.776 322.438 273.236 321.982 273.604C321.534 273.964 320.958 274.144 320.254 274.144ZM320.254 268.756C319.774 268.756 319.346 268.904 318.97 269.2C318.602 269.488 318.39 269.912 318.334 270.472H322.078C322.054 269.936 321.87 269.516 321.526 269.212C321.182 268.908 320.758 268.756 320.254 268.756ZM324.41 274V268.048H325.322L325.394 268.912C325.586 268.592 325.842 268.344 326.162 268.168C326.482 267.992 326.842 267.904 327.242 267.904C327.714 267.904 328.118 268 328.454 268.192C328.798 268.384 329.062 268.676 329.246 269.068C329.454 268.708 329.738 268.424 330.098 268.216C330.466 268.008 330.862 267.904 331.286 267.904C331.998 267.904 332.566 268.12 332.99 268.552C333.414 268.976 333.626 269.632 333.626 270.52V274H332.63V270.628C332.63 270.012 332.506 269.548 332.258 269.236C332.01 268.924 331.654 268.768 331.19 268.768C330.71 268.768 330.31 268.956 329.99 269.332C329.678 269.7 329.522 270.228 329.522 270.916V274H328.514V270.628C328.514 270.012 328.39 269.548 328.142 269.236C327.894 268.924 327.538 268.768 327.074 268.768C326.602 268.768 326.206 268.956 325.886 269.332C325.574 269.7 325.418 270.228 325.418 270.916V274H324.41ZM337.124 274.144C336.628 274.144 336.216 274.06 335.888 273.892C335.56 273.724 335.316 273.5 335.156 273.22C334.996 272.94 334.916 272.636 334.916 272.308C334.916 271.7 335.148 271.232 335.612 270.904C336.076 270.576 336.708 270.412 337.508 270.412H339.116V270.34C339.116 269.82 338.98 269.428 338.708 269.164C338.436 268.892 338.072 268.756 337.616 268.756C337.224 268.756 336.884 268.856 336.596 269.056C336.316 269.248 336.14 269.532 336.068 269.908H335.036C335.076 269.476 335.22 269.112 335.468 268.816C335.724 268.52 336.04 268.296 336.416 268.144C336.792 267.984 337.192 267.904 337.616 267.904C338.448 267.904 339.072 268.128 339.488 268.576C339.912 269.016 340.124 269.604 340.124 270.34V274H339.224L339.164 272.932C338.996 273.268 338.748 273.556 338.42 273.796C338.1 274.028 337.668 274.144 337.124 274.144ZM337.28 273.292C337.664 273.292 337.992 273.192 338.264 272.992C338.544 272.792 338.756 272.532 338.9 272.212C339.044 271.892 339.116 271.556 339.116 271.204V271.192H337.592C337 271.192 336.58 271.296 336.332 271.504C336.092 271.704 335.972 271.956 335.972 272.26C335.972 272.572 336.084 272.824 336.308 273.016C336.54 273.2 336.864 273.292 337.28 273.292ZM342.249 266.728C342.049 266.728 341.881 266.664 341.745 266.536C341.617 266.4 341.553 266.232 341.553 266.032C341.553 265.84 341.617 265.68 341.745 265.552C341.881 265.424 342.049 265.36 342.249 265.36C342.441 265.36 342.605 265.424 342.741 265.552C342.877 265.68 342.945 265.84 342.945 266.032C342.945 266.232 342.877 266.4 342.741 266.536C342.605 266.664 342.441 266.728 342.249 266.728ZM341.745 274V268.048H342.753V274H341.745ZM344.508 274V268.048H345.42L345.48 269.116C345.672 268.74 345.948 268.444 346.308 268.228C346.668 268.012 347.076 267.904 347.532 267.904C348.236 267.904 348.796 268.12 349.212 268.552C349.636 268.976 349.848 269.632 349.848 270.52V274H348.84V270.628C348.84 269.388 348.328 268.768 347.304 268.768C346.792 268.768 346.364 268.956 346.02 269.332C345.684 269.7 345.516 270.228 345.516 270.916V274H344.508ZM351.987 266.728C351.787 266.728 351.619 266.664 351.483 266.536C351.355 266.4 351.291 266.232 351.291 266.032C351.291 265.84 351.355 265.68 351.483 265.552C351.619 265.424 351.787 265.36 351.987 265.36C352.179 265.36 352.343 265.424 352.479 265.552C352.615 265.68 352.683 265.84 352.683 266.032C352.683 266.232 352.615 266.4 352.479 266.536C352.343 266.664 352.179 266.728 351.987 266.728ZM351.483 274V268.048H352.491V274H351.483ZM354.246 274V268.048H355.158L355.218 269.116C355.41 268.74 355.686 268.444 356.046 268.228C356.406 268.012 356.814 267.904 357.27 267.904C357.974 267.904 358.534 268.12 358.95 268.552C359.374 268.976 359.586 269.632 359.586 270.52V274H358.578V270.628C358.578 269.388 358.066 268.768 357.042 268.768C356.53 268.768 356.102 268.956 355.758 269.332C355.422 269.7 355.254 270.228 355.254 270.916V274H354.246ZM363.465 272.128C363.129 272.128 362.821 272.084 362.541 271.996L361.941 272.56C362.029 272.624 362.137 272.68 362.265 272.728C362.401 272.768 362.593 272.808 362.841 272.848C363.089 272.88 363.437 272.916 363.885 272.956C364.685 273.012 365.257 273.196 365.601 273.508C365.945 273.82 366.117 274.228 366.117 274.732C366.117 275.076 366.021 275.404 365.829 275.716C365.645 276.028 365.357 276.284 364.965 276.484C364.581 276.684 364.085 276.784 363.477 276.784C362.941 276.784 362.465 276.712 362.049 276.568C361.633 276.432 361.309 276.22 361.077 275.932C360.845 275.652 360.729 275.296 360.729 274.864C360.729 274.64 360.789 274.396 360.909 274.132C361.029 273.876 361.253 273.632 361.581 273.4C361.405 273.328 361.253 273.252 361.125 273.172C361.005 273.084 360.893 272.988 360.789 272.884V272.608L361.809 271.6C361.337 271.2 361.101 270.672 361.101 270.016C361.101 269.624 361.193 269.268 361.377 268.948C361.561 268.628 361.829 268.376 362.181 268.192C362.533 268 362.961 267.904 363.465 267.904C363.809 267.904 364.121 267.952 364.401 268.048H366.597V268.804L365.481 268.852C365.713 269.188 365.829 269.576 365.829 270.016C365.829 270.408 365.733 270.764 365.541 271.084C365.357 271.404 365.089 271.66 364.737 271.852C364.393 272.036 363.969 272.128 363.465 272.128ZM363.465 271.3C363.889 271.3 364.225 271.192 364.473 270.976C364.729 270.752 364.857 270.432 364.857 270.016C364.857 269.608 364.729 269.296 364.473 269.08C364.225 268.856 363.889 268.744 363.465 268.744C363.033 268.744 362.689 268.856 362.433 269.08C362.185 269.296 362.061 269.608 362.061 270.016C362.061 270.432 362.185 270.752 362.433 270.976C362.689 271.192 363.033 271.3 363.465 271.3ZM361.713 274.768C361.713 275.168 361.881 275.464 362.217 275.656C362.553 275.856 362.973 275.956 363.477 275.956C363.973 275.956 364.369 275.848 364.665 275.632C364.969 275.416 365.121 275.128 365.121 274.768C365.121 274.512 365.017 274.288 364.809 274.096C364.601 273.912 364.217 273.804 363.657 273.772C363.217 273.74 362.837 273.7 362.517 273.652C362.189 273.828 361.973 274.016 361.869 274.216C361.765 274.424 361.713 274.608 361.713 274.768ZM370.79 270.94V270.088H375.542V270.94H370.79ZM383.07 274.144C382.518 274.144 382.022 274.044 381.582 273.844C381.142 273.636 380.794 273.352 380.538 272.992C380.29 272.624 380.166 272.2 380.166 271.72C380.166 271.208 380.314 270.748 380.61 270.34C380.914 269.932 381.314 269.66 381.81 269.524C381.354 269.372 381.002 269.128 380.754 268.792C380.506 268.456 380.382 268.088 380.382 267.688C380.382 267.28 380.49 266.908 380.706 266.572C380.922 266.228 381.23 265.956 381.63 265.756C382.03 265.556 382.51 265.456 383.07 265.456C383.63 265.456 384.11 265.556 384.51 265.756C384.91 265.956 385.218 266.228 385.434 266.572C385.65 266.908 385.758 267.28 385.758 267.688C385.758 268.08 385.634 268.448 385.386 268.792C385.138 269.128 384.786 269.372 384.33 269.524C384.826 269.66 385.222 269.932 385.518 270.34C385.822 270.748 385.974 271.208 385.974 271.72C385.974 272.2 385.846 272.624 385.59 272.992C385.342 273.352 384.998 273.636 384.558 273.844C384.118 274.044 383.622 274.144 383.07 274.144ZM383.07 269.164C383.582 269.164 383.986 269.036 384.282 268.78C384.586 268.516 384.738 268.172 384.738 267.748C384.738 267.276 384.59 266.92 384.294 266.68C383.998 266.44 383.59 266.32 383.07 266.32C382.55 266.32 382.142 266.44 381.846 266.68C381.558 266.92 381.414 267.276 381.414 267.748C381.414 268.172 381.562 268.516 381.858 268.78C382.154 269.036 382.558 269.164 383.07 269.164ZM383.07 273.256C383.702 273.256 384.174 273.112 384.486 272.824C384.806 272.528 384.966 272.14 384.966 271.66C384.966 271.116 384.794 270.704 384.45 270.424C384.106 270.144 383.646 270.004 383.07 270.004C382.494 270.004 382.034 270.144 381.69 270.424C381.346 270.704 381.174 271.116 381.174 271.66C381.174 272.14 381.33 272.528 381.642 272.824C381.962 273.112 382.438 273.256 383.07 273.256ZM387.291 274V273.292C387.859 272.844 388.395 272.392 388.899 271.936C389.411 271.472 389.863 271.016 390.255 270.568C390.655 270.12 390.967 269.68 391.191 269.248C391.423 268.816 391.539 268.4 391.539 268C391.539 267.704 391.487 267.428 391.383 267.172C391.287 266.916 391.127 266.712 390.903 266.56C390.679 266.4 390.375 266.32 389.991 266.32C389.623 266.32 389.315 266.404 389.067 266.572C388.819 266.732 388.631 266.948 388.503 267.22C388.383 267.492 388.323 267.784 388.323 268.096H387.351C387.351 267.544 387.467 267.072 387.699 266.68C387.931 266.28 388.247 265.976 388.647 265.768C389.047 265.56 389.499 265.456 390.003 265.456C390.747 265.456 391.355 265.668 391.827 266.092C392.307 266.508 392.547 267.132 392.547 267.964C392.547 268.46 392.423 268.952 392.175 269.44C391.927 269.92 391.611 270.388 391.227 270.844C390.843 271.292 390.431 271.712 389.991 272.104C389.559 272.496 389.155 272.848 388.779 273.16H392.835V274H387.291ZM395.802 269.5C395.442 269.5 395.114 269.42 394.818 269.26C394.53 269.092 394.302 268.86 394.134 268.564C393.966 268.26 393.882 267.9 393.882 267.484C393.882 267.068 393.966 266.712 394.134 266.416C394.31 266.112 394.542 265.88 394.83 265.72C395.126 265.552 395.454 265.468 395.814 265.468C396.174 265.468 396.498 265.552 396.786 265.72C397.074 265.88 397.302 266.112 397.47 266.416C397.638 266.712 397.722 267.068 397.722 267.484C397.722 267.9 397.634 268.26 397.458 268.564C397.29 268.86 397.062 269.092 396.774 269.26C396.486 269.42 396.162 269.5 395.802 269.5ZM395.058 274L399.942 265.6H400.95L396.066 274H395.058ZM395.802 268.72C396.082 268.72 396.326 268.616 396.534 268.408C396.75 268.2 396.858 267.892 396.858 267.484C396.858 267.068 396.754 266.756 396.546 266.548C396.338 266.332 396.094 266.224 395.814 266.224C395.534 266.224 395.282 266.332 395.058 266.548C394.842 266.756 394.734 267.068 394.734 267.484C394.734 267.892 394.842 268.2 395.058 268.408C395.274 268.616 395.522 268.72 395.802 268.72ZM400.29 274.144C399.93 274.144 399.602 274.064 399.306 273.904C399.018 273.736 398.79 273.504 398.622 273.208C398.454 272.904 398.37 272.544 398.37 272.128C398.37 271.712 398.454 271.356 398.622 271.06C398.798 270.756 399.03 270.524 399.318 270.364C399.606 270.196 399.93 270.112 400.29 270.112C400.65 270.112 400.974 270.196 401.262 270.364C401.55 270.524 401.778 270.756 401.946 271.06C402.114 271.356 402.198 271.712 402.198 272.128C402.198 272.544 402.114 272.904 401.946 273.208C401.778 273.504 401.55 273.736 401.262 273.904C400.974 274.064 400.65 274.144 400.29 274.144ZM400.278 273.364C400.566 273.364 400.814 273.26 401.022 273.052C401.238 272.844 401.346 272.536 401.346 272.128C401.346 271.712 401.242 271.4 401.034 271.192C400.826 270.984 400.578 270.88 400.29 270.88C400.01 270.88 399.762 270.984 399.546 271.192C399.33 271.4 399.222 271.712 399.222 272.128C399.222 272.536 399.326 272.844 399.534 273.052C399.75 273.26 399.998 273.364 400.278 273.364Z" fill="black"/>
<circle cx="299" cy="270" r="5" fill="#3B79D8"/>
<path d="M40.1668 18.833L30.0835 28.9163" stroke="black" stroke-width="1.5" stroke-linecap="round" stroke-linejoin="round"/>
<path d="M40.1668 18.833L33.7502 37.1663L30.0835 28.9163L21.8335 25.2497L40.1668 18.833Z" stroke="black" stroke-width="1.5" stroke-linecap="round" stroke-linejoin="round"/>
<defs>
<filter id="filter0_d_152_3544" x="130" y="241" width="165" height="58" filterUnits="userSpaceOnUse" color-interpolation-filters="sRGB">
<feFlood flood-opacity="0" result="BackgroundImageFix"/>
<feColorMatrix in="SourceAlpha" type="matrix" values="0 0 0 0 0 0 0 0 0 0 0 0 0 0 0 0 0 0 127 0" result="hardAlpha"/>
<feOffset/>
<feGaussianBlur stdDeviation="7"/>
<feComposite in2="hardAlpha" operator="out"/>
<feColorMatrix type="matrix" values="0 0 0 0 0.27106 0 0 0 0 0.291722 0 0 0 0 0.320993 0 0 0 0.12 0"/>
<feBlend mode="normal" in2="BackgroundImageFix" result="effect1_dropShadow_152_3544"/>
<feBlend mode="normal" in="SourceGraphic" in2="effect1_dropShadow_152_3544" result="shape"/>
</filter>
<filter id="filter1_d_152_3544" x="10" y="241" width="145" height="58" filterUnits="userSpaceOnUse" color-interpolation-filters="sRGB">
<feFlood flood-opacity="0" result="BackgroundImageFix"/>
<feColorMatrix in="SourceAlpha" type="matrix" values="0 0 0 0 0 0 0 0 0 0 0 0 0 0 0 0 0 0 127 0" result="hardAlpha"/>
<feOffset/>
<feGaussianBlur stdDeviation="7"/>
<feComposite in2="hardAlpha" operator="out"/>
<feColorMatrix type="matrix" values="0 0 0 0 0.27106 0 0 0 0 0.291722 0 0 0 0 0.320993 0 0 0 0.12 0"/>
<feBlend mode="normal" in2="BackgroundImageFix" result="effect1_dropShadow_152_3544"/>
<feBlend mode="normal" in="SourceGraphic" in2="effect1_dropShadow_152_3544" result="shape"/>
</filter>
<filter id="filter2_d_152_3544" x="270" y="241" width="159" height="58" filterUnits="userSpaceOnUse" color-interpolation-filters="sRGB">
<feFlood flood-opacity="0" result="BackgroundImageFix"/>
<feColorMatrix in="SourceAlpha" type="matrix" values="0 0 0 0 0 0 0 0 0 0 0 0 0 0 0 0 0 0 127 0" result="hardAlpha"/>
<feOffset/>
<feGaussianBlur stdDeviation="7"/>
<feComposite in2="hardAlpha" operator="out"/>
<feColorMatrix type="matrix" values="0 0 0 0 0.27106 0 0 0 0 0.291722 0 0 0 0 0.320993 0 0 0 0.12 0"/>
<feBlend mode="normal" in2="BackgroundImageFix" result="effect1_dropShadow_152_3544"/>
<feBlend mode="normal" in="SourceGraphic" in2="effect1_dropShadow_152_3544" result="shape"/>
</filter>
</defs>
</svg>
