<svg width="341" height="35" viewBox="0 0 341 35" fill="none" xmlns="http://www.w3.org/2000/svg">
<path d="M1.036 11V1.2H2.212V5.526H7.294V1.2H8.47V11H7.294V6.492H2.212V11H1.036ZM13.59 11.168C12.9273 11.168 12.3393 11.0187 11.826 10.72C11.3126 10.412 10.9066 9.98733 10.608 9.446C10.3186 8.90467 10.174 8.26533 10.174 7.528C10.174 6.8 10.3186 6.16533 10.608 5.624C10.8973 5.07333 11.2986 4.64867 11.812 4.35C12.3346 4.042 12.9366 3.888 13.618 3.888C14.29 3.888 14.8686 4.042 15.354 4.35C15.8486 4.64867 16.2266 5.04533 16.488 5.54C16.7493 6.03467 16.88 6.56667 16.88 7.136C16.88 7.23867 16.8753 7.34133 16.866 7.444C16.866 7.54667 16.866 7.66333 16.866 7.794H11.336C11.364 8.326 11.4853 8.76933 11.7 9.124C11.924 9.46933 12.1993 9.73067 12.526 9.908C12.862 10.0853 13.2166 10.174 13.59 10.174C14.0753 10.174 14.4813 10.062 14.808 9.838C15.1346 9.614 15.3726 9.31067 15.522 8.928H16.684C16.4973 9.572 16.138 10.1087 15.606 10.538C15.0833 10.958 14.4113 11.168 13.59 11.168ZM13.59 4.882C13.03 4.882 12.5306 5.05467 12.092 5.4C11.6626 5.736 11.4153 6.23067 11.35 6.884H15.718C15.69 6.25867 15.4753 5.76867 15.074 5.414C14.6726 5.05933 14.178 4.882 13.59 4.882ZM18.4387 11V4.056H19.5027L19.6007 5.386C19.8153 4.92867 20.142 4.56467 20.5807 4.294C21.0193 4.02333 21.5607 3.888 22.2047 3.888V5.12H21.8827C21.472 5.12 21.094 5.19467 20.7487 5.344C20.4033 5.484 20.128 5.72667 19.9227 6.072C19.7173 6.41733 19.6147 6.89333 19.6147 7.5V11H18.4387ZM26.3868 11.168C25.7242 11.168 25.1362 11.0187 24.6228 10.72C24.1095 10.412 23.7035 9.98733 23.4048 9.446C23.1155 8.90467 22.9708 8.26533 22.9708 7.528C22.9708 6.8 23.1155 6.16533 23.4048 5.624C23.6942 5.07333 24.0955 4.64867 24.6088 4.35C25.1315 4.042 25.7335 3.888 26.4148 3.888C27.0868 3.888 27.6655 4.042 28.1508 4.35C28.6455 4.64867 29.0235 5.04533 29.2848 5.54C29.5462 6.03467 29.6768 6.56667 29.6768 7.136C29.6768 7.23867 29.6722 7.34133 29.6628 7.444C29.6628 7.54667 29.6628 7.66333 29.6628 7.794H24.1328C24.1608 8.326 24.2822 8.76933 24.4968 9.124C24.7208 9.46933 24.9962 9.73067 25.3228 9.908C25.6588 10.0853 26.0135 10.174 26.3868 10.174C26.8722 10.174 27.2782 10.062 27.6048 9.838C27.9315 9.614 28.1695 9.31067 28.3188 8.928H29.4808C29.2942 9.572 28.9348 10.1087 28.4028 10.538C27.8802 10.958 27.2082 11.168 26.3868 11.168ZM26.3868 4.882C25.8268 4.882 25.3275 5.05467 24.8888 5.4C24.4595 5.736 24.2122 6.23067 24.1468 6.884H28.5148C28.4868 6.25867 28.2722 5.76867 27.8708 5.414C27.4695 5.05933 26.9748 4.882 26.3868 4.882ZM35.6966 14.08L37.4186 10.328H37.0126L34.2546 4.056H35.5286L37.8246 9.46L40.2606 4.056H41.4786L36.9286 14.08H35.6966ZM45.2277 11.168C44.5743 11.168 43.9863 11.0187 43.4637 10.72C42.941 10.4213 42.5257 10.0013 42.2177 9.46C41.919 8.90933 41.7697 8.26533 41.7697 7.528C41.7697 6.79067 41.9237 6.15133 42.2317 5.61C42.5397 5.05933 42.955 4.63467 43.4777 4.336C44.0097 4.03733 44.6023 3.888 45.2557 3.888C45.909 3.888 46.497 4.03733 47.0197 4.336C47.5423 4.63467 47.953 5.05933 48.2517 5.61C48.5597 6.15133 48.7137 6.79067 48.7137 7.528C48.7137 8.26533 48.5597 8.90933 48.2517 9.46C47.9437 10.0013 47.5237 10.4213 46.9917 10.72C46.469 11.0187 45.881 11.168 45.2277 11.168ZM45.2277 10.16C45.629 10.16 46.0023 10.062 46.3477 9.866C46.693 9.67 46.973 9.376 47.1877 8.984C47.4023 8.592 47.5097 8.10667 47.5097 7.528C47.5097 6.94933 47.4023 6.464 47.1877 6.072C46.9823 5.68 46.707 5.386 46.3617 5.19C46.0163 4.994 45.6477 4.896 45.2557 4.896C44.8543 4.896 44.481 4.994 44.1357 5.19C43.7903 5.386 43.5103 5.68 43.2957 6.072C43.081 6.464 42.9737 6.94933 42.9737 7.528C42.9737 8.10667 43.081 8.592 43.2957 8.984C43.5103 9.376 43.7857 9.67 44.1217 9.866C44.467 10.062 44.8357 10.16 45.2277 10.16ZM52.8828 11.168C52.0615 11.168 51.4081 10.9207 50.9228 10.426C50.4375 9.922 50.1948 9.152 50.1948 8.116V4.056H51.3708V7.99C51.3708 9.43667 51.9635 10.16 53.1488 10.16C53.7555 10.16 54.2548 9.94533 54.6468 9.516C55.0481 9.07733 55.2488 8.45667 55.2488 7.654V4.056H56.4248V11H55.3608L55.2768 9.754C55.0621 10.1927 54.7401 10.538 54.3108 10.79C53.8908 11.042 53.4148 11.168 52.8828 11.168ZM65.2576 11.168C64.5949 11.168 63.9976 11.0187 63.4656 10.72C62.9429 10.412 62.5276 9.98733 62.2196 9.446C61.9209 8.89533 61.7716 8.256 61.7716 7.528C61.7716 6.8 61.9209 6.16533 62.2196 5.624C62.5276 5.07333 62.9429 4.64867 63.4656 4.35C63.9976 4.042 64.5949 3.888 65.2576 3.888C66.0789 3.888 66.7696 4.10267 67.3296 4.532C67.8989 4.96133 68.2583 5.53533 68.4076 6.254H67.2036C67.1103 5.82467 66.8816 5.49333 66.5176 5.26C66.1536 5.01733 65.7289 4.896 65.2436 4.896C64.8516 4.896 64.4829 4.994 64.1376 5.19C63.7923 5.386 63.5123 5.68 63.2976 6.072C63.0829 6.464 62.9756 6.94933 62.9756 7.528C62.9756 8.10667 63.0829 8.592 63.2976 8.984C63.5123 9.376 63.7923 9.67467 64.1376 9.88C64.4829 10.076 64.8516 10.174 65.2436 10.174C65.7289 10.174 66.1536 10.0573 66.5176 9.824C66.8816 9.58133 67.1103 9.24067 67.2036 8.802H68.4076C68.2676 9.502 67.9129 10.0713 67.3436 10.51C66.7743 10.9487 66.0789 11.168 65.2576 11.168ZM72.36 11.168C71.7813 11.168 71.3007 11.07 70.918 10.874C70.5353 10.678 70.2507 10.4167 70.064 10.09C69.8773 9.76333 69.784 9.40867 69.784 9.026C69.784 8.31667 70.0547 7.77067 70.596 7.388C71.1373 7.00533 71.8747 6.814 72.808 6.814H74.684V6.73C74.684 6.12333 74.5253 5.666 74.208 5.358C73.8907 5.04067 73.466 4.882 72.934 4.882C72.4767 4.882 72.08 4.99867 71.744 5.232C71.4173 5.456 71.212 5.78733 71.128 6.226H69.924C69.9707 5.722 70.1387 5.29733 70.428 4.952C70.7267 4.60667 71.0953 4.34533 71.534 4.168C71.9727 3.98133 72.4393 3.888 72.934 3.888C73.9047 3.888 74.6327 4.14933 75.118 4.672C75.6127 5.18533 75.86 5.87133 75.86 6.73V11H74.81L74.74 9.754C74.544 10.146 74.2547 10.482 73.872 10.762C73.4987 11.0327 72.9947 11.168 72.36 11.168ZM72.542 10.174C72.99 10.174 73.3727 10.0573 73.69 9.824C74.0167 9.59067 74.264 9.28733 74.432 8.914C74.6 8.54067 74.684 8.14867 74.684 7.738V7.724H72.906C72.2153 7.724 71.7253 7.84533 71.436 8.088C71.156 8.32133 71.016 8.61533 71.016 8.97C71.016 9.334 71.1467 9.628 71.408 9.852C71.6787 10.0667 72.0567 10.174 72.542 10.174ZM77.6242 11V4.056H78.6882L78.7582 5.302C78.9822 4.86333 79.3042 4.518 79.7242 4.266C80.1442 4.014 80.6202 3.888 81.1522 3.888C81.9735 3.888 82.6269 4.14 83.1122 4.644C83.6069 5.13867 83.8542 5.904 83.8542 6.94V11H82.6782V7.066C82.6782 5.61933 82.0809 4.896 80.8862 4.896C80.2889 4.896 79.7895 5.11533 79.3882 5.554C78.9962 5.98333 78.8002 6.59933 78.8002 7.402V11H77.6242ZM91.343 11L88.711 4.056H89.943L92.029 9.866L94.129 4.056H95.333L92.701 11H91.343ZM97.3558 2.516C97.1224 2.516 96.9264 2.44133 96.7678 2.292C96.6184 2.13333 96.5438 1.93733 96.5438 1.704C96.5438 1.48 96.6184 1.29333 96.7678 1.144C96.9264 0.994666 97.1224 0.92 97.3558 0.92C97.5798 0.92 97.7711 0.994666 97.9298 1.144C98.0884 1.29333 98.1678 1.48 98.1678 1.704C98.1678 1.93733 98.0884 2.13333 97.9298 2.292C97.7711 2.44133 97.5798 2.516 97.3558 2.516ZM96.7678 11V4.056H97.9438V11H96.7678ZM103.113 11.168C102.451 11.168 101.863 11.0187 101.349 10.72C100.836 10.412 100.43 9.98733 100.131 9.446C99.8421 8.90467 99.6974 8.26533 99.6974 7.528C99.6974 6.8 99.8421 6.16533 100.131 5.624C100.421 5.07333 100.822 4.64867 101.335 4.35C101.858 4.042 102.46 3.888 103.141 3.888C103.813 3.888 104.392 4.042 104.877 4.35C105.372 4.64867 105.75 5.04533 106.011 5.54C106.273 6.03467 106.403 6.56667 106.403 7.136C106.403 7.23867 106.399 7.34133 106.389 7.444C106.389 7.54667 106.389 7.66333 106.389 7.794H100.859C100.887 8.326 101.009 8.76933 101.223 9.124C101.447 9.46933 101.723 9.73067 102.049 9.908C102.385 10.0853 102.74 10.174 103.113 10.174C103.599 10.174 104.005 10.062 104.331 9.838C104.658 9.614 104.896 9.31067 105.045 8.928H106.207C106.021 9.572 105.661 10.1087 105.129 10.538C104.607 10.958 103.935 11.168 103.113 11.168ZM103.113 4.882C102.553 4.882 102.054 5.05467 101.615 5.4C101.186 5.736 100.939 6.23067 100.873 6.884H105.241C105.213 6.25867 104.999 5.76867 104.597 5.414C104.196 5.05933 103.701 4.882 103.113 4.882ZM109.089 11L107.059 4.056H108.235L109.705 9.502L111.329 4.056H112.659L114.297 9.502L115.753 4.056H116.943L114.913 11H113.709L112.001 5.274L110.293 11H109.089ZM124.258 11.168C123.68 11.168 123.199 11.07 122.816 10.874C122.434 10.678 122.149 10.4167 121.962 10.09C121.776 9.76333 121.682 9.40867 121.682 9.026C121.682 8.31667 121.953 7.77067 122.494 7.388C123.036 7.00533 123.773 6.814 124.706 6.814H126.582V6.73C126.582 6.12333 126.424 5.666 126.106 5.358C125.789 5.04067 125.364 4.882 124.832 4.882C124.375 4.882 123.978 4.99867 123.642 5.232C123.316 5.456 123.11 5.78733 123.026 6.226H121.822C121.869 5.722 122.037 5.29733 122.326 4.952C122.625 4.60667 122.994 4.34533 123.432 4.168C123.871 3.98133 124.338 3.888 124.832 3.888C125.803 3.888 126.531 4.14933 127.016 4.672C127.511 5.18533 127.758 5.87133 127.758 6.73V11H126.708L126.638 9.754C126.442 10.146 126.153 10.482 125.77 10.762C125.397 11.0327 124.893 11.168 124.258 11.168ZM124.44 10.174C124.888 10.174 125.271 10.0573 125.588 9.824C125.915 9.59067 126.162 9.28733 126.33 8.914C126.498 8.54067 126.582 8.14867 126.582 7.738V7.724H124.804C124.114 7.724 123.624 7.84533 123.334 8.088C123.054 8.32133 122.914 8.61533 122.914 8.97C122.914 9.334 123.045 9.628 123.306 9.852C123.577 10.0667 123.955 10.174 124.44 10.174ZM129.523 11V4.056H130.587L130.657 5.302C130.881 4.86333 131.203 4.518 131.623 4.266C132.043 4.014 132.519 3.888 133.051 3.888C133.872 3.888 134.525 4.14 135.011 4.644C135.505 5.13867 135.753 5.904 135.753 6.94V11H134.577V7.066C134.577 5.61933 133.979 4.896 132.785 4.896C132.187 4.896 131.688 5.11533 131.287 5.554C130.895 5.98333 130.699 6.59933 130.699 7.402V11H129.523ZM139.844 11.168C139.266 11.168 138.785 11.07 138.402 10.874C138.02 10.678 137.735 10.4167 137.548 10.09C137.362 9.76333 137.268 9.40867 137.268 9.026C137.268 8.31667 137.539 7.77067 138.08 7.388C138.622 7.00533 139.359 6.814 140.292 6.814H142.168V6.73C142.168 6.12333 142.01 5.666 141.692 5.358C141.375 5.04067 140.95 4.882 140.418 4.882C139.961 4.882 139.564 4.99867 139.228 5.232C138.902 5.456 138.696 5.78733 138.612 6.226H137.408C137.455 5.722 137.623 5.29733 137.912 4.952C138.211 4.60667 138.58 4.34533 139.018 4.168C139.457 3.98133 139.924 3.888 140.418 3.888C141.389 3.888 142.117 4.14933 142.602 4.672C143.097 5.18533 143.344 5.87133 143.344 6.73V11H142.294L142.224 9.754C142.028 10.146 141.739 10.482 141.356 10.762C140.983 11.0327 140.479 11.168 139.844 11.168ZM140.026 10.174C140.474 10.174 140.857 10.0573 141.174 9.824C141.501 9.59067 141.748 9.28733 141.916 8.914C142.084 8.54067 142.168 8.14867 142.168 7.738V7.724H140.39C139.7 7.724 139.21 7.84533 138.92 8.088C138.64 8.32133 138.5 8.61533 138.5 8.97C138.5 9.334 138.631 9.628 138.892 9.852C139.163 10.0667 139.541 10.174 140.026 10.174ZM145.109 11V0.92H146.285V11H145.109ZM148.968 14.08L150.69 10.328H150.284L147.526 4.056H148.8L151.096 9.46L153.532 4.056H154.75L150.2 14.08H148.968ZM158.735 11C158.101 11 157.601 10.846 157.237 10.538C156.873 10.23 156.691 9.67467 156.691 8.872V5.05H155.487V4.056H156.691L156.845 2.39H157.867V4.056H159.911V5.05H157.867V8.872C157.867 9.31067 157.956 9.60933 158.133 9.768C158.311 9.91733 158.623 9.992 159.071 9.992H159.799V11H158.735ZM162.119 2.516C161.886 2.516 161.69 2.44133 161.531 2.292C161.382 2.13333 161.307 1.93733 161.307 1.704C161.307 1.48 161.382 1.29333 161.531 1.144C161.69 0.994666 161.886 0.92 162.119 0.92C162.343 0.92 162.535 0.994666 162.693 1.144C162.852 1.29333 162.931 1.48 162.931 1.704C162.931 1.93733 162.852 2.13333 162.693 2.292C162.535 2.44133 162.343 2.516 162.119 2.516ZM161.531 11V4.056H162.707V11H161.531ZM167.947 11.168C167.284 11.168 166.687 11.0187 166.155 10.72C165.632 10.412 165.217 9.98733 164.909 9.446C164.61 8.89533 164.461 8.256 164.461 7.528C164.461 6.8 164.61 6.16533 164.909 5.624C165.217 5.07333 165.632 4.64867 166.155 4.35C166.687 4.042 167.284 3.888 167.947 3.888C168.768 3.888 169.459 4.10267 170.019 4.532C170.588 4.96133 170.948 5.53533 171.097 6.254H169.893C169.8 5.82467 169.571 5.49333 169.207 5.26C168.843 5.01733 168.418 4.896 167.933 4.896C167.541 4.896 167.172 4.994 166.827 5.19C166.482 5.386 166.202 5.68 165.987 6.072C165.772 6.464 165.665 6.94933 165.665 7.528C165.665 8.10667 165.772 8.592 165.987 8.984C166.202 9.376 166.482 9.67467 166.827 9.88C167.172 10.076 167.541 10.174 167.933 10.174C168.418 10.174 168.843 10.0573 169.207 9.824C169.571 9.58133 169.8 9.24067 169.893 8.802H171.097C170.957 9.502 170.602 10.0713 170.033 10.51C169.464 10.9487 168.768 11.168 167.947 11.168ZM175.399 11.168C174.569 11.168 173.878 10.958 173.327 10.538C172.777 10.118 172.455 9.54867 172.361 8.83H173.565C173.64 9.194 173.831 9.51133 174.139 9.782C174.457 10.0433 174.881 10.174 175.413 10.174C175.908 10.174 176.272 10.0713 176.505 9.866C176.739 9.65133 176.855 9.39933 176.855 9.11C176.855 8.69 176.701 8.41 176.393 8.27C176.095 8.13 175.67 8.004 175.119 7.892C174.746 7.81733 174.373 7.71 173.999 7.57C173.626 7.43 173.313 7.234 173.061 6.982C172.809 6.72067 172.683 6.38 172.683 5.96C172.683 5.35333 172.907 4.85867 173.355 4.476C173.813 4.084 174.429 3.888 175.203 3.888C175.941 3.888 176.543 4.07467 177.009 4.448C177.485 4.812 177.761 5.33467 177.835 6.016H176.673C176.627 5.66133 176.473 5.386 176.211 5.19C175.959 4.98467 175.619 4.882 175.189 4.882C174.769 4.882 174.443 4.97067 174.209 5.148C173.985 5.32533 173.873 5.55867 173.873 5.848C173.873 6.128 174.018 6.34733 174.307 6.506C174.606 6.66467 175.007 6.8 175.511 6.912C175.941 7.00533 176.347 7.122 176.729 7.262C177.121 7.39267 177.439 7.59333 177.681 7.864C177.933 8.12533 178.059 8.508 178.059 9.012C178.069 9.63733 177.831 10.1553 177.345 10.566C176.869 10.9673 176.221 11.168 175.399 11.168ZM183.823 11V5.05H182.773V4.056H183.823V2.852C183.823 2.18 183.991 1.69 184.327 1.382C184.663 1.074 185.153 0.92 185.797 0.92H186.497V1.928H185.979C185.624 1.928 185.372 2.00267 185.223 2.152C185.073 2.292 184.999 2.53467 184.999 2.88V4.056H186.707V5.05H184.999V11H183.823ZM190.997 11.168C190.344 11.168 189.756 11.0187 189.233 10.72C188.711 10.4213 188.295 10.0013 187.987 9.46C187.689 8.90933 187.539 8.26533 187.539 7.528C187.539 6.79067 187.693 6.15133 188.001 5.61C188.309 5.05933 188.725 4.63467 189.247 4.336C189.779 4.03733 190.372 3.888 191.025 3.888C191.679 3.888 192.267 4.03733 192.789 4.336C193.312 4.63467 193.723 5.05933 194.021 5.61C194.329 6.15133 194.483 6.79067 194.483 7.528C194.483 8.26533 194.329 8.90933 194.021 9.46C193.713 10.0013 193.293 10.4213 192.761 10.72C192.239 11.0187 191.651 11.168 190.997 11.168ZM190.997 10.16C191.399 10.16 191.772 10.062 192.117 9.866C192.463 9.67 192.743 9.376 192.957 8.984C193.172 8.592 193.279 8.10667 193.279 7.528C193.279 6.94933 193.172 6.464 192.957 6.072C192.752 5.68 192.477 5.386 192.131 5.19C191.786 4.994 191.417 4.896 191.025 4.896C190.624 4.896 190.251 4.994 189.905 5.19C189.56 5.386 189.28 5.68 189.065 6.072C188.851 6.464 188.743 6.94933 188.743 7.528C188.743 8.10667 188.851 8.592 189.065 8.984C189.28 9.376 189.555 9.67 189.891 9.866C190.237 10.062 190.605 10.16 190.997 10.16ZM196.118 11V4.056H197.182L197.28 5.386C197.495 4.92867 197.822 4.56467 198.26 4.294C198.699 4.02333 199.24 3.888 199.884 3.888V5.12H199.562C199.152 5.12 198.774 5.19467 198.428 5.344C198.083 5.484 197.808 5.72667 197.602 6.072C197.397 6.41733 197.294 6.89333 197.294 7.5V11H196.118ZM207.219 11.168C206.641 11.168 206.16 11.07 205.777 10.874C205.395 10.678 205.11 10.4167 204.923 10.09C204.737 9.76333 204.643 9.40867 204.643 9.026C204.643 8.31667 204.914 7.77067 205.455 7.388C205.997 7.00533 206.734 6.814 207.667 6.814H209.543V6.73C209.543 6.12333 209.385 5.666 209.067 5.358C208.75 5.04067 208.325 4.882 207.793 4.882C207.336 4.882 206.939 4.99867 206.603 5.232C206.277 5.456 206.071 5.78733 205.987 6.226H204.783C204.83 5.722 204.998 5.29733 205.287 4.952C205.586 4.60667 205.955 4.34533 206.393 4.168C206.832 3.98133 207.299 3.888 207.793 3.888C208.764 3.888 209.492 4.14933 209.977 4.672C210.472 5.18533 210.719 5.87133 210.719 6.73V11H209.669L209.599 9.754C209.403 10.146 209.114 10.482 208.731 10.762C208.358 11.0327 207.854 11.168 207.219 11.168ZM207.401 10.174C207.849 10.174 208.232 10.0573 208.549 9.824C208.876 9.59067 209.123 9.28733 209.291 8.914C209.459 8.54067 209.543 8.14867 209.543 7.738V7.724H207.765C207.075 7.724 206.585 7.84533 206.295 8.088C206.015 8.32133 205.875 8.61533 205.875 8.97C205.875 9.334 206.006 9.628 206.267 9.852C206.538 10.0667 206.916 10.174 207.401 10.174ZM212.484 11V0.92H213.66V11H212.484ZM215.587 11V0.92H216.763V11H215.587ZM225.588 11.168C224.925 11.168 224.328 11.0187 223.796 10.72C223.273 10.412 222.858 9.98733 222.55 9.446C222.251 8.89533 222.102 8.256 222.102 7.528C222.102 6.8 222.251 6.16533 222.55 5.624C222.858 5.07333 223.273 4.64867 223.796 4.35C224.328 4.042 224.925 3.888 225.588 3.888C226.409 3.888 227.1 4.10267 227.66 4.532C228.229 4.96133 228.588 5.53533 228.738 6.254H227.534C227.44 5.82467 227.212 5.49333 226.848 5.26C226.484 5.01733 226.059 4.896 225.574 4.896C225.182 4.896 224.813 4.994 224.468 5.19C224.122 5.386 223.842 5.68 223.628 6.072C223.413 6.464 223.306 6.94933 223.306 7.528C223.306 8.10667 223.413 8.592 223.628 8.984C223.842 9.376 224.122 9.67467 224.468 9.88C224.813 10.076 225.182 10.174 225.574 10.174C226.059 10.174 226.484 10.0573 226.848 9.824C227.212 9.58133 227.44 9.24067 227.534 8.802H228.738C228.598 9.502 228.243 10.0713 227.674 10.51C227.104 10.9487 226.409 11.168 225.588 11.168ZM232.69 11.168C232.111 11.168 231.631 11.07 231.248 10.874C230.865 10.678 230.581 10.4167 230.394 10.09C230.207 9.76333 230.114 9.40867 230.114 9.026C230.114 8.31667 230.385 7.77067 230.926 7.388C231.467 7.00533 232.205 6.814 233.138 6.814H235.014V6.73C235.014 6.12333 234.855 5.666 234.538 5.358C234.221 5.04067 233.796 4.882 233.264 4.882C232.807 4.882 232.41 4.99867 232.074 5.232C231.747 5.456 231.542 5.78733 231.458 6.226H230.254C230.301 5.722 230.469 5.29733 230.758 4.952C231.057 4.60667 231.425 4.34533 231.864 4.168C232.303 3.98133 232.769 3.888 233.264 3.888C234.235 3.888 234.963 4.14933 235.448 4.672C235.943 5.18533 236.19 5.87133 236.19 6.73V11H235.14L235.07 9.754C234.874 10.146 234.585 10.482 234.202 10.762C233.829 11.0327 233.325 11.168 232.69 11.168ZM232.872 10.174C233.32 10.174 233.703 10.0573 234.02 9.824C234.347 9.59067 234.594 9.28733 234.762 8.914C234.93 8.54067 235.014 8.14867 235.014 7.738V7.724H233.236C232.545 7.724 232.055 7.84533 231.766 8.088C231.486 8.32133 231.346 8.61533 231.346 8.97C231.346 9.334 231.477 9.628 231.738 9.852C232.009 10.0667 232.387 10.174 232.872 10.174ZM237.954 11V4.056H239.018L239.102 5.064C239.326 4.69067 239.625 4.40133 239.998 4.196C240.372 3.99067 240.792 3.888 241.258 3.888C241.809 3.888 242.28 4 242.672 4.224C243.074 4.448 243.382 4.78867 243.596 5.246C243.839 4.826 244.17 4.49467 244.59 4.252C245.02 4.00933 245.482 3.888 245.976 3.888C246.807 3.888 247.47 4.14 247.964 4.644C248.459 5.13867 248.706 5.904 248.706 6.94V11H247.544V7.066C247.544 6.34733 247.4 5.806 247.11 5.442C246.821 5.078 246.406 4.896 245.864 4.896C245.304 4.896 244.838 5.11533 244.464 5.554C244.1 5.98333 243.918 6.59933 243.918 7.402V11H242.742V7.066C242.742 6.34733 242.598 5.806 242.308 5.442C242.019 5.078 241.604 4.896 241.062 4.896C240.512 4.896 240.05 5.11533 239.676 5.554C239.312 5.98333 239.13 6.59933 239.13 7.402V11H237.954ZM250.478 14.08V4.056H251.542L251.654 5.204C251.878 4.868 252.195 4.56467 252.606 4.294C253.026 4.02333 253.558 3.888 254.202 3.888C254.892 3.888 255.494 4.04667 256.008 4.364C256.521 4.68133 256.918 5.11533 257.198 5.666C257.487 6.21667 257.632 6.842 257.632 7.542C257.632 8.242 257.487 8.86733 257.198 9.418C256.918 9.95933 256.516 10.3887 255.994 10.706C255.48 11.014 254.878 11.168 254.188 11.168C253.618 11.168 253.11 11.0513 252.662 10.818C252.223 10.5847 251.887 10.258 251.654 9.838V14.08H250.478ZM254.062 10.146C254.528 10.146 254.939 10.0387 255.294 9.824C255.648 9.6 255.928 9.292 256.134 8.9C256.339 8.508 256.442 8.05067 256.442 7.528C256.442 7.00533 256.339 6.548 256.134 6.156C255.928 5.764 255.648 5.46067 255.294 5.246C254.939 5.022 254.528 4.91 254.062 4.91C253.595 4.91 253.184 5.022 252.83 5.246C252.475 5.46067 252.195 5.764 251.99 6.156C251.784 6.548 251.682 7.00533 251.682 7.528C251.682 8.05067 251.784 8.508 251.99 8.9C252.195 9.292 252.475 9.6 252.83 9.824C253.184 10.0387 253.595 10.146 254.062 10.146ZM261.579 11.168C261 11.168 260.519 11.07 260.137 10.874C259.754 10.678 259.469 10.4167 259.283 10.09C259.096 9.76333 259.003 9.40867 259.003 9.026C259.003 8.31667 259.273 7.77067 259.815 7.388C260.356 7.00533 261.093 6.814 262.027 6.814H263.903V6.73C263.903 6.12333 263.744 5.666 263.427 5.358C263.109 5.04067 262.685 4.882 262.153 4.882C261.695 4.882 261.299 4.99867 260.963 5.232C260.636 5.456 260.431 5.78733 260.347 6.226H259.143C259.189 5.722 259.357 5.29733 259.647 4.952C259.945 4.60667 260.314 4.34533 260.753 4.168C261.191 3.98133 261.658 3.888 262.153 3.888C263.123 3.888 263.851 4.14933 264.337 4.672C264.831 5.18533 265.079 5.87133 265.079 6.73V11H264.029L263.959 9.754C263.763 10.146 263.473 10.482 263.091 10.762C262.717 11.0327 262.213 11.168 261.579 11.168ZM261.761 10.174C262.209 10.174 262.591 10.0573 262.909 9.824C263.235 9.59067 263.483 9.28733 263.651 8.914C263.819 8.54067 263.903 8.14867 263.903 7.738V7.724H262.125C261.434 7.724 260.944 7.84533 260.655 8.088C260.375 8.32133 260.235 8.61533 260.235 8.97C260.235 9.334 260.365 9.628 260.627 9.852C260.897 10.0667 261.275 10.174 261.761 10.174ZM267.557 2.516C267.324 2.516 267.128 2.44133 266.969 2.292C266.82 2.13333 266.745 1.93733 266.745 1.704C266.745 1.48 266.82 1.29333 266.969 1.144C267.128 0.994666 267.324 0.92 267.557 0.92C267.781 0.92 267.972 0.994666 268.131 1.144C268.29 1.29333 268.369 1.48 268.369 1.704C268.369 1.93733 268.29 2.13333 268.131 2.292C267.972 2.44133 267.781 2.516 267.557 2.516ZM266.969 11V4.056H268.145V11H266.969ZM272.937 8.816C272.545 8.816 272.185 8.76467 271.859 8.662L271.159 9.32C271.261 9.39467 271.387 9.46 271.537 9.516C271.695 9.56267 271.919 9.60933 272.209 9.656C272.498 9.69333 272.904 9.73533 273.427 9.782C274.36 9.84733 275.027 10.062 275.429 10.426C275.83 10.79 276.031 11.266 276.031 11.854C276.031 12.2553 275.919 12.638 275.695 13.002C275.48 13.366 275.144 13.6647 274.687 13.898C274.239 14.1313 273.66 14.248 272.951 14.248C272.325 14.248 271.77 14.164 271.285 13.996C270.799 13.8373 270.421 13.59 270.151 13.254C269.88 12.9273 269.745 12.512 269.745 12.008C269.745 11.7467 269.815 11.462 269.955 11.154C270.095 10.8553 270.356 10.5707 270.739 10.3C270.533 10.216 270.356 10.1273 270.207 10.034C270.067 9.93133 269.936 9.81933 269.815 9.698V9.376L271.005 8.2C270.454 7.73333 270.179 7.11733 270.179 6.352C270.179 5.89467 270.286 5.47933 270.501 5.106C270.715 4.73267 271.028 4.43867 271.439 4.224C271.849 4 272.349 3.888 272.937 3.888C273.338 3.888 273.702 3.944 274.029 4.056H276.591V4.938L275.289 4.994C275.559 5.386 275.695 5.83867 275.695 6.352C275.695 6.80933 275.583 7.22467 275.359 7.598C275.144 7.97133 274.831 8.27 274.421 8.494C274.019 8.70867 273.525 8.816 272.937 8.816ZM272.937 7.85C273.431 7.85 273.823 7.724 274.113 7.472C274.411 7.21067 274.561 6.83733 274.561 6.352C274.561 5.876 274.411 5.512 274.113 5.26C273.823 4.99867 273.431 4.868 272.937 4.868C272.433 4.868 272.031 4.99867 271.733 5.26C271.443 5.512 271.299 5.876 271.299 6.352C271.299 6.83733 271.443 7.21067 271.733 7.472C272.031 7.724 272.433 7.85 272.937 7.85ZM270.893 11.896C270.893 12.3627 271.089 12.708 271.481 12.932C271.873 13.1653 272.363 13.282 272.951 13.282C273.529 13.282 273.991 13.156 274.337 12.904C274.691 12.652 274.869 12.316 274.869 11.896C274.869 11.5973 274.747 11.336 274.505 11.112C274.262 10.8973 273.814 10.7713 273.161 10.734C272.647 10.6967 272.204 10.65 271.831 10.594C271.448 10.7993 271.196 11.0187 271.075 11.252C270.953 11.4947 270.893 11.7093 270.893 11.896ZM277.917 11V4.056H278.981L279.051 5.302C279.275 4.86333 279.597 4.518 280.017 4.266C280.437 4.014 280.913 3.888 281.445 3.888C282.267 3.888 282.92 4.14 283.405 4.644C283.9 5.13867 284.147 5.904 284.147 6.94V11H282.971V7.066C282.971 5.61933 282.374 4.896 281.179 4.896C280.582 4.896 280.083 5.11533 279.681 5.554C279.289 5.98333 279.093 6.59933 279.093 7.402V11H277.917ZM288.589 11.168C287.758 11.168 287.068 10.958 286.517 10.538C285.966 10.118 285.644 9.54867 285.551 8.83H286.755C286.83 9.194 287.021 9.51133 287.329 9.782C287.646 10.0433 288.071 10.174 288.603 10.174C289.098 10.174 289.462 10.0713 289.695 9.866C289.928 9.65133 290.045 9.39933 290.045 9.11C290.045 8.69 289.891 8.41 289.583 8.27C289.284 8.13 288.86 8.004 288.309 7.892C287.936 7.81733 287.562 7.71 287.189 7.57C286.816 7.43 286.503 7.234 286.251 6.982C285.999 6.72067 285.873 6.38 285.873 5.96C285.873 5.35333 286.097 4.85867 286.545 4.476C287.002 4.084 287.618 3.888 288.393 3.888C289.13 3.888 289.732 4.07467 290.199 4.448C290.675 4.812 290.95 5.33467 291.025 6.016H289.863C289.816 5.66133 289.662 5.386 289.401 5.19C289.149 4.98467 288.808 4.882 288.379 4.882C287.959 4.882 287.632 4.97067 287.399 5.148C287.175 5.32533 287.063 5.55867 287.063 5.848C287.063 6.128 287.208 6.34733 287.497 6.506C287.796 6.66467 288.197 6.8 288.701 6.912C289.13 7.00533 289.536 7.122 289.919 7.262C290.311 7.39267 290.628 7.59333 290.871 7.864C291.123 8.12533 291.249 8.508 291.249 9.012C291.258 9.63733 291.02 10.1553 290.535 10.566C290.059 10.9673 289.41 11.168 288.589 11.168ZM291.991 12.666L292.803 9.572H294.021L292.803 12.666H291.991ZM301.124 11L298.492 4.056H299.724L301.81 9.866L303.91 4.056H305.114L302.482 11H301.124ZM307.137 2.516C306.904 2.516 306.708 2.44133 306.549 2.292C306.4 2.13333 306.325 1.93733 306.325 1.704C306.325 1.48 306.4 1.29333 306.549 1.144C306.708 0.994666 306.904 0.92 307.137 0.92C307.361 0.92 307.552 0.994666 307.711 1.144C307.87 1.29333 307.949 1.48 307.949 1.704C307.949 1.93733 307.87 2.13333 307.711 2.292C307.552 2.44133 307.361 2.516 307.137 2.516ZM306.549 11V4.056H307.725V11H306.549ZM312.895 11.168C312.232 11.168 311.644 11.0187 311.131 10.72C310.617 10.412 310.211 9.98733 309.913 9.446C309.623 8.90467 309.479 8.26533 309.479 7.528C309.479 6.8 309.623 6.16533 309.913 5.624C310.202 5.07333 310.603 4.64867 311.117 4.35C311.639 4.042 312.241 3.888 312.923 3.888C313.595 3.888 314.173 4.042 314.659 4.35C315.153 4.64867 315.531 5.04533 315.793 5.54C316.054 6.03467 316.185 6.56667 316.185 7.136C316.185 7.23867 316.18 7.34133 316.171 7.444C316.171 7.54667 316.171 7.66333 316.171 7.794H310.641C310.669 8.326 310.79 8.76933 311.005 9.124C311.229 9.46933 311.504 9.73067 311.831 9.908C312.167 10.0853 312.521 10.174 312.895 10.174C313.38 10.174 313.786 10.062 314.113 9.838C314.439 9.614 314.677 9.31067 314.827 8.928H315.989C315.802 9.572 315.443 10.1087 314.911 10.538C314.388 10.958 313.716 11.168 312.895 11.168ZM312.895 4.882C312.335 4.882 311.835 5.05467 311.397 5.4C310.967 5.736 310.72 6.23067 310.655 6.884H315.023C314.995 6.25867 314.78 5.76867 314.379 5.414C313.977 5.05933 313.483 4.882 312.895 4.882ZM318.87 11L316.84 4.056H318.016L319.486 9.502L321.11 4.056H322.44L324.078 9.502L325.534 4.056H326.724L324.694 11H323.49L321.782 5.274L320.074 11H318.87ZM334.698 11.168C334.026 11.168 333.433 11.0467 332.92 10.804C332.416 10.552 332.019 10.2067 331.73 9.768C331.45 9.32 331.31 8.79267 331.31 8.186C331.31 7.52333 331.501 6.93533 331.884 6.422C332.276 5.89933 332.84 5.48867 333.578 5.19C333.26 4.84467 333.032 4.518 332.892 4.21C332.752 3.89267 332.682 3.552 332.682 3.188C332.682 2.56267 332.901 2.04933 333.34 1.648C333.788 1.23733 334.399 1.032 335.174 1.032C335.678 1.032 336.116 1.13 336.49 1.326C336.863 1.51267 337.152 1.774 337.358 2.11C337.563 2.446 337.656 2.82867 337.638 3.258H336.476C336.485 2.838 336.354 2.52067 336.084 2.306C335.822 2.09133 335.519 1.984 335.174 1.984C334.754 1.984 334.427 2.096 334.194 2.32C333.96 2.544 333.844 2.82867 333.844 3.174C333.844 3.47267 333.923 3.762 334.082 4.042C334.25 4.322 334.497 4.63467 334.824 4.98L337.918 8.102C338.188 7.71 338.482 7.23867 338.8 6.688L339.234 5.932H340.48L339.864 7.024C339.453 7.76133 339.061 8.37733 338.688 8.872L340.802 11H339.318L338.016 9.684C337.521 10.216 337.008 10.5987 336.476 10.832C335.944 11.056 335.351 11.168 334.698 11.168ZM332.486 8.144C332.486 8.72267 332.691 9.20333 333.102 9.586C333.512 9.96867 334.049 10.16 334.712 10.16C335.206 10.16 335.654 10.0667 336.056 9.88C336.466 9.684 336.868 9.36667 337.26 8.928L334.292 5.918C333.676 6.16067 333.218 6.46867 332.92 6.842C332.63 7.21533 332.486 7.64933 332.486 8.144ZM0.966 31V24.056H2.03L2.114 25.064C2.338 24.6907 2.63667 24.4013 3.01 24.196C3.38333 23.9907 3.80333 23.888 4.27 23.888C4.82067 23.888 5.292 24 5.684 24.224C6.08533 24.448 6.39333 24.7887 6.608 25.246C6.85067 24.826 7.182 24.4947 7.602 24.252C8.03133 24.0093 8.49333 23.888 8.988 23.888C9.81867 23.888 10.4813 24.14 10.976 24.644C11.4707 25.1387 11.718 25.904 11.718 26.94V31H10.556V27.066C10.556 26.3473 10.4113 25.806 10.122 25.442C9.83267 25.078 9.41733 24.896 8.876 24.896C8.316 24.896 7.84933 25.1153 7.476 25.554C7.112 25.9833 6.93 26.5993 6.93 27.402V31H5.754V27.066C5.754 26.3473 5.60933 25.806 5.32 25.442C5.03067 25.078 4.61533 24.896 4.074 24.896C3.52333 24.896 3.06133 25.1153 2.688 25.554C2.324 25.9833 2.142 26.5993 2.142 27.402V31H0.966ZM15.7994 31.168C15.2208 31.168 14.7401 31.07 14.3574 30.874C13.9748 30.678 13.6901 30.4167 13.5034 30.09C13.3168 29.7633 13.2234 29.4087 13.2234 29.026C13.2234 28.3167 13.4941 27.7707 14.0354 27.388C14.5768 27.0053 15.3141 26.814 16.2474 26.814H18.1234V26.73C18.1234 26.1233 17.9648 25.666 17.6474 25.358C17.3301 25.0407 16.9054 24.882 16.3734 24.882C15.9161 24.882 15.5194 24.9987 15.1834 25.232C14.8568 25.456 14.6514 25.7873 14.5674 26.226H13.3634C13.4101 25.722 13.5781 25.2973 13.8674 24.952C14.1661 24.6067 14.5348 24.3453 14.9734 24.168C15.4121 23.9813 15.8788 23.888 16.3734 23.888C17.3441 23.888 18.0721 24.1493 18.5574 24.672C19.0521 25.1853 19.2994 25.8713 19.2994 26.73V31H18.2494L18.1794 29.754C17.9834 30.146 17.6941 30.482 17.3114 30.762C16.9381 31.0327 16.4341 31.168 15.7994 31.168ZM15.9814 30.174C16.4294 30.174 16.8121 30.0573 17.1294 29.824C17.4561 29.5907 17.7034 29.2873 17.8714 28.914C18.0394 28.5407 18.1234 28.1487 18.1234 27.738V27.724H16.3454C15.6548 27.724 15.1648 27.8453 14.8754 28.088C14.5954 28.3213 14.4554 28.6153 14.4554 28.97C14.4554 29.334 14.5861 29.628 14.8474 29.852C15.1181 30.0667 15.4961 30.174 15.9814 30.174ZM21.0637 31V24.056H22.1277L22.1977 25.302C22.4217 24.8633 22.7437 24.518 23.1637 24.266C23.5837 24.014 24.0597 23.888 24.5917 23.888C25.413 23.888 26.0663 24.14 26.5517 24.644C27.0463 25.1387 27.2937 25.904 27.2937 26.94V31H26.1177V27.066C26.1177 25.6193 25.5203 24.896 24.3257 24.896C23.7283 24.896 23.229 25.1153 22.8277 25.554C22.4357 25.9833 22.2397 26.5993 22.2397 27.402V31H21.0637ZM31.3854 31.168C30.8067 31.168 30.326 31.07 29.9434 30.874C29.5607 30.678 29.276 30.4167 29.0894 30.09C28.9027 29.7633 28.8094 29.4087 28.8094 29.026C28.8094 28.3167 29.08 27.7707 29.6214 27.388C30.1627 27.0053 30.9 26.814 31.8334 26.814H33.7094V26.73C33.7094 26.1233 33.5507 25.666 33.2334 25.358C32.916 25.0407 32.4914 24.882 31.9594 24.882C31.502 24.882 31.1054 24.9987 30.7694 25.232C30.4427 25.456 30.2374 25.7873 30.1534 26.226H28.9494C28.996 25.722 29.164 25.2973 29.4534 24.952C29.752 24.6067 30.1207 24.3453 30.5594 24.168C30.998 23.9813 31.4647 23.888 31.9594 23.888C32.93 23.888 33.658 24.1493 34.1434 24.672C34.638 25.1853 34.8854 25.8713 34.8854 26.73V31H33.8354L33.7654 29.754C33.5694 30.146 33.28 30.482 32.8974 30.762C32.524 31.0327 32.02 31.168 31.3854 31.168ZM31.5674 30.174C32.0154 30.174 32.398 30.0573 32.7154 29.824C33.042 29.5907 33.2894 29.2873 33.4574 28.914C33.6254 28.5407 33.7094 28.1487 33.7094 27.738V27.724H31.9314C31.2407 27.724 30.7507 27.8453 30.4614 28.088C30.1814 28.3213 30.0414 28.6153 30.0414 28.97C30.0414 29.334 30.172 29.628 30.4334 29.852C30.704 30.0667 31.082 30.174 31.5674 30.174ZM39.3936 28.816C39.0016 28.816 38.6423 28.7647 38.3156 28.662L37.6156 29.32C37.7183 29.3947 37.8443 29.46 37.9936 29.516C38.1523 29.5627 38.3763 29.6093 38.6656 29.656C38.9549 29.6933 39.3609 29.7353 39.8836 29.782C40.8169 29.8473 41.4843 30.062 41.8856 30.426C42.2869 30.79 42.4876 31.266 42.4876 31.854C42.4876 32.2553 42.3756 32.638 42.1516 33.002C41.9369 33.366 41.6009 33.6647 41.1436 33.898C40.6956 34.1313 40.1169 34.248 39.4076 34.248C38.7823 34.248 38.2269 34.164 37.7416 33.996C37.2563 33.8373 36.8783 33.59 36.6076 33.254C36.3369 32.9273 36.2016 32.512 36.2016 32.008C36.2016 31.7467 36.2716 31.462 36.4116 31.154C36.5516 30.8553 36.8129 30.5707 37.1956 30.3C36.9903 30.216 36.8129 30.1273 36.6636 30.034C36.5236 29.9313 36.3929 29.8193 36.2716 29.698V29.376L37.4616 28.2C36.9109 27.7333 36.6356 27.1173 36.6356 26.352C36.6356 25.8947 36.7429 25.4793 36.9576 25.106C37.1723 24.7327 37.4849 24.4387 37.8956 24.224C38.3063 24 38.8056 23.888 39.3936 23.888C39.7949 23.888 40.1589 23.944 40.4856 24.056H43.0476V24.938L41.7456 24.994C42.0163 25.386 42.1516 25.8387 42.1516 26.352C42.1516 26.8093 42.0396 27.2247 41.8156 27.598C41.6009 27.9713 41.2883 28.27 40.8776 28.494C40.4763 28.7087 39.9816 28.816 39.3936 28.816ZM39.3936 27.85C39.8883 27.85 40.2803 27.724 40.5696 27.472C40.8683 27.2107 41.0176 26.8373 41.0176 26.352C41.0176 25.876 40.8683 25.512 40.5696 25.26C40.2803 24.9987 39.8883 24.868 39.3936 24.868C38.8896 24.868 38.4883 24.9987 38.1896 25.26C37.9003 25.512 37.7556 25.876 37.7556 26.352C37.7556 26.8373 37.9003 27.2107 38.1896 27.472C38.4883 27.724 38.8896 27.85 39.3936 27.85ZM37.3496 31.896C37.3496 32.3627 37.5456 32.708 37.9376 32.932C38.3296 33.1653 38.8196 33.282 39.4076 33.282C39.9863 33.282 40.4483 33.156 40.7936 32.904C41.1483 32.652 41.3256 32.316 41.3256 31.896C41.3256 31.5973 41.2043 31.336 40.9616 31.112C40.7189 30.8973 40.2709 30.7713 39.6176 30.734C39.1043 30.6967 38.6609 30.65 38.2876 30.594C37.9049 30.7993 37.6529 31.0187 37.5316 31.252C37.4103 31.4947 37.3496 31.7093 37.3496 31.896ZM47.2228 31.168C46.5601 31.168 45.9721 31.0187 45.4588 30.72C44.9454 30.412 44.5394 29.9873 44.2408 29.446C43.9514 28.9047 43.8068 28.2653 43.8068 27.528C43.8068 26.8 43.9514 26.1653 44.2408 25.624C44.5301 25.0733 44.9314 24.6487 45.4448 24.35C45.9674 24.042 46.5694 23.888 47.2508 23.888C47.9228 23.888 48.5014 24.042 48.9868 24.35C49.4814 24.6487 49.8594 25.0453 50.1208 25.54C50.3821 26.0347 50.5128 26.5667 50.5128 27.136C50.5128 27.2387 50.5081 27.3413 50.4988 27.444C50.4988 27.5467 50.4988 27.6633 50.4988 27.794H44.9688C44.9968 28.326 45.1181 28.7693 45.3328 29.124C45.5568 29.4693 45.8321 29.7307 46.1588 29.908C46.4948 30.0853 46.8494 30.174 47.2228 30.174C47.7081 30.174 48.1141 30.062 48.4408 29.838C48.7674 29.614 49.0054 29.3107 49.1548 28.928H50.3168C50.1301 29.572 49.7708 30.1087 49.2388 30.538C48.7161 30.958 48.0441 31.168 47.2228 31.168ZM47.2228 24.882C46.6628 24.882 46.1634 25.0547 45.7248 25.4C45.2954 25.736 45.0481 26.2307 44.9828 26.884H49.3508C49.3228 26.2587 49.1081 25.7687 48.7068 25.414C48.3054 25.0593 47.8108 24.882 47.2228 24.882ZM56.5325 34.08L58.2545 30.328H57.8485L55.0905 24.056H56.3645L58.6605 29.46L61.0965 24.056H62.3145L57.7645 34.08H56.5325ZM66.0636 31.168C65.4103 31.168 64.8223 31.0187 64.2996 30.72C63.7769 30.4213 63.3616 30.0013 63.0536 29.46C62.7549 28.9093 62.6056 28.2653 62.6056 27.528C62.6056 26.7907 62.7596 26.1513 63.0676 25.61C63.3756 25.0593 63.7909 24.6347 64.3136 24.336C64.8456 24.0373 65.4383 23.888 66.0916 23.888C66.7449 23.888 67.3329 24.0373 67.8556 24.336C68.3783 24.6347 68.7889 25.0593 69.0876 25.61C69.3956 26.1513 69.5496 26.7907 69.5496 27.528C69.5496 28.2653 69.3956 28.9093 69.0876 29.46C68.7796 30.0013 68.3596 30.4213 67.8276 30.72C67.3049 31.0187 66.7169 31.168 66.0636 31.168ZM66.0636 30.16C66.4649 30.16 66.8383 30.062 67.1836 29.866C67.5289 29.67 67.8089 29.376 68.0236 28.984C68.2383 28.592 68.3456 28.1067 68.3456 27.528C68.3456 26.9493 68.2383 26.464 68.0236 26.072C67.8183 25.68 67.5429 25.386 67.1976 25.19C66.8523 24.994 66.4836 24.896 66.0916 24.896C65.6903 24.896 65.3169 24.994 64.9716 25.19C64.6263 25.386 64.3463 25.68 64.1316 26.072C63.9169 26.464 63.8096 26.9493 63.8096 27.528C63.8096 28.1067 63.9169 28.592 64.1316 28.984C64.3463 29.376 64.6216 29.67 64.9576 29.866C65.3029 30.062 65.6716 30.16 66.0636 30.16ZM73.7188 31.168C72.8974 31.168 72.2441 30.9207 71.7588 30.426C71.2734 29.922 71.0308 29.152 71.0308 28.116V24.056H72.2068V27.99C72.2068 29.4367 72.7994 30.16 73.9848 30.16C74.5914 30.16 75.0908 29.9453 75.4828 29.516C75.8841 29.0773 76.0848 28.4567 76.0848 27.654V24.056H77.2608V31H76.1968L76.1128 29.754C75.8981 30.1927 75.5761 30.538 75.1468 30.79C74.7268 31.042 74.2508 31.168 73.7188 31.168ZM79.1965 31V24.056H80.2605L80.3585 25.386C80.5731 24.9287 80.8998 24.5647 81.3385 24.294C81.7771 24.0233 82.3185 23.888 82.9625 23.888V25.12H82.6405C82.2298 25.12 81.8518 25.1947 81.5065 25.344C81.1611 25.484 80.8858 25.7267 80.6805 26.072C80.4751 26.4173 80.3725 26.8933 80.3725 27.5V31H79.1965ZM87.9875 31V24.056H89.0515L89.1355 25.064C89.3595 24.6907 89.6582 24.4013 90.0315 24.196C90.4048 23.9907 90.8248 23.888 91.2915 23.888C91.8422 23.888 92.3135 24 92.7055 24.224C93.1068 24.448 93.4148 24.7887 93.6295 25.246C93.8722 24.826 94.2035 24.4947 94.6235 24.252C95.0528 24.0093 95.5148 23.888 96.0095 23.888C96.8402 23.888 97.5028 24.14 97.9975 24.644C98.4922 25.1387 98.7395 25.904 98.7395 26.94V31H97.5775V27.066C97.5775 26.3473 97.4328 25.806 97.1435 25.442C96.8542 25.078 96.4388 24.896 95.8975 24.896C95.3375 24.896 94.8708 25.1153 94.4975 25.554C94.1335 25.9833 93.9515 26.5993 93.9515 27.402V31H92.7755V27.066C92.7755 26.3473 92.6308 25.806 92.3415 25.442C92.0522 25.078 91.6368 24.896 91.0955 24.896C90.5448 24.896 90.0828 25.1153 89.7095 25.554C89.3455 25.9833 89.1635 26.5993 89.1635 27.402V31H87.9875ZM103.633 31.168C102.97 31.168 102.382 31.0187 101.869 30.72C101.356 30.412 100.95 29.9873 100.651 29.446C100.362 28.9047 100.217 28.2653 100.217 27.528C100.217 26.8 100.362 26.1653 100.651 25.624C100.94 25.0733 101.342 24.6487 101.855 24.35C102.378 24.042 102.98 23.888 103.661 23.888C104.333 23.888 104.912 24.042 105.397 24.35C105.892 24.6487 106.27 25.0453 106.531 25.54C106.792 26.0347 106.923 26.5667 106.923 27.136C106.923 27.2387 106.918 27.3413 106.909 27.444C106.909 27.5467 106.909 27.6633 106.909 27.794H101.379C101.407 28.326 101.528 28.7693 101.743 29.124C101.967 29.4693 102.242 29.7307 102.569 29.908C102.905 30.0853 103.26 30.174 103.633 30.174C104.118 30.174 104.524 30.062 104.851 29.838C105.178 29.614 105.416 29.3107 105.565 28.928H106.727C106.54 29.572 106.181 30.1087 105.649 30.538C105.126 30.958 104.454 31.168 103.633 31.168ZM103.633 24.882C103.073 24.882 102.574 25.0547 102.135 25.4C101.706 25.736 101.458 26.2307 101.393 26.884H105.761C105.733 26.2587 105.518 25.7687 105.117 25.414C104.716 25.0593 104.221 24.882 103.633 24.882ZM111.142 31.168C110.311 31.168 109.62 30.958 109.07 30.538C108.519 30.118 108.197 29.5487 108.104 28.83H109.308C109.382 29.194 109.574 29.5113 109.882 29.782C110.199 30.0433 110.624 30.174 111.156 30.174C111.65 30.174 112.014 30.0713 112.248 29.866C112.481 29.6513 112.598 29.3993 112.598 29.11C112.598 28.69 112.444 28.41 112.136 28.27C111.837 28.13 111.412 28.004 110.862 27.892C110.488 27.8173 110.115 27.71 109.742 27.57C109.368 27.43 109.056 27.234 108.804 26.982C108.552 26.7207 108.426 26.38 108.426 25.96C108.426 25.3533 108.65 24.8587 109.098 24.476C109.555 24.084 110.171 23.888 110.946 23.888C111.683 23.888 112.285 24.0747 112.752 24.448C113.228 24.812 113.503 25.3347 113.578 26.016H112.416C112.369 25.6613 112.215 25.386 111.954 25.19C111.702 24.9847 111.361 24.882 110.932 24.882C110.512 24.882 110.185 24.9707 109.952 25.148C109.728 25.3253 109.616 25.5587 109.616 25.848C109.616 26.128 109.76 26.3473 110.05 26.506C110.348 26.6647 110.75 26.8 111.254 26.912C111.683 27.0053 112.089 27.122 112.472 27.262C112.864 27.3927 113.181 27.5933 113.424 27.864C113.676 28.1253 113.802 28.508 113.802 29.012C113.811 29.6373 113.573 30.1553 113.088 30.566C112.612 30.9673 111.963 31.168 111.142 31.168ZM118.142 31.168C117.311 31.168 116.62 30.958 116.07 30.538C115.519 30.118 115.197 29.5487 115.104 28.83H116.308C116.382 29.194 116.574 29.5113 116.882 29.782C117.199 30.0433 117.624 30.174 118.156 30.174C118.65 30.174 119.014 30.0713 119.248 29.866C119.481 29.6513 119.598 29.3993 119.598 29.11C119.598 28.69 119.444 28.41 119.136 28.27C118.837 28.13 118.412 28.004 117.862 27.892C117.488 27.8173 117.115 27.71 116.742 27.57C116.368 27.43 116.056 27.234 115.804 26.982C115.552 26.7207 115.426 26.38 115.426 25.96C115.426 25.3533 115.65 24.8587 116.098 24.476C116.555 24.084 117.171 23.888 117.946 23.888C118.683 23.888 119.285 24.0747 119.752 24.448C120.228 24.812 120.503 25.3347 120.578 26.016H119.416C119.369 25.6613 119.215 25.386 118.954 25.19C118.702 24.9847 118.361 24.882 117.932 24.882C117.512 24.882 117.185 24.9707 116.952 25.148C116.728 25.3253 116.616 25.5587 116.616 25.848C116.616 26.128 116.76 26.3473 117.05 26.506C117.348 26.6647 117.75 26.8 118.254 26.912C118.683 27.0053 119.089 27.122 119.472 27.262C119.864 27.3927 120.181 27.5933 120.424 27.864C120.676 28.1253 120.802 28.508 120.802 29.012C120.811 29.6373 120.573 30.1553 120.088 30.566C119.612 30.9673 118.963 31.168 118.142 31.168ZM124.792 31.168C124.213 31.168 123.732 31.07 123.35 30.874C122.967 30.678 122.682 30.4167 122.496 30.09C122.309 29.7633 122.216 29.4087 122.216 29.026C122.216 28.3167 122.486 27.7707 123.028 27.388C123.569 27.0053 124.306 26.814 125.24 26.814H127.116V26.73C127.116 26.1233 126.957 25.666 126.64 25.358C126.322 25.0407 125.898 24.882 125.366 24.882C124.908 24.882 124.512 24.9987 124.176 25.232C123.849 25.456 123.644 25.7873 123.56 26.226H122.356C122.402 25.722 122.57 25.2973 122.86 24.952C123.158 24.6067 123.527 24.3453 123.966 24.168C124.404 23.9813 124.871 23.888 125.366 23.888C126.336 23.888 127.064 24.1493 127.55 24.672C128.044 25.1853 128.292 25.8713 128.292 26.73V31H127.242L127.172 29.754C126.976 30.146 126.686 30.482 126.304 30.762C125.93 31.0327 125.426 31.168 124.792 31.168ZM124.974 30.174C125.422 30.174 125.804 30.0573 126.122 29.824C126.448 29.5907 126.696 29.2873 126.864 28.914C127.032 28.5407 127.116 28.1487 127.116 27.738V27.724H125.338C124.647 27.724 124.157 27.8453 123.868 28.088C123.588 28.3213 123.448 28.6153 123.448 28.97C123.448 29.334 123.578 29.628 123.84 29.852C124.11 30.0667 124.488 30.174 124.974 30.174ZM132.8 28.816C132.408 28.816 132.049 28.7647 131.722 28.662L131.022 29.32C131.125 29.3947 131.251 29.46 131.4 29.516C131.559 29.5627 131.783 29.6093 132.072 29.656C132.361 29.6933 132.767 29.7353 133.29 29.782C134.223 29.8473 134.891 30.062 135.292 30.426C135.693 30.79 135.894 31.266 135.894 31.854C135.894 32.2553 135.782 32.638 135.558 33.002C135.343 33.366 135.007 33.6647 134.55 33.898C134.102 34.1313 133.523 34.248 132.814 34.248C132.189 34.248 131.633 34.164 131.148 33.996C130.663 33.8373 130.285 33.59 130.014 33.254C129.743 32.9273 129.608 32.512 129.608 32.008C129.608 31.7467 129.678 31.462 129.818 31.154C129.958 30.8553 130.219 30.5707 130.602 30.3C130.397 30.216 130.219 30.1273 130.07 30.034C129.93 29.9313 129.799 29.8193 129.678 29.698V29.376L130.868 28.2C130.317 27.7333 130.042 27.1173 130.042 26.352C130.042 25.8947 130.149 25.4793 130.364 25.106C130.579 24.7327 130.891 24.4387 131.302 24.224C131.713 24 132.212 23.888 132.8 23.888C133.201 23.888 133.565 23.944 133.892 24.056H136.454V24.938L135.152 24.994C135.423 25.386 135.558 25.8387 135.558 26.352C135.558 26.8093 135.446 27.2247 135.222 27.598C135.007 27.9713 134.695 28.27 134.284 28.494C133.883 28.7087 133.388 28.816 132.8 28.816ZM132.8 27.85C133.295 27.85 133.687 27.724 133.976 27.472C134.275 27.2107 134.424 26.8373 134.424 26.352C134.424 25.876 134.275 25.512 133.976 25.26C133.687 24.9987 133.295 24.868 132.8 24.868C132.296 24.868 131.895 24.9987 131.596 25.26C131.307 25.512 131.162 25.876 131.162 26.352C131.162 26.8373 131.307 27.2107 131.596 27.472C131.895 27.724 132.296 27.85 132.8 27.85ZM130.756 31.896C130.756 32.3627 130.952 32.708 131.344 32.932C131.736 33.1653 132.226 33.282 132.814 33.282C133.393 33.282 133.855 33.156 134.2 32.904C134.555 32.652 134.732 32.316 134.732 31.896C134.732 31.5973 134.611 31.336 134.368 31.112C134.125 30.8973 133.677 30.7713 133.024 30.734C132.511 30.6967 132.067 30.65 131.694 30.594C131.311 30.7993 131.059 31.0187 130.938 31.252C130.817 31.4947 130.756 31.7093 130.756 31.896ZM140.629 31.168C139.966 31.168 139.378 31.0187 138.865 30.72C138.352 30.412 137.946 29.9873 137.647 29.446C137.358 28.9047 137.213 28.2653 137.213 27.528C137.213 26.8 137.358 26.1653 137.647 25.624C137.936 25.0733 138.338 24.6487 138.851 24.35C139.374 24.042 139.976 23.888 140.657 23.888C141.329 23.888 141.908 24.042 142.393 24.35C142.888 24.6487 143.266 25.0453 143.527 25.54C143.788 26.0347 143.919 26.5667 143.919 27.136C143.919 27.2387 143.914 27.3413 143.905 27.444C143.905 27.5467 143.905 27.6633 143.905 27.794H138.375C138.403 28.326 138.524 28.7693 138.739 29.124C138.963 29.4693 139.238 29.7307 139.565 29.908C139.901 30.0853 140.256 30.174 140.629 30.174C141.114 30.174 141.52 30.062 141.847 29.838C142.174 29.614 142.412 29.3107 142.561 28.928H143.723C143.536 29.572 143.177 30.1087 142.645 30.538C142.122 30.958 141.45 31.168 140.629 31.168ZM140.629 24.882C140.069 24.882 139.57 25.0547 139.131 25.4C138.702 25.736 138.454 26.2307 138.389 26.884H142.757C142.729 26.2587 142.514 25.7687 142.113 25.414C141.712 25.0593 141.217 24.882 140.629 24.882ZM148.138 31.168C147.307 31.168 146.616 30.958 146.066 30.538C145.515 30.118 145.193 29.5487 145.1 28.83H146.304C146.378 29.194 146.57 29.5113 146.878 29.782C147.195 30.0433 147.62 30.174 148.152 30.174C148.646 30.174 149.01 30.0713 149.244 29.866C149.477 29.6513 149.594 29.3993 149.594 29.11C149.594 28.69 149.44 28.41 149.132 28.27C148.833 28.13 148.408 28.004 147.858 27.892C147.484 27.8173 147.111 27.71 146.738 27.57C146.364 27.43 146.052 27.234 145.8 26.982C145.548 26.7207 145.422 26.38 145.422 25.96C145.422 25.3533 145.646 24.8587 146.094 24.476C146.551 24.084 147.167 23.888 147.942 23.888C148.679 23.888 149.281 24.0747 149.748 24.448C150.224 24.812 150.499 25.3347 150.574 26.016H149.412C149.365 25.6613 149.211 25.386 148.95 25.19C148.698 24.9847 148.357 24.882 147.928 24.882C147.508 24.882 147.181 24.9707 146.948 25.148C146.724 25.3253 146.612 25.5587 146.612 25.848C146.612 26.128 146.756 26.3473 147.046 26.506C147.344 26.6647 147.746 26.8 148.25 26.912C148.679 27.0053 149.085 27.122 149.468 27.262C149.86 27.3927 150.177 27.5933 150.42 27.864C150.672 28.1253 150.798 28.508 150.798 29.012C150.807 29.6373 150.569 30.1553 150.084 30.566C149.608 30.9673 148.959 31.168 148.138 31.168ZM151.54 32.666L152.352 29.572H153.57L152.352 32.666H151.54ZM161.863 31.168C161.2 31.168 160.603 31.0187 160.071 30.72C159.548 30.412 159.133 29.9873 158.825 29.446C158.526 28.8953 158.377 28.256 158.377 27.528C158.377 26.8 158.526 26.1653 158.825 25.624C159.133 25.0733 159.548 24.6487 160.071 24.35C160.603 24.042 161.2 23.888 161.863 23.888C162.684 23.888 163.375 24.1027 163.935 24.532C164.504 24.9613 164.864 25.5353 165.013 26.254H163.809C163.716 25.8247 163.487 25.4933 163.123 25.26C162.759 25.0173 162.334 24.896 161.849 24.896C161.457 24.896 161.088 24.994 160.743 25.19C160.398 25.386 160.118 25.68 159.903 26.072C159.688 26.464 159.581 26.9493 159.581 27.528C159.581 28.1067 159.688 28.592 159.903 28.984C160.118 29.376 160.398 29.6747 160.743 29.88C161.088 30.076 161.457 30.174 161.849 30.174C162.334 30.174 162.759 30.0573 163.123 29.824C163.487 29.5813 163.716 29.2407 163.809 28.802H165.013C164.873 29.502 164.518 30.0713 163.949 30.51C163.38 30.9487 162.684 31.168 161.863 31.168ZM169.189 31.168C168.368 31.168 167.715 30.9207 167.229 30.426C166.744 29.922 166.501 29.152 166.501 28.116V24.056H167.677V27.99C167.677 29.4367 168.27 30.16 169.455 30.16C170.062 30.16 170.561 29.9453 170.953 29.516C171.355 29.0773 171.555 28.4567 171.555 27.654V24.056H172.731V31H171.667L171.583 29.754C171.369 30.1927 171.047 30.538 170.617 30.79C170.197 31.042 169.721 31.168 169.189 31.168ZM177.327 31.168C176.497 31.168 175.806 30.958 175.255 30.538C174.705 30.118 174.383 29.5487 174.289 28.83H175.493C175.568 29.194 175.759 29.5113 176.067 29.782C176.385 30.0433 176.809 30.174 177.341 30.174C177.836 30.174 178.2 30.0713 178.433 29.866C178.667 29.6513 178.783 29.3993 178.783 29.11C178.783 28.69 178.629 28.41 178.321 28.27C178.023 28.13 177.598 28.004 177.047 27.892C176.674 27.8173 176.301 27.71 175.927 27.57C175.554 27.43 175.241 27.234 174.989 26.982C174.737 26.7207 174.611 26.38 174.611 25.96C174.611 25.3533 174.835 24.8587 175.283 24.476C175.741 24.084 176.357 23.888 177.131 23.888C177.869 23.888 178.471 24.0747 178.937 24.448C179.413 24.812 179.689 25.3347 179.763 26.016H178.601C178.555 25.6613 178.401 25.386 178.139 25.19C177.887 24.9847 177.547 24.882 177.117 24.882C176.697 24.882 176.371 24.9707 176.137 25.148C175.913 25.3253 175.801 25.5587 175.801 25.848C175.801 26.128 175.946 26.3473 176.235 26.506C176.534 26.6647 176.935 26.8 177.439 26.912C177.869 27.0053 178.275 27.122 178.657 27.262C179.049 27.3927 179.367 27.5933 179.609 27.864C179.861 28.1253 179.987 28.508 179.987 29.012C179.997 29.6373 179.759 30.1553 179.273 30.566C178.797 30.9673 178.149 31.168 177.327 31.168ZM184.097 31C183.462 31 182.963 30.846 182.599 30.538C182.235 30.23 182.053 29.6747 182.053 28.872V25.05H180.849V24.056H182.053L182.207 22.39H183.229V24.056H185.273V25.05H183.229V28.872C183.229 29.3107 183.317 29.6093 183.495 29.768C183.672 29.9173 183.985 29.992 184.433 29.992H185.161V31H184.097ZM189.739 31.168C189.086 31.168 188.498 31.0187 187.975 30.72C187.453 30.4213 187.037 30.0013 186.729 29.46C186.431 28.9093 186.281 28.2653 186.281 27.528C186.281 26.7907 186.435 26.1513 186.743 25.61C187.051 25.0593 187.467 24.6347 187.989 24.336C188.521 24.0373 189.114 23.888 189.767 23.888C190.421 23.888 191.009 24.0373 191.531 24.336C192.054 24.6347 192.465 25.0593 192.763 25.61C193.071 26.1513 193.225 26.7907 193.225 27.528C193.225 28.2653 193.071 28.9093 192.763 29.46C192.455 30.0013 192.035 30.4213 191.503 30.72C190.981 31.0187 190.393 31.168 189.739 31.168ZM189.739 30.16C190.141 30.16 190.514 30.062 190.859 29.866C191.205 29.67 191.485 29.376 191.699 28.984C191.914 28.592 192.021 28.1067 192.021 27.528C192.021 26.9493 191.914 26.464 191.699 26.072C191.494 25.68 191.219 25.386 190.873 25.19C190.528 24.994 190.159 24.896 189.767 24.896C189.366 24.896 188.993 24.994 188.647 25.19C188.302 25.386 188.022 25.68 187.807 26.072C187.593 26.464 187.485 26.9493 187.485 27.528C187.485 28.1067 187.593 28.592 187.807 28.984C188.022 29.376 188.297 29.67 188.633 29.866C188.979 30.062 189.347 30.16 189.739 30.16ZM194.861 31V24.056H195.925L196.009 25.064C196.233 24.6907 196.531 24.4013 196.905 24.196C197.278 23.9907 197.698 23.888 198.165 23.888C198.715 23.888 199.187 24 199.579 24.224C199.98 24.448 200.288 24.7887 200.503 25.246C200.745 24.826 201.077 24.4947 201.497 24.252C201.926 24.0093 202.388 23.888 202.883 23.888C203.713 23.888 204.376 24.14 204.871 24.644C205.365 25.1387 205.613 25.904 205.613 26.94V31H204.451V27.066C204.451 26.3473 204.306 25.806 204.017 25.442C203.727 25.078 203.312 24.896 202.771 24.896C202.211 24.896 201.744 25.1153 201.371 25.554C201.007 25.9833 200.825 26.5993 200.825 27.402V31H199.649V27.066C199.649 26.3473 199.504 25.806 199.215 25.442C198.925 25.078 198.51 24.896 197.969 24.896C197.418 24.896 196.956 25.1153 196.583 25.554C196.219 25.9833 196.037 26.5993 196.037 27.402V31H194.861ZM210.506 31.168C209.843 31.168 209.255 31.0187 208.742 30.72C208.229 30.412 207.823 29.9873 207.524 29.446C207.235 28.9047 207.09 28.2653 207.09 27.528C207.09 26.8 207.235 26.1653 207.524 25.624C207.813 25.0733 208.215 24.6487 208.728 24.35C209.251 24.042 209.853 23.888 210.534 23.888C211.206 23.888 211.785 24.042 212.27 24.35C212.765 24.6487 213.143 25.0453 213.404 25.54C213.665 26.0347 213.796 26.5667 213.796 27.136C213.796 27.2387 213.791 27.3413 213.782 27.444C213.782 27.5467 213.782 27.6633 213.782 27.794H208.252C208.28 28.326 208.401 28.7693 208.616 29.124C208.84 29.4693 209.115 29.7307 209.442 29.908C209.778 30.0853 210.133 30.174 210.506 30.174C210.991 30.174 211.397 30.062 211.724 29.838C212.051 29.614 212.289 29.3107 212.438 28.928H213.6C213.413 29.572 213.054 30.1087 212.522 30.538C211.999 30.958 211.327 31.168 210.506 31.168ZM210.506 24.882C209.946 24.882 209.447 25.0547 209.008 25.4C208.579 25.736 208.331 26.2307 208.266 26.884H212.634C212.606 26.2587 212.391 25.7687 211.99 25.414C211.589 25.0593 211.094 24.882 210.506 24.882ZM215.355 31V24.056H216.419L216.517 25.386C216.731 24.9287 217.058 24.5647 217.497 24.294C217.935 24.0233 218.477 23.888 219.121 23.888V25.12H218.799C218.388 25.12 218.01 25.1947 217.665 25.344C217.319 25.484 217.044 25.7267 216.839 26.072C216.633 26.4173 216.531 26.8933 216.531 27.5V31H215.355ZM223.101 31.168C222.27 31.168 221.579 30.958 221.029 30.538C220.478 30.118 220.156 29.5487 220.063 28.83H221.267C221.341 29.194 221.533 29.5113 221.841 29.782C222.158 30.0433 222.583 30.174 223.115 30.174C223.609 30.174 223.973 30.0713 224.207 29.866C224.44 29.6513 224.557 29.3993 224.557 29.11C224.557 28.69 224.403 28.41 224.095 28.27C223.796 28.13 223.371 28.004 222.821 27.892C222.447 27.8173 222.074 27.71 221.701 27.57C221.327 27.43 221.015 27.234 220.763 26.982C220.511 26.7207 220.385 26.38 220.385 25.96C220.385 25.3533 220.609 24.8587 221.057 24.476C221.514 24.084 222.13 23.888 222.905 23.888C223.642 23.888 224.244 24.0747 224.711 24.448C225.187 24.812 225.462 25.3347 225.537 26.016H224.375C224.328 25.6613 224.174 25.386 223.913 25.19C223.661 24.9847 223.32 24.882 222.891 24.882C222.471 24.882 222.144 24.9707 221.911 25.148C221.687 25.3253 221.575 25.5587 221.575 25.848C221.575 26.128 221.719 26.3473 222.009 26.506C222.307 26.6647 222.709 26.8 223.213 26.912C223.642 27.0053 224.048 27.122 224.431 27.262C224.823 27.3927 225.14 27.5933 225.383 27.864C225.635 28.1253 225.761 28.508 225.761 29.012C225.77 29.6373 225.532 30.1553 225.047 30.566C224.571 30.9673 223.922 31.168 223.101 31.168ZM226.503 32.666L227.315 29.572H228.533L227.315 32.666H226.503ZM235.944 31.168C235.365 31.168 234.885 31.07 234.502 30.874C234.119 30.678 233.835 30.4167 233.648 30.09C233.461 29.7633 233.368 29.4087 233.368 29.026C233.368 28.3167 233.639 27.7707 234.18 27.388C234.721 27.0053 235.459 26.814 236.392 26.814H238.268V26.73C238.268 26.1233 238.109 25.666 237.792 25.358C237.475 25.0407 237.05 24.882 236.518 24.882C236.061 24.882 235.664 24.9987 235.328 25.232C235.001 25.456 234.796 25.7873 234.712 26.226H233.508C233.555 25.722 233.723 25.2973 234.012 24.952C234.311 24.6067 234.679 24.3453 235.118 24.168C235.557 23.9813 236.023 23.888 236.518 23.888C237.489 23.888 238.217 24.1493 238.702 24.672C239.197 25.1853 239.444 25.8713 239.444 26.73V31H238.394L238.324 29.754C238.128 30.146 237.839 30.482 237.456 30.762C237.083 31.0327 236.579 31.168 235.944 31.168ZM236.126 30.174C236.574 30.174 236.957 30.0573 237.274 29.824C237.601 29.5907 237.848 29.2873 238.016 28.914C238.184 28.5407 238.268 28.1487 238.268 27.738V27.724H236.49C235.799 27.724 235.309 27.8453 235.02 28.088C234.74 28.3213 234.6 28.6153 234.6 28.97C234.6 29.334 234.731 29.628 234.992 29.852C235.263 30.0667 235.641 30.174 236.126 30.174ZM241.208 31V24.056H242.272L242.342 25.302C242.566 24.8633 242.888 24.518 243.308 24.266C243.728 24.014 244.204 23.888 244.736 23.888C245.558 23.888 246.211 24.14 246.696 24.644C247.191 25.1387 247.438 25.904 247.438 26.94V31H246.262V27.066C246.262 25.6193 245.665 24.896 244.47 24.896C243.873 24.896 243.374 25.1153 242.972 25.554C242.58 25.9833 242.384 26.5993 242.384 27.402V31H241.208ZM252.37 31.168C251.679 31.168 251.073 31.0093 250.55 30.692C250.037 30.3747 249.635 29.9407 249.346 29.39C249.066 28.8393 248.926 28.214 248.926 27.514C248.926 26.814 249.071 26.1933 249.36 25.652C249.649 25.1013 250.051 24.672 250.564 24.364C251.077 24.0467 251.684 23.888 252.384 23.888C252.953 23.888 253.457 24.0047 253.896 24.238C254.335 24.4713 254.675 24.798 254.918 25.218V20.92H256.094V31H255.03L254.918 29.852C254.694 30.188 254.372 30.4913 253.952 30.762C253.532 31.0327 253.005 31.168 252.37 31.168ZM252.496 30.146C252.963 30.146 253.373 30.0387 253.728 29.824C254.092 29.6 254.372 29.292 254.568 28.9C254.773 28.508 254.876 28.0507 254.876 27.528C254.876 27.0053 254.773 26.548 254.568 26.156C254.372 25.764 254.092 25.4607 253.728 25.246C253.373 25.022 252.963 24.91 252.496 24.91C252.039 24.91 251.628 25.022 251.264 25.246C250.909 25.4607 250.629 25.764 250.424 26.156C250.228 26.548 250.13 27.0053 250.13 27.528C250.13 28.0507 250.228 28.508 250.424 28.9C250.629 29.292 250.909 29.6 251.264 29.824C251.628 30.0387 252.039 30.146 252.496 30.146ZM264.88 31.168C264.227 31.168 263.639 31.0187 263.116 30.72C262.593 30.4213 262.178 30.0013 261.87 29.46C261.571 28.9093 261.422 28.2653 261.422 27.528C261.422 26.7907 261.576 26.1513 261.884 25.61C262.192 25.0593 262.607 24.6347 263.13 24.336C263.662 24.0373 264.255 23.888 264.908 23.888C265.561 23.888 266.149 24.0373 266.672 24.336C267.195 24.6347 267.605 25.0593 267.904 25.61C268.212 26.1513 268.366 26.7907 268.366 27.528C268.366 28.2653 268.212 28.9093 267.904 29.46C267.596 30.0013 267.176 30.4213 266.644 30.72C266.121 31.0187 265.533 31.168 264.88 31.168ZM264.88 30.16C265.281 30.16 265.655 30.062 266 29.866C266.345 29.67 266.625 29.376 266.84 28.984C267.055 28.592 267.162 28.1067 267.162 27.528C267.162 26.9493 267.055 26.464 266.84 26.072C266.635 25.68 266.359 25.386 266.014 25.19C265.669 24.994 265.3 24.896 264.908 24.896C264.507 24.896 264.133 24.994 263.788 25.19C263.443 25.386 263.163 25.68 262.948 26.072C262.733 26.464 262.626 26.9493 262.626 27.528C262.626 28.1067 262.733 28.592 262.948 28.984C263.163 29.376 263.438 29.67 263.774 29.866C264.119 30.062 264.488 30.16 264.88 30.16ZM270.001 31V24.056H271.065L271.163 25.386C271.378 24.9287 271.704 24.5647 272.143 24.294C272.582 24.0233 273.123 23.888 273.767 23.888V25.12H273.445C273.034 25.12 272.656 25.1947 272.311 25.344C271.966 25.484 271.69 25.7267 271.485 26.072C271.28 26.4173 271.177 26.8933 271.177 27.5V31H270.001ZM277.977 31.168C277.287 31.168 276.68 31.0093 276.157 30.692C275.644 30.3747 275.243 29.9407 274.953 29.39C274.673 28.8393 274.533 28.214 274.533 27.514C274.533 26.814 274.678 26.1933 274.967 25.652C275.257 25.1013 275.658 24.672 276.171 24.364C276.685 24.0467 277.291 23.888 277.991 23.888C278.561 23.888 279.065 24.0047 279.503 24.238C279.942 24.4713 280.283 24.798 280.525 25.218V20.92H281.701V31H280.637L280.525 29.852C280.301 30.188 279.979 30.4913 279.559 30.762C279.139 31.0327 278.612 31.168 277.977 31.168ZM278.103 30.146C278.57 30.146 278.981 30.0387 279.335 29.824C279.699 29.6 279.979 29.292 280.175 28.9C280.381 28.508 280.483 28.0507 280.483 27.528C280.483 27.0053 280.381 26.548 280.175 26.156C279.979 25.764 279.699 25.4607 279.335 25.246C278.981 25.022 278.57 24.91 278.103 24.91C277.646 24.91 277.235 25.022 276.871 25.246C276.517 25.4607 276.237 25.764 276.031 26.156C275.835 26.548 275.737 27.0053 275.737 27.528C275.737 28.0507 275.835 28.508 276.031 28.9C276.237 29.292 276.517 29.6 276.871 29.824C277.235 30.0387 277.646 30.146 278.103 30.146ZM286.74 31.168C286.078 31.168 285.49 31.0187 284.976 30.72C284.463 30.412 284.057 29.9873 283.758 29.446C283.469 28.9047 283.324 28.2653 283.324 27.528C283.324 26.8 283.469 26.1653 283.758 25.624C284.048 25.0733 284.449 24.6487 284.962 24.35C285.485 24.042 286.087 23.888 286.768 23.888C287.44 23.888 288.019 24.042 288.504 24.35C288.999 24.6487 289.377 25.0453 289.638 25.54C289.9 26.0347 290.03 26.5667 290.03 27.136C290.03 27.2387 290.026 27.3413 290.016 27.444C290.016 27.5467 290.016 27.6633 290.016 27.794H284.486C284.514 28.326 284.636 28.7693 284.85 29.124C285.074 29.4693 285.35 29.7307 285.676 29.908C286.012 30.0853 286.367 30.174 286.74 30.174C287.226 30.174 287.632 30.062 287.958 29.838C288.285 29.614 288.523 29.3107 288.672 28.928H289.834C289.648 29.572 289.288 30.1087 288.756 30.538C288.234 30.958 287.562 31.168 286.74 31.168ZM286.74 24.882C286.18 24.882 285.681 25.0547 285.242 25.4C284.813 25.736 284.566 26.2307 284.5 26.884H288.868C288.84 26.2587 288.626 25.7687 288.224 25.414C287.823 25.0593 287.328 24.882 286.74 24.882ZM291.589 31V24.056H292.653L292.751 25.386C292.966 24.9287 293.292 24.5647 293.731 24.294C294.17 24.0233 294.711 23.888 295.355 23.888V25.12H295.033C294.622 25.12 294.244 25.1947 293.899 25.344C293.554 25.484 293.278 25.7267 293.073 26.072C292.868 26.4173 292.765 26.8933 292.765 27.5V31H291.589ZM299.335 31.168C298.504 31.168 297.814 30.958 297.263 30.538C296.712 30.118 296.39 29.5487 296.297 28.83H297.501C297.576 29.194 297.767 29.5113 298.075 29.782C298.392 30.0433 298.817 30.174 299.349 30.174C299.844 30.174 300.208 30.0713 300.441 29.866C300.674 29.6513 300.791 29.3993 300.791 29.11C300.791 28.69 300.637 28.41 300.329 28.27C300.03 28.13 299.606 28.004 299.055 27.892C298.682 27.8173 298.308 27.71 297.935 27.57C297.562 27.43 297.249 27.234 296.997 26.982C296.745 26.7207 296.619 26.38 296.619 25.96C296.619 25.3533 296.843 24.8587 297.291 24.476C297.748 24.084 298.364 23.888 299.139 23.888C299.876 23.888 300.478 24.0747 300.945 24.448C301.421 24.812 301.696 25.3347 301.771 26.016H300.609C300.562 25.6613 300.408 25.386 300.147 25.19C299.895 24.9847 299.554 24.882 299.125 24.882C298.705 24.882 298.378 24.9707 298.145 25.148C297.921 25.3253 297.809 25.5587 297.809 25.848C297.809 26.128 297.954 26.3473 298.243 26.506C298.542 26.6647 298.943 26.8 299.447 26.912C299.876 27.0053 300.282 27.122 300.665 27.262C301.057 27.3927 301.374 27.5933 301.617 27.864C301.869 28.1253 301.995 28.508 301.995 29.012C302.004 29.6373 301.766 30.1553 301.281 30.566C300.805 30.9673 300.156 31.168 299.335 31.168ZM304.081 31.07C303.848 31.07 303.652 30.9953 303.493 30.846C303.344 30.6873 303.269 30.496 303.269 30.272C303.269 30.048 303.344 29.8613 303.493 29.712C303.652 29.5533 303.848 29.474 304.081 29.474C304.305 29.474 304.492 29.5533 304.641 29.712C304.8 29.8613 304.879 30.048 304.879 30.272C304.879 30.496 304.8 30.6873 304.641 30.846C304.492 30.9953 304.305 31.07 304.081 31.07ZM306.815 31.07C306.582 31.07 306.386 30.9953 306.227 30.846C306.078 30.6873 306.003 30.496 306.003 30.272C306.003 30.048 306.078 29.8613 306.227 29.712C306.386 29.5533 306.582 29.474 306.815 29.474C307.039 29.474 307.226 29.5533 307.375 29.712C307.534 29.8613 307.613 30.048 307.613 30.272C307.613 30.496 307.534 30.6873 307.375 30.846C307.226 30.9953 307.039 31.07 306.815 31.07ZM309.55 31.07C309.316 31.07 309.12 30.9953 308.962 30.846C308.812 30.6873 308.738 30.496 308.738 30.272C308.738 30.048 308.812 29.8613 308.962 29.712C309.12 29.5533 309.316 29.474 309.55 29.474C309.774 29.474 309.96 29.5533 310.11 29.712C310.268 29.8613 310.348 30.048 310.348 30.272C310.348 30.496 310.268 30.6873 310.11 30.846C309.96 30.9953 309.774 31.07 309.55 31.07Z" fill="black"/>
</svg>
