<svg width="89" height="29" viewBox="0 0 89 29" fill="none" xmlns="http://www.w3.org/2000/svg">
<rect x="0.5" y="0.5" width="88" height="28" rx="14" fill="white" stroke="#D3D7DB"/>
<path d="M18.2503 19L14.5683 9.2H15.8423L18.9363 17.754L22.0583 9.2H23.3043L19.6223 19H18.2503ZM25.0118 10.516C24.7785 10.516 24.5825 10.4413 24.4238 10.292C24.2745 10.1333 24.1998 9.93733 24.1998 9.704C24.1998 9.48 24.2745 9.29333 24.4238 9.144C24.5825 8.99467 24.7785 8.92 25.0118 8.92C25.2358 8.92 25.4272 8.99467 25.5858 9.144C25.7445 9.29333 25.8238 9.48 25.8238 9.704C25.8238 9.93733 25.7445 10.1333 25.5858 10.292C25.4272 10.4413 25.2358 10.516 25.0118 10.516ZM24.4238 19V12.056H25.5998V19H24.4238ZM30.4894 19.168C29.8268 19.168 29.2388 19.0187 28.7254 18.72C28.2121 18.412 27.8061 17.9873 27.5074 17.446C27.2181 16.9047 27.0734 16.2653 27.0734 15.528C27.0734 14.8 27.2181 14.1653 27.5074 13.624C27.7968 13.0733 28.1981 12.6487 28.7114 12.35C29.2341 12.042 29.8361 11.888 30.5174 11.888C31.1894 11.888 31.7681 12.042 32.2534 12.35C32.7481 12.6487 33.1261 13.0453 33.3874 13.54C33.6488 14.0347 33.7794 14.5667 33.7794 15.136C33.7794 15.2387 33.7748 15.3413 33.7654 15.444C33.7654 15.5467 33.7654 15.6633 33.7654 15.794H28.2354C28.2634 16.326 28.3848 16.7693 28.5994 17.124C28.8234 17.4693 29.0988 17.7307 29.4254 17.908C29.7614 18.0853 30.1161 18.174 30.4894 18.174C30.9748 18.174 31.3808 18.062 31.7074 17.838C32.0341 17.614 32.2721 17.3107 32.4214 16.928H33.5834C33.3968 17.572 33.0374 18.1087 32.5054 18.538C31.9828 18.958 31.3108 19.168 30.4894 19.168ZM30.4894 12.882C29.9294 12.882 29.4301 13.0547 28.9914 13.4C28.5621 13.736 28.3148 14.2307 28.2494 14.884H32.6174C32.5894 14.2587 32.3748 13.7687 31.9734 13.414C31.5721 13.0593 31.0774 12.882 30.4894 12.882ZM36.1847 19L34.1547 12.056H35.3307L36.8007 17.502L38.4247 12.056H39.7547L41.3927 17.502L42.8487 12.056H44.0387L42.0087 19H40.8047L39.0967 13.274L37.3887 19H36.1847ZM50.7945 19.168C50.2158 19.168 49.7351 19.07 49.3525 18.874C48.9698 18.678 48.6851 18.4167 48.4985 18.09C48.3118 17.7633 48.2185 17.4087 48.2185 17.026C48.2185 16.3167 48.4891 15.7707 49.0305 15.388C49.5718 15.0053 50.3091 14.814 51.2425 14.814H53.1185V14.73C53.1185 14.1233 52.9598 13.666 52.6425 13.358C52.3251 13.0407 51.9005 12.882 51.3685 12.882C50.9111 12.882 50.5145 12.9987 50.1785 13.232C49.8518 13.456 49.6465 13.7873 49.5625 14.226H48.3585C48.4051 13.722 48.5731 13.2973 48.8625 12.952C49.1611 12.6067 49.5298 12.3453 49.9685 12.168C50.4071 11.9813 50.8738 11.888 51.3685 11.888C52.3391 11.888 53.0671 12.1493 53.5525 12.672C54.0471 13.1853 54.2945 13.8713 54.2945 14.73V19H53.2445L53.1745 17.754C52.9785 18.146 52.6891 18.482 52.3065 18.762C51.9331 19.0327 51.4291 19.168 50.7945 19.168ZM50.9765 18.174C51.4245 18.174 51.8071 18.0573 52.1245 17.824C52.4511 17.5907 52.6985 17.2873 52.8665 16.914C53.0345 16.5407 53.1185 16.1487 53.1185 15.738V15.724H51.3405C50.6498 15.724 50.1598 15.8453 49.8705 16.088C49.5905 16.3213 49.4505 16.6153 49.4505 16.97C49.4505 17.334 49.5811 17.628 49.8425 17.852C50.1131 18.0667 50.4911 18.174 50.9765 18.174ZM55.7787 19V8.92H56.9547V19H55.7787ZM58.6022 19V8.92H59.7782V19H58.6022Z" fill="black"/>
<path d="M68.708 14.5H76.2913" stroke="black" stroke-linecap="round" stroke-linejoin="round"/>
<path d="M72.5 10.709L76.2917 14.5007L72.5 18.2923" stroke="black" stroke-linecap="round" stroke-linejoin="round"/>
</svg>
