<svg width="20" height="20" viewBox="0 0 20 20" fill="none" xmlns="http://www.w3.org/2000/svg">
<path d="M18.1242 4.3601C18.124 4.34855 18.1234 4.33701 18.1225 4.32549C18.1218 4.31608 18.1208 4.30674 18.1197 4.29747C18.1184 4.28667 18.1167 4.27593 18.1148 4.26521C18.1131 4.2555 18.1112 4.24587 18.1091 4.23634C18.1067 4.22619 18.1041 4.21614 18.1013 4.20609C18.0986 4.19643 18.0957 4.18684 18.0926 4.17738C18.0893 4.16758 18.0857 4.15791 18.0819 4.14825C18.0783 4.13897 18.0746 4.12975 18.0706 4.12069C18.0663 4.11121 18.0618 4.10189 18.057 4.09258C18.0525 4.08365 18.0479 4.07482 18.0429 4.06616C18.0379 4.05731 18.0325 4.04861 18.027 4.03996C18.0214 4.0311 18.0156 4.02241 18.0095 4.01386C18.0039 4.00593 17.998 3.99815 17.992 3.9904C17.9851 3.98161 17.978 3.97306 17.9707 3.96465C17.9672 3.96072 17.9643 3.95655 17.9607 3.95267C17.9578 3.94941 17.9544 3.94665 17.9514 3.94344C17.9438 3.93551 17.9359 3.92784 17.9279 3.92031C17.9206 3.91344 17.9133 3.90665 17.9058 3.90018C17.8981 3.89366 17.8903 3.8875 17.8823 3.88134C17.8739 3.87482 17.8655 3.86833 17.8569 3.86229C17.849 3.85685 17.841 3.85182 17.8329 3.84672C17.8238 3.84098 17.8147 3.83522 17.8054 3.82999C17.7969 3.82519 17.7881 3.82088 17.7793 3.81647C17.7702 3.81189 17.761 3.80728 17.7517 3.80318C17.742 3.79892 17.7322 3.7952 17.7222 3.79143C17.7134 3.78807 17.7047 3.78464 17.6957 3.7817C17.6852 3.77823 17.6744 3.77531 17.6636 3.77239C17.6548 3.77001 17.6461 3.76759 17.6372 3.76558C17.6265 3.7632 17.6157 3.76131 17.6048 3.75946C17.5953 3.75786 17.5858 3.75629 17.5763 3.75511C17.566 3.75387 17.5557 3.75303 17.5452 3.75229C17.5347 3.75152 17.5243 3.75091 17.5137 3.75069C17.5091 3.75059 17.5046 3.75 17.5 3.75H2.5C2.49573 3.75 2.49161 3.75055 2.48734 3.75065C2.47597 3.75088 2.46468 3.75151 2.45335 3.75237C2.4437 3.75307 2.43412 3.75384 2.42462 3.75498C2.41425 3.75624 2.40398 3.75794 2.39368 3.75969C2.38358 3.76145 2.3735 3.76318 2.36359 3.76539C2.35394 3.76755 2.34444 3.77016 2.3349 3.77278C2.32483 3.77552 2.31476 3.77825 2.30488 3.78149C2.2953 3.78462 2.28592 3.78826 2.2765 3.79188C2.26719 3.79545 2.25784 3.79896 2.24876 3.80297C2.23896 3.80726 2.22939 3.8121 2.21977 3.81691C2.21142 3.82113 2.20306 3.82522 2.1949 3.8298C2.18529 3.83518 2.1759 3.84111 2.16652 3.84704C2.1587 3.85198 2.15092 3.85686 2.14336 3.86213C2.13451 3.86829 2.12593 3.87489 2.11738 3.88156C2.1096 3.88759 2.10186 3.89366 2.09438 3.90007C2.08671 3.90659 2.07931 3.91346 2.07195 3.92042C2.06398 3.92791 2.0562 3.93552 2.04864 3.94342C2.04559 3.94661 2.04227 3.94939 2.03926 3.95267C2.03571 3.95654 2.03277 3.96072 2.02934 3.96465C2.02201 3.97306 2.01492 3.9816 2.00801 3.9904C2.00194 3.99814 1.99611 4.00592 1.99046 4.01386C1.9844 4.0224 1.9786 4.0311 1.97299 4.03995C1.96746 4.04861 1.96212 4.05731 1.95708 4.06616C1.95212 4.07482 1.94751 4.08365 1.94297 4.09258C1.93824 4.10188 1.93366 4.11121 1.92943 4.12069C1.92538 4.12975 1.92168 4.13896 1.91806 4.14825C1.91428 4.1579 1.91066 4.16757 1.90742 4.17738C1.90425 4.18684 1.90143 4.19643 1.89872 4.20608C1.89593 4.21613 1.89326 4.22619 1.89094 4.23633C1.8888 4.24587 1.88693 4.2555 1.88521 4.26521C1.88331 4.27593 1.88163 4.28667 1.88029 4.29746C1.87915 4.30675 1.87822 4.31609 1.87751 4.32548C1.87659 4.33702 1.87601 4.34856 1.87575 4.3601C1.87565 4.3651 1.875 4.36996 1.875 4.375V15C1.87538 15.3314 2.0072 15.6491 2.24154 15.8835C2.47587 16.1178 2.7936 16.2496 3.125 16.25H16.875C17.2064 16.2496 17.5241 16.1178 17.7585 15.8835C17.9928 15.6491 18.1246 15.3314 18.125 15V4.375C18.125 4.36996 18.1244 4.3651 18.1242 4.3601ZM15.8932 5L10 10.4021L4.10679 5H15.8932ZM16.875 15H3.125V5.79582L9.57764 11.7107C9.69292 11.8164 9.84362 11.875 10 11.875C10.1564 11.875 10.3071 11.8164 10.4224 11.7107L16.8751 5.79571L16.8758 15L16.875 15Z" fill="#AAACAE"/>
</svg>
