<svg width="20" height="20" viewBox="0 0 20 20" fill="none" xmlns="http://www.w3.org/2000/svg">
<path fill-rule="evenodd" clip-rule="evenodd" d="M15.3149 4.68994C13.9038 3.27881 12.0288 2.5 10.0317 2.5C5.91553 2.5 2.56348 5.84961 2.56348 9.96582C2.56103 11.2817 2.90527 12.5659 3.55957 13.6987L2.5 17.5684L6.45996 16.5283C7.54883 17.124 8.7793 17.4365 10.0293 17.439H10.0317C14.1479 17.439 17.4976 14.0894 17.5 9.9707C17.5 7.97607 16.7236 6.10107 15.3149 4.68994ZM10.0317 16.1768H10.0293C8.91602 16.1768 7.82227 15.8765 6.87012 15.3125L6.64307 15.1782L4.29199 15.7935L4.91943 13.5034L4.77295 13.269C4.15039 12.2803 3.82324 11.1377 3.82324 9.96582C3.82324 6.54541 6.60889 3.76221 10.0342 3.76221C11.6919 3.76221 13.2495 4.40918 14.4214 5.58106C15.5933 6.75537 16.2378 8.31299 16.2378 9.9707C16.2378 13.3936 13.4521 16.1768 10.0317 16.1768ZM13.4351 11.5283C13.2495 11.4355 12.3315 10.9839 12.1606 10.9229C11.9897 10.8594 11.8652 10.8301 11.7407 11.0156C11.6162 11.2036 11.2598 11.6235 11.1499 11.748C11.0425 11.8701 10.9326 11.8872 10.7471 11.7944C10.5591 11.7017 9.9585 11.5039 9.24561 10.8667C8.69141 10.3735 8.31543 9.76074 8.20801 9.5752C8.09814 9.38721 8.1958 9.28711 8.28857 9.19434C8.37402 9.11133 8.47656 8.97705 8.56934 8.86719C8.66211 8.75977 8.69385 8.68164 8.75732 8.55713C8.81836 8.43262 8.78662 8.32275 8.74023 8.22998C8.69385 8.13721 8.32031 7.2168 8.16406 6.84326C8.0127 6.47949 7.85889 6.53076 7.74414 6.52344C7.63672 6.51856 7.51221 6.51856 7.3877 6.51856C7.26318 6.51856 7.06055 6.56494 6.88965 6.75293C6.71875 6.93848 6.23779 7.39014 6.23779 8.30811C6.23779 9.22607 6.90674 10.1147 6.99951 10.2393C7.09228 10.3613 8.31543 12.2461 10.188 13.0542C10.6323 13.2471 10.979 13.3618 11.25 13.4473C11.6968 13.5889 12.1045 13.5693 12.4268 13.5229C12.7856 13.4692 13.5303 13.0713 13.6865 12.6343C13.8403 12.1997 13.8403 11.8262 13.7939 11.748C13.7476 11.6699 13.623 11.6235 13.4351 11.5283Z" fill="#AAACAE"/>
</svg>
