<svg width="61" height="29" viewBox="0 0 61 29" fill="none" xmlns="http://www.w3.org/2000/svg">
<rect x="0.5" y="0.5" width="60" height="28" rx="14" stroke="#D3D7DB"/>
<path d="M19.2275 19V9.2H25.2895V10.166H20.4035V13.582H24.8695V14.534H20.4035V18.034H25.2895V19H19.2275ZM29.9298 19.168C29.2392 19.168 28.6325 19.0093 28.1098 18.692C27.5965 18.3747 27.1952 17.9407 26.9058 17.39C26.6258 16.8393 26.4858 16.214 26.4858 15.514C26.4858 14.814 26.6305 14.1933 26.9198 13.652C27.2092 13.1013 27.6105 12.672 28.1238 12.364C28.6372 12.0467 29.2438 11.888 29.9438 11.888C30.5132 11.888 31.0172 12.0047 31.4558 12.238C31.8945 12.4713 32.2352 12.798 32.4778 13.218V8.92H33.6538V19H32.5898L32.4778 17.852C32.2538 18.188 31.9318 18.4913 31.5118 18.762C31.0918 19.0327 30.5645 19.168 29.9298 19.168ZM30.0558 18.146C30.5225 18.146 30.9332 18.0387 31.2878 17.824C31.6518 17.6 31.9318 17.292 32.1278 16.9C32.3332 16.508 32.4358 16.0507 32.4358 15.528C32.4358 15.0053 32.3332 14.548 32.1278 14.156C31.9318 13.764 31.6518 13.4607 31.2878 13.246C30.9332 13.022 30.5225 12.91 30.0558 12.91C29.5985 12.91 29.1878 13.022 28.8238 13.246C28.4692 13.4607 28.1892 13.764 27.9838 14.156C27.7878 14.548 27.6898 15.0053 27.6898 15.528C27.6898 16.0507 27.7878 16.508 27.9838 16.9C28.1892 17.292 28.4692 17.6 28.8238 17.824C29.1878 18.0387 29.5985 18.146 30.0558 18.146ZM36.0048 10.516C35.7715 10.516 35.5755 10.4413 35.4168 10.292C35.2675 10.1333 35.1928 9.93733 35.1928 9.704C35.1928 9.48 35.2675 9.29333 35.4168 9.144C35.5755 8.99467 35.7715 8.92 36.0048 8.92C36.2288 8.92 36.4202 8.99467 36.5788 9.144C36.7375 9.29333 36.8168 9.48 36.8168 9.704C36.8168 9.93733 36.7375 10.1333 36.5788 10.292C36.4202 10.4413 36.2288 10.516 36.0048 10.516ZM35.4168 19V12.056H36.5928V19H35.4168ZM41.1045 19C40.4698 19 39.9705 18.846 39.6065 18.538C39.2425 18.23 39.0605 17.6747 39.0605 16.872V13.05H37.8565V12.056H39.0605L39.2145 10.39H40.2365V12.056H42.2805V13.05H40.2365V16.872C40.2365 17.3107 40.3251 17.6093 40.5025 17.768C40.6798 17.9173 40.9925 17.992 41.4405 17.992H42.1685V19H41.1045Z" fill="black"/>
</svg>
