<svg width="39" height="39" viewBox="0 0 39 39" fill="none" xmlns="http://www.w3.org/2000/svg">
<rect width="39" height="39" rx="19.5" fill="#FF874E"/>
<rect x="9" y="11" width="21" height="17" rx="3.5" fill="white"/>
<path fill-rule="evenodd" clip-rule="evenodd" d="M12.5 12H26.5C27.8807 12 29 13.1193 29 14.5V14.9996L19.4724 19.5344L10 15.0259V14.5C10 13.1193 11.1193 12 12.5 12ZM10 15.8414V24.5C10 25.8807 11.1193 27 12.5 27H26.5C27.8807 27 29 25.8807 29 24.5V15.8152L19.5266 20.3242C19.509 20.3325 19.4902 20.3347 19.4724 20.3316C19.4547 20.3347 19.4358 20.3325 19.4183 20.3242L10 15.8414ZM9 14.5C9 12.567 10.567 11 12.5 11H26.5C28.433 11 30 12.567 30 14.5V24.5C30 26.433 28.433 28 26.5 28H12.5C10.567 28 9 26.433 9 24.5V14.5Z" fill="black"/>
</svg>
