<svg width="106" height="29" viewBox="0 0 106 29" fill="none" xmlns="http://www.w3.org/2000/svg">
<rect width="106" height="29" rx="14.5" fill="#E9EBED"/>
<path d="M18.9691 19L22.8611 10.208H17.4851V9.2H24.0651V10.082L20.2151 19H18.9691ZM28.697 19V12.056H29.761L29.859 13.386C30.0736 12.9287 30.4003 12.5647 30.839 12.294C31.2776 12.0233 31.819 11.888 32.463 11.888V13.12H32.141C31.7303 13.12 31.3523 13.1947 31.007 13.344C30.6616 13.484 30.3863 13.7267 30.181 14.072C29.9756 14.4173 29.873 14.8933 29.873 15.5V19H28.697ZM36.3651 19.168C35.7025 19.168 35.1145 19.0187 34.6011 18.72C34.0878 18.412 33.6818 17.9873 33.3831 17.446C33.0938 16.9047 32.9491 16.2653 32.9491 15.528C32.9491 14.8 33.0938 14.1653 33.3831 13.624C33.6725 13.0733 34.0738 12.6487 34.5871 12.35C35.1098 12.042 35.7118 11.888 36.3931 11.888C37.0651 11.888 37.6438 12.042 38.1291 12.35C38.6238 12.6487 39.0018 13.0453 39.2631 13.54C39.5245 14.0347 39.6551 14.5667 39.6551 15.136C39.6551 15.2387 39.6505 15.3413 39.6411 15.444C39.6411 15.5467 39.6411 15.6633 39.6411 15.794H34.1111C34.1391 16.326 34.2605 16.7693 34.4751 17.124C34.6991 17.4693 34.9745 17.7307 35.3011 17.908C35.6371 18.0853 35.9918 18.174 36.3651 18.174C36.8505 18.174 37.2565 18.062 37.5831 17.838C37.9098 17.614 38.1478 17.3107 38.2971 16.928H39.4591C39.2725 17.572 38.9131 18.1087 38.3811 18.538C37.8585 18.958 37.1865 19.168 36.3651 19.168ZM36.3651 12.882C35.8051 12.882 35.3058 13.0547 34.8671 13.4C34.4378 13.736 34.1905 14.2307 34.1251 14.884H38.4931C38.4651 14.2587 38.2505 13.7687 37.8491 13.414C37.4478 13.0593 36.9531 12.882 36.3651 12.882ZM44.1259 19.168C43.4632 19.168 42.8659 19.0187 42.3339 18.72C41.8112 18.412 41.3959 17.9873 41.0879 17.446C40.7892 16.8953 40.6399 16.256 40.6399 15.528C40.6399 14.8 40.7892 14.1653 41.0879 13.624C41.3959 13.0733 41.8112 12.6487 42.3339 12.35C42.8659 12.042 43.4632 11.888 44.1259 11.888C44.9472 11.888 45.6379 12.1027 46.1979 12.532C46.7672 12.9613 47.1265 13.5353 47.2759 14.254H46.0719C45.9785 13.8247 45.7499 13.4933 45.3859 13.26C45.0219 13.0173 44.5972 12.896 44.1119 12.896C43.7199 12.896 43.3512 12.994 43.0059 13.19C42.6605 13.386 42.3805 13.68 42.1659 14.072C41.9512 14.464 41.8439 14.9493 41.8439 15.528C41.8439 16.1067 41.9512 16.592 42.1659 16.984C42.3805 17.376 42.6605 17.6747 43.0059 17.88C43.3512 18.076 43.7199 18.174 44.1119 18.174C44.5972 18.174 45.0219 18.0573 45.3859 17.824C45.7499 17.5813 45.9785 17.2407 46.0719 16.802H47.2759C47.1359 17.502 46.7812 18.0713 46.2119 18.51C45.6425 18.9487 44.9472 19.168 44.1259 19.168ZM49.3522 10.516C49.1189 10.516 48.9229 10.4413 48.7642 10.292C48.6149 10.1333 48.5402 9.93733 48.5402 9.704C48.5402 9.48 48.6149 9.29333 48.7642 9.144C48.9229 8.99467 49.1189 8.92 49.3522 8.92C49.5762 8.92 49.7676 8.99467 49.9262 9.144C50.0849 9.29333 50.1642 9.48 50.1642 9.704C50.1642 9.93733 50.0849 10.1333 49.9262 10.292C49.7676 10.4413 49.5762 10.516 49.3522 10.516ZM48.7642 19V12.056H49.9402V19H48.7642ZM51.7078 22.08V12.056H52.7718L52.8838 13.204C53.1078 12.868 53.4252 12.5647 53.8358 12.294C54.2558 12.0233 54.7878 11.888 55.4318 11.888C56.1225 11.888 56.7245 12.0467 57.2378 12.364C57.7512 12.6813 58.1478 13.1153 58.4278 13.666C58.7172 14.2167 58.8618 14.842 58.8618 15.542C58.8618 16.242 58.7172 16.8673 58.4278 17.418C58.1478 17.9593 57.7465 18.3887 57.2238 18.706C56.7105 19.014 56.1085 19.168 55.4178 19.168C54.8485 19.168 54.3398 19.0513 53.8918 18.818C53.4532 18.5847 53.1172 18.258 52.8838 17.838V22.08H51.7078ZM55.2918 18.146C55.7585 18.146 56.1692 18.0387 56.5238 17.824C56.8785 17.6 57.1585 17.292 57.3638 16.9C57.5692 16.508 57.6718 16.0507 57.6718 15.528C57.6718 15.0053 57.5692 14.548 57.3638 14.156C57.1585 13.764 56.8785 13.4607 56.5238 13.246C56.1692 13.022 55.7585 12.91 55.2918 12.91C54.8252 12.91 54.4145 13.022 54.0598 13.246C53.7052 13.4607 53.4252 13.764 53.2198 14.156C53.0145 14.548 52.9118 15.0053 52.9118 15.528C52.9118 16.0507 53.0145 16.508 53.2198 16.9C53.4252 17.292 53.7052 17.6 54.0598 17.824C54.4145 18.0387 54.8252 18.146 55.2918 18.146ZM60.9329 10.516C60.6995 10.516 60.5035 10.4413 60.3449 10.292C60.1955 10.1333 60.1209 9.93733 60.1209 9.704C60.1209 9.48 60.1955 9.29333 60.3449 9.144C60.5035 8.99467 60.6995 8.92 60.9329 8.92C61.1569 8.92 61.3482 8.99467 61.5069 9.144C61.6655 9.29333 61.7449 9.48 61.7449 9.704C61.7449 9.93733 61.6655 10.1333 61.5069 10.292C61.3482 10.4413 61.1569 10.516 60.9329 10.516ZM60.3449 19V12.056H61.5209V19H60.3449ZM66.4105 19.168C65.7478 19.168 65.1598 19.0187 64.6465 18.72C64.1331 18.412 63.7271 17.9873 63.4285 17.446C63.1391 16.9047 62.9945 16.2653 62.9945 15.528C62.9945 14.8 63.1391 14.1653 63.4285 13.624C63.7178 13.0733 64.1191 12.6487 64.6325 12.35C65.1551 12.042 65.7571 11.888 66.4385 11.888C67.1105 11.888 67.6891 12.042 68.1745 12.35C68.6691 12.6487 69.0471 13.0453 69.3085 13.54C69.5698 14.0347 69.7005 14.5667 69.7005 15.136C69.7005 15.2387 69.6958 15.3413 69.6865 15.444C69.6865 15.5467 69.6865 15.6633 69.6865 15.794H64.1565C64.1845 16.326 64.3058 16.7693 64.5205 17.124C64.7445 17.4693 65.0198 17.7307 65.3465 17.908C65.6825 18.0853 66.0371 18.174 66.4105 18.174C66.8958 18.174 67.3018 18.062 67.6285 17.838C67.9551 17.614 68.1931 17.3107 68.3425 16.928H69.5045C69.3178 17.572 68.9585 18.1087 68.4265 18.538C67.9038 18.958 67.2318 19.168 66.4105 19.168ZM66.4105 12.882C65.8505 12.882 65.3511 13.0547 64.9125 13.4C64.4831 13.736 64.2358 14.2307 64.1705 14.884H68.5385C68.5105 14.2587 68.2958 13.7687 67.8945 13.414C67.4931 13.0593 66.9985 12.882 66.4105 12.882ZM70.9792 19V12.056H72.0432L72.1132 13.302C72.3372 12.8633 72.6592 12.518 73.0792 12.266C73.4992 12.014 73.9752 11.888 74.5072 11.888C75.3285 11.888 75.9818 12.14 76.4672 12.644C76.9618 13.1387 77.2092 13.904 77.2092 14.94V19H76.0332V15.066C76.0332 13.6193 75.4358 12.896 74.2412 12.896C73.6438 12.896 73.1445 13.1153 72.7432 13.554C72.3512 13.9833 72.1552 14.5993 72.1552 15.402V19H70.9792ZM81.4549 19C80.8202 19 80.3209 18.846 79.9569 18.538C79.5929 18.23 79.4109 17.6747 79.4109 16.872V13.05H78.2069V12.056H79.4109L79.5649 10.39H80.5869V12.056H82.6309V13.05H80.5869V16.872C80.5869 17.3107 80.6756 17.6093 80.8529 17.768C81.0302 17.9173 81.3429 17.992 81.7909 17.992H82.5189V19H81.4549ZM86.5049 19.168C85.6743 19.168 84.9836 18.958 84.4329 18.538C83.8823 18.118 83.5603 17.5487 83.4669 16.83H84.6709C84.7456 17.194 84.9369 17.5113 85.2449 17.782C85.5623 18.0433 85.9869 18.174 86.5189 18.174C87.0136 18.174 87.3776 18.0713 87.6109 17.866C87.8443 17.6513 87.9609 17.3993 87.9609 17.11C87.9609 16.69 87.8069 16.41 87.4989 16.27C87.2003 16.13 86.7756 16.004 86.2249 15.892C85.8516 15.8173 85.4783 15.71 85.1049 15.57C84.7316 15.43 84.4189 15.234 84.1669 14.982C83.9149 14.7207 83.7889 14.38 83.7889 13.96C83.7889 13.3533 84.0129 12.8587 84.4609 12.476C84.9183 12.084 85.5343 11.888 86.3089 11.888C87.0463 11.888 87.6483 12.0747 88.1149 12.448C88.5909 12.812 88.8663 13.3347 88.9409 14.016H87.7789C87.7323 13.6613 87.5783 13.386 87.3169 13.19C87.0649 12.9847 86.7243 12.882 86.2949 12.882C85.8749 12.882 85.5483 12.9707 85.3149 13.148C85.0909 13.3253 84.9789 13.5587 84.9789 13.848C84.9789 14.128 85.1236 14.3473 85.4129 14.506C85.7116 14.6647 86.1129 14.8 86.6169 14.912C87.0463 15.0053 87.4523 15.122 87.8349 15.262C88.2269 15.3927 88.5443 15.5933 88.7869 15.864C89.0389 16.1253 89.1649 16.508 89.1649 17.012C89.1743 17.6373 88.9363 18.1553 88.4509 18.566C87.9749 18.9673 87.3263 19.168 86.5049 19.168Z" fill="black"/>
</svg>
