<svg width="106" height="29" viewBox="0 0 106 29" fill="none" xmlns="http://www.w3.org/2000/svg">
<rect width="106" height="29" rx="14.5" fill="#E9EBED"/>
<path d="M16.1449 19V10.516L14.5629 10.866V10.054L16.5369 9.2H17.3349V19H16.1449ZM23.5615 19V16.9H18.5915V15.99L23.3515 9.2H24.7235V15.864H26.1795V16.9H24.7235V19H23.5615ZM19.8935 15.864H23.6175V10.502L19.8935 15.864ZM30.6751 19V12.056H31.7391L31.8371 13.386C32.0518 12.9287 32.3785 12.5647 32.8171 12.294C33.2558 12.0233 33.7971 11.888 34.4411 11.888V13.12H34.1191C33.7085 13.12 33.3305 13.1947 32.9851 13.344C32.6398 13.484 32.3645 13.7267 32.1591 14.072C31.9538 14.4173 31.8511 14.8933 31.8511 15.5V19H30.6751ZM38.3433 19.168C37.6806 19.168 37.0926 19.0187 36.5793 18.72C36.066 18.412 35.66 17.9873 35.3613 17.446C35.072 16.9047 34.9273 16.2653 34.9273 15.528C34.9273 14.8 35.072 14.1653 35.3613 13.624C35.6506 13.0733 36.052 12.6487 36.5653 12.35C37.088 12.042 37.69 11.888 38.3713 11.888C39.0433 11.888 39.622 12.042 40.1073 12.35C40.602 12.6487 40.98 13.0453 41.2413 13.54C41.5026 14.0347 41.6333 14.5667 41.6333 15.136C41.6333 15.2387 41.6286 15.3413 41.6193 15.444C41.6193 15.5467 41.6193 15.6633 41.6193 15.794H36.0893C36.1173 16.326 36.2386 16.7693 36.4533 17.124C36.6773 17.4693 36.9526 17.7307 37.2793 17.908C37.6153 18.0853 37.97 18.174 38.3433 18.174C38.8286 18.174 39.2346 18.062 39.5613 17.838C39.888 17.614 40.126 17.3107 40.2753 16.928H41.4373C41.2506 17.572 40.8913 18.1087 40.3593 18.538C39.8366 18.958 39.1646 19.168 38.3433 19.168ZM38.3433 12.882C37.7833 12.882 37.284 13.0547 36.8453 13.4C36.416 13.736 36.1686 14.2307 36.1033 14.884H40.4713C40.4433 14.2587 40.2286 13.7687 39.8273 13.414C39.426 13.0593 38.9313 12.882 38.3433 12.882ZM46.104 19.168C45.4413 19.168 44.844 19.0187 44.312 18.72C43.7893 18.412 43.374 17.9873 43.066 17.446C42.7673 16.8953 42.618 16.256 42.618 15.528C42.618 14.8 42.7673 14.1653 43.066 13.624C43.374 13.0733 43.7893 12.6487 44.312 12.35C44.844 12.042 45.4413 11.888 46.104 11.888C46.9253 11.888 47.616 12.1027 48.176 12.532C48.7454 12.9613 49.1047 13.5353 49.254 14.254H48.05C47.9567 13.8247 47.728 13.4933 47.364 13.26C47 13.0173 46.5753 12.896 46.09 12.896C45.698 12.896 45.3293 12.994 44.984 13.19C44.6387 13.386 44.3587 13.68 44.144 14.072C43.9293 14.464 43.822 14.9493 43.822 15.528C43.822 16.1067 43.9293 16.592 44.144 16.984C44.3587 17.376 44.6387 17.6747 44.984 17.88C45.3293 18.076 45.698 18.174 46.09 18.174C46.5753 18.174 47 18.0573 47.364 17.824C47.728 17.5813 47.9567 17.2407 48.05 16.802H49.254C49.114 17.502 48.7593 18.0713 48.19 18.51C47.6207 18.9487 46.9253 19.168 46.104 19.168ZM51.3304 10.516C51.0971 10.516 50.9011 10.4413 50.7424 10.292C50.5931 10.1333 50.5184 9.93733 50.5184 9.704C50.5184 9.48 50.5931 9.29333 50.7424 9.144C50.9011 8.99467 51.0971 8.92 51.3304 8.92C51.5544 8.92 51.7457 8.99467 51.9044 9.144C52.0631 9.29333 52.1424 9.48 52.1424 9.704C52.1424 9.93733 52.0631 10.1333 51.9044 10.292C51.7457 10.4413 51.5544 10.516 51.3304 10.516ZM50.7424 19V12.056H51.9184V19H50.7424ZM53.686 22.08V12.056H54.75L54.862 13.204C55.086 12.868 55.4033 12.5647 55.814 12.294C56.234 12.0233 56.766 11.888 57.41 11.888C58.1007 11.888 58.7027 12.0467 59.216 12.364C59.7293 12.6813 60.126 13.1153 60.406 13.666C60.6953 14.2167 60.84 14.842 60.84 15.542C60.84 16.242 60.6953 16.8673 60.406 17.418C60.126 17.9593 59.7247 18.3887 59.202 18.706C58.6887 19.014 58.0867 19.168 57.396 19.168C56.8267 19.168 56.318 19.0513 55.87 18.818C55.4313 18.5847 55.0953 18.258 54.862 17.838V22.08H53.686ZM57.27 18.146C57.7367 18.146 58.1473 18.0387 58.502 17.824C58.8567 17.6 59.1367 17.292 59.342 16.9C59.5473 16.508 59.65 16.0507 59.65 15.528C59.65 15.0053 59.5473 14.548 59.342 14.156C59.1367 13.764 58.8567 13.4607 58.502 13.246C58.1473 13.022 57.7367 12.91 57.27 12.91C56.8033 12.91 56.3927 13.022 56.038 13.246C55.6833 13.4607 55.4033 13.764 55.198 14.156C54.9927 14.548 54.89 15.0053 54.89 15.528C54.89 16.0507 54.9927 16.508 55.198 16.9C55.4033 17.292 55.6833 17.6 56.038 17.824C56.3927 18.0387 56.8033 18.146 57.27 18.146ZM62.911 10.516C62.6777 10.516 62.4817 10.4413 62.323 10.292C62.1737 10.1333 62.099 9.93733 62.099 9.704C62.099 9.48 62.1737 9.29333 62.323 9.144C62.4817 8.99467 62.6777 8.92 62.911 8.92C63.135 8.92 63.3263 8.99467 63.485 9.144C63.6437 9.29333 63.723 9.48 63.723 9.704C63.723 9.93733 63.6437 10.1333 63.485 10.292C63.3263 10.4413 63.135 10.516 62.911 10.516ZM62.323 19V12.056H63.499V19H62.323ZM68.3886 19.168C67.726 19.168 67.138 19.0187 66.6246 18.72C66.1113 18.412 65.7053 17.9873 65.4066 17.446C65.1173 16.9047 64.9726 16.2653 64.9726 15.528C64.9726 14.8 65.1173 14.1653 65.4066 13.624C65.696 13.0733 66.0973 12.6487 66.6106 12.35C67.1333 12.042 67.7353 11.888 68.4166 11.888C69.0886 11.888 69.6673 12.042 70.1526 12.35C70.6473 12.6487 71.0253 13.0453 71.2866 13.54C71.548 14.0347 71.6786 14.5667 71.6786 15.136C71.6786 15.2387 71.674 15.3413 71.6646 15.444C71.6646 15.5467 71.6646 15.6633 71.6646 15.794H66.1346C66.1626 16.326 66.284 16.7693 66.4986 17.124C66.7226 17.4693 66.998 17.7307 67.3246 17.908C67.6606 18.0853 68.0153 18.174 68.3886 18.174C68.874 18.174 69.28 18.062 69.6066 17.838C69.9333 17.614 70.1713 17.3107 70.3206 16.928H71.4826C71.296 17.572 70.9366 18.1087 70.4046 18.538C69.882 18.958 69.21 19.168 68.3886 19.168ZM68.3886 12.882C67.8286 12.882 67.3293 13.0547 66.8906 13.4C66.4613 13.736 66.214 14.2307 66.1486 14.884H70.5166C70.4886 14.2587 70.274 13.7687 69.8726 13.414C69.4713 13.0593 68.9766 12.882 68.3886 12.882ZM72.9573 19V12.056H74.0213L74.0913 13.302C74.3153 12.8633 74.6373 12.518 75.0573 12.266C75.4773 12.014 75.9533 11.888 76.4853 11.888C77.3067 11.888 77.96 12.14 78.4453 12.644C78.94 13.1387 79.1873 13.904 79.1873 14.94V19H78.0113V15.066C78.0113 13.6193 77.414 12.896 76.2193 12.896C75.622 12.896 75.1227 13.1153 74.7213 13.554C74.3293 13.9833 74.1333 14.5993 74.1333 15.402V19H72.9573ZM83.433 19C82.7984 19 82.299 18.846 81.935 18.538C81.571 18.23 81.389 17.6747 81.389 16.872V13.05H80.185V12.056H81.389L81.543 10.39H82.565V12.056H84.609V13.05H82.565V16.872C82.565 17.3107 82.6537 17.6093 82.831 17.768C83.0084 17.9173 83.321 17.992 83.769 17.992H84.497V19H83.433ZM88.4831 19.168C87.6524 19.168 86.9618 18.958 86.4111 18.538C85.8604 18.118 85.5384 17.5487 85.4451 16.83H86.6491C86.7238 17.194 86.9151 17.5113 87.2231 17.782C87.5404 18.0433 87.9651 18.174 88.4971 18.174C88.9918 18.174 89.3558 18.0713 89.5891 17.866C89.8224 17.6513 89.9391 17.3993 89.9391 17.11C89.9391 16.69 89.7851 16.41 89.4771 16.27C89.1784 16.13 88.7538 16.004 88.2031 15.892C87.8298 15.8173 87.4564 15.71 87.0831 15.57C86.7098 15.43 86.3971 15.234 86.1451 14.982C85.8931 14.7207 85.7671 14.38 85.7671 13.96C85.7671 13.3533 85.9911 12.8587 86.4391 12.476C86.8964 12.084 87.5124 11.888 88.2871 11.888C89.0244 11.888 89.6264 12.0747 90.0931 12.448C90.5691 12.812 90.8444 13.3347 90.9191 14.016H89.7571C89.7104 13.6613 89.5564 13.386 89.2951 13.19C89.0431 12.9847 88.7024 12.882 88.2731 12.882C87.8531 12.882 87.5264 12.9707 87.2931 13.148C87.0691 13.3253 86.9571 13.5587 86.9571 13.848C86.9571 14.128 87.1018 14.3473 87.3911 14.506C87.6898 14.6647 88.0911 14.8 88.5951 14.912C89.0244 15.0053 89.4304 15.122 89.8131 15.262C90.2051 15.3927 90.5224 15.5933 90.7651 15.864C91.0171 16.1253 91.1431 16.508 91.1431 17.012C91.1524 17.6373 90.9144 18.1553 90.4291 18.566C89.9531 18.9673 89.3044 19.168 88.4831 19.168Z" fill="black"/>
</svg>
