<svg width="106" height="29" viewBox="0 0 106 29" fill="none" xmlns="http://www.w3.org/2000/svg">
<rect width="106" height="29" rx="14.5" fill="#E9EBED"/>
<path d="M16.1107 19V10.516L14.5287 10.866V10.054L16.5027 9.2H17.3007V19H16.1107ZM22.3233 19.168C21.6793 19.168 21.1007 19.0513 20.5873 18.818C20.074 18.5753 19.668 18.244 19.3693 17.824C19.08 17.3947 18.9353 16.9 18.9353 16.34C18.9353 15.7427 19.108 15.206 19.4533 14.73C19.808 14.254 20.2747 13.9367 20.8533 13.778C20.3213 13.6007 19.9107 13.316 19.6213 12.924C19.332 12.532 19.1873 12.1027 19.1873 11.636C19.1873 11.16 19.3133 10.726 19.5653 10.334C19.8173 9.93267 20.1767 9.61533 20.6433 9.382C21.11 9.14867 21.67 9.032 22.3233 9.032C22.9767 9.032 23.5367 9.14867 24.0033 9.382C24.47 9.61533 24.8293 9.93267 25.0813 10.334C25.3333 10.726 25.4593 11.16 25.4593 11.636C25.4593 12.0933 25.3147 12.5227 25.0253 12.924C24.736 13.316 24.3253 13.6007 23.7933 13.778C24.372 13.9367 24.834 14.254 25.1793 14.73C25.534 15.206 25.7113 15.7427 25.7113 16.34C25.7113 16.9 25.562 17.3947 25.2633 17.824C24.974 18.244 24.5727 18.5753 24.0593 18.818C23.546 19.0513 22.9673 19.168 22.3233 19.168ZM22.3233 13.358C22.9207 13.358 23.392 13.2087 23.7373 12.91C24.092 12.602 24.2693 12.2007 24.2693 11.706C24.2693 11.1553 24.0967 10.74 23.7513 10.46C23.406 10.18 22.93 10.04 22.3233 10.04C21.7167 10.04 21.2407 10.18 20.8953 10.46C20.5593 10.74 20.3913 11.1553 20.3913 11.706C20.3913 12.2007 20.564 12.602 20.9093 12.91C21.2547 13.2087 21.726 13.358 22.3233 13.358ZM22.3233 18.132C23.0607 18.132 23.6113 17.964 23.9753 17.628C24.3487 17.2827 24.5353 16.83 24.5353 16.27C24.5353 15.6353 24.3347 15.1547 23.9333 14.828C23.532 14.5013 22.9953 14.338 22.3233 14.338C21.6513 14.338 21.1147 14.5013 20.7133 14.828C20.312 15.1547 20.1113 15.6353 20.1113 16.27C20.1113 16.83 20.2933 17.2827 20.6573 17.628C21.0307 17.964 21.586 18.132 22.3233 18.132ZM30.7093 19V12.056H31.7733L31.8713 13.386C32.086 12.9287 32.4127 12.5647 32.8513 12.294C33.29 12.0233 33.8313 11.888 34.4753 11.888V13.12H34.1533C33.7427 13.12 33.3647 13.1947 33.0193 13.344C32.674 13.484 32.3987 13.7267 32.1933 14.072C31.988 14.4173 31.8853 14.8933 31.8853 15.5V19H30.7093ZM38.3775 19.168C37.7148 19.168 37.1268 19.0187 36.6135 18.72C36.1002 18.412 35.6942 17.9873 35.3955 17.446C35.1062 16.9047 34.9615 16.2653 34.9615 15.528C34.9615 14.8 35.1062 14.1653 35.3955 13.624C35.6848 13.0733 36.0862 12.6487 36.5995 12.35C37.1222 12.042 37.7242 11.888 38.4055 11.888C39.0775 11.888 39.6562 12.042 40.1415 12.35C40.6362 12.6487 41.0142 13.0453 41.2755 13.54C41.5368 14.0347 41.6675 14.5667 41.6675 15.136C41.6675 15.2387 41.6628 15.3413 41.6535 15.444C41.6535 15.5467 41.6535 15.6633 41.6535 15.794H36.1235C36.1515 16.326 36.2728 16.7693 36.4875 17.124C36.7115 17.4693 36.9868 17.7307 37.3135 17.908C37.6495 18.0853 38.0042 18.174 38.3775 18.174C38.8628 18.174 39.2688 18.062 39.5955 17.838C39.9222 17.614 40.1602 17.3107 40.3095 16.928H41.4715C41.2848 17.572 40.9255 18.1087 40.3935 18.538C39.8708 18.958 39.1988 19.168 38.3775 19.168ZM38.3775 12.882C37.8175 12.882 37.3182 13.0547 36.8795 13.4C36.4502 13.736 36.2028 14.2307 36.1375 14.884H40.5055C40.4775 14.2587 40.2628 13.7687 39.8615 13.414C39.4602 13.0593 38.9655 12.882 38.3775 12.882ZM46.1382 19.168C45.4755 19.168 44.8782 19.0187 44.3462 18.72C43.8235 18.412 43.4082 17.9873 43.1002 17.446C42.8015 16.8953 42.6522 16.256 42.6522 15.528C42.6522 14.8 42.8015 14.1653 43.1002 13.624C43.4082 13.0733 43.8235 12.6487 44.3462 12.35C44.8782 12.042 45.4755 11.888 46.1382 11.888C46.9595 11.888 47.6502 12.1027 48.2102 12.532C48.7795 12.9613 49.1389 13.5353 49.2882 14.254H48.0842C47.9909 13.8247 47.7622 13.4933 47.3982 13.26C47.0342 13.0173 46.6095 12.896 46.1242 12.896C45.7322 12.896 45.3635 12.994 45.0182 13.19C44.6729 13.386 44.3929 13.68 44.1782 14.072C43.9635 14.464 43.8562 14.9493 43.8562 15.528C43.8562 16.1067 43.9635 16.592 44.1782 16.984C44.3929 17.376 44.6729 17.6747 45.0182 17.88C45.3635 18.076 45.7322 18.174 46.1242 18.174C46.6095 18.174 47.0342 18.0573 47.3982 17.824C47.7622 17.5813 47.9909 17.2407 48.0842 16.802H49.2882C49.1482 17.502 48.7935 18.0713 48.2242 18.51C47.6549 18.9487 46.9595 19.168 46.1382 19.168ZM51.3646 10.516C51.1312 10.516 50.9352 10.4413 50.7766 10.292C50.6272 10.1333 50.5526 9.93733 50.5526 9.704C50.5526 9.48 50.6272 9.29333 50.7766 9.144C50.9352 8.99467 51.1312 8.92 51.3646 8.92C51.5886 8.92 51.7799 8.99467 51.9386 9.144C52.0972 9.29333 52.1766 9.48 52.1766 9.704C52.1766 9.93733 52.0972 10.1333 51.9386 10.292C51.7799 10.4413 51.5886 10.516 51.3646 10.516ZM50.7766 19V12.056H51.9526V19H50.7766ZM53.7202 22.08V12.056H54.7842L54.8962 13.204C55.1202 12.868 55.4375 12.5647 55.8482 12.294C56.2682 12.0233 56.8002 11.888 57.4442 11.888C58.1348 11.888 58.7368 12.0467 59.2502 12.364C59.7635 12.6813 60.1602 13.1153 60.4402 13.666C60.7295 14.2167 60.8742 14.842 60.8742 15.542C60.8742 16.242 60.7295 16.8673 60.4402 17.418C60.1602 17.9593 59.7588 18.3887 59.2362 18.706C58.7228 19.014 58.1208 19.168 57.4302 19.168C56.8608 19.168 56.3522 19.0513 55.9042 18.818C55.4655 18.5847 55.1295 18.258 54.8962 17.838V22.08H53.7202ZM57.3042 18.146C57.7708 18.146 58.1815 18.0387 58.5362 17.824C58.8908 17.6 59.1708 17.292 59.3762 16.9C59.5815 16.508 59.6842 16.0507 59.6842 15.528C59.6842 15.0053 59.5815 14.548 59.3762 14.156C59.1708 13.764 58.8908 13.4607 58.5362 13.246C58.1815 13.022 57.7708 12.91 57.3042 12.91C56.8375 12.91 56.4268 13.022 56.0722 13.246C55.7175 13.4607 55.4375 13.764 55.2322 14.156C55.0268 14.548 54.9242 15.0053 54.9242 15.528C54.9242 16.0507 55.0268 16.508 55.2322 16.9C55.4375 17.292 55.7175 17.6 56.0722 17.824C56.4268 18.0387 56.8375 18.146 57.3042 18.146ZM62.9452 10.516C62.7119 10.516 62.5159 10.4413 62.3572 10.292C62.2079 10.1333 62.1332 9.93733 62.1332 9.704C62.1332 9.48 62.2079 9.29333 62.3572 9.144C62.5159 8.99467 62.7119 8.92 62.9452 8.92C63.1692 8.92 63.3605 8.99467 63.5192 9.144C63.6779 9.29333 63.7572 9.48 63.7572 9.704C63.7572 9.93733 63.6779 10.1333 63.5192 10.292C63.3605 10.4413 63.1692 10.516 62.9452 10.516ZM62.3572 19V12.056H63.5332V19H62.3572ZM68.4228 19.168C67.7601 19.168 67.1721 19.0187 66.6588 18.72C66.1455 18.412 65.7395 17.9873 65.4408 17.446C65.1515 16.9047 65.0068 16.2653 65.0068 15.528C65.0068 14.8 65.1515 14.1653 65.4408 13.624C65.7301 13.0733 66.1315 12.6487 66.6448 12.35C67.1675 12.042 67.7695 11.888 68.4508 11.888C69.1228 11.888 69.7015 12.042 70.1868 12.35C70.6815 12.6487 71.0595 13.0453 71.3208 13.54C71.5821 14.0347 71.7128 14.5667 71.7128 15.136C71.7128 15.2387 71.7081 15.3413 71.6988 15.444C71.6988 15.5467 71.6988 15.6633 71.6988 15.794H66.1688C66.1968 16.326 66.3181 16.7693 66.5328 17.124C66.7568 17.4693 67.0321 17.7307 67.3588 17.908C67.6948 18.0853 68.0495 18.174 68.4228 18.174C68.9081 18.174 69.3141 18.062 69.6408 17.838C69.9675 17.614 70.2055 17.3107 70.3548 16.928H71.5168C71.3301 17.572 70.9708 18.1087 70.4388 18.538C69.9161 18.958 69.2441 19.168 68.4228 19.168ZM68.4228 12.882C67.8628 12.882 67.3635 13.0547 66.9248 13.4C66.4955 13.736 66.2481 14.2307 66.1828 14.884H70.5508C70.5228 14.2587 70.3081 13.7687 69.9068 13.414C69.5055 13.0593 69.0108 12.882 68.4228 12.882ZM72.9915 19V12.056H74.0555L74.1255 13.302C74.3495 12.8633 74.6715 12.518 75.0915 12.266C75.5115 12.014 75.9875 11.888 76.5195 11.888C77.3408 11.888 77.9942 12.14 78.4795 12.644C78.9742 13.1387 79.2215 13.904 79.2215 14.94V19H78.0455V15.066C78.0455 13.6193 77.4482 12.896 76.2535 12.896C75.6562 12.896 75.1568 13.1153 74.7555 13.554C74.3635 13.9833 74.1675 14.5993 74.1675 15.402V19H72.9915ZM83.4672 19C82.8326 19 82.3332 18.846 81.9692 18.538C81.6052 18.23 81.4232 17.6747 81.4232 16.872V13.05H80.2192V12.056H81.4232L81.5772 10.39H82.5992V12.056H84.6432V13.05H82.5992V16.872C82.5992 17.3107 82.6879 17.6093 82.8652 17.768C83.0426 17.9173 83.3552 17.992 83.8032 17.992H84.5312V19H83.4672ZM88.5173 19.168C87.6866 19.168 86.996 18.958 86.4453 18.538C85.8946 18.118 85.5726 17.5487 85.4793 16.83H86.6833C86.758 17.194 86.9493 17.5113 87.2573 17.782C87.5746 18.0433 87.9993 18.174 88.5313 18.174C89.026 18.174 89.39 18.0713 89.6233 17.866C89.8566 17.6513 89.9733 17.3993 89.9733 17.11C89.9733 16.69 89.8193 16.41 89.5113 16.27C89.2126 16.13 88.788 16.004 88.2373 15.892C87.864 15.8173 87.4906 15.71 87.1173 15.57C86.744 15.43 86.4313 15.234 86.1793 14.982C85.9273 14.7207 85.8013 14.38 85.8013 13.96C85.8013 13.3533 86.0253 12.8587 86.4733 12.476C86.9306 12.084 87.5466 11.888 88.3213 11.888C89.0586 11.888 89.6606 12.0747 90.1273 12.448C90.6033 12.812 90.8786 13.3347 90.9533 14.016H89.7913C89.7446 13.6613 89.5906 13.386 89.3293 13.19C89.0773 12.9847 88.7366 12.882 88.3073 12.882C87.8873 12.882 87.5606 12.9707 87.3273 13.148C87.1033 13.3253 86.9913 13.5587 86.9913 13.848C86.9913 14.128 87.136 14.3473 87.4253 14.506C87.724 14.6647 88.1253 14.8 88.6293 14.912C89.0586 15.0053 89.4646 15.122 89.8473 15.262C90.2393 15.3927 90.5566 15.5933 90.7993 15.864C91.0513 16.1253 91.1773 16.508 91.1773 17.012C91.1866 17.6373 90.9486 18.1553 90.4633 18.566C89.9873 18.9673 89.3386 19.168 88.5173 19.168Z" fill="black"/>
</svg>
