<svg width="122" height="35" viewBox="0 0 122 35" fill="none" xmlns="http://www.w3.org/2000/svg">
<rect x="0.5" y="0.5" width="121" height="34" rx="17" fill="white" stroke="#D3D7DB"/>
<path opacity="0.8" d="M1 17.5C1 8.3873 8.3873 1 17.5 1H61V34H17.5C8.3873 34 1 26.6127 1 17.5Z" fill="url(#paint0_linear_152_2128)"/>
<path opacity="0.9" d="M38.334 22.168C37.3727 22.168 36.542 21.958 35.842 21.538C35.1513 21.1087 34.6147 20.516 34.232 19.76C33.8493 18.9947 33.658 18.108 33.658 17.1C33.658 16.1013 33.8493 15.224 34.232 14.468C34.6147 13.7027 35.1513 13.1053 35.842 12.676C36.542 12.2467 37.3727 12.032 38.334 12.032C39.454 12.032 40.364 12.3027 41.064 12.844C41.7733 13.376 42.226 14.1227 42.422 15.084H41.12C40.9707 14.4773 40.6627 13.992 40.196 13.628C39.7387 13.2547 39.118 13.068 38.334 13.068C37.634 13.068 37.0227 13.2313 36.5 13.558C35.9773 13.8753 35.5713 14.3373 35.282 14.944C35.002 15.5413 34.862 16.26 34.862 17.1C34.862 17.94 35.002 18.6633 35.282 19.27C35.5713 19.8673 35.9773 20.3293 36.5 20.656C37.0227 20.9733 37.634 21.132 38.334 21.132C39.118 21.132 39.7387 20.9547 40.196 20.6C40.6627 20.236 40.9707 19.7553 41.12 19.158H42.422C42.226 20.1007 41.7733 20.838 41.064 21.37C40.364 21.902 39.454 22.168 38.334 22.168ZM47.2062 22.168C46.5528 22.168 45.9648 22.0187 45.4422 21.72C44.9195 21.4213 44.5042 21.0013 44.1962 20.46C43.8975 19.9093 43.7482 19.2653 43.7482 18.528C43.7482 17.7907 43.9022 17.1513 44.2102 16.61C44.5182 16.0593 44.9335 15.6347 45.4562 15.336C45.9882 15.0373 46.5808 14.888 47.2342 14.888C47.8875 14.888 48.4755 15.0373 48.9982 15.336C49.5208 15.6347 49.9315 16.0593 50.2302 16.61C50.5382 17.1513 50.6922 17.7907 50.6922 18.528C50.6922 19.2653 50.5382 19.9093 50.2302 20.46C49.9222 21.0013 49.5022 21.4213 48.9702 21.72C48.4475 22.0187 47.8595 22.168 47.2062 22.168ZM47.2062 21.16C47.6075 21.16 47.9808 21.062 48.3262 20.866C48.6715 20.67 48.9515 20.376 49.1662 19.984C49.3808 19.592 49.4882 19.1067 49.4882 18.528C49.4882 17.9493 49.3808 17.464 49.1662 17.072C48.9608 16.68 48.6855 16.386 48.3402 16.19C47.9948 15.994 47.6262 15.896 47.2342 15.896C46.8328 15.896 46.4595 15.994 46.1142 16.19C45.7688 16.386 45.4888 16.68 45.2742 17.072C45.0595 17.464 44.9522 17.9493 44.9522 18.528C44.9522 19.1067 45.0595 19.592 45.2742 19.984C45.4888 20.376 45.7642 20.67 46.1002 20.866C46.4455 21.062 46.8142 21.16 47.2062 21.16ZM52.3273 22V11.92H53.5033V22H52.3273ZM55.4308 22V11.92H56.6068V22H55.4308ZM61.6564 22.168C60.9937 22.168 60.4057 22.0187 59.8924 21.72C59.379 21.412 58.973 20.9873 58.6744 20.446C58.385 19.9047 58.2404 19.2653 58.2404 18.528C58.2404 17.8 58.385 17.1653 58.6744 16.624C58.9637 16.0733 59.365 15.6487 59.8784 15.35C60.401 15.042 61.003 14.888 61.6844 14.888C62.3564 14.888 62.935 15.042 63.4204 15.35C63.915 15.6487 64.293 16.0453 64.5544 16.54C64.8157 17.0347 64.9464 17.5667 64.9464 18.136C64.9464 18.2387 64.9417 18.3413 64.9324 18.444C64.9324 18.5467 64.9324 18.6633 64.9324 18.794H59.4024C59.4304 19.326 59.5517 19.7693 59.7664 20.124C59.9904 20.4693 60.2657 20.7307 60.5924 20.908C60.9284 21.0853 61.283 21.174 61.6564 21.174C62.1417 21.174 62.5477 21.062 62.8744 20.838C63.201 20.614 63.439 20.3107 63.5884 19.928H64.7504C64.5637 20.572 64.2044 21.1087 63.6724 21.538C63.1497 21.958 62.4777 22.168 61.6564 22.168ZM61.6564 15.882C61.0964 15.882 60.597 16.0547 60.1584 16.4C59.729 16.736 59.4817 17.2307 59.4164 17.884H63.7844C63.7564 17.2587 63.5417 16.7687 63.1404 16.414C62.739 16.0593 62.2444 15.882 61.6564 15.882ZM68.8151 22.168C68.2364 22.168 67.7557 22.07 67.3731 21.874C66.9904 21.678 66.7057 21.4167 66.5191 21.09C66.3324 20.7633 66.2391 20.4087 66.2391 20.026C66.2391 19.3167 66.5097 18.7707 67.0511 18.388C67.5924 18.0053 68.3297 17.814 69.2631 17.814H71.1391V17.73C71.1391 17.1233 70.9804 16.666 70.6631 16.358C70.3457 16.0407 69.9211 15.882 69.3891 15.882C68.9317 15.882 68.5351 15.9987 68.1991 16.232C67.8724 16.456 67.6671 16.7873 67.5831 17.226H66.3791C66.4257 16.722 66.5937 16.2973 66.8831 15.952C67.1817 15.6067 67.5504 15.3453 67.9891 15.168C68.4277 14.9813 68.8944 14.888 69.3891 14.888C70.3597 14.888 71.0877 15.1493 71.5731 15.672C72.0677 16.1853 72.3151 16.8713 72.3151 17.73V22H71.2651L71.1951 20.754C70.9991 21.146 70.7097 21.482 70.3271 21.762C69.9537 22.0327 69.4497 22.168 68.8151 22.168ZM68.9971 21.174C69.4451 21.174 69.8277 21.0573 70.1451 20.824C70.4717 20.5907 70.7191 20.2873 70.8871 19.914C71.0551 19.5407 71.1391 19.1487 71.1391 18.738V18.724H69.3611C68.6704 18.724 68.1804 18.8453 67.8911 19.088C67.6111 19.3213 67.4711 19.6153 67.4711 19.97C67.4711 20.334 67.6017 20.628 67.8631 20.852C68.1337 21.0667 68.5117 21.174 68.9971 21.174ZM76.8233 19.816C76.4313 19.816 76.0719 19.7647 75.7453 19.662L75.0453 20.32C75.1479 20.3947 75.2739 20.46 75.4233 20.516C75.5819 20.5627 75.8059 20.6093 76.0953 20.656C76.3846 20.6933 76.7906 20.7353 77.3133 20.782C78.2466 20.8473 78.9139 21.062 79.3153 21.426C79.7166 21.79 79.9173 22.266 79.9173 22.854C79.9173 23.2553 79.8053 23.638 79.5813 24.002C79.3666 24.366 79.0306 24.6647 78.5733 24.898C78.1253 25.1313 77.5466 25.248 76.8373 25.248C76.2119 25.248 75.6566 25.164 75.1713 24.996C74.6859 24.8373 74.3079 24.59 74.0373 24.254C73.7666 23.9273 73.6313 23.512 73.6313 23.008C73.6313 22.7467 73.7013 22.462 73.8413 22.154C73.9813 21.8553 74.2426 21.5707 74.6253 21.3C74.4199 21.216 74.2426 21.1273 74.0933 21.034C73.9533 20.9313 73.8226 20.8193 73.7013 20.698V20.376L74.8913 19.2C74.3406 18.7333 74.0653 18.1173 74.0653 17.352C74.0653 16.8947 74.1726 16.4793 74.3873 16.106C74.6019 15.7327 74.9146 15.4387 75.3253 15.224C75.7359 15 76.2353 14.888 76.8233 14.888C77.2246 14.888 77.5886 14.944 77.9153 15.056H80.4773V15.938L79.1753 15.994C79.4459 16.386 79.5813 16.8387 79.5813 17.352C79.5813 17.8093 79.4693 18.2247 79.2453 18.598C79.0306 18.9713 78.7179 19.27 78.3073 19.494C77.9059 19.7087 77.4113 19.816 76.8233 19.816ZM76.8233 18.85C77.3179 18.85 77.7099 18.724 77.9993 18.472C78.2979 18.2107 78.4473 17.8373 78.4473 17.352C78.4473 16.876 78.2979 16.512 77.9993 16.26C77.7099 15.9987 77.3179 15.868 76.8233 15.868C76.3193 15.868 75.9179 15.9987 75.6193 16.26C75.3299 16.512 75.1853 16.876 75.1853 17.352C75.1853 17.8373 75.3299 18.2107 75.6193 18.472C75.9179 18.724 76.3193 18.85 76.8233 18.85ZM74.7793 22.896C74.7793 23.3627 74.9753 23.708 75.3673 23.932C75.7593 24.1653 76.2493 24.282 76.8373 24.282C77.4159 24.282 77.8779 24.156 78.2233 23.904C78.5779 23.652 78.7553 23.316 78.7553 22.896C78.7553 22.5973 78.6339 22.336 78.3913 22.112C78.1486 21.8973 77.7006 21.7713 77.0473 21.734C76.5339 21.6967 76.0906 21.65 75.7173 21.594C75.3346 21.7993 75.0826 22.0187 74.9613 22.252C74.8399 22.4947 74.7793 22.7093 74.7793 22.896ZM84.3379 22.168C83.5166 22.168 82.8632 21.9207 82.3779 21.426C81.8926 20.922 81.6499 20.152 81.6499 19.116V15.056H82.8259V18.99C82.8259 20.4367 83.4186 21.16 84.6039 21.16C85.2106 21.16 85.7099 20.9453 86.1019 20.516C86.5032 20.0773 86.7039 19.4567 86.7039 18.654V15.056H87.8799V22H86.8159L86.7319 20.754C86.5172 21.1927 86.1952 21.538 85.7659 21.79C85.3459 22.042 84.8699 22.168 84.3379 22.168ZM92.9376 22.168C92.2749 22.168 91.6869 22.0187 91.1736 21.72C90.6603 21.412 90.2543 20.9873 89.9556 20.446C89.6663 19.9047 89.5216 19.2653 89.5216 18.528C89.5216 17.8 89.6663 17.1653 89.9556 16.624C90.2449 16.0733 90.6463 15.6487 91.1596 15.35C91.6823 15.042 92.2843 14.888 92.9656 14.888C93.6376 14.888 94.2163 15.042 94.7016 15.35C95.1963 15.6487 95.5743 16.0453 95.8356 16.54C96.0969 17.0347 96.2276 17.5667 96.2276 18.136C96.2276 18.2387 96.2229 18.3413 96.2136 18.444C96.2136 18.5467 96.2136 18.6633 96.2136 18.794H90.6836C90.7116 19.326 90.8329 19.7693 91.0476 20.124C91.2716 20.4693 91.5469 20.7307 91.8736 20.908C92.2096 21.0853 92.5643 21.174 92.9376 21.174C93.4229 21.174 93.8289 21.062 94.1556 20.838C94.4823 20.614 94.7203 20.3107 94.8696 19.928H96.0316C95.8449 20.572 95.4856 21.1087 94.9536 21.538C94.4309 21.958 93.7589 22.168 92.9376 22.168ZM92.9376 15.882C92.3776 15.882 91.8783 16.0547 91.4396 16.4C91.0103 16.736 90.7629 17.2307 90.6976 17.884H95.0656C95.0376 17.2587 94.8229 16.7687 94.4216 16.414C94.0203 16.0593 93.5256 15.882 92.9376 15.882ZM100.446 22.168C99.6156 22.168 98.925 21.958 98.3743 21.538C97.8236 21.118 97.5016 20.5487 97.4083 19.83H98.6123C98.687 20.194 98.8783 20.5113 99.1863 20.782C99.5036 21.0433 99.9283 21.174 100.46 21.174C100.955 21.174 101.319 21.0713 101.552 20.866C101.786 20.6513 101.902 20.3993 101.902 20.11C101.902 19.69 101.748 19.41 101.44 19.27C101.142 19.13 100.717 19.004 100.166 18.892C99.793 18.8173 99.4196 18.71 99.0463 18.57C98.673 18.43 98.3603 18.234 98.1083 17.982C97.8563 17.7207 97.7303 17.38 97.7303 16.96C97.7303 16.3533 97.9543 15.8587 98.4023 15.476C98.8596 15.084 99.4756 14.888 100.25 14.888C100.988 14.888 101.59 15.0747 102.056 15.448C102.532 15.812 102.808 16.3347 102.882 17.016H101.72C101.674 16.6613 101.52 16.386 101.258 16.19C101.006 15.9847 100.666 15.882 100.236 15.882C99.8163 15.882 99.4896 15.9707 99.2563 16.148C99.0323 16.3253 98.9203 16.5587 98.9203 16.848C98.9203 17.128 99.065 17.3473 99.3543 17.506C99.653 17.6647 100.054 17.8 100.558 17.912C100.988 18.0053 101.394 18.122 101.776 18.262C102.168 18.3927 102.486 18.5933 102.728 18.864C102.98 19.1253 103.106 19.508 103.106 20.012C103.116 20.6373 102.878 21.1553 102.392 21.566C101.916 21.9673 101.268 22.168 100.446 22.168Z" fill="black"/>
<path d="M21.625 22.625V21.375C21.625 20.712 21.3616 20.0761 20.8928 19.6072C20.4239 19.1384 19.788 18.875 19.125 18.875H14.125C13.462 18.875 12.8261 19.1384 12.3572 19.6072C11.8884 20.0761 11.625 20.712 11.625 21.375V22.625" stroke="black" stroke-width="1.1" stroke-linecap="round" stroke-linejoin="round"/>
<path d="M16.625 16.375C18.0057 16.375 19.125 15.2557 19.125 13.875C19.125 12.4943 18.0057 11.375 16.625 11.375C15.2443 11.375 14.125 12.4943 14.125 13.875C14.125 15.2557 15.2443 16.375 16.625 16.375Z" stroke="black" stroke-width="1.1" stroke-linecap="round" stroke-linejoin="round"/>
<path d="M25.375 22.625V21.375C25.3746 20.8211 25.1902 20.283 24.8509 19.8452C24.5115 19.4075 24.0363 19.0948 23.5 18.9563" stroke="black" stroke-width="1.1" stroke-linecap="round" stroke-linejoin="round"/>
<path d="M21 11.4563C21.5378 11.594 22.0144 11.9067 22.3548 12.3452C22.6952 12.7837 22.8799 13.3231 22.8799 13.8782C22.8799 14.4333 22.6952 14.9726 22.3548 15.4111C22.0144 15.8496 21.5378 16.1624 21 16.3" stroke="black" stroke-width="1.1" stroke-linecap="round" stroke-linejoin="round"/>
<defs>
<linearGradient id="paint0_linear_152_2128" x1="1" y1="34" x2="30.9641" y2="-5.23184" gradientUnits="userSpaceOnUse">
<stop stop-color="#DEFFDF"/>
<stop offset="0.866155" stop-color="#DEFFDF" stop-opacity="0"/>
</linearGradient>
</defs>
</svg>
