<svg width="93" height="35" viewBox="0 0 93 35" fill="none" xmlns="http://www.w3.org/2000/svg">
<rect x="0.5" y="0.5" width="92" height="34" rx="17" fill="white" stroke="#D3D7DB"/>
<path opacity="0.8" d="M1 17.5C1 8.3873 8.3873 1 17.5 1H61V34H17.5C8.3873 34 1 26.6127 1 17.5Z" fill="url(#paint0_linear_152_2110)"/>
<path opacity="0.9" d="M34.036 22V12.2H40V13.166H35.212V16.61H39.286V17.562H35.212V22H34.036ZM43.276 22.168C42.6973 22.168 42.2167 22.07 41.834 21.874C41.4513 21.678 41.1667 21.4167 40.98 21.09C40.7933 20.7633 40.7 20.4087 40.7 20.026C40.7 19.3167 40.9707 18.7707 41.512 18.388C42.0533 18.0053 42.7907 17.814 43.724 17.814H45.6V17.73C45.6 17.1233 45.4413 16.666 45.124 16.358C44.8067 16.0407 44.382 15.882 43.85 15.882C43.3927 15.882 42.996 15.9987 42.66 16.232C42.3333 16.456 42.128 16.7873 42.044 17.226H40.84C40.8867 16.722 41.0547 16.2973 41.344 15.952C41.6427 15.6067 42.0113 15.3453 42.45 15.168C42.8887 14.9813 43.3553 14.888 43.85 14.888C44.8207 14.888 45.5487 15.1493 46.034 15.672C46.5287 16.1853 46.776 16.8713 46.776 17.73V22H45.726L45.656 20.754C45.46 21.146 45.1707 21.482 44.788 21.762C44.4147 22.0327 43.9107 22.168 43.276 22.168ZM43.458 21.174C43.906 21.174 44.2887 21.0573 44.606 20.824C44.9327 20.5907 45.18 20.2873 45.348 19.914C45.516 19.5407 45.6 19.1487 45.6 18.738V18.724H43.822C43.1313 18.724 42.6413 18.8453 42.352 19.088C42.072 19.3213 41.932 19.6153 41.932 19.97C41.932 20.334 42.0627 20.628 42.324 20.852C42.5947 21.0667 42.9727 21.174 43.458 21.174ZM48.5402 22V15.056H49.6042L49.6882 16.064C49.9122 15.6907 50.2109 15.4013 50.5842 15.196C50.9576 14.9907 51.3776 14.888 51.8442 14.888C52.3949 14.888 52.8662 15 53.2582 15.224C53.6596 15.448 53.9676 15.7887 54.1822 16.246C54.4249 15.826 54.7562 15.4947 55.1762 15.252C55.6056 15.0093 56.0676 14.888 56.5622 14.888C57.3929 14.888 58.0556 15.14 58.5502 15.644C59.0449 16.1387 59.2922 16.904 59.2922 17.94V22H58.1302V18.066C58.1302 17.3473 57.9856 16.806 57.6962 16.442C57.4069 16.078 56.9916 15.896 56.4502 15.896C55.8902 15.896 55.4236 16.1153 55.0502 16.554C54.6862 16.9833 54.5042 17.5993 54.5042 18.402V22H53.3282V18.066C53.3282 17.3473 53.1836 16.806 52.8942 16.442C52.6049 16.078 52.1896 15.896 51.6482 15.896C51.0976 15.896 50.6356 16.1153 50.2622 16.554C49.8982 16.9833 49.7162 17.5993 49.7162 18.402V22H48.5402ZM61.7777 13.516C61.5443 13.516 61.3483 13.4413 61.1897 13.292C61.0403 13.1333 60.9657 12.9373 60.9657 12.704C60.9657 12.48 61.0403 12.2933 61.1897 12.144C61.3483 11.9947 61.5443 11.92 61.7777 11.92C62.0017 11.92 62.193 11.9947 62.3517 12.144C62.5103 12.2933 62.5897 12.48 62.5897 12.704C62.5897 12.9373 62.5103 13.1333 62.3517 13.292C62.193 13.4413 62.0017 13.516 61.7777 13.516ZM61.1897 22V15.056H62.3657V22H61.1897ZM64.4133 22V11.92H65.5893V22H64.4133ZM68.2728 25.08L69.9948 21.328H69.5888L66.8308 15.056H68.1048L70.4008 20.46L72.8368 15.056H74.0548L69.5048 25.08H68.2728Z" fill="black"/>
<path d="M21.625 22.625V21.375C21.625 20.712 21.3616 20.0761 20.8928 19.6072C20.4239 19.1384 19.788 18.875 19.125 18.875H14.125C13.462 18.875 12.8261 19.1384 12.3572 19.6072C11.8884 20.0761 11.625 20.712 11.625 21.375V22.625" stroke="black" stroke-width="1.1" stroke-linecap="round" stroke-linejoin="round"/>
<path d="M16.625 16.375C18.0057 16.375 19.125 15.2557 19.125 13.875C19.125 12.4943 18.0057 11.375 16.625 11.375C15.2443 11.375 14.125 12.4943 14.125 13.875C14.125 15.2557 15.2443 16.375 16.625 16.375Z" stroke="black" stroke-width="1.1" stroke-linecap="round" stroke-linejoin="round"/>
<path d="M25.375 22.625V21.375C25.3746 20.8211 25.1902 20.283 24.8509 19.8452C24.5115 19.4075 24.0363 19.0948 23.5 18.9563" stroke="black" stroke-width="1.1" stroke-linecap="round" stroke-linejoin="round"/>
<path d="M21 11.4563C21.5378 11.594 22.0144 11.9067 22.3548 12.3452C22.6952 12.7837 22.8799 13.3231 22.8799 13.8782C22.8799 14.4333 22.6952 14.9726 22.3548 15.4111C22.0144 15.8496 21.5378 16.1624 21 16.3" stroke="black" stroke-width="1.1" stroke-linecap="round" stroke-linejoin="round"/>
<defs>
<linearGradient id="paint0_linear_152_2110" x1="1" y1="34" x2="30.9641" y2="-5.23184" gradientUnits="userSpaceOnUse">
<stop stop-color="#FFDEDE"/>
<stop offset="0.832689" stop-color="#FFDEDE" stop-opacity="0"/>
</linearGradient>
</defs>
</svg>
