<svg width="99" height="35" viewBox="0 0 99 35" fill="none" xmlns="http://www.w3.org/2000/svg">
<rect x="0.5" y="0.5" width="98" height="34" rx="17" fill="white" stroke="#D3D7DB"/>
<path opacity="0.8" d="M1 17.5C1 8.3873 8.3873 1 17.5 1H61V34H17.5C8.3873 34 1 26.6127 1 17.5Z" fill="url(#paint0_linear_152_2119)"/>
<path opacity="0.9" d="M34.036 22V12.2H40V13.166H35.212V16.61H39.286V17.562H35.212V22H34.036ZM41.4445 22V15.056H42.5085L42.6065 16.386C42.8212 15.9287 43.1478 15.5647 43.5865 15.294C44.0252 15.0233 44.5665 14.888 45.2105 14.888V16.12H44.8885C44.4778 16.12 44.0998 16.1947 43.7545 16.344C43.4092 16.484 43.1338 16.7267 42.9285 17.072C42.7232 17.4173 42.6205 17.8933 42.6205 18.5V22H41.4445ZM47.2445 13.516C47.0111 13.516 46.8151 13.4413 46.6565 13.292C46.5071 13.1333 46.4325 12.9373 46.4325 12.704C46.4325 12.48 46.5071 12.2933 46.6565 12.144C46.8151 11.9947 47.0111 11.92 47.2445 11.92C47.4685 11.92 47.6598 11.9947 47.8185 12.144C47.9771 12.2933 48.0565 12.48 48.0565 12.704C48.0565 12.9373 47.9771 13.1333 47.8185 13.292C47.6598 13.4413 47.4685 13.516 47.2445 13.516ZM46.6565 22V15.056H47.8325V22H46.6565ZM53.0021 22.168C52.3394 22.168 51.7514 22.0187 51.2381 21.72C50.7247 21.412 50.3187 20.9873 50.0201 20.446C49.7307 19.9047 49.5861 19.2653 49.5861 18.528C49.5861 17.8 49.7307 17.1653 50.0201 16.624C50.3094 16.0733 50.7107 15.6487 51.2241 15.35C51.7467 15.042 52.3487 14.888 53.0301 14.888C53.7021 14.888 54.2807 15.042 54.7661 15.35C55.2607 15.6487 55.6387 16.0453 55.9001 16.54C56.1614 17.0347 56.2921 17.5667 56.2921 18.136C56.2921 18.2387 56.2874 18.3413 56.2781 18.444C56.2781 18.5467 56.2781 18.6633 56.2781 18.794H50.7481C50.7761 19.326 50.8974 19.7693 51.1121 20.124C51.3361 20.4693 51.6114 20.7307 51.9381 20.908C52.2741 21.0853 52.6287 21.174 53.0021 21.174C53.4874 21.174 53.8934 21.062 54.2201 20.838C54.5467 20.614 54.7847 20.3107 54.9341 19.928H56.0961C55.9094 20.572 55.5501 21.1087 55.0181 21.538C54.4954 21.958 53.8234 22.168 53.0021 22.168ZM53.0021 15.882C52.4421 15.882 51.9427 16.0547 51.5041 16.4C51.0747 16.736 50.8274 17.2307 50.7621 17.884H55.1301C55.1021 17.2587 54.8874 16.7687 54.4861 16.414C54.0847 16.0593 53.5901 15.882 53.0021 15.882ZM57.8508 22V15.056H58.9148L58.9848 16.302C59.2088 15.8633 59.5308 15.518 59.9508 15.266C60.3708 15.014 60.8468 14.888 61.3788 14.888C62.2001 14.888 62.8534 15.14 63.3388 15.644C63.8334 16.1387 64.0808 16.904 64.0808 17.94V22H62.9048V18.066C62.9048 16.6193 62.3074 15.896 61.1128 15.896C60.5154 15.896 60.0161 16.1153 59.6148 16.554C59.2228 16.9833 59.0268 17.5993 59.0268 18.402V22H57.8508ZM69.0125 22.168C68.3218 22.168 67.7152 22.0093 67.1925 21.692C66.6792 21.3747 66.2778 20.9407 65.9885 20.39C65.7085 19.8393 65.5685 19.214 65.5685 18.514C65.5685 17.814 65.7132 17.1933 66.0025 16.652C66.2918 16.1013 66.6932 15.672 67.2065 15.364C67.7198 15.0467 68.3265 14.888 69.0265 14.888C69.5958 14.888 70.0998 15.0047 70.5385 15.238C70.9772 15.4713 71.3178 15.798 71.5605 16.218V11.92H72.7365V22H71.6725L71.5605 20.852C71.3365 21.188 71.0145 21.4913 70.5945 21.762C70.1745 22.0327 69.6472 22.168 69.0125 22.168ZM69.1385 21.146C69.6052 21.146 70.0158 21.0387 70.3705 20.824C70.7345 20.6 71.0145 20.292 71.2105 19.9C71.4158 19.508 71.5185 19.0507 71.5185 18.528C71.5185 18.0053 71.4158 17.548 71.2105 17.156C71.0145 16.764 70.7345 16.4607 70.3705 16.246C70.0158 16.022 69.6052 15.91 69.1385 15.91C68.6812 15.91 68.2705 16.022 67.9065 16.246C67.5518 16.4607 67.2718 16.764 67.0665 17.156C66.8705 17.548 66.7725 18.0053 66.7725 18.528C66.7725 19.0507 66.8705 19.508 67.0665 19.9C67.2718 20.292 67.5518 20.6 67.9065 20.824C68.2705 21.0387 68.6812 21.146 69.1385 21.146ZM77.3135 22.168C76.4828 22.168 75.7922 21.958 75.2415 21.538C74.6908 21.118 74.3688 20.5487 74.2755 19.83H75.4795C75.5542 20.194 75.7455 20.5113 76.0535 20.782C76.3708 21.0433 76.7955 21.174 77.3275 21.174C77.8222 21.174 78.1862 21.0713 78.4195 20.866C78.6528 20.6513 78.7695 20.3993 78.7695 20.11C78.7695 19.69 78.6155 19.41 78.3075 19.27C78.0088 19.13 77.5842 19.004 77.0335 18.892C76.6602 18.8173 76.2868 18.71 75.9135 18.57C75.5402 18.43 75.2275 18.234 74.9755 17.982C74.7235 17.7207 74.5975 17.38 74.5975 16.96C74.5975 16.3533 74.8215 15.8587 75.2695 15.476C75.7268 15.084 76.3428 14.888 77.1175 14.888C77.8548 14.888 78.4568 15.0747 78.9235 15.448C79.3995 15.812 79.6748 16.3347 79.7495 17.016H78.5875C78.5408 16.6613 78.3868 16.386 78.1255 16.19C77.8735 15.9847 77.5328 15.882 77.1035 15.882C76.6835 15.882 76.3568 15.9707 76.1235 16.148C75.8995 16.3253 75.7875 16.5587 75.7875 16.848C75.7875 17.128 75.9322 17.3473 76.2215 17.506C76.5202 17.6647 76.9215 17.8 77.4255 17.912C77.8548 18.0053 78.2608 18.122 78.6435 18.262C79.0355 18.3927 79.3528 18.5933 79.5955 18.864C79.8475 19.1253 79.9735 19.508 79.9735 20.012C79.9828 20.6373 79.7448 21.1553 79.2595 21.566C78.7835 21.9673 78.1348 22.168 77.3135 22.168Z" fill="black"/>
<path d="M21.625 22.625V21.375C21.625 20.712 21.3616 20.0761 20.8928 19.6072C20.4239 19.1384 19.788 18.875 19.125 18.875H14.125C13.462 18.875 12.8261 19.1384 12.3572 19.6072C11.8884 20.0761 11.625 20.712 11.625 21.375V22.625" stroke="black" stroke-width="1.1" stroke-linecap="round" stroke-linejoin="round"/>
<path d="M16.625 16.375C18.0057 16.375 19.125 15.2557 19.125 13.875C19.125 12.4943 18.0057 11.375 16.625 11.375C15.2443 11.375 14.125 12.4943 14.125 13.875C14.125 15.2557 15.2443 16.375 16.625 16.375Z" stroke="black" stroke-width="1.1" stroke-linecap="round" stroke-linejoin="round"/>
<path d="M25.375 22.625V21.375C25.3746 20.8211 25.1902 20.283 24.8509 19.8452C24.5115 19.4075 24.0363 19.0948 23.5 18.9563" stroke="black" stroke-width="1.1" stroke-linecap="round" stroke-linejoin="round"/>
<path d="M21 11.4563C21.5378 11.594 22.0144 11.9067 22.3548 12.3452C22.6952 12.7837 22.8799 13.3231 22.8799 13.8782C22.8799 14.4333 22.6952 14.9726 22.3548 15.4111C22.0144 15.8496 21.5378 16.1624 21 16.3" stroke="black" stroke-width="1.1" stroke-linecap="round" stroke-linejoin="round"/>
<defs>
<linearGradient id="paint0_linear_152_2119" x1="1" y1="34" x2="30.9641" y2="-5.23184" gradientUnits="userSpaceOnUse">
<stop stop-color="#EAE0FF"/>
<stop offset="0.811445" stop-color="#EAE0FF" stop-opacity="0"/>
</linearGradient>
</defs>
</svg>
