<svg width="117" height="35" viewBox="0 0 117 35" fill="none" xmlns="http://www.w3.org/2000/svg">
<rect x="0.5" y="0.5" width="116" height="34" rx="17" fill="white" stroke="#D3D7DB"/>
<path opacity="0.8" d="M1 17.5C1 8.3873 8.3873 1 17.5 1H61V34H17.5C8.3873 34 1 26.6127 1 17.5Z" fill="url(#paint0_linear_152_2267)"/>
<path opacity="0.9" d="M34.036 22V12.2H37.256C38.0213 12.2 38.6513 12.326 39.146 12.578C39.6407 12.83 40.0047 13.1707 40.238 13.6C40.4807 14.0293 40.602 14.5147 40.602 15.056C40.602 15.588 40.4853 16.0687 40.252 16.498C40.0187 16.9273 39.6547 17.2727 39.16 17.534C38.6653 17.786 38.0307 17.912 37.256 17.912H35.212V22H34.036ZM35.212 16.918H37.228C38.012 16.918 38.5673 16.7547 38.894 16.428C39.23 16.092 39.398 15.6347 39.398 15.056C39.398 14.468 39.23 14.0107 38.894 13.684C38.5673 13.348 38.012 13.18 37.228 13.18H35.212V16.918ZM42.0734 22V15.056H43.1374L43.2354 16.386C43.4501 15.9287 43.7768 15.5647 44.2154 15.294C44.6541 15.0233 45.1954 14.888 45.8394 14.888V16.12H45.5174C45.1068 16.12 44.7288 16.1947 44.3834 16.344C44.0381 16.484 43.7628 16.7267 43.5574 17.072C43.3521 17.4173 43.2494 17.8933 43.2494 18.5V22H42.0734ZM50.0636 22.168C49.4103 22.168 48.8223 22.0187 48.2996 21.72C47.7769 21.4213 47.3616 21.0013 47.0536 20.46C46.7549 19.9093 46.6056 19.2653 46.6056 18.528C46.6056 17.7907 46.7596 17.1513 47.0676 16.61C47.3756 16.0593 47.7909 15.6347 48.3136 15.336C48.8456 15.0373 49.4383 14.888 50.0916 14.888C50.7449 14.888 51.3329 15.0373 51.8556 15.336C52.3783 15.6347 52.7889 16.0593 53.0876 16.61C53.3956 17.1513 53.5496 17.7907 53.5496 18.528C53.5496 19.2653 53.3956 19.9093 53.0876 20.46C52.7796 21.0013 52.3596 21.4213 51.8276 21.72C51.3049 22.0187 50.7169 22.168 50.0636 22.168ZM50.0636 21.16C50.4649 21.16 50.8383 21.062 51.1836 20.866C51.5289 20.67 51.8089 20.376 52.0236 19.984C52.2383 19.592 52.3456 19.1067 52.3456 18.528C52.3456 17.9493 52.2383 17.464 52.0236 17.072C51.8183 16.68 51.5429 16.386 51.1976 16.19C50.8523 15.994 50.4836 15.896 50.0916 15.896C49.6903 15.896 49.3169 15.994 48.9716 16.19C48.6263 16.386 48.3463 16.68 48.1316 17.072C47.9169 17.464 47.8096 17.9493 47.8096 18.528C47.8096 19.1067 47.9169 19.592 48.1316 19.984C48.3463 20.376 48.6216 20.67 48.9576 20.866C49.3029 21.062 49.6716 21.16 50.0636 21.16ZM57.8448 22.168C57.0141 22.168 56.3234 21.958 55.7728 21.538C55.2221 21.118 54.9001 20.5487 54.8068 19.83H56.0108C56.0854 20.194 56.2768 20.5113 56.5848 20.782C56.9021 21.0433 57.3268 21.174 57.8588 21.174C58.3534 21.174 58.7174 21.0713 58.9508 20.866C59.1841 20.6513 59.3008 20.3993 59.3008 20.11C59.3008 19.69 59.1468 19.41 58.8388 19.27C58.5401 19.13 58.1154 19.004 57.5648 18.892C57.1914 18.8173 56.8181 18.71 56.4448 18.57C56.0714 18.43 55.7588 18.234 55.5068 17.982C55.2548 17.7207 55.1288 17.38 55.1288 16.96C55.1288 16.3533 55.3528 15.8587 55.8008 15.476C56.2581 15.084 56.8741 14.888 57.6488 14.888C58.3861 14.888 58.9881 15.0747 59.4548 15.448C59.9308 15.812 60.2061 16.3347 60.2808 17.016H59.1188C59.0721 16.6613 58.9181 16.386 58.6568 16.19C58.4048 15.9847 58.0641 15.882 57.6348 15.882C57.2148 15.882 56.8881 15.9707 56.6548 16.148C56.4308 16.3253 56.3188 16.5587 56.3188 16.848C56.3188 17.128 56.4634 17.3473 56.7528 17.506C57.0514 17.6647 57.4528 17.8 57.9568 17.912C58.3861 18.0053 58.7921 18.122 59.1748 18.262C59.5668 18.3927 59.8841 18.5933 60.1268 18.864C60.3788 19.1253 60.5048 19.508 60.5048 20.012C60.5141 20.6373 60.2761 21.1553 59.7908 21.566C59.3148 21.9673 58.6661 22.168 57.8448 22.168ZM62.1848 25.08V15.056H63.2488L63.3608 16.204C63.5848 15.868 63.9021 15.5647 64.3128 15.294C64.7328 15.0233 65.2648 14.888 65.9088 14.888C66.5994 14.888 67.2014 15.0467 67.7148 15.364C68.2281 15.6813 68.6248 16.1153 68.9048 16.666C69.1941 17.2167 69.3388 17.842 69.3388 18.542C69.3388 19.242 69.1941 19.8673 68.9048 20.418C68.6248 20.9593 68.2234 21.3887 67.7008 21.706C67.1874 22.014 66.5854 22.168 65.8948 22.168C65.3254 22.168 64.8168 22.0513 64.3688 21.818C63.9301 21.5847 63.5941 21.258 63.3608 20.838V25.08H62.1848ZM65.7688 21.146C66.2354 21.146 66.6461 21.0387 67.0008 20.824C67.3554 20.6 67.6354 20.292 67.8408 19.9C68.0461 19.508 68.1488 19.0507 68.1488 18.528C68.1488 18.0053 68.0461 17.548 67.8408 17.156C67.6354 16.764 67.3554 16.4607 67.0008 16.246C66.6461 16.022 66.2354 15.91 65.7688 15.91C65.3021 15.91 64.8914 16.022 64.5368 16.246C64.1821 16.4607 63.9021 16.764 63.6968 17.156C63.4914 17.548 63.3888 18.0053 63.3888 18.528C63.3888 19.0507 63.4914 19.508 63.6968 19.9C63.9021 20.292 64.1821 20.6 64.5368 20.824C64.8914 21.0387 65.3021 21.146 65.7688 21.146ZM74.0978 22.168C73.4351 22.168 72.8471 22.0187 72.3338 21.72C71.8204 21.412 71.4144 20.9873 71.1158 20.446C70.8264 19.9047 70.6818 19.2653 70.6818 18.528C70.6818 17.8 70.8264 17.1653 71.1158 16.624C71.4051 16.0733 71.8064 15.6487 72.3198 15.35C72.8424 15.042 73.4444 14.888 74.1258 14.888C74.7978 14.888 75.3764 15.042 75.8618 15.35C76.3564 15.6487 76.7344 16.0453 76.9958 16.54C77.2571 17.0347 77.3878 17.5667 77.3878 18.136C77.3878 18.2387 77.3831 18.3413 77.3738 18.444C77.3738 18.5467 77.3738 18.6633 77.3738 18.794H71.8438C71.8718 19.326 71.9931 19.7693 72.2078 20.124C72.4318 20.4693 72.7071 20.7307 73.0338 20.908C73.3698 21.0853 73.7244 21.174 74.0978 21.174C74.5831 21.174 74.9891 21.062 75.3158 20.838C75.6424 20.614 75.8804 20.3107 76.0298 19.928H77.1918C77.0051 20.572 76.6458 21.1087 76.1138 21.538C75.5911 21.958 74.9191 22.168 74.0978 22.168ZM74.0978 15.882C73.5378 15.882 73.0384 16.0547 72.5998 16.4C72.1704 16.736 71.9231 17.2307 71.8578 17.884H76.2258C76.1978 17.2587 75.9831 16.7687 75.5818 16.414C75.1804 16.0593 74.6858 15.882 74.0978 15.882ZM82.1385 22.168C81.4758 22.168 80.8785 22.0187 80.3465 21.72C79.8238 21.412 79.4085 20.9873 79.1005 20.446C78.8018 19.8953 78.6525 19.256 78.6525 18.528C78.6525 17.8 78.8018 17.1653 79.1005 16.624C79.4085 16.0733 79.8238 15.6487 80.3465 15.35C80.8785 15.042 81.4758 14.888 82.1385 14.888C82.9598 14.888 83.6505 15.1027 84.2105 15.532C84.7798 15.9613 85.1391 16.5353 85.2885 17.254H84.0845C83.9911 16.8247 83.7625 16.4933 83.3985 16.26C83.0345 16.0173 82.6098 15.896 82.1245 15.896C81.7325 15.896 81.3638 15.994 81.0185 16.19C80.6731 16.386 80.3931 16.68 80.1785 17.072C79.9638 17.464 79.8565 17.9493 79.8565 18.528C79.8565 19.1067 79.9638 19.592 80.1785 19.984C80.3931 20.376 80.6731 20.6747 81.0185 20.88C81.3638 21.076 81.7325 21.174 82.1245 21.174C82.6098 21.174 83.0345 21.0573 83.3985 20.824C83.7625 20.5813 83.9911 20.2407 84.0845 19.802H85.2885C85.1485 20.502 84.7938 21.0713 84.2245 21.51C83.6551 21.9487 82.9598 22.168 82.1385 22.168ZM89.4834 22C88.8488 22 88.3494 21.846 87.9854 21.538C87.6214 21.23 87.4394 20.6747 87.4394 19.872V16.05H86.2354V15.056H87.4394L87.5934 13.39H88.6154V15.056H90.6594V16.05H88.6154V19.872C88.6154 20.3107 88.7041 20.6093 88.8814 20.768C89.0588 20.9173 89.3714 20.992 89.8194 20.992H90.5474V22H89.4834ZM94.8135 22.168C93.9828 22.168 93.2922 21.958 92.7415 21.538C92.1908 21.118 91.8688 20.5487 91.7755 19.83H92.9795C93.0542 20.194 93.2455 20.5113 93.5535 20.782C93.8708 21.0433 94.2955 21.174 94.8275 21.174C95.3222 21.174 95.6862 21.0713 95.9195 20.866C96.1528 20.6513 96.2695 20.3993 96.2695 20.11C96.2695 19.69 96.1155 19.41 95.8075 19.27C95.5088 19.13 95.0842 19.004 94.5335 18.892C94.1602 18.8173 93.7868 18.71 93.4135 18.57C93.0402 18.43 92.7275 18.234 92.4755 17.982C92.2235 17.7207 92.0975 17.38 92.0975 16.96C92.0975 16.3533 92.3215 15.8587 92.7695 15.476C93.2268 15.084 93.8428 14.888 94.6175 14.888C95.3548 14.888 95.9568 15.0747 96.4235 15.448C96.8995 15.812 97.1748 16.3347 97.2495 17.016H96.0875C96.0408 16.6613 95.8868 16.386 95.6255 16.19C95.3735 15.9847 95.0328 15.882 94.6035 15.882C94.1835 15.882 93.8568 15.9707 93.6235 16.148C93.3995 16.3253 93.2875 16.5587 93.2875 16.848C93.2875 17.128 93.4322 17.3473 93.7215 17.506C94.0202 17.6647 94.4215 17.8 94.9255 17.912C95.3548 18.0053 95.7608 18.122 96.1435 18.262C96.5355 18.3927 96.8528 18.5933 97.0955 18.864C97.3475 19.1253 97.4735 19.508 97.4735 20.012C97.4828 20.6373 97.2448 21.1553 96.7595 21.566C96.2835 21.9673 95.6348 22.168 94.8135 22.168Z" fill="black"/>
<path d="M21.625 22.625V21.375C21.625 20.712 21.3616 20.0761 20.8928 19.6072C20.4239 19.1384 19.788 18.875 19.125 18.875H14.125C13.462 18.875 12.8261 19.1384 12.3572 19.6072C11.8884 20.0761 11.625 20.712 11.625 21.375V22.625" stroke="black" stroke-width="1.1" stroke-linecap="round" stroke-linejoin="round"/>
<path d="M16.625 16.375C18.0057 16.375 19.125 15.2557 19.125 13.875C19.125 12.4943 18.0057 11.375 16.625 11.375C15.2443 11.375 14.125 12.4943 14.125 13.875C14.125 15.2557 15.2443 16.375 16.625 16.375Z" stroke="black" stroke-width="1.1" stroke-linecap="round" stroke-linejoin="round"/>
<path d="M25.375 22.625V21.375C25.3746 20.8211 25.1902 20.283 24.8509 19.8452C24.5115 19.4075 24.0363 19.0948 23.5 18.9563" stroke="black" stroke-width="1.1" stroke-linecap="round" stroke-linejoin="round"/>
<path d="M21 11.4563C21.5378 11.594 22.0144 11.9067 22.3548 12.3452C22.6952 12.7837 22.8799 13.3231 22.8799 13.8782C22.8799 14.4333 22.6952 14.9726 22.3548 15.4111C22.0144 15.8496 21.5378 16.1624 21 16.3" stroke="black" stroke-width="1.1" stroke-linecap="round" stroke-linejoin="round"/>
<defs>
<linearGradient id="paint0_linear_152_2267" x1="1" y1="34" x2="30.9641" y2="-5.23184" gradientUnits="userSpaceOnUse">
<stop stop-color="#DEEBFF"/>
<stop offset="0.818191" stop-color="#DEEBFF" stop-opacity="0"/>
</linearGradient>
</defs>
</svg>
