<svg width="351" height="44" viewBox="0 0 351 44" fill="none" xmlns="http://www.w3.org/2000/svg">
<rect x="0.5" y="0.5" width="350" height="43" rx="7.5" fill="#F7F8F9" stroke="#D3D7DB"/>
<path d="M44.158 26.168C43.4393 26.168 42.814 26.0373 42.282 25.776C41.75 25.5147 41.3393 25.1507 41.05 24.684C40.7607 24.2173 40.616 23.676 40.616 23.06H41.848C41.848 23.4427 41.9367 23.7973 42.114 24.124C42.2913 24.4413 42.548 24.698 42.884 24.894C43.2293 25.0807 43.654 25.174 44.158 25.174C44.8207 25.174 45.334 25.0153 45.698 24.698C46.062 24.3807 46.244 23.984 46.244 23.508C46.244 23.116 46.16 22.8033 45.992 22.57C45.824 22.3273 45.5953 22.1313 45.306 21.982C45.026 21.8327 44.6993 21.702 44.326 21.59C43.962 21.478 43.5793 21.352 43.178 21.212C42.422 20.9507 41.862 20.6287 41.498 20.246C41.134 19.854 40.952 19.3453 40.952 18.72C40.9427 18.1973 41.064 17.7353 41.316 17.334C41.568 16.9233 41.9227 16.606 42.38 16.382C42.8467 16.1487 43.3973 16.032 44.032 16.032C44.6573 16.032 45.1987 16.1487 45.656 16.382C46.1227 16.6153 46.482 16.9373 46.734 17.348C46.9953 17.7587 47.1307 18.2253 47.14 18.748H45.908C45.908 18.4773 45.838 18.2113 45.698 17.95C45.558 17.6793 45.3433 17.46 45.054 17.292C44.774 17.124 44.4193 17.04 43.99 17.04C43.458 17.0307 43.0193 17.166 42.674 17.446C42.338 17.726 42.17 18.1133 42.17 18.608C42.17 19.028 42.2867 19.35 42.52 19.574C42.7627 19.798 43.0987 19.9847 43.528 20.134C43.9573 20.274 44.452 20.4373 45.012 20.624C45.4787 20.792 45.8987 20.988 46.272 21.212C46.6453 21.436 46.9347 21.7253 47.14 22.08C47.3547 22.4347 47.462 22.8873 47.462 23.438C47.462 23.9047 47.3407 24.348 47.098 24.768C46.8553 25.1787 46.4867 25.5147 45.992 25.776C45.5067 26.0373 44.8953 26.168 44.158 26.168ZM51.9018 26.168C51.2391 26.168 50.6511 26.0187 50.1377 25.72C49.6244 25.412 49.2184 24.9873 48.9197 24.446C48.6304 23.9047 48.4857 23.2653 48.4857 22.528C48.4857 21.8 48.6304 21.1653 48.9197 20.624C49.2091 20.0733 49.6104 19.6487 50.1237 19.35C50.6464 19.042 51.2484 18.888 51.9297 18.888C52.6018 18.888 53.1804 19.042 53.6657 19.35C54.1604 19.6487 54.5384 20.0453 54.7997 20.54C55.0611 21.0347 55.1917 21.5667 55.1917 22.136C55.1917 22.2387 55.1871 22.3413 55.1778 22.444C55.1778 22.5467 55.1778 22.6633 55.1778 22.794H49.6477C49.6757 23.326 49.7971 23.7693 50.0117 24.124C50.2357 24.4693 50.5111 24.7307 50.8377 24.908C51.1737 25.0853 51.5284 25.174 51.9018 25.174C52.3871 25.174 52.7931 25.062 53.1197 24.838C53.4464 24.614 53.6844 24.3107 53.8337 23.928H54.9957C54.8091 24.572 54.4498 25.1087 53.9178 25.538C53.3951 25.958 52.7231 26.168 51.9018 26.168ZM51.9018 19.882C51.3417 19.882 50.8424 20.0547 50.4037 20.4C49.9744 20.736 49.7271 21.2307 49.6617 21.884H54.0298C54.0018 21.2587 53.7871 20.7687 53.3858 20.414C52.9844 20.0593 52.4898 19.882 51.9018 19.882ZM58.7805 26.168C58.2018 26.168 57.7211 26.07 57.3385 25.874C56.9558 25.678 56.6711 25.4167 56.4845 25.09C56.2978 24.7633 56.2045 24.4087 56.2045 24.026C56.2045 23.3167 56.4751 22.7707 57.0165 22.388C57.5578 22.0053 58.2951 21.814 59.2285 21.814H61.1045V21.73C61.1045 21.1233 60.9458 20.666 60.6285 20.358C60.3111 20.0407 59.8865 19.882 59.3545 19.882C58.8971 19.882 58.5005 19.9987 58.1645 20.232C57.8378 20.456 57.6325 20.7873 57.5485 21.226H56.3445C56.3911 20.722 56.5591 20.2973 56.8485 19.952C57.1471 19.6067 57.5158 19.3453 57.9545 19.168C58.3931 18.9813 58.8598 18.888 59.3545 18.888C60.3251 18.888 61.0531 19.1493 61.5385 19.672C62.0331 20.1853 62.2805 20.8713 62.2805 21.73V26H61.2305L61.1605 24.754C60.9645 25.146 60.6751 25.482 60.2925 25.762C59.9191 26.0327 59.4151 26.168 58.7805 26.168ZM58.9625 25.174C59.4105 25.174 59.7931 25.0573 60.1105 24.824C60.4371 24.5907 60.6845 24.2873 60.8525 23.914C61.0205 23.5407 61.1045 23.1487 61.1045 22.738V22.724H59.3265C58.6358 22.724 58.1458 22.8453 57.8565 23.088C57.5765 23.3213 57.4365 23.6153 57.4365 23.97C57.4365 24.334 57.5671 24.628 57.8285 24.852C58.0991 25.0667 58.4771 25.174 58.9625 25.174ZM63.7647 26V19.056H64.8287L64.9267 20.386C65.1413 19.9287 65.468 19.5647 65.9067 19.294C66.3453 19.0233 66.8867 18.888 67.5307 18.888V20.12H67.2087C66.798 20.12 66.42 20.1947 66.0747 20.344C65.7293 20.484 65.454 20.7267 65.2487 21.072C65.0433 21.4173 64.9407 21.8933 64.9407 22.5V26H63.7647ZM71.5028 26.168C70.8402 26.168 70.2428 26.0187 69.7108 25.72C69.1882 25.412 68.7728 24.9873 68.4648 24.446C68.1662 23.8953 68.0168 23.256 68.0168 22.528C68.0168 21.8 68.1662 21.1653 68.4648 20.624C68.7728 20.0733 69.1882 19.6487 69.7108 19.35C70.2428 19.042 70.8402 18.888 71.5028 18.888C72.3242 18.888 73.0148 19.1027 73.5748 19.532C74.1442 19.9613 74.5035 20.5353 74.6528 21.254H73.4488C73.3555 20.8247 73.1268 20.4933 72.7628 20.26C72.3988 20.0173 71.9742 19.896 71.4888 19.896C71.0968 19.896 70.7282 19.994 70.3828 20.19C70.0375 20.386 69.7575 20.68 69.5428 21.072C69.3282 21.464 69.2208 21.9493 69.2208 22.528C69.2208 23.1067 69.3282 23.592 69.5428 23.984C69.7575 24.376 70.0375 24.6747 70.3828 24.88C70.7282 25.076 71.0968 25.174 71.4888 25.174C71.9742 25.174 72.3988 25.0573 72.7628 24.824C73.1268 24.5813 73.3555 24.2407 73.4488 23.802H74.6528C74.5128 24.502 74.1582 25.0713 73.5888 25.51C73.0195 25.9487 72.3242 26.168 71.5028 26.168ZM76.0152 26V15.92H77.1912V20.246C77.4246 19.8167 77.7559 19.4853 78.1852 19.252C78.6146 19.0093 79.0812 18.888 79.5852 18.888C80.3879 18.888 81.0319 19.14 81.5172 19.644C82.0026 20.1387 82.2452 20.904 82.2452 21.94V26H81.0832V22.066C81.0832 20.6193 80.4999 19.896 79.3332 19.896C78.7266 19.896 78.2179 20.1153 77.8072 20.554C77.3966 20.9833 77.1912 21.5993 77.1912 22.402V26H76.0152ZM90.364 26.168C89.7014 26.168 89.104 26.0187 88.572 25.72C88.0493 25.412 87.634 24.9873 87.326 24.446C87.0273 23.8953 86.878 23.256 86.878 22.528C86.878 21.8 87.0273 21.1653 87.326 20.624C87.634 20.0733 88.0493 19.6487 88.572 19.35C89.104 19.042 89.7014 18.888 90.364 18.888C91.1854 18.888 91.876 19.1027 92.436 19.532C93.0054 19.9613 93.3647 20.5353 93.514 21.254H92.31C92.2167 20.8247 91.988 20.4933 91.624 20.26C91.26 20.0173 90.8354 19.896 90.35 19.896C89.958 19.896 89.5893 19.994 89.244 20.19C88.8987 20.386 88.6187 20.68 88.404 21.072C88.1893 21.464 88.082 21.9493 88.082 22.528C88.082 23.1067 88.1893 23.592 88.404 23.984C88.6187 24.376 88.8987 24.6747 89.244 24.88C89.5893 25.076 89.958 25.174 90.35 25.174C90.8354 25.174 91.26 25.0573 91.624 24.824C91.988 24.5813 92.2167 24.2407 92.31 23.802H93.514C93.374 24.502 93.0194 25.0713 92.45 25.51C91.8807 25.9487 91.1854 26.168 90.364 26.168ZM98.0404 26.168C97.3871 26.168 96.7991 26.0187 96.2764 25.72C95.7537 25.4213 95.3384 25.0013 95.0304 24.46C94.7317 23.9093 94.5824 23.2653 94.5824 22.528C94.5824 21.7907 94.7364 21.1513 95.0444 20.61C95.3524 20.0593 95.7677 19.6347 96.2904 19.336C96.8224 19.0373 97.4151 18.888 98.0684 18.888C98.7217 18.888 99.3097 19.0373 99.8324 19.336C100.355 19.6347 100.766 20.0593 101.064 20.61C101.372 21.1513 101.526 21.7907 101.526 22.528C101.526 23.2653 101.372 23.9093 101.064 24.46C100.756 25.0013 100.336 25.4213 99.8044 25.72C99.2817 26.0187 98.6937 26.168 98.0404 26.168ZM98.0404 25.16C98.4417 25.16 98.8151 25.062 99.1604 24.866C99.5057 24.67 99.7857 24.376 100 23.984C100.215 23.592 100.322 23.1067 100.322 22.528C100.322 21.9493 100.215 21.464 100 21.072C99.7951 20.68 99.5197 20.386 99.1744 20.19C98.8291 19.994 98.4604 19.896 98.0684 19.896C97.6671 19.896 97.2937 19.994 96.9484 20.19C96.6031 20.386 96.3231 20.68 96.1084 21.072C95.8937 21.464 95.7864 21.9493 95.7864 22.528C95.7864 23.1067 95.8937 23.592 96.1084 23.984C96.3231 24.376 96.5984 24.67 96.9344 24.866C97.2797 25.062 97.6484 25.16 98.0404 25.16ZM102.882 26V19.056H103.946L104.016 20.302C104.24 19.8633 104.562 19.518 104.982 19.266C105.402 19.014 105.878 18.888 106.41 18.888C107.231 18.888 107.884 19.14 108.37 19.644C108.864 20.1387 109.112 20.904 109.112 21.94V26H107.936V22.066C107.936 20.6193 107.338 19.896 106.144 19.896C105.546 19.896 105.047 20.1153 104.646 20.554C104.254 20.9833 104.058 21.5993 104.058 22.402V26H102.882ZM113.357 26C112.723 26 112.223 25.846 111.859 25.538C111.495 25.23 111.313 24.6747 111.313 23.872V20.05H110.109V19.056H111.313L111.467 17.39H112.489V19.056H114.533V20.05H112.489V23.872C112.489 24.3107 112.578 24.6093 112.755 24.768C112.933 24.9173 113.245 24.992 113.693 24.992H114.421V26H113.357ZM118.057 26.168C117.479 26.168 116.998 26.07 116.615 25.874C116.233 25.678 115.948 25.4167 115.761 25.09C115.575 24.7633 115.481 24.4087 115.481 24.026C115.481 23.3167 115.752 22.7707 116.293 22.388C116.835 22.0053 117.572 21.814 118.505 21.814H120.381V21.73C120.381 21.1233 120.223 20.666 119.905 20.358C119.588 20.0407 119.163 19.882 118.631 19.882C118.174 19.882 117.777 19.9987 117.441 20.232C117.115 20.456 116.909 20.7873 116.825 21.226H115.621C115.668 20.722 115.836 20.2973 116.125 19.952C116.424 19.6067 116.793 19.3453 117.231 19.168C117.67 18.9813 118.137 18.888 118.631 18.888C119.602 18.888 120.33 19.1493 120.815 19.672C121.31 20.1853 121.557 20.8713 121.557 21.73V26H120.507L120.437 24.754C120.241 25.146 119.952 25.482 119.569 25.762C119.196 26.0327 118.692 26.168 118.057 26.168ZM118.239 25.174C118.687 25.174 119.07 25.0573 119.387 24.824C119.714 24.5907 119.961 24.2873 120.129 23.914C120.297 23.5407 120.381 23.1487 120.381 22.738V22.724H118.603C117.913 22.724 117.423 22.8453 117.133 23.088C116.853 23.3213 116.713 23.6153 116.713 23.97C116.713 24.334 116.844 24.628 117.105 24.852C117.376 25.0667 117.754 25.174 118.239 25.174ZM126.234 26.168C125.571 26.168 124.974 26.0187 124.442 25.72C123.919 25.412 123.504 24.9873 123.196 24.446C122.897 23.8953 122.748 23.256 122.748 22.528C122.748 21.8 122.897 21.1653 123.196 20.624C123.504 20.0733 123.919 19.6487 124.442 19.35C124.974 19.042 125.571 18.888 126.234 18.888C127.055 18.888 127.746 19.1027 128.306 19.532C128.875 19.9613 129.234 20.5353 129.384 21.254H128.18C128.086 20.8247 127.858 20.4933 127.494 20.26C127.13 20.0173 126.705 19.896 126.22 19.896C125.828 19.896 125.459 19.994 125.114 20.19C124.768 20.386 124.488 20.68 124.274 21.072C124.059 21.464 123.952 21.9493 123.952 22.528C123.952 23.1067 124.059 23.592 124.274 23.984C124.488 24.376 124.768 24.6747 125.114 24.88C125.459 25.076 125.828 25.174 126.22 25.174C126.705 25.174 127.13 25.0573 127.494 24.824C127.858 24.5813 128.086 24.2407 128.18 23.802H129.384C129.244 24.502 128.889 25.0713 128.32 25.51C127.75 25.9487 127.055 26.168 126.234 26.168ZM133.299 26C132.664 26 132.165 25.846 131.801 25.538C131.437 25.23 131.255 24.6747 131.255 23.872V20.05H130.051V19.056H131.255L131.409 17.39H132.431V19.056H134.475V20.05H132.431V23.872C132.431 24.3107 132.519 24.6093 132.697 24.768C132.874 24.9173 133.187 24.992 133.635 24.992H134.363V26H133.299ZM138.349 26.168C137.518 26.168 136.827 25.958 136.277 25.538C135.726 25.118 135.404 24.5487 135.311 23.83H136.515C136.589 24.194 136.781 24.5113 137.089 24.782C137.406 25.0433 137.831 25.174 138.363 25.174C138.857 25.174 139.221 25.0713 139.455 24.866C139.688 24.6513 139.805 24.3993 139.805 24.11C139.805 23.69 139.651 23.41 139.343 23.27C139.044 23.13 138.619 23.004 138.069 22.892C137.695 22.8173 137.322 22.71 136.949 22.57C136.575 22.43 136.263 22.234 136.011 21.982C135.759 21.7207 135.633 21.38 135.633 20.96C135.633 20.3533 135.857 19.8587 136.305 19.476C136.762 19.084 137.378 18.888 138.153 18.888C138.89 18.888 139.492 19.0747 139.959 19.448C140.435 19.812 140.71 20.3347 140.785 21.016H139.623C139.576 20.6613 139.422 20.386 139.161 20.19C138.909 19.9847 138.568 19.882 138.139 19.882C137.719 19.882 137.392 19.9707 137.159 20.148C136.935 20.3253 136.823 20.5587 136.823 20.848C136.823 21.128 136.967 21.3473 137.257 21.506C137.555 21.6647 137.957 21.8 138.461 21.912C138.89 22.0053 139.296 22.122 139.679 22.262C140.071 22.3927 140.388 22.5933 140.631 22.864C140.883 23.1253 141.009 23.508 141.009 24.012C141.018 24.6373 140.78 25.1553 140.295 25.566C139.819 25.9673 139.17 26.168 138.349 26.168Z" fill="#727578"/>
<path d="M22.0002 27.8333C25.6821 27.8333 28.6668 24.8486 28.6668 21.1667C28.6668 17.4848 25.6821 14.5 22.0002 14.5C18.3183 14.5 15.3335 17.4848 15.3335 21.1667C15.3335 24.8486 18.3183 27.8333 22.0002 27.8333Z" stroke="#727578" stroke-width="1.5" stroke-linecap="round" stroke-linejoin="round"/>
<path d="M30.333 29.5L26.708 25.875" stroke="#727578" stroke-width="1.5" stroke-linecap="round" stroke-linejoin="round"/>
</svg>
