<svg width="39" height="39" viewBox="0 0 39 39" fill="none" xmlns="http://www.w3.org/2000/svg">
<rect width="39" height="39" rx="19.5" fill="#03C100"/>
<g clip-path="url(#clip0_152_1612)">
<path d="M11.4063 25.1562L10.375 29.6249L14.8436 28.2499C15.302 29.6249 20.7561 30.3124 23.7811 28.9374C31.3436 25.4999 29.6249 18.2812 29.6249 17.5937C29.6249 16.9062 28.2499 12.0937 22.4061 10.3749C16.5624 8.65617 12.7813 12.7812 10.7188 16.2187C9.06876 18.9687 10.4896 23.3228 11.4063 25.1562Z" fill="#03C100"/>
<path d="M26.932 12.0527C25.9649 11.081 24.8132 10.3107 23.544 9.78654C22.2749 9.26241 20.9136 8.99497 19.5395 8.99982C13.782 8.99982 9.08965 13.6697 9.08438 19.4027C9.08438 21.2388 9.56693 23.0252 10.478 24.6067L9 29.9998L14.5427 28.5534C16.076 29.3841 17.7939 29.8195 19.5395 29.8199H19.5448C25.3037 29.8199 29.9947 25.1501 30 19.4119C30.0013 18.0443 29.7308 16.69 29.204 15.427C28.6772 14.1639 27.9046 13.0171 26.9307 12.0527H26.932ZM19.5395 28.0586C17.9825 28.0591 16.454 27.642 15.1149 26.8511L14.7985 26.6621L11.5103 27.5205L12.3884 24.3271L12.1827 23.9977C11.3123 22.62 10.8519 21.0249 10.855 19.3974C10.855 14.6383 14.7536 10.7559 19.5448 10.7559C20.6862 10.7539 21.8168 10.9768 22.8713 11.4118C23.9257 11.8468 24.8833 12.4852 25.6887 13.2904C26.497 14.0924 27.1377 15.0457 27.574 16.0955C28.0103 17.1452 28.2334 18.2706 28.2307 19.4066C28.2254 24.1828 24.3268 28.0586 19.5395 28.0586ZM24.3057 21.5827C24.046 21.4528 22.7631 20.8241 22.5218 20.7348C22.2819 20.6495 22.1065 20.6049 21.9351 20.8648C21.7598 21.1233 21.2588 21.7127 21.1085 21.882C20.9582 22.0565 20.8026 22.0762 20.5416 21.9476C20.2818 21.8163 19.4393 21.5433 18.4426 20.6548C17.6647 19.9657 17.144 19.1126 16.9884 18.854C16.8381 18.5942 16.9739 18.455 17.1044 18.3251C17.2191 18.2096 17.3641 18.0206 17.4947 17.871C17.6265 17.7214 17.67 17.6111 17.7557 17.4379C17.8414 17.262 17.8005 17.1124 17.7359 16.9824C17.67 16.8525 17.1492 15.5702 16.9291 15.0531C16.7181 14.5425 16.5032 14.6134 16.3424 14.6068C16.192 14.5976 16.0167 14.5976 15.8413 14.5976C15.7089 14.6009 15.5786 14.6314 15.4586 14.6872C15.3386 14.743 15.2314 14.8228 15.1439 14.9218C14.9039 15.1817 14.2329 15.8104 14.2329 17.0927C14.2329 18.375 15.1689 19.6074 15.3008 19.782C15.43 19.9565 17.1387 22.5802 19.761 23.709C20.3807 23.978 20.8685 24.1368 21.2496 24.2576C21.8758 24.4571 22.4414 24.4269 22.8923 24.3626C23.3933 24.2865 24.4362 23.7326 24.6564 23.1249C24.8726 22.5159 24.8726 21.9962 24.8067 21.8872C24.7421 21.777 24.5667 21.7127 24.3057 21.5827Z" fill="white"/>
</g>
<defs>
<clipPath id="clip0_152_1612">
<rect width="22" height="22" fill="white" transform="translate(9 9)"/>
</clipPath>
</defs>
</svg>
